<?xml version="1.0" encoding="utf-8" standalone="no"?>
<!DOCTYPE svg PUBLIC "-//W3C//DTD SVG 1.1//EN"
  "http://www.w3.org/Graphics/SVG/1.1/DTD/svg11.dtd">
<!-- Created with matplotlib (https://matplotlib.org/) -->
<svg height="720pt" version="1.1" viewBox="0 0 216 720" width="216pt" xmlns="http://www.w3.org/2000/svg" xmlns:xlink="http://www.w3.org/1999/xlink">
 <defs>
  <style type="text/css">
*{stroke-linecap:butt;stroke-linejoin:round;}
  </style>
 </defs>
 <g id="figure_1">
  <g id="patch_1">
   <path d="M 0 720 
L 216 720 
L 216 0 
L 0 0 
z
" style="fill:#ffffff;"/>
  </g>
  <g id="axes_1">
   <g id="patch_2">
    <path d="M 27 113.310891 
L 194.4 113.310891 
L 194.4 86.4 
L 27 86.4 
z
" style="fill:#ffffff;"/>
   </g>
   <g id="matplotlib.axis_1">
    <g id="xtick_1">
     <g id="line2d_1">
      <defs>
       <path d="M 0 0 
L 0 3.5 
" id="m1a566d0787" style="stroke:#000000;stroke-width:0.8;"/>
      </defs>
      <g>
       <use style="stroke:#000000;stroke-width:0.8;" x="69.727972" xlink:href="#m1a566d0787" y="113.310891"/>
      </g>
     </g>
    </g>
    <g id="xtick_2">
     <g id="line2d_2">
      <g>
       <use style="stroke:#000000;stroke-width:0.8;" x="128.259441" xlink:href="#m1a566d0787" y="113.310891"/>
      </g>
     </g>
    </g>
    <g id="xtick_3">
     <g id="line2d_3">
      <g>
       <use style="stroke:#000000;stroke-width:0.8;" x="186.790909" xlink:href="#m1a566d0787" y="113.310891"/>
      </g>
     </g>
    </g>
   </g>
   <g id="matplotlib.axis_2">
    <g id="ytick_1">
     <g id="line2d_4">
      <defs>
       <path d="M 0 0 
L -3.5 0 
" id="m6744209d83" style="stroke:#000000;stroke-width:0.8;"/>
      </defs>
      <g>
       <use style="stroke:#000000;stroke-width:0.8;" x="27" xlink:href="#m6744209d83" y="112.087669"/>
      </g>
     </g>
     <g id="text_1">
      <text style="font-family:DejaVu Sans;font-size:10px;font-style:normal;font-weight:normal;text-anchor:end;" transform="rotate(-0, 20, 115.886888)" x="20" y="115.886888">0.0</text>
     </g>
    </g>
    <g id="ytick_2">
     <g id="line2d_5">
      <g>
       <use style="stroke:#000000;stroke-width:0.8;" x="27" xlink:href="#m6744209d83" y="90.58953"/>
      </g>
     </g>
     <g id="text_2">
      <text style="font-family:DejaVu Sans;font-size:10px;font-style:normal;font-weight:normal;text-anchor:end;" transform="rotate(-0, 20, 94.388749)" x="20" y="94.388749">2.5</text>
     </g>
    </g>
   </g>
   <g id="line2d_6">
    <path clip-path="url(#pd1e3465a50)" d="M 34.609091 112.087669 
L 36.146281 112.087669 
L 37.683471 112.087669 
L 39.220661 112.087669 
L 40.757851 112.087669 
L 42.295041 112.087669 
L 43.832231 112.087669 
L 45.369421 112.087669 
L 46.906612 112.087669 
L 48.443802 112.087669 
L 49.980992 112.087669 
L 51.518182 112.087669 
L 53.055372 112.087669 
L 54.592562 112.087669 
L 56.129752 112.087669 
L 57.666942 112.087669 
L 59.204132 112.087669 
L 60.741322 112.087669 
L 62.278512 112.087669 
L 63.815702 112.087669 
L 65.352893 112.087669 
L 66.890083 112.087669 
L 68.427273 112.087669 
L 69.964463 112.087669 
L 71.501653 112.087669 
L 73.038843 112.087669 
L 74.576033 112.087669 
L 76.113223 112.087669 
L 77.650413 112.087669 
L 79.187603 112.087669 
L 80.724793 112.087669 
L 82.261983 112.087669 
L 83.799174 112.087669 
L 85.336364 112.087669 
L 86.873554 112.087669 
L 88.410744 112.087669 
L 89.947934 112.087669 
L 91.485124 112.087669 
L 93.022314 112.087669 
L 94.559504 112.087669 
L 96.096694 112.087669 
L 97.633884 112.087669 
L 99.171074 112.087669 
L 100.708264 112.087669 
L 102.245455 112.087669 
L 103.782645 112.087669 
L 105.319835 112.087669 
L 106.857025 112.087669 
L 108.394215 112.087669 
L 109.931405 112.087669 
L 111.468595 112.087669 
L 113.005785 112.087669 
L 114.542975 112.087669 
L 116.080165 112.087669 
L 117.617355 112.087669 
L 119.154545 112.087669 
L 120.691736 112.087669 
L 122.228926 112.087669 
L 123.766116 112.087669 
L 125.303306 112.087669 
L 126.840496 112.087669 
L 128.377686 112.087669 
L 129.914876 112.087669 
L 131.452066 112.087669 
L 132.989256 112.087669 
L 134.526446 112.087668 
L 136.063636 112.0876 
L 137.600826 112.082001 
L 139.138017 111.902385 
L 140.675207 109.697119 
L 142.212397 99.91469 
L 143.749587 87.623222 
L 145.286777 92.682682 
L 146.823967 106.012887 
L 148.361157 111.337105 
L 149.898347 112.051069 
L 151.435537 112.086964 
L 152.972727 112.087663 
L 154.509917 112.087669 
L 156.047107 112.087669 
L 157.584298 112.087669 
L 159.121488 112.087669 
L 160.658678 112.087669 
L 162.195868 112.087669 
L 163.733058 112.087669 
L 165.270248 112.087669 
L 166.807438 112.087669 
L 168.344628 112.087669 
L 169.881818 112.087669 
L 171.419008 112.087669 
L 172.956198 112.087669 
L 174.493388 112.087669 
L 176.030579 112.087669 
L 177.567769 112.087669 
L 179.104959 112.087669 
L 180.642149 112.087669 
L 182.179339 112.087669 
L 183.716529 112.087669 
L 185.253719 112.087669 
L 186.790909 112.087669 
" style="fill:none;stroke:#1f77b4;stroke-linecap:square;stroke-width:1.5;"/>
   </g>
   <g id="line2d_7">
    <path clip-path="url(#pd1e3465a50)" d="M 140.902238 112.087669 
L 140.902238 87.623222 
" style="fill:none;stroke:#000000;stroke-dasharray:5.55,2.4;stroke-dashoffset:0;stroke-width:1.5;"/>
   </g>
   <g id="line2d_8">
    <path clip-path="url(#pd1e3465a50)" d="M 147.223636 112.087669 
L 147.223636 87.623222 
" style="fill:none;stroke:#000000;stroke-dasharray:5.55,2.4;stroke-dashoffset:0;stroke-width:1.5;"/>
   </g>
   <g id="patch_3">
    <path d="M 27 113.310891 
L 27 86.4 
" style="fill:none;stroke:#000000;stroke-linecap:square;stroke-linejoin:miter;stroke-width:0.8;"/>
   </g>
   <g id="patch_4">
    <path d="M 194.4 113.310891 
L 194.4 86.4 
" style="fill:none;stroke:#000000;stroke-linecap:square;stroke-linejoin:miter;stroke-width:0.8;"/>
   </g>
   <g id="patch_5">
    <path d="M 27 113.310891 
L 194.4 113.310891 
" style="fill:none;stroke:#000000;stroke-linecap:square;stroke-linejoin:miter;stroke-width:0.8;"/>
   </g>
   <g id="patch_6">
    <path d="M 27 86.4 
L 194.4 86.4 
" style="fill:none;stroke:#000000;stroke-linecap:square;stroke-linejoin:miter;stroke-width:0.8;"/>
   </g>
  </g>
  <g id="axes_2">
   <g id="patch_7">
    <path d="M 27 145.60396 
L 194.4 145.60396 
L 194.4 118.693069 
L 27 118.693069 
z
" style="fill:#ffffff;"/>
   </g>
   <g id="matplotlib.axis_3">
    <g id="xtick_4">
     <g id="line2d_9">
      <g>
       <use style="stroke:#000000;stroke-width:0.8;" x="69.727972" xlink:href="#m1a566d0787" y="145.60396"/>
      </g>
     </g>
    </g>
    <g id="xtick_5">
     <g id="line2d_10">
      <g>
       <use style="stroke:#000000;stroke-width:0.8;" x="128.259441" xlink:href="#m1a566d0787" y="145.60396"/>
      </g>
     </g>
    </g>
    <g id="xtick_6">
     <g id="line2d_11">
      <g>
       <use style="stroke:#000000;stroke-width:0.8;" x="186.790909" xlink:href="#m1a566d0787" y="145.60396"/>
      </g>
     </g>
    </g>
   </g>
   <g id="matplotlib.axis_4">
    <g id="ytick_3">
     <g id="line2d_12">
      <g>
       <use style="stroke:#000000;stroke-width:0.8;" x="27" xlink:href="#m6744209d83" y="144.380738"/>
      </g>
     </g>
     <g id="text_3">
      <text style="font-family:DejaVu Sans;font-size:10px;font-style:normal;font-weight:normal;text-anchor:end;" transform="rotate(-0, 20, 148.179957)" x="20" y="148.179957">0.0</text>
     </g>
    </g>
    <g id="ytick_4">
     <g id="line2d_13">
      <g>
       <use style="stroke:#000000;stroke-width:0.8;" x="27" xlink:href="#m6744209d83" y="122.471788"/>
      </g>
     </g>
     <g id="text_4">
      <text style="font-family:DejaVu Sans;font-size:10px;font-style:normal;font-weight:normal;text-anchor:end;" transform="rotate(-0, 20, 126.271007)" x="20" y="126.271007">2.5</text>
     </g>
    </g>
   </g>
   <g id="line2d_14">
    <path clip-path="url(#p5c7ad4e5b9)" d="M 34.609091 144.380738 
L 36.146281 144.380738 
L 37.683471 144.380738 
L 39.220661 144.380738 
L 40.757851 144.380738 
L 42.295041 144.380738 
L 43.832231 144.380738 
L 45.369421 144.380738 
L 46.906612 144.380738 
L 48.443802 144.380738 
L 49.980992 144.380738 
L 51.518182 144.380738 
L 53.055372 144.380738 
L 54.592562 144.380738 
L 56.129752 144.380738 
L 57.666942 144.380738 
L 59.204132 144.380738 
L 60.741322 144.380738 
L 62.278512 144.380738 
L 63.815702 144.380738 
L 65.352893 144.380738 
L 66.890083 144.380738 
L 68.427273 144.380738 
L 69.964463 144.380738 
L 71.501653 144.380738 
L 73.038843 144.380738 
L 74.576033 144.380738 
L 76.113223 144.380738 
L 77.650413 144.380738 
L 79.187603 144.380738 
L 80.724793 144.380738 
L 82.261983 144.380738 
L 83.799174 144.380738 
L 85.336364 144.380738 
L 86.873554 144.380738 
L 88.410744 144.380738 
L 89.947934 144.380738 
L 91.485124 144.380738 
L 93.022314 144.380738 
L 94.559504 144.380738 
L 96.096694 144.380738 
L 97.633884 144.380738 
L 99.171074 144.380738 
L 100.708264 144.380738 
L 102.245455 144.380738 
L 103.782645 144.380738 
L 105.319835 144.380738 
L 106.857025 144.380738 
L 108.394215 144.380738 
L 109.931405 144.380738 
L 111.468595 144.380738 
L 113.005785 144.380738 
L 114.542975 144.380738 
L 116.080165 144.380738 
L 117.617355 144.380738 
L 119.154545 144.380738 
L 120.691736 144.380738 
L 122.228926 144.380738 
L 123.766116 144.380738 
L 125.303306 144.380738 
L 126.840496 144.380738 
L 128.377686 144.380738 
L 129.914876 144.380738 
L 131.452066 144.380738 
L 132.989256 144.380738 
L 134.526446 144.380738 
L 136.063636 144.380738 
L 137.600826 144.380738 
L 139.138017 144.380738 
L 140.675207 144.380738 
L 142.212397 144.380738 
L 143.749587 144.380738 
L 145.286777 144.380692 
L 146.823967 144.376613 
L 148.361157 144.233975 
L 149.898347 142.327053 
L 151.435537 133.078263 
L 152.972727 119.916292 
L 154.509917 123.554097 
L 156.047107 137.407651 
L 157.584298 143.462505 
L 159.121488 144.333182 
L 160.658678 144.379769 
L 162.195868 144.38073 
L 163.733058 144.380738 
L 165.270248 144.380738 
L 166.807438 144.380738 
L 168.344628 144.380738 
L 169.881818 144.380738 
L 171.419008 144.380738 
L 172.956198 144.380738 
L 174.493388 144.380738 
L 176.030579 144.380738 
L 177.567769 144.380738 
L 179.104959 144.380738 
L 180.642149 144.380738 
L 182.179339 144.380738 
L 183.716529 144.380738 
L 185.253719 144.380738 
L 186.790909 144.380738 
" style="fill:none;stroke:#1f77b4;stroke-linecap:square;stroke-width:1.5;"/>
   </g>
   <g id="line2d_15">
    <path clip-path="url(#p5c7ad4e5b9)" d="M 150.384336 144.380738 
L 150.384336 119.916292 
" style="fill:none;stroke:#000000;stroke-dasharray:5.55,2.4;stroke-dashoffset:0;stroke-width:1.5;"/>
   </g>
   <g id="line2d_16">
    <path clip-path="url(#p5c7ad4e5b9)" d="M 156.588671 144.380738 
L 156.588671 119.916292 
" style="fill:none;stroke:#000000;stroke-dasharray:5.55,2.4;stroke-dashoffset:0;stroke-width:1.5;"/>
   </g>
   <g id="patch_8">
    <path d="M 27 145.60396 
L 27 118.693069 
" style="fill:none;stroke:#000000;stroke-linecap:square;stroke-linejoin:miter;stroke-width:0.8;"/>
   </g>
   <g id="patch_9">
    <path d="M 194.4 145.60396 
L 194.4 118.693069 
" style="fill:none;stroke:#000000;stroke-linecap:square;stroke-linejoin:miter;stroke-width:0.8;"/>
   </g>
   <g id="patch_10">
    <path d="M 27 145.60396 
L 194.4 145.60396 
" style="fill:none;stroke:#000000;stroke-linecap:square;stroke-linejoin:miter;stroke-width:0.8;"/>
   </g>
   <g id="patch_11">
    <path d="M 27 118.693069 
L 194.4 118.693069 
" style="fill:none;stroke:#000000;stroke-linecap:square;stroke-linejoin:miter;stroke-width:0.8;"/>
   </g>
  </g>
  <g id="axes_3">
   <g id="patch_12">
    <path d="M 27 177.89703 
L 194.4 177.89703 
L 194.4 150.986139 
L 27 150.986139 
z
" style="fill:#ffffff;"/>
   </g>
   <g id="matplotlib.axis_5">
    <g id="xtick_7">
     <g id="line2d_17">
      <g>
       <use style="stroke:#000000;stroke-width:0.8;" x="69.727972" xlink:href="#m1a566d0787" y="177.89703"/>
      </g>
     </g>
    </g>
    <g id="xtick_8">
     <g id="line2d_18">
      <g>
       <use style="stroke:#000000;stroke-width:0.8;" x="128.259441" xlink:href="#m1a566d0787" y="177.89703"/>
      </g>
     </g>
    </g>
    <g id="xtick_9">
     <g id="line2d_19">
      <g>
       <use style="stroke:#000000;stroke-width:0.8;" x="186.790909" xlink:href="#m1a566d0787" y="177.89703"/>
      </g>
     </g>
    </g>
   </g>
   <g id="matplotlib.axis_6">
    <g id="ytick_5">
     <g id="line2d_20">
      <g>
       <use style="stroke:#000000;stroke-width:0.8;" x="27" xlink:href="#m6744209d83" y="176.673807"/>
      </g>
     </g>
     <g id="text_5">
      <text style="font-family:DejaVu Sans;font-size:10px;font-style:normal;font-weight:normal;text-anchor:end;" transform="rotate(-0, 20, 180.473026)" x="20" y="180.473026">0.0</text>
     </g>
    </g>
    <g id="ytick_6">
     <g id="line2d_21">
      <g>
       <use style="stroke:#000000;stroke-width:0.8;" x="27" xlink:href="#m6744209d83" y="154.219891"/>
      </g>
     </g>
     <g id="text_6">
      <text style="font-family:DejaVu Sans;font-size:10px;font-style:normal;font-weight:normal;text-anchor:end;" transform="rotate(-0, 20, 158.019109)" x="20" y="158.019109">2.5</text>
     </g>
    </g>
   </g>
   <g id="line2d_22">
    <path clip-path="url(#p7d7269cf6e)" d="M 34.609091 176.673807 
L 36.146281 176.673807 
L 37.683471 176.673807 
L 39.220661 176.673807 
L 40.757851 176.673807 
L 42.295041 176.673807 
L 43.832231 176.673807 
L 45.369421 176.673807 
L 46.906612 176.673807 
L 48.443802 176.673807 
L 49.980992 176.673807 
L 51.518182 176.673807 
L 53.055372 176.673807 
L 54.592562 176.673807 
L 56.129752 176.673807 
L 57.666942 176.673807 
L 59.204132 176.673807 
L 60.741322 176.673807 
L 62.278512 176.673807 
L 63.815702 176.673807 
L 65.352893 176.673807 
L 66.890083 176.673807 
L 68.427273 176.673807 
L 69.964463 176.673807 
L 71.501653 176.673807 
L 73.038843 176.673807 
L 74.576033 176.673807 
L 76.113223 176.673807 
L 77.650413 176.673807 
L 79.187603 176.673807 
L 80.724793 176.673807 
L 82.261983 176.673807 
L 83.799174 176.673807 
L 85.336364 176.673807 
L 86.873554 176.673807 
L 88.410744 176.673807 
L 89.947934 176.673807 
L 91.485124 176.673807 
L 93.022314 176.673807 
L 94.559504 176.673807 
L 96.096694 176.673807 
L 97.633884 176.673807 
L 99.171074 176.673807 
L 100.708264 176.673807 
L 102.245455 176.673807 
L 103.782645 176.673807 
L 105.319835 176.673807 
L 106.857025 176.673807 
L 108.394215 176.673807 
L 109.931405 176.673807 
L 111.468595 176.673807 
L 113.005785 176.673807 
L 114.542975 176.673807 
L 116.080165 176.673807 
L 117.617355 176.673807 
L 119.154545 176.673807 
L 120.691736 176.673807 
L 122.228926 176.673807 
L 123.766116 176.673807 
L 125.303306 176.673807 
L 126.840496 176.673807 
L 128.377686 176.673797 
L 129.914876 176.67253 
L 131.452066 176.612983 
L 132.989256 175.548817 
L 134.526446 168.590607 
L 136.063636 154.111741 
L 137.600826 152.209361 
L 139.138017 166.368692 
L 140.675207 174.987521 
L 142.212397 176.566613 
L 143.749587 176.67116 
L 145.286777 176.673782 
L 146.823967 176.673807 
L 148.361157 176.673807 
L 149.898347 176.673807 
L 151.435537 176.673807 
L 152.972727 176.673807 
L 154.509917 176.673807 
L 156.047107 176.673807 
L 157.584298 176.673807 
L 159.121488 176.673807 
L 160.658678 176.673807 
L 162.195868 176.673807 
L 163.733058 176.673807 
L 165.270248 176.673807 
L 166.807438 176.673807 
L 168.344628 176.673807 
L 169.881818 176.673807 
L 171.419008 176.673807 
L 172.956198 176.673807 
L 174.493388 176.673807 
L 176.030579 176.673807 
L 177.567769 176.673807 
L 179.104959 176.673807 
L 180.642149 176.673807 
L 182.179339 176.673807 
L 183.716529 176.673807 
L 185.253719 176.673807 
L 186.790909 176.673807 
" style="fill:none;stroke:#1f77b4;stroke-linecap:square;stroke-width:1.5;"/>
   </g>
   <g id="line2d_23">
    <path clip-path="url(#p7d7269cf6e)" d="M 133.878462 176.673807 
L 133.878462 152.209361 
" style="fill:none;stroke:#000000;stroke-dasharray:5.55,2.4;stroke-dashoffset:0;stroke-width:1.5;"/>
   </g>
   <g id="line2d_24">
    <path clip-path="url(#p7d7269cf6e)" d="M 140.082797 176.673807 
L 140.082797 152.209361 
" style="fill:none;stroke:#000000;stroke-dasharray:5.55,2.4;stroke-dashoffset:0;stroke-width:1.5;"/>
   </g>
   <g id="patch_13">
    <path d="M 27 177.89703 
L 27 150.986139 
" style="fill:none;stroke:#000000;stroke-linecap:square;stroke-linejoin:miter;stroke-width:0.8;"/>
   </g>
   <g id="patch_14">
    <path d="M 194.4 177.89703 
L 194.4 150.986139 
" style="fill:none;stroke:#000000;stroke-linecap:square;stroke-linejoin:miter;stroke-width:0.8;"/>
   </g>
   <g id="patch_15">
    <path d="M 27 177.89703 
L 194.4 177.89703 
" style="fill:none;stroke:#000000;stroke-linecap:square;stroke-linejoin:miter;stroke-width:0.8;"/>
   </g>
   <g id="patch_16">
    <path d="M 27 150.986139 
L 194.4 150.986139 
" style="fill:none;stroke:#000000;stroke-linecap:square;stroke-linejoin:miter;stroke-width:0.8;"/>
   </g>
  </g>
  <g id="axes_4">
   <g id="patch_17">
    <path d="M 27 210.190099 
L 194.4 210.190099 
L 194.4 183.279208 
L 27 183.279208 
z
" style="fill:#ffffff;"/>
   </g>
   <g id="matplotlib.axis_7">
    <g id="xtick_10">
     <g id="line2d_25">
      <g>
       <use style="stroke:#000000;stroke-width:0.8;" x="69.727972" xlink:href="#m1a566d0787" y="210.190099"/>
      </g>
     </g>
    </g>
    <g id="xtick_11">
     <g id="line2d_26">
      <g>
       <use style="stroke:#000000;stroke-width:0.8;" x="128.259441" xlink:href="#m1a566d0787" y="210.190099"/>
      </g>
     </g>
    </g>
    <g id="xtick_12">
     <g id="line2d_27">
      <g>
       <use style="stroke:#000000;stroke-width:0.8;" x="186.790909" xlink:href="#m1a566d0787" y="210.190099"/>
      </g>
     </g>
    </g>
   </g>
   <g id="matplotlib.axis_8">
    <g id="ytick_7">
     <g id="line2d_28">
      <g>
       <use style="stroke:#000000;stroke-width:0.8;" x="27" xlink:href="#m6744209d83" y="208.966877"/>
      </g>
     </g>
     <g id="text_7">
      <text style="font-family:DejaVu Sans;font-size:10px;font-style:normal;font-weight:normal;text-anchor:end;" transform="rotate(-0, 20, 212.766095)" x="20" y="212.766095">0.0</text>
     </g>
    </g>
    <g id="ytick_8">
     <g id="line2d_29">
      <g>
       <use style="stroke:#000000;stroke-width:0.8;" x="27" xlink:href="#m6744209d83" y="188.020725"/>
      </g>
     </g>
     <g id="text_8">
      <text style="font-family:DejaVu Sans;font-size:10px;font-style:normal;font-weight:normal;text-anchor:end;" transform="rotate(-0, 20, 191.819944)" x="20" y="191.819944">2.5</text>
     </g>
    </g>
   </g>
   <g id="line2d_30">
    <path clip-path="url(#p43355bf729)" d="M 34.609091 208.966877 
L 36.146281 208.966877 
L 37.683471 208.966877 
L 39.220661 208.966877 
L 40.757851 208.966877 
L 42.295041 208.966877 
L 43.832231 208.966877 
L 45.369421 208.966877 
L 46.906612 208.966877 
L 48.443802 208.966877 
L 49.980992 208.966877 
L 51.518182 208.966877 
L 53.055372 208.966877 
L 54.592562 208.966877 
L 56.129752 208.966877 
L 57.666942 208.966877 
L 59.204132 208.966877 
L 60.741322 208.966877 
L 62.278512 208.966877 
L 63.815702 208.966877 
L 65.352893 208.966877 
L 66.890083 208.966877 
L 68.427273 208.966877 
L 69.964463 208.966877 
L 71.501653 208.966877 
L 73.038843 208.966877 
L 74.576033 208.966877 
L 76.113223 208.966877 
L 77.650413 208.966877 
L 79.187603 208.966877 
L 80.724793 208.966877 
L 82.261983 208.966877 
L 83.799174 208.966877 
L 85.336364 208.966877 
L 86.873554 208.966877 
L 88.410744 208.966877 
L 89.947934 208.966877 
L 91.485124 208.966877 
L 93.022314 208.966877 
L 94.559504 208.966877 
L 96.096694 208.966877 
L 97.633884 208.966877 
L 99.171074 208.966877 
L 100.708264 208.966877 
L 102.245455 208.966877 
L 103.782645 208.966877 
L 105.319835 208.966877 
L 106.857025 208.966877 
L 108.394215 208.966877 
L 109.931405 208.966877 
L 111.468595 208.966877 
L 113.005785 208.966877 
L 114.542975 208.966877 
L 116.080165 208.966877 
L 117.617355 208.966877 
L 119.154545 208.966877 
L 120.691736 208.966877 
L 122.228926 208.966877 
L 123.766116 208.966876 
L 125.303306 208.966722 
L 126.840496 208.955989 
L 128.377686 208.66494 
L 129.914876 205.659291 
L 131.452066 194.654303 
L 132.989256 184.50243 
L 134.526446 192.448628 
L 136.063636 204.561292 
L 137.600826 208.502731 
L 139.138017 208.947561 
L 140.675207 208.966559 
L 142.212397 208.966875 
L 143.749587 208.966877 
L 145.286777 208.966877 
L 146.823967 208.966877 
L 148.361157 208.966877 
L 149.898347 208.966877 
L 151.435537 208.966877 
L 152.972727 208.966877 
L 154.509917 208.966877 
L 156.047107 208.966877 
L 157.584298 208.966877 
L 159.121488 208.966877 
L 160.658678 208.966877 
L 162.195868 208.966877 
L 163.733058 208.966877 
L 165.270248 208.966877 
L 166.807438 208.966877 
L 168.344628 208.966877 
L 169.881818 208.966877 
L 171.419008 208.966877 
L 172.956198 208.966877 
L 174.493388 208.966877 
L 176.030579 208.966877 
L 177.567769 208.966877 
L 179.104959 208.966877 
L 180.642149 208.966877 
L 182.179339 208.966877 
L 183.716529 208.966877 
L 185.253719 208.966877 
L 186.790909 208.966877 
" style="fill:none;stroke:#1f77b4;stroke-linecap:square;stroke-width:1.5;"/>
   </g>
   <g id="line2d_31">
    <path clip-path="url(#p43355bf729)" d="M 129.898322 208.966877 
L 129.898322 184.50243 
" style="fill:none;stroke:#000000;stroke-dasharray:5.55,2.4;stroke-dashoffset:0;stroke-width:1.5;"/>
   </g>
   <g id="line2d_32">
    <path clip-path="url(#p43355bf729)" d="M 136.21972 208.966877 
L 136.21972 184.50243 
" style="fill:none;stroke:#000000;stroke-dasharray:5.55,2.4;stroke-dashoffset:0;stroke-width:1.5;"/>
   </g>
   <g id="patch_18">
    <path d="M 27 210.190099 
L 27 183.279208 
" style="fill:none;stroke:#000000;stroke-linecap:square;stroke-linejoin:miter;stroke-width:0.8;"/>
   </g>
   <g id="patch_19">
    <path d="M 194.4 210.190099 
L 194.4 183.279208 
" style="fill:none;stroke:#000000;stroke-linecap:square;stroke-linejoin:miter;stroke-width:0.8;"/>
   </g>
   <g id="patch_20">
    <path d="M 27 210.190099 
L 194.4 210.190099 
" style="fill:none;stroke:#000000;stroke-linecap:square;stroke-linejoin:miter;stroke-width:0.8;"/>
   </g>
   <g id="patch_21">
    <path d="M 27 183.279208 
L 194.4 183.279208 
" style="fill:none;stroke:#000000;stroke-linecap:square;stroke-linejoin:miter;stroke-width:0.8;"/>
   </g>
  </g>
  <g id="axes_5">
   <g id="patch_22">
    <path d="M 27 242.483168 
L 194.4 242.483168 
L 194.4 215.572277 
L 27 215.572277 
z
" style="fill:#ffffff;"/>
   </g>
   <g id="matplotlib.axis_9">
    <g id="xtick_13">
     <g id="line2d_33">
      <g>
       <use style="stroke:#000000;stroke-width:0.8;" x="69.727972" xlink:href="#m1a566d0787" y="242.483168"/>
      </g>
     </g>
    </g>
    <g id="xtick_14">
     <g id="line2d_34">
      <g>
       <use style="stroke:#000000;stroke-width:0.8;" x="128.259441" xlink:href="#m1a566d0787" y="242.483168"/>
      </g>
     </g>
    </g>
    <g id="xtick_15">
     <g id="line2d_35">
      <g>
       <use style="stroke:#000000;stroke-width:0.8;" x="186.790909" xlink:href="#m1a566d0787" y="242.483168"/>
      </g>
     </g>
    </g>
   </g>
   <g id="matplotlib.axis_10">
    <g id="ytick_9">
     <g id="line2d_36">
      <g>
       <use style="stroke:#000000;stroke-width:0.8;" x="27" xlink:href="#m6744209d83" y="241.259946"/>
      </g>
     </g>
     <g id="text_9">
      <text style="font-family:DejaVu Sans;font-size:10px;font-style:normal;font-weight:normal;text-anchor:end;" transform="rotate(-0, 20, 245.059165)" x="20" y="245.059165">0.0</text>
     </g>
    </g>
    <g id="ytick_10">
     <g id="line2d_37">
      <g>
       <use style="stroke:#000000;stroke-width:0.8;" x="27" xlink:href="#m6744209d83" y="219.470323"/>
      </g>
     </g>
     <g id="text_10">
      <text style="font-family:DejaVu Sans;font-size:10px;font-style:normal;font-weight:normal;text-anchor:end;" transform="rotate(-0, 20, 223.269542)" x="20" y="223.269542">2.5</text>
     </g>
    </g>
   </g>
   <g id="line2d_38">
    <path clip-path="url(#p31beced234)" d="M 34.609091 241.259946 
L 36.146281 241.259946 
L 37.683471 241.259946 
L 39.220661 241.259946 
L 40.757851 241.259946 
L 42.295041 241.259946 
L 43.832231 241.259946 
L 45.369421 241.259946 
L 46.906612 241.259946 
L 48.443802 241.259946 
L 49.980992 241.259946 
L 51.518182 241.259946 
L 53.055372 241.259946 
L 54.592562 241.259946 
L 56.129752 241.259946 
L 57.666942 241.259946 
L 59.204132 241.259946 
L 60.741322 241.259946 
L 62.278512 241.259946 
L 63.815702 241.259946 
L 65.352893 241.259946 
L 66.890083 241.259946 
L 68.427273 241.259946 
L 69.964463 241.259946 
L 71.501653 241.259946 
L 73.038843 241.259946 
L 74.576033 241.259946 
L 76.113223 241.259946 
L 77.650413 241.259946 
L 79.187603 241.259946 
L 80.724793 241.259946 
L 82.261983 241.259946 
L 83.799174 241.259946 
L 85.336364 241.259946 
L 86.873554 241.259946 
L 88.410744 241.259946 
L 89.947934 241.259946 
L 91.485124 241.259946 
L 93.022314 241.259946 
L 94.559504 241.259946 
L 96.096694 241.259946 
L 97.633884 241.259946 
L 99.171074 241.259946 
L 100.708264 241.259946 
L 102.245455 241.259946 
L 103.782645 241.259946 
L 105.319835 241.259946 
L 106.857025 241.259946 
L 108.394215 241.259946 
L 109.931405 241.259946 
L 111.468595 241.259946 
L 113.005785 241.259946 
L 114.542975 241.259946 
L 116.080165 241.259946 
L 117.617355 241.259946 
L 119.154545 241.259946 
L 120.691736 241.259946 
L 122.228926 241.259946 
L 123.766116 241.259879 
L 125.303306 241.254499 
L 126.840496 241.082697 
L 128.377686 238.961455 
L 129.914876 229.381493 
L 131.452066 216.7955 
L 132.989256 221.179682 
L 134.526446 234.69151 
L 136.063636 240.403672 
L 137.600826 241.21546 
L 139.138017 241.259025 
L 140.675207 241.259938 
L 142.212397 241.259946 
L 143.749587 241.259946 
L 145.286777 241.259946 
L 146.823967 241.259946 
L 148.361157 241.259946 
L 149.898347 241.259946 
L 151.435537 241.259946 
L 152.972727 241.259946 
L 154.509917 241.259946 
L 156.047107 241.259946 
L 157.584298 241.259946 
L 159.121488 241.259946 
L 160.658678 241.259946 
L 162.195868 241.259946 
L 163.733058 241.259946 
L 165.270248 241.259946 
L 166.807438 241.259946 
L 168.344628 241.259946 
L 169.881818 241.259946 
L 171.419008 241.259946 
L 172.956198 241.259946 
L 174.493388 241.259946 
L 176.030579 241.259946 
L 177.567769 241.259946 
L 179.104959 241.259946 
L 180.642149 241.259946 
L 182.179339 241.259946 
L 183.716529 241.259946 
L 185.253719 241.259946 
L 186.790909 241.259946 
" style="fill:none;stroke:#1f77b4;stroke-linecap:square;stroke-width:1.5;"/>
   </g>
   <g id="line2d_39">
    <path clip-path="url(#p31beced234)" d="M 128.727692 241.259946 
L 128.727692 216.7955 
" style="fill:none;stroke:#000000;stroke-dasharray:5.55,2.4;stroke-dashoffset:0;stroke-width:1.5;"/>
   </g>
   <g id="line2d_40">
    <path clip-path="url(#p31beced234)" d="M 135.049091 241.259946 
L 135.049091 216.7955 
" style="fill:none;stroke:#000000;stroke-dasharray:5.55,2.4;stroke-dashoffset:0;stroke-width:1.5;"/>
   </g>
   <g id="patch_23">
    <path d="M 27 242.483168 
L 27 215.572277 
" style="fill:none;stroke:#000000;stroke-linecap:square;stroke-linejoin:miter;stroke-width:0.8;"/>
   </g>
   <g id="patch_24">
    <path d="M 194.4 242.483168 
L 194.4 215.572277 
" style="fill:none;stroke:#000000;stroke-linecap:square;stroke-linejoin:miter;stroke-width:0.8;"/>
   </g>
   <g id="patch_25">
    <path d="M 27 242.483168 
L 194.4 242.483168 
" style="fill:none;stroke:#000000;stroke-linecap:square;stroke-linejoin:miter;stroke-width:0.8;"/>
   </g>
   <g id="patch_26">
    <path d="M 27 215.572277 
L 194.4 215.572277 
" style="fill:none;stroke:#000000;stroke-linecap:square;stroke-linejoin:miter;stroke-width:0.8;"/>
   </g>
  </g>
  <g id="axes_6">
   <g id="patch_27">
    <path d="M 27 274.776238 
L 194.4 274.776238 
L 194.4 247.865347 
L 27 247.865347 
z
" style="fill:#ffffff;"/>
   </g>
   <g id="matplotlib.axis_11">
    <g id="xtick_16">
     <g id="line2d_41">
      <g>
       <use style="stroke:#000000;stroke-width:0.8;" x="69.727972" xlink:href="#m1a566d0787" y="274.776238"/>
      </g>
     </g>
    </g>
    <g id="xtick_17">
     <g id="line2d_42">
      <g>
       <use style="stroke:#000000;stroke-width:0.8;" x="128.259441" xlink:href="#m1a566d0787" y="274.776238"/>
      </g>
     </g>
    </g>
    <g id="xtick_18">
     <g id="line2d_43">
      <g>
       <use style="stroke:#000000;stroke-width:0.8;" x="186.790909" xlink:href="#m1a566d0787" y="274.776238"/>
      </g>
     </g>
    </g>
   </g>
   <g id="matplotlib.axis_12">
    <g id="ytick_11">
     <g id="line2d_44">
      <g>
       <use style="stroke:#000000;stroke-width:0.8;" x="27" xlink:href="#m6744209d83" y="273.553015"/>
      </g>
     </g>
     <g id="text_11">
      <text style="font-family:DejaVu Sans;font-size:10px;font-style:normal;font-weight:normal;text-anchor:end;" transform="rotate(-0, 20, 277.352234)" x="20" y="277.352234">0</text>
     </g>
    </g>
    <g id="ytick_12">
     <g id="line2d_45">
      <g>
       <use style="stroke:#000000;stroke-width:0.8;" x="27" xlink:href="#m6744209d83" y="253.325121"/>
      </g>
     </g>
     <g id="text_12">
      <text style="font-family:DejaVu Sans;font-size:10px;font-style:normal;font-weight:normal;text-anchor:end;" transform="rotate(-0, 20, 257.12434)" x="20" y="257.12434">1</text>
     </g>
    </g>
   </g>
   <g id="line2d_46">
    <path clip-path="url(#p12e08e164a)" d="M 34.609091 273.553015 
L 36.146281 273.553015 
L 37.683471 273.553015 
L 39.220661 273.553015 
L 40.757851 273.553015 
L 42.295041 273.553015 
L 43.832231 273.553015 
L 45.369421 273.553015 
L 46.906612 273.553015 
L 48.443802 273.553015 
L 49.980992 273.553015 
L 51.518182 273.553015 
L 53.055372 273.553015 
L 54.592562 273.553015 
L 56.129752 273.553015 
L 57.666942 273.553015 
L 59.204132 273.553015 
L 60.741322 273.553015 
L 62.278512 273.553015 
L 63.815702 273.553015 
L 65.352893 273.553015 
L 66.890083 273.553015 
L 68.427273 273.553015 
L 69.964463 273.553015 
L 71.501653 273.553015 
L 73.038843 273.553015 
L 74.576033 273.553015 
L 76.113223 273.553015 
L 77.650413 273.553015 
L 79.187603 273.553015 
L 80.724793 273.553015 
L 82.261983 273.553015 
L 83.799174 273.553015 
L 85.336364 273.553015 
L 86.873554 273.553015 
L 88.410744 273.553015 
L 89.947934 273.553015 
L 91.485124 273.553015 
L 93.022314 273.553015 
L 94.559504 273.553015 
L 96.096694 273.553009 
L 97.633884 273.552961 
L 99.171074 273.552629 
L 100.708264 273.550673 
L 102.245455 273.540929 
L 103.782645 273.499863 
L 105.319835 273.353822 
L 106.857025 272.916865 
L 108.394215 271.821687 
L 109.931405 269.537562 
L 111.468595 265.616594 
L 113.005785 260.185527 
L 114.542975 254.365887 
L 116.080165 250.083443 
L 117.617355 249.088569 
L 119.154545 251.820968 
L 120.691736 257.101689 
L 122.228926 262.940062 
L 123.766116 267.718476 
L 125.303306 270.81956 
L 126.840496 272.461695 
L 128.377686 273.181713 
L 129.914876 273.445359 
L 131.452066 273.526415 
L 132.989256 273.547414 
L 134.526446 273.55201 
L 136.063636 273.552862 
L 137.600826 273.552995 
L 139.138017 273.553013 
L 140.675207 273.553015 
L 142.212397 273.553015 
L 143.749587 273.553015 
L 145.286777 273.553015 
L 146.823967 273.553015 
L 148.361157 273.553015 
L 149.898347 273.553015 
L 151.435537 273.553015 
L 152.972727 273.553015 
L 154.509917 273.553015 
L 156.047107 273.553015 
L 157.584298 273.553015 
L 159.121488 273.553015 
L 160.658678 273.553015 
L 162.195868 273.553015 
L 163.733058 273.553015 
L 165.270248 273.553015 
L 166.807438 273.553015 
L 168.344628 273.553015 
L 169.881818 273.553015 
L 171.419008 273.553015 
L 172.956198 273.553015 
L 174.493388 273.553015 
L 176.030579 273.553015 
L 177.567769 273.553015 
L 179.104959 273.553015 
L 180.642149 273.553015 
L 182.179339 273.553015 
L 183.716529 273.553015 
L 185.253719 273.553015 
L 186.790909 273.553015 
" style="fill:none;stroke:#1f77b4;stroke-linecap:square;stroke-width:1.5;"/>
   </g>
   <g id="line2d_47">
    <path clip-path="url(#p12e08e164a)" d="M 109.646434 273.553015 
L 109.646434 249.088569 
" style="fill:none;stroke:#000000;stroke-dasharray:5.55,2.4;stroke-dashoffset:0;stroke-width:1.5;"/>
   </g>
   <g id="line2d_48">
    <path clip-path="url(#p12e08e164a)" d="M 124.864615 273.553015 
L 124.864615 249.088569 
" style="fill:none;stroke:#000000;stroke-dasharray:5.55,2.4;stroke-dashoffset:0;stroke-width:1.5;"/>
   </g>
   <g id="patch_28">
    <path d="M 27 274.776238 
L 27 247.865347 
" style="fill:none;stroke:#000000;stroke-linecap:square;stroke-linejoin:miter;stroke-width:0.8;"/>
   </g>
   <g id="patch_29">
    <path d="M 194.4 274.776238 
L 194.4 247.865347 
" style="fill:none;stroke:#000000;stroke-linecap:square;stroke-linejoin:miter;stroke-width:0.8;"/>
   </g>
   <g id="patch_30">
    <path d="M 27 274.776238 
L 194.4 274.776238 
" style="fill:none;stroke:#000000;stroke-linecap:square;stroke-linejoin:miter;stroke-width:0.8;"/>
   </g>
   <g id="patch_31">
    <path d="M 27 247.865347 
L 194.4 247.865347 
" style="fill:none;stroke:#000000;stroke-linecap:square;stroke-linejoin:miter;stroke-width:0.8;"/>
   </g>
  </g>
  <g id="axes_7">
   <g id="patch_32">
    <path d="M 27 307.069307 
L 194.4 307.069307 
L 194.4 280.158416 
L 27 280.158416 
z
" style="fill:#ffffff;"/>
   </g>
   <g id="matplotlib.axis_13">
    <g id="xtick_19">
     <g id="line2d_49">
      <g>
       <use style="stroke:#000000;stroke-width:0.8;" x="69.727972" xlink:href="#m1a566d0787" y="307.069307"/>
      </g>
     </g>
    </g>
    <g id="xtick_20">
     <g id="line2d_50">
      <g>
       <use style="stroke:#000000;stroke-width:0.8;" x="128.259441" xlink:href="#m1a566d0787" y="307.069307"/>
      </g>
     </g>
    </g>
    <g id="xtick_21">
     <g id="line2d_51">
      <g>
       <use style="stroke:#000000;stroke-width:0.8;" x="186.790909" xlink:href="#m1a566d0787" y="307.069307"/>
      </g>
     </g>
    </g>
   </g>
   <g id="matplotlib.axis_14">
    <g id="ytick_13">
     <g id="line2d_52">
      <g>
       <use style="stroke:#000000;stroke-width:0.8;" x="27" xlink:href="#m6744209d83" y="305.846085"/>
      </g>
     </g>
     <g id="text_13">
      <text style="font-family:DejaVu Sans;font-size:10px;font-style:normal;font-weight:normal;text-anchor:end;" transform="rotate(-0, 20, 309.645303)" x="20" y="309.645303">0.0</text>
     </g>
    </g>
    <g id="ytick_14">
     <g id="line2d_53">
      <g>
       <use style="stroke:#000000;stroke-width:0.8;" x="27" xlink:href="#m6744209d83" y="289.576965"/>
      </g>
     </g>
     <g id="text_14">
      <text style="font-family:DejaVu Sans;font-size:10px;font-style:normal;font-weight:normal;text-anchor:end;" transform="rotate(-0, 20, 293.376183)" x="20" y="293.376183">0.5</text>
     </g>
    </g>
   </g>
   <g id="line2d_54">
    <path clip-path="url(#p6e3f791eb8)" d="M 34.609091 305.846085 
L 36.146281 305.846085 
L 37.683471 305.846085 
L 39.220661 305.846085 
L 40.757851 305.846085 
L 42.295041 305.846085 
L 43.832231 305.846085 
L 45.369421 305.846085 
L 46.906612 305.846085 
L 48.443802 305.846085 
L 49.980992 305.846085 
L 51.518182 305.846085 
L 53.055372 305.846085 
L 54.592562 305.846085 
L 56.129752 305.846085 
L 57.666942 305.846085 
L 59.204132 305.846085 
L 60.741322 305.846085 
L 62.278512 305.846085 
L 63.815702 305.846085 
L 65.352893 305.846085 
L 66.890083 305.846085 
L 68.427273 305.846085 
L 69.964463 305.846085 
L 71.501653 305.846085 
L 73.038843 305.846085 
L 74.576033 305.846085 
L 76.113223 305.846085 
L 77.650413 305.846085 
L 79.187603 305.846085 
L 80.724793 305.846085 
L 82.261983 305.846085 
L 83.799174 305.846085 
L 85.336364 305.846085 
L 86.873554 305.846085 
L 88.410744 305.846085 
L 89.947934 305.846085 
L 91.485124 305.846085 
L 93.022314 305.846085 
L 94.559504 305.846085 
L 96.096694 305.846085 
L 97.633884 305.846085 
L 99.171074 305.846085 
L 100.708264 305.846085 
L 102.245455 305.846085 
L 103.782645 305.846085 
L 105.319835 305.846084 
L 106.857025 305.846084 
L 108.394215 305.846081 
L 109.931405 305.846071 
L 111.468595 305.846033 
L 113.005785 305.845907 
L 114.542975 305.845505 
L 116.080165 305.844309 
L 117.617355 305.840972 
L 119.154545 305.832252 
L 120.691736 305.810912 
L 122.228926 305.762039 
L 123.766116 305.65735 
L 125.303306 305.447782 
L 126.840496 305.056131 
L 128.377686 304.373722 
L 129.914876 303.267074 
L 131.452066 301.600701 
L 132.989256 299.278497 
L 134.526446 296.297915 
L 136.063636 292.800619 
L 137.600826 289.09572 
L 139.138017 285.633856 
L 140.675207 282.925307 
L 142.212397 281.419106 
L 143.749587 281.381638 
L 145.286777 282.819673 
L 146.823967 285.478366 
L 148.361157 288.915041 
L 149.898347 292.619421 
L 151.435537 296.135573 
L 152.972727 299.146326 
L 154.509917 301.501968 
L 156.047107 303.198993 
L 157.584298 304.330215 
L 159.121488 305.030292 
L 160.658678 305.433491 
L 162.195868 305.649978 
L 163.733058 305.758488 
L 165.270248 305.809314 
L 166.807438 305.831579 
L 168.344628 305.840707 
L 169.881818 305.844211 
L 171.419008 305.845471 
L 172.956198 305.845896 
L 174.493388 305.84603 
L 176.030579 305.84607 
L 177.567769 305.846081 
L 179.104959 305.846084 
L 180.642149 305.846084 
L 182.179339 305.846085 
L 183.716529 305.846085 
L 185.253719 305.846085 
L 186.790909 305.846085 
" style="fill:none;stroke:#1f77b4;stroke-linecap:square;stroke-width:1.5;"/>
   </g>
   <g id="line2d_55">
    <path clip-path="url(#p6e3f791eb8)" d="M 130.951888 305.846085 
L 130.951888 281.381638 
" style="fill:none;stroke:#000000;stroke-dasharray:5.55,2.4;stroke-dashoffset:0;stroke-width:1.5;"/>
   </g>
   <g id="line2d_56">
    <path clip-path="url(#p6e3f791eb8)" d="M 155.300979 305.846085 
L 155.300979 281.381638 
" style="fill:none;stroke:#000000;stroke-dasharray:5.55,2.4;stroke-dashoffset:0;stroke-width:1.5;"/>
   </g>
   <g id="patch_33">
    <path d="M 27 307.069307 
L 27 280.158416 
" style="fill:none;stroke:#000000;stroke-linecap:square;stroke-linejoin:miter;stroke-width:0.8;"/>
   </g>
   <g id="patch_34">
    <path d="M 194.4 307.069307 
L 194.4 280.158416 
" style="fill:none;stroke:#000000;stroke-linecap:square;stroke-linejoin:miter;stroke-width:0.8;"/>
   </g>
   <g id="patch_35">
    <path d="M 27 307.069307 
L 194.4 307.069307 
" style="fill:none;stroke:#000000;stroke-linecap:square;stroke-linejoin:miter;stroke-width:0.8;"/>
   </g>
   <g id="patch_36">
    <path d="M 27 280.158416 
L 194.4 280.158416 
" style="fill:none;stroke:#000000;stroke-linecap:square;stroke-linejoin:miter;stroke-width:0.8;"/>
   </g>
  </g>
  <g id="axes_8">
   <g id="patch_37">
    <path d="M 27 339.362376 
L 194.4 339.362376 
L 194.4 312.451485 
L 27 312.451485 
z
" style="fill:#ffffff;"/>
   </g>
   <g id="matplotlib.axis_15">
    <g id="xtick_22">
     <g id="line2d_57">
      <g>
       <use style="stroke:#000000;stroke-width:0.8;" x="69.727972" xlink:href="#m1a566d0787" y="339.362376"/>
      </g>
     </g>
    </g>
    <g id="xtick_23">
     <g id="line2d_58">
      <g>
       <use style="stroke:#000000;stroke-width:0.8;" x="128.259441" xlink:href="#m1a566d0787" y="339.362376"/>
      </g>
     </g>
    </g>
    <g id="xtick_24">
     <g id="line2d_59">
      <g>
       <use style="stroke:#000000;stroke-width:0.8;" x="186.790909" xlink:href="#m1a566d0787" y="339.362376"/>
      </g>
     </g>
    </g>
   </g>
   <g id="matplotlib.axis_16">
    <g id="ytick_15">
     <g id="line2d_60">
      <g>
       <use style="stroke:#000000;stroke-width:0.8;" x="27" xlink:href="#m6744209d83" y="338.139154"/>
      </g>
     </g>
     <g id="text_15">
      <text style="font-family:DejaVu Sans;font-size:10px;font-style:normal;font-weight:normal;text-anchor:end;" transform="rotate(-0, 20, 341.938373)" x="20" y="341.938373">0.00</text>
     </g>
    </g>
    <g id="ytick_16">
     <g id="line2d_61">
      <g>
       <use style="stroke:#000000;stroke-width:0.8;" x="27" xlink:href="#m6744209d83" y="324.642572"/>
      </g>
     </g>
     <g id="text_16">
      <text style="font-family:DejaVu Sans;font-size:10px;font-style:normal;font-weight:normal;text-anchor:end;" transform="rotate(-0, 20, 328.441791)" x="20" y="328.441791">0.25</text>
     </g>
    </g>
   </g>
   <g id="line2d_62">
    <path clip-path="url(#pd17abf16a0)" d="M 34.609091 338.139154 
L 36.146281 338.139154 
L 37.683471 338.139154 
L 39.220661 338.139154 
L 40.757851 338.139154 
L 42.295041 338.139154 
L 43.832231 338.139154 
L 45.369421 338.139154 
L 46.906612 338.139154 
L 48.443802 338.139154 
L 49.980992 338.139154 
L 51.518182 338.139154 
L 53.055372 338.139154 
L 54.592562 338.139154 
L 56.129752 338.139154 
L 57.666942 338.139154 
L 59.204132 338.139154 
L 60.741322 338.139154 
L 62.278512 338.139154 
L 63.815702 338.139154 
L 65.352893 338.139154 
L 66.890083 338.139154 
L 68.427273 338.139154 
L 69.964463 338.139154 
L 71.501653 338.139154 
L 73.038843 338.139154 
L 74.576033 338.139154 
L 76.113223 338.139154 
L 77.650413 338.139154 
L 79.187603 338.139154 
L 80.724793 338.139154 
L 82.261983 338.139154 
L 83.799174 338.139154 
L 85.336364 338.139154 
L 86.873554 338.139154 
L 88.410744 338.139154 
L 89.947934 338.139154 
L 91.485124 338.139153 
L 93.022314 338.139152 
L 94.559504 338.139149 
L 96.096694 338.139143 
L 97.633884 338.139129 
L 99.171074 338.1391 
L 100.708264 338.13904 
L 102.245455 338.138917 
L 103.782645 338.138674 
L 105.319835 338.138204 
L 106.857025 338.137313 
L 108.394215 338.135666 
L 109.931405 338.132691 
L 111.468595 338.12744 
L 113.005785 338.118392 
L 114.542975 338.103164 
L 116.080165 338.078142 
L 117.617355 338.038001 
L 119.154545 337.975144 
L 120.691736 337.879084 
L 122.228926 337.735844 
L 123.766116 337.527485 
L 125.303306 337.231913 
L 126.840496 336.823148 
L 128.377686 336.272251 
L 129.914876 335.549066 
L 131.452066 334.624877 
L 132.989256 333.47593 
L 134.526446 332.087621 
L 136.063636 330.45894 
L 137.600826 328.606585 
L 139.138017 326.568033 
L 140.675207 324.402857 
L 142.212397 322.19165 
L 143.749587 320.032236 
L 145.286777 318.033179 
L 146.823967 316.305093 
L 148.361157 314.950652 
L 149.898347 314.054542 
L 151.435537 313.674707 
L 152.972727 313.836152 
L 154.509917 314.528216 
L 156.047107 315.705742 
L 157.584298 317.293946 
L 159.121488 319.196279 
L 160.658678 321.304106 
L 162.195868 323.506888 
L 163.733058 325.701524 
L 165.270248 327.799823 
L 166.807438 329.733412 
L 168.344628 331.455893 
L 169.881818 332.942431 
L 171.419008 334.187312 
L 172.956198 335.200163 
L 174.493388 336.001557 
L 176.030579 336.618669 
L 177.567769 337.081442 
L 179.104959 337.419571 
L 180.642149 337.660387 
L 182.179339 337.827627 
L 183.716529 337.940912 
L 185.253719 338.01578 
L 186.790909 338.064064 
" style="fill:none;stroke:#1f77b4;stroke-linecap:square;stroke-width:1.5;"/>
   </g>
   <g id="line2d_63">
    <path clip-path="url(#pd17abf16a0)" d="M 131.42014 338.139154 
L 131.42014 313.674707 
" style="fill:none;stroke:#000000;stroke-dasharray:5.55,2.4;stroke-dashoffset:0;stroke-width:1.5;"/>
   </g>
   <g id="line2d_64">
    <path clip-path="url(#pd17abf16a0)" d="M 171.68979 338.139154 
L 171.68979 313.674707 
" style="fill:none;stroke:#000000;stroke-dasharray:5.55,2.4;stroke-dashoffset:0;stroke-width:1.5;"/>
   </g>
   <g id="patch_38">
    <path d="M 27 339.362376 
L 27 312.451485 
" style="fill:none;stroke:#000000;stroke-linecap:square;stroke-linejoin:miter;stroke-width:0.8;"/>
   </g>
   <g id="patch_39">
    <path d="M 194.4 339.362376 
L 194.4 312.451485 
" style="fill:none;stroke:#000000;stroke-linecap:square;stroke-linejoin:miter;stroke-width:0.8;"/>
   </g>
   <g id="patch_40">
    <path d="M 27 339.362376 
L 194.4 339.362376 
" style="fill:none;stroke:#000000;stroke-linecap:square;stroke-linejoin:miter;stroke-width:0.8;"/>
   </g>
   <g id="patch_41">
    <path d="M 27 312.451485 
L 194.4 312.451485 
" style="fill:none;stroke:#000000;stroke-linecap:square;stroke-linejoin:miter;stroke-width:0.8;"/>
   </g>
  </g>
  <g id="axes_9">
   <g id="patch_42">
    <path d="M 27 371.655446 
L 194.4 371.655446 
L 194.4 344.744554 
L 27 344.744554 
z
" style="fill:#ffffff;"/>
   </g>
   <g id="matplotlib.axis_17">
    <g id="xtick_25">
     <g id="line2d_65">
      <g>
       <use style="stroke:#000000;stroke-width:0.8;" x="69.727972" xlink:href="#m1a566d0787" y="371.655446"/>
      </g>
     </g>
    </g>
    <g id="xtick_26">
     <g id="line2d_66">
      <g>
       <use style="stroke:#000000;stroke-width:0.8;" x="128.259441" xlink:href="#m1a566d0787" y="371.655446"/>
      </g>
     </g>
    </g>
    <g id="xtick_27">
     <g id="line2d_67">
      <g>
       <use style="stroke:#000000;stroke-width:0.8;" x="186.790909" xlink:href="#m1a566d0787" y="371.655446"/>
      </g>
     </g>
    </g>
   </g>
   <g id="matplotlib.axis_18">
    <g id="ytick_17">
     <g id="line2d_68">
      <g>
       <use style="stroke:#000000;stroke-width:0.8;" x="27" xlink:href="#m6744209d83" y="370.432223"/>
      </g>
     </g>
     <g id="text_17">
      <text style="font-family:DejaVu Sans;font-size:10px;font-style:normal;font-weight:normal;text-anchor:end;" transform="rotate(-0, 20, 374.231442)" x="20" y="374.231442">0.00</text>
     </g>
    </g>
    <g id="ytick_18">
     <g id="line2d_69">
      <g>
       <use style="stroke:#000000;stroke-width:0.8;" x="27" xlink:href="#m6744209d83" y="356.131075"/>
      </g>
     </g>
     <g id="text_18">
      <text style="font-family:DejaVu Sans;font-size:10px;font-style:normal;font-weight:normal;text-anchor:end;" transform="rotate(-0, 20, 359.930294)" x="20" y="359.930294">0.25</text>
     </g>
    </g>
   </g>
   <g id="line2d_70">
    <path clip-path="url(#p1b861db3e0)" d="M 34.609091 370.432223 
L 36.146281 370.432223 
L 37.683471 370.432223 
L 39.220661 370.432223 
L 40.757851 370.432223 
L 42.295041 370.432222 
L 43.832231 370.432221 
L 45.369421 370.432219 
L 46.906612 370.432214 
L 48.443802 370.432204 
L 49.980992 370.432183 
L 51.518182 370.432141 
L 53.055372 370.432058 
L 54.592562 370.431898 
L 56.129752 370.431596 
L 57.666942 370.431035 
L 59.204132 370.430019 
L 60.741322 370.428212 
L 62.278512 370.425068 
L 63.815702 370.419713 
L 65.352893 370.410778 
L 66.890083 370.396185 
L 68.427273 370.372854 
L 69.964463 370.336344 
L 71.501653 370.280427 
L 73.038843 370.196629 
L 74.576033 370.073764 
L 76.113223 369.897557 
L 77.650413 369.650424 
L 79.187603 369.311553 
L 80.724793 368.857409 
L 82.261983 368.262768 
L 83.799174 367.502401 
L 85.336364 366.553388 
L 86.873554 365.398018 
L 88.410744 364.027065 
L 89.947934 362.443115 
L 91.485124 360.663535 
L 93.022314 358.722582 
L 94.559504 356.67216 
L 96.096694 354.580857 
L 97.633884 352.531011 
L 99.171074 350.613868 
L 100.708264 348.923122 
L 102.245455 347.547463 
L 103.782645 346.56291 
L 105.319835 346.025868 
L 106.857025 345.967777 
L 108.394215 346.392065 
L 109.931405 347.273816 
L 111.468595 348.562186 
L 113.005785 350.185264 
L 114.542975 352.056706 
L 116.080165 354.083315 
L 117.617355 356.172621 
L 119.154545 358.239646 
L 120.691736 360.212171 
L 122.228926 362.034141 
L 123.766116 363.667086 
L 125.303306 365.089748 
L 126.840496 366.296248 
L 128.377686 367.293285 
L 129.914876 368.096846 
L 131.452066 368.728885 
L 132.989256 369.214316 
L 134.526446 369.57854 
L 136.063636 369.845614 
L 137.600826 370.037066 
L 139.138017 370.171271 
L 140.675207 370.263287 
L 142.212397 370.325009 
L 143.749587 370.365519 
L 145.286777 370.39154 
L 146.823967 370.407898 
L 148.361157 370.417965 
L 149.898347 370.42403 
L 151.435537 370.427608 
L 152.972727 370.429675 
L 154.509917 370.430843 
L 156.047107 370.431491 
L 157.584298 370.431842 
L 159.121488 370.432029 
L 160.658678 370.432126 
L 162.195868 370.432176 
L 163.733058 370.4322 
L 165.270248 370.432212 
L 166.807438 370.432218 
L 168.344628 370.432221 
L 169.881818 370.432222 
L 171.419008 370.432223 
L 172.956198 370.432223 
L 174.493388 370.432223 
L 176.030579 370.432223 
L 177.567769 370.432223 
L 179.104959 370.432223 
L 180.642149 370.432223 
L 182.179339 370.432223 
L 183.716529 370.432223 
L 185.253719 370.432223 
L 186.790909 370.432223 
" style="fill:none;stroke:#1f77b4;stroke-linecap:square;stroke-width:1.5;"/>
   </g>
   <g id="line2d_71">
    <path clip-path="url(#p1b861db3e0)" d="M 84.477902 370.432223 
L 84.477902 345.967777 
" style="fill:none;stroke:#000000;stroke-dasharray:5.55,2.4;stroke-dashoffset:0;stroke-width:1.5;"/>
   </g>
   <g id="line2d_72">
    <path clip-path="url(#p1b861db3e0)" d="M 127.557063 370.432223 
L 127.557063 345.967777 
" style="fill:none;stroke:#000000;stroke-dasharray:5.55,2.4;stroke-dashoffset:0;stroke-width:1.5;"/>
   </g>
   <g id="patch_43">
    <path d="M 27 371.655446 
L 27 344.744554 
" style="fill:none;stroke:#000000;stroke-linecap:square;stroke-linejoin:miter;stroke-width:0.8;"/>
   </g>
   <g id="patch_44">
    <path d="M 194.4 371.655446 
L 194.4 344.744554 
" style="fill:none;stroke:#000000;stroke-linecap:square;stroke-linejoin:miter;stroke-width:0.8;"/>
   </g>
   <g id="patch_45">
    <path d="M 27 371.655446 
L 194.4 371.655446 
" style="fill:none;stroke:#000000;stroke-linecap:square;stroke-linejoin:miter;stroke-width:0.8;"/>
   </g>
   <g id="patch_46">
    <path d="M 27 344.744554 
L 194.4 344.744554 
" style="fill:none;stroke:#000000;stroke-linecap:square;stroke-linejoin:miter;stroke-width:0.8;"/>
   </g>
  </g>
  <g id="axes_10">
   <g id="patch_47">
    <path d="M 27 403.948515 
L 194.4 403.948515 
L 194.4 377.037624 
L 27 377.037624 
z
" style="fill:#ffffff;"/>
   </g>
   <g id="matplotlib.axis_19">
    <g id="xtick_28">
     <g id="line2d_73">
      <g>
       <use style="stroke:#000000;stroke-width:0.8;" x="69.727972" xlink:href="#m1a566d0787" y="403.948515"/>
      </g>
     </g>
    </g>
    <g id="xtick_29">
     <g id="line2d_74">
      <g>
       <use style="stroke:#000000;stroke-width:0.8;" x="128.259441" xlink:href="#m1a566d0787" y="403.948515"/>
      </g>
     </g>
    </g>
    <g id="xtick_30">
     <g id="line2d_75">
      <g>
       <use style="stroke:#000000;stroke-width:0.8;" x="186.790909" xlink:href="#m1a566d0787" y="403.948515"/>
      </g>
     </g>
    </g>
   </g>
   <g id="matplotlib.axis_20">
    <g id="ytick_19">
     <g id="line2d_76">
      <g>
       <use style="stroke:#000000;stroke-width:0.8;" x="27" xlink:href="#m6744209d83" y="402.725293"/>
      </g>
     </g>
     <g id="text_19">
      <text style="font-family:DejaVu Sans;font-size:10px;font-style:normal;font-weight:normal;text-anchor:end;" transform="rotate(-0, 20, 406.524511)" x="20" y="406.524511">0</text>
     </g>
    </g>
    <g id="ytick_20">
     <g id="line2d_77">
      <g>
       <use style="stroke:#000000;stroke-width:0.8;" x="27" xlink:href="#m6744209d83" y="382.620525"/>
      </g>
     </g>
     <g id="text_20">
      <text style="font-family:DejaVu Sans;font-size:10px;font-style:normal;font-weight:normal;text-anchor:end;" transform="rotate(-0, 20, 386.419744)" x="20" y="386.419744">1</text>
     </g>
    </g>
   </g>
   <g id="line2d_78">
    <path clip-path="url(#pbf68f508d4)" d="M 34.609091 402.725293 
L 36.146281 402.725293 
L 37.683471 402.725293 
L 39.220661 402.725293 
L 40.757851 402.725293 
L 42.295041 402.725293 
L 43.832231 402.725293 
L 45.369421 402.725293 
L 46.906612 402.725293 
L 48.443802 402.725293 
L 49.980992 402.725293 
L 51.518182 402.725293 
L 53.055372 402.725293 
L 54.592562 402.725293 
L 56.129752 402.725293 
L 57.666942 402.725293 
L 59.204132 402.725293 
L 60.741322 402.725293 
L 62.278512 402.725293 
L 63.815702 402.725293 
L 65.352893 402.725293 
L 66.890083 402.725292 
L 68.427273 402.725292 
L 69.964463 402.725288 
L 71.501653 402.725258 
L 73.038843 402.725035 
L 74.576033 402.723673 
L 76.113223 402.716627 
L 77.650413 402.685802 
L 79.187603 402.572003 
L 80.724793 402.218495 
L 82.261983 401.298184 
L 83.799174 399.30249 
L 85.336364 395.733178 
L 86.873554 390.559587 
L 88.410744 384.696443 
L 89.947934 379.969042 
L 91.485124 378.260846 
L 93.022314 380.324053 
L 94.559504 385.254576 
L 96.096694 391.120127 
L 97.633884 396.159397 
L 99.171074 399.561277 
L 100.708264 401.426663 
L 102.245455 402.271316 
L 103.782645 402.590121 
L 105.319835 402.691013 
L 106.857025 402.717888 
L 108.394215 402.72393 
L 109.931405 402.725079 
L 111.468595 402.725264 
L 113.005785 402.725289 
L 114.542975 402.725292 
L 116.080165 402.725293 
L 117.617355 402.725293 
L 119.154545 402.725293 
L 120.691736 402.725293 
L 122.228926 402.725293 
L 123.766116 402.725293 
L 125.303306 402.725293 
L 126.840496 402.725293 
L 128.377686 402.725293 
L 129.914876 402.725293 
L 131.452066 402.725293 
L 132.989256 402.725293 
L 134.526446 402.725293 
L 136.063636 402.725293 
L 137.600826 402.725293 
L 139.138017 402.725293 
L 140.675207 402.725293 
L 142.212397 402.725293 
L 143.749587 402.725293 
L 145.286777 402.725293 
L 146.823967 402.725293 
L 148.361157 402.725293 
L 149.898347 402.725293 
L 151.435537 402.725293 
L 152.972727 402.725293 
L 154.509917 402.725293 
L 156.047107 402.725293 
L 157.584298 402.725293 
L 159.121488 402.725293 
L 160.658678 402.725293 
L 162.195868 402.725293 
L 163.733058 402.725293 
L 165.270248 402.725293 
L 166.807438 402.725293 
L 168.344628 402.725293 
L 169.881818 402.725293 
L 171.419008 402.725293 
L 172.956198 402.725293 
L 174.493388 402.725293 
L 176.030579 402.725293 
L 177.567769 402.725293 
L 179.104959 402.725293 
L 180.642149 402.725293 
L 182.179339 402.725293 
L 183.716529 402.725293 
L 185.253719 402.725293 
L 186.790909 402.725293 
" style="fill:none;stroke:#1f77b4;stroke-linecap:square;stroke-width:1.5;"/>
   </g>
   <g id="line2d_79">
    <path clip-path="url(#pbf68f508d4)" d="M 83.658462 402.725293 
L 83.658462 378.260846 
" style="fill:none;stroke:#000000;stroke-dasharray:5.55,2.4;stroke-dashoffset:0;stroke-width:1.5;"/>
   </g>
   <g id="line2d_80">
    <path clip-path="url(#pbf68f508d4)" d="M 98.993706 402.725293 
L 98.993706 378.260846 
" style="fill:none;stroke:#000000;stroke-dasharray:5.55,2.4;stroke-dashoffset:0;stroke-width:1.5;"/>
   </g>
   <g id="patch_48">
    <path d="M 27 403.948515 
L 27 377.037624 
" style="fill:none;stroke:#000000;stroke-linecap:square;stroke-linejoin:miter;stroke-width:0.8;"/>
   </g>
   <g id="patch_49">
    <path d="M 194.4 403.948515 
L 194.4 377.037624 
" style="fill:none;stroke:#000000;stroke-linecap:square;stroke-linejoin:miter;stroke-width:0.8;"/>
   </g>
   <g id="patch_50">
    <path d="M 27 403.948515 
L 194.4 403.948515 
" style="fill:none;stroke:#000000;stroke-linecap:square;stroke-linejoin:miter;stroke-width:0.8;"/>
   </g>
   <g id="patch_51">
    <path d="M 27 377.037624 
L 194.4 377.037624 
" style="fill:none;stroke:#000000;stroke-linecap:square;stroke-linejoin:miter;stroke-width:0.8;"/>
   </g>
  </g>
  <g id="axes_11">
   <g id="patch_52">
    <path d="M 27 436.241584 
L 194.4 436.241584 
L 194.4 409.330693 
L 27 409.330693 
z
" style="fill:#ffffff;"/>
   </g>
   <g id="matplotlib.axis_21">
    <g id="xtick_31">
     <g id="line2d_81">
      <g>
       <use style="stroke:#000000;stroke-width:0.8;" x="69.727972" xlink:href="#m1a566d0787" y="436.241584"/>
      </g>
     </g>
    </g>
    <g id="xtick_32">
     <g id="line2d_82">
      <g>
       <use style="stroke:#000000;stroke-width:0.8;" x="128.259441" xlink:href="#m1a566d0787" y="436.241584"/>
      </g>
     </g>
    </g>
    <g id="xtick_33">
     <g id="line2d_83">
      <g>
       <use style="stroke:#000000;stroke-width:0.8;" x="186.790909" xlink:href="#m1a566d0787" y="436.241584"/>
      </g>
     </g>
    </g>
   </g>
   <g id="matplotlib.axis_22">
    <g id="ytick_21">
     <g id="line2d_84">
      <g>
       <use style="stroke:#000000;stroke-width:0.8;" x="27" xlink:href="#m6744209d83" y="435.018362"/>
      </g>
     </g>
     <g id="text_21">
      <text style="font-family:DejaVu Sans;font-size:10px;font-style:normal;font-weight:normal;text-anchor:end;" transform="rotate(-0, 20, 438.817581)" x="20" y="438.817581">0.0</text>
     </g>
    </g>
    <g id="ytick_22">
     <g id="line2d_85">
      <g>
       <use style="stroke:#000000;stroke-width:0.8;" x="27" xlink:href="#m6744209d83" y="413.267945"/>
      </g>
     </g>
     <g id="text_22">
      <text style="font-family:DejaVu Sans;font-size:10px;font-style:normal;font-weight:normal;text-anchor:end;" transform="rotate(-0, 20, 417.067164)" x="20" y="417.067164">0.5</text>
     </g>
    </g>
   </g>
   <g id="line2d_86">
    <path clip-path="url(#p01b2af41b8)" d="M 34.609091 435.018362 
L 36.146281 435.018362 
L 37.683471 435.018362 
L 39.220661 435.018362 
L 40.757851 435.018362 
L 42.295041 435.018361 
L 43.832231 435.01836 
L 45.369421 435.018356 
L 46.906612 435.018345 
L 48.443802 435.018319 
L 49.980992 435.018251 
L 51.518182 435.01809 
L 53.055372 435.017714 
L 54.592562 435.016871 
L 56.129752 435.015047 
L 57.666942 435.011239 
L 59.204132 435.003574 
L 60.741322 434.988698 
L 62.278512 434.960865 
L 63.815702 434.910675 
L 65.352893 434.823478 
L 66.890083 434.677577 
L 68.427273 434.442552 
L 69.964463 434.078266 
L 71.501653 433.535302 
L 73.038843 432.757681 
L 74.576033 431.688595 
L 76.113223 430.279408 
L 77.650413 428.501403 
L 79.187603 426.35869 
L 80.724793 423.899718 
L 82.261983 421.224172 
L 83.799174 418.482207 
L 85.336364 415.86404 
L 86.873554 413.57993 
L 88.410744 411.833037 
L 89.947934 410.789818 
L 91.485124 410.553915 
L 93.022314 411.149186 
L 94.559504 412.515725 
L 96.096694 414.519803 
L 97.633884 416.975425 
L 99.171074 419.67272 
L 100.708264 422.407149 
L 102.245455 425.004016 
L 103.782645 427.334452 
L 105.319835 429.321497 
L 106.857025 430.937203 
L 108.394215 432.193319 
L 109.931405 433.128802 
L 111.468595 433.797153 
L 113.005785 434.255733 
L 114.542975 434.558179 
L 116.080165 434.750049 
L 117.617355 434.867198 
L 119.154545 434.936072 
L 120.691736 434.975077 
L 122.228926 434.996362 
L 123.766116 435.007557 
L 125.303306 435.013235 
L 126.840496 435.016011 
L 128.377686 435.01732 
L 129.914876 435.017916 
L 131.452066 435.018177 
L 132.989256 435.018288 
L 134.526446 435.018333 
L 136.063636 435.018351 
L 137.600826 435.018358 
L 139.138017 435.018361 
L 140.675207 435.018361 
L 142.212397 435.018362 
L 143.749587 435.018362 
L 145.286777 435.018362 
L 146.823967 435.018362 
L 148.361157 435.018362 
L 149.898347 435.018362 
L 151.435537 435.018362 
L 152.972727 435.018362 
L 154.509917 435.018362 
L 156.047107 435.018362 
L 157.584298 435.018362 
L 159.121488 435.018362 
L 160.658678 435.018362 
L 162.195868 435.018362 
L 163.733058 435.018362 
L 165.270248 435.018362 
L 166.807438 435.018362 
L 168.344628 435.018362 
L 169.881818 435.018362 
L 171.419008 435.018362 
L 172.956198 435.018362 
L 174.493388 435.018362 
L 176.030579 435.018362 
L 177.567769 435.018362 
L 179.104959 435.018362 
L 180.642149 435.018362 
L 182.179339 435.018362 
L 183.716529 435.018362 
L 185.253719 435.018362 
L 186.790909 435.018362 
" style="fill:none;stroke:#1f77b4;stroke-linecap:square;stroke-width:1.5;"/>
   </g>
   <g id="line2d_87">
    <path clip-path="url(#p01b2af41b8)" d="M 74.761678 435.018362 
L 74.761678 410.553915 
" style="fill:none;stroke:#000000;stroke-dasharray:5.55,2.4;stroke-dashoffset:0;stroke-width:1.5;"/>
   </g>
   <g id="line2d_88">
    <path clip-path="url(#p01b2af41b8)" d="M 107.539301 435.018362 
L 107.539301 410.553915 
" style="fill:none;stroke:#000000;stroke-dasharray:5.55,2.4;stroke-dashoffset:0;stroke-width:1.5;"/>
   </g>
   <g id="patch_53">
    <path d="M 27 436.241584 
L 27 409.330693 
" style="fill:none;stroke:#000000;stroke-linecap:square;stroke-linejoin:miter;stroke-width:0.8;"/>
   </g>
   <g id="patch_54">
    <path d="M 194.4 436.241584 
L 194.4 409.330693 
" style="fill:none;stroke:#000000;stroke-linecap:square;stroke-linejoin:miter;stroke-width:0.8;"/>
   </g>
   <g id="patch_55">
    <path d="M 27 436.241584 
L 194.4 436.241584 
" style="fill:none;stroke:#000000;stroke-linecap:square;stroke-linejoin:miter;stroke-width:0.8;"/>
   </g>
   <g id="patch_56">
    <path d="M 27 409.330693 
L 194.4 409.330693 
" style="fill:none;stroke:#000000;stroke-linecap:square;stroke-linejoin:miter;stroke-width:0.8;"/>
   </g>
  </g>
  <g id="axes_12">
   <g id="patch_57">
    <path d="M 27 468.534653 
L 194.4 468.534653 
L 194.4 441.623762 
L 27 441.623762 
z
" style="fill:#ffffff;"/>
   </g>
   <g id="matplotlib.axis_23">
    <g id="xtick_34">
     <g id="line2d_89">
      <g>
       <use style="stroke:#000000;stroke-width:0.8;" x="69.727972" xlink:href="#m1a566d0787" y="468.534653"/>
      </g>
     </g>
    </g>
    <g id="xtick_35">
     <g id="line2d_90">
      <g>
       <use style="stroke:#000000;stroke-width:0.8;" x="128.259441" xlink:href="#m1a566d0787" y="468.534653"/>
      </g>
     </g>
    </g>
    <g id="xtick_36">
     <g id="line2d_91">
      <g>
       <use style="stroke:#000000;stroke-width:0.8;" x="186.790909" xlink:href="#m1a566d0787" y="468.534653"/>
      </g>
     </g>
    </g>
   </g>
   <g id="matplotlib.axis_24">
    <g id="ytick_23">
     <g id="line2d_92">
      <g>
       <use style="stroke:#000000;stroke-width:0.8;" x="27" xlink:href="#m6744209d83" y="467.311431"/>
      </g>
     </g>
     <g id="text_23">
      <text style="font-family:DejaVu Sans;font-size:10px;font-style:normal;font-weight:normal;text-anchor:end;" transform="rotate(-0, 20, 471.11065)" x="20" y="471.11065">0.00</text>
     </g>
    </g>
    <g id="ytick_24">
     <g id="line2d_93">
      <g>
       <use style="stroke:#000000;stroke-width:0.8;" x="27" xlink:href="#m6744209d83" y="454.422131"/>
      </g>
     </g>
     <g id="text_24">
      <text style="font-family:DejaVu Sans;font-size:10px;font-style:normal;font-weight:normal;text-anchor:end;" transform="rotate(-0, 20, 458.22135)" x="20" y="458.22135">0.25</text>
     </g>
    </g>
   </g>
   <g id="line2d_94">
    <path clip-path="url(#p05a292d891)" d="M 34.609091 467.311431 
L 36.146281 467.311431 
L 37.683471 467.311431 
L 39.220661 467.31143 
L 40.757851 467.31143 
L 42.295041 467.311427 
L 43.832231 467.311422 
L 45.369421 467.311409 
L 46.906612 467.311382 
L 48.443802 467.311323 
L 49.980992 467.3112 
L 51.518182 467.310946 
L 53.055372 467.31044 
L 54.592562 467.309453 
L 56.129752 467.30758 
L 57.666942 467.304113 
L 59.204132 467.297863 
L 60.741322 467.286882 
L 62.278512 467.268085 
L 63.815702 467.236742 
L 65.352893 467.185839 
L 66.890083 467.10534 
L 68.427273 466.981404 
L 69.964463 466.795688 
L 71.501653 466.524912 
L 73.038843 466.140912 
L 74.576033 465.611464 
L 76.113223 464.902104 
L 77.650413 463.979133 
L 79.187603 462.813787 
L 80.724793 461.387374 
L 82.261983 459.696841 
L 83.799174 457.760037 
L 85.336364 455.619666 
L 86.873554 453.344969 
L 88.410744 451.030256 
L 89.947934 448.789847 
L 91.485124 446.749518 
L 93.022314 445.035188 
L 94.559504 443.760211 
L 96.096694 443.013019 
L 97.633884 442.846985 
L 99.171074 443.274118 
L 100.708264 444.263631 
L 102.245455 445.745606 
L 103.782645 447.619166 
L 105.319835 449.763807 
L 106.857025 452.052153 
L 108.394215 454.362239 
L 109.931405 456.587738 
L 111.468595 458.645023 
L 113.005785 460.476614 
L 114.542975 462.051165 
L 116.080165 463.360663 
L 117.617355 464.415766 
L 119.154545 465.240297 
L 120.691736 465.865788 
L 122.228926 466.326724 
L 123.766116 466.656876 
L 125.303306 466.886833 
L 126.840496 467.042647 
L 128.377686 467.145388 
L 129.914876 467.211332 
L 131.452066 467.252542 
L 132.989256 467.277622 
L 134.526446 467.292489 
L 136.063636 467.301075 
L 137.600826 467.305906 
L 139.138017 467.308554 
L 140.675207 467.309969 
L 142.212397 467.310706 
L 143.749587 467.31108 
L 145.286777 467.311266 
L 146.823967 467.311355 
L 148.361157 467.311397 
L 149.898347 467.311416 
L 151.435537 467.311425 
L 152.972727 467.311428 
L 154.509917 467.31143 
L 156.047107 467.311431 
L 157.584298 467.311431 
L 159.121488 467.311431 
L 160.658678 467.311431 
L 162.195868 467.311431 
L 163.733058 467.311431 
L 165.270248 467.311431 
L 166.807438 467.311431 
L 168.344628 467.311431 
L 169.881818 467.311431 
L 171.419008 467.311431 
L 172.956198 467.311431 
L 174.493388 467.311431 
L 176.030579 467.311431 
L 177.567769 467.311431 
L 179.104959 467.311431 
L 180.642149 467.311431 
L 182.179339 467.311431 
L 183.716529 467.311431 
L 185.253719 467.311431 
L 186.790909 467.311431 
" style="fill:none;stroke:#1f77b4;stroke-linecap:square;stroke-width:1.5;"/>
   </g>
   <g id="line2d_95">
    <path clip-path="url(#p05a292d891)" d="M 77.805315 467.311431 
L 77.805315 442.846985 
" style="fill:none;stroke:#000000;stroke-dasharray:5.55,2.4;stroke-dashoffset:0;stroke-width:1.5;"/>
   </g>
   <g id="line2d_96">
    <path clip-path="url(#p05a292d891)" d="M 116.553147 467.311431 
L 116.553147 442.846985 
" style="fill:none;stroke:#000000;stroke-dasharray:5.55,2.4;stroke-dashoffset:0;stroke-width:1.5;"/>
   </g>
   <g id="patch_58">
    <path d="M 27 468.534653 
L 27 441.623762 
" style="fill:none;stroke:#000000;stroke-linecap:square;stroke-linejoin:miter;stroke-width:0.8;"/>
   </g>
   <g id="patch_59">
    <path d="M 194.4 468.534653 
L 194.4 441.623762 
" style="fill:none;stroke:#000000;stroke-linecap:square;stroke-linejoin:miter;stroke-width:0.8;"/>
   </g>
   <g id="patch_60">
    <path d="M 27 468.534653 
L 194.4 468.534653 
" style="fill:none;stroke:#000000;stroke-linecap:square;stroke-linejoin:miter;stroke-width:0.8;"/>
   </g>
   <g id="patch_61">
    <path d="M 27 441.623762 
L 194.4 441.623762 
" style="fill:none;stroke:#000000;stroke-linecap:square;stroke-linejoin:miter;stroke-width:0.8;"/>
   </g>
  </g>
  <g id="axes_13">
   <g id="patch_62">
    <path d="M 27 500.827723 
L 194.4 500.827723 
L 194.4 473.916832 
L 27 473.916832 
z
" style="fill:#ffffff;"/>
   </g>
   <g id="matplotlib.axis_25">
    <g id="xtick_37">
     <g id="line2d_97">
      <g>
       <use style="stroke:#000000;stroke-width:0.8;" x="69.727972" xlink:href="#m1a566d0787" y="500.827723"/>
      </g>
     </g>
    </g>
    <g id="xtick_38">
     <g id="line2d_98">
      <g>
       <use style="stroke:#000000;stroke-width:0.8;" x="128.259441" xlink:href="#m1a566d0787" y="500.827723"/>
      </g>
     </g>
    </g>
    <g id="xtick_39">
     <g id="line2d_99">
      <g>
       <use style="stroke:#000000;stroke-width:0.8;" x="186.790909" xlink:href="#m1a566d0787" y="500.827723"/>
      </g>
     </g>
    </g>
   </g>
   <g id="matplotlib.axis_26">
    <g id="ytick_25">
     <g id="line2d_100">
      <g>
       <use style="stroke:#000000;stroke-width:0.8;" x="27" xlink:href="#m6744209d83" y="499.6045"/>
      </g>
     </g>
     <g id="text_25">
      <text style="font-family:DejaVu Sans;font-size:10px;font-style:normal;font-weight:normal;text-anchor:end;" transform="rotate(-0, 20, 503.403719)" x="20" y="503.403719">0.00</text>
     </g>
    </g>
    <g id="ytick_26">
     <g id="line2d_101">
      <g>
       <use style="stroke:#000000;stroke-width:0.8;" x="27" xlink:href="#m6744209d83" y="485.303838"/>
      </g>
     </g>
     <g id="text_26">
      <text style="font-family:DejaVu Sans;font-size:10px;font-style:normal;font-weight:normal;text-anchor:end;" transform="rotate(-0, 20, 489.103057)" x="20" y="489.103057">0.25</text>
     </g>
    </g>
   </g>
   <g id="line2d_102">
    <path clip-path="url(#p8eb698637a)" d="M 34.609091 499.6045 
L 36.146281 499.6045 
L 37.683471 499.604498 
L 39.220661 499.604496 
L 40.757851 499.604491 
L 42.295041 499.60448 
L 43.832231 499.604458 
L 45.369421 499.604413 
L 46.906612 499.604324 
L 48.443802 499.604154 
L 49.980992 499.603832 
L 51.518182 499.603236 
L 53.055372 499.602158 
L 54.592562 499.600244 
L 56.129752 499.596918 
L 57.666942 499.591262 
L 59.204132 499.58184 
L 60.741322 499.56648 
L 62.278512 499.541964 
L 63.815702 499.503668 
L 65.352893 499.445126 
L 66.890083 499.357562 
L 68.427273 499.229432 
L 69.964463 499.04605 
L 71.501653 498.789399 
L 73.038843 498.438252 
L 74.576033 497.968729 
L 76.113223 497.355414 
L 77.650413 496.573107 
L 79.187603 495.599242 
L 80.724793 494.416845 
L 82.261983 493.01786 
L 83.799174 491.406479 
L 85.336364 489.602049 
L 86.873554 487.641059 
L 88.410744 485.577718 
L 89.947934 483.482747 
L 91.485124 481.440196 
L 93.022314 479.542347 
L 94.559504 477.883061 
L 96.096694 476.550202 
L 97.633884 475.617965 
L 99.171074 475.140054 
L 100.708264 475.144552 
L 102.245455 475.631192 
L 103.782645 476.571386 
L 105.319835 477.910999 
L 106.857025 479.575517 
L 108.394215 481.476895 
L 109.931405 483.521234 
L 111.468595 485.616349 
L 113.005785 487.678394 
L 114.542975 489.63693 
L 116.080165 491.438071 
L 117.617355 493.045655 
L 119.154545 494.440635 
L 120.691736 495.619076 
L 122.228926 496.589228 
L 123.766116 497.368196 
L 125.303306 497.978624 
L 126.840496 498.445733 
L 128.377686 498.794925 
L 129.914876 499.05004 
L 131.452066 499.232249 
L 132.989256 499.359507 
L 134.526446 499.446439 
L 136.063636 499.504536 
L 137.600826 499.542525 
L 139.138017 499.566834 
L 140.675207 499.58206 
L 142.212397 499.591395 
L 143.749587 499.596997 
L 145.286777 499.60029 
L 146.823967 499.602184 
L 148.361157 499.603251 
L 149.898347 499.60384 
L 151.435537 499.604158 
L 152.972727 499.604327 
L 154.509917 499.604414 
L 156.047107 499.604458 
L 157.584298 499.60448 
L 159.121488 499.604491 
L 160.658678 499.604496 
L 162.195868 499.604498 
L 163.733058 499.6045 
L 165.270248 499.6045 
L 166.807438 499.6045 
L 168.344628 499.6045 
L 169.881818 499.6045 
L 171.419008 499.6045 
L 172.956198 499.6045 
L 174.493388 499.6045 
L 176.030579 499.6045 
L 177.567769 499.6045 
L 179.104959 499.6045 
L 180.642149 499.6045 
L 182.179339 499.6045 
L 183.716529 499.6045 
L 185.253719 499.6045 
L 186.790909 499.6045 
" style="fill:none;stroke:#1f77b4;stroke-linecap:square;stroke-width:1.5;"/>
   </g>
   <g id="line2d_103">
    <path clip-path="url(#p8eb698637a)" d="M 78.390629 499.6045 
L 78.390629 475.140054 
" style="fill:none;stroke:#000000;stroke-dasharray:5.55,2.4;stroke-dashoffset:0;stroke-width:1.5;"/>
   </g>
   <g id="line2d_104">
    <path clip-path="url(#p8eb698637a)" d="M 121.586853 499.6045 
L 121.586853 475.140054 
" style="fill:none;stroke:#000000;stroke-dasharray:5.55,2.4;stroke-dashoffset:0;stroke-width:1.5;"/>
   </g>
   <g id="patch_63">
    <path d="M 27 500.827723 
L 27 473.916832 
" style="fill:none;stroke:#000000;stroke-linecap:square;stroke-linejoin:miter;stroke-width:0.8;"/>
   </g>
   <g id="patch_64">
    <path d="M 194.4 500.827723 
L 194.4 473.916832 
" style="fill:none;stroke:#000000;stroke-linecap:square;stroke-linejoin:miter;stroke-width:0.8;"/>
   </g>
   <g id="patch_65">
    <path d="M 27 500.827723 
L 194.4 500.827723 
" style="fill:none;stroke:#000000;stroke-linecap:square;stroke-linejoin:miter;stroke-width:0.8;"/>
   </g>
   <g id="patch_66">
    <path d="M 27 473.916832 
L 194.4 473.916832 
" style="fill:none;stroke:#000000;stroke-linecap:square;stroke-linejoin:miter;stroke-width:0.8;"/>
   </g>
  </g>
  <g id="axes_14">
   <g id="patch_67">
    <path d="M 27 533.120792 
L 194.4 533.120792 
L 194.4 506.209901 
L 27 506.209901 
z
" style="fill:#ffffff;"/>
   </g>
   <g id="matplotlib.axis_27">
    <g id="xtick_40">
     <g id="line2d_105">
      <g>
       <use style="stroke:#000000;stroke-width:0.8;" x="69.727972" xlink:href="#m1a566d0787" y="533.120792"/>
      </g>
     </g>
    </g>
    <g id="xtick_41">
     <g id="line2d_106">
      <g>
       <use style="stroke:#000000;stroke-width:0.8;" x="128.259441" xlink:href="#m1a566d0787" y="533.120792"/>
      </g>
     </g>
    </g>
    <g id="xtick_42">
     <g id="line2d_107">
      <g>
       <use style="stroke:#000000;stroke-width:0.8;" x="186.790909" xlink:href="#m1a566d0787" y="533.120792"/>
      </g>
     </g>
    </g>
   </g>
   <g id="matplotlib.axis_28">
    <g id="ytick_27">
     <g id="line2d_108">
      <g>
       <use style="stroke:#000000;stroke-width:0.8;" x="27" xlink:href="#m6744209d83" y="531.89757"/>
      </g>
     </g>
     <g id="text_27">
      <text style="font-family:DejaVu Sans;font-size:10px;font-style:normal;font-weight:normal;text-anchor:end;" transform="rotate(-0, 20, 535.696789)" x="20" y="535.696789">0.00</text>
     </g>
    </g>
    <g id="ytick_28">
     <g id="line2d_109">
      <g>
       <use style="stroke:#000000;stroke-width:0.8;" x="27" xlink:href="#m6744209d83" y="518.110611"/>
      </g>
     </g>
     <g id="text_28">
      <text style="font-family:DejaVu Sans;font-size:10px;font-style:normal;font-weight:normal;text-anchor:end;" transform="rotate(-0, 20, 521.90983)" x="20" y="521.90983">0.25</text>
     </g>
    </g>
   </g>
   <g id="line2d_110">
    <path clip-path="url(#pb930c63a18)" d="M 34.609091 531.895525 
L 36.146281 531.893758 
L 37.683471 531.890612 
L 39.220661 531.88514 
L 40.757851 531.875835 
L 42.295041 531.860366 
L 43.832231 531.835235 
L 45.369421 531.795337 
L 46.906612 531.733449 
L 48.443802 531.639671 
L 49.980992 531.50088 
L 51.518182 531.300304 
L 53.055372 531.017336 
L 54.592562 530.627747 
L 56.129752 530.104477 
L 57.666942 529.419138 
L 59.204132 528.544321 
L 60.741322 527.45669 
L 62.278512 526.140694 
L 63.815702 524.592586 
L 65.352893 522.824251 
L 66.890083 520.866246 
L 68.427273 518.769416 
L 69.964463 516.604516 
L 71.501653 514.459464 
L 73.038843 512.434158 
L 74.576033 510.633168 
L 76.113223 509.156971 
L 77.650413 508.092734 
L 79.187603 507.505816 
L 80.724793 507.433123 
L 82.261983 507.879267 
L 83.799174 508.816083 
L 85.336364 510.185572 
L 86.873554 511.905842 
L 88.410744 513.879203 
L 89.947934 516.001306 
L 91.485124 518.170139 
L 93.022314 520.29383 
L 94.559504 522.296464 
L 96.096694 524.121519 
L 97.633884 525.732877 
L 99.171074 527.113711 
L 100.708264 528.26378 
L 102.245455 529.195754 
L 103.782645 529.931195 
L 105.319835 530.49672 
L 106.857025 530.920713 
L 108.394215 531.230786 
L 109.931405 531.452063 
L 111.468595 531.606205 
L 113.005785 531.711046 
L 114.542975 531.780688 
L 116.080165 531.825877 
L 117.617355 531.854525 
L 119.154545 531.872273 
L 120.691736 531.883017 
L 122.228926 531.889375 
L 123.766116 531.893053 
L 125.303306 531.895133 
L 126.840496 531.896283 
L 128.377686 531.896904 
L 129.914876 531.897233 
L 131.452066 531.897403 
L 132.989256 531.897489 
L 134.526446 531.897531 
L 136.063636 531.897552 
L 137.600826 531.897562 
L 139.138017 531.897566 
L 140.675207 531.897568 
L 142.212397 531.897569 
L 143.749587 531.897569 
L 145.286777 531.89757 
L 146.823967 531.89757 
L 148.361157 531.89757 
L 149.898347 531.89757 
L 151.435537 531.89757 
L 152.972727 531.89757 
L 154.509917 531.89757 
L 156.047107 531.89757 
L 157.584298 531.89757 
L 159.121488 531.89757 
L 160.658678 531.89757 
L 162.195868 531.89757 
L 163.733058 531.89757 
L 165.270248 531.89757 
L 166.807438 531.89757 
L 168.344628 531.89757 
L 169.881818 531.89757 
L 171.419008 531.89757 
L 172.956198 531.89757 
L 174.493388 531.89757 
L 176.030579 531.89757 
L 177.567769 531.89757 
L 179.104959 531.89757 
L 180.642149 531.89757 
L 182.179339 531.89757 
L 183.716529 531.89757 
L 185.253719 531.89757 
L 186.790909 531.89757 
" style="fill:none;stroke:#1f77b4;stroke-linecap:square;stroke-width:1.5;"/>
   </g>
   <g id="line2d_111">
    <path clip-path="url(#pb930c63a18)" d="M 59.309371 531.89757 
L 59.309371 507.433123 
" style="fill:none;stroke:#000000;stroke-dasharray:5.55,2.4;stroke-dashoffset:0;stroke-width:1.5;"/>
   </g>
   <g id="line2d_112">
    <path clip-path="url(#pb930c63a18)" d="M 100.74965 531.89757 
L 100.74965 507.433123 
" style="fill:none;stroke:#000000;stroke-dasharray:5.55,2.4;stroke-dashoffset:0;stroke-width:1.5;"/>
   </g>
   <g id="patch_68">
    <path d="M 27 533.120792 
L 27 506.209901 
" style="fill:none;stroke:#000000;stroke-linecap:square;stroke-linejoin:miter;stroke-width:0.8;"/>
   </g>
   <g id="patch_69">
    <path d="M 194.4 533.120792 
L 194.4 506.209901 
" style="fill:none;stroke:#000000;stroke-linecap:square;stroke-linejoin:miter;stroke-width:0.8;"/>
   </g>
   <g id="patch_70">
    <path d="M 27 533.120792 
L 194.4 533.120792 
" style="fill:none;stroke:#000000;stroke-linecap:square;stroke-linejoin:miter;stroke-width:0.8;"/>
   </g>
   <g id="patch_71">
    <path d="M 27 506.209901 
L 194.4 506.209901 
" style="fill:none;stroke:#000000;stroke-linecap:square;stroke-linejoin:miter;stroke-width:0.8;"/>
   </g>
  </g>
  <g id="axes_15">
   <g id="patch_72">
    <path d="M 27 565.413861 
L 194.4 565.413861 
L 194.4 538.50297 
L 27 538.50297 
z
" style="fill:#ffffff;"/>
   </g>
   <g id="matplotlib.axis_29">
    <g id="xtick_43">
     <g id="line2d_113">
      <g>
       <use style="stroke:#000000;stroke-width:0.8;" x="69.727972" xlink:href="#m1a566d0787" y="565.413861"/>
      </g>
     </g>
    </g>
    <g id="xtick_44">
     <g id="line2d_114">
      <g>
       <use style="stroke:#000000;stroke-width:0.8;" x="128.259441" xlink:href="#m1a566d0787" y="565.413861"/>
      </g>
     </g>
    </g>
    <g id="xtick_45">
     <g id="line2d_115">
      <g>
       <use style="stroke:#000000;stroke-width:0.8;" x="186.790909" xlink:href="#m1a566d0787" y="565.413861"/>
      </g>
     </g>
    </g>
   </g>
   <g id="matplotlib.axis_30">
    <g id="ytick_29">
     <g id="line2d_116">
      <g>
       <use style="stroke:#000000;stroke-width:0.8;" x="27" xlink:href="#m6744209d83" y="564.190639"/>
      </g>
     </g>
     <g id="text_29">
      <text style="font-family:DejaVu Sans;font-size:10px;font-style:normal;font-weight:normal;text-anchor:end;" transform="rotate(-0, 20, 567.989858)" x="20" y="567.989858">0.0</text>
     </g>
    </g>
    <g id="ytick_30">
     <g id="line2d_117">
      <g>
       <use style="stroke:#000000;stroke-width:0.8;" x="27" xlink:href="#m6744209d83" y="548.013728"/>
      </g>
     </g>
     <g id="text_30">
      <text style="font-family:DejaVu Sans;font-size:10px;font-style:normal;font-weight:normal;text-anchor:end;" transform="rotate(-0, 20, 551.812947)" x="20" y="551.812947">0.5</text>
     </g>
    </g>
   </g>
   <g id="line2d_118">
    <path clip-path="url(#p3407206ec0)" d="M 34.609091 564.190639 
L 36.146281 564.190639 
L 37.683471 564.190639 
L 39.220661 564.190639 
L 40.757851 564.190639 
L 42.295041 564.190639 
L 43.832231 564.190639 
L 45.369421 564.190639 
L 46.906612 564.190639 
L 48.443802 564.190639 
L 49.980992 564.190639 
L 51.518182 564.190639 
L 53.055372 564.190639 
L 54.592562 564.190639 
L 56.129752 564.190639 
L 57.666942 564.190639 
L 59.204132 564.190639 
L 60.741322 564.190639 
L 62.278512 564.190639 
L 63.815702 564.190639 
L 65.352893 564.190639 
L 66.890083 564.190639 
L 68.427273 564.190639 
L 69.964463 564.190639 
L 71.501653 564.190639 
L 73.038843 564.190639 
L 74.576033 564.190639 
L 76.113223 564.190639 
L 77.650413 564.190639 
L 79.187603 564.190639 
L 80.724793 564.190639 
L 82.261983 564.190639 
L 83.799174 564.190639 
L 85.336364 564.190639 
L 86.873554 564.190639 
L 88.410744 564.190639 
L 89.947934 564.190639 
L 91.485124 564.190639 
L 93.022314 564.190639 
L 94.559504 564.190639 
L 96.096694 564.190639 
L 97.633884 564.190639 
L 99.171074 564.190639 
L 100.708264 564.190639 
L 102.245455 564.190639 
L 103.782645 564.190639 
L 105.319835 564.190637 
L 106.857025 564.19063 
L 108.394215 564.190604 
L 109.931405 564.190516 
L 111.468595 564.190232 
L 113.005785 564.18937 
L 114.542975 564.186918 
L 116.080165 564.180387 
L 117.617355 564.16409 
L 119.154545 564.126025 
L 120.691736 564.042846 
L 122.228926 563.872927 
L 123.766116 563.548745 
L 125.303306 562.971808 
L 126.840496 562.015563 
L 128.377686 560.542628 
L 129.914876 558.440365 
L 131.452066 555.671971 
L 132.989256 552.33007 
L 134.526446 548.670698 
L 136.063636 545.104182 
L 137.600826 542.130345 
L 139.138017 540.227264 
L 140.675207 539.726193 
L 142.212397 540.717373 
L 143.749587 543.023491 
L 145.286777 546.251488 
L 146.823967 549.901957 
L 148.361157 553.49435 
L 149.898347 556.665322 
L 151.435537 559.21479 
L 152.972727 561.09849 
L 154.509917 562.384695 
L 156.047107 563.199354 
L 157.584298 563.679259 
L 159.121488 563.942703 
L 160.658678 564.077663 
L 162.195868 564.142257 
L 163.733058 564.171166 
L 165.270248 564.183273 
L 166.807438 564.18802 
L 168.344628 564.189764 
L 169.881818 564.190364 
L 171.419008 564.190558 
L 172.956198 564.190617 
L 174.493388 564.190633 
L 176.030579 564.190638 
L 177.567769 564.190639 
L 179.104959 564.190639 
L 180.642149 564.190639 
L 182.179339 564.190639 
L 183.716529 564.190639 
L 185.253719 564.190639 
L 186.790909 564.190639 
" style="fill:none;stroke:#1f77b4;stroke-linecap:square;stroke-width:1.5;"/>
   </g>
   <g id="line2d_119">
    <path clip-path="url(#p3407206ec0)" d="M 128.376503 564.190639 
L 128.376503 539.726193 
" style="fill:none;stroke:#000000;stroke-dasharray:5.55,2.4;stroke-dashoffset:0;stroke-width:1.5;"/>
   </g>
   <g id="line2d_120">
    <path clip-path="url(#p3407206ec0)" d="M 152.725594 564.190639 
L 152.725594 539.726193 
" style="fill:none;stroke:#000000;stroke-dasharray:5.55,2.4;stroke-dashoffset:0;stroke-width:1.5;"/>
   </g>
   <g id="patch_73">
    <path d="M 27 565.413861 
L 27 538.50297 
" style="fill:none;stroke:#000000;stroke-linecap:square;stroke-linejoin:miter;stroke-width:0.8;"/>
   </g>
   <g id="patch_74">
    <path d="M 194.4 565.413861 
L 194.4 538.50297 
" style="fill:none;stroke:#000000;stroke-linecap:square;stroke-linejoin:miter;stroke-width:0.8;"/>
   </g>
   <g id="patch_75">
    <path d="M 27 565.413861 
L 194.4 565.413861 
" style="fill:none;stroke:#000000;stroke-linecap:square;stroke-linejoin:miter;stroke-width:0.8;"/>
   </g>
   <g id="patch_76">
    <path d="M 27 538.50297 
L 194.4 538.50297 
" style="fill:none;stroke:#000000;stroke-linecap:square;stroke-linejoin:miter;stroke-width:0.8;"/>
   </g>
  </g>
  <g id="axes_16">
   <g id="patch_77">
    <path d="M 27 597.706931 
L 194.4 597.706931 
L 194.4 570.79604 
L 27 570.79604 
z
" style="fill:#ffffff;"/>
   </g>
   <g id="matplotlib.axis_31">
    <g id="xtick_46">
     <g id="line2d_121">
      <g>
       <use style="stroke:#000000;stroke-width:0.8;" x="69.727972" xlink:href="#m1a566d0787" y="597.706931"/>
      </g>
     </g>
    </g>
    <g id="xtick_47">
     <g id="line2d_122">
      <g>
       <use style="stroke:#000000;stroke-width:0.8;" x="128.259441" xlink:href="#m1a566d0787" y="597.706931"/>
      </g>
     </g>
    </g>
    <g id="xtick_48">
     <g id="line2d_123">
      <g>
       <use style="stroke:#000000;stroke-width:0.8;" x="186.790909" xlink:href="#m1a566d0787" y="597.706931"/>
      </g>
     </g>
    </g>
   </g>
   <g id="matplotlib.axis_32">
    <g id="ytick_31">
     <g id="line2d_124">
      <g>
       <use style="stroke:#000000;stroke-width:0.8;" x="27" xlink:href="#m6744209d83" y="596.483708"/>
      </g>
     </g>
     <g id="text_31">
      <text style="font-family:DejaVu Sans;font-size:10px;font-style:normal;font-weight:normal;text-anchor:end;" transform="rotate(-0, 20, 600.282927)" x="20" y="600.282927">0</text>
     </g>
    </g>
    <g id="ytick_32">
     <g id="line2d_125">
      <g>
       <use style="stroke:#000000;stroke-width:0.8;" x="27" xlink:href="#m6744209d83" y="576.029416"/>
      </g>
     </g>
     <g id="text_32">
      <text style="font-family:DejaVu Sans;font-size:10px;font-style:normal;font-weight:normal;text-anchor:end;" transform="rotate(-0, 20, 579.828635)" x="20" y="579.828635">1</text>
     </g>
    </g>
   </g>
   <g id="line2d_126">
    <path clip-path="url(#p701318f2ed)" d="M 34.609091 596.483708 
L 36.146281 596.483708 
L 37.683471 596.483708 
L 39.220661 596.483708 
L 40.757851 596.483708 
L 42.295041 596.483708 
L 43.832231 596.483708 
L 45.369421 596.483708 
L 46.906612 596.483708 
L 48.443802 596.483708 
L 49.980992 596.483708 
L 51.518182 596.483708 
L 53.055372 596.483708 
L 54.592562 596.483708 
L 56.129752 596.483708 
L 57.666942 596.483708 
L 59.204132 596.483708 
L 60.741322 596.483708 
L 62.278512 596.483708 
L 63.815702 596.483708 
L 65.352893 596.483708 
L 66.890083 596.483708 
L 68.427273 596.483708 
L 69.964463 596.483708 
L 71.501653 596.483708 
L 73.038843 596.483708 
L 74.576033 596.483708 
L 76.113223 596.483708 
L 77.650413 596.483708 
L 79.187603 596.483708 
L 80.724793 596.483708 
L 82.261983 596.483708 
L 83.799174 596.483708 
L 85.336364 596.483708 
L 86.873554 596.483708 
L 88.410744 596.483708 
L 89.947934 596.483708 
L 91.485124 596.483708 
L 93.022314 596.483707 
L 94.559504 596.483693 
L 96.096694 596.483586 
L 97.633884 596.482898 
L 99.171074 596.479127 
L 100.708264 596.461606 
L 102.245455 596.392756 
L 103.782645 596.164435 
L 105.319835 595.527677 
L 106.857025 594.041717 
L 108.394215 591.162894 
L 109.931405 586.594212 
L 111.468595 580.8042 
L 113.005785 575.277997 
L 114.542975 572.019262 
L 116.080165 572.407943 
L 117.617355 576.272748 
L 119.154545 582.010795 
L 120.691736 587.642999 
L 122.228926 591.877109 
L 123.766116 594.436152 
L 125.303306 595.707366 
L 126.840496 596.232616 
L 128.377686 596.414434 
L 129.914876 596.467405 
L 131.452066 596.480435 
L 132.989256 596.483148 
L 134.526446 596.483626 
L 136.063636 596.483698 
L 137.600826 596.483707 
L 139.138017 596.483708 
L 140.675207 596.483708 
L 142.212397 596.483708 
L 143.749587 596.483708 
L 145.286777 596.483708 
L 146.823967 596.483708 
L 148.361157 596.483708 
L 149.898347 596.483708 
L 151.435537 596.483708 
L 152.972727 596.483708 
L 154.509917 596.483708 
L 156.047107 596.483708 
L 157.584298 596.483708 
L 159.121488 596.483708 
L 160.658678 596.483708 
L 162.195868 596.483708 
L 163.733058 596.483708 
L 165.270248 596.483708 
L 166.807438 596.483708 
L 168.344628 596.483708 
L 169.881818 596.483708 
L 171.419008 596.483708 
L 172.956198 596.483708 
L 174.493388 596.483708 
L 176.030579 596.483708 
L 177.567769 596.483708 
L 179.104959 596.483708 
L 180.642149 596.483708 
L 182.179339 596.483708 
L 183.716529 596.483708 
L 185.253719 596.483708 
L 186.790909 596.483708 
" style="fill:none;stroke:#1f77b4;stroke-linecap:square;stroke-width:1.5;"/>
   </g>
   <g id="line2d_127">
    <path clip-path="url(#p701318f2ed)" d="M 107.539301 596.483708 
L 107.539301 572.019262 
" style="fill:none;stroke:#000000;stroke-dasharray:5.55,2.4;stroke-dashoffset:0;stroke-width:1.5;"/>
   </g>
   <g id="line2d_128">
    <path clip-path="url(#p701318f2ed)" d="M 122.757483 596.483708 
L 122.757483 572.019262 
" style="fill:none;stroke:#000000;stroke-dasharray:5.55,2.4;stroke-dashoffset:0;stroke-width:1.5;"/>
   </g>
   <g id="patch_78">
    <path d="M 27 597.706931 
L 27 570.79604 
" style="fill:none;stroke:#000000;stroke-linecap:square;stroke-linejoin:miter;stroke-width:0.8;"/>
   </g>
   <g id="patch_79">
    <path d="M 194.4 597.706931 
L 194.4 570.79604 
" style="fill:none;stroke:#000000;stroke-linecap:square;stroke-linejoin:miter;stroke-width:0.8;"/>
   </g>
   <g id="patch_80">
    <path d="M 27 597.706931 
L 194.4 597.706931 
" style="fill:none;stroke:#000000;stroke-linecap:square;stroke-linejoin:miter;stroke-width:0.8;"/>
   </g>
   <g id="patch_81">
    <path d="M 27 570.79604 
L 194.4 570.79604 
" style="fill:none;stroke:#000000;stroke-linecap:square;stroke-linejoin:miter;stroke-width:0.8;"/>
   </g>
  </g>
  <g id="axes_17">
   <g id="patch_82">
    <path d="M 27 630 
L 194.4 630 
L 194.4 603.089109 
L 27 603.089109 
z
" style="fill:#ffffff;"/>
   </g>
   <g id="matplotlib.axis_33">
    <g id="xtick_49">
     <g id="line2d_129">
      <g>
       <use style="stroke:#000000;stroke-width:0.8;" x="69.727972" xlink:href="#m1a566d0787" y="630"/>
      </g>
     </g>
     <g id="text_33">
      <text style="font-family:DejaVu Sans;font-size:10px;font-style:normal;font-weight:normal;text-anchor:middle;" transform="rotate(-0, 69.727972, 644.598438)" x="69.727972" y="644.598438">5</text>
     </g>
    </g>
    <g id="xtick_50">
     <g id="line2d_130">
      <g>
       <use style="stroke:#000000;stroke-width:0.8;" x="128.259441" xlink:href="#m1a566d0787" y="630"/>
      </g>
     </g>
     <g id="text_34">
      <text style="font-family:DejaVu Sans;font-size:10px;font-style:normal;font-weight:normal;text-anchor:middle;" transform="rotate(-0, 128.259441, 644.598438)" x="128.259441" y="644.598438">0</text>
     </g>
    </g>
    <g id="xtick_51">
     <g id="line2d_131">
      <g>
       <use style="stroke:#000000;stroke-width:0.8;" x="186.790909" xlink:href="#m1a566d0787" y="630"/>
      </g>
     </g>
     <g id="text_35">
      <text style="font-family:DejaVu Sans;font-size:10px;font-style:normal;font-weight:normal;text-anchor:middle;" transform="rotate(-0, 186.790909, 644.598438)" x="186.790909" y="644.598438">5</text>
     </g>
    </g>
   </g>
   <g id="matplotlib.axis_34">
    <g id="ytick_33">
     <g id="line2d_132">
      <g>
       <use style="stroke:#000000;stroke-width:0.8;" x="27" xlink:href="#m6744209d83" y="628.776778"/>
      </g>
     </g>
     <g id="text_36">
      <text style="font-family:DejaVu Sans;font-size:10px;font-style:normal;font-weight:normal;text-anchor:end;" transform="rotate(-0, 20, 632.575996)" x="20" y="632.575996">0.0</text>
     </g>
    </g>
    <g id="ytick_34">
     <g id="line2d_133">
      <g>
       <use style="stroke:#000000;stroke-width:0.8;" x="27" xlink:href="#m6744209d83" y="604.754864"/>
      </g>
     </g>
     <g id="text_37">
      <text style="font-family:DejaVu Sans;font-size:10px;font-style:normal;font-weight:normal;text-anchor:end;" transform="rotate(-0, 20, 608.554083)" x="20" y="608.554083">0.5</text>
     </g>
    </g>
   </g>
   <g id="line2d_134">
    <path clip-path="url(#p11fcc8ef02)" d="M 34.609091 628.776778 
L 36.146281 628.776778 
L 37.683471 628.776778 
L 39.220661 628.776778 
L 40.757851 628.776778 
L 42.295041 628.776778 
L 43.832231 628.776778 
L 45.369421 628.776778 
L 46.906612 628.776778 
L 48.443802 628.776778 
L 49.980992 628.776778 
L 51.518182 628.776778 
L 53.055372 628.776778 
L 54.592562 628.776778 
L 56.129752 628.776778 
L 57.666942 628.776778 
L 59.204132 628.776778 
L 60.741322 628.776778 
L 62.278512 628.776778 
L 63.815702 628.776778 
L 65.352893 628.776778 
L 66.890083 628.776778 
L 68.427273 628.776778 
L 69.964463 628.776778 
L 71.501653 628.776778 
L 73.038843 628.776778 
L 74.576033 628.776778 
L 76.113223 628.776778 
L 77.650413 628.776778 
L 79.187603 628.776778 
L 80.724793 628.776778 
L 82.261983 628.776778 
L 83.799174 628.776778 
L 85.336364 628.776778 
L 86.873554 628.776778 
L 88.410744 628.776778 
L 89.947934 628.776778 
L 91.485124 628.776778 
L 93.022314 628.776778 
L 94.559504 628.776778 
L 96.096694 628.776778 
L 97.633884 628.776777 
L 99.171074 628.776777 
L 100.708264 628.776776 
L 102.245455 628.776773 
L 103.782645 628.776766 
L 105.319835 628.77675 
L 106.857025 628.776712 
L 108.394215 628.776627 
L 109.931405 628.776439 
L 111.468595 628.77604 
L 113.005785 628.775215 
L 114.542975 628.773557 
L 116.080165 628.770325 
L 117.617355 628.764208 
L 119.154545 628.752972 
L 120.691736 628.73294 
L 122.228926 628.698291 
L 123.766116 628.640154 
L 125.303306 628.545548 
L 126.840496 628.396286 
L 128.377686 628.168039 
L 129.914876 627.829882 
L 131.452066 627.34473 
L 132.989256 626.671071 
L 134.526446 625.766386 
L 136.063636 624.592381 
L 137.600826 623.121845 
L 139.138017 621.34647 
L 140.675207 619.284489 
L 142.212397 616.986614 
L 143.749587 614.53863 
L 145.286777 612.059256 
L 146.823967 609.692528 
L 148.361157 607.59497 
L 149.898347 605.91891 
L 151.435537 604.794348 
L 152.972727 604.312331 
L 154.509917 604.512779 
L 156.047107 605.379027 
L 157.584298 606.840112 
L 159.121488 608.780375 
L 160.658678 611.054567 
L 162.195868 613.505736 
L 163.733058 615.982841 
L 165.270248 618.355415 
L 166.807438 620.523441 
L 168.344628 622.421722 
L 169.881818 624.019112 
L 171.419008 625.313771 
L 172.956198 626.326037 
L 174.493388 627.090511 
L 176.030579 627.648698 
L 177.567769 628.043044 
L 179.104959 628.312774 
L 180.642149 628.491486 
L 182.179339 628.606232 
L 183.716529 628.677654 
L 185.253719 628.720763 
L 186.790909 628.746002 
" style="fill:none;stroke:#1f77b4;stroke-linecap:square;stroke-width:1.5;"/>
   </g>
   <g id="line2d_135">
    <path clip-path="url(#p11fcc8ef02)" d="M 135.283217 628.776778 
L 135.283217 604.312331 
" style="fill:none;stroke:#000000;stroke-dasharray:5.55,2.4;stroke-dashoffset:0;stroke-width:1.5;"/>
   </g>
   <g id="line2d_136">
    <path clip-path="url(#p11fcc8ef02)" d="M 171.455664 628.776778 
L 171.455664 604.312331 
" style="fill:none;stroke:#000000;stroke-dasharray:5.55,2.4;stroke-dashoffset:0;stroke-width:1.5;"/>
   </g>
   <g id="patch_83">
    <path d="M 27 630 
L 27 603.089109 
" style="fill:none;stroke:#000000;stroke-linecap:square;stroke-linejoin:miter;stroke-width:0.8;"/>
   </g>
   <g id="patch_84">
    <path d="M 194.4 630 
L 194.4 603.089109 
" style="fill:none;stroke:#000000;stroke-linecap:square;stroke-linejoin:miter;stroke-width:0.8;"/>
   </g>
   <g id="patch_85">
    <path d="M 27 630 
L 194.4 630 
" style="fill:none;stroke:#000000;stroke-linecap:square;stroke-linejoin:miter;stroke-width:0.8;"/>
   </g>
   <g id="patch_86">
    <path d="M 27 603.089109 
L 194.4 603.089109 
" style="fill:none;stroke:#000000;stroke-linecap:square;stroke-linejoin:miter;stroke-width:0.8;"/>
   </g>
  </g>
 </g>
 <defs>
  <clipPath id="pd1e3465a50">
   <rect height="26.910891" width="167.4" x="27" y="86.4"/>
  </clipPath>
  <clipPath id="p5c7ad4e5b9">
   <rect height="26.910891" width="167.4" x="27" y="118.693069"/>
  </clipPath>
  <clipPath id="p7d7269cf6e">
   <rect height="26.910891" width="167.4" x="27" y="150.986139"/>
  </clipPath>
  <clipPath id="p43355bf729">
   <rect height="26.910891" width="167.4" x="27" y="183.279208"/>
  </clipPath>
  <clipPath id="p31beced234">
   <rect height="26.910891" width="167.4" x="27" y="215.572277"/>
  </clipPath>
  <clipPath id="p12e08e164a">
   <rect height="26.910891" width="167.4" x="27" y="247.865347"/>
  </clipPath>
  <clipPath id="p6e3f791eb8">
   <rect height="26.910891" width="167.4" x="27" y="280.158416"/>
  </clipPath>
  <clipPath id="pd17abf16a0">
   <rect height="26.910891" width="167.4" x="27" y="312.451485"/>
  </clipPath>
  <clipPath id="p1b861db3e0">
   <rect height="26.910891" width="167.4" x="27" y="344.744554"/>
  </clipPath>
  <clipPath id="pbf68f508d4">
   <rect height="26.910891" width="167.4" x="27" y="377.037624"/>
  </clipPath>
  <clipPath id="p01b2af41b8">
   <rect height="26.910891" width="167.4" x="27" y="409.330693"/>
  </clipPath>
  <clipPath id="p05a292d891">
   <rect height="26.910891" width="167.4" x="27" y="441.623762"/>
  </clipPath>
  <clipPath id="p8eb698637a">
   <rect height="26.910891" width="167.4" x="27" y="473.916832"/>
  </clipPath>
  <clipPath id="pb930c63a18">
   <rect height="26.910891" width="167.4" x="27" y="506.209901"/>
  </clipPath>
  <clipPath id="p3407206ec0">
   <rect height="26.910891" width="167.4" x="27" y="538.50297"/>
  </clipPath>
  <clipPath id="p701318f2ed">
   <rect height="26.910891" width="167.4" x="27" y="570.79604"/>
  </clipPath>
  <clipPath id="p11fcc8ef02">
   <rect height="26.910891" width="167.4" x="27" y="603.089109"/>
  </clipPath>
 </defs>
</svg>
