<?xml version="1.0" encoding="utf-8" standalone="no"?>
<!DOCTYPE svg PUBLIC "-//W3C//DTD SVG 1.1//EN"
  "http://www.w3.org/Graphics/SVG/1.1/DTD/svg11.dtd">
<!-- Created with matplotlib (https://matplotlib.org/) -->
<svg height="720pt" version="1.1" viewBox="0 0 216 720" width="216pt" xmlns="http://www.w3.org/2000/svg" xmlns:xlink="http://www.w3.org/1999/xlink">
 <defs>
  <style type="text/css">
*{stroke-linecap:butt;stroke-linejoin:round;}
  </style>
 </defs>
 <g id="figure_1">
  <g id="patch_1">
   <path d="M 0 720 
L 216 720 
L 216 0 
L 0 0 
z
" style="fill:#ffffff;"/>
  </g>
  <g id="axes_1">
   <g id="patch_2">
    <path d="M 27 180.124138 
L 194.4 180.124138 
L 194.4 86.4 
L 27 86.4 
z
" style="fill:#ffffff;"/>
   </g>
   <g id="matplotlib.axis_1">
    <g id="xtick_1">
     <g id="line2d_1">
      <defs>
       <path d="M 0 0 
L 0 3.5 
" id="m12cbf9f36e" style="stroke:#000000;stroke-width:0.8;"/>
      </defs>
      <g>
       <use style="stroke:#000000;stroke-width:0.8;" x="27" xlink:href="#m12cbf9f36e" y="180.124138"/>
      </g>
     </g>
    </g>
    <g id="xtick_2">
     <g id="line2d_2">
      <g>
       <use style="stroke:#000000;stroke-width:0.8;" x="60.48" xlink:href="#m12cbf9f36e" y="180.124138"/>
      </g>
     </g>
    </g>
    <g id="xtick_3">
     <g id="line2d_3">
      <g>
       <use style="stroke:#000000;stroke-width:0.8;" x="93.96" xlink:href="#m12cbf9f36e" y="180.124138"/>
      </g>
     </g>
    </g>
    <g id="xtick_4">
     <g id="line2d_4">
      <g>
       <use style="stroke:#000000;stroke-width:0.8;" x="127.44" xlink:href="#m12cbf9f36e" y="180.124138"/>
      </g>
     </g>
    </g>
    <g id="xtick_5">
     <g id="line2d_5">
      <g>
       <use style="stroke:#000000;stroke-width:0.8;" x="160.92" xlink:href="#m12cbf9f36e" y="180.124138"/>
      </g>
     </g>
    </g>
    <g id="xtick_6">
     <g id="line2d_6">
      <g>
       <use style="stroke:#000000;stroke-width:0.8;" x="194.4" xlink:href="#m12cbf9f36e" y="180.124138"/>
      </g>
     </g>
    </g>
   </g>
   <g id="matplotlib.axis_2">
    <g id="ytick_1">
     <g id="line2d_7">
      <defs>
       <path d="M 0 0 
L -3.5 0 
" id="m04af6e208c" style="stroke:#000000;stroke-width:0.8;"/>
      </defs>
      <g>
       <use style="stroke:#000000;stroke-width:0.8;" x="27" xlink:href="#m04af6e208c" y="175.86395"/>
      </g>
     </g>
     <g id="text_1">
      <text style="font-family:DejaVu Sans;font-size:10px;font-style:normal;font-weight:normal;text-anchor:end;" transform="rotate(-0, 20, 179.663169)" x="20" y="179.663169">0</text>
     </g>
    </g>
    <g id="ytick_2">
     <g id="line2d_8">
      <g>
       <use style="stroke:#000000;stroke-width:0.8;" x="27" xlink:href="#m04af6e208c" y="146.366146"/>
      </g>
     </g>
     <g id="text_2">
      <text style="font-family:DejaVu Sans;font-size:10px;font-style:normal;font-weight:normal;text-anchor:end;" transform="rotate(-0, 20, 150.165365)" x="20" y="150.165365">1</text>
     </g>
    </g>
    <g id="ytick_3">
     <g id="line2d_9">
      <g>
       <use style="stroke:#000000;stroke-width:0.8;" x="27" xlink:href="#m04af6e208c" y="116.868342"/>
      </g>
     </g>
     <g id="text_3">
      <text style="font-family:DejaVu Sans;font-size:10px;font-style:normal;font-weight:normal;text-anchor:end;" transform="rotate(-0, 20, 120.667561)" x="20" y="120.667561">2</text>
     </g>
    </g>
    <g id="ytick_4">
     <g id="line2d_10">
      <g>
       <use style="stroke:#000000;stroke-width:0.8;" x="27" xlink:href="#m04af6e208c" y="87.370538"/>
      </g>
     </g>
     <g id="text_4">
      <text style="font-family:DejaVu Sans;font-size:10px;font-style:normal;font-weight:normal;text-anchor:end;" transform="rotate(-0, 20, 91.169757)" x="20" y="91.169757">3</text>
     </g>
    </g>
    <g id="text_5">
     <text style="font-family:DejaVu Sans;font-size:10px;font-style:normal;font-weight:normal;text-anchor:middle;" transform="rotate(-90, 7.557812, 133.262069)" x="7.557812" y="133.262069">Muribaculaceae</text>
    </g>
   </g>
   <g id="line2d_11">
    <path clip-path="url(#p2f7a5ea0b2)" d="M 27 175.86395 
L 28.690909 175.86395 
L 30.381818 175.86395 
L 32.072727 175.86395 
L 33.763636 175.86395 
L 35.454545 175.86395 
L 37.145455 175.86395 
L 38.836364 175.86395 
L 40.527273 175.86395 
L 42.218182 175.86395 
L 43.909091 175.86395 
L 45.6 175.86395 
L 47.290909 175.86395 
L 48.981818 175.86395 
L 50.672727 175.86395 
L 52.363636 175.86395 
L 54.054545 175.86395 
L 55.745455 175.86395 
L 57.436364 175.86395 
L 59.127273 175.86395 
L 60.818182 175.86395 
L 62.509091 175.86395 
L 64.2 175.86395 
L 65.890909 175.86395 
L 67.581818 175.86395 
L 69.272727 175.86395 
L 70.963636 175.86395 
L 72.654545 175.86395 
L 74.345455 175.86395 
L 76.036364 175.86395 
L 77.727273 175.86395 
L 79.418182 175.86395 
L 81.109091 175.86395 
L 82.8 175.86395 
L 84.490909 175.86395 
L 86.181818 175.86395 
L 87.872727 175.86395 
L 89.563636 175.86395 
L 91.254545 175.86395 
L 92.945455 175.86395 
L 94.636364 175.86395 
L 96.327273 175.86395 
L 98.018182 175.86395 
L 99.709091 175.86395 
L 101.4 175.86395 
L 103.090909 175.86395 
L 104.781818 175.86395 
L 106.472727 175.86395 
L 108.163636 175.86395 
L 109.854545 175.86395 
L 111.545455 175.863949 
L 113.236364 175.863943 
L 114.927273 175.8639 
L 116.618182 175.863609 
L 118.309091 175.861927 
L 120 175.85348 
L 121.690909 175.816736 
L 123.381818 175.678392 
L 125.072727 175.228375 
L 126.763636 173.966694 
L 128.454545 170.928154 
L 130.145455 164.673165 
L 131.836364 153.751544 
L 133.527273 137.785125 
L 135.218182 118.715668 
L 136.909091 101.116751 
L 138.6 90.660188 
L 140.290909 91.220234 
L 141.981818 102.581029 
L 143.672727 120.569323 
L 145.363636 139.503003 
L 147.054545 155.025781 
L 148.745455 165.45622 
L 150.436364 171.333675 
L 152.127273 174.145388 
L 153.818182 175.29578 
L 155.509091 175.700244 
L 157.2 175.822842 
L 158.890909 175.854954 
L 160.581818 175.862234 
L 162.272727 175.863665 
L 163.963636 175.863909 
L 165.654545 175.863945 
L 167.345455 175.863949 
L 169.036364 175.86395 
L 170.727273 175.86395 
L 172.418182 175.86395 
L 174.109091 175.86395 
L 175.8 175.86395 
L 177.490909 175.86395 
L 179.181818 175.86395 
L 180.872727 175.86395 
L 182.563636 175.86395 
L 184.254545 175.86395 
L 185.945455 175.86395 
L 187.636364 175.86395 
L 189.327273 175.86395 
L 191.018182 175.86395 
L 192.709091 175.86395 
L 194.4 175.86395 
" style="fill:none;stroke:#1f77b4;stroke-linecap:square;stroke-width:1.5;"/>
   </g>
   <g id="line2d_12">
    <path clip-path="url(#p2f7a5ea0b2)" d="M 130.1184 175.86395 
L 130.1184 90.660188 
" style="fill:none;stroke:#000000;stroke-dasharray:5.55,2.4;stroke-dashoffset:0;stroke-width:1.5;"/>
   </g>
   <g id="line2d_13">
    <path clip-path="url(#p2f7a5ea0b2)" d="M 148.1976 175.86395 
L 148.1976 90.660188 
" style="fill:none;stroke:#000000;stroke-dasharray:5.55,2.4;stroke-dashoffset:0;stroke-width:1.5;"/>
   </g>
   <g id="patch_3">
    <path d="M 27 180.124138 
L 27 86.4 
" style="fill:none;stroke:#000000;stroke-linecap:square;stroke-linejoin:miter;stroke-width:0.8;"/>
   </g>
   <g id="patch_4">
    <path d="M 194.4 180.124138 
L 194.4 86.4 
" style="fill:none;stroke:#000000;stroke-linecap:square;stroke-linejoin:miter;stroke-width:0.8;"/>
   </g>
   <g id="patch_5">
    <path d="M 27 180.124138 
L 194.4 180.124138 
" style="fill:none;stroke:#000000;stroke-linecap:square;stroke-linejoin:miter;stroke-width:0.8;"/>
   </g>
   <g id="patch_6">
    <path d="M 27 86.4 
L 194.4 86.4 
" style="fill:none;stroke:#000000;stroke-linecap:square;stroke-linejoin:miter;stroke-width:0.8;"/>
   </g>
  </g>
  <g id="axes_2">
   <g id="patch_7">
    <path d="M 27 292.593103 
L 194.4 292.593103 
L 194.4 198.868966 
L 27 198.868966 
z
" style="fill:#ffffff;"/>
   </g>
   <g id="matplotlib.axis_3">
    <g id="xtick_7">
     <g id="line2d_14">
      <g>
       <use style="stroke:#000000;stroke-width:0.8;" x="27" xlink:href="#m12cbf9f36e" y="292.593103"/>
      </g>
     </g>
    </g>
    <g id="xtick_8">
     <g id="line2d_15">
      <g>
       <use style="stroke:#000000;stroke-width:0.8;" x="60.48" xlink:href="#m12cbf9f36e" y="292.593103"/>
      </g>
     </g>
    </g>
    <g id="xtick_9">
     <g id="line2d_16">
      <g>
       <use style="stroke:#000000;stroke-width:0.8;" x="93.96" xlink:href="#m12cbf9f36e" y="292.593103"/>
      </g>
     </g>
    </g>
    <g id="xtick_10">
     <g id="line2d_17">
      <g>
       <use style="stroke:#000000;stroke-width:0.8;" x="127.44" xlink:href="#m12cbf9f36e" y="292.593103"/>
      </g>
     </g>
    </g>
    <g id="xtick_11">
     <g id="line2d_18">
      <g>
       <use style="stroke:#000000;stroke-width:0.8;" x="160.92" xlink:href="#m12cbf9f36e" y="292.593103"/>
      </g>
     </g>
    </g>
    <g id="xtick_12">
     <g id="line2d_19">
      <g>
       <use style="stroke:#000000;stroke-width:0.8;" x="194.4" xlink:href="#m12cbf9f36e" y="292.593103"/>
      </g>
     </g>
    </g>
   </g>
   <g id="matplotlib.axis_4">
    <g id="ytick_5">
     <g id="line2d_20">
      <g>
       <use style="stroke:#000000;stroke-width:0.8;" x="27" xlink:href="#m04af6e208c" y="288.332915"/>
      </g>
     </g>
     <g id="text_6">
      <text style="font-family:DejaVu Sans;font-size:10px;font-style:normal;font-weight:normal;text-anchor:end;" transform="rotate(-0, 20, 292.132134)" x="20" y="292.132134">0</text>
     </g>
    </g>
    <g id="ytick_6">
     <g id="line2d_21">
      <g>
       <use style="stroke:#000000;stroke-width:0.8;" x="27" xlink:href="#m04af6e208c" y="259.174225"/>
      </g>
     </g>
     <g id="text_7">
      <text style="font-family:DejaVu Sans;font-size:10px;font-style:normal;font-weight:normal;text-anchor:end;" transform="rotate(-0, 20, 262.973444)" x="20" y="262.973444">1</text>
     </g>
    </g>
    <g id="ytick_7">
     <g id="line2d_22">
      <g>
       <use style="stroke:#000000;stroke-width:0.8;" x="27" xlink:href="#m04af6e208c" y="230.015534"/>
      </g>
     </g>
     <g id="text_8">
      <text style="font-family:DejaVu Sans;font-size:10px;font-style:normal;font-weight:normal;text-anchor:end;" transform="rotate(-0, 20, 233.814753)" x="20" y="233.814753">2</text>
     </g>
    </g>
    <g id="ytick_8">
     <g id="line2d_23">
      <g>
       <use style="stroke:#000000;stroke-width:0.8;" x="27" xlink:href="#m04af6e208c" y="200.856844"/>
      </g>
     </g>
     <g id="text_9">
      <text style="font-family:DejaVu Sans;font-size:10px;font-style:normal;font-weight:normal;text-anchor:end;" transform="rotate(-0, 20, 204.656062)" x="20" y="204.656062">3</text>
     </g>
    </g>
    <g id="text_10">
     <text style="font-family:DejaVu Sans;font-size:10px;font-style:normal;font-weight:normal;text-anchor:middle;" transform="rotate(-90, 7.279687, 245.731034)" x="7.279687" y="245.731034">Bacteroides_dash_acidifaciens</text>
    </g>
   </g>
   <g id="line2d_24">
    <path clip-path="url(#pffd3e06dff)" d="M 27 288.332915 
L 28.690909 288.332915 
L 30.381818 288.332915 
L 32.072727 288.332915 
L 33.763636 288.332915 
L 35.454545 288.332915 
L 37.145455 288.332915 
L 38.836364 288.332915 
L 40.527273 288.332915 
L 42.218182 288.332915 
L 43.909091 288.332915 
L 45.6 288.332915 
L 47.290909 288.332915 
L 48.981818 288.332915 
L 50.672727 288.332915 
L 52.363636 288.332915 
L 54.054545 288.332915 
L 55.745455 288.332915 
L 57.436364 288.332915 
L 59.127273 288.332915 
L 60.818182 288.332915 
L 62.509091 288.332915 
L 64.2 288.332915 
L 65.890909 288.332915 
L 67.581818 288.332915 
L 69.272727 288.332915 
L 70.963636 288.332915 
L 72.654545 288.332915 
L 74.345455 288.332915 
L 76.036364 288.332915 
L 77.727273 288.332915 
L 79.418182 288.332915 
L 81.109091 288.332915 
L 82.8 288.332915 
L 84.490909 288.332915 
L 86.181818 288.332915 
L 87.872727 288.332915 
L 89.563636 288.332915 
L 91.254545 288.332915 
L 92.945455 288.332915 
L 94.636364 288.332915 
L 96.327273 288.332915 
L 98.018182 288.332915 
L 99.709091 288.332915 
L 101.4 288.332915 
L 103.090909 288.332915 
L 104.781818 288.332915 
L 106.472727 288.332915 
L 108.163636 288.332915 
L 109.854545 288.332915 
L 111.545455 288.332915 
L 113.236364 288.332915 
L 114.927273 288.332915 
L 116.618182 288.332915 
L 118.309091 288.332915 
L 120 288.332915 
L 121.690909 288.332915 
L 123.381818 288.332915 
L 125.072727 288.332915 
L 126.763636 288.332915 
L 128.454545 288.332915 
L 130.145455 288.332915 
L 131.836364 288.332915 
L 133.527273 288.332915 
L 135.218182 288.332915 
L 136.909091 288.332915 
L 138.6 288.332914 
L 140.290909 288.332906 
L 141.981818 288.332846 
L 143.672727 288.332449 
L 145.363636 288.330205 
L 147.054545 288.319191 
L 148.745455 288.27237 
L 150.436364 288.100264 
L 152.127273 287.554204 
L 153.818182 286.062554 
L 155.509091 282.567093 
L 157.2 275.578073 
L 158.890909 263.755481 
L 160.581818 247.080854 
L 162.272727 228.021102 
L 163.963636 211.524861 
L 165.654545 203.129154 
L 167.345455 206.002859 
L 169.036364 219.037311 
L 170.727273 237.5286 
L 172.418182 255.888261 
L 174.109091 270.284739 
L 175.8 279.587687 
L 177.490909 284.641809 
L 179.181818 286.975885 
L 180.872727 287.898335 
L 182.563636 288.211689 
L 184.254545 288.303459 
L 185.945455 288.326681 
L 187.636364 288.331766 
L 189.327273 288.332731 
L 191.018182 288.33289 
L 192.709091 288.332912 
L 194.4 288.332915 
" style="fill:none;stroke:#1f77b4;stroke-linecap:square;stroke-width:1.5;"/>
   </g>
   <g id="line2d_25">
    <path clip-path="url(#pffd3e06dff)" d="M 157.2372 288.332915 
L 157.2372 203.129154 
" style="fill:none;stroke:#000000;stroke-dasharray:5.55,2.4;stroke-dashoffset:0;stroke-width:1.5;"/>
   </g>
   <g id="line2d_26">
    <path clip-path="url(#pffd3e06dff)" d="M 174.9816 288.332915 
L 174.9816 203.129154 
" style="fill:none;stroke:#000000;stroke-dasharray:5.55,2.4;stroke-dashoffset:0;stroke-width:1.5;"/>
   </g>
   <g id="patch_8">
    <path d="M 27 292.593103 
L 27 198.868966 
" style="fill:none;stroke:#000000;stroke-linecap:square;stroke-linejoin:miter;stroke-width:0.8;"/>
   </g>
   <g id="patch_9">
    <path d="M 194.4 292.593103 
L 194.4 198.868966 
" style="fill:none;stroke:#000000;stroke-linecap:square;stroke-linejoin:miter;stroke-width:0.8;"/>
   </g>
   <g id="patch_10">
    <path d="M 27 292.593103 
L 194.4 292.593103 
" style="fill:none;stroke:#000000;stroke-linecap:square;stroke-linejoin:miter;stroke-width:0.8;"/>
   </g>
   <g id="patch_11">
    <path d="M 27 198.868966 
L 194.4 198.868966 
" style="fill:none;stroke:#000000;stroke-linecap:square;stroke-linejoin:miter;stroke-width:0.8;"/>
   </g>
  </g>
  <g id="axes_3">
   <g id="patch_12">
    <path d="M 27 405.062069 
L 194.4 405.062069 
L 194.4 311.337931 
L 27 311.337931 
z
" style="fill:#ffffff;"/>
   </g>
   <g id="matplotlib.axis_5">
    <g id="xtick_13">
     <g id="line2d_27">
      <g>
       <use style="stroke:#000000;stroke-width:0.8;" x="27" xlink:href="#m12cbf9f36e" y="405.062069"/>
      </g>
     </g>
    </g>
    <g id="xtick_14">
     <g id="line2d_28">
      <g>
       <use style="stroke:#000000;stroke-width:0.8;" x="60.48" xlink:href="#m12cbf9f36e" y="405.062069"/>
      </g>
     </g>
    </g>
    <g id="xtick_15">
     <g id="line2d_29">
      <g>
       <use style="stroke:#000000;stroke-width:0.8;" x="93.96" xlink:href="#m12cbf9f36e" y="405.062069"/>
      </g>
     </g>
    </g>
    <g id="xtick_16">
     <g id="line2d_30">
      <g>
       <use style="stroke:#000000;stroke-width:0.8;" x="127.44" xlink:href="#m12cbf9f36e" y="405.062069"/>
      </g>
     </g>
    </g>
    <g id="xtick_17">
     <g id="line2d_31">
      <g>
       <use style="stroke:#000000;stroke-width:0.8;" x="160.92" xlink:href="#m12cbf9f36e" y="405.062069"/>
      </g>
     </g>
    </g>
    <g id="xtick_18">
     <g id="line2d_32">
      <g>
       <use style="stroke:#000000;stroke-width:0.8;" x="194.4" xlink:href="#m12cbf9f36e" y="405.062069"/>
      </g>
     </g>
    </g>
   </g>
   <g id="matplotlib.axis_6">
    <g id="ytick_9">
     <g id="line2d_33">
      <g>
       <use style="stroke:#000000;stroke-width:0.8;" x="27" xlink:href="#m04af6e208c" y="400.801881"/>
      </g>
     </g>
     <g id="text_11">
      <text style="font-family:DejaVu Sans;font-size:10px;font-style:normal;font-weight:normal;text-anchor:end;" transform="rotate(-0, 20, 404.6011)" x="20" y="404.6011">0</text>
     </g>
    </g>
    <g id="ytick_10">
     <g id="line2d_34">
      <g>
       <use style="stroke:#000000;stroke-width:0.8;" x="27" xlink:href="#m04af6e208c" y="371.749632"/>
      </g>
     </g>
     <g id="text_12">
      <text style="font-family:DejaVu Sans;font-size:10px;font-style:normal;font-weight:normal;text-anchor:end;" transform="rotate(-0, 20, 375.548851)" x="20" y="375.548851">1</text>
     </g>
    </g>
    <g id="ytick_11">
     <g id="line2d_35">
      <g>
       <use style="stroke:#000000;stroke-width:0.8;" x="27" xlink:href="#m04af6e208c" y="342.697384"/>
      </g>
     </g>
     <g id="text_13">
      <text style="font-family:DejaVu Sans;font-size:10px;font-style:normal;font-weight:normal;text-anchor:end;" transform="rotate(-0, 20, 346.496602)" x="20" y="346.496602">2</text>
     </g>
    </g>
    <g id="ytick_12">
     <g id="line2d_36">
      <g>
       <use style="stroke:#000000;stroke-width:0.8;" x="27" xlink:href="#m04af6e208c" y="313.645135"/>
      </g>
     </g>
     <g id="text_14">
      <text style="font-family:DejaVu Sans;font-size:10px;font-style:normal;font-weight:normal;text-anchor:end;" transform="rotate(-0, 20, 317.444354)" x="20" y="317.444354">3</text>
     </g>
    </g>
    <g id="text_15">
     <text style="font-family:DejaVu Sans;font-size:10px;font-style:normal;font-weight:normal;text-anchor:middle;" transform="rotate(-90, 7.557812, 358.2)" x="7.557812" y="358.2">Faecalibaculum</text>
    </g>
   </g>
   <g id="line2d_37">
    <path clip-path="url(#pb71cda6ade)" d="M 27 400.801881 
L 28.690909 400.801881 
L 30.381818 400.801881 
L 32.072727 400.801881 
L 33.763636 400.801881 
L 35.454545 400.801881 
L 37.145455 400.801881 
L 38.836364 400.801881 
L 40.527273 400.801881 
L 42.218182 400.801881 
L 43.909091 400.801881 
L 45.6 400.801881 
L 47.290909 400.801881 
L 48.981818 400.801881 
L 50.672727 400.801881 
L 52.363636 400.801881 
L 54.054545 400.801881 
L 55.745455 400.801881 
L 57.436364 400.801881 
L 59.127273 400.801881 
L 60.818182 400.801881 
L 62.509091 400.801881 
L 64.2 400.801881 
L 65.890909 400.801881 
L 67.581818 400.801881 
L 69.272727 400.801881 
L 70.963636 400.801881 
L 72.654545 400.801881 
L 74.345455 400.801881 
L 76.036364 400.801881 
L 77.727273 400.801881 
L 79.418182 400.801881 
L 81.109091 400.801881 
L 82.8 400.801881 
L 84.490909 400.801881 
L 86.181818 400.801881 
L 87.872727 400.801881 
L 89.563636 400.801881 
L 91.254545 400.80188 
L 92.945455 400.801875 
L 94.636364 400.80183 
L 96.327273 400.801532 
L 98.018182 400.799784 
L 99.709091 400.790921 
L 101.4 400.752081 
L 103.090909 400.605136 
L 104.781818 400.126054 
L 106.472727 398.783412 
L 108.163636 395.560285 
L 109.854545 388.967116 
L 111.545455 377.568612 
L 113.236364 361.145274 
L 114.927273 341.947963 
L 116.618182 324.858525 
L 118.309091 315.598119 
L 120 317.68632 
L 121.690909 330.306528 
L 123.381818 348.815065 
L 125.072727 367.46841 
L 126.763636 382.218598 
L 128.454545 391.794077 
L 130.145455 397.005498 
L 131.836364 399.410726 
L 133.527273 400.358644 
L 135.218182 400.679094 
L 136.909091 400.772306 
L 138.6 400.795687 
L 140.290909 400.800753 
L 141.981818 400.801702 
L 143.672727 400.801856 
L 145.363636 400.801878 
L 147.054545 400.801881 
L 148.745455 400.801881 
L 150.436364 400.801881 
L 152.127273 400.801881 
L 153.818182 400.801881 
L 155.509091 400.801881 
L 157.2 400.801881 
L 158.890909 400.801881 
L 160.581818 400.801881 
L 162.272727 400.801881 
L 163.963636 400.801881 
L 165.654545 400.801881 
L 167.345455 400.801881 
L 169.036364 400.801881 
L 170.727273 400.801881 
L 172.418182 400.801881 
L 174.109091 400.801881 
L 175.8 400.801881 
L 177.490909 400.801881 
L 179.181818 400.801881 
L 180.872727 400.801881 
L 182.563636 400.801881 
L 184.254545 400.801881 
L 185.945455 400.801881 
L 187.636364 400.801881 
L 189.327273 400.801881 
L 191.018182 400.801881 
L 192.709091 400.801881 
L 194.4 400.801881 
" style="fill:none;stroke:#1f77b4;stroke-linecap:square;stroke-width:1.5;"/>
   </g>
   <g id="line2d_38">
    <path clip-path="url(#pb71cda6ade)" d="M 110.0304 400.801881 
L 110.0304 315.598119 
" style="fill:none;stroke:#000000;stroke-dasharray:5.55,2.4;stroke-dashoffset:0;stroke-width:1.5;"/>
   </g>
   <g id="line2d_39">
    <path clip-path="url(#pb71cda6ade)" d="M 127.7748 400.801881 
L 127.7748 315.598119 
" style="fill:none;stroke:#000000;stroke-dasharray:5.55,2.4;stroke-dashoffset:0;stroke-width:1.5;"/>
   </g>
   <g id="patch_13">
    <path d="M 27 405.062069 
L 27 311.337931 
" style="fill:none;stroke:#000000;stroke-linecap:square;stroke-linejoin:miter;stroke-width:0.8;"/>
   </g>
   <g id="patch_14">
    <path d="M 194.4 405.062069 
L 194.4 311.337931 
" style="fill:none;stroke:#000000;stroke-linecap:square;stroke-linejoin:miter;stroke-width:0.8;"/>
   </g>
   <g id="patch_15">
    <path d="M 27 405.062069 
L 194.4 405.062069 
" style="fill:none;stroke:#000000;stroke-linecap:square;stroke-linejoin:miter;stroke-width:0.8;"/>
   </g>
   <g id="patch_16">
    <path d="M 27 311.337931 
L 194.4 311.337931 
" style="fill:none;stroke:#000000;stroke-linecap:square;stroke-linejoin:miter;stroke-width:0.8;"/>
   </g>
  </g>
  <g id="axes_4">
   <g id="patch_17">
    <path d="M 27 517.531034 
L 194.4 517.531034 
L 194.4 423.806897 
L 27 423.806897 
z
" style="fill:#ffffff;"/>
   </g>
   <g id="matplotlib.axis_7">
    <g id="xtick_19">
     <g id="line2d_40">
      <g>
       <use style="stroke:#000000;stroke-width:0.8;" x="27" xlink:href="#m12cbf9f36e" y="517.531034"/>
      </g>
     </g>
    </g>
    <g id="xtick_20">
     <g id="line2d_41">
      <g>
       <use style="stroke:#000000;stroke-width:0.8;" x="60.48" xlink:href="#m12cbf9f36e" y="517.531034"/>
      </g>
     </g>
    </g>
    <g id="xtick_21">
     <g id="line2d_42">
      <g>
       <use style="stroke:#000000;stroke-width:0.8;" x="93.96" xlink:href="#m12cbf9f36e" y="517.531034"/>
      </g>
     </g>
    </g>
    <g id="xtick_22">
     <g id="line2d_43">
      <g>
       <use style="stroke:#000000;stroke-width:0.8;" x="127.44" xlink:href="#m12cbf9f36e" y="517.531034"/>
      </g>
     </g>
    </g>
    <g id="xtick_23">
     <g id="line2d_44">
      <g>
       <use style="stroke:#000000;stroke-width:0.8;" x="160.92" xlink:href="#m12cbf9f36e" y="517.531034"/>
      </g>
     </g>
    </g>
    <g id="xtick_24">
     <g id="line2d_45">
      <g>
       <use style="stroke:#000000;stroke-width:0.8;" x="194.4" xlink:href="#m12cbf9f36e" y="517.531034"/>
      </g>
     </g>
    </g>
   </g>
   <g id="matplotlib.axis_8">
    <g id="ytick_13">
     <g id="line2d_46">
      <g>
       <use style="stroke:#000000;stroke-width:0.8;" x="27" xlink:href="#m04af6e208c" y="513.270846"/>
      </g>
     </g>
     <g id="text_16">
      <text style="font-family:DejaVu Sans;font-size:10px;font-style:normal;font-weight:normal;text-anchor:end;" transform="rotate(-0, 20, 517.070065)" x="20" y="517.070065">0</text>
     </g>
    </g>
    <g id="ytick_14">
     <g id="line2d_47">
      <g>
       <use style="stroke:#000000;stroke-width:0.8;" x="27" xlink:href="#m04af6e208c" y="484.091654"/>
      </g>
     </g>
     <g id="text_17">
      <text style="font-family:DejaVu Sans;font-size:10px;font-style:normal;font-weight:normal;text-anchor:end;" transform="rotate(-0, 20, 487.890873)" x="20" y="487.890873">1</text>
     </g>
    </g>
    <g id="ytick_15">
     <g id="line2d_48">
      <g>
       <use style="stroke:#000000;stroke-width:0.8;" x="27" xlink:href="#m04af6e208c" y="454.912462"/>
      </g>
     </g>
     <g id="text_18">
      <text style="font-family:DejaVu Sans;font-size:10px;font-style:normal;font-weight:normal;text-anchor:end;" transform="rotate(-0, 20, 458.711681)" x="20" y="458.711681">2</text>
     </g>
    </g>
    <g id="ytick_16">
     <g id="line2d_49">
      <g>
       <use style="stroke:#000000;stroke-width:0.8;" x="27" xlink:href="#m04af6e208c" y="425.733269"/>
      </g>
     </g>
     <g id="text_19">
      <text style="font-family:DejaVu Sans;font-size:10px;font-style:normal;font-weight:normal;text-anchor:end;" transform="rotate(-0, 20, 429.532488)" x="20" y="429.532488">3</text>
     </g>
    </g>
    <g id="text_20">
     <text style="font-family:DejaVu Sans;font-size:10px;font-style:normal;font-weight:normal;text-anchor:middle;" transform="rotate(-90, 7.557812, 470.668966)" x="7.557812" y="470.668966">Parasutterella</text>
    </g>
   </g>
   <g id="line2d_50">
    <path clip-path="url(#p210a4c548b)" d="M 27 513.270846 
L 28.690909 513.270846 
L 30.381818 513.270846 
L 32.072727 513.270846 
L 33.763636 513.270846 
L 35.454545 513.270846 
L 37.145455 513.270846 
L 38.836364 513.270846 
L 40.527273 513.270846 
L 42.218182 513.270846 
L 43.909091 513.270846 
L 45.6 513.270846 
L 47.290909 513.270846 
L 48.981818 513.270846 
L 50.672727 513.270846 
L 52.363636 513.270846 
L 54.054545 513.270846 
L 55.745455 513.270846 
L 57.436364 513.270846 
L 59.127273 513.270846 
L 60.818182 513.270846 
L 62.509091 513.270846 
L 64.2 513.270846 
L 65.890909 513.270846 
L 67.581818 513.270846 
L 69.272727 513.270846 
L 70.963636 513.270846 
L 72.654545 513.270846 
L 74.345455 513.270846 
L 76.036364 513.270846 
L 77.727273 513.270846 
L 79.418182 513.270846 
L 81.109091 513.270843 
L 82.8 513.270822 
L 84.490909 513.270669 
L 86.181818 513.269743 
L 87.872727 513.264865 
L 89.563636 513.242589 
L 91.254545 513.154488 
L 92.945455 512.853215 
L 94.636364 511.96433 
L 96.327273 509.70828 
L 98.018182 504.803675 
L 99.709091 495.730395 
L 101.4 481.599229 
L 103.090909 463.425252 
L 104.781818 444.893794 
L 106.472727 431.514582 
L 108.163636 428.067085 
L 109.854545 435.873947 
L 111.545455 451.991317 
L 113.236364 470.981172 
L 114.927273 487.833001 
L 116.618182 499.933993 
L 118.309091 507.17613 
L 120 510.843227 
L 121.690909 512.428026 
L 123.381818 513.015802 
L 125.072727 513.203576 
L 126.763636 513.255381 
L 128.454545 513.267747 
L 130.145455 513.270305 
L 131.836364 513.270764 
L 133.527273 513.270835 
L 135.218182 513.270845 
L 136.909091 513.270846 
L 138.6 513.270846 
L 140.290909 513.270846 
L 141.981818 513.270846 
L 143.672727 513.270846 
L 145.363636 513.270846 
L 147.054545 513.270846 
L 148.745455 513.270846 
L 150.436364 513.270846 
L 152.127273 513.270846 
L 153.818182 513.270846 
L 155.509091 513.270846 
L 157.2 513.270846 
L 158.890909 513.270846 
L 160.581818 513.270846 
L 162.272727 513.270846 
L 163.963636 513.270846 
L 165.654545 513.270846 
L 167.345455 513.270846 
L 169.036364 513.270846 
L 170.727273 513.270846 
L 172.418182 513.270846 
L 174.109091 513.270846 
L 175.8 513.270846 
L 177.490909 513.270846 
L 179.181818 513.270846 
L 180.872727 513.270846 
L 182.563636 513.270846 
L 184.254545 513.270846 
L 185.945455 513.270846 
L 187.636364 513.270846 
L 189.327273 513.270846 
L 191.018182 513.270846 
L 192.709091 513.270846 
L 194.4 513.270846 
" style="fill:none;stroke:#1f77b4;stroke-linecap:square;stroke-width:1.5;"/>
   </g>
   <g id="line2d_51">
    <path clip-path="url(#p210a4c548b)" d="M 98.6472 513.270846 
L 98.6472 428.067085 
" style="fill:none;stroke:#000000;stroke-dasharray:5.55,2.4;stroke-dashoffset:0;stroke-width:1.5;"/>
   </g>
   <g id="line2d_52">
    <path clip-path="url(#p210a4c548b)" d="M 116.7264 513.270846 
L 116.7264 428.067085 
" style="fill:none;stroke:#000000;stroke-dasharray:5.55,2.4;stroke-dashoffset:0;stroke-width:1.5;"/>
   </g>
   <g id="patch_18">
    <path d="M 27 517.531034 
L 27 423.806897 
" style="fill:none;stroke:#000000;stroke-linecap:square;stroke-linejoin:miter;stroke-width:0.8;"/>
   </g>
   <g id="patch_19">
    <path d="M 194.4 517.531034 
L 194.4 423.806897 
" style="fill:none;stroke:#000000;stroke-linecap:square;stroke-linejoin:miter;stroke-width:0.8;"/>
   </g>
   <g id="patch_20">
    <path d="M 27 517.531034 
L 194.4 517.531034 
" style="fill:none;stroke:#000000;stroke-linecap:square;stroke-linejoin:miter;stroke-width:0.8;"/>
   </g>
   <g id="patch_21">
    <path d="M 27 423.806897 
L 194.4 423.806897 
" style="fill:none;stroke:#000000;stroke-linecap:square;stroke-linejoin:miter;stroke-width:0.8;"/>
   </g>
  </g>
  <g id="axes_5">
   <g id="patch_22">
    <path d="M 27 630 
L 194.4 630 
L 194.4 536.275862 
L 27 536.275862 
z
" style="fill:#ffffff;"/>
   </g>
   <g id="matplotlib.axis_9">
    <g id="xtick_25">
     <g id="line2d_53">
      <g>
       <use style="stroke:#000000;stroke-width:0.8;" x="27" xlink:href="#m12cbf9f36e" y="630"/>
      </g>
     </g>
     <g id="text_21">
      <text style="font-family:DejaVu Sans;font-size:10px;font-style:normal;font-weight:normal;text-anchor:middle;" transform="rotate(-0, 27, 644.598438)" x="27" y="644.598438">−2</text>
     </g>
    </g>
    <g id="xtick_26">
     <g id="line2d_54">
      <g>
       <use style="stroke:#000000;stroke-width:0.8;" x="60.48" xlink:href="#m12cbf9f36e" y="630"/>
      </g>
     </g>
     <g id="text_22">
      <text style="font-family:DejaVu Sans;font-size:10px;font-style:normal;font-weight:normal;text-anchor:middle;" transform="rotate(-0, 60.48, 644.598438)" x="60.48" y="644.598438">−1</text>
     </g>
    </g>
    <g id="xtick_27">
     <g id="line2d_55">
      <g>
       <use style="stroke:#000000;stroke-width:0.8;" x="93.96" xlink:href="#m12cbf9f36e" y="630"/>
      </g>
     </g>
     <g id="text_23">
      <text style="font-family:DejaVu Sans;font-size:10px;font-style:normal;font-weight:normal;text-anchor:middle;" transform="rotate(-0, 93.96, 644.598438)" x="93.96" y="644.598438">0</text>
     </g>
    </g>
    <g id="xtick_28">
     <g id="line2d_56">
      <g>
       <use style="stroke:#000000;stroke-width:0.8;" x="127.44" xlink:href="#m12cbf9f36e" y="630"/>
      </g>
     </g>
     <g id="text_24">
      <text style="font-family:DejaVu Sans;font-size:10px;font-style:normal;font-weight:normal;text-anchor:middle;" transform="rotate(-0, 127.44, 644.598438)" x="127.44" y="644.598438">1</text>
     </g>
    </g>
    <g id="xtick_29">
     <g id="line2d_57">
      <g>
       <use style="stroke:#000000;stroke-width:0.8;" x="160.92" xlink:href="#m12cbf9f36e" y="630"/>
      </g>
     </g>
     <g id="text_25">
      <text style="font-family:DejaVu Sans;font-size:10px;font-style:normal;font-weight:normal;text-anchor:middle;" transform="rotate(-0, 160.92, 644.598438)" x="160.92" y="644.598438">2</text>
     </g>
    </g>
    <g id="xtick_30">
     <g id="line2d_58">
      <g>
       <use style="stroke:#000000;stroke-width:0.8;" x="194.4" xlink:href="#m12cbf9f36e" y="630"/>
      </g>
     </g>
     <g id="text_26">
      <text style="font-family:DejaVu Sans;font-size:10px;font-style:normal;font-weight:normal;text-anchor:middle;" transform="rotate(-0, 194.4, 644.598438)" x="194.4" y="644.598438">3</text>
     </g>
    </g>
   </g>
   <g id="matplotlib.axis_10">
    <g id="ytick_17">
     <g id="line2d_59">
      <g>
       <use style="stroke:#000000;stroke-width:0.8;" x="27" xlink:href="#m04af6e208c" y="625.739812"/>
      </g>
     </g>
     <g id="text_27">
      <text style="font-family:DejaVu Sans;font-size:10px;font-style:normal;font-weight:normal;text-anchor:end;" transform="rotate(-0, 20, 629.539031)" x="20" y="629.539031">0</text>
     </g>
    </g>
    <g id="ytick_18">
     <g id="line2d_60">
      <g>
       <use style="stroke:#000000;stroke-width:0.8;" x="27" xlink:href="#m04af6e208c" y="596.367578"/>
      </g>
     </g>
     <g id="text_28">
      <text style="font-family:DejaVu Sans;font-size:10px;font-style:normal;font-weight:normal;text-anchor:end;" transform="rotate(-0, 20, 600.166797)" x="20" y="600.166797">1</text>
     </g>
    </g>
    <g id="ytick_19">
     <g id="line2d_61">
      <g>
       <use style="stroke:#000000;stroke-width:0.8;" x="27" xlink:href="#m04af6e208c" y="566.995345"/>
      </g>
     </g>
     <g id="text_29">
      <text style="font-family:DejaVu Sans;font-size:10px;font-style:normal;font-weight:normal;text-anchor:end;" transform="rotate(-0, 20, 570.794564)" x="20" y="570.794564">2</text>
     </g>
    </g>
    <g id="ytick_20">
     <g id="line2d_62">
      <g>
       <use style="stroke:#000000;stroke-width:0.8;" x="27" xlink:href="#m04af6e208c" y="537.623111"/>
      </g>
     </g>
     <g id="text_30">
      <text style="font-family:DejaVu Sans;font-size:10px;font-style:normal;font-weight:normal;text-anchor:end;" transform="rotate(-0, 20, 541.42233)" x="20" y="541.42233">3</text>
     </g>
    </g>
    <g id="text_31">
     <text style="font-family:DejaVu Sans;font-size:10px;font-style:normal;font-weight:normal;text-anchor:middle;" transform="rotate(-90, 7.557812, 583.137931)" x="7.557812" y="583.137931">Bacteroides</text>
    </g>
   </g>
   <g id="line2d_63">
    <path clip-path="url(#pbe2bdbd97a)" d="M 27 625.739812 
L 28.690909 625.739812 
L 30.381818 625.739812 
L 32.072727 625.739812 
L 33.763636 625.739812 
L 35.454545 625.739812 
L 37.145455 625.739812 
L 38.836364 625.739812 
L 40.527273 625.739812 
L 42.218182 625.739812 
L 43.909091 625.739812 
L 45.6 625.739812 
L 47.290909 625.739812 
L 48.981818 625.739812 
L 50.672727 625.739812 
L 52.363636 625.739812 
L 54.054545 625.739812 
L 55.745455 625.739812 
L 57.436364 625.739812 
L 59.127273 625.739812 
L 60.818182 625.739812 
L 62.509091 625.739812 
L 64.2 625.739812 
L 65.890909 625.739812 
L 67.581818 625.739812 
L 69.272727 625.739812 
L 70.963636 625.739812 
L 72.654545 625.739812 
L 74.345455 625.739812 
L 76.036364 625.739811 
L 77.727273 625.739808 
L 79.418182 625.73978 
L 81.109091 625.739587 
L 82.8 625.738449 
L 84.490909 625.7326 
L 86.181818 625.706508 
L 87.872727 625.605589 
L 89.563636 625.267686 
L 91.254545 624.290425 
L 92.945455 621.856459 
L 94.636364 616.658981 
L 96.327273 607.207033 
L 98.018182 592.72934 
L 99.709091 574.423062 
L 101.4 556.115199 
L 103.090909 543.295126 
L 104.781818 540.53605 
L 106.472727 548.888533 
L 108.163636 565.242001 
L 109.854545 584.175131 
L 111.545455 600.816516 
L 113.236364 612.696655 
L 114.927273 619.78242 
L 116.618182 623.365018 
L 118.309091 624.913599 
L 120 625.488939 
L 121.690909 625.673329 
L 123.381818 625.724435 
L 125.072727 625.736708 
L 126.763636 625.739265 
L 128.454545 625.739728 
L 130.145455 625.739801 
L 131.836364 625.739811 
L 133.527273 625.739812 
L 135.218182 625.739812 
L 136.909091 625.739812 
L 138.6 625.739812 
L 140.290909 625.739812 
L 141.981818 625.739812 
L 143.672727 625.739812 
L 145.363636 625.739812 
L 147.054545 625.739812 
L 148.745455 625.739812 
L 150.436364 625.739812 
L 152.127273 625.739812 
L 153.818182 625.739812 
L 155.509091 625.739812 
L 157.2 625.739812 
L 158.890909 625.739812 
L 160.581818 625.739812 
L 162.272727 625.739812 
L 163.963636 625.739812 
L 165.654545 625.739812 
L 167.345455 625.739812 
L 169.036364 625.739812 
L 170.727273 625.739812 
L 172.418182 625.739812 
L 174.109091 625.739812 
L 175.8 625.739812 
L 177.490909 625.739812 
L 179.181818 625.739812 
L 180.872727 625.739812 
L 182.563636 625.739812 
L 184.254545 625.739812 
L 185.945455 625.739812 
L 187.636364 625.739812 
L 189.327273 625.739812 
L 191.018182 625.739812 
L 192.709091 625.739812 
L 194.4 625.739812 
" style="fill:none;stroke:#1f77b4;stroke-linecap:square;stroke-width:1.5;"/>
   </g>
   <g id="line2d_64">
    <path clip-path="url(#pbe2bdbd97a)" d="M 95.2992 625.739812 
L 95.2992 540.53605 
" style="fill:none;stroke:#000000;stroke-dasharray:5.55,2.4;stroke-dashoffset:0;stroke-width:1.5;"/>
   </g>
   <g id="line2d_65">
    <path clip-path="url(#pbe2bdbd97a)" d="M 113.3784 625.739812 
L 113.3784 540.53605 
" style="fill:none;stroke:#000000;stroke-dasharray:5.55,2.4;stroke-dashoffset:0;stroke-width:1.5;"/>
   </g>
   <g id="patch_23">
    <path d="M 27 630 
L 27 536.275862 
" style="fill:none;stroke:#000000;stroke-linecap:square;stroke-linejoin:miter;stroke-width:0.8;"/>
   </g>
   <g id="patch_24">
    <path d="M 194.4 630 
L 194.4 536.275862 
" style="fill:none;stroke:#000000;stroke-linecap:square;stroke-linejoin:miter;stroke-width:0.8;"/>
   </g>
   <g id="patch_25">
    <path d="M 27 630 
L 194.4 630 
" style="fill:none;stroke:#000000;stroke-linecap:square;stroke-linejoin:miter;stroke-width:0.8;"/>
   </g>
   <g id="patch_26">
    <path d="M 27 536.275862 
L 194.4 536.275862 
" style="fill:none;stroke:#000000;stroke-linecap:square;stroke-linejoin:miter;stroke-width:0.8;"/>
   </g>
  </g>
 </g>
 <defs>
  <clipPath id="p2f7a5ea0b2">
   <rect height="93.724138" width="167.4" x="27" y="86.4"/>
  </clipPath>
  <clipPath id="pffd3e06dff">
   <rect height="93.724138" width="167.4" x="27" y="198.868966"/>
  </clipPath>
  <clipPath id="pb71cda6ade">
   <rect height="93.724138" width="167.4" x="27" y="311.337931"/>
  </clipPath>
  <clipPath id="p210a4c548b">
   <rect height="93.724138" width="167.4" x="27" y="423.806897"/>
  </clipPath>
  <clipPath id="pbe2bdbd97a">
   <rect height="93.724138" width="167.4" x="27" y="536.275862"/>
  </clipPath>
 </defs>
</svg>
