<?xml version="1.0" encoding="utf-8" standalone="no"?>
<!DOCTYPE svg PUBLIC "-//W3C//DTD SVG 1.1//EN"
  "http://www.w3.org/Graphics/SVG/1.1/DTD/svg11.dtd">
<!-- Created with matplotlib (https://matplotlib.org/) -->
<svg height="288pt" version="1.1" viewBox="0 0 432 288" width="432pt" xmlns="http://www.w3.org/2000/svg" xmlns:xlink="http://www.w3.org/1999/xlink">
 <defs>
  <style type="text/css">
*{stroke-linecap:butt;stroke-linejoin:round;}
  </style>
 </defs>
 <g id="figure_1">
  <g id="patch_1">
   <path d="M 0 288 
L 432 288 
L 432 0 
L 0 0 
z
" style="fill:#ffffff;"/>
  </g>
  <g id="axes_1">
   <g id="patch_2">
    <path d="M 47.8 216.64 
L 421.2 216.64 
L 421.2 10.8 
L 47.8 10.8 
z
" style="fill:#ffffff;"/>
   </g>
   <g id="matplotlib.axis_1">
    <g id="xtick_1">
     <g id="line2d_1">
      <defs>
       <path d="M 0 0 
L 0 3.5 
" id="m47b5624d58" style="stroke:#000000;stroke-width:0.8;"/>
      </defs>
      <g>
       <use style="stroke:#000000;stroke-width:0.8;" x="64.772727" xlink:href="#m47b5624d58" y="216.64"/>
      </g>
     </g>
     <g id="text_1">
      <text style="font-family:DejaVu Sans;font-size:10px;font-style:normal;font-weight:normal;text-anchor:middle;" transform="rotate(-0, 64.772727, 231.238438)" x="64.772727" y="231.238438">0</text>
     </g>
    </g>
    <g id="xtick_2">
     <g id="line2d_2">
      <g>
       <use style="stroke:#000000;stroke-width:0.8;" x="132.663636" xlink:href="#m47b5624d58" y="216.64"/>
      </g>
     </g>
     <g id="text_2">
      <text style="font-family:DejaVu Sans;font-size:10px;font-style:normal;font-weight:normal;text-anchor:middle;" transform="rotate(-0, 132.663636, 231.238438)" x="132.663636" y="231.238438">1</text>
     </g>
    </g>
    <g id="xtick_3">
     <g id="line2d_3">
      <g>
       <use style="stroke:#000000;stroke-width:0.8;" x="200.554545" xlink:href="#m47b5624d58" y="216.64"/>
      </g>
     </g>
     <g id="text_3">
      <text style="font-family:DejaVu Sans;font-size:10px;font-style:normal;font-weight:normal;text-anchor:middle;" transform="rotate(-0, 200.554545, 231.238438)" x="200.554545" y="231.238438">2</text>
     </g>
    </g>
    <g id="xtick_4">
     <g id="line2d_4">
      <g>
       <use style="stroke:#000000;stroke-width:0.8;" x="268.445455" xlink:href="#m47b5624d58" y="216.64"/>
      </g>
     </g>
     <g id="text_4">
      <text style="font-family:DejaVu Sans;font-size:10px;font-style:normal;font-weight:normal;text-anchor:middle;" transform="rotate(-0, 268.445455, 231.238438)" x="268.445455" y="231.238438">3</text>
     </g>
    </g>
    <g id="xtick_5">
     <g id="line2d_5">
      <g>
       <use style="stroke:#000000;stroke-width:0.8;" x="336.336364" xlink:href="#m47b5624d58" y="216.64"/>
      </g>
     </g>
     <g id="text_5">
      <text style="font-family:DejaVu Sans;font-size:10px;font-style:normal;font-weight:normal;text-anchor:middle;" transform="rotate(-0, 336.336364, 231.238438)" x="336.336364" y="231.238438">4</text>
     </g>
    </g>
    <g id="xtick_6">
     <g id="line2d_6">
      <g>
       <use style="stroke:#000000;stroke-width:0.8;" x="404.227273" xlink:href="#m47b5624d58" y="216.64"/>
      </g>
     </g>
     <g id="text_6">
      <text style="font-family:DejaVu Sans;font-size:10px;font-style:normal;font-weight:normal;text-anchor:middle;" transform="rotate(-0, 404.227273, 231.238438)" x="404.227273" y="231.238438">5</text>
     </g>
    </g>
    <g id="text_7">
     <text style="font-family:DejaVu Sans;font-size:10px;font-style:normal;font-weight:normal;text-anchor:middle;" transform="rotate(-0, 234.5, 244.916562)" x="234.5" y="244.916562">Time</text>
    </g>
   </g>
   <g id="matplotlib.axis_2">
    <g id="ytick_1">
     <g id="line2d_7">
      <defs>
       <path d="M 0 0 
L -3.5 0 
" id="md375887a4e" style="stroke:#000000;stroke-width:0.8;"/>
      </defs>
      <g>
       <use style="stroke:#000000;stroke-width:0.8;" x="47.8" xlink:href="#md375887a4e" y="210.922222"/>
      </g>
     </g>
     <g id="text_8">
      <text style="font-family:DejaVu Sans;font-size:10px;font-style:normal;font-weight:normal;text-anchor:end;" transform="rotate(-0, 40.8, 214.721441)" x="40.8" y="214.721441">0.0</text>
     </g>
    </g>
    <g id="ytick_2">
     <g id="line2d_8">
      <g>
       <use style="stroke:#000000;stroke-width:0.8;" x="47.8" xlink:href="#md375887a4e" y="172.803704"/>
      </g>
     </g>
     <g id="text_9">
      <text style="font-family:DejaVu Sans;font-size:10px;font-style:normal;font-weight:normal;text-anchor:end;" transform="rotate(-0, 40.8, 176.602922)" x="40.8" y="176.602922">0.2</text>
     </g>
    </g>
    <g id="ytick_3">
     <g id="line2d_9">
      <g>
       <use style="stroke:#000000;stroke-width:0.8;" x="47.8" xlink:href="#md375887a4e" y="134.685185"/>
      </g>
     </g>
     <g id="text_10">
      <text style="font-family:DejaVu Sans;font-size:10px;font-style:normal;font-weight:normal;text-anchor:end;" transform="rotate(-0, 40.8, 138.484404)" x="40.8" y="138.484404">0.4</text>
     </g>
    </g>
    <g id="ytick_4">
     <g id="line2d_10">
      <g>
       <use style="stroke:#000000;stroke-width:0.8;" x="47.8" xlink:href="#md375887a4e" y="96.566667"/>
      </g>
     </g>
     <g id="text_11">
      <text style="font-family:DejaVu Sans;font-size:10px;font-style:normal;font-weight:normal;text-anchor:end;" transform="rotate(-0, 40.8, 100.365885)" x="40.8" y="100.365885">0.6</text>
     </g>
    </g>
    <g id="ytick_5">
     <g id="line2d_11">
      <g>
       <use style="stroke:#000000;stroke-width:0.8;" x="47.8" xlink:href="#md375887a4e" y="58.448148"/>
      </g>
     </g>
     <g id="text_12">
      <text style="font-family:DejaVu Sans;font-size:10px;font-style:normal;font-weight:normal;text-anchor:end;" transform="rotate(-0, 40.8, 62.247367)" x="40.8" y="62.247367">0.8</text>
     </g>
    </g>
    <g id="ytick_6">
     <g id="line2d_12">
      <g>
       <use style="stroke:#000000;stroke-width:0.8;" x="47.8" xlink:href="#md375887a4e" y="20.32963"/>
      </g>
     </g>
     <g id="text_13">
      <text style="font-family:DejaVu Sans;font-size:10px;font-style:normal;font-weight:normal;text-anchor:end;" transform="rotate(-0, 40.8, 24.128848)" x="40.8" y="24.128848">1.0</text>
     </g>
    </g>
    <g id="text_14">
     <text style="font-family:DejaVu Sans;font-size:10px;font-style:normal;font-weight:normal;text-anchor:middle;" transform="rotate(-90, 18.817188, 113.72)" x="18.817188" y="113.72">FC</text>
    </g>
   </g>
   <g id="line2d_13">
    <path clip-path="url(#pba64531b3c)" d="M 64.772727 20.32963 
L 68.201561 20.349697 
L 71.630395 20.371531 
L 75.059229 20.395165 
L 78.488062 20.420115 
L 81.916896 20.448307 
L 85.34573 20.477833 
L 88.774564 20.510555 
L 92.203398 20.54605 
L 95.632231 20.585632 
L 99.061065 20.630458 
L 102.489899 20.679021 
L 105.918733 20.731244 
L 109.347567 20.787011 
L 112.7764 20.84617 
L 116.205234 20.908539 
L 119.634068 20.973021 
L 123.062902 21.049467 
L 126.491736 21.130861 
L 129.920569 21.216997 
L 133.349403 21.30764 
L 136.778237 21.402534 
L 140.207071 21.501408 
L 143.635904 21.587435 
L 147.064738 21.697243 
L 150.493572 21.812414 
L 153.922406 21.932779 
L 157.35124 22.058149 
L 160.780073 22.188325 
L 164.208907 22.323094 
L 167.637741 22.425275 
L 171.066575 22.554188 
L 174.495409 22.684886 
L 177.924242 22.817166 
L 181.353076 22.950852 
L 184.78191 23.085796 
L 188.210744 23.220738 
L 191.639578 23.346525 
L 195.068411 23.470724 
L 198.497245 23.591305 
L 201.926079 23.707696 
L 205.354913 23.819339 
L 208.783747 23.925695 
L 212.21258 24.027154 
L 215.641414 24.121999 
L 219.070248 24.204334 
L 222.499082 24.275929 
L 225.927916 24.335471 
L 229.356749 24.386486 
L 232.785583 24.43682 
L 236.214417 24.467791 
L 239.643251 24.485599 
L 243.072084 24.489206 
L 246.500918 24.482494 
L 249.929752 24.475111 
L 253.358586 24.450786 
L 256.78742 24.415332 
L 260.216253 24.368721 
L 263.645087 24.312376 
L 267.073921 24.250759 
L 270.502755 24.181289 
L 273.931589 24.1063 
L 277.360422 24.023992 
L 280.789256 23.937585 
L 284.21809 23.848536 
L 287.646924 23.756572 
L 291.075758 23.66004 
L 294.504591 23.56296 
L 297.933425 23.465221 
L 301.362259 23.365794 
L 304.791093 23.266255 
L 308.219927 23.167418 
L 311.64876 23.069311 
L 315.077594 22.971853 
L 318.506428 22.876431 
L 321.935262 22.783206 
L 325.364096 22.690807 
L 328.792929 22.601233 
L 332.221763 22.515108 
L 335.650597 22.432397 
L 339.079431 22.352692 
L 342.508264 22.274001 
L 345.937098 22.199525 
L 349.365932 22.129209 
L 352.794766 22.062732 
L 356.2236 21.998719 
L 359.652433 21.936616 
L 363.081267 21.878706 
L 366.510101 21.824331 
L 369.938935 21.773181 
L 373.367769 21.72447 
L 376.796602 21.678282 
L 380.225436 21.635267 
L 383.65427 21.594875 
L 387.083104 21.557087 
L 390.511938 21.522024 
L 393.940771 21.489426 
L 397.369605 21.459088 
L 400.798439 21.430887 
L 404.227273 21.404834 
" style="fill:none;stroke:#ff0000;stroke-linecap:square;stroke-width:1.5;"/>
   </g>
   <g id="line2d_14">
    <path clip-path="url(#pba64531b3c)" d="M 64.772727 20.32963 
L 68.201561 20.359758 
L 71.630395 20.393692 
L 75.059229 20.431102 
L 78.488062 20.47357 
L 81.916896 20.519959 
L 85.34573 20.573068 
L 88.774564 20.632171 
L 92.203398 20.700129 
L 95.632231 20.775754 
L 99.061065 20.859014 
L 102.489899 20.949723 
L 105.918733 21.055218 
L 109.347567 21.171657 
L 112.7764 21.298627 
L 116.205234 21.435666 
L 119.634068 21.591306 
L 123.062902 21.763965 
L 126.491736 21.951188 
L 129.920569 22.15227 
L 133.349403 22.373323 
L 136.778237 22.619483 
L 140.207071 22.884784 
L 143.635904 23.168265 
L 147.064738 23.473655 
L 150.493572 23.848796 
L 153.922406 24.250729 
L 157.35124 24.677388 
L 160.780073 25.126583 
L 164.208907 25.596056 
L 167.637741 26.083539 
L 171.066575 26.571523 
L 174.495409 27.006735 
L 177.924242 27.524518 
L 181.353076 28.066383 
L 184.78191 28.632335 
L 188.210744 29.222041 
L 191.639578 29.758279 
L 195.068411 30.330217 
L 198.497245 30.916659 
L 201.926079 31.518113 
L 205.354913 32.134962 
L 208.783747 32.763202 
L 212.21258 33.34146 
L 215.641414 33.914304 
L 219.070248 34.481872 
L 222.499082 35.044482 
L 225.927916 35.617264 
L 229.356749 36.152559 
L 232.785583 36.638222 
L 236.214417 37.098095 
L 239.643251 37.531701 
L 243.072084 37.934464 
L 246.500918 38.299988 
L 249.929752 38.618285 
L 253.358586 38.893758 
L 256.78742 39.124382 
L 260.216253 39.287334 
L 263.645087 39.405236 
L 267.073921 39.472012 
L 270.502755 39.486372 
L 273.931589 39.474612 
L 277.360422 39.395965 
L 280.789256 39.268158 
L 284.21809 39.090719 
L 287.646924 38.894906 
L 291.075758 38.672804 
L 294.504591 38.39334 
L 297.933425 38.075168 
L 301.362259 37.741023 
L 304.791093 37.385376 
L 308.219927 37.004971 
L 311.64876 36.599331 
L 315.077594 36.17752 
L 318.506428 35.740222 
L 321.935262 35.291286 
L 325.364096 34.832145 
L 328.792929 34.364498 
L 332.221763 33.890974 
L 335.650597 33.41466 
L 339.079431 32.938039 
L 342.508264 32.462849 
L 345.937098 31.991419 
L 349.365932 31.521251 
L 352.794766 31.056073 
L 356.2236 30.602181 
L 359.652433 30.162437 
L 363.081267 29.734293 
L 366.510101 29.313291 
L 369.938935 28.906969 
L 373.367769 28.511387 
L 376.796602 28.127972 
L 380.225436 27.760178 
L 383.65427 27.406257 
L 387.083104 27.065622 
L 390.511938 26.739506 
L 393.940771 26.427807 
L 397.369605 26.130629 
L 400.798439 25.847966 
L 404.227273 25.579527 
" style="fill:none;stroke:#ff0000;stroke-linecap:square;stroke-width:1.5;"/>
   </g>
   <g id="line2d_15">
    <path clip-path="url(#pba64531b3c)" d="M 64.772727 20.32963 
L 68.201561 20.387234 
L 71.630395 20.455699 
L 75.059229 20.534337 
L 78.488062 20.629106 
L 81.916896 20.737327 
L 85.34573 20.863999 
L 88.774564 21.012839 
L 92.203398 21.186301 
L 95.632231 21.383174 
L 99.061065 21.603544 
L 102.489899 21.852385 
L 105.918733 22.141943 
L 109.347567 22.463541 
L 112.7764 22.816297 
L 116.205234 23.198764 
L 119.634068 23.631634 
L 123.062902 24.109673 
L 126.491736 24.626582 
L 129.920569 25.180157 
L 133.349403 25.760527 
L 136.778237 26.406371 
L 140.207071 27.094488 
L 143.635904 27.822464 
L 147.064738 28.554014 
L 150.493572 29.31464 
L 153.922406 30.122896 
L 157.35124 30.962826 
L 160.780073 31.832735 
L 164.208907 32.662668 
L 167.637741 33.508347 
L 171.066575 34.360569 
L 174.495409 35.218791 
L 177.924242 36.082774 
L 181.353076 36.876112 
L 184.78191 37.638866 
L 188.210744 38.373324 
L 191.639578 39.079198 
L 195.068411 39.756639 
L 198.497245 40.348957 
L 201.926079 40.883556 
L 205.354913 41.360982 
L 208.783747 41.779706 
L 212.21258 42.128932 
L 215.641414 42.39269 
L 219.070248 42.582598 
L 222.499082 42.696171 
L 225.927916 42.765167 
L 229.356749 42.802156 
L 232.785583 42.740594 
L 236.214417 42.605793 
L 239.643251 42.459408 
L 243.072084 42.27336 
L 246.500918 42.014645 
L 249.929752 41.707214 
L 253.358586 41.390674 
L 256.78742 41.039416 
L 260.216253 40.648606 
L 263.645087 40.230631 
L 267.073921 39.79259 
L 270.502755 39.339175 
L 273.931589 38.86824 
L 277.360422 38.380169 
L 280.789256 37.878132 
L 284.21809 37.363337 
L 287.646924 36.843085 
L 291.075758 36.314133 
L 294.504591 35.772017 
L 297.933425 35.235464 
L 301.362259 34.696103 
L 304.791093 34.153267 
L 308.219927 33.61409 
L 311.64876 33.08652 
L 315.077594 32.564305 
L 318.506428 32.049127 
L 321.935262 31.54767 
L 325.364096 31.062465 
L 328.792929 30.590738 
L 332.221763 30.133881 
L 335.650597 29.693074 
L 339.079431 29.26817 
L 342.508264 28.859982 
L 345.937098 28.468536 
L 349.365932 28.094274 
L 352.794766 27.737406 
L 356.2236 27.398039 
L 359.652433 27.075529 
L 363.081267 26.769973 
L 366.510101 26.481341 
L 369.938935 26.209141 
L 373.367769 25.952998 
L 376.796602 25.712445 
L 380.225436 25.487053 
L 383.65427 25.27639 
L 387.083104 25.079652 
L 390.511938 24.896082 
L 393.940771 24.725258 
L 397.369605 24.566717 
L 400.798439 24.419784 
L 404.227273 24.28395 
" style="fill:none;stroke:#ff0000;stroke-linecap:square;stroke-width:1.5;"/>
   </g>
   <g id="line2d_16">
    <path clip-path="url(#pba64531b3c)" d="M 64.772727 20.32963 
L 68.201561 20.465746 
L 71.630395 20.609919 
L 75.059229 20.761711 
L 78.488062 20.920947 
L 81.916896 21.090761 
L 85.34573 21.26722 
L 88.774564 21.457632 
L 92.203398 21.658477 
L 95.632231 21.870579 
L 99.061065 22.097255 
L 102.489899 22.336363 
L 105.918733 22.587653 
L 109.347567 22.850736 
L 112.7764 23.121565 
L 116.205234 23.411534 
L 119.634068 23.714227 
L 123.062902 24.029218 
L 126.491736 24.356011 
L 129.920569 24.680325 
L 133.349403 25.022768 
L 136.778237 25.374861 
L 140.207071 25.736255 
L 143.635904 26.106617 
L 147.064738 26.468029 
L 150.493572 26.835282 
L 153.922406 27.202912 
L 157.35124 27.569701 
L 160.780073 27.934521 
L 164.208907 28.296094 
L 167.637741 28.643157 
L 171.066575 28.980176 
L 174.495409 29.305473 
L 177.924242 29.617413 
L 181.353076 29.914394 
L 184.78191 30.200323 
L 188.210744 30.46213 
L 191.639578 30.701926 
L 195.068411 30.917185 
L 198.497245 31.11521 
L 201.926079 31.286098 
L 205.354913 31.430734 
L 208.783747 31.547622 
L 212.21258 31.644272 
L 215.641414 31.715568 
L 219.070248 31.762756 
L 222.499082 31.786536 
L 225.927916 31.789227 
L 229.356749 31.773478 
L 232.785583 31.740252 
L 236.214417 31.691986 
L 239.643251 31.628795 
L 243.072084 31.550965 
L 246.500918 31.459472 
L 249.929752 31.362051 
L 253.358586 31.260953 
L 256.78742 31.151212 
L 260.216253 31.038148 
L 263.645087 30.924954 
L 267.073921 30.810331 
L 270.502755 30.695756 
L 273.931589 30.583673 
L 277.360422 30.475028 
L 280.789256 30.369671 
L 284.21809 30.269237 
L 287.646924 30.174833 
L 291.075758 30.087166 
L 294.504591 30.006188 
L 297.933425 29.932714 
L 301.362259 29.867269 
L 304.791093 29.810779 
L 308.219927 29.762536 
L 311.64876 29.72308 
L 315.077594 29.692767 
L 318.506428 29.671695 
L 321.935262 29.659488 
L 325.364096 29.656229 
L 328.792929 29.661959 
L 332.221763 29.676506 
L 335.650597 29.699708 
L 339.079431 29.731377 
L 342.508264 29.771218 
L 345.937098 29.819271 
L 349.365932 29.875233 
L 352.794766 29.938801 
L 356.2236 30.009702 
L 359.652433 30.087954 
L 363.081267 30.173121 
L 366.510101 30.264977 
L 369.938935 30.36334 
L 373.367769 30.468099 
L 376.796602 30.578972 
L 380.225436 30.695549 
L 383.65427 30.817713 
L 387.083104 30.945328 
L 390.511938 31.078176 
L 393.940771 31.216081 
L 397.369605 31.359023 
L 400.798439 31.506626 
L 404.227273 31.658682 
" style="fill:none;stroke:#ff0000;stroke-linecap:square;stroke-width:1.5;"/>
   </g>
   <g id="line2d_17">
    <path clip-path="url(#pba64531b3c)" d="M 64.772727 20.32963 
L 68.201561 20.614673 
L 71.630395 20.9352 
L 75.059229 21.286942 
L 78.488062 21.688848 
L 81.916896 22.124905 
L 85.34573 22.617383 
L 88.774564 23.160153 
L 92.203398 23.777525 
L 95.632231 24.452359 
L 99.061065 25.181792 
L 102.489899 25.961814 
L 105.918733 26.781832 
L 109.347567 27.681155 
L 112.7764 28.669908 
L 116.205234 29.714834 
L 119.634068 30.80812 
L 123.062902 31.860163 
L 126.491736 32.912231 
L 129.920569 34.130018 
L 133.349403 35.399212 
L 136.778237 36.666369 
L 140.207071 37.828195 
L 143.635904 38.92521 
L 147.064738 40.004141 
L 150.493572 41.13411 
L 153.922406 42.195308 
L 157.35124 43.168853 
L 160.780073 44.056256 
L 164.208907 44.844808 
L 167.637741 45.511605 
L 171.066575 46.031976 
L 174.495409 46.394291 
L 177.924242 46.579203 
L 181.353076 46.592748 
L 184.78191 46.453235 
L 188.210744 46.083107 
L 191.639578 45.518872 
L 195.068411 44.841132 
L 198.497245 44.039919 
L 201.926079 43.141135 
L 205.354913 42.1727 
L 208.783747 41.094274 
L 212.21258 40.005307 
L 215.641414 38.948968 
L 219.070248 37.973042 
L 222.499082 37.126989 
L 225.927916 36.355472 
L 229.356749 35.687424 
L 232.785583 35.147779 
L 236.214417 34.744901 
L 239.643251 34.474815 
L 243.072084 34.326882 
L 246.500918 34.316073 
L 249.929752 34.414474 
L 253.358586 34.600815 
L 256.78742 34.841627 
L 260.216253 35.115075 
L 263.645087 35.39915 
L 267.073921 35.722193 
L 270.502755 36.057258 
L 273.931589 36.392174 
L 277.360422 36.727269 
L 280.789256 37.06426 
L 284.21809 37.403832 
L 287.646924 37.731733 
L 291.075758 38.044834 
L 294.504591 38.349498 
L 297.933425 38.642292 
L 301.362259 38.912661 
L 304.791093 39.164545 
L 308.219927 39.397151 
L 311.64876 39.608663 
L 315.077594 39.799749 
L 318.506428 39.970932 
L 321.935262 40.124409 
L 325.364096 40.26142 
L 328.792929 40.384139 
L 332.221763 40.495298 
L 335.650597 40.598301 
L 339.079431 40.697054 
L 342.508264 40.787451 
L 345.937098 40.875452 
L 349.365932 40.963879 
L 352.794766 41.055183 
L 356.2236 41.145623 
L 359.652433 41.239229 
L 363.081267 41.337096 
L 366.510101 41.44005 
L 369.938935 41.547831 
L 373.367769 41.661215 
L 376.796602 41.780342 
L 380.225436 41.905575 
L 383.65427 42.038163 
L 387.083104 42.177579 
L 390.511938 42.323759 
L 393.940771 42.476972 
L 397.369605 42.637954 
L 400.798439 42.806432 
L 404.227273 42.982462 
" style="fill:none;stroke:#ff0000;stroke-linecap:square;stroke-width:1.5;"/>
   </g>
   <g id="line2d_18">
    <path clip-path="url(#pba64531b3c)" d="M 64.772727 20.32963 
L 68.201561 20.338502 
L 71.630395 20.348112 
L 75.059229 20.358239 
L 78.488062 20.368822 
L 81.916896 20.380482 
L 85.34573 20.39263 
L 88.774564 20.405874 
L 92.203398 20.420139 
L 95.632231 20.43565 
L 99.061065 20.452824 
L 102.489899 20.471377 
L 105.918733 20.491305 
L 109.347567 20.512584 
L 112.7764 20.535569 
L 116.205234 20.561627 
L 119.634068 20.58975 
L 123.062902 20.619892 
L 126.491736 20.651983 
L 129.920569 20.685929 
L 133.349403 20.724336 
L 136.778237 20.765844 
L 140.207071 20.810175 
L 143.635904 20.857227 
L 147.064738 20.906866 
L 150.493572 20.959438 
L 153.922406 21.016568 
L 157.35124 21.077224 
L 160.780073 21.141462 
L 164.208907 21.209328 
L 167.637741 21.279466 
L 171.066575 21.353175 
L 174.495409 21.429994 
L 177.924242 21.509863 
L 181.353076 21.592154 
L 184.78191 21.675251 
L 188.210744 21.760559 
L 191.639578 21.847391 
L 195.068411 21.935537 
L 198.497245 22.023351 
L 201.926079 22.110274 
L 205.354913 22.196252 
L 208.783747 22.280823 
L 212.21258 22.363539 
L 215.641414 22.443235 
L 219.070248 22.518619 
L 222.499082 22.589566 
L 225.927916 22.655399 
L 229.356749 22.716946 
L 232.785583 22.771952 
L 236.214417 22.820392 
L 239.643251 22.861678 
L 243.072084 22.895213 
L 246.500918 22.921904 
L 249.929752 22.940893 
L 253.358586 22.952191 
L 256.78742 22.955816 
L 260.216253 22.952329 
L 263.645087 22.941984 
L 267.073921 22.925289 
L 270.502755 22.90293 
L 273.931589 22.873554 
L 277.360422 22.839883 
L 280.789256 22.80205 
L 284.21809 22.760961 
L 287.646924 22.714864 
L 291.075758 22.6668 
L 294.504591 22.616723 
L 297.933425 22.565332 
L 301.362259 22.512015 
L 304.791093 22.458327 
L 308.219927 22.404383 
L 311.64876 22.350561 
L 315.077594 22.296877 
L 318.506428 22.244323 
L 321.935262 22.193116 
L 325.364096 22.143676 
L 328.792929 22.094314 
L 332.221763 22.047444 
L 335.650597 22.002527 
L 339.079431 21.959181 
L 342.508264 21.918221 
L 345.937098 21.879566 
L 349.365932 21.843316 
L 352.794766 21.808813 
L 356.2236 21.777102 
L 359.652433 21.747898 
L 363.081267 21.72081 
L 366.510101 21.696113 
L 369.938935 21.673858 
L 373.367769 21.653925 
L 376.796602 21.636005 
L 380.225436 21.620369 
L 383.65427 21.606812 
L 387.083104 21.595327 
L 390.511938 21.585837 
L 393.940771 21.57821 
L 397.369605 21.572349 
L 400.798439 21.568187 
L 404.227273 21.565798 
" style="fill:none;stroke:#0000ff;stroke-linecap:square;stroke-width:1.5;"/>
   </g>
   <g id="line2d_19">
    <path clip-path="url(#pba64531b3c)" d="M 64.772727 20.32963 
L 68.201561 20.344661 
L 71.630395 20.360383 
L 75.059229 20.376597 
L 78.488062 20.393207 
L 81.916896 20.410817 
L 85.34573 20.428859 
L 88.774564 20.447923 
L 92.203398 20.467929 
L 95.632231 20.489128 
L 99.061065 20.511765 
L 102.489899 20.535674 
L 105.918733 20.560845 
L 109.347567 20.587504 
L 112.7764 20.616959 
L 116.205234 20.648429 
L 119.634068 20.68189 
L 123.062902 20.717283 
L 126.491736 20.756736 
L 129.920569 20.79988 
L 133.349403 20.84622 
L 136.778237 20.895669 
L 140.207071 20.949058 
L 143.635904 21.008689 
L 147.064738 21.073544 
L 150.493572 21.143885 
L 153.922406 21.219923 
L 157.35124 21.304822 
L 160.780073 21.398414 
L 164.208907 21.499783 
L 167.637741 21.609056 
L 171.066575 21.726296 
L 174.495409 21.851501 
L 177.924242 21.98461 
L 181.353076 22.124834 
L 184.78191 22.280495 
L 188.210744 22.446279 
L 191.639578 22.62223 
L 195.068411 22.808345 
L 198.497245 23.004579 
L 201.926079 23.210855 
L 205.354913 23.427062 
L 208.783747 23.649669 
L 212.21258 23.884265 
L 215.641414 24.128165 
L 219.070248 24.381259 
L 222.499082 24.643465 
L 225.927916 24.908472 
L 229.356749 25.177695 
L 232.785583 25.45122 
L 236.214417 25.72846 
L 239.643251 26.008908 
L 243.072084 26.291884 
L 246.500918 26.56635 
L 249.929752 26.836079 
L 253.358586 27.10012 
L 256.78742 27.357149 
L 260.216253 27.605897 
L 263.645087 27.848602 
L 267.073921 28.071328 
L 270.502755 28.278304 
L 273.931589 28.467534 
L 277.360422 28.636984 
L 280.789256 28.791672 
L 284.21809 28.927516 
L 287.646924 29.039847 
L 291.075758 29.129407 
L 294.504591 29.194982 
L 297.933425 29.235364 
L 301.362259 29.251386 
L 304.791093 29.244931 
L 308.219927 29.21579 
L 311.64876 29.164964 
L 315.077594 29.093612 
L 318.506428 29.004621 
L 321.935262 28.900458 
L 325.364096 28.779005 
L 328.792929 28.643461 
L 332.221763 28.497309 
L 335.650597 28.341729 
L 339.079431 28.175773 
L 342.508264 28.0026 
L 345.937098 27.823049 
L 349.365932 27.638906 
L 352.794766 27.452233 
L 356.2236 27.262168 
L 359.652433 27.070025 
L 363.081267 26.878884 
L 366.510101 26.689192 
L 369.938935 26.500914 
L 373.367769 26.315381 
L 376.796602 26.13353 
L 380.225436 25.9561 
L 383.65427 25.784209 
L 387.083104 25.617947 
L 390.511938 25.457337 
L 393.940771 25.302764 
L 397.369605 25.155072 
L 400.798439 25.013935 
L 404.227273 24.879325 
" style="fill:none;stroke:#0000ff;stroke-linecap:square;stroke-width:1.5;"/>
   </g>
   <g id="line2d_20">
    <path clip-path="url(#pba64531b3c)" d="M 64.772727 20.32963 
L 68.201561 20.350016 
L 71.630395 20.371597 
L 75.059229 20.394305 
L 78.488062 20.418267 
L 81.916896 20.443658 
L 85.34573 20.470467 
L 88.774564 20.499098 
L 92.203398 20.529629 
L 95.632231 20.562561 
L 99.061065 20.597696 
L 102.489899 20.635068 
L 105.918733 20.674675 
L 109.347567 20.718072 
L 112.7764 20.764888 
L 116.205234 20.814905 
L 119.634068 20.868096 
L 123.062902 20.925176 
L 126.491736 20.988275 
L 129.920569 21.055995 
L 133.349403 21.128297 
L 136.778237 21.205074 
L 140.207071 21.288707 
L 143.635904 21.37965 
L 147.064738 21.476778 
L 150.493572 21.579955 
L 153.922406 21.688007 
L 157.35124 21.808252 
L 160.780073 21.93605 
L 164.208907 22.071173 
L 167.637741 22.213333 
L 171.066575 22.362189 
L 174.495409 22.511738 
L 177.924242 22.673692 
L 181.353076 22.842242 
L 184.78191 23.017119 
L 188.210744 23.198044 
L 191.639578 23.38473 
L 195.068411 23.560741 
L 198.497245 23.745977 
L 201.926079 23.933617 
L 205.354913 24.123476 
L 208.783747 24.315414 
L 212.21258 24.509326 
L 215.641414 24.67869 
L 219.070248 24.851979 
L 222.499082 25.020894 
L 225.927916 25.185258 
L 229.356749 25.34496 
L 232.785583 25.4956 
L 236.214417 25.631151 
L 239.643251 25.755771 
L 243.072084 25.868126 
L 246.500918 25.967568 
L 249.929752 26.056019 
L 253.358586 26.126037 
L 256.78742 26.180129 
L 260.216253 26.217596 
L 263.645087 26.248678 
L 267.073921 26.26569 
L 270.502755 26.264554 
L 273.931589 26.247856 
L 277.360422 26.215147 
L 280.789256 26.19565 
L 284.21809 26.151645 
L 287.646924 26.096481 
L 291.075758 26.030166 
L 294.504591 25.96407 
L 297.933425 25.895 
L 301.362259 25.819026 
L 304.791093 25.743071 
L 308.219927 25.667034 
L 311.64876 25.589508 
L 315.077594 25.513146 
L 318.506428 25.438357 
L 321.935262 25.365095 
L 325.364096 25.294714 
L 328.792929 25.227624 
L 332.221763 25.163808 
L 335.650597 25.10415 
L 339.079431 25.048978 
L 342.508264 24.998258 
L 345.937098 24.952777 
L 349.365932 24.912143 
L 352.794766 24.876414 
L 356.2236 24.846629 
L 359.652433 24.822948 
L 363.081267 24.804439 
L 366.510101 24.789665 
L 369.938935 24.781788 
L 373.367769 24.780007 
L 376.796602 24.783831 
L 380.225436 24.790659 
L 383.65427 24.803306 
L 387.083104 24.820991 
L 390.511938 24.843374 
L 393.940771 24.870462 
L 397.369605 24.901987 
L 400.798439 24.937747 
L 404.227273 24.977528 
" style="fill:none;stroke:#0000ff;stroke-linecap:square;stroke-width:1.5;"/>
   </g>
   <g id="line2d_21">
    <path clip-path="url(#pba64531b3c)" d="M 64.772727 20.32963 
L 68.201561 20.349406 
L 71.630395 20.370799 
L 75.059229 20.393755 
L 78.488062 20.418556 
L 81.916896 20.44535 
L 85.34573 20.474284 
L 88.774564 20.505886 
L 92.203398 20.54048 
L 95.632231 20.579081 
L 99.061065 20.621061 
L 102.489899 20.666457 
L 105.918733 20.71525 
L 109.347567 20.767377 
L 112.7764 20.824984 
L 116.205234 20.888986 
L 119.634068 20.957805 
L 123.062902 21.031327 
L 126.491736 21.109386 
L 129.920569 21.188434 
L 133.349403 21.27915 
L 136.778237 21.375811 
L 140.207071 21.478276 
L 143.635904 21.586351 
L 147.064738 21.699803 
L 150.493572 21.809969 
L 153.922406 21.931016 
L 157.35124 22.056818 
L 160.780073 22.18727 
L 164.208907 22.322283 
L 167.637741 22.461786 
L 171.066575 22.596801 
L 174.495409 22.735539 
L 177.924242 22.875156 
L 181.353076 23.015208 
L 184.78191 23.155289 
L 188.210744 23.292508 
L 191.639578 23.423264 
L 195.068411 23.549124 
L 198.497245 23.669107 
L 201.926079 23.782279 
L 205.354913 23.887716 
L 208.783747 23.989728 
L 212.21258 24.078566 
L 215.641414 24.156458 
L 219.070248 24.222148 
L 222.499082 24.279765 
L 225.927916 24.327867 
L 229.356749 24.362166 
L 232.785583 24.383688 
L 236.214417 24.391726 
L 239.643251 24.396162 
L 243.072084 24.387151 
L 246.500918 24.368029 
L 249.929752 24.33917 
L 253.358586 24.302675 
L 256.78742 24.259412 
L 260.216253 24.210623 
L 263.645087 24.155917 
L 267.073921 24.097566 
L 270.502755 24.036656 
L 273.931589 23.972866 
L 277.360422 23.907415 
L 280.789256 23.841546 
L 284.21809 23.775229 
L 287.646924 23.709051 
L 291.075758 23.644132 
L 294.504591 23.580437 
L 297.933425 23.518296 
L 301.362259 23.458791 
L 304.791093 23.401367 
L 308.219927 23.34605 
L 311.64876 23.294719 
L 315.077594 23.247102 
L 318.506428 23.203574 
L 321.935262 23.161046 
L 325.364096 23.123507 
L 328.792929 23.09016 
L 332.221763 23.060986 
L 335.650597 23.035595 
L 339.079431 23.012651 
L 342.508264 22.993664 
L 345.937098 22.977992 
L 349.365932 22.965718 
L 352.794766 22.956457 
L 356.2236 22.95025 
L 359.652433 22.947547 
L 363.081267 22.947645 
L 366.510101 22.950661 
L 369.938935 22.956656 
L 373.367769 22.965401 
L 376.796602 22.97678 
L 380.225436 22.990478 
L 383.65427 23.007041 
L 387.083104 23.025949 
L 390.511938 23.045422 
L 393.940771 23.068054 
L 397.369605 23.093 
L 400.798439 23.12027 
L 404.227273 23.149473 
" style="fill:none;stroke:#0000ff;stroke-linecap:square;stroke-width:1.5;"/>
   </g>
   <g id="line2d_22">
    <path clip-path="url(#pba64531b3c)" d="M 64.772727 20.32963 
L 68.201561 20.401196 
L 71.630395 20.480713 
L 75.059229 20.567905 
L 78.488062 20.663893 
L 81.916896 20.769626 
L 85.34573 20.88513 
L 88.774564 21.013216 
L 92.203398 21.154553 
L 95.632231 21.316628 
L 99.061065 21.493992 
L 102.489899 21.686601 
L 105.918733 21.894204 
L 109.347567 22.116373 
L 112.7764 22.352525 
L 116.205234 22.599907 
L 119.634068 22.887922 
L 123.062902 23.195682 
L 126.491736 23.522446 
L 129.920569 23.867329 
L 133.349403 24.229326 
L 136.778237 24.578943 
L 140.207071 24.948802 
L 143.635904 25.369316 
L 147.064738 25.81025 
L 150.493572 26.270877 
L 153.922406 26.750391 
L 157.35124 27.247928 
L 160.780073 27.665168 
L 164.208907 28.13951 
L 167.637741 28.631014 
L 171.066575 29.129329 
L 174.495409 29.633757 
L 177.924242 30.143727 
L 181.353076 30.651341 
L 184.78191 31.148566 
L 188.210744 31.632321 
L 191.639578 32.105017 
L 195.068411 32.564439 
L 198.497245 33.008449 
L 201.926079 33.440665 
L 205.354913 33.86078 
L 208.783747 34.241687 
L 212.21258 34.582427 
L 215.641414 34.886141 
L 219.070248 35.148655 
L 222.499082 35.393223 
L 225.927916 35.618481 
L 229.356749 35.810567 
L 232.785583 35.944966 
L 236.214417 36.039064 
L 239.643251 36.110468 
L 243.072084 36.149971 
L 246.500918 36.156607 
L 249.929752 36.123841 
L 253.358586 36.058849 
L 256.78742 35.963261 
L 260.216253 35.837869 
L 263.645087 35.68639 
L 267.073921 35.512786 
L 270.502755 35.31638 
L 273.931589 35.099069 
L 277.360422 34.860097 
L 280.789256 34.596262 
L 284.21809 34.32076 
L 287.646924 34.032514 
L 291.075758 33.731698 
L 294.504591 33.420776 
L 297.933425 33.103376 
L 301.362259 32.782102 
L 304.791093 32.458508 
L 308.219927 32.132608 
L 311.64876 31.807064 
L 315.077594 31.483634 
L 318.506428 31.163847 
L 321.935262 30.848008 
L 325.364096 30.537172 
L 328.792929 30.231896 
L 332.221763 29.9335 
L 335.650597 29.642564 
L 339.079431 29.359429 
L 342.508264 29.084873 
L 345.937098 28.820055 
L 349.365932 28.564775 
L 352.794766 28.319326 
L 356.2236 28.083924 
L 359.652433 27.858724 
L 363.081267 27.643817 
L 366.510101 27.439424 
L 369.938935 27.245514 
L 373.367769 27.062086 
L 376.796602 26.889126 
L 380.225436 26.726298 
L 383.65427 26.573552 
L 387.083104 26.430722 
L 390.511938 26.297565 
L 393.940771 26.173838 
L 397.369605 26.059324 
L 400.798439 25.95368 
L 404.227273 25.856561 
" style="fill:none;stroke:#008000;stroke-linecap:square;stroke-width:1.5;"/>
   </g>
   <g id="line2d_23">
    <path clip-path="url(#pba64531b3c)" d="M 64.772727 20.32963 
L 68.201561 20.430219 
L 71.630395 20.546796 
L 75.059229 20.677895 
L 78.488062 20.831716 
L 81.916896 21.003446 
L 85.34573 21.20061 
L 88.774564 21.4256 
L 92.203398 21.68374 
L 95.632231 21.971905 
L 99.061065 22.289736 
L 102.489899 22.637775 
L 105.918733 23.037807 
L 109.347567 23.476093 
L 112.7764 23.951036 
L 116.205234 24.460524 
L 119.634068 25.01506 
L 123.062902 25.625458 
L 126.491736 26.27788 
L 129.920569 26.96954 
L 133.349403 27.68545 
L 136.778237 28.449294 
L 140.207071 29.260006 
L 143.635904 30.106717 
L 147.064738 30.985702 
L 150.493572 31.803078 
L 153.922406 32.710755 
L 157.35124 33.637685 
L 160.780073 34.581355 
L 164.208907 35.522894 
L 167.637741 36.260327 
L 171.066575 37.016816 
L 174.495409 37.805147 
L 177.924242 38.570439 
L 181.353076 39.279696 
L 184.78191 39.753764 
L 188.210744 40.10156 
L 191.639578 40.439221 
L 195.068411 40.703415 
L 198.497245 40.863877 
L 201.926079 40.861669 
L 205.354913 40.728366 
L 208.783747 40.459313 
L 212.21258 40.059207 
L 215.641414 39.53285 
L 219.070248 38.926573 
L 222.499082 38.212392 
L 225.927916 37.388766 
L 229.356749 36.517215 
L 232.785583 35.561783 
L 236.214417 34.554167 
L 239.643251 33.528599 
L 243.072084 32.584348 
L 246.500918 31.701761 
L 249.929752 30.741317 
L 253.358586 29.840165 
L 256.78742 29.028636 
L 260.216253 28.326115 
L 263.645087 27.740984 
L 267.073921 27.224669 
L 270.502755 26.752857 
L 273.931589 26.362386 
L 277.360422 26.056579 
L 280.789256 25.81922 
L 284.21809 25.648725 
L 287.646924 25.504653 
L 291.075758 25.39403 
L 294.504591 25.310458 
L 297.933425 25.239291 
L 301.362259 25.161214 
L 304.791093 25.096201 
L 308.219927 25.035879 
L 311.64876 24.95409 
L 315.077594 24.846322 
L 318.506428 24.730054 
L 321.935262 24.606375 
L 325.364096 24.45768 
L 328.792929 24.278944 
L 332.221763 24.078926 
L 335.650597 23.868941 
L 339.079431 23.635817 
L 342.508264 23.377308 
L 345.937098 23.094448 
L 349.365932 22.79433 
L 352.794766 22.473842 
L 356.2236 22.132125 
L 359.652433 21.769533 
L 363.081267 21.387375 
L 366.510101 20.985725 
L 369.938935 20.565229 
L 373.367769 20.125915 
L 376.796602 19.66346 
L 380.225436 19.179622 
L 383.65427 18.67467 
L 387.083104 18.148491 
L 390.511938 17.595709 
L 393.940771 17.012556 
L 397.369605 16.401354 
L 400.798439 15.760996 
L 404.227273 15.090053 
" style="fill:none;stroke:#008000;stroke-linecap:square;stroke-width:1.5;"/>
   </g>
   <g id="line2d_24">
    <path clip-path="url(#pba64531b3c)" d="M 64.772727 20.32963 
L 68.201561 20.430774 
L 71.630395 20.545382 
L 75.059229 20.67233 
L 78.488062 20.814854 
L 81.916896 20.971838 
L 85.34573 21.146388 
L 88.774564 21.340375 
L 92.203398 21.561338 
L 95.632231 21.813609 
L 99.061065 22.089034 
L 102.489899 22.386748 
L 105.918733 22.705594 
L 109.347567 23.044192 
L 112.7764 23.389895 
L 116.205234 23.770457 
L 119.634068 24.204709 
L 123.062902 24.664782 
L 126.491736 25.148936 
L 129.920569 25.655325 
L 133.349403 26.182045 
L 136.778237 26.622587 
L 140.207071 27.117828 
L 143.635904 27.648505 
L 147.064738 28.200033 
L 150.493572 28.772523 
L 153.922406 29.365878 
L 157.35124 29.981385 
L 160.780073 30.602944 
L 164.208907 31.230513 
L 167.637741 31.862321 
L 171.066575 32.497003 
L 174.495409 33.081459 
L 177.924242 33.659169 
L 181.353076 34.235047 
L 184.78191 34.795531 
L 188.210744 35.339879 
L 191.639578 35.827573 
L 195.068411 36.276434 
L 198.497245 36.691084 
L 201.926079 37.066451 
L 205.354913 37.388901 
L 208.783747 37.645306 
L 212.21258 37.890246 
L 215.641414 38.105804 
L 219.070248 38.305008 
L 222.499082 38.456011 
L 225.927916 38.540584 
L 229.356749 38.595596 
L 232.785583 38.58614 
L 236.214417 38.518584 
L 239.643251 38.411823 
L 243.072084 38.282733 
L 246.500918 38.132896 
L 249.929752 37.942009 
L 253.358586 37.715104 
L 256.78742 37.462338 
L 260.216253 37.185974 
L 263.645087 36.888137 
L 267.073921 36.566875 
L 270.502755 36.222236 
L 273.931589 35.860068 
L 277.360422 35.483328 
L 280.789256 35.094179 
L 284.21809 34.695824 
L 287.646924 34.287916 
L 291.075758 33.872062 
L 294.504591 33.450336 
L 297.933425 33.027226 
L 301.362259 32.602762 
L 304.791093 32.178781 
L 308.219927 31.753395 
L 311.64876 31.333109 
L 315.077594 30.918308 
L 318.506428 30.510907 
L 321.935262 30.108001 
L 325.364096 29.714015 
L 328.792929 29.330023 
L 332.221763 28.957482 
L 335.650597 28.592848 
L 339.079431 28.239602 
L 342.508264 27.898385 
L 345.937098 27.569822 
L 349.365932 27.251615 
L 352.794766 26.945614 
L 356.2236 26.651246 
L 359.652433 26.368382 
L 363.081267 26.097803 
L 366.510101 25.839438 
L 369.938935 25.5925 
L 373.367769 25.356518 
L 376.796602 25.131512 
L 380.225436 24.917866 
L 383.65427 24.714895 
L 387.083104 24.52203 
L 390.511938 24.338777 
L 393.940771 24.165354 
L 397.369605 24.001312 
L 400.798439 23.846191 
L 404.227273 23.699613 
" style="fill:none;stroke:#008000;stroke-linecap:square;stroke-width:1.5;"/>
   </g>
   <g id="line2d_25">
    <path clip-path="url(#pba64531b3c)" d="M 64.772727 20.32963 
L 68.201561 20.466146 
L 71.630395 20.618865 
L 75.059229 20.784058 
L 78.488062 20.959886 
L 81.916896 21.153412 
L 85.34573 21.360778 
L 88.774564 21.582404 
L 92.203398 21.824088 
L 95.632231 22.078778 
L 99.061065 22.36212 
L 102.489899 22.671378 
L 105.918733 22.994385 
L 109.347567 23.328633 
L 112.7764 23.671862 
L 116.205234 24.014617 
L 119.634068 24.392836 
L 123.062902 24.783904 
L 126.491736 25.149317 
L 129.920569 25.560601 
L 133.349403 25.985628 
L 136.778237 26.396442 
L 140.207071 26.800794 
L 143.635904 27.221585 
L 147.064738 27.640859 
L 150.493572 28.048037 
L 153.922406 28.456109 
L 157.35124 28.859939 
L 160.780073 29.25904 
L 164.208907 29.647492 
L 167.637741 30.005927 
L 171.066575 30.345734 
L 174.495409 30.662461 
L 177.924242 30.955426 
L 181.353076 31.225472 
L 184.78191 31.47609 
L 188.210744 31.703764 
L 191.639578 31.907919 
L 195.068411 32.085294 
L 198.497245 32.213512 
L 201.926079 32.329681 
L 205.354913 32.422267 
L 208.783747 32.493547 
L 212.21258 32.534438 
L 215.641414 32.533671 
L 219.070248 32.509079 
L 222.499082 32.461394 
L 225.927916 32.394341 
L 229.356749 32.297189 
L 232.785583 32.175447 
L 236.214417 32.036483 
L 239.643251 31.884894 
L 243.072084 31.721921 
L 246.500918 31.53897 
L 249.929752 31.346487 
L 253.358586 31.147983 
L 256.78742 30.942462 
L 260.216253 30.730021 
L 263.645087 30.513076 
L 267.073921 30.29426 
L 270.502755 30.072826 
L 273.931589 29.850197 
L 277.360422 29.628422 
L 280.789256 29.408224 
L 284.21809 29.190046 
L 287.646924 28.974645 
L 291.075758 28.762906 
L 294.504591 28.556644 
L 297.933425 28.355721 
L 301.362259 28.160581 
L 304.791093 27.971608 
L 308.219927 27.789953 
L 311.64876 27.616002 
L 315.077594 27.44963 
L 318.506428 27.290934 
L 321.935262 27.139908 
L 325.364096 26.997772 
L 328.792929 26.863779 
L 332.221763 26.737738 
L 335.650597 26.619629 
L 339.079431 26.510042 
L 342.508264 26.408565 
L 345.937098 26.314732 
L 349.365932 26.228797 
L 352.794766 26.150559 
L 356.2236 26.080092 
L 359.652433 26.016571 
L 363.081267 25.959487 
L 366.510101 25.909432 
L 369.938935 25.866523 
L 373.367769 25.829962 
L 376.796602 25.799446 
L 380.225436 25.774645 
L 383.65427 25.755603 
L 387.083104 25.742438 
L 390.511938 25.734592 
L 393.940771 25.731824 
L 397.369605 25.733885 
L 400.798439 25.740518 
L 404.227273 25.751843 
" style="fill:none;stroke:#008000;stroke-linecap:square;stroke-width:1.5;"/>
   </g>
   <g id="line2d_26">
    <path clip-path="url(#pba64531b3c)" d="M 64.772727 20.32963 
L 68.201561 20.329749 
L 71.630395 20.329874 
L 75.059229 20.330016 
L 78.488062 20.330171 
L 81.916896 20.330343 
L 85.34573 20.330528 
L 88.774564 20.330726 
L 92.203398 20.330946 
L 95.632231 20.331192 
L 99.061065 20.331459 
L 102.489899 20.331745 
L 105.918733 20.332052 
L 109.347567 20.332402 
L 112.7764 20.332783 
L 116.205234 20.333199 
L 119.634068 20.333652 
L 123.062902 20.33415 
L 126.491736 20.334705 
L 129.920569 20.335309 
L 133.349403 20.335966 
L 136.778237 20.336678 
L 140.207071 20.337448 
L 143.635904 20.338277 
L 147.064738 20.339178 
L 150.493572 20.340195 
L 153.922406 20.3413 
L 157.35124 20.342497 
L 160.780073 20.343791 
L 164.208907 20.345185 
L 167.637741 20.346682 
L 171.066575 20.348288 
L 174.495409 20.350096 
L 177.924242 20.352065 
L 181.353076 20.354193 
L 184.78191 20.356487 
L 188.210744 20.358953 
L 191.639578 20.361598 
L 195.068411 20.364427 
L 198.497245 20.367502 
L 201.926079 20.370878 
L 205.354913 20.374521 
L 208.783747 20.378449 
L 212.21258 20.382677 
L 215.641414 20.387224 
L 219.070248 20.392105 
L 222.499082 20.39734 
L 225.927916 20.403025 
L 229.356749 20.409161 
L 232.785583 20.415748 
L 236.214417 20.422811 
L 239.643251 20.430374 
L 243.072084 20.438459 
L 246.500918 20.447092 
L 249.929752 20.456296 
L 253.358586 20.466096 
L 256.78742 20.476571 
L 260.216253 20.487843 
L 263.645087 20.499852 
L 267.073921 20.512631 
L 270.502755 20.526212 
L 273.931589 20.540629 
L 277.360422 20.555913 
L 280.789256 20.572096 
L 284.21809 20.58921 
L 287.646924 20.607257 
L 291.075758 20.626569 
L 294.504591 20.646994 
L 297.933425 20.668574 
L 301.362259 20.69135 
L 304.791093 20.715364 
L 308.219927 20.740656 
L 311.64876 20.767269 
L 315.077594 20.795234 
L 318.506428 20.824446 
L 321.935262 20.855329 
L 325.364096 20.887726 
L 328.792929 20.921678 
L 332.221763 20.95723 
L 335.650597 20.994422 
L 339.079431 21.033294 
L 342.508264 21.073888 
L 345.937098 21.116228 
L 349.365932 21.160157 
L 352.794766 21.205865 
L 356.2236 21.25336 
L 359.652433 21.302665 
L 363.081267 21.353805 
L 366.510101 21.406801 
L 369.938935 21.461674 
L 373.367769 21.518442 
L 376.796602 21.577101 
L 380.225436 21.637211 
L 383.65427 21.698939 
L 387.083104 21.762332 
L 390.511938 21.82736 
L 393.940771 21.893992 
L 397.369605 21.962192 
L 400.798439 22.031924 
L 404.227273 22.103148 
" style="fill:none;stroke:#000000;stroke-linecap:square;stroke-width:1.5;"/>
   </g>
   <g id="line2d_27">
    <path clip-path="url(#pba64531b3c)" d="M 64.772727 20.32963 
L 68.201561 20.32965 
L 71.630395 20.32967 
L 75.059229 20.329695 
L 78.488062 20.329721 
L 81.916896 20.329752 
L 85.34573 20.329786 
L 88.774564 20.329822 
L 92.203398 20.329861 
L 95.632231 20.329907 
L 99.061065 20.329959 
L 102.489899 20.330016 
L 105.918733 20.330078 
L 109.347567 20.330145 
L 112.7764 20.330223 
L 116.205234 20.330312 
L 119.634068 20.330411 
L 123.062902 20.330522 
L 126.491736 20.330644 
L 129.920569 20.330784 
L 133.349403 20.330944 
L 136.778237 20.331122 
L 140.207071 20.331319 
L 143.635904 20.331536 
L 147.064738 20.331775 
L 150.493572 20.332046 
L 153.922406 20.332366 
L 157.35124 20.332725 
L 160.780073 20.333124 
L 164.208907 20.333567 
L 167.637741 20.334055 
L 171.066575 20.334592 
L 174.495409 20.335237 
L 177.924242 20.335976 
L 181.353076 20.336803 
L 184.78191 20.337724 
L 188.210744 20.338744 
L 191.639578 20.339868 
L 195.068411 20.341135 
L 198.497245 20.342643 
L 201.926079 20.34435 
L 205.354913 20.346274 
L 208.783747 20.348438 
L 212.21258 20.350863 
L 215.641414 20.35357 
L 219.070248 20.356679 
L 222.499082 20.360231 
L 225.927916 20.364234 
L 229.356749 20.368731 
L 232.785583 20.373766 
L 236.214417 20.379382 
L 239.643251 20.385791 
L 243.072084 20.393249 
L 246.500918 20.401689 
L 249.929752 20.411206 
L 253.358586 20.421899 
L 256.78742 20.433865 
L 260.216253 20.447203 
L 263.645087 20.463042 
L 267.073921 20.48103 
L 270.502755 20.501348 
L 273.931589 20.524198 
L 277.360422 20.549779 
L 280.789256 20.578286 
L 284.21809 20.610959 
L 287.646924 20.649053 
L 291.075758 20.692048 
L 294.504591 20.740342 
L 297.933425 20.794314 
L 301.362259 20.854318 
L 304.791093 20.920682 
L 308.219927 20.998373 
L 311.64876 21.086046 
L 315.077594 21.184468 
L 318.506428 21.294578 
L 321.935262 21.417303 
L 325.364096 21.553544 
L 328.792929 21.706151 
L 332.221763 21.87913 
L 335.650597 22.071641 
L 339.079431 22.285077 
L 342.508264 22.520753 
L 345.937098 22.779875 
L 349.365932 23.06352 
L 352.794766 23.377829 
L 356.2236 23.733969 
L 359.652433 24.124948 
L 363.081267 24.553678 
L 366.510101 25.021862 
L 369.938935 25.530925 
L 373.367769 26.081983 
L 376.796602 26.68077 
L 380.225436 27.339293 
L 383.65427 28.053259 
L 387.083104 28.826972 
L 390.511938 29.659282 
L 393.940771 30.55112 
L 397.369605 31.502929 
L 400.798439 32.515019 
L 404.227273 33.59075 
" style="fill:none;stroke:#000000;stroke-linecap:square;stroke-width:1.5;"/>
   </g>
   <g id="line2d_28">
    <path clip-path="url(#pba64531b3c)" d="M 64.772727 20.32963 
L 68.201561 20.32963 
L 71.630395 20.32963 
L 75.059229 20.329631 
L 78.488062 20.329632 
L 81.916896 20.329632 
L 85.34573 20.329633 
L 88.774564 20.329634 
L 92.203398 20.329634 
L 95.632231 20.329635 
L 99.061065 20.329637 
L 102.489899 20.32964 
L 105.918733 20.329643 
L 109.347567 20.329647 
L 112.7764 20.329651 
L 116.205234 20.329656 
L 119.634068 20.329661 
L 123.062902 20.329664 
L 126.491736 20.329583 
L 129.920569 20.329482 
L 133.349403 20.329362 
L 136.778237 20.329223 
L 140.207071 20.329067 
L 143.635904 20.329377 
L 147.064738 20.329122 
L 150.493572 20.328817 
L 153.922406 20.328463 
L 157.35124 20.328064 
L 160.780073 20.327622 
L 164.208907 20.328309 
L 167.637741 20.327988 
L 171.066575 20.327597 
L 174.495409 20.327132 
L 177.924242 20.326588 
L 181.353076 20.325964 
L 184.78191 20.328945 
L 188.210744 20.328761 
L 191.639578 20.328445 
L 195.068411 20.32799 
L 198.497245 20.327392 
L 201.926079 20.326647 
L 205.354913 20.325756 
L 208.783747 20.324721 
L 212.21258 20.323545 
L 215.641414 20.326422 
L 219.070248 20.326285 
L 222.499082 20.326014 
L 225.927916 20.325596 
L 229.356749 20.325021 
L 232.785583 20.324287 
L 236.214417 20.323395 
L 239.643251 20.328194 
L 243.072084 20.329063 
L 246.500918 20.329832 
L 249.929752 20.330481 
L 253.358586 20.330993 
L 256.78742 20.331361 
L 260.216253 20.331582 
L 263.645087 20.336542 
L 267.073921 20.338733 
L 270.502755 20.340982 
L 273.931589 20.343251 
L 277.360422 20.345505 
L 280.789256 20.353553 
L 284.21809 20.358976 
L 287.646924 20.364632 
L 291.075758 20.370418 
L 294.504591 20.376241 
L 297.933425 20.389571 
L 301.362259 20.400978 
L 304.791093 20.412947 
L 308.219927 20.425249 
L 311.64876 20.437682 
L 315.077594 20.457079 
L 318.506428 20.478357 
L 321.935262 20.501801 
L 325.364096 20.527173 
L 328.792929 20.554191 
L 332.221763 20.584148 
L 335.650597 20.618211 
L 339.079431 20.655352 
L 342.508264 20.69539 
L 345.937098 20.738061 
L 349.365932 20.794298 
L 352.794766 20.853181 
L 356.2236 20.917452 
L 359.652433 20.986616 
L 363.081267 21.074873 
L 366.510101 21.169647 
L 369.938935 21.273102 
L 373.367769 21.384323 
L 376.796602 21.523087 
L 380.225436 21.674807 
L 383.65427 21.840462 
L 387.083104 22.01855 
L 390.511938 22.231604 
L 393.940771 22.470682 
L 397.369605 22.736049 
L 400.798439 23.027629 
L 404.227273 23.345084 
" style="fill:none;stroke:#000000;stroke-linecap:square;stroke-width:1.5;"/>
   </g>
   <g id="line2d_29">
    <path clip-path="url(#pba64531b3c)" d="M 64.772727 20.32963 
L 68.201561 20.329638 
L 71.630395 20.329648 
L 75.059229 20.329658 
L 78.488062 20.32967 
L 81.916896 20.329684 
L 85.34573 20.329698 
L 88.774564 20.329714 
L 92.203398 20.329731 
L 95.632231 20.329751 
L 99.061065 20.329774 
L 102.489899 20.329799 
L 105.918733 20.329827 
L 109.347567 20.329856 
L 112.7764 20.329888 
L 116.205234 20.329927 
L 119.634068 20.329971 
L 123.062902 20.330019 
L 126.491736 20.330073 
L 129.920569 20.330133 
L 133.349403 20.330201 
L 136.778237 20.330284 
L 140.207071 20.330376 
L 143.635904 20.330478 
L 147.064738 20.33059 
L 150.493572 20.330714 
L 153.922406 20.330849 
L 157.35124 20.330996 
L 160.780073 20.331172 
L 164.208907 20.331386 
L 167.637741 20.331625 
L 171.066575 20.331892 
L 174.495409 20.332186 
L 177.924242 20.332508 
L 181.353076 20.332861 
L 184.78191 20.333244 
L 188.210744 20.333681 
L 191.639578 20.33419 
L 195.068411 20.334757 
L 198.497245 20.335387 
L 201.926079 20.336082 
L 205.354913 20.336846 
L 208.783747 20.337767 
L 212.21258 20.3388 
L 215.641414 20.339954 
L 219.070248 20.341234 
L 222.499082 20.342647 
L 225.927916 20.344261 
L 229.356749 20.346158 
L 232.785583 20.348285 
L 236.214417 20.350654 
L 239.643251 20.353277 
L 243.072084 20.356163 
L 246.500918 20.359526 
L 249.929752 20.36338 
L 253.358586 20.367721 
L 256.78742 20.372593 
L 260.216253 20.378042 
L 263.645087 20.384111 
L 267.073921 20.391156 
L 270.502755 20.399087 
L 273.931589 20.407981 
L 277.360422 20.417916 
L 280.789256 20.428969 
L 284.21809 20.441213 
L 287.646924 20.455611 
L 291.075758 20.471808 
L 294.504591 20.489974 
L 297.933425 20.510262 
L 301.362259 20.53282 
L 304.791093 20.557788 
L 308.219927 20.58678 
L 311.64876 20.619666 
L 315.077594 20.656482 
L 318.506428 20.697505 
L 321.935262 20.742995 
L 325.364096 20.793187 
L 328.792929 20.850351 
L 332.221763 20.915704 
L 335.650597 20.988565 
L 339.079431 21.069392 
L 342.508264 21.158595 
L 345.937098 21.256522 
L 349.365932 21.365233 
L 352.794766 21.489146 
L 356.2236 21.626649 
L 359.652433 21.778766 
L 363.081267 21.946483 
L 366.510101 22.130735 
L 369.938935 22.332477 
L 373.367769 22.561657 
L 376.796602 22.814306 
L 380.225436 23.091348 
L 383.65427 23.393925 
L 387.083104 23.723033 
L 390.511938 24.079503 
L 393.940771 24.463985 
L 397.369605 24.879289 
L 400.798439 25.326493 
L 404.227273 25.808726 
" style="fill:none;stroke:#000000;stroke-linecap:square;stroke-width:1.5;"/>
   </g>
   <g id="line2d_30">
    <path clip-path="url(#pba64531b3c)" d="M 64.772727 20.32963 
L 68.201561 20.329638 
L 71.630395 20.329647 
L 75.059229 20.329656 
L 78.488062 20.329666 
L 81.916896 20.329677 
L 85.34573 20.329688 
L 88.774564 20.3297 
L 92.203398 20.329712 
L 95.632231 20.329725 
L 99.061065 20.329739 
L 102.489899 20.329754 
L 105.918733 20.32977 
L 109.347567 20.329787 
L 112.7764 20.329804 
L 116.205234 20.329823 
L 119.634068 20.329843 
L 123.062902 20.329865 
L 126.491736 20.329888 
L 129.920569 20.329912 
L 133.349403 20.329939 
L 136.778237 20.329969 
L 140.207071 20.330001 
L 143.635904 20.330035 
L 147.064738 20.330072 
L 150.493572 20.330111 
L 153.922406 20.330153 
L 157.35124 20.330197 
L 160.780073 20.330244 
L 164.208907 20.330294 
L 167.637741 20.330356 
L 171.066575 20.330422 
L 174.495409 20.330494 
L 177.924242 20.330571 
L 181.353076 20.330654 
L 184.78191 20.330744 
L 188.210744 20.330839 
L 191.639578 20.330941 
L 195.068411 20.331049 
L 198.497245 20.331179 
L 201.926079 20.33133 
L 205.354913 20.331494 
L 208.783747 20.331674 
L 212.21258 20.331869 
L 215.641414 20.332079 
L 219.070248 20.332306 
L 222.499082 20.332549 
L 225.927916 20.33281 
L 229.356749 20.333088 
L 232.785583 20.333416 
L 236.214417 20.333776 
L 239.643251 20.334169 
L 243.072084 20.334598 
L 246.500918 20.335065 
L 249.929752 20.33557 
L 253.358586 20.336163 
L 256.78742 20.336818 
L 260.216253 20.33754 
L 263.645087 20.33833 
L 267.073921 20.339193 
L 270.502755 20.34013 
L 273.931589 20.341214 
L 277.360422 20.342432 
L 280.789256 20.343773 
L 284.21809 20.345245 
L 287.646924 20.346853 
L 291.075758 20.348602 
L 294.504591 20.350566 
L 297.933425 20.352793 
L 301.362259 20.355259 
L 304.791093 20.357986 
L 308.219927 20.360992 
L 311.64876 20.364298 
L 315.077594 20.367948 
L 318.506428 20.372101 
L 321.935262 20.376695 
L 325.364096 20.381762 
L 328.792929 20.387336 
L 332.221763 20.393448 
L 335.650597 20.400133 
L 339.079431 20.407423 
L 342.508264 20.415605 
L 345.937098 20.424805 
L 349.365932 20.434935 
L 352.794766 20.446058 
L 356.2236 20.458239 
L 359.652433 20.47154 
L 363.081267 20.486021 
L 366.510101 20.501743 
L 369.938935 20.519448 
L 373.367769 20.539043 
L 376.796602 20.560486 
L 380.225436 20.58389 
L 383.65427 20.609365 
L 387.083104 20.63702 
L 390.511938 20.666958 
L 393.940771 20.699266 
L 397.369605 20.734488 
L 400.798439 20.77276 
L 404.227273 20.814365 
" style="fill:none;stroke:#000000;stroke-linecap:square;stroke-width:1.5;"/>
   </g>
   <g id="patch_3">
    <path d="M 47.8 216.64 
L 47.8 10.8 
" style="fill:none;stroke:#000000;stroke-linecap:square;stroke-linejoin:miter;stroke-width:0.8;"/>
   </g>
   <g id="patch_4">
    <path d="M 421.2 216.64 
L 421.2 10.8 
" style="fill:none;stroke:#000000;stroke-linecap:square;stroke-linejoin:miter;stroke-width:0.8;"/>
   </g>
   <g id="patch_5">
    <path d="M 47.8 216.64 
L 421.2 216.64 
" style="fill:none;stroke:#000000;stroke-linecap:square;stroke-linejoin:miter;stroke-width:0.8;"/>
   </g>
   <g id="patch_6">
    <path d="M 47.8 10.8 
L 421.2 10.8 
" style="fill:none;stroke:#000000;stroke-linecap:square;stroke-linejoin:miter;stroke-width:0.8;"/>
   </g>
   <g id="legend_1">
    <g id="patch_7">
     <path d="M 324.146875 283.00625 
L 414.2 283.00625 
Q 416.2 283.00625 416.2 281.00625 
L 416.2 17.8 
Q 416.2 15.8 414.2 15.8 
L 324.146875 15.8 
Q 322.146875 15.8 322.146875 17.8 
L 322.146875 281.00625 
Q 322.146875 283.00625 324.146875 283.00625 
z
" style="fill:#ffffff;opacity:0.8;stroke:#cccccc;stroke-linejoin:miter;"/>
    </g>
    <g id="line2d_31">
     <path d="M 326.146875 23.898438 
L 346.146875 23.898438 
" style="fill:none;stroke:#ff0000;stroke-linecap:square;stroke-width:1.5;"/>
    </g>
    <g id="line2d_32"/>
    <g id="text_15">
     <text style="font-family:DejaVu Sans;font-size:10px;font-style:normal;font-weight:normal;text-anchor:start;" transform="rotate(-0, 354.146875, 27.398438)" x="354.146875" y="27.398438">Beijing</text>
    </g>
    <g id="line2d_33">
     <path d="M 326.146875 38.576563 
L 346.146875 38.576563 
" style="fill:none;stroke:#ff0000;stroke-linecap:square;stroke-width:1.5;"/>
    </g>
    <g id="line2d_34"/>
    <g id="text_16">
     <text style="font-family:DejaVu Sans;font-size:10px;font-style:normal;font-weight:normal;text-anchor:start;" transform="rotate(-0, 354.146875, 42.076563)" x="354.146875" y="42.076563">Beijing</text>
    </g>
    <g id="line2d_35">
     <path d="M 326.146875 53.254688 
L 346.146875 53.254688 
" style="fill:none;stroke:#ff0000;stroke-linecap:square;stroke-width:1.5;"/>
    </g>
    <g id="line2d_36"/>
    <g id="text_17">
     <text style="font-family:DejaVu Sans;font-size:10px;font-style:normal;font-weight:normal;text-anchor:start;" transform="rotate(-0, 354.146875, 56.754688)" x="354.146875" y="56.754688">Beijing</text>
    </g>
    <g id="line2d_37">
     <path d="M 326.146875 67.932813 
L 346.146875 67.932813 
" style="fill:none;stroke:#ff0000;stroke-linecap:square;stroke-width:1.5;"/>
    </g>
    <g id="line2d_38"/>
    <g id="text_18">
     <text style="font-family:DejaVu Sans;font-size:10px;font-style:normal;font-weight:normal;text-anchor:start;" transform="rotate(-0, 354.146875, 71.432813)" x="354.146875" y="71.432813">Beijing</text>
    </g>
    <g id="line2d_39">
     <path d="M 326.146875 82.610938 
L 346.146875 82.610938 
" style="fill:none;stroke:#ff0000;stroke-linecap:square;stroke-width:1.5;"/>
    </g>
    <g id="line2d_40"/>
    <g id="text_19">
     <text style="font-family:DejaVu Sans;font-size:10px;font-style:normal;font-weight:normal;text-anchor:start;" transform="rotate(-0, 354.146875, 86.110938)" x="354.146875" y="86.110938">Beijing</text>
    </g>
    <g id="line2d_41">
     <path d="M 326.146875 97.289062 
L 346.146875 97.289062 
" style="fill:none;stroke:#0000ff;stroke-linecap:square;stroke-width:1.5;"/>
    </g>
    <g id="line2d_42"/>
    <g id="text_20">
     <text style="font-family:DejaVu Sans;font-size:10px;font-style:normal;font-weight:normal;text-anchor:start;" transform="rotate(-0, 354.146875, 100.789062)" x="354.146875" y="100.789062">Guangdong</text>
    </g>
    <g id="line2d_43">
     <path d="M 326.146875 111.967188 
L 346.146875 111.967188 
" style="fill:none;stroke:#0000ff;stroke-linecap:square;stroke-width:1.5;"/>
    </g>
    <g id="line2d_44"/>
    <g id="text_21">
     <text style="font-family:DejaVu Sans;font-size:10px;font-style:normal;font-weight:normal;text-anchor:start;" transform="rotate(-0, 354.146875, 115.467188)" x="354.146875" y="115.467188">Guangdong</text>
    </g>
    <g id="line2d_45">
     <path d="M 326.146875 126.645312 
L 346.146875 126.645312 
" style="fill:none;stroke:#0000ff;stroke-linecap:square;stroke-width:1.5;"/>
    </g>
    <g id="line2d_46"/>
    <g id="text_22">
     <text style="font-family:DejaVu Sans;font-size:10px;font-style:normal;font-weight:normal;text-anchor:start;" transform="rotate(-0, 354.146875, 130.145312)" x="354.146875" y="130.145312">Guangdong</text>
    </g>
    <g id="line2d_47">
     <path d="M 326.146875 141.323438 
L 346.146875 141.323438 
" style="fill:none;stroke:#0000ff;stroke-linecap:square;stroke-width:1.5;"/>
    </g>
    <g id="line2d_48"/>
    <g id="text_23">
     <text style="font-family:DejaVu Sans;font-size:10px;font-style:normal;font-weight:normal;text-anchor:start;" transform="rotate(-0, 354.146875, 144.823438)" x="354.146875" y="144.823438">Guangdong</text>
    </g>
    <g id="line2d_49">
     <path d="M 326.146875 156.001562 
L 346.146875 156.001562 
" style="fill:none;stroke:#008000;stroke-linecap:square;stroke-width:1.5;"/>
    </g>
    <g id="line2d_50"/>
    <g id="text_24">
     <text style="font-family:DejaVu Sans;font-size:10px;font-style:normal;font-weight:normal;text-anchor:start;" transform="rotate(-0, 354.146875, 159.501562)" x="354.146875" y="159.501562">Hunan</text>
    </g>
    <g id="line2d_51">
     <path d="M 326.146875 170.679687 
L 346.146875 170.679687 
" style="fill:none;stroke:#008000;stroke-linecap:square;stroke-width:1.5;"/>
    </g>
    <g id="line2d_52"/>
    <g id="text_25">
     <text style="font-family:DejaVu Sans;font-size:10px;font-style:normal;font-weight:normal;text-anchor:start;" transform="rotate(-0, 354.146875, 174.179687)" x="354.146875" y="174.179687">Hunan</text>
    </g>
    <g id="line2d_53">
     <path d="M 326.146875 185.357812 
L 346.146875 185.357812 
" style="fill:none;stroke:#008000;stroke-linecap:square;stroke-width:1.5;"/>
    </g>
    <g id="line2d_54"/>
    <g id="text_26">
     <text style="font-family:DejaVu Sans;font-size:10px;font-style:normal;font-weight:normal;text-anchor:start;" transform="rotate(-0, 354.146875, 188.857812)" x="354.146875" y="188.857812">Hunan</text>
    </g>
    <g id="line2d_55">
     <path d="M 326.146875 200.035937 
L 346.146875 200.035937 
" style="fill:none;stroke:#008000;stroke-linecap:square;stroke-width:1.5;"/>
    </g>
    <g id="line2d_56"/>
    <g id="text_27">
     <text style="font-family:DejaVu Sans;font-size:10px;font-style:normal;font-weight:normal;text-anchor:start;" transform="rotate(-0, 354.146875, 203.535937)" x="354.146875" y="203.535937">Hunan</text>
    </g>
    <g id="line2d_57">
     <path d="M 326.146875 214.714062 
L 346.146875 214.714062 
" style="fill:none;stroke:#000000;stroke-linecap:square;stroke-width:1.5;"/>
    </g>
    <g id="line2d_58"/>
    <g id="text_28">
     <text style="font-family:DejaVu Sans;font-size:10px;font-style:normal;font-weight:normal;text-anchor:start;" transform="rotate(-0, 354.146875, 218.214062)" x="354.146875" y="218.214062">Shanghai</text>
    </g>
    <g id="line2d_59">
     <path d="M 326.146875 229.392187 
L 346.146875 229.392187 
" style="fill:none;stroke:#000000;stroke-linecap:square;stroke-width:1.5;"/>
    </g>
    <g id="line2d_60"/>
    <g id="text_29">
     <text style="font-family:DejaVu Sans;font-size:10px;font-style:normal;font-weight:normal;text-anchor:start;" transform="rotate(-0, 354.146875, 232.892187)" x="354.146875" y="232.892187">Shanghai</text>
    </g>
    <g id="line2d_61">
     <path d="M 326.146875 244.070312 
L 346.146875 244.070312 
" style="fill:none;stroke:#000000;stroke-linecap:square;stroke-width:1.5;"/>
    </g>
    <g id="line2d_62"/>
    <g id="text_30">
     <text style="font-family:DejaVu Sans;font-size:10px;font-style:normal;font-weight:normal;text-anchor:start;" transform="rotate(-0, 354.146875, 247.570312)" x="354.146875" y="247.570312">Shanghai</text>
    </g>
    <g id="line2d_63">
     <path d="M 326.146875 258.748437 
L 346.146875 258.748437 
" style="fill:none;stroke:#000000;stroke-linecap:square;stroke-width:1.5;"/>
    </g>
    <g id="line2d_64"/>
    <g id="text_31">
     <text style="font-family:DejaVu Sans;font-size:10px;font-style:normal;font-weight:normal;text-anchor:start;" transform="rotate(-0, 354.146875, 262.248437)" x="354.146875" y="262.248437">Shanghai</text>
    </g>
    <g id="line2d_65">
     <path d="M 326.146875 273.426562 
L 346.146875 273.426562 
" style="fill:none;stroke:#000000;stroke-linecap:square;stroke-width:1.5;"/>
    </g>
    <g id="line2d_66"/>
    <g id="text_32">
     <text style="font-family:DejaVu Sans;font-size:10px;font-style:normal;font-weight:normal;text-anchor:start;" transform="rotate(-0, 354.146875, 276.926562)" x="354.146875" y="276.926562">Shanghai</text>
    </g>
   </g>
  </g>
 </g>
 <defs>
  <clipPath id="pba64531b3c">
   <rect height="205.84" width="373.4" x="47.8" y="10.8"/>
  </clipPath>
 </defs>
</svg>
