<?xml version="1.0" encoding="utf-8" standalone="no"?>
<!DOCTYPE svg PUBLIC "-//W3C//DTD SVG 1.1//EN"
  "http://www.w3.org/Graphics/SVG/1.1/DTD/svg11.dtd">
<!-- Created with matplotlib (https://matplotlib.org/) -->
<svg height="432pt" version="1.1" viewBox="0 0 576 432" width="576pt" xmlns="http://www.w3.org/2000/svg" xmlns:xlink="http://www.w3.org/1999/xlink">
 <defs>
  <style type="text/css">
*{stroke-linecap:butt;stroke-linejoin:round;}
  </style>
 </defs>
 <g id="figure_1">
  <g id="patch_1">
   <path d="M 0 432 
L 576 432 
L 576 0 
L 0 0 
z
" style="fill:#ffffff;"/>
  </g>
  <g id="axes_1">
   <g id="patch_2">
    <path d="M 72 378 
L 518.4 378 
L 518.4 51.84 
L 72 51.84 
z
" style="fill:#ffffff;"/>
   </g>
   <g id="matplotlib.axis_1">
    <g id="xtick_1">
     <g id="line2d_1">
      <defs>
       <path d="M 0 0 
L 0 3.5 
" id="m45c1790122" style="stroke:#000000;stroke-width:0.8;"/>
      </defs>
      <g>
       <use style="stroke:#000000;stroke-width:0.8;" x="92.290909" xlink:href="#m45c1790122" y="378"/>
      </g>
     </g>
     <g id="text_1">
      <text style="font-family:DejaVu Sans;font-size:10px;font-style:normal;font-weight:normal;text-anchor:middle;" transform="rotate(-0, 92.290909, 392.598437)" x="92.290909" y="392.598437">0</text>
     </g>
    </g>
    <g id="xtick_2">
     <g id="line2d_2">
      <g>
       <use style="stroke:#000000;stroke-width:0.8;" x="173.454545" xlink:href="#m45c1790122" y="378"/>
      </g>
     </g>
     <g id="text_2">
      <text style="font-family:DejaVu Sans;font-size:10px;font-style:normal;font-weight:normal;text-anchor:middle;" transform="rotate(-0, 173.454545, 392.598437)" x="173.454545" y="392.598437">2</text>
     </g>
    </g>
    <g id="xtick_3">
     <g id="line2d_3">
      <g>
       <use style="stroke:#000000;stroke-width:0.8;" x="254.618182" xlink:href="#m45c1790122" y="378"/>
      </g>
     </g>
     <g id="text_3">
      <text style="font-family:DejaVu Sans;font-size:10px;font-style:normal;font-weight:normal;text-anchor:middle;" transform="rotate(-0, 254.618182, 392.598437)" x="254.618182" y="392.598437">4</text>
     </g>
    </g>
    <g id="xtick_4">
     <g id="line2d_4">
      <g>
       <use style="stroke:#000000;stroke-width:0.8;" x="335.781818" xlink:href="#m45c1790122" y="378"/>
      </g>
     </g>
     <g id="text_4">
      <text style="font-family:DejaVu Sans;font-size:10px;font-style:normal;font-weight:normal;text-anchor:middle;" transform="rotate(-0, 335.781818, 392.598437)" x="335.781818" y="392.598437">6</text>
     </g>
    </g>
    <g id="xtick_5">
     <g id="line2d_5">
      <g>
       <use style="stroke:#000000;stroke-width:0.8;" x="416.945455" xlink:href="#m45c1790122" y="378"/>
      </g>
     </g>
     <g id="text_5">
      <text style="font-family:DejaVu Sans;font-size:10px;font-style:normal;font-weight:normal;text-anchor:middle;" transform="rotate(-0, 416.945455, 392.598437)" x="416.945455" y="392.598437">8</text>
     </g>
    </g>
    <g id="xtick_6">
     <g id="line2d_6">
      <g>
       <use style="stroke:#000000;stroke-width:0.8;" x="498.109091" xlink:href="#m45c1790122" y="378"/>
      </g>
     </g>
     <g id="text_6">
      <text style="font-family:DejaVu Sans;font-size:10px;font-style:normal;font-weight:normal;text-anchor:middle;" transform="rotate(-0, 498.109091, 392.598437)" x="498.109091" y="392.598437">10</text>
     </g>
    </g>
    <g id="text_7">
     <text style="font-family:DejaVu Sans;font-size:10px;font-style:normal;font-weight:normal;text-anchor:middle;" transform="rotate(-0, 295.2, 406.276563)" x="295.2" y="406.276563">Time</text>
    </g>
   </g>
   <g id="matplotlib.axis_2">
    <g id="ytick_1">
     <g id="line2d_7">
      <defs>
       <path d="M 0 0 
L -3.5 0 
" id="m4cc17b8fbb" style="stroke:#000000;stroke-width:0.8;"/>
      </defs>
      <g>
       <use style="stroke:#000000;stroke-width:0.8;" x="72" xlink:href="#m4cc17b8fbb" y="363.174545"/>
      </g>
     </g>
     <g id="text_8">
      <text style="font-family:DejaVu Sans;font-size:10px;font-style:normal;font-weight:normal;text-anchor:end;" transform="rotate(-0, 65, 366.973764)" x="65" y="366.973764">0.0</text>
     </g>
    </g>
    <g id="ytick_2">
     <g id="line2d_8">
      <g>
       <use style="stroke:#000000;stroke-width:0.8;" x="72" xlink:href="#m4cc17b8fbb" y="303.872727"/>
      </g>
     </g>
     <g id="text_9">
      <text style="font-family:DejaVu Sans;font-size:10px;font-style:normal;font-weight:normal;text-anchor:end;" transform="rotate(-0, 65, 307.671946)" x="65" y="307.671946">0.2</text>
     </g>
    </g>
    <g id="ytick_3">
     <g id="line2d_9">
      <g>
       <use style="stroke:#000000;stroke-width:0.8;" x="72" xlink:href="#m4cc17b8fbb" y="244.570909"/>
      </g>
     </g>
     <g id="text_10">
      <text style="font-family:DejaVu Sans;font-size:10px;font-style:normal;font-weight:normal;text-anchor:end;" transform="rotate(-0, 65, 248.370128)" x="65" y="248.370128">0.4</text>
     </g>
    </g>
    <g id="ytick_4">
     <g id="line2d_10">
      <g>
       <use style="stroke:#000000;stroke-width:0.8;" x="72" xlink:href="#m4cc17b8fbb" y="185.269091"/>
      </g>
     </g>
     <g id="text_11">
      <text style="font-family:DejaVu Sans;font-size:10px;font-style:normal;font-weight:normal;text-anchor:end;" transform="rotate(-0, 65, 189.06831)" x="65" y="189.06831">0.6</text>
     </g>
    </g>
    <g id="ytick_5">
     <g id="line2d_11">
      <g>
       <use style="stroke:#000000;stroke-width:0.8;" x="72" xlink:href="#m4cc17b8fbb" y="125.967273"/>
      </g>
     </g>
     <g id="text_12">
      <text style="font-family:DejaVu Sans;font-size:10px;font-style:normal;font-weight:normal;text-anchor:end;" transform="rotate(-0, 65, 129.766491)" x="65" y="129.766491">0.8</text>
     </g>
    </g>
    <g id="ytick_6">
     <g id="line2d_12">
      <g>
       <use style="stroke:#000000;stroke-width:0.8;" x="72" xlink:href="#m4cc17b8fbb" y="66.665455"/>
      </g>
     </g>
     <g id="text_13">
      <text style="font-family:DejaVu Sans;font-size:10px;font-style:normal;font-weight:normal;text-anchor:end;" transform="rotate(-0, 65, 70.464673)" x="65" y="70.464673">1.0</text>
     </g>
    </g>
    <g id="text_14">
     <text style="font-family:DejaVu Sans;font-size:10px;font-style:normal;font-weight:normal;text-anchor:middle;" transform="rotate(-90, 43.017187, 214.92)" x="43.017187" y="214.92">Simulated value</text>
    </g>
   </g>
   <g id="line2d_13">
    <path clip-path="url(#p1ccc4f077f)" d="M 92.290909 66.665455 
L 96.349091 94.882021 
L 100.407273 120.413431 
L 104.465455 143.515208 
L 108.523636 164.418554 
L 112.581818 183.332686 
L 116.64 200.446901 
L 120.698182 215.932483 
L 124.756364 229.944417 
L 128.814545 242.622942 
L 132.872727 254.094945 
L 136.930909 264.475241 
L 140.989091 273.867722 
L 145.047273 282.36639 
L 149.105455 290.056303 
L 153.163636 297.014424 
L 157.221818 303.310393 
L 161.28 309.00722 
L 165.338182 314.161923 
L 169.396364 318.826091 
L 173.454545 323.046405 
L 177.512727 326.865103 
L 181.570909 330.320403 
L 185.629091 333.446888 
L 189.687273 336.275849 
L 193.745455 338.835599 
L 197.803636 341.151756 
L 201.861818 343.247502 
L 205.92 345.143811 
L 209.978182 346.859663 
L 214.036364 348.412228 
L 218.094545 349.817048 
L 222.152727 351.088182 
L 226.210909 352.238352 
L 230.269091 353.279068 
L 234.327273 354.220747 
L 238.385455 355.072814 
L 242.443636 355.843796 
L 246.501818 356.541409 
L 250.56 357.172635 
L 254.618182 357.743792 
L 258.676364 358.260597 
L 262.734545 358.728221 
L 266.792727 359.151345 
L 270.850909 359.534203 
L 274.909091 359.880627 
L 278.967273 360.194085 
L 283.025455 360.477713 
L 287.083636 360.734351 
L 291.141818 360.966566 
L 295.2 361.176683 
L 299.258182 361.366805 
L 303.316364 361.538834 
L 307.374545 361.694492 
L 311.432727 361.835338 
L 315.490909 361.962781 
L 319.549091 362.078095 
L 323.607273 362.182436 
L 327.665455 362.276848 
L 331.723636 362.362275 
L 335.781818 362.439573 
L 339.84 362.509515 
L 343.898182 362.572801 
L 347.956364 362.630064 
L 352.014545 362.681878 
L 356.072727 362.728762 
L 360.130909 362.771184 
L 364.189091 362.809569 
L 368.247273 362.844301 
L 372.305455 362.875728 
L 376.363636 362.904164 
L 380.421818 362.929894 
L 384.48 362.953176 
L 388.538182 362.974242 
L 392.596364 362.993303 
L 396.654545 363.010551 
L 400.712727 363.026157 
L 404.770909 363.040278 
L 408.829091 363.053055 
L 412.887273 363.064617 
L 416.945455 363.075078 
L 421.003636 363.084543 
L 425.061818 363.093108 
L 429.12 363.100858 
L 433.178182 363.10787 
L 437.236364 363.114215 
L 441.294545 363.119957 
L 445.352727 363.125151 
L 449.410909 363.129852 
L 453.469091 363.134105 
L 457.527273 363.137953 
L 461.585455 363.141436 
L 465.643636 363.144586 
L 469.701818 363.147437 
L 473.76 363.150017 
L 477.818182 363.152351 
L 481.876364 363.154463 
L 485.934545 363.156374 
L 489.992727 363.158104 
L 494.050909 363.159668 
L 498.109091 363.161084 
" style="fill:none;stroke:#0000ff;stroke-linecap:square;stroke-width:1.5;"/>
   </g>
   <g id="line2d_14">
    <path clip-path="url(#p1ccc4f077f)" d="M 92.290909 333.523636 
L 96.349091 330.746274 
L 100.407273 327.743301 
L 104.465455 324.502965 
L 108.523636 321.01414 
L 112.581818 317.266607 
L 116.64 313.251347 
L 120.698182 308.960874 
L 124.756364 304.389574 
L 128.814545 299.534063 
L 132.872727 294.393535 
L 136.930909 288.970096 
L 140.989091 283.269066 
L 145.047273 277.299232 
L 149.105455 271.073033 
L 153.163636 264.60666 
L 157.221818 257.920064 
L 161.28 251.036842 
L 165.338182 243.98401 
L 169.396364 236.791663 
L 173.454545 229.492511 
L 177.512727 222.121319 
L 181.570909 214.714265 
L 185.629091 207.308238 
L 189.687273 199.940108 
L 193.745455 192.64599 
L 197.803636 185.460553 
L 201.861818 178.416376 
L 205.92 171.543399 
L 209.978182 164.868441 
L 214.036364 158.414902 
L 218.094545 152.202547 
L 222.152727 146.247343 
L 226.210909 140.56152 
L 230.269091 135.153678 
L 234.327273 130.028944 
L 238.385455 125.189255 
L 242.443636 120.633654 
L 246.501818 116.358623 
L 250.56 112.358436 
L 254.618182 108.625512 
L 258.676364 105.150758 
L 262.734545 101.923897 
L 266.792727 98.933761 
L 270.850909 96.16857 
L 274.909091 93.61617 
L 278.967273 91.264243 
L 283.025455 89.100479 
L 287.083636 87.112733 
L 291.141818 85.289134 
L 295.2 83.618186 
L 299.258182 82.088837 
L 303.316364 80.690532 
L 307.374545 79.413251 
L 311.432727 78.247523 
L 315.490909 77.184445 
L 319.549091 76.215672 
L 323.607273 75.333416 
L 327.665455 74.53043 
L 331.723636 73.799987 
L 335.781818 73.135862 
L 339.84 72.532304 
L 343.898182 71.984014 
L 347.956364 71.486115 
L 352.014545 71.034127 
L 356.072727 70.623943 
L 360.130909 70.251799 
L 364.189091 69.914253 
L 368.247273 69.608157 
L 372.305455 69.330639 
L 376.363636 69.079077 
L 380.421818 68.851084 
L 384.48 68.644482 
L 388.538182 68.457291 
L 392.596364 68.287707 
L 396.654545 68.134094 
L 400.712727 67.994961 
L 404.770909 67.868955 
L 408.829091 67.754847 
L 412.887273 67.651523 
L 416.945455 67.557968 
L 421.003636 67.473266 
L 425.061818 67.396582 
L 429.12 67.327161 
L 433.178182 67.264318 
L 437.236364 67.207433 
L 441.294545 67.155942 
L 445.352727 67.109336 
L 449.410909 67.067152 
L 453.469091 67.028973 
L 457.527273 66.994417 
L 461.585455 66.963144 
L 465.643636 66.934841 
L 469.701818 66.909226 
L 473.76 66.886046 
L 477.818182 66.865068 
L 481.876364 66.846084 
L 485.934545 66.828904 
L 489.992727 66.813357 
L 494.050909 66.799289 
L 498.109091 66.786558 
" style="fill:none;stroke:#008000;stroke-linecap:square;stroke-width:1.5;"/>
   </g>
   <g id="line2d_15">
    <path clip-path="url(#p1ccc4f077f)" d="M 92.290909 363.174545 
L 96.349091 334.972285 
L 100.407273 309.482236 
L 104.465455 286.44742 
L 108.523636 265.636009 
L 112.581818 246.838712 
L 116.64 229.866548 
L 120.698182 214.548825 
L 124.756364 200.731351 
L 128.814545 188.274829 
L 132.872727 177.053415 
L 136.930909 166.9534 
L 140.989091 157.872033 
L 145.047273 149.716452 
L 149.105455 142.402717 
L 153.163636 135.854926 
L 157.221818 130.004426 
L 161.28 124.789086 
L 165.338182 120.152649 
L 169.396364 116.044138 
L 173.454545 112.417326 
L 177.512727 109.230251 
L 181.570909 106.444787 
L 185.629091 104.026256 
L 189.687273 101.943075 
L 193.745455 100.166451 
L 197.803636 98.670099 
L 201.861818 97.429998 
L 205.92 96.424173 
L 209.978182 95.6325 
L 214.036364 95.036533 
L 218.094545 94.619351 
L 222.152727 94.365428 
L 226.210909 94.260507 
L 230.269091 94.291495 
L 234.327273 94.446366 
L 238.385455 94.714076 
L 242.443636 95.084485 
L 246.501818 95.548282 
L 250.56 96.096925 
L 254.618182 96.722581 
L 258.676364 97.418068 
L 262.734545 98.176808 
L 266.792727 98.992779 
L 270.850909 99.86047 
L 274.909091 100.774843 
L 278.967273 101.731297 
L 283.025455 102.725628 
L 287.083636 103.754002 
L 291.141818 104.812922 
L 295.2 105.8992 
L 299.258182 107.009934 
L 303.316364 108.14248 
L 307.374545 109.294434 
L 311.432727 110.463608 
L 315.490909 111.648013 
L 319.549091 112.845842 
L 323.607273 114.055454 
L 327.665455 115.275357 
L 331.723636 116.504197 
L 335.781818 117.740746 
L 339.84 118.983889 
L 343.898182 120.232615 
L 347.956364 121.486004 
L 352.014545 122.743226 
L 356.072727 124.003526 
L 360.130909 125.266219 
L 364.189091 126.530684 
L 368.247273 127.79636 
L 372.305455 129.062735 
L 376.363636 130.329349 
L 380.421818 131.595781 
L 384.48 132.861651 
L 388.538182 134.126615 
L 392.596364 135.390361 
L 396.654545 136.652605 
L 400.712727 137.91309 
L 404.770909 139.171582 
L 408.829091 140.427871 
L 412.887273 141.681764 
L 416.945455 142.933088 
L 421.003636 144.181683 
L 425.061818 145.427407 
L 429.12 146.670129 
L 433.178182 147.909731 
L 437.236364 149.146104 
L 441.294545 150.37915 
L 445.352727 151.608782 
L 449.410909 152.834916 
L 453.469091 154.057481 
L 457.527273 155.276407 
L 461.585455 156.491634 
L 465.643636 157.703106 
L 469.701818 158.910772 
L 473.76 160.114585 
L 477.818182 161.314502 
L 481.876364 162.510484 
L 485.934545 163.702497 
L 489.992727 164.890506 
L 494.050909 166.074482 
L 498.109091 167.254398 
" style="fill:none;stroke:#ff0000;stroke-linecap:square;stroke-width:1.5;"/>
   </g>
   <g id="patch_3">
    <path d="M 72 378 
L 72 51.84 
" style="fill:none;stroke:#000000;stroke-linecap:square;stroke-linejoin:miter;stroke-width:0.8;"/>
   </g>
   <g id="patch_4">
    <path d="M 518.4 378 
L 518.4 51.84 
" style="fill:none;stroke:#000000;stroke-linecap:square;stroke-linejoin:miter;stroke-width:0.8;"/>
   </g>
   <g id="patch_5">
    <path d="M 72 378 
L 518.4 378 
" style="fill:none;stroke:#000000;stroke-linecap:square;stroke-linejoin:miter;stroke-width:0.8;"/>
   </g>
   <g id="patch_6">
    <path d="M 72 51.84 
L 518.4 51.84 
" style="fill:none;stroke:#000000;stroke-linecap:square;stroke-linejoin:miter;stroke-width:0.8;"/>
   </g>
   <g id="legend_1">
    <g id="patch_7">
     <path d="M 456.698437 238.437187 
L 511.4 238.437187 
Q 513.4 238.437187 513.4 236.437187 
L 513.4 193.402812 
Q 513.4 191.402812 511.4 191.402812 
L 456.698437 191.402812 
Q 454.698437 191.402812 454.698437 193.402812 
L 454.698437 236.437187 
Q 454.698437 238.437187 456.698437 238.437187 
z
" style="fill:#ffffff;opacity:0.8;stroke:#cccccc;stroke-linejoin:miter;"/>
    </g>
    <g id="line2d_16">
     <path d="M 458.698437 199.50125 
L 478.698437 199.50125 
" style="fill:none;stroke:#0000ff;stroke-linecap:square;stroke-width:1.5;"/>
    </g>
    <g id="line2d_17"/>
    <g id="text_15">
     <text style="font-family:DejaVu Sans;font-size:10px;font-style:normal;font-weight:normal;text-anchor:start;" transform="rotate(-0, 486.698437, 203.00125)" x="486.698437" y="203.00125">prod</text>
    </g>
    <g id="line2d_18">
     <path d="M 458.698437 214.179375 
L 478.698437 214.179375 
" style="fill:none;stroke:#008000;stroke-linecap:square;stroke-width:1.5;"/>
    </g>
    <g id="line2d_19"/>
    <g id="text_16">
     <text style="font-family:DejaVu Sans;font-size:10px;font-style:normal;font-weight:normal;text-anchor:start;" transform="rotate(-0, 486.698437, 217.679375)" x="486.698437" y="217.679375">deg</text>
    </g>
    <g id="line2d_20">
     <path d="M 458.698437 228.8575 
L 478.698437 228.8575 
" style="fill:none;stroke:#ff0000;stroke-linecap:square;stroke-width:1.5;"/>
    </g>
    <g id="line2d_21"/>
    <g id="text_17">
     <text style="font-family:DejaVu Sans;font-size:10px;font-style:normal;font-weight:normal;text-anchor:start;" transform="rotate(-0, 486.698437, 232.3575)" x="486.698437" y="232.3575">scfa</text>
    </g>
   </g>
  </g>
 </g>
 <defs>
  <clipPath id="p1ccc4f077f">
   <rect height="326.16" width="446.4" x="72" y="51.84"/>
  </clipPath>
 </defs>
</svg>
