<?xml version="1.0" encoding="utf-8" standalone="no"?>
<!DOCTYPE svg PUBLIC "-//W3C//DTD SVG 1.1//EN"
  "http://www.w3.org/Graphics/SVG/1.1/DTD/svg11.dtd">
<!-- Created with matplotlib (https://matplotlib.org/) -->
<svg height="144pt" version="1.1" viewBox="0 0 1080 144" width="1080pt" xmlns="http://www.w3.org/2000/svg" xmlns:xlink="http://www.w3.org/1999/xlink">
 <defs>
  <style type="text/css">
*{stroke-linecap:butt;stroke-linejoin:round;}
  </style>
 </defs>
 <g id="figure_1">
  <g id="patch_1">
   <path d="M 0 144 
L 1080 144 
L 1080 0 
L 0 0 
z
" style="fill:#ffffff;"/>
  </g>
  <g id="axes_1">
   <g id="patch_2">
    <path d="M 38.175 102.2 
L 223.460259 102.2 
L 223.460259 26.8 
L 38.175 26.8 
z
" style="fill:#ffffff;"/>
   </g>
   <g id="matplotlib.axis_1">
    <g id="xtick_1">
     <g id="line2d_1">
      <defs>
       <path d="M 0 0 
L 0 3.5 
" id="m14ab8ae54c" style="stroke:#000000;stroke-width:0.8;"/>
      </defs>
      <g>
       <use style="stroke:#000000;stroke-width:0.8;" x="46.597057" xlink:href="#m14ab8ae54c" y="102.2"/>
      </g>
     </g>
     <g id="text_1">
      <text style="font-family:DejaVu Sans;font-size:10px;font-style:normal;font-weight:normal;text-anchor:middle;" transform="rotate(-0, 46.597057, 116.798437)" x="46.597057" y="116.798437">0</text>
     </g>
    </g>
    <g id="xtick_2">
     <g id="line2d_2">
      <g>
       <use style="stroke:#000000;stroke-width:0.8;" x="100.93291" xlink:href="#m14ab8ae54c" y="102.2"/>
      </g>
     </g>
     <g id="text_2">
      <text style="font-family:DejaVu Sans;font-size:10px;font-style:normal;font-weight:normal;text-anchor:middle;" transform="rotate(-0, 100.93291, 116.798437)" x="100.93291" y="116.798437">10</text>
     </g>
    </g>
    <g id="xtick_3">
     <g id="line2d_3">
      <g>
       <use style="stroke:#000000;stroke-width:0.8;" x="155.268763" xlink:href="#m14ab8ae54c" y="102.2"/>
      </g>
     </g>
     <g id="text_3">
      <text style="font-family:DejaVu Sans;font-size:10px;font-style:normal;font-weight:normal;text-anchor:middle;" transform="rotate(-0, 155.268763, 116.798437)" x="155.268763" y="116.798437">20</text>
     </g>
    </g>
    <g id="xtick_4">
     <g id="line2d_4">
      <g>
       <use style="stroke:#000000;stroke-width:0.8;" x="209.604616" xlink:href="#m14ab8ae54c" y="102.2"/>
      </g>
     </g>
     <g id="text_4">
      <text style="font-family:DejaVu Sans;font-size:10px;font-style:normal;font-weight:normal;text-anchor:middle;" transform="rotate(-0, 209.604616, 116.798437)" x="209.604616" y="116.798437">30</text>
     </g>
    </g>
    <g id="text_5">
     <text style="font-family:DejaVu Sans;font-size:10px;font-style:normal;font-weight:normal;text-anchor:middle;" transform="rotate(-0, 130.817629, 130.476562)" x="130.817629" y="130.476562">Day</text>
    </g>
   </g>
   <g id="matplotlib.axis_2">
    <g id="ytick_1">
     <g id="line2d_5">
      <defs>
       <path d="M 0 0 
L -3.5 0 
" id="m05c4d086f2" style="stroke:#000000;stroke-width:0.8;"/>
      </defs>
      <g>
       <use style="stroke:#000000;stroke-width:0.8;" x="38.175" xlink:href="#m05c4d086f2" y="102.2"/>
      </g>
     </g>
     <g id="text_6">
      <text style="font-family:DejaVu Sans;font-size:10px;font-style:normal;font-weight:normal;text-anchor:end;" transform="rotate(-0, 31.175, 105.999219)" x="31.175" y="105.999219">2</text>
     </g>
    </g>
    <g id="ytick_2">
     <g id="line2d_6">
      <g>
       <use style="stroke:#000000;stroke-width:0.8;" x="38.175" xlink:href="#m05c4d086f2" y="77.066667"/>
      </g>
     </g>
     <g id="text_7">
      <text style="font-family:DejaVu Sans;font-size:10px;font-style:normal;font-weight:normal;text-anchor:end;" transform="rotate(-0, 31.175, 80.865885)" x="31.175" y="80.865885">4</text>
     </g>
    </g>
    <g id="ytick_3">
     <g id="line2d_7">
      <g>
       <use style="stroke:#000000;stroke-width:0.8;" x="38.175" xlink:href="#m05c4d086f2" y="51.933333"/>
      </g>
     </g>
     <g id="text_8">
      <text style="font-family:DejaVu Sans;font-size:10px;font-style:normal;font-weight:normal;text-anchor:end;" transform="rotate(-0, 31.175, 55.732552)" x="31.175" y="55.732552">6</text>
     </g>
    </g>
    <g id="ytick_4">
     <g id="line2d_8">
      <g>
       <use style="stroke:#000000;stroke-width:0.8;" x="38.175" xlink:href="#m05c4d086f2" y="26.8"/>
      </g>
     </g>
     <g id="text_9">
      <text style="font-family:DejaVu Sans;font-size:10px;font-style:normal;font-weight:normal;text-anchor:end;" transform="rotate(-0, 31.175, 30.599219)" x="31.175" y="30.599219">8</text>
     </g>
    </g>
    <g id="text_10">
     <text style="font-family:DejaVu Sans;font-size:10px;font-style:normal;font-weight:normal;text-anchor:middle;" transform="rotate(-90, 18.732812, 64.5)" x="18.732812" y="64.5">AlphaDiversity</text>
    </g>
   </g>
   <g id="line2d_9">
    <defs>
     <path d="M 0 4 
C 1.060812 4 2.078319 3.578535 2.828427 2.828427 
C 3.578535 2.078319 4 1.060812 4 0 
C 4 -1.060812 3.578535 -2.078319 2.828427 -2.828427 
C 2.078319 -3.578535 1.060812 -4 0 -4 
C -1.060812 -4 -2.078319 -3.578535 -2.828427 -2.828427 
C -3.578535 -2.078319 -4 -1.060812 -4 0 
C -4 1.060812 -3.578535 2.078319 -2.828427 2.828427 
C -2.078319 3.578535 -1.060812 4 0 4 
z
" id="m399ad2a2f6" style="stroke:#ffb300;"/>
    </defs>
    <g clip-path="url(#p31ce78aab2)">
     <use style="fill:#ffb300;stroke:#ffb300;" x="46.597057" xlink:href="#m399ad2a2f6" y="55.134115"/>
     <use style="fill:#ffb300;stroke:#ffb300;" x="52.030643" xlink:href="#m399ad2a2f6" y="67.919107"/>
     <use style="fill:#ffb300;stroke:#ffb300;" x="62.897813" xlink:href="#m399ad2a2f6" y="86.500382"/>
     <use style="fill:#ffb300;stroke:#ffb300;" x="73.764984" xlink:href="#m399ad2a2f6" y="68.005792"/>
     <use style="fill:#ffb300;stroke:#ffb300;" x="90.06574" xlink:href="#m399ad2a2f6" y="65.854786"/>
     <use style="fill:#ffb300;stroke:#ffb300;" x="117.233666" xlink:href="#m399ad2a2f6" y="60.319292"/>
     <use style="fill:#ffb300;stroke:#ffb300;" x="149.835178" xlink:href="#m399ad2a2f6" y="59.880573"/>
     <use style="fill:#ffb300;stroke:#ffb300;" x="182.43669" xlink:href="#m399ad2a2f6" y="62.104453"/>
     <use style="fill:#ffb300;stroke:#ffb300;" x="215.038201" xlink:href="#m399ad2a2f6" y="65.744317"/>
    </g>
   </g>
   <g id="line2d_10">
    <path clip-path="url(#p31ce78aab2)" d="M 46.597057 55.134115 
L 48.298483 55.134115 
L 49.999909 55.134115 
L 51.701334 55.134115 
L 53.40276 55.134115 
L 55.104186 55.134115 
L 56.805611 55.134115 
L 58.507037 55.134115 
L 60.208463 55.134115 
L 61.909889 55.134115 
L 63.611314 55.134115 
L 65.31274 55.134115 
L 67.014166 55.134115 
L 68.715591 55.134115 
L 70.417017 55.134115 
L 72.118443 55.134115 
L 73.819868 55.134115 
L 75.521294 55.134115 
L 77.22272 55.134115 
L 78.924145 55.134115 
L 80.625571 55.134115 
L 82.326997 55.134115 
L 84.028423 55.134115 
L 85.729848 55.134115 
L 87.431274 55.134115 
L 89.1327 55.134115 
L 90.834125 55.134115 
L 92.535551 55.134115 
L 94.236977 55.134115 
L 95.938402 55.134115 
L 97.639828 55.134115 
L 99.341254 55.134115 
L 101.04268 55.134115 
L 102.744105 55.134115 
L 104.445531 55.134115 
L 106.146957 55.134115 
L 107.848382 55.134115 
L 109.549808 55.134115 
L 111.251234 55.134115 
L 112.952659 55.134115 
L 114.654085 55.134115 
L 116.355511 55.134115 
L 118.056937 55.134115 
L 119.758362 55.134115 
L 121.459788 55.134115 
L 123.161214 55.134115 
L 124.862639 55.134115 
L 126.564065 55.134115 
L 128.265491 55.134115 
L 129.966916 55.134115 
L 131.668342 55.134115 
L 133.369768 55.134115 
L 135.071194 55.134115 
L 136.772619 55.134115 
L 138.474045 55.134115 
L 140.175471 55.134115 
L 141.876896 55.134115 
L 143.578322 55.134115 
L 145.279748 55.134115 
L 146.981173 55.134115 
L 148.682599 55.134115 
L 150.384025 55.134115 
L 152.085451 55.134115 
L 153.786876 55.134115 
L 155.488302 55.134115 
L 157.189728 55.134115 
L 158.891153 55.134115 
L 160.592579 55.134115 
L 162.294005 55.134115 
L 163.99543 55.134115 
L 165.696856 55.134115 
L 167.398282 55.134115 
L 169.099708 55.134115 
L 170.801133 55.134115 
L 172.502559 55.134115 
L 174.203985 55.134115 
L 175.90541 55.134115 
L 177.606836 55.134115 
L 179.308262 55.134115 
L 181.009687 55.134115 
L 182.711113 55.134115 
L 184.412539 55.134115 
L 186.113965 55.134115 
L 187.81539 55.134115 
L 189.516816 55.134115 
L 191.218242 55.134115 
L 192.919667 55.134115 
L 194.621093 55.134115 
L 196.322519 55.134115 
L 198.023944 55.134115 
L 199.72537 55.134115 
L 201.426796 55.134115 
L 203.128222 55.134115 
L 204.829647 55.134115 
L 206.531073 55.134115 
L 208.232499 55.134115 
L 209.933924 55.134115 
L 211.63535 55.134115 
L 213.336776 55.134115 
L 215.038201 55.134115 
" style="fill:none;stroke:#ffb300;stroke-linecap:square;stroke-width:1.5;"/>
   </g>
   <g id="line2d_11">
    <defs>
     <path d="M 0 4 
C 1.060812 4 2.078319 3.578535 2.828427 2.828427 
C 3.578535 2.078319 4 1.060812 4 0 
C 4 -1.060812 3.578535 -2.078319 2.828427 -2.828427 
C 2.078319 -3.578535 1.060812 -4 0 -4 
C -1.060812 -4 -2.078319 -3.578535 -2.828427 -2.828427 
C -3.578535 -2.078319 -4 -1.060812 -4 0 
C -4 1.060812 -3.578535 2.078319 -2.828427 2.828427 
C -2.078319 3.578535 -1.060812 4 0 4 
z
" id="m65ae0899a3" style="stroke:#803e75;"/>
    </defs>
    <g clip-path="url(#p31ce78aab2)">
     <use style="fill:#803e75;stroke:#803e75;" x="46.597057" xlink:href="#m65ae0899a3" y="55.532087"/>
     <use style="fill:#803e75;stroke:#803e75;" x="52.030643" xlink:href="#m65ae0899a3" y="72.549062"/>
     <use style="fill:#803e75;stroke:#803e75;" x="62.897813" xlink:href="#m65ae0899a3" y="74.049764"/>
     <use style="fill:#803e75;stroke:#803e75;" x="73.764984" xlink:href="#m65ae0899a3" y="66.141756"/>
     <use style="fill:#803e75;stroke:#803e75;" x="90.06574" xlink:href="#m65ae0899a3" y="63.30379"/>
     <use style="fill:#803e75;stroke:#803e75;" x="117.233666" xlink:href="#m65ae0899a3" y="53.378846"/>
     <use style="fill:#803e75;stroke:#803e75;" x="149.835178" xlink:href="#m65ae0899a3" y="60.165487"/>
     <use style="fill:#803e75;stroke:#803e75;" x="182.43669" xlink:href="#m65ae0899a3" y="67.910991"/>
     <use style="fill:#803e75;stroke:#803e75;" x="215.038201" xlink:href="#m65ae0899a3" y="57.659159"/>
    </g>
   </g>
   <g id="line2d_12">
    <path clip-path="url(#p31ce78aab2)" d="M 46.597057 55.532087 
L 48.298483 55.532087 
L 49.999909 55.532087 
L 51.701334 55.532087 
L 53.40276 55.532087 
L 55.104186 55.532087 
L 56.805611 55.532087 
L 58.507037 55.532087 
L 60.208463 55.532087 
L 61.909889 55.532087 
L 63.611314 55.532087 
L 65.31274 55.532087 
L 67.014166 55.532087 
L 68.715591 55.532087 
L 70.417017 55.532087 
L 72.118443 55.532087 
L 73.819868 55.532087 
L 75.521294 55.532087 
L 77.22272 55.532087 
L 78.924145 55.532087 
L 80.625571 55.532087 
L 82.326997 55.532087 
L 84.028423 55.532087 
L 85.729848 55.532087 
L 87.431274 55.532087 
L 89.1327 55.532087 
L 90.834125 55.532087 
L 92.535551 55.532087 
L 94.236977 55.532087 
L 95.938402 55.532087 
L 97.639828 55.532087 
L 99.341254 55.532087 
L 101.04268 55.532087 
L 102.744105 55.532087 
L 104.445531 55.532087 
L 106.146957 55.532087 
L 107.848382 55.532087 
L 109.549808 55.532087 
L 111.251234 55.532087 
L 112.952659 55.532087 
L 114.654085 55.532087 
L 116.355511 55.532087 
L 118.056937 55.532087 
L 119.758362 55.532087 
L 121.459788 55.532087 
L 123.161214 55.532087 
L 124.862639 55.532087 
L 126.564065 55.532087 
L 128.265491 55.532087 
L 129.966916 55.532087 
L 131.668342 55.532087 
L 133.369768 55.532087 
L 135.071194 55.532087 
L 136.772619 55.532087 
L 138.474045 55.532087 
L 140.175471 55.532087 
L 141.876896 55.532087 
L 143.578322 55.532087 
L 145.279748 55.532087 
L 146.981173 55.532087 
L 148.682599 55.532087 
L 150.384025 55.532087 
L 152.085451 55.532087 
L 153.786876 55.532087 
L 155.488302 55.532087 
L 157.189728 55.532087 
L 158.891153 55.532087 
L 160.592579 55.532087 
L 162.294005 55.532087 
L 163.99543 55.532087 
L 165.696856 55.532087 
L 167.398282 55.532087 
L 169.099708 55.532087 
L 170.801133 55.532087 
L 172.502559 55.532087 
L 174.203985 55.532087 
L 175.90541 55.532087 
L 177.606836 55.532087 
L 179.308262 55.532087 
L 181.009687 55.532087 
L 182.711113 55.532087 
L 184.412539 55.532087 
L 186.113965 55.532087 
L 187.81539 55.532087 
L 189.516816 55.532087 
L 191.218242 55.532087 
L 192.919667 55.532087 
L 194.621093 55.532087 
L 196.322519 55.532087 
L 198.023944 55.532087 
L 199.72537 55.532087 
L 201.426796 55.532087 
L 203.128222 55.532087 
L 204.829647 55.532087 
L 206.531073 55.532087 
L 208.232499 55.532087 
L 209.933924 55.532087 
L 211.63535 55.532087 
L 213.336776 55.532087 
L 215.038201 55.532087 
" style="fill:none;stroke:#803e75;stroke-linecap:square;stroke-width:1.5;"/>
   </g>
   <g id="line2d_13">
    <defs>
     <path d="M 0 4 
C 1.060812 4 2.078319 3.578535 2.828427 2.828427 
C 3.578535 2.078319 4 1.060812 4 0 
C 4 -1.060812 3.578535 -2.078319 2.828427 -2.828427 
C 2.078319 -3.578535 1.060812 -4 0 -4 
C -1.060812 -4 -2.078319 -3.578535 -2.828427 -2.828427 
C -3.578535 -2.078319 -4 -1.060812 -4 0 
C -4 1.060812 -3.578535 2.078319 -2.828427 2.828427 
C -2.078319 3.578535 -1.060812 4 0 4 
z
" id="m17588e3637" style="stroke:#ff6800;"/>
    </defs>
    <g clip-path="url(#p31ce78aab2)">
     <use style="fill:#ff6800;stroke:#ff6800;" x="46.597057" xlink:href="#m17588e3637" y="52.805986"/>
     <use style="fill:#ff6800;stroke:#ff6800;" x="52.030643" xlink:href="#m17588e3637" y="68.826259"/>
     <use style="fill:#ff6800;stroke:#ff6800;" x="62.897813" xlink:href="#m17588e3637" y="78.230658"/>
     <use style="fill:#ff6800;stroke:#ff6800;" x="73.764984" xlink:href="#m17588e3637" y="62.823191"/>
     <use style="fill:#ff6800;stroke:#ff6800;" x="90.06574" xlink:href="#m17588e3637" y="62.61899"/>
     <use style="fill:#ff6800;stroke:#ff6800;" x="117.233666" xlink:href="#m17588e3637" y="66.975465"/>
     <use style="fill:#ff6800;stroke:#ff6800;" x="149.835178" xlink:href="#m17588e3637" y="67.051097"/>
     <use style="fill:#ff6800;stroke:#ff6800;" x="182.43669" xlink:href="#m17588e3637" y="65.948068"/>
     <use style="fill:#ff6800;stroke:#ff6800;" x="215.038201" xlink:href="#m17588e3637" y="65.469867"/>
    </g>
   </g>
   <g id="line2d_14">
    <path clip-path="url(#p31ce78aab2)" d="M 46.597057 52.805986 
L 48.298483 52.805986 
L 49.999909 52.805986 
L 51.701334 52.805986 
L 53.40276 52.805986 
L 55.104186 52.805986 
L 56.805611 52.805986 
L 58.507037 52.805986 
L 60.208463 52.805986 
L 61.909889 52.805986 
L 63.611314 52.805986 
L 65.31274 52.805986 
L 67.014166 52.805986 
L 68.715591 52.805986 
L 70.417017 52.805986 
L 72.118443 52.805986 
L 73.819868 52.805986 
L 75.521294 52.805986 
L 77.22272 52.805986 
L 78.924145 52.805986 
L 80.625571 52.805986 
L 82.326997 52.805986 
L 84.028423 52.805986 
L 85.729848 52.805986 
L 87.431274 52.805986 
L 89.1327 52.805986 
L 90.834125 52.805986 
L 92.535551 52.805986 
L 94.236977 52.805986 
L 95.938402 52.805986 
L 97.639828 52.805986 
L 99.341254 52.805986 
L 101.04268 52.805986 
L 102.744105 52.805986 
L 104.445531 52.805986 
L 106.146957 52.805986 
L 107.848382 52.805986 
L 109.549808 52.805986 
L 111.251234 52.805986 
L 112.952659 52.805986 
L 114.654085 52.805986 
L 116.355511 52.805986 
L 118.056937 52.805986 
L 119.758362 52.805986 
L 121.459788 52.805986 
L 123.161214 52.805986 
L 124.862639 52.805986 
L 126.564065 52.805986 
L 128.265491 52.805986 
L 129.966916 52.805986 
L 131.668342 52.805986 
L 133.369768 52.805986 
L 135.071194 52.805986 
L 136.772619 52.805986 
L 138.474045 52.805986 
L 140.175471 52.805986 
L 141.876896 52.805986 
L 143.578322 52.805986 
L 145.279748 52.805986 
L 146.981173 52.805986 
L 148.682599 52.805986 
L 150.384025 52.805986 
L 152.085451 52.805986 
L 153.786876 52.805986 
L 155.488302 52.805986 
L 157.189728 52.805986 
L 158.891153 52.805986 
L 160.592579 52.805986 
L 162.294005 52.805986 
L 163.99543 52.805986 
L 165.696856 52.805986 
L 167.398282 52.805986 
L 169.099708 52.805986 
L 170.801133 52.805986 
L 172.502559 52.805986 
L 174.203985 52.805986 
L 175.90541 52.805986 
L 177.606836 52.805986 
L 179.308262 52.805986 
L 181.009687 52.805986 
L 182.711113 52.805986 
L 184.412539 52.805986 
L 186.113965 52.805986 
L 187.81539 52.805986 
L 189.516816 52.805986 
L 191.218242 52.805986 
L 192.919667 52.805986 
L 194.621093 52.805986 
L 196.322519 52.805986 
L 198.023944 52.805986 
L 199.72537 52.805986 
L 201.426796 52.805986 
L 203.128222 52.805986 
L 204.829647 52.805986 
L 206.531073 52.805986 
L 208.232499 52.805986 
L 209.933924 52.805986 
L 211.63535 52.805986 
L 213.336776 52.805986 
L 215.038201 52.805986 
" style="fill:none;stroke:#ff6800;stroke-linecap:square;stroke-width:1.5;"/>
   </g>
   <g id="line2d_15">
    <defs>
     <path d="M 0 4 
C 1.060812 4 2.078319 3.578535 2.828427 2.828427 
C 3.578535 2.078319 4 1.060812 4 0 
C 4 -1.060812 3.578535 -2.078319 2.828427 -2.828427 
C 2.078319 -3.578535 1.060812 -4 0 -4 
C -1.060812 -4 -2.078319 -3.578535 -2.828427 -2.828427 
C -3.578535 -2.078319 -4 -1.060812 -4 0 
C -4 1.060812 -3.578535 2.078319 -2.828427 2.828427 
C -2.078319 3.578535 -1.060812 4 0 4 
z
" id="mb47bead02c" style="stroke:#a6bdd7;"/>
    </defs>
    <g clip-path="url(#p31ce78aab2)">
     <use style="fill:#a6bdd7;stroke:#a6bdd7;" x="46.597057" xlink:href="#mb47bead02c" y="51.635019"/>
     <use style="fill:#a6bdd7;stroke:#a6bdd7;" x="52.030643" xlink:href="#mb47bead02c" y="87.72903"/>
     <use style="fill:#a6bdd7;stroke:#a6bdd7;" x="62.897813" xlink:href="#mb47bead02c" y="71.684165"/>
     <use style="fill:#a6bdd7;stroke:#a6bdd7;" x="73.764984" xlink:href="#mb47bead02c" y="69.289074"/>
     <use style="fill:#a6bdd7;stroke:#a6bdd7;" x="90.06574" xlink:href="#mb47bead02c" y="66.703259"/>
     <use style="fill:#a6bdd7;stroke:#a6bdd7;" x="117.233666" xlink:href="#mb47bead02c" y="67.372539"/>
     <use style="fill:#a6bdd7;stroke:#a6bdd7;" x="149.835178" xlink:href="#mb47bead02c" y="62.458509"/>
     <use style="fill:#a6bdd7;stroke:#a6bdd7;" x="182.43669" xlink:href="#mb47bead02c" y="61.879795"/>
     <use style="fill:#a6bdd7;stroke:#a6bdd7;" x="215.038201" xlink:href="#mb47bead02c" y="62.772972"/>
    </g>
   </g>
   <g id="line2d_16">
    <path clip-path="url(#p31ce78aab2)" d="M 46.597057 51.635019 
L 48.298483 51.635019 
L 49.999909 51.635019 
L 51.701334 51.635019 
L 53.40276 51.635019 
L 55.104186 51.635019 
L 56.805611 51.635019 
L 58.507037 51.635019 
L 60.208463 51.635019 
L 61.909889 51.635019 
L 63.611314 51.635019 
L 65.31274 51.635019 
L 67.014166 51.635019 
L 68.715591 51.635019 
L 70.417017 51.635019 
L 72.118443 51.635019 
L 73.819868 51.635019 
L 75.521294 51.635019 
L 77.22272 51.635019 
L 78.924145 51.635019 
L 80.625571 51.635019 
L 82.326997 51.635019 
L 84.028423 51.635019 
L 85.729848 51.635019 
L 87.431274 51.635019 
L 89.1327 51.635019 
L 90.834125 51.635019 
L 92.535551 51.635019 
L 94.236977 51.635019 
L 95.938402 51.635019 
L 97.639828 51.635019 
L 99.341254 51.635019 
L 101.04268 51.635019 
L 102.744105 51.635019 
L 104.445531 51.635019 
L 106.146957 51.635019 
L 107.848382 51.635019 
L 109.549808 51.635019 
L 111.251234 51.635019 
L 112.952659 51.635019 
L 114.654085 51.635019 
L 116.355511 51.635019 
L 118.056937 51.635019 
L 119.758362 51.635019 
L 121.459788 51.635019 
L 123.161214 51.635019 
L 124.862639 51.635019 
L 126.564065 51.635019 
L 128.265491 51.635019 
L 129.966916 51.635019 
L 131.668342 51.635019 
L 133.369768 51.635019 
L 135.071194 51.635019 
L 136.772619 51.635019 
L 138.474045 51.635019 
L 140.175471 51.635019 
L 141.876896 51.635019 
L 143.578322 51.635019 
L 145.279748 51.635019 
L 146.981173 51.635019 
L 148.682599 51.635019 
L 150.384025 51.635019 
L 152.085451 51.635019 
L 153.786876 51.635019 
L 155.488302 51.635019 
L 157.189728 51.635019 
L 158.891153 51.635019 
L 160.592579 51.635019 
L 162.294005 51.635019 
L 163.99543 51.635019 
L 165.696856 51.635019 
L 167.398282 51.635019 
L 169.099708 51.635019 
L 170.801133 51.635019 
L 172.502559 51.635019 
L 174.203985 51.635019 
L 175.90541 51.635019 
L 177.606836 51.635019 
L 179.308262 51.635019 
L 181.009687 51.635019 
L 182.711113 51.635019 
L 184.412539 51.635019 
L 186.113965 51.635019 
L 187.81539 51.635019 
L 189.516816 51.635019 
L 191.218242 51.635019 
L 192.919667 51.635019 
L 194.621093 51.635019 
L 196.322519 51.635019 
L 198.023944 51.635019 
L 199.72537 51.635019 
L 201.426796 51.635019 
L 203.128222 51.635019 
L 204.829647 51.635019 
L 206.531073 51.635019 
L 208.232499 51.635019 
L 209.933924 51.635019 
L 211.63535 51.635019 
L 213.336776 51.635019 
L 215.038201 51.635019 
" style="fill:none;stroke:#a6bdd7;stroke-linecap:square;stroke-width:1.5;"/>
   </g>
   <g id="line2d_17">
    <defs>
     <path d="M 0 4 
C 1.060812 4 2.078319 3.578535 2.828427 2.828427 
C 3.578535 2.078319 4 1.060812 4 0 
C 4 -1.060812 3.578535 -2.078319 2.828427 -2.828427 
C 2.078319 -3.578535 1.060812 -4 0 -4 
C -1.060812 -4 -2.078319 -3.578535 -2.828427 -2.828427 
C -3.578535 -2.078319 -4 -1.060812 -4 0 
C -4 1.060812 -3.578535 2.078319 -2.828427 2.828427 
C -2.078319 3.578535 -1.060812 4 0 4 
z
" id="mfb0f59239b" style="stroke:#c10020;"/>
    </defs>
    <g clip-path="url(#p31ce78aab2)">
     <use style="fill:#c10020;stroke:#c10020;" x="46.597057" xlink:href="#mfb0f59239b" y="47.833465"/>
     <use style="fill:#c10020;stroke:#c10020;" x="52.030643" xlink:href="#mfb0f59239b" y="67.96737"/>
     <use style="fill:#c10020;stroke:#c10020;" x="62.897813" xlink:href="#mfb0f59239b" y="67.627917"/>
     <use style="fill:#c10020;stroke:#c10020;" x="73.764984" xlink:href="#mfb0f59239b" y="67.898596"/>
     <use style="fill:#c10020;stroke:#c10020;" x="90.06574" xlink:href="#mfb0f59239b" y="66.584113"/>
     <use style="fill:#c10020;stroke:#c10020;" x="117.233666" xlink:href="#mfb0f59239b" y="61.060788"/>
     <use style="fill:#c10020;stroke:#c10020;" x="149.835178" xlink:href="#mfb0f59239b" y="72.36017"/>
     <use style="fill:#c10020;stroke:#c10020;" x="182.43669" xlink:href="#mfb0f59239b" y="61.837912"/>
     <use style="fill:#c10020;stroke:#c10020;" x="215.038201" xlink:href="#mfb0f59239b" y="70.589871"/>
    </g>
   </g>
   <g id="line2d_18">
    <path clip-path="url(#p31ce78aab2)" d="M 46.597057 47.833465 
L 48.298483 47.833465 
L 49.999909 47.833465 
L 51.701334 47.833465 
L 53.40276 47.833465 
L 55.104186 47.833465 
L 56.805611 47.833465 
L 58.507037 47.833465 
L 60.208463 47.833465 
L 61.909889 47.833465 
L 63.611314 47.833465 
L 65.31274 47.833465 
L 67.014166 47.833465 
L 68.715591 47.833465 
L 70.417017 47.833465 
L 72.118443 47.833465 
L 73.819868 47.833465 
L 75.521294 47.833465 
L 77.22272 47.833465 
L 78.924145 47.833465 
L 80.625571 47.833465 
L 82.326997 47.833465 
L 84.028423 47.833465 
L 85.729848 47.833465 
L 87.431274 47.833465 
L 89.1327 47.833465 
L 90.834125 47.833465 
L 92.535551 47.833465 
L 94.236977 47.833465 
L 95.938402 47.833465 
L 97.639828 47.833465 
L 99.341254 47.833465 
L 101.04268 47.833465 
L 102.744105 47.833465 
L 104.445531 47.833465 
L 106.146957 47.833465 
L 107.848382 47.833465 
L 109.549808 47.833465 
L 111.251234 47.833465 
L 112.952659 47.833465 
L 114.654085 47.833465 
L 116.355511 47.833465 
L 118.056937 47.833465 
L 119.758362 47.833465 
L 121.459788 47.833465 
L 123.161214 47.833465 
L 124.862639 47.833465 
L 126.564065 47.833465 
L 128.265491 47.833465 
L 129.966916 47.833465 
L 131.668342 47.833465 
L 133.369768 47.833465 
L 135.071194 47.833465 
L 136.772619 47.833465 
L 138.474045 47.833465 
L 140.175471 47.833465 
L 141.876896 47.833465 
L 143.578322 47.833465 
L 145.279748 47.833465 
L 146.981173 47.833465 
L 148.682599 47.833465 
L 150.384025 47.833465 
L 152.085451 47.833465 
L 153.786876 47.833465 
L 155.488302 47.833465 
L 157.189728 47.833465 
L 158.891153 47.833465 
L 160.592579 47.833465 
L 162.294005 47.833465 
L 163.99543 47.833465 
L 165.696856 47.833465 
L 167.398282 47.833465 
L 169.099708 47.833465 
L 170.801133 47.833465 
L 172.502559 47.833465 
L 174.203985 47.833465 
L 175.90541 47.833465 
L 177.606836 47.833465 
L 179.308262 47.833465 
L 181.009687 47.833465 
L 182.711113 47.833465 
L 184.412539 47.833465 
L 186.113965 47.833465 
L 187.81539 47.833465 
L 189.516816 47.833465 
L 191.218242 47.833465 
L 192.919667 47.833465 
L 194.621093 47.833465 
L 196.322519 47.833465 
L 198.023944 47.833465 
L 199.72537 47.833465 
L 201.426796 47.833465 
L 203.128222 47.833465 
L 204.829647 47.833465 
L 206.531073 47.833465 
L 208.232499 47.833465 
L 209.933924 47.833465 
L 211.63535 47.833465 
L 213.336776 47.833465 
L 215.038201 47.833465 
" style="fill:none;stroke:#c10020;stroke-linecap:square;stroke-width:1.5;"/>
   </g>
   <g id="patch_3">
    <path d="M 38.175 102.2 
L 38.175 26.8 
" style="fill:none;stroke:#000000;stroke-linecap:square;stroke-linejoin:miter;stroke-width:0.8;"/>
   </g>
   <g id="patch_4">
    <path d="M 223.460259 102.2 
L 223.460259 26.8 
" style="fill:none;stroke:#000000;stroke-linecap:square;stroke-linejoin:miter;stroke-width:0.8;"/>
   </g>
   <g id="patch_5">
    <path d="M 38.175 102.2 
L 223.460259 102.2 
" style="fill:none;stroke:#000000;stroke-linecap:square;stroke-linejoin:miter;stroke-width:0.8;"/>
   </g>
   <g id="patch_6">
    <path d="M 38.175 26.8 
L 223.460259 26.8 
" style="fill:none;stroke:#000000;stroke-linecap:square;stroke-linejoin:miter;stroke-width:0.8;"/>
   </g>
   <g id="text_11">
    <text style="font-family:DejaVu Sans;font-size:12px;font-style:normal;font-weight:normal;text-anchor:middle;" transform="rotate(-0, 130.817629, 20.8)" x="130.817629" y="20.8">Beijing</text>
   </g>
  </g>
  <g id="axes_2">
   <g id="patch_7">
    <path d="M 248.260259 102.2 
L 433.545517 102.2 
L 433.545517 26.8 
L 248.260259 26.8 
z
" style="fill:#ffffff;"/>
   </g>
   <g id="matplotlib.axis_3">
    <g id="xtick_5">
     <g id="line2d_19">
      <g>
       <use style="stroke:#000000;stroke-width:0.8;" x="256.682316" xlink:href="#m14ab8ae54c" y="102.2"/>
      </g>
     </g>
     <g id="text_12">
      <text style="font-family:DejaVu Sans;font-size:10px;font-style:normal;font-weight:normal;text-anchor:middle;" transform="rotate(-0, 256.682316, 116.798437)" x="256.682316" y="116.798437">0</text>
     </g>
    </g>
    <g id="xtick_6">
     <g id="line2d_20">
      <g>
       <use style="stroke:#000000;stroke-width:0.8;" x="311.018169" xlink:href="#m14ab8ae54c" y="102.2"/>
      </g>
     </g>
     <g id="text_13">
      <text style="font-family:DejaVu Sans;font-size:10px;font-style:normal;font-weight:normal;text-anchor:middle;" transform="rotate(-0, 311.018169, 116.798437)" x="311.018169" y="116.798437">10</text>
     </g>
    </g>
    <g id="xtick_7">
     <g id="line2d_21">
      <g>
       <use style="stroke:#000000;stroke-width:0.8;" x="365.354022" xlink:href="#m14ab8ae54c" y="102.2"/>
      </g>
     </g>
     <g id="text_14">
      <text style="font-family:DejaVu Sans;font-size:10px;font-style:normal;font-weight:normal;text-anchor:middle;" transform="rotate(-0, 365.354022, 116.798437)" x="365.354022" y="116.798437">20</text>
     </g>
    </g>
    <g id="xtick_8">
     <g id="line2d_22">
      <g>
       <use style="stroke:#000000;stroke-width:0.8;" x="419.689875" xlink:href="#m14ab8ae54c" y="102.2"/>
      </g>
     </g>
     <g id="text_15">
      <text style="font-family:DejaVu Sans;font-size:10px;font-style:normal;font-weight:normal;text-anchor:middle;" transform="rotate(-0, 419.689875, 116.798437)" x="419.689875" y="116.798437">30</text>
     </g>
    </g>
    <g id="text_16">
     <text style="font-family:DejaVu Sans;font-size:10px;font-style:normal;font-weight:normal;text-anchor:middle;" transform="rotate(-0, 340.902888, 130.476562)" x="340.902888" y="130.476562">Day</text>
    </g>
   </g>
   <g id="matplotlib.axis_4">
    <g id="ytick_5">
     <g id="line2d_23">
      <g>
       <use style="stroke:#000000;stroke-width:0.8;" x="248.260259" xlink:href="#m05c4d086f2" y="102.2"/>
      </g>
     </g>
    </g>
    <g id="ytick_6">
     <g id="line2d_24">
      <g>
       <use style="stroke:#000000;stroke-width:0.8;" x="248.260259" xlink:href="#m05c4d086f2" y="77.066667"/>
      </g>
     </g>
    </g>
    <g id="ytick_7">
     <g id="line2d_25">
      <g>
       <use style="stroke:#000000;stroke-width:0.8;" x="248.260259" xlink:href="#m05c4d086f2" y="51.933333"/>
      </g>
     </g>
    </g>
    <g id="ytick_8">
     <g id="line2d_26">
      <g>
       <use style="stroke:#000000;stroke-width:0.8;" x="248.260259" xlink:href="#m05c4d086f2" y="26.8"/>
      </g>
     </g>
    </g>
    <g id="text_17">
     <text style="font-family:DejaVu Sans;font-size:10px;font-style:normal;font-weight:normal;text-anchor:middle;" transform="rotate(-90, 242.180571, 64.5)" x="242.180571" y="64.5">AlphaDiversity</text>
    </g>
   </g>
   <g id="line2d_27">
    <g clip-path="url(#p45ab941ca8)">
     <use style="fill:#ffb300;stroke:#ffb300;" x="256.682316" xlink:href="#m399ad2a2f6" y="45.636481"/>
     <use style="fill:#ffb300;stroke:#ffb300;" x="262.115901" xlink:href="#m399ad2a2f6" y="66.814287"/>
     <use style="fill:#ffb300;stroke:#ffb300;" x="272.983072" xlink:href="#m399ad2a2f6" y="56.965447"/>
     <use style="fill:#ffb300;stroke:#ffb300;" x="283.850242" xlink:href="#m399ad2a2f6" y="50.400053"/>
     <use style="fill:#ffb300;stroke:#ffb300;" x="300.150998" xlink:href="#m399ad2a2f6" y="61.612601"/>
     <use style="fill:#ffb300;stroke:#ffb300;" x="327.318925" xlink:href="#m399ad2a2f6" y="53.708415"/>
     <use style="fill:#ffb300;stroke:#ffb300;" x="359.920436" xlink:href="#m399ad2a2f6" y="60.478579"/>
     <use style="fill:#ffb300;stroke:#ffb300;" x="392.521948" xlink:href="#m399ad2a2f6" y="55.977843"/>
     <use style="fill:#ffb300;stroke:#ffb300;" x="425.12346" xlink:href="#m399ad2a2f6" y="52.624274"/>
    </g>
   </g>
   <g id="line2d_28">
    <path clip-path="url(#p45ab941ca8)" d="M 256.682316 45.636481 
L 258.383742 45.636481 
L 260.085167 45.636481 
L 261.786593 45.636481 
L 263.488019 45.636481 
L 265.189444 45.636481 
L 266.89087 45.636481 
L 268.592296 45.636481 
L 270.293721 45.636481 
L 271.995147 45.636481 
L 273.696573 45.636481 
L 275.397999 45.636481 
L 277.099424 45.636481 
L 278.80085 45.636481 
L 280.502276 45.636481 
L 282.203701 45.636481 
L 283.905127 45.636481 
L 285.606553 45.636481 
L 287.307978 45.636481 
L 289.009404 45.636481 
L 290.71083 45.636481 
L 292.412256 45.636481 
L 294.113681 45.636481 
L 295.815107 45.636481 
L 297.516533 45.636481 
L 299.217958 45.636481 
L 300.919384 45.636481 
L 302.62081 45.636481 
L 304.322235 45.636481 
L 306.023661 45.636481 
L 307.725087 45.636481 
L 309.426512 45.636481 
L 311.127938 45.636481 
L 312.829364 45.636481 
L 314.53079 45.636481 
L 316.232215 45.636481 
L 317.933641 45.636481 
L 319.635067 45.636481 
L 321.336492 45.636481 
L 323.037918 45.636481 
L 324.739344 45.636481 
L 326.440769 45.636481 
L 328.142195 45.636481 
L 329.843621 45.636481 
L 331.545047 45.636481 
L 333.246472 45.636481 
L 334.947898 45.636481 
L 336.649324 45.636481 
L 338.350749 45.636481 
L 340.052175 45.636481 
L 341.753601 45.636481 
L 343.455026 45.636481 
L 345.156452 45.636481 
L 346.857878 45.636481 
L 348.559304 45.636481 
L 350.260729 45.636481 
L 351.962155 45.636481 
L 353.663581 45.636481 
L 355.365006 45.636481 
L 357.066432 45.636481 
L 358.767858 45.636481 
L 360.469283 45.636481 
L 362.170709 45.636481 
L 363.872135 45.636481 
L 365.573561 45.636481 
L 367.274986 45.636481 
L 368.976412 45.636481 
L 370.677838 45.636481 
L 372.379263 45.636481 
L 374.080689 45.636481 
L 375.782115 45.636481 
L 377.48354 45.636481 
L 379.184966 45.636481 
L 380.886392 45.636481 
L 382.587818 45.636481 
L 384.289243 45.636481 
L 385.990669 45.636481 
L 387.692095 45.636481 
L 389.39352 45.636481 
L 391.094946 45.636481 
L 392.796372 45.636481 
L 394.497797 45.636481 
L 396.199223 45.636481 
L 397.900649 45.636481 
L 399.602075 45.636481 
L 401.3035 45.636481 
L 403.004926 45.636481 
L 404.706352 45.636481 
L 406.407777 45.636481 
L 408.109203 45.636481 
L 409.810629 45.636481 
L 411.512054 45.636481 
L 413.21348 45.636481 
L 414.914906 45.636481 
L 416.616332 45.636481 
L 418.317757 45.636481 
L 420.019183 45.636481 
L 421.720609 45.636481 
L 423.422034 45.636481 
L 425.12346 45.636481 
" style="fill:none;stroke:#ffb300;stroke-linecap:square;stroke-width:1.5;"/>
   </g>
   <g id="line2d_29">
    <g clip-path="url(#p45ab941ca8)">
     <use style="fill:#803e75;stroke:#803e75;" x="256.682316" xlink:href="#m65ae0899a3" y="50.174792"/>
     <use style="fill:#803e75;stroke:#803e75;" x="262.115901" xlink:href="#m65ae0899a3" y="61.524795"/>
     <use style="fill:#803e75;stroke:#803e75;" x="272.983072" xlink:href="#m65ae0899a3" y="53.745484"/>
     <use style="fill:#803e75;stroke:#803e75;" x="283.850242" xlink:href="#m65ae0899a3" y="45.34139"/>
     <use style="fill:#803e75;stroke:#803e75;" x="300.150998" xlink:href="#m65ae0899a3" y="77.392987"/>
     <use style="fill:#803e75;stroke:#803e75;" x="327.318925" xlink:href="#m65ae0899a3" y="68.501938"/>
     <use style="fill:#803e75;stroke:#803e75;" x="359.920436" xlink:href="#m65ae0899a3" y="63.582648"/>
     <use style="fill:#803e75;stroke:#803e75;" x="392.521948" xlink:href="#m65ae0899a3" y="39.113505"/>
     <use style="fill:#803e75;stroke:#803e75;" x="425.12346" xlink:href="#m65ae0899a3" y="47.348935"/>
    </g>
   </g>
   <g id="line2d_30">
    <path clip-path="url(#p45ab941ca8)" d="M 256.682316 50.174792 
L 258.383742 50.174792 
L 260.085167 50.174792 
L 261.786593 50.174792 
L 263.488019 50.174792 
L 265.189444 50.174792 
L 266.89087 50.174792 
L 268.592296 50.174792 
L 270.293721 50.174792 
L 271.995147 50.174792 
L 273.696573 50.174792 
L 275.397999 50.174792 
L 277.099424 50.174792 
L 278.80085 50.174792 
L 280.502276 50.174791 
L 282.203701 50.174791 
L 283.905127 50.17479 
L 285.606553 50.174789 
L 287.307978 50.174787 
L 289.009404 50.174784 
L 290.71083 50.174779 
L 292.412256 50.174772 
L 294.113681 50.17476 
L 295.815107 50.174742 
L 297.516533 50.174715 
L 299.217958 50.174677 
L 300.919384 50.174622 
L 302.62081 50.174544 
L 304.322235 50.174435 
L 306.023661 50.174286 
L 307.725087 50.174081 
L 309.426512 50.173806 
L 311.127938 50.173438 
L 312.829364 50.17295 
L 314.53079 50.172309 
L 316.232215 50.171475 
L 317.933641 50.170397 
L 319.635067 50.169012 
L 321.336492 50.167248 
L 323.037918 50.165014 
L 324.739344 50.162203 
L 326.440769 50.158686 
L 328.142195 50.154311 
L 329.843621 50.1489 
L 331.545047 50.142243 
L 333.246472 50.134094 
L 334.947898 50.12417 
L 336.649324 50.112144 
L 338.350749 50.097643 
L 340.052175 50.080241 
L 341.753601 50.05946 
L 343.455026 50.034764 
L 345.156452 50.005558 
L 346.857878 49.971193 
L 348.559304 49.930964 
L 350.260729 49.884117 
L 351.962155 49.829863 
L 353.663581 49.767387 
L 355.365006 49.69587 
L 357.066432 49.614514 
L 358.767858 49.522568 
L 360.469283 49.41937 
L 362.170709 49.304379 
L 363.872135 49.177221 
L 365.573561 49.037728 
L 367.274986 48.885976 
L 368.976412 48.722315 
L 370.677838 48.547391 
L 372.379263 48.362153 
L 374.080689 48.167838 
L 375.782115 47.965953 
L 377.48354 47.758219 
L 379.184966 47.546523 
L 380.886392 47.332842 
L 382.587818 47.119174 
L 384.289243 46.907462 
L 385.990669 46.699527 
L 387.692095 46.497016 
L 389.39352 46.301356 
L 391.094946 46.113727 
L 392.796372 45.935053 
L 394.497797 45.766003 
L 396.199223 45.607004 
L 397.900649 45.458264 
L 399.602075 45.319797 
L 401.3035 45.191457 
L 403.004926 45.072965 
L 404.706352 44.963942 
L 406.407777 44.863933 
L 408.109203 44.772433 
L 409.810629 44.688908 
L 411.512054 44.612809 
L 413.21348 44.54359 
L 414.914906 44.480714 
L 416.616332 44.423662 
L 418.317757 44.371943 
L 420.019183 44.325089 
L 421.720609 44.282666 
L 423.422034 44.244268 
L 425.12346 44.209521 
" style="fill:none;stroke:#803e75;stroke-linecap:square;stroke-width:1.5;"/>
   </g>
   <g id="line2d_31">
    <g clip-path="url(#p45ab941ca8)">
     <use style="fill:#ff6800;stroke:#ff6800;" x="256.682316" xlink:href="#m17588e3637" y="47.753768"/>
     <use style="fill:#ff6800;stroke:#ff6800;" x="262.115901" xlink:href="#m17588e3637" y="63.877895"/>
     <use style="fill:#ff6800;stroke:#ff6800;" x="272.983072" xlink:href="#m17588e3637" y="58.171021"/>
     <use style="fill:#ff6800;stroke:#ff6800;" x="283.850242" xlink:href="#m17588e3637" y="58.894849"/>
     <use style="fill:#ff6800;stroke:#ff6800;" x="300.150998" xlink:href="#m17588e3637" y="67.837907"/>
     <use style="fill:#ff6800;stroke:#ff6800;" x="327.318925" xlink:href="#m17588e3637" y="66.473818"/>
     <use style="fill:#ff6800;stroke:#ff6800;" x="359.920436" xlink:href="#m17588e3637" y="64.298943"/>
     <use style="fill:#ff6800;stroke:#ff6800;" x="392.521948" xlink:href="#m17588e3637" y="41.747032"/>
     <use style="fill:#ff6800;stroke:#ff6800;" x="425.12346" xlink:href="#m17588e3637" y="44.106099"/>
    </g>
   </g>
   <g id="line2d_32">
    <path clip-path="url(#p45ab941ca8)" d="M 256.682316 47.753768 
L 258.383742 47.753768 
L 260.085167 47.753768 
L 261.786593 47.753768 
L 263.488019 47.753768 
L 265.189444 47.753768 
L 266.89087 47.753768 
L 268.592296 47.753768 
L 270.293721 47.753768 
L 271.995147 47.753768 
L 273.696573 47.753768 
L 275.397999 47.753768 
L 277.099424 47.753768 
L 278.80085 47.753768 
L 280.502276 47.753768 
L 282.203701 47.753768 
L 283.905127 47.753768 
L 285.606553 47.753768 
L 287.307978 47.753767 
L 289.009404 47.753766 
L 290.71083 47.753765 
L 292.412256 47.753762 
L 294.113681 47.753759 
L 295.815107 47.753753 
L 297.516533 47.753745 
L 299.217958 47.753734 
L 300.919384 47.753717 
L 302.62081 47.753694 
L 304.322235 47.753661 
L 306.023661 47.753616 
L 307.725087 47.753554 
L 309.426512 47.753471 
L 311.127938 47.753359 
L 312.829364 47.753212 
L 314.53079 47.753019 
L 316.232215 47.752767 
L 317.933641 47.752441 
L 319.635067 47.752023 
L 321.336492 47.75149 
L 323.037918 47.750814 
L 324.739344 47.749964 
L 326.440769 47.7489 
L 328.142195 47.747576 
L 329.843621 47.745937 
L 331.545047 47.743919 
L 333.246472 47.741446 
L 334.947898 47.738431 
L 336.649324 47.734773 
L 338.350749 47.730352 
L 340.052175 47.725037 
L 341.753601 47.718672 
L 343.455026 47.711084 
L 345.156452 47.702078 
L 346.857878 47.691435 
L 348.559304 47.678911 
L 350.260729 47.664239 
L 351.962155 47.647128 
L 353.663581 47.627263 
L 355.365006 47.604309 
L 357.066432 47.577916 
L 358.767858 47.547721 
L 360.469283 47.513356 
L 362.170709 47.474463 
L 363.872135 47.430695 
L 365.573561 47.38174 
L 367.274986 47.327329 
L 368.976412 47.267253 
L 370.677838 47.201385 
L 372.379263 47.129687 
L 374.080689 47.052233 
L 375.782115 46.969215 
L 377.48354 46.880951 
L 379.184966 46.787886 
L 380.886392 46.690587 
L 382.587818 46.589732 
L 384.289243 46.486093 
L 385.990669 46.380508 
L 387.692095 46.273858 
L 389.39352 46.167037 
L 391.094946 46.06092 
L 392.796372 45.95634 
L 394.497797 45.85406 
L 396.199223 45.754756 
L 397.900649 45.659004 
L 399.602075 45.567273 
L 401.3035 45.479924 
L 403.004926 45.39721 
L 404.706352 45.319287 
L 406.407777 45.24622 
L 408.109203 45.177998 
L 409.810629 45.114543 
L 411.512054 45.055723 
L 413.21348 45.001366 
L 414.914906 44.951268 
L 416.616332 44.905205 
L 418.317757 44.862938 
L 420.019183 44.824222 
L 421.720609 44.788813 
L 423.422034 44.756469 
L 425.12346 44.726957 
" style="fill:none;stroke:#ff6800;stroke-linecap:square;stroke-width:1.5;"/>
   </g>
   <g id="line2d_33">
    <g clip-path="url(#p45ab941ca8)">
     <use style="fill:#a6bdd7;stroke:#a6bdd7;" x="256.682316" xlink:href="#mb47bead02c" y="48.289831"/>
     <use style="fill:#a6bdd7;stroke:#a6bdd7;" x="262.115901" xlink:href="#mb47bead02c" y="54.608372"/>
     <use style="fill:#a6bdd7;stroke:#a6bdd7;" x="272.983072" xlink:href="#mb47bead02c" y="55.77698"/>
     <use style="fill:#a6bdd7;stroke:#a6bdd7;" x="283.850242" xlink:href="#mb47bead02c" y="64.880136"/>
     <use style="fill:#a6bdd7;stroke:#a6bdd7;" x="300.150998" xlink:href="#mb47bead02c" y="73.559704"/>
     <use style="fill:#a6bdd7;stroke:#a6bdd7;" x="327.318925" xlink:href="#mb47bead02c" y="69.716954"/>
     <use style="fill:#a6bdd7;stroke:#a6bdd7;" x="359.920436" xlink:href="#mb47bead02c" y="63.823294"/>
     <use style="fill:#a6bdd7;stroke:#a6bdd7;" x="392.521948" xlink:href="#mb47bead02c" y="61.98722"/>
     <use style="fill:#a6bdd7;stroke:#a6bdd7;" x="425.12346" xlink:href="#mb47bead02c" y="57.222531"/>
    </g>
   </g>
   <g id="line2d_34">
    <path clip-path="url(#p45ab941ca8)" d="M 256.682316 48.289831 
L 258.383742 48.289831 
L 260.085167 48.289831 
L 261.786593 48.289831 
L 263.488019 48.289831 
L 265.189444 48.289831 
L 266.89087 48.289831 
L 268.592296 48.289831 
L 270.293721 48.289831 
L 271.995147 48.289831 
L 273.696573 48.289831 
L 275.397999 48.289831 
L 277.099424 48.289831 
L 278.80085 48.289831 
L 280.502276 48.289831 
L 282.203701 48.289831 
L 283.905127 48.289831 
L 285.606553 48.289831 
L 287.307978 48.289831 
L 289.009404 48.289831 
L 290.71083 48.289831 
L 292.412256 48.289831 
L 294.113681 48.289831 
L 295.815107 48.289831 
L 297.516533 48.289831 
L 299.217958 48.289831 
L 300.919384 48.289831 
L 302.62081 48.289831 
L 304.322235 48.289831 
L 306.023661 48.289831 
L 307.725087 48.289831 
L 309.426512 48.289831 
L 311.127938 48.289831 
L 312.829364 48.289831 
L 314.53079 48.289831 
L 316.232215 48.289831 
L 317.933641 48.289831 
L 319.635067 48.289831 
L 321.336492 48.289831 
L 323.037918 48.289831 
L 324.739344 48.289831 
L 326.440769 48.289831 
L 328.142195 48.289831 
L 329.843621 48.289831 
L 331.545047 48.289831 
L 333.246472 48.289831 
L 334.947898 48.289831 
L 336.649324 48.289831 
L 338.350749 48.289831 
L 340.052175 48.289831 
L 341.753601 48.289831 
L 343.455026 48.289831 
L 345.156452 48.289831 
L 346.857878 48.289831 
L 348.559304 48.289831 
L 350.260729 48.289831 
L 351.962155 48.289831 
L 353.663581 48.289831 
L 355.365006 48.289831 
L 357.066432 48.289831 
L 358.767858 48.289831 
L 360.469283 48.289831 
L 362.170709 48.289831 
L 363.872135 48.289831 
L 365.573561 48.289831 
L 367.274986 48.289831 
L 368.976412 48.289831 
L 370.677838 48.289831 
L 372.379263 48.289831 
L 374.080689 48.289831 
L 375.782115 48.289831 
L 377.48354 48.289831 
L 379.184966 48.289831 
L 380.886392 48.289831 
L 382.587818 48.289831 
L 384.289243 48.289831 
L 385.990669 48.289831 
L 387.692095 48.289831 
L 389.39352 48.289831 
L 391.094946 48.289831 
L 392.796372 48.289831 
L 394.497797 48.289831 
L 396.199223 48.289831 
L 397.900649 48.289831 
L 399.602075 48.289831 
L 401.3035 48.289831 
L 403.004926 48.289831 
L 404.706352 48.289831 
L 406.407777 48.289831 
L 408.109203 48.289831 
L 409.810629 48.289831 
L 411.512054 48.289831 
L 413.21348 48.289831 
L 414.914906 48.289831 
L 416.616332 48.289831 
L 418.317757 48.289831 
L 420.019183 48.289831 
L 421.720609 48.289831 
L 423.422034 48.289831 
L 425.12346 48.289831 
" style="fill:none;stroke:#a6bdd7;stroke-linecap:square;stroke-width:1.5;"/>
   </g>
   <g id="patch_8">
    <path d="M 248.260259 102.2 
L 248.260259 26.8 
" style="fill:none;stroke:#000000;stroke-linecap:square;stroke-linejoin:miter;stroke-width:0.8;"/>
   </g>
   <g id="patch_9">
    <path d="M 433.545517 102.2 
L 433.545517 26.8 
" style="fill:none;stroke:#000000;stroke-linecap:square;stroke-linejoin:miter;stroke-width:0.8;"/>
   </g>
   <g id="patch_10">
    <path d="M 248.260259 102.2 
L 433.545517 102.2 
" style="fill:none;stroke:#000000;stroke-linecap:square;stroke-linejoin:miter;stroke-width:0.8;"/>
   </g>
   <g id="patch_11">
    <path d="M 248.260259 26.8 
L 433.545517 26.8 
" style="fill:none;stroke:#000000;stroke-linecap:square;stroke-linejoin:miter;stroke-width:0.8;"/>
   </g>
   <g id="text_18">
    <text style="font-family:DejaVu Sans;font-size:12px;font-style:normal;font-weight:normal;text-anchor:middle;" transform="rotate(-0, 340.902888, 20.8)" x="340.902888" y="20.8">Guangdong</text>
   </g>
  </g>
  <g id="axes_3">
   <g id="patch_12">
    <path d="M 458.345517 102.2 
L 643.630776 102.2 
L 643.630776 26.8 
L 458.345517 26.8 
z
" style="fill:#ffffff;"/>
   </g>
   <g id="matplotlib.axis_5">
    <g id="xtick_9">
     <g id="line2d_35">
      <g>
       <use style="stroke:#000000;stroke-width:0.8;" x="466.767574" xlink:href="#m14ab8ae54c" y="102.2"/>
      </g>
     </g>
     <g id="text_19">
      <text style="font-family:DejaVu Sans;font-size:10px;font-style:normal;font-weight:normal;text-anchor:middle;" transform="rotate(-0, 466.767574, 116.798437)" x="466.767574" y="116.798437">0</text>
     </g>
    </g>
    <g id="xtick_10">
     <g id="line2d_36">
      <g>
       <use style="stroke:#000000;stroke-width:0.8;" x="521.103427" xlink:href="#m14ab8ae54c" y="102.2"/>
      </g>
     </g>
     <g id="text_20">
      <text style="font-family:DejaVu Sans;font-size:10px;font-style:normal;font-weight:normal;text-anchor:middle;" transform="rotate(-0, 521.103427, 116.798437)" x="521.103427" y="116.798437">10</text>
     </g>
    </g>
    <g id="xtick_11">
     <g id="line2d_37">
      <g>
       <use style="stroke:#000000;stroke-width:0.8;" x="575.43928" xlink:href="#m14ab8ae54c" y="102.2"/>
      </g>
     </g>
     <g id="text_21">
      <text style="font-family:DejaVu Sans;font-size:10px;font-style:normal;font-weight:normal;text-anchor:middle;" transform="rotate(-0, 575.43928, 116.798437)" x="575.43928" y="116.798437">20</text>
     </g>
    </g>
    <g id="xtick_12">
     <g id="line2d_38">
      <g>
       <use style="stroke:#000000;stroke-width:0.8;" x="629.775133" xlink:href="#m14ab8ae54c" y="102.2"/>
      </g>
     </g>
     <g id="text_22">
      <text style="font-family:DejaVu Sans;font-size:10px;font-style:normal;font-weight:normal;text-anchor:middle;" transform="rotate(-0, 629.775133, 116.798437)" x="629.775133" y="116.798437">30</text>
     </g>
    </g>
    <g id="text_23">
     <text style="font-family:DejaVu Sans;font-size:10px;font-style:normal;font-weight:normal;text-anchor:middle;" transform="rotate(-0, 550.988147, 130.476562)" x="550.988147" y="130.476562">Day</text>
    </g>
   </g>
   <g id="matplotlib.axis_6">
    <g id="ytick_9">
     <g id="line2d_39">
      <g>
       <use style="stroke:#000000;stroke-width:0.8;" x="458.345517" xlink:href="#m05c4d086f2" y="102.2"/>
      </g>
     </g>
    </g>
    <g id="ytick_10">
     <g id="line2d_40">
      <g>
       <use style="stroke:#000000;stroke-width:0.8;" x="458.345517" xlink:href="#m05c4d086f2" y="77.066667"/>
      </g>
     </g>
    </g>
    <g id="ytick_11">
     <g id="line2d_41">
      <g>
       <use style="stroke:#000000;stroke-width:0.8;" x="458.345517" xlink:href="#m05c4d086f2" y="51.933333"/>
      </g>
     </g>
    </g>
    <g id="ytick_12">
     <g id="line2d_42">
      <g>
       <use style="stroke:#000000;stroke-width:0.8;" x="458.345517" xlink:href="#m05c4d086f2" y="26.8"/>
      </g>
     </g>
    </g>
    <g id="text_24">
     <text style="font-family:DejaVu Sans;font-size:10px;font-style:normal;font-weight:normal;text-anchor:middle;" transform="rotate(-90, 452.26583, 64.5)" x="452.26583" y="64.5">AlphaDiversity</text>
    </g>
   </g>
   <g id="line2d_43">
    <g clip-path="url(#p001235c716)">
     <use style="fill:#ffb300;stroke:#ffb300;" x="466.767574" xlink:href="#m399ad2a2f6" y="64.67324"/>
     <use style="fill:#ffb300;stroke:#ffb300;" x="472.20116" xlink:href="#m399ad2a2f6" y="75.864507"/>
     <use style="fill:#ffb300;stroke:#ffb300;" x="483.06833" xlink:href="#m399ad2a2f6" y="79.641359"/>
     <use style="fill:#ffb300;stroke:#ffb300;" x="493.935501" xlink:href="#m399ad2a2f6" y="72.257902"/>
     <use style="fill:#ffb300;stroke:#ffb300;" x="510.236257" xlink:href="#m399ad2a2f6" y="74.765223"/>
     <use style="fill:#ffb300;stroke:#ffb300;" x="537.404183" xlink:href="#m399ad2a2f6" y="69.994206"/>
     <use style="fill:#ffb300;stroke:#ffb300;" x="570.005695" xlink:href="#m399ad2a2f6" y="73.659551"/>
     <use style="fill:#ffb300;stroke:#ffb300;" x="602.607207" xlink:href="#m399ad2a2f6" y="69.449904"/>
     <use style="fill:#ffb300;stroke:#ffb300;" x="635.208719" xlink:href="#m399ad2a2f6" y="72.526147"/>
    </g>
   </g>
   <g id="line2d_44">
    <path clip-path="url(#p001235c716)" d="M 466.767574 64.67324 
L 468.469 64.67324 
L 470.170426 64.67324 
L 471.871852 64.67324 
L 473.573277 64.67324 
L 475.274703 64.67324 
L 476.976129 64.67324 
L 478.677554 64.67324 
L 480.37898 64.67324 
L 482.080406 64.67324 
L 483.781831 64.67324 
L 485.483257 64.67324 
L 487.184683 64.67324 
L 488.886109 64.67324 
L 490.587534 64.67324 
L 492.28896 64.67324 
L 493.990386 64.67324 
L 495.691811 64.67324 
L 497.393237 64.67324 
L 499.094663 64.67324 
L 500.796088 64.67324 
L 502.497514 64.67324 
L 504.19894 64.67324 
L 505.900366 64.67324 
L 507.601791 64.67324 
L 509.303217 64.67324 
L 511.004643 64.67324 
L 512.706068 64.67324 
L 514.407494 64.67324 
L 516.10892 64.67324 
L 517.810345 64.67324 
L 519.511771 64.67324 
L 521.213197 64.67324 
L 522.914623 64.67324 
L 524.616048 64.67324 
L 526.317474 64.67324 
L 528.0189 64.67324 
L 529.720325 64.67324 
L 531.421751 64.67324 
L 533.123177 64.67324 
L 534.824602 64.67324 
L 536.526028 64.67324 
L 538.227454 64.67324 
L 539.92888 64.67324 
L 541.630305 64.67324 
L 543.331731 64.67324 
L 545.033157 64.67324 
L 546.734582 64.67324 
L 548.436008 64.67324 
L 550.137434 64.67324 
L 551.838859 64.67324 
L 553.540285 64.67324 
L 555.241711 64.67324 
L 556.943136 64.67324 
L 558.644562 64.67324 
L 560.345988 64.67324 
L 562.047414 64.67324 
L 563.748839 64.67324 
L 565.450265 64.67324 
L 567.151691 64.67324 
L 568.853116 64.67324 
L 570.554542 64.67324 
L 572.255968 64.67324 
L 573.957393 64.67324 
L 575.658819 64.67324 
L 577.360245 64.67324 
L 579.061671 64.67324 
L 580.763096 64.67324 
L 582.464522 64.67324 
L 584.165948 64.67324 
L 585.867373 64.67324 
L 587.568799 64.67324 
L 589.270225 64.67324 
L 590.97165 64.67324 
L 592.673076 64.67324 
L 594.374502 64.67324 
L 596.075928 64.67324 
L 597.777353 64.67324 
L 599.478779 64.67324 
L 601.180205 64.67324 
L 602.88163 64.67324 
L 604.583056 64.67324 
L 606.284482 64.67324 
L 607.985907 64.67324 
L 609.687333 64.67324 
L 611.388759 64.67324 
L 613.090185 64.67324 
L 614.79161 64.67324 
L 616.493036 64.67324 
L 618.194462 64.67324 
L 619.895887 64.67324 
L 621.597313 64.67324 
L 623.298739 64.67324 
L 625.000164 64.67324 
L 626.70159 64.67324 
L 628.403016 64.67324 
L 630.104442 64.67324 
L 631.805867 64.67324 
L 633.507293 64.67324 
L 635.208719 64.67324 
" style="fill:none;stroke:#ffb300;stroke-linecap:square;stroke-width:1.5;"/>
   </g>
   <g id="line2d_45">
    <g clip-path="url(#p001235c716)">
     <use style="fill:#803e75;stroke:#803e75;" x="466.767574" xlink:href="#m65ae0899a3" y="56.838922"/>
     <use style="fill:#803e75;stroke:#803e75;" x="472.20116" xlink:href="#m65ae0899a3" y="86.069537"/>
     <use style="fill:#803e75;stroke:#803e75;" x="483.06833" xlink:href="#m65ae0899a3" y="78.600304"/>
     <use style="fill:#803e75;stroke:#803e75;" x="493.935501" xlink:href="#m65ae0899a3" y="62.290714"/>
     <use style="fill:#803e75;stroke:#803e75;" x="510.236257" xlink:href="#m65ae0899a3" y="64.7914"/>
     <use style="fill:#803e75;stroke:#803e75;" x="537.404183" xlink:href="#m65ae0899a3" y="66.205724"/>
     <use style="fill:#803e75;stroke:#803e75;" x="570.005695" xlink:href="#m65ae0899a3" y="66.267041"/>
     <use style="fill:#803e75;stroke:#803e75;" x="602.607207" xlink:href="#m65ae0899a3" y="69.427927"/>
     <use style="fill:#803e75;stroke:#803e75;" x="635.208719" xlink:href="#m65ae0899a3" y="76.208545"/>
    </g>
   </g>
   <g id="line2d_46">
    <path clip-path="url(#p001235c716)" d="M 466.767574 56.838922 
L 468.469 56.838922 
L 470.170426 56.838922 
L 471.871852 56.838922 
L 473.573277 56.838922 
L 475.274703 56.838922 
L 476.976129 56.838922 
L 478.677554 56.838922 
L 480.37898 56.838922 
L 482.080406 56.838922 
L 483.781831 56.838922 
L 485.483257 56.838922 
L 487.184683 56.838922 
L 488.886109 56.838922 
L 490.587534 56.838922 
L 492.28896 56.838922 
L 493.990386 56.838922 
L 495.691811 56.838922 
L 497.393237 56.838922 
L 499.094663 56.838922 
L 500.796088 56.838922 
L 502.497514 56.838922 
L 504.19894 56.838922 
L 505.900366 56.838922 
L 507.601791 56.838922 
L 509.303217 56.838922 
L 511.004643 56.838922 
L 512.706068 56.838922 
L 514.407494 56.838922 
L 516.10892 56.838922 
L 517.810345 56.838922 
L 519.511771 56.838922 
L 521.213197 56.838922 
L 522.914623 56.838922 
L 524.616048 56.838922 
L 526.317474 56.838922 
L 528.0189 56.838922 
L 529.720325 56.838922 
L 531.421751 56.838922 
L 533.123177 56.838922 
L 534.824602 56.838922 
L 536.526028 56.838922 
L 538.227454 56.838922 
L 539.92888 56.838922 
L 541.630305 56.838922 
L 543.331731 56.838922 
L 545.033157 56.838922 
L 546.734582 56.838922 
L 548.436008 56.838922 
L 550.137434 56.838922 
L 551.838859 56.838922 
L 553.540285 56.838922 
L 555.241711 56.838922 
L 556.943136 56.838922 
L 558.644562 56.838922 
L 560.345988 56.838922 
L 562.047414 56.838922 
L 563.748839 56.838922 
L 565.450265 56.838922 
L 567.151691 56.838922 
L 568.853116 56.838922 
L 570.554542 56.838922 
L 572.255968 56.838922 
L 573.957393 56.838922 
L 575.658819 56.838922 
L 577.360245 56.838922 
L 579.061671 56.838922 
L 580.763096 56.838922 
L 582.464522 56.838922 
L 584.165948 56.838922 
L 585.867373 56.838922 
L 587.568799 56.838922 
L 589.270225 56.838922 
L 590.97165 56.838922 
L 592.673076 56.838922 
L 594.374502 56.838922 
L 596.075928 56.838922 
L 597.777353 56.838922 
L 599.478779 56.838922 
L 601.180205 56.838922 
L 602.88163 56.838922 
L 604.583056 56.838922 
L 606.284482 56.838922 
L 607.985907 56.838922 
L 609.687333 56.838922 
L 611.388759 56.838922 
L 613.090185 56.838922 
L 614.79161 56.838922 
L 616.493036 56.838922 
L 618.194462 56.838922 
L 619.895887 56.838922 
L 621.597313 56.838922 
L 623.298739 56.838922 
L 625.000164 56.838922 
L 626.70159 56.838922 
L 628.403016 56.838922 
L 630.104442 56.838922 
L 631.805867 56.838922 
L 633.507293 56.838922 
L 635.208719 56.838922 
" style="fill:none;stroke:#803e75;stroke-linecap:square;stroke-width:1.5;"/>
   </g>
   <g id="line2d_47">
    <g clip-path="url(#p001235c716)">
     <use style="fill:#ff6800;stroke:#ff6800;" x="466.767574" xlink:href="#m17588e3637" y="58.472571"/>
     <use style="fill:#ff6800;stroke:#ff6800;" x="472.20116" xlink:href="#m17588e3637" y="82.324894"/>
     <use style="fill:#ff6800;stroke:#ff6800;" x="483.06833" xlink:href="#m17588e3637" y="74.140476"/>
     <use style="fill:#ff6800;stroke:#ff6800;" x="493.935501" xlink:href="#m17588e3637" y="69.42359"/>
     <use style="fill:#ff6800;stroke:#ff6800;" x="510.236257" xlink:href="#m17588e3637" y="69.260757"/>
     <use style="fill:#ff6800;stroke:#ff6800;" x="537.404183" xlink:href="#m17588e3637" y="73.875873"/>
     <use style="fill:#ff6800;stroke:#ff6800;" x="570.005695" xlink:href="#m17588e3637" y="77.499204"/>
     <use style="fill:#ff6800;stroke:#ff6800;" x="602.607207" xlink:href="#m17588e3637" y="73.343676"/>
     <use style="fill:#ff6800;stroke:#ff6800;" x="635.208719" xlink:href="#m17588e3637" y="70.340044"/>
    </g>
   </g>
   <g id="line2d_48">
    <path clip-path="url(#p001235c716)" d="M 466.767574 58.472571 
L 468.469 58.472571 
L 470.170426 58.472571 
L 471.871852 58.472571 
L 473.573277 58.472571 
L 475.274703 58.472571 
L 476.976129 58.472571 
L 478.677554 58.472571 
L 480.37898 58.472571 
L 482.080406 58.472571 
L 483.781831 58.472571 
L 485.483257 58.472571 
L 487.184683 58.472571 
L 488.886109 58.472571 
L 490.587534 58.472571 
L 492.28896 58.472571 
L 493.990386 58.472571 
L 495.691811 58.472571 
L 497.393237 58.472571 
L 499.094663 58.472571 
L 500.796088 58.472571 
L 502.497514 58.472571 
L 504.19894 58.472571 
L 505.900366 58.472571 
L 507.601791 58.472571 
L 509.303217 58.472571 
L 511.004643 58.472571 
L 512.706068 58.472571 
L 514.407494 58.472571 
L 516.10892 58.472571 
L 517.810345 58.472571 
L 519.511771 58.472571 
L 521.213197 58.472571 
L 522.914623 58.472571 
L 524.616048 58.472571 
L 526.317474 58.472571 
L 528.0189 58.472571 
L 529.720325 58.472571 
L 531.421751 58.472571 
L 533.123177 58.472571 
L 534.824602 58.472571 
L 536.526028 58.472571 
L 538.227454 58.472571 
L 539.92888 58.472571 
L 541.630305 58.472571 
L 543.331731 58.472571 
L 545.033157 58.472571 
L 546.734582 58.472571 
L 548.436008 58.472571 
L 550.137434 58.472571 
L 551.838859 58.472571 
L 553.540285 58.472571 
L 555.241711 58.472571 
L 556.943136 58.472571 
L 558.644562 58.472571 
L 560.345988 58.472571 
L 562.047414 58.472571 
L 563.748839 58.472571 
L 565.450265 58.472571 
L 567.151691 58.472571 
L 568.853116 58.472571 
L 570.554542 58.472571 
L 572.255968 58.472571 
L 573.957393 58.472571 
L 575.658819 58.472571 
L 577.360245 58.472571 
L 579.061671 58.472571 
L 580.763096 58.472571 
L 582.464522 58.472571 
L 584.165948 58.472571 
L 585.867373 58.472571 
L 587.568799 58.472571 
L 589.270225 58.472571 
L 590.97165 58.472571 
L 592.673076 58.472571 
L 594.374502 58.472571 
L 596.075928 58.472571 
L 597.777353 58.472571 
L 599.478779 58.472571 
L 601.180205 58.472571 
L 602.88163 58.472571 
L 604.583056 58.472571 
L 606.284482 58.472571 
L 607.985907 58.472571 
L 609.687333 58.472571 
L 611.388759 58.472571 
L 613.090185 58.472571 
L 614.79161 58.472571 
L 616.493036 58.472571 
L 618.194462 58.472571 
L 619.895887 58.472571 
L 621.597313 58.472571 
L 623.298739 58.472571 
L 625.000164 58.472571 
L 626.70159 58.472571 
L 628.403016 58.472571 
L 630.104442 58.472571 
L 631.805867 58.472571 
L 633.507293 58.472571 
L 635.208719 58.472571 
" style="fill:none;stroke:#ff6800;stroke-linecap:square;stroke-width:1.5;"/>
   </g>
   <g id="line2d_49">
    <g clip-path="url(#p001235c716)">
     <use style="fill:#a6bdd7;stroke:#a6bdd7;" x="466.767574" xlink:href="#mb47bead02c" y="68.509723"/>
     <use style="fill:#a6bdd7;stroke:#a6bdd7;" x="472.20116" xlink:href="#mb47bead02c" y="79.903722"/>
     <use style="fill:#a6bdd7;stroke:#a6bdd7;" x="483.06833" xlink:href="#mb47bead02c" y="93.491974"/>
     <use style="fill:#a6bdd7;stroke:#a6bdd7;" x="493.935501" xlink:href="#mb47bead02c" y="101.112637"/>
     <use style="fill:#a6bdd7;stroke:#a6bdd7;" x="510.236257" xlink:href="#mb47bead02c" y="69.926791"/>
     <use style="fill:#a6bdd7;stroke:#a6bdd7;" x="537.404183" xlink:href="#mb47bead02c" y="69.630827"/>
     <use style="fill:#a6bdd7;stroke:#a6bdd7;" x="570.005695" xlink:href="#mb47bead02c" y="72.398896"/>
     <use style="fill:#a6bdd7;stroke:#a6bdd7;" x="602.607207" xlink:href="#mb47bead02c" y="73.135851"/>
     <use style="fill:#a6bdd7;stroke:#a6bdd7;" x="635.208719" xlink:href="#mb47bead02c" y="70.67295"/>
    </g>
   </g>
   <g id="line2d_50">
    <path clip-path="url(#p001235c716)" d="M 466.767574 68.509723 
L 468.469 68.509723 
L 470.170426 68.509723 
L 471.871852 68.509723 
L 473.573277 68.509723 
L 475.274703 68.509723 
L 476.976129 68.509723 
L 478.677554 68.509723 
L 480.37898 68.509723 
L 482.080406 68.509723 
L 483.781831 68.509723 
L 485.483257 68.509723 
L 487.184683 68.509723 
L 488.886109 68.509723 
L 490.587534 68.509723 
L 492.28896 68.509723 
L 493.990386 68.509723 
L 495.691811 68.509723 
L 497.393237 68.509723 
L 499.094663 68.509723 
L 500.796088 68.509723 
L 502.497514 68.509723 
L 504.19894 68.509723 
L 505.900366 68.509723 
L 507.601791 68.509723 
L 509.303217 68.509723 
L 511.004643 68.509723 
L 512.706068 68.509723 
L 514.407494 68.509723 
L 516.10892 68.509723 
L 517.810345 68.509723 
L 519.511771 68.509723 
L 521.213197 68.509723 
L 522.914623 68.509723 
L 524.616048 68.509723 
L 526.317474 68.509723 
L 528.0189 68.509723 
L 529.720325 68.509723 
L 531.421751 68.509723 
L 533.123177 68.509723 
L 534.824602 68.509723 
L 536.526028 68.509723 
L 538.227454 68.509723 
L 539.92888 68.509723 
L 541.630305 68.509723 
L 543.331731 68.509723 
L 545.033157 68.509723 
L 546.734582 68.509723 
L 548.436008 68.509723 
L 550.137434 68.509723 
L 551.838859 68.509723 
L 553.540285 68.509723 
L 555.241711 68.509723 
L 556.943136 68.509723 
L 558.644562 68.509723 
L 560.345988 68.509723 
L 562.047414 68.509723 
L 563.748839 68.509723 
L 565.450265 68.509723 
L 567.151691 68.509723 
L 568.853116 68.509723 
L 570.554542 68.509723 
L 572.255968 68.509723 
L 573.957393 68.509723 
L 575.658819 68.509723 
L 577.360245 68.509723 
L 579.061671 68.509723 
L 580.763096 68.509723 
L 582.464522 68.509723 
L 584.165948 68.509723 
L 585.867373 68.509723 
L 587.568799 68.509723 
L 589.270225 68.509723 
L 590.97165 68.509723 
L 592.673076 68.509723 
L 594.374502 68.509723 
L 596.075928 68.509723 
L 597.777353 68.509723 
L 599.478779 68.509723 
L 601.180205 68.509723 
L 602.88163 68.509723 
L 604.583056 68.509723 
L 606.284482 68.509723 
L 607.985907 68.509723 
L 609.687333 68.509723 
L 611.388759 68.509723 
L 613.090185 68.509723 
L 614.79161 68.509723 
L 616.493036 68.509723 
L 618.194462 68.509723 
L 619.895887 68.509723 
L 621.597313 68.509723 
L 623.298739 68.509723 
L 625.000164 68.509723 
L 626.70159 68.509723 
L 628.403016 68.509723 
L 630.104442 68.509723 
L 631.805867 68.509723 
L 633.507293 68.509723 
L 635.208719 68.509723 
" style="fill:none;stroke:#a6bdd7;stroke-linecap:square;stroke-width:1.5;"/>
   </g>
   <g id="patch_13">
    <path d="M 458.345517 102.2 
L 458.345517 26.8 
" style="fill:none;stroke:#000000;stroke-linecap:square;stroke-linejoin:miter;stroke-width:0.8;"/>
   </g>
   <g id="patch_14">
    <path d="M 643.630776 102.2 
L 643.630776 26.8 
" style="fill:none;stroke:#000000;stroke-linecap:square;stroke-linejoin:miter;stroke-width:0.8;"/>
   </g>
   <g id="patch_15">
    <path d="M 458.345517 102.2 
L 643.630776 102.2 
" style="fill:none;stroke:#000000;stroke-linecap:square;stroke-linejoin:miter;stroke-width:0.8;"/>
   </g>
   <g id="patch_16">
    <path d="M 458.345517 26.8 
L 643.630776 26.8 
" style="fill:none;stroke:#000000;stroke-linecap:square;stroke-linejoin:miter;stroke-width:0.8;"/>
   </g>
   <g id="text_25">
    <text style="font-family:DejaVu Sans;font-size:12px;font-style:normal;font-weight:normal;text-anchor:middle;" transform="rotate(-0, 550.988147, 20.8)" x="550.988147" y="20.8">Hunan</text>
   </g>
  </g>
  <g id="axes_4">
   <g id="patch_17">
    <path d="M 668.430776 102.2 
L 853.716034 102.2 
L 853.716034 26.8 
L 668.430776 26.8 
z
" style="fill:#ffffff;"/>
   </g>
   <g id="matplotlib.axis_7">
    <g id="xtick_13">
     <g id="line2d_51">
      <g>
       <use style="stroke:#000000;stroke-width:0.8;" x="676.852833" xlink:href="#m14ab8ae54c" y="102.2"/>
      </g>
     </g>
     <g id="text_26">
      <text style="font-family:DejaVu Sans;font-size:10px;font-style:normal;font-weight:normal;text-anchor:middle;" transform="rotate(-0, 676.852833, 116.798437)" x="676.852833" y="116.798437">0</text>
     </g>
    </g>
    <g id="xtick_14">
     <g id="line2d_52">
      <g>
       <use style="stroke:#000000;stroke-width:0.8;" x="731.188686" xlink:href="#m14ab8ae54c" y="102.2"/>
      </g>
     </g>
     <g id="text_27">
      <text style="font-family:DejaVu Sans;font-size:10px;font-style:normal;font-weight:normal;text-anchor:middle;" transform="rotate(-0, 731.188686, 116.798437)" x="731.188686" y="116.798437">10</text>
     </g>
    </g>
    <g id="xtick_15">
     <g id="line2d_53">
      <g>
       <use style="stroke:#000000;stroke-width:0.8;" x="785.524539" xlink:href="#m14ab8ae54c" y="102.2"/>
      </g>
     </g>
     <g id="text_28">
      <text style="font-family:DejaVu Sans;font-size:10px;font-style:normal;font-weight:normal;text-anchor:middle;" transform="rotate(-0, 785.524539, 116.798437)" x="785.524539" y="116.798437">20</text>
     </g>
    </g>
    <g id="xtick_16">
     <g id="line2d_54">
      <g>
       <use style="stroke:#000000;stroke-width:0.8;" x="839.860392" xlink:href="#m14ab8ae54c" y="102.2"/>
      </g>
     </g>
     <g id="text_29">
      <text style="font-family:DejaVu Sans;font-size:10px;font-style:normal;font-weight:normal;text-anchor:middle;" transform="rotate(-0, 839.860392, 116.798437)" x="839.860392" y="116.798437">30</text>
     </g>
    </g>
    <g id="text_30">
     <text style="font-family:DejaVu Sans;font-size:10px;font-style:normal;font-weight:normal;text-anchor:middle;" transform="rotate(-0, 761.073405, 130.476562)" x="761.073405" y="130.476562">Day</text>
    </g>
   </g>
   <g id="matplotlib.axis_8">
    <g id="ytick_13">
     <g id="line2d_55">
      <g>
       <use style="stroke:#000000;stroke-width:0.8;" x="668.430776" xlink:href="#m05c4d086f2" y="102.2"/>
      </g>
     </g>
    </g>
    <g id="ytick_14">
     <g id="line2d_56">
      <g>
       <use style="stroke:#000000;stroke-width:0.8;" x="668.430776" xlink:href="#m05c4d086f2" y="77.066667"/>
      </g>
     </g>
    </g>
    <g id="ytick_15">
     <g id="line2d_57">
      <g>
       <use style="stroke:#000000;stroke-width:0.8;" x="668.430776" xlink:href="#m05c4d086f2" y="51.933333"/>
      </g>
     </g>
    </g>
    <g id="ytick_16">
     <g id="line2d_58">
      <g>
       <use style="stroke:#000000;stroke-width:0.8;" x="668.430776" xlink:href="#m05c4d086f2" y="26.8"/>
      </g>
     </g>
    </g>
    <g id="text_31">
     <text style="font-family:DejaVu Sans;font-size:10px;font-style:normal;font-weight:normal;text-anchor:middle;" transform="rotate(-90, 662.351088, 64.5)" x="662.351088" y="64.5">AlphaDiversity</text>
    </g>
   </g>
   <g id="line2d_59">
    <g clip-path="url(#pf428635a9b)">
     <use style="fill:#ffb300;stroke:#ffb300;" x="676.852833" xlink:href="#m399ad2a2f6" y="65.415596"/>
     <use style="fill:#ffb300;stroke:#ffb300;" x="687.720004" xlink:href="#m399ad2a2f6" y="71.625773"/>
     <use style="fill:#ffb300;stroke:#ffb300;" x="704.02076" xlink:href="#m399ad2a2f6" y="68.805552"/>
     <use style="fill:#ffb300;stroke:#ffb300;" x="731.188686" xlink:href="#m399ad2a2f6" y="68.170817"/>
     <use style="fill:#ffb300;stroke:#ffb300;" x="747.489442" xlink:href="#m399ad2a2f6" y="70.522464"/>
     <use style="fill:#ffb300;stroke:#ffb300;" x="780.090954" xlink:href="#m399ad2a2f6" y="71.470053"/>
     <use style="fill:#ffb300;stroke:#ffb300;" x="812.692465" xlink:href="#m399ad2a2f6" y="66.57596"/>
     <use style="fill:#ffb300;stroke:#ffb300;" x="845.293977" xlink:href="#m399ad2a2f6" y="74.486814"/>
    </g>
   </g>
   <g id="line2d_60">
    <path clip-path="url(#pf428635a9b)" d="M 676.852833 65.415596 
L 678.554259 65.415596 
L 680.255684 65.415596 
L 681.95711 65.415596 
L 683.658536 65.415596 
L 685.359962 65.415596 
L 687.061387 65.415596 
L 688.762813 65.415596 
L 690.464239 65.415596 
L 692.165664 65.415596 
L 693.86709 65.415596 
L 695.568516 65.415596 
L 697.269941 65.415596 
L 698.971367 65.415596 
L 700.672793 65.415596 
L 702.374219 65.415596 
L 704.075644 65.415596 
L 705.77707 65.415596 
L 707.478496 65.415596 
L 709.179921 65.415596 
L 710.881347 65.415596 
L 712.582773 65.415596 
L 714.284198 65.415596 
L 715.985624 65.415596 
L 717.68705 65.415596 
L 719.388476 65.415596 
L 721.089901 65.415596 
L 722.791327 65.415596 
L 724.492753 65.415596 
L 726.194178 65.415596 
L 727.895604 65.415596 
L 729.59703 65.415596 
L 731.298455 65.415596 
L 732.999881 65.415596 
L 734.701307 65.415596 
L 736.402733 65.415596 
L 738.104158 65.415596 
L 739.805584 65.415596 
L 741.50701 65.415596 
L 743.208435 65.415596 
L 744.909861 65.415596 
L 746.611287 65.415596 
L 748.312712 65.415596 
L 750.014138 65.415596 
L 751.715564 65.415596 
L 753.41699 65.415596 
L 755.118415 65.415596 
L 756.819841 65.415596 
L 758.521267 65.415596 
L 760.222692 65.415596 
L 761.924118 65.415596 
L 763.625544 65.415596 
L 765.326969 65.415596 
L 767.028395 65.415596 
L 768.729821 65.415596 
L 770.431247 65.415596 
L 772.132672 65.415596 
L 773.834098 65.415596 
L 775.535524 65.415596 
L 777.236949 65.415596 
L 778.938375 65.415596 
L 780.639801 65.415596 
L 782.341226 65.415596 
L 784.042652 65.415596 
L 785.744078 65.415596 
L 787.445504 65.415596 
L 789.146929 65.415596 
L 790.848355 65.415596 
L 792.549781 65.415596 
L 794.251206 65.415596 
L 795.952632 65.415596 
L 797.654058 65.415596 
L 799.355483 65.415596 
L 801.056909 65.415596 
L 802.758335 65.415596 
L 804.45976 65.415596 
L 806.161186 65.415596 
L 807.862612 65.415596 
L 809.564038 65.415596 
L 811.265463 65.415596 
L 812.966889 65.415596 
L 814.668315 65.415596 
L 816.36974 65.415596 
L 818.071166 65.415596 
L 819.772592 65.415596 
L 821.474017 65.415596 
L 823.175443 65.415596 
L 824.876869 65.415596 
L 826.578295 65.415596 
L 828.27972 65.415596 
L 829.981146 65.415596 
L 831.682572 65.415596 
L 833.383997 65.415596 
L 835.085423 65.415596 
L 836.786849 65.415596 
L 838.488274 65.415596 
L 840.1897 65.415596 
L 841.891126 65.415596 
L 843.592552 65.415596 
L 845.293977 65.415596 
" style="fill:none;stroke:#ffb300;stroke-linecap:square;stroke-width:1.5;"/>
   </g>
   <g id="line2d_61">
    <g clip-path="url(#pf428635a9b)">
     <use style="fill:#803e75;stroke:#803e75;" x="676.852833" xlink:href="#m65ae0899a3" y="72.30086"/>
     <use style="fill:#803e75;stroke:#803e75;" x="687.720004" xlink:href="#m65ae0899a3" y="78.018771"/>
     <use style="fill:#803e75;stroke:#803e75;" x="704.02076" xlink:href="#m65ae0899a3" y="82.584344"/>
     <use style="fill:#803e75;stroke:#803e75;" x="731.188686" xlink:href="#m65ae0899a3" y="77.64881"/>
     <use style="fill:#803e75;stroke:#803e75;" x="747.489442" xlink:href="#m65ae0899a3" y="79.434121"/>
     <use style="fill:#803e75;stroke:#803e75;" x="780.090954" xlink:href="#m65ae0899a3" y="76.000396"/>
     <use style="fill:#803e75;stroke:#803e75;" x="812.692465" xlink:href="#m65ae0899a3" y="72.131453"/>
     <use style="fill:#803e75;stroke:#803e75;" x="845.293977" xlink:href="#m65ae0899a3" y="67.925155"/>
    </g>
   </g>
   <g id="line2d_62">
    <path clip-path="url(#pf428635a9b)" d="M 676.852833 72.30086 
L 678.554259 72.30086 
L 680.255684 72.30086 
L 681.95711 72.30086 
L 683.658536 72.30086 
L 685.359962 72.30086 
L 687.061387 72.30086 
L 688.762813 72.30086 
L 690.464239 72.30086 
L 692.165664 72.30086 
L 693.86709 72.30086 
L 695.568516 72.30086 
L 697.269941 72.30086 
L 698.971367 72.30086 
L 700.672793 72.30086 
L 702.374219 72.30086 
L 704.075644 72.30086 
L 705.77707 72.30086 
L 707.478496 72.30086 
L 709.179921 72.300859 
L 710.881347 72.300859 
L 712.582773 72.300859 
L 714.284198 72.300858 
L 715.985624 72.300856 
L 717.68705 72.300854 
L 719.388476 72.300851 
L 721.089901 72.300847 
L 722.791327 72.300841 
L 724.492753 72.300833 
L 726.194178 72.300821 
L 727.895604 72.300805 
L 729.59703 72.300784 
L 731.298455 72.300756 
L 732.999881 72.300718 
L 734.701307 72.300669 
L 736.402733 72.300605 
L 738.104158 72.300522 
L 739.805584 72.300415 
L 741.50701 72.30028 
L 743.208435 72.300107 
L 744.909861 72.299891 
L 746.611287 72.299619 
L 748.312712 72.299281 
L 750.014138 72.298862 
L 751.715564 72.298346 
L 753.41699 72.297713 
L 755.118415 72.296939 
L 756.819841 72.295999 
L 758.521267 72.294861 
L 760.222692 72.293488 
L 761.924118 72.29184 
L 763.625544 72.289867 
L 765.326969 72.287515 
L 767.028395 72.28472 
L 768.729821 72.28141 
L 770.431247 72.277504 
L 772.132672 72.272908 
L 773.834098 72.267517 
L 775.535524 72.261214 
L 777.236949 72.253865 
L 778.938375 72.245321 
L 780.639801 72.235418 
L 782.341226 72.22397 
L 784.042652 72.210773 
L 785.744078 72.195603 
L 787.445504 72.178211 
L 789.146929 72.158329 
L 790.848355 72.13566 
L 792.549781 72.109888 
L 794.251206 72.080667 
L 795.952632 72.047632 
L 797.654058 72.010392 
L 799.355483 71.968536 
L 801.056909 71.921633 
L 802.758335 71.869239 
L 804.45976 71.810898 
L 806.161186 71.746149 
L 807.862612 71.674535 
L 809.564038 71.595608 
L 811.265463 71.508943 
L 812.966889 71.414144 
L 814.668315 71.31086 
L 816.36974 71.198796 
L 818.071166 71.077726 
L 819.772592 70.947506 
L 821.474017 70.808089 
L 823.175443 70.659535 
L 824.876869 70.502017 
L 826.578295 70.335835 
L 828.27972 70.161414 
L 829.981146 69.979308 
L 831.682572 69.790194 
L 833.383997 69.594864 
L 835.085423 69.394215 
L 836.786849 69.189228 
L 838.488274 68.980956 
L 840.1897 68.770497 
L 841.891126 68.55897 
L 843.592552 68.347495 
L 845.293977 68.137169 
" style="fill:none;stroke:#803e75;stroke-linecap:square;stroke-width:1.5;"/>
   </g>
   <g id="line2d_63">
    <g clip-path="url(#pf428635a9b)">
     <use style="fill:#ff6800;stroke:#ff6800;" x="676.852833" xlink:href="#m17588e3637" y="80.670136"/>
     <use style="fill:#ff6800;stroke:#ff6800;" x="687.720004" xlink:href="#m17588e3637" y="83.386994"/>
     <use style="fill:#ff6800;stroke:#ff6800;" x="704.02076" xlink:href="#m17588e3637" y="76.45309"/>
     <use style="fill:#ff6800;stroke:#ff6800;" x="731.188686" xlink:href="#m17588e3637" y="75.590395"/>
     <use style="fill:#ff6800;stroke:#ff6800;" x="747.489442" xlink:href="#m17588e3637" y="79.766118"/>
     <use style="fill:#ff6800;stroke:#ff6800;" x="780.090954" xlink:href="#m17588e3637" y="75.433343"/>
     <use style="fill:#ff6800;stroke:#ff6800;" x="812.692465" xlink:href="#m17588e3637" y="71.489767"/>
     <use style="fill:#ff6800;stroke:#ff6800;" x="845.293977" xlink:href="#m17588e3637" y="70.460345"/>
    </g>
   </g>
   <g id="line2d_64">
    <path clip-path="url(#pf428635a9b)" d="M 676.852833 80.670136 
L 678.554259 80.656617 
L 680.255684 80.629565 
L 681.95711 80.593054 
L 683.658536 80.548708 
L 685.359962 80.497538 
L 687.061387 80.440271 
L 688.762813 80.377478 
L 690.464239 80.309626 
L 692.165664 80.237117 
L 693.86709 80.160301 
L 695.568516 80.07949 
L 697.269941 79.994968 
L 698.971367 79.906995 
L 700.672793 79.815808 
L 702.374219 79.721632 
L 704.075644 79.624674 
L 705.77707 79.52513 
L 707.478496 79.423185 
L 709.179921 79.319013 
L 710.881347 79.212779 
L 712.582773 79.104642 
L 714.284198 78.994748 
L 715.985624 78.883242 
L 717.68705 78.770259 
L 719.388476 78.655926 
L 721.089901 78.540368 
L 722.791327 78.423702 
L 724.492753 78.306041 
L 726.194178 78.18749 
L 727.895604 78.068152 
L 729.59703 77.948126 
L 731.298455 77.827502 
L 732.999881 77.706371 
L 734.701307 77.584816 
L 736.402733 77.462919 
L 738.104158 77.340756 
L 739.805584 77.218399 
L 741.50701 77.095919 
L 743.208435 76.973382 
L 744.909861 76.85085 
L 746.611287 76.728384 
L 748.312712 76.606039 
L 750.014138 76.48387 
L 751.715564 76.361927 
L 753.41699 76.240258 
L 755.118415 76.118911 
L 756.819841 75.997926 
L 758.521267 75.877346 
L 760.222692 75.757208 
L 761.924118 75.637548 
L 763.625544 75.518402 
L 765.326969 75.3998 
L 767.028395 75.281773 
L 768.729821 75.164349 
L 770.431247 75.047554 
L 772.132672 74.931413 
L 773.834098 74.815948 
L 775.535524 74.701182 
L 777.236949 74.587134 
L 778.938375 74.473822 
L 780.639801 74.361263 
L 782.341226 74.249474 
L 784.042652 74.138467 
L 785.744078 74.028257 
L 787.445504 73.918856 
L 789.146929 73.810274 
L 790.848355 73.702522 
L 792.549781 73.595607 
L 794.251206 73.489539 
L 795.952632 73.384323 
L 797.654058 73.279967 
L 799.355483 73.176475 
L 801.056909 73.073852 
L 802.758335 72.972101 
L 804.45976 72.871227 
L 806.161186 72.77123 
L 807.862612 72.672113 
L 809.564038 72.573877 
L 811.265463 72.476523 
L 812.966889 72.38005 
L 814.668315 72.284458 
L 816.36974 72.189746 
L 818.071166 72.095913 
L 819.772592 72.002957 
L 821.474017 71.910876 
L 823.175443 71.819667 
L 824.876869 71.729326 
L 826.578295 71.639852 
L 828.27972 71.551239 
L 829.981146 71.463485 
L 831.682572 71.376585 
L 833.383997 71.290534 
L 835.085423 71.205328 
L 836.786849 71.120962 
L 838.488274 71.03743 
L 840.1897 70.954728 
L 841.891126 70.87285 
L 843.592552 70.791791 
L 845.293977 70.711543 
" style="fill:none;stroke:#ff6800;stroke-linecap:square;stroke-width:1.5;"/>
   </g>
   <g id="line2d_65">
    <g clip-path="url(#pf428635a9b)">
     <use style="fill:#a6bdd7;stroke:#a6bdd7;" x="676.852833" xlink:href="#mb47bead02c" y="71.602758"/>
     <use style="fill:#a6bdd7;stroke:#a6bdd7;" x="687.720004" xlink:href="#mb47bead02c" y="74.468845"/>
     <use style="fill:#a6bdd7;stroke:#a6bdd7;" x="704.02076" xlink:href="#mb47bead02c" y="74.373512"/>
     <use style="fill:#a6bdd7;stroke:#a6bdd7;" x="731.188686" xlink:href="#mb47bead02c" y="71.275893"/>
     <use style="fill:#a6bdd7;stroke:#a6bdd7;" x="747.489442" xlink:href="#mb47bead02c" y="78.960845"/>
     <use style="fill:#a6bdd7;stroke:#a6bdd7;" x="780.090954" xlink:href="#mb47bead02c" y="77.283336"/>
     <use style="fill:#a6bdd7;stroke:#a6bdd7;" x="812.692465" xlink:href="#mb47bead02c" y="71.381558"/>
     <use style="fill:#a6bdd7;stroke:#a6bdd7;" x="845.293977" xlink:href="#mb47bead02c" y="66.919384"/>
    </g>
   </g>
   <g id="line2d_66">
    <path clip-path="url(#pf428635a9b)" d="M 676.852833 71.602758 
L 678.554259 71.602758 
L 680.255684 71.602758 
L 681.95711 71.602758 
L 683.658536 71.602758 
L 685.359962 71.602758 
L 687.061387 71.602758 
L 688.762813 71.602758 
L 690.464239 71.602758 
L 692.165664 71.602758 
L 693.86709 71.602758 
L 695.568516 71.602758 
L 697.269941 71.602758 
L 698.971367 71.602758 
L 700.672793 71.602758 
L 702.374219 71.602758 
L 704.075644 71.602758 
L 705.77707 71.602758 
L 707.478496 71.602758 
L 709.179921 71.602758 
L 710.881347 71.602757 
L 712.582773 71.602757 
L 714.284198 71.602756 
L 715.985624 71.602754 
L 717.68705 71.602752 
L 719.388476 71.602749 
L 721.089901 71.602745 
L 722.791327 71.602739 
L 724.492753 71.602731 
L 726.194178 71.602719 
L 727.895604 71.602703 
L 729.59703 71.602682 
L 731.298455 71.602653 
L 732.999881 71.602615 
L 734.701307 71.602566 
L 736.402733 71.602501 
L 738.104158 71.602417 
L 739.805584 71.60231 
L 741.50701 71.602173 
L 743.208435 71.601999 
L 744.909861 71.601781 
L 746.611287 71.601507 
L 748.312712 71.601166 
L 750.014138 71.600744 
L 751.715564 71.600224 
L 753.41699 71.599585 
L 755.118415 71.598805 
L 756.819841 71.597858 
L 758.521267 71.59671 
L 760.222692 71.595326 
L 761.924118 71.593664 
L 763.625544 71.591675 
L 765.326969 71.589304 
L 767.028395 71.586486 
L 768.729821 71.583149 
L 770.431247 71.579211 
L 772.132672 71.574577 
L 773.834098 71.569142 
L 775.535524 71.562787 
L 777.236949 71.555377 
L 778.938375 71.546763 
L 780.639801 71.536778 
L 782.341226 71.525235 
L 784.042652 71.511928 
L 785.744078 71.496631 
L 787.445504 71.479094 
L 789.146929 71.459043 
L 790.848355 71.436183 
L 792.549781 71.41019 
L 794.251206 71.380719 
L 795.952632 71.347398 
L 797.654058 71.309834 
L 799.355483 71.267609 
L 801.056909 71.22029 
L 802.758335 71.167425 
L 804.45976 71.108552 
L 806.161186 71.043206 
L 807.862612 70.97092 
L 809.564038 70.891242 
L 811.265463 70.803737 
L 812.966889 70.708001 
L 814.668315 70.603675 
L 816.36974 70.490456 
L 818.071166 70.368108 
L 819.772592 70.236481 
L 821.474017 70.095519 
L 823.175443 69.945274 
L 824.876869 69.785914 
L 826.578295 69.617732 
L 828.27972 69.441152 
L 829.981146 69.256724 
L 831.682572 69.065126 
L 833.383997 68.867153 
L 835.085423 68.663706 
L 836.786849 68.455776 
L 838.488274 68.244424 
L 840.1897 68.03076 
L 841.891126 67.81592 
L 843.592552 67.601041 
L 845.293977 67.387237 
" style="fill:none;stroke:#a6bdd7;stroke-linecap:square;stroke-width:1.5;"/>
   </g>
   <g id="line2d_67">
    <g clip-path="url(#pf428635a9b)">
     <use style="fill:#c10020;stroke:#c10020;" x="676.852833" xlink:href="#mfb0f59239b" y="62.963869"/>
     <use style="fill:#c10020;stroke:#c10020;" x="687.720004" xlink:href="#mfb0f59239b" y="80.590907"/>
     <use style="fill:#c10020;stroke:#c10020;" x="704.02076" xlink:href="#mfb0f59239b" y="77.702168"/>
     <use style="fill:#c10020;stroke:#c10020;" x="731.188686" xlink:href="#mfb0f59239b" y="67.525481"/>
     <use style="fill:#c10020;stroke:#c10020;" x="747.489442" xlink:href="#mfb0f59239b" y="69.22417"/>
     <use style="fill:#c10020;stroke:#c10020;" x="780.090954" xlink:href="#mfb0f59239b" y="72.927541"/>
     <use style="fill:#c10020;stroke:#c10020;" x="812.692465" xlink:href="#mfb0f59239b" y="70.409873"/>
     <use style="fill:#c10020;stroke:#c10020;" x="845.293977" xlink:href="#mfb0f59239b" y="77.198802"/>
    </g>
   </g>
   <g id="line2d_68">
    <path clip-path="url(#pf428635a9b)" d="M 676.852833 62.963869 
L 678.554259 62.963869 
L 680.255684 62.963869 
L 681.95711 62.963869 
L 683.658536 62.963869 
L 685.359962 62.963869 
L 687.061387 62.963869 
L 688.762813 62.963869 
L 690.464239 62.963869 
L 692.165664 62.963869 
L 693.86709 62.963869 
L 695.568516 62.963869 
L 697.269941 62.963869 
L 698.971367 62.963869 
L 700.672793 62.963869 
L 702.374219 62.963869 
L 704.075644 62.963869 
L 705.77707 62.963869 
L 707.478496 62.963869 
L 709.179921 62.963869 
L 710.881347 62.963869 
L 712.582773 62.963869 
L 714.284198 62.963869 
L 715.985624 62.963869 
L 717.68705 62.963869 
L 719.388476 62.963869 
L 721.089901 62.963869 
L 722.791327 62.963869 
L 724.492753 62.963869 
L 726.194178 62.963869 
L 727.895604 62.963869 
L 729.59703 62.963869 
L 731.298455 62.963869 
L 732.999881 62.963869 
L 734.701307 62.963869 
L 736.402733 62.963869 
L 738.104158 62.963869 
L 739.805584 62.963869 
L 741.50701 62.963869 
L 743.208435 62.963869 
L 744.909861 62.963869 
L 746.611287 62.963869 
L 748.312712 62.963869 
L 750.014138 62.963869 
L 751.715564 62.963869 
L 753.41699 62.963869 
L 755.118415 62.963869 
L 756.819841 62.963869 
L 758.521267 62.963869 
L 760.222692 62.963869 
L 761.924118 62.963869 
L 763.625544 62.963869 
L 765.326969 62.963869 
L 767.028395 62.963869 
L 768.729821 62.963869 
L 770.431247 62.963869 
L 772.132672 62.963869 
L 773.834098 62.963869 
L 775.535524 62.963869 
L 777.236949 62.963869 
L 778.938375 62.963869 
L 780.639801 62.963869 
L 782.341226 62.963869 
L 784.042652 62.963869 
L 785.744078 62.963869 
L 787.445504 62.963869 
L 789.146929 62.963869 
L 790.848355 62.963869 
L 792.549781 62.963869 
L 794.251206 62.963869 
L 795.952632 62.963869 
L 797.654058 62.963869 
L 799.355483 62.963869 
L 801.056909 62.963869 
L 802.758335 62.963869 
L 804.45976 62.963869 
L 806.161186 62.963869 
L 807.862612 62.963869 
L 809.564038 62.963869 
L 811.265463 62.963869 
L 812.966889 62.963869 
L 814.668315 62.963869 
L 816.36974 62.963869 
L 818.071166 62.963869 
L 819.772592 62.963869 
L 821.474017 62.963869 
L 823.175443 62.963869 
L 824.876869 62.963869 
L 826.578295 62.963869 
L 828.27972 62.963869 
L 829.981146 62.963869 
L 831.682572 62.963869 
L 833.383997 62.963869 
L 835.085423 62.963869 
L 836.786849 62.963869 
L 838.488274 62.963869 
L 840.1897 62.963869 
L 841.891126 62.963869 
L 843.592552 62.963869 
L 845.293977 62.963869 
" style="fill:none;stroke:#c10020;stroke-linecap:square;stroke-width:1.5;"/>
   </g>
   <g id="patch_18">
    <path d="M 668.430776 102.2 
L 668.430776 26.8 
" style="fill:none;stroke:#000000;stroke-linecap:square;stroke-linejoin:miter;stroke-width:0.8;"/>
   </g>
   <g id="patch_19">
    <path d="M 853.716034 102.2 
L 853.716034 26.8 
" style="fill:none;stroke:#000000;stroke-linecap:square;stroke-linejoin:miter;stroke-width:0.8;"/>
   </g>
   <g id="patch_20">
    <path d="M 668.430776 102.2 
L 853.716034 102.2 
" style="fill:none;stroke:#000000;stroke-linecap:square;stroke-linejoin:miter;stroke-width:0.8;"/>
   </g>
   <g id="patch_21">
    <path d="M 668.430776 26.8 
L 853.716034 26.8 
" style="fill:none;stroke:#000000;stroke-linecap:square;stroke-linejoin:miter;stroke-width:0.8;"/>
   </g>
   <g id="text_32">
    <text style="font-family:DejaVu Sans;font-size:12px;font-style:normal;font-weight:normal;text-anchor:middle;" transform="rotate(-0, 761.073405, 20.8)" x="761.073405" y="20.8">Shanghai</text>
   </g>
  </g>
  <g id="axes_5">
   <g id="patch_22">
    <path d="M 878.516034 102.2 
L 1063.801293 102.2 
L 1063.801293 26.8 
L 878.516034 26.8 
z
" style="fill:#ffffff;"/>
   </g>
   <g id="patch_23">
    <path clip-path="url(#p6fe94468be)" d="M 883.148166 127.333333 
L 920.205218 127.333333 
L 920.205218 167.204884 
L 883.148166 167.204884 
z
" style="fill:#3274a1;"/>
   </g>
   <g id="patch_24">
    <path clip-path="url(#p6fe94468be)" d="M 929.469481 127.333333 
L 966.526532 127.333333 
L 966.526532 149.660163 
L 929.469481 149.660163 
z
" style="fill:#e1812c;"/>
   </g>
   <g id="patch_25">
    <path clip-path="url(#p6fe94468be)" d="M 975.790795 127.333333 
L 1012.847847 127.333333 
L 1012.847847 163.589263 
L 975.790795 163.589263 
z
" style="fill:#3a923a;"/>
   </g>
   <g id="patch_26">
    <path clip-path="url(#p6fe94468be)" d="M 1022.11211 127.333333 
L 1059.169162 127.333333 
L 1059.169162 139.73913 
L 1022.11211 139.73913 
z
" style="fill:#c03d3e;"/>
   </g>
   <g id="matplotlib.axis_9">
    <g id="xtick_17">
     <g id="line2d_69">
      <g>
       <use style="stroke:#000000;stroke-width:0.8;" x="901.676692" xlink:href="#m14ab8ae54c" y="102.2"/>
      </g>
     </g>
     <g id="text_33">
      <text style="font-family:DejaVu Sans;font-size:10px;font-style:normal;font-weight:normal;text-anchor:middle;" transform="rotate(-0, 901.676692, 116.798437)" x="901.676692" y="116.798437">Beijing</text>
     </g>
    </g>
    <g id="xtick_18">
     <g id="line2d_70">
      <g>
       <use style="stroke:#000000;stroke-width:0.8;" x="947.998006" xlink:href="#m14ab8ae54c" y="102.2"/>
      </g>
     </g>
     <g id="text_34">
      <text style="font-family:DejaVu Sans;font-size:10px;font-style:normal;font-weight:normal;text-anchor:middle;" transform="rotate(-0, 947.998006, 116.798437)" x="947.998006" y="116.798437">Guangdong</text>
     </g>
    </g>
    <g id="xtick_19">
     <g id="line2d_71">
      <g>
       <use style="stroke:#000000;stroke-width:0.8;" x="994.319321" xlink:href="#m14ab8ae54c" y="102.2"/>
      </g>
     </g>
     <g id="text_35">
      <text style="font-family:DejaVu Sans;font-size:10px;font-style:normal;font-weight:normal;text-anchor:middle;" transform="rotate(-0, 994.319321, 116.798437)" x="994.319321" y="116.798437">Hunan</text>
     </g>
    </g>
    <g id="xtick_20">
     <g id="line2d_72">
      <g>
       <use style="stroke:#000000;stroke-width:0.8;" x="1040.640636" xlink:href="#m14ab8ae54c" y="102.2"/>
      </g>
     </g>
     <g id="text_36">
      <text style="font-family:DejaVu Sans;font-size:10px;font-style:normal;font-weight:normal;text-anchor:middle;" transform="rotate(-0, 1040.640636, 116.798437)" x="1040.640636" y="116.798437">Shanghai</text>
     </g>
    </g>
    <g id="text_37">
     <text style="font-family:DejaVu Sans;font-size:10px;font-style:normal;font-weight:normal;text-anchor:middle;" transform="rotate(-0, 971.158664, 130.476562)" x="971.158664" y="130.476562">Vendor</text>
    </g>
   </g>
   <g id="matplotlib.axis_10">
    <g id="ytick_17">
     <g id="line2d_73">
      <g>
       <use style="stroke:#000000;stroke-width:0.8;" x="878.516034" xlink:href="#m05c4d086f2" y="102.2"/>
      </g>
     </g>
    </g>
    <g id="ytick_18">
     <g id="line2d_74">
      <g>
       <use style="stroke:#000000;stroke-width:0.8;" x="878.516034" xlink:href="#m05c4d086f2" y="77.066667"/>
      </g>
     </g>
    </g>
    <g id="ytick_19">
     <g id="line2d_75">
      <g>
       <use style="stroke:#000000;stroke-width:0.8;" x="878.516034" xlink:href="#m05c4d086f2" y="51.933333"/>
      </g>
     </g>
    </g>
    <g id="ytick_20">
     <g id="line2d_76">
      <g>
       <use style="stroke:#000000;stroke-width:0.8;" x="878.516034" xlink:href="#m05c4d086f2" y="26.8"/>
      </g>
     </g>
    </g>
    <g id="text_38">
     <text style="font-family:DejaVu Sans;font-size:10px;font-style:normal;font-weight:normal;text-anchor:middle;" transform="rotate(-90, 872.436347, 64.5)" x="872.436347" y="64.5">R2</text>
    </g>
   </g>
   <g id="line2d_77">
    <path clip-path="url(#p6fe94468be)" style="fill:none;stroke:#424242;stroke-linecap:square;stroke-width:2.7;"/>
   </g>
   <g id="line2d_78">
    <path clip-path="url(#p6fe94468be)" d="M 947.998006 145 
L 947.998006 134.71314 
" style="fill:none;stroke:#424242;stroke-linecap:square;stroke-width:2.7;"/>
   </g>
   <g id="line2d_79">
    <path clip-path="url(#p6fe94468be)" style="fill:none;stroke:#424242;stroke-linecap:square;stroke-width:2.7;"/>
   </g>
   <g id="line2d_80">
    <path clip-path="url(#p6fe94468be)" d="M 1040.640636 145 
L 1040.640636 125.655473 
" style="fill:none;stroke:#424242;stroke-linecap:square;stroke-width:2.7;"/>
   </g>
   <g id="patch_27">
    <path d="M 878.516034 102.2 
L 878.516034 26.8 
" style="fill:none;stroke:#000000;stroke-linecap:square;stroke-linejoin:miter;stroke-width:0.8;"/>
   </g>
   <g id="patch_28">
    <path d="M 1063.801293 102.2 
L 1063.801293 26.8 
" style="fill:none;stroke:#000000;stroke-linecap:square;stroke-linejoin:miter;stroke-width:0.8;"/>
   </g>
   <g id="patch_29">
    <path d="M 878.516034 102.2 
L 1063.801293 102.2 
" style="fill:none;stroke:#000000;stroke-linecap:square;stroke-linejoin:miter;stroke-width:0.8;"/>
   </g>
   <g id="patch_30">
    <path d="M 878.516034 26.8 
L 1063.801293 26.8 
" style="fill:none;stroke:#000000;stroke-linecap:square;stroke-linejoin:miter;stroke-width:0.8;"/>
   </g>
  </g>
 </g>
 <defs>
  <clipPath id="p31ce78aab2">
   <rect height="75.4" width="185.285259" x="38.175" y="26.8"/>
  </clipPath>
  <clipPath id="p45ab941ca8">
   <rect height="75.4" width="185.285259" x="248.260259" y="26.8"/>
  </clipPath>
  <clipPath id="p001235c716">
   <rect height="75.4" width="185.285259" x="458.345517" y="26.8"/>
  </clipPath>
  <clipPath id="pf428635a9b">
   <rect height="75.4" width="185.285259" x="668.430776" y="26.8"/>
  </clipPath>
  <clipPath id="p6fe94468be">
   <rect height="75.4" width="185.285259" x="878.516034" y="26.8"/>
  </clipPath>
 </defs>
</svg>
