<?xml version="1.0" encoding="utf-8" standalone="no"?>
<!DOCTYPE svg PUBLIC "-//W3C//DTD SVG 1.1//EN"
  "http://www.w3.org/Graphics/SVG/1.1/DTD/svg11.dtd">
<!-- Created with matplotlib (https://matplotlib.org/) -->
<svg height="216pt" version="1.1" viewBox="0 0 1080 216" width="1080pt" xmlns="http://www.w3.org/2000/svg" xmlns:xlink="http://www.w3.org/1999/xlink">
 <defs>
  <style type="text/css">
*{stroke-linecap:butt;stroke-linejoin:round;}
  </style>
 </defs>
 <g id="figure_1">
  <g id="patch_1">
   <path d="M 0 216 
L 1080 216 
L 1080 0 
L 0 0 
z
" style="fill:#ffffff;"/>
  </g>
  <g id="axes_1">
   <g id="patch_2">
    <path d="M 38.175 174.2 
L 223.460259 174.2 
L 223.460259 26.8 
L 38.175 26.8 
z
" style="fill:#ffffff;"/>
   </g>
   <g id="matplotlib.axis_1">
    <g id="xtick_1">
     <g id="line2d_1">
      <defs>
       <path d="M 0 0 
L 0 3.5 
" id="mf24c28988f" style="stroke:#000000;stroke-width:0.8;"/>
      </defs>
      <g>
       <use style="stroke:#000000;stroke-width:0.8;" x="46.597057" xlink:href="#mf24c28988f" y="174.2"/>
      </g>
     </g>
     <g id="text_1">
      <text style="font-family:DejaVu Sans;font-size:10px;font-style:normal;font-weight:normal;text-anchor:middle;" transform="rotate(-0, 46.597057, 188.798438)" x="46.597057" y="188.798438">0</text>
     </g>
    </g>
    <g id="xtick_2">
     <g id="line2d_2">
      <g>
       <use style="stroke:#000000;stroke-width:0.8;" x="100.93291" xlink:href="#mf24c28988f" y="174.2"/>
      </g>
     </g>
     <g id="text_2">
      <text style="font-family:DejaVu Sans;font-size:10px;font-style:normal;font-weight:normal;text-anchor:middle;" transform="rotate(-0, 100.93291, 188.798438)" x="100.93291" y="188.798438">10</text>
     </g>
    </g>
    <g id="xtick_3">
     <g id="line2d_3">
      <g>
       <use style="stroke:#000000;stroke-width:0.8;" x="155.268763" xlink:href="#mf24c28988f" y="174.2"/>
      </g>
     </g>
     <g id="text_3">
      <text style="font-family:DejaVu Sans;font-size:10px;font-style:normal;font-weight:normal;text-anchor:middle;" transform="rotate(-0, 155.268763, 188.798438)" x="155.268763" y="188.798438">20</text>
     </g>
    </g>
    <g id="xtick_4">
     <g id="line2d_4">
      <g>
       <use style="stroke:#000000;stroke-width:0.8;" x="209.604616" xlink:href="#mf24c28988f" y="174.2"/>
      </g>
     </g>
     <g id="text_4">
      <text style="font-family:DejaVu Sans;font-size:10px;font-style:normal;font-weight:normal;text-anchor:middle;" transform="rotate(-0, 209.604616, 188.798438)" x="209.604616" y="188.798438">30</text>
     </g>
    </g>
    <g id="text_5">
     <text style="font-family:DejaVu Sans;font-size:10px;font-style:normal;font-weight:normal;text-anchor:middle;" transform="rotate(-0, 130.817629, 202.476562)" x="130.817629" y="202.476562">Day</text>
    </g>
   </g>
   <g id="matplotlib.axis_2">
    <g id="ytick_1">
     <g id="line2d_5">
      <defs>
       <path d="M 0 0 
L -3.5 0 
" id="m5658b8d740" style="stroke:#000000;stroke-width:0.8;"/>
      </defs>
      <g>
       <use style="stroke:#000000;stroke-width:0.8;" x="38.175" xlink:href="#m5658b8d740" y="174.2"/>
      </g>
     </g>
     <g id="text_6">
      <text style="font-family:DejaVu Sans;font-size:10px;font-style:normal;font-weight:normal;text-anchor:end;" transform="rotate(-0, 31.175, 177.999219)" x="31.175" y="177.999219">2</text>
     </g>
    </g>
    <g id="ytick_2">
     <g id="line2d_6">
      <g>
       <use style="stroke:#000000;stroke-width:0.8;" x="38.175" xlink:href="#m5658b8d740" y="149.633333"/>
      </g>
     </g>
     <g id="text_7">
      <text style="font-family:DejaVu Sans;font-size:10px;font-style:normal;font-weight:normal;text-anchor:end;" transform="rotate(-0, 31.175, 153.432552)" x="31.175" y="153.432552">3</text>
     </g>
    </g>
    <g id="ytick_3">
     <g id="line2d_7">
      <g>
       <use style="stroke:#000000;stroke-width:0.8;" x="38.175" xlink:href="#m5658b8d740" y="125.066667"/>
      </g>
     </g>
     <g id="text_8">
      <text style="font-family:DejaVu Sans;font-size:10px;font-style:normal;font-weight:normal;text-anchor:end;" transform="rotate(-0, 31.175, 128.865885)" x="31.175" y="128.865885">4</text>
     </g>
    </g>
    <g id="ytick_4">
     <g id="line2d_8">
      <g>
       <use style="stroke:#000000;stroke-width:0.8;" x="38.175" xlink:href="#m5658b8d740" y="100.5"/>
      </g>
     </g>
     <g id="text_9">
      <text style="font-family:DejaVu Sans;font-size:10px;font-style:normal;font-weight:normal;text-anchor:end;" transform="rotate(-0, 31.175, 104.299219)" x="31.175" y="104.299219">5</text>
     </g>
    </g>
    <g id="ytick_5">
     <g id="line2d_9">
      <g>
       <use style="stroke:#000000;stroke-width:0.8;" x="38.175" xlink:href="#m5658b8d740" y="75.933333"/>
      </g>
     </g>
     <g id="text_10">
      <text style="font-family:DejaVu Sans;font-size:10px;font-style:normal;font-weight:normal;text-anchor:end;" transform="rotate(-0, 31.175, 79.732552)" x="31.175" y="79.732552">6</text>
     </g>
    </g>
    <g id="ytick_6">
     <g id="line2d_10">
      <g>
       <use style="stroke:#000000;stroke-width:0.8;" x="38.175" xlink:href="#m5658b8d740" y="51.366667"/>
      </g>
     </g>
     <g id="text_11">
      <text style="font-family:DejaVu Sans;font-size:10px;font-style:normal;font-weight:normal;text-anchor:end;" transform="rotate(-0, 31.175, 55.165885)" x="31.175" y="55.165885">7</text>
     </g>
    </g>
    <g id="ytick_7">
     <g id="line2d_11">
      <g>
       <use style="stroke:#000000;stroke-width:0.8;" x="38.175" xlink:href="#m5658b8d740" y="26.8"/>
      </g>
     </g>
     <g id="text_12">
      <text style="font-family:DejaVu Sans;font-size:10px;font-style:normal;font-weight:normal;text-anchor:end;" transform="rotate(-0, 31.175, 30.599219)" x="31.175" y="30.599219">8</text>
     </g>
    </g>
    <g id="text_13">
     <text style="font-family:DejaVu Sans;font-size:10px;font-style:normal;font-weight:normal;text-anchor:middle;" transform="rotate(-90, 18.732812, 100.5)" x="18.732812" y="100.5">AlphaDiversity</text>
    </g>
   </g>
   <g id="line2d_12">
    <defs>
     <path d="M 0 4 
C 1.060812 4 2.078319 3.578535 2.828427 2.828427 
C 3.578535 2.078319 4 1.060812 4 0 
C 4 -1.060812 3.578535 -2.078319 2.828427 -2.828427 
C 2.078319 -3.578535 1.060812 -4 0 -4 
C -1.060812 -4 -2.078319 -3.578535 -2.828427 -2.828427 
C -3.578535 -2.078319 -4 -1.060812 -4 0 
C -4 1.060812 -3.578535 2.078319 -2.828427 2.828427 
C -2.078319 3.578535 -1.060812 4 0 4 
z
" id="m8b2d017062" style="stroke:#ffb300;"/>
    </defs>
    <g clip-path="url(#p85d97fff71)">
     <use style="fill:#ffb300;stroke:#ffb300;" x="46.597057" xlink:href="#m8b2d017062" y="77.639289"/>
     <use style="fill:#ffb300;stroke:#ffb300;" x="52.030643" xlink:href="#m8b2d017062" y="108.957435"/>
     <use style="fill:#ffb300;stroke:#ffb300;" x="62.897813" xlink:href="#m8b2d017062" y="127.342162"/>
     <use style="fill:#ffb300;stroke:#ffb300;" x="73.764984" xlink:href="#m8b2d017062" y="97.221993"/>
     <use style="fill:#ffb300;stroke:#ffb300;" x="90.06574" xlink:href="#m8b2d017062" y="96.822801"/>
     <use style="fill:#ffb300;stroke:#ffb300;" x="117.233666" xlink:href="#m8b2d017062" y="105.339305"/>
     <use style="fill:#ffb300;stroke:#ffb300;" x="149.835178" xlink:href="#m8b2d017062" y="105.487158"/>
     <use style="fill:#ffb300;stroke:#ffb300;" x="182.43669" xlink:href="#m8b2d017062" y="103.330838"/>
     <use style="fill:#ffb300;stroke:#ffb300;" x="215.038201" xlink:href="#m8b2d017062" y="102.395999"/>
    </g>
   </g>
   <g id="line2d_13">
    <path clip-path="url(#p85d97fff71)" d="M 46.597057 77.639289 
L 48.298483 94.264658 
L 49.999909 105.311526 
L 51.701334 112.325348 
L 53.40276 116.460577 
L 55.104186 118.574471 
L 56.805611 119.299159 
L 58.507037 119.096896 
L 60.208463 118.302315 
L 61.909889 117.154659 
L 63.611314 115.822281 
L 65.31274 114.421215 
L 67.014166 113.029198 
L 68.715591 111.696205 
L 70.417017 110.452333 
L 72.118443 109.313659 
L 73.819868 108.286573 
L 75.521294 107.370951 
L 77.22272 106.562452 
L 78.924145 105.854178 
L 80.625571 105.237834 
L 82.326997 104.704539 
L 84.028423 104.245374 
L 85.729848 103.851731 
L 87.431274 103.515538 
L 89.1327 103.229374 
L 90.834125 102.986526 
L 92.535551 102.780992 
L 94.236977 102.607462 
L 95.938402 102.461279 
L 97.639828 102.33838 
L 99.341254 102.235248 
L 101.04268 102.148851 
L 102.744105 102.076586 
L 104.445531 102.01623 
L 106.146957 101.965888 
L 107.848382 101.923951 
L 109.549808 101.889057 
L 111.251234 101.860054 
L 112.952659 101.835973 
L 114.654085 101.815998 
L 116.355511 101.799443 
L 118.056937 101.785735 
L 119.758362 101.774392 
L 121.459788 101.765015 
L 123.161214 101.757268 
L 124.862639 101.750872 
L 126.564065 101.745595 
L 128.265491 101.741244 
L 129.966916 101.737658 
L 131.668342 101.734705 
L 133.369768 101.732274 
L 135.071194 101.730274 
L 136.772619 101.728629 
L 138.474045 101.727277 
L 140.175471 101.726167 
L 141.876896 101.725254 
L 143.578322 101.724506 
L 145.279748 101.723891 
L 146.981173 101.723387 
L 148.682599 101.722974 
L 150.384025 101.722635 
L 152.085451 101.722358 
L 153.786876 101.72213 
L 155.488302 101.721944 
L 157.189728 101.721792 
L 158.891153 101.721667 
L 160.592579 101.721565 
L 162.294005 101.721481 
L 163.99543 101.721413 
L 165.696856 101.721357 
L 167.398282 101.721312 
L 169.099708 101.721274 
L 170.801133 101.721244 
L 172.502559 101.721219 
L 174.203985 101.721199 
L 175.90541 101.721182 
L 177.606836 101.721169 
L 179.308262 101.721158 
L 181.009687 101.721149 
L 182.711113 101.721141 
L 184.412539 101.721135 
L 186.113965 101.72113 
L 187.81539 101.721126 
L 189.516816 101.721123 
L 191.218242 101.721121 
L 192.919667 101.721118 
L 194.621093 101.721117 
L 196.322519 101.721115 
L 198.023944 101.721114 
L 199.72537 101.721113 
L 201.426796 101.721112 
L 203.128222 101.721112 
L 204.829647 101.721111 
L 206.531073 101.721111 
L 208.232499 101.72111 
L 209.933924 101.72111 
L 211.63535 101.72111 
L 213.336776 101.72111 
L 215.038201 101.72111 
" style="fill:none;stroke:#ffb300;stroke-linecap:square;stroke-width:1.5;"/>
   </g>
   <g id="line2d_14">
    <defs>
     <path d="M 0 4 
C 1.060812 4 2.078319 3.578535 2.828427 2.828427 
C 3.578535 2.078319 4 1.060812 4 0 
C 4 -1.060812 3.578535 -2.078319 2.828427 -2.828427 
C 2.078319 -3.578535 1.060812 -4 0 -4 
C -1.060812 -4 -2.078319 -3.578535 -2.828427 -2.828427 
C -3.578535 -2.078319 -4 -1.060812 -4 0 
C -4 1.060812 -3.578535 2.078319 -2.828427 2.828427 
C -2.078319 3.578535 -1.060812 4 0 4 
z
" id="m4c3fc65576" style="stroke:#803e75;"/>
    </defs>
    <g clip-path="url(#p85d97fff71)">
     <use style="fill:#803e75;stroke:#803e75;" x="46.597057" xlink:href="#m4c3fc65576" y="82.968562"/>
     <use style="fill:#803e75;stroke:#803e75;" x="52.030643" xlink:href="#m4c3fc65576" y="116.235168"/>
     <use style="fill:#803e75;stroke:#803e75;" x="62.897813" xlink:href="#m4c3fc65576" y="119.168902"/>
     <use style="fill:#803e75;stroke:#803e75;" x="73.764984" xlink:href="#m4c3fc65576" y="103.70948"/>
     <use style="fill:#803e75;stroke:#803e75;" x="90.06574" xlink:href="#m4c3fc65576" y="98.16152"/>
     <use style="fill:#803e75;stroke:#803e75;" x="117.233666" xlink:href="#m4c3fc65576" y="78.759176"/>
     <use style="fill:#803e75;stroke:#803e75;" x="149.835178" xlink:href="#m4c3fc65576" y="92.026429"/>
     <use style="fill:#803e75;stroke:#803e75;" x="182.43669" xlink:href="#m4c3fc65576" y="107.16817"/>
     <use style="fill:#803e75;stroke:#803e75;" x="215.038201" xlink:href="#m4c3fc65576" y="87.12679"/>
    </g>
   </g>
   <g id="line2d_15">
    <path clip-path="url(#p85d97fff71)" d="M 46.597057 82.968562 
L 48.298483 98.536026 
L 49.999909 109.097695 
L 51.701334 115.899631 
L 53.40276 119.909914 
L 55.104186 121.87697 
L 56.805611 122.376141 
L 58.507037 121.846782 
L 60.208463 120.621773 
L 61.909889 118.950943 
L 63.611314 117.019615 
L 65.31274 114.963269 
L 67.014166 112.879079 
L 68.715591 110.834987 
L 70.417017 108.876798 
L 72.118443 107.033721 
L 73.819868 105.322659 
L 75.521294 103.751536 
L 77.22272 102.321841 
L 78.924145 101.03058 
L 80.625571 99.871738 
L 82.326997 98.837393 
L 84.028423 97.918524 
L 85.729848 97.10561 
L 87.431274 96.389057 
L 89.1327 95.759489 
L 90.834125 95.207953 
L 92.535551 94.72604 
L 94.236977 94.305957 
L 95.938402 93.94056 
L 97.639828 93.623353 
L 99.341254 93.348478 
L 101.04268 93.110679 
L 102.744105 92.905271 
L 104.445531 92.728093 
L 106.146957 92.575467 
L 107.848382 92.444152 
L 109.549808 92.331301 
L 111.251234 92.234422 
L 112.952659 92.151338 
L 114.654085 92.080151 
L 116.355511 92.019213 
L 118.056937 91.967092 
L 119.758362 91.922546 
L 121.459788 91.884504 
L 123.161214 91.852039 
L 124.862639 91.824352 
L 126.564065 91.800755 
L 128.265491 91.780656 
L 129.966916 91.763546 
L 131.668342 91.748989 
L 133.369768 91.736611 
L 135.071194 91.72609 
L 136.772619 91.717152 
L 138.474045 91.709563 
L 140.175471 91.703122 
L 141.876896 91.697657 
L 143.578322 91.693023 
L 145.279748 91.689095 
L 146.981173 91.685766 
L 148.682599 91.682946 
L 150.384025 91.680558 
L 152.085451 91.678537 
L 153.786876 91.676826 
L 155.488302 91.675379 
L 157.189728 91.674155 
L 158.891153 91.673121 
L 160.592579 91.672246 
L 162.294005 91.671507 
L 163.99543 91.670883 
L 165.696856 91.670356 
L 167.398282 91.66991 
L 169.099708 91.669535 
L 170.801133 91.669218 
L 172.502559 91.66895 
L 174.203985 91.668724 
L 175.90541 91.668534 
L 177.606836 91.668373 
L 179.308262 91.668238 
L 181.009687 91.668124 
L 182.711113 91.668028 
L 184.412539 91.667947 
L 186.113965 91.667879 
L 187.81539 91.667821 
L 189.516816 91.667773 
L 191.218242 91.667732 
L 192.919667 91.667698 
L 194.621093 91.667669 
L 196.322519 91.667645 
L 198.023944 91.667624 
L 199.72537 91.667607 
L 201.426796 91.667592 
L 203.128222 91.66758 
L 204.829647 91.66757 
L 206.531073 91.667561 
L 208.232499 91.667554 
L 209.933924 91.667548 
L 211.63535 91.667543 
L 213.336776 91.667539 
L 215.038201 91.667535 
" style="fill:none;stroke:#803e75;stroke-linecap:square;stroke-width:1.5;"/>
   </g>
   <g id="line2d_16">
    <defs>
     <path d="M 0 4 
C 1.060812 4 2.078319 3.578535 2.828427 2.828427 
C 3.578535 2.078319 4 1.060812 4 0 
C 4 -1.060812 3.578535 -2.078319 2.828427 -2.828427 
C 2.078319 -3.578535 1.060812 -4 0 -4 
C -1.060812 -4 -2.078319 -3.578535 -2.828427 -2.828427 
C -3.578535 -2.078319 -4 -1.060812 -4 0 
C -4 1.060812 -3.578535 2.078319 -2.828427 2.828427 
C -2.078319 3.578535 -1.060812 4 0 4 
z
" id="md8c431903c" style="stroke:#ff6800;"/>
    </defs>
    <g clip-path="url(#p85d97fff71)">
     <use style="fill:#ff6800;stroke:#ff6800;" x="46.597057" xlink:href="#md8c431903c" y="67.918472"/>
     <use style="fill:#ff6800;stroke:#ff6800;" x="52.030643" xlink:href="#md8c431903c" y="107.278386"/>
     <use style="fill:#ff6800;stroke:#ff6800;" x="62.897813" xlink:href="#md8c431903c" y="106.614787"/>
     <use style="fill:#ff6800;stroke:#ff6800;" x="73.764984" xlink:href="#md8c431903c" y="107.14394"/>
     <use style="fill:#ff6800;stroke:#ff6800;" x="90.06574" xlink:href="#md8c431903c" y="104.574247"/>
     <use style="fill:#ff6800;stroke:#ff6800;" x="117.233666" xlink:href="#md8c431903c" y="93.776661"/>
     <use style="fill:#ff6800;stroke:#ff6800;" x="149.835178" xlink:href="#md8c431903c" y="115.865903"/>
     <use style="fill:#ff6800;stroke:#ff6800;" x="182.43669" xlink:href="#md8c431903c" y="95.295864"/>
     <use style="fill:#ff6800;stroke:#ff6800;" x="215.038201" xlink:href="#md8c431903c" y="112.405133"/>
    </g>
   </g>
   <g id="line2d_17">
    <path clip-path="url(#p85d97fff71)" d="M 46.597057 67.918472 
L 48.298483 92.311389 
L 49.999909 102.677768 
L 51.701334 106.845389 
L 53.40276 108.303022 
L 55.104186 108.601823 
L 56.805611 108.428184 
L 58.507037 108.082962 
L 60.208463 107.695502 
L 61.909889 107.31917 
L 63.611314 106.97395 
L 65.31274 106.66541 
L 67.014166 106.393106 
L 68.715591 106.154288 
L 70.417017 105.945502 
L 72.118443 105.763266 
L 73.819868 105.604335 
L 75.521294 105.465788 
L 77.22272 105.345035 
L 78.924145 105.239804 
L 80.625571 105.148104 
L 82.326997 105.068198 
L 84.028423 104.99857 
L 85.729848 104.937898 
L 87.431274 104.885031 
L 89.1327 104.838964 
L 90.834125 104.798824 
L 92.535551 104.763847 
L 94.236977 104.733369 
L 95.938402 104.706813 
L 97.639828 104.683672 
L 99.341254 104.663508 
L 101.04268 104.645938 
L 102.744105 104.630628 
L 104.445531 104.617288 
L 106.146957 104.605664 
L 107.848382 104.595535 
L 109.549808 104.586709 
L 111.251234 104.579018 
L 112.952659 104.572317 
L 114.654085 104.566478 
L 116.355511 104.561389 
L 118.056937 104.556956 
L 119.758362 104.553093 
L 121.459788 104.549726 
L 123.161214 104.546793 
L 124.862639 104.544237 
L 126.564065 104.54201 
L 128.265491 104.54007 
L 129.966916 104.538379 
L 131.668342 104.536905 
L 133.369768 104.535621 
L 135.071194 104.534502 
L 136.772619 104.533528 
L 138.474045 104.532678 
L 140.175471 104.531938 
L 141.876896 104.531293 
L 143.578322 104.530731 
L 145.279748 104.530241 
L 146.981173 104.529815 
L 148.682599 104.529443 
L 150.384025 104.529119 
L 152.085451 104.528837 
L 153.786876 104.528591 
L 155.488302 104.528376 
L 157.189728 104.52819 
L 158.891153 104.528027 
L 160.592579 104.527885 
L 162.294005 104.527761 
L 163.99543 104.527654 
L 165.696856 104.52756 
L 167.398282 104.527478 
L 169.099708 104.527407 
L 170.801133 104.527345 
L 172.502559 104.527291 
L 174.203985 104.527244 
L 175.90541 104.527203 
L 177.606836 104.527167 
L 179.308262 104.527136 
L 181.009687 104.527108 
L 182.711113 104.527085 
L 184.412539 104.527064 
L 186.113965 104.527046 
L 187.81539 104.527031 
L 189.516816 104.527017 
L 191.218242 104.527005 
L 192.919667 104.526995 
L 194.621093 104.526986 
L 196.322519 104.526978 
L 198.023944 104.526971 
L 199.72537 104.526965 
L 201.426796 104.52696 
L 203.128222 104.526955 
L 204.829647 104.526951 
L 206.531073 104.526948 
L 208.232499 104.526945 
L 209.933924 104.526942 
L 211.63535 104.52694 
L 213.336776 104.526938 
L 215.038201 104.526936 
" style="fill:none;stroke:#ff6800;stroke-linecap:square;stroke-width:1.5;"/>
   </g>
   <g id="line2d_18">
    <defs>
     <path d="M 0 4 
C 1.060812 4 2.078319 3.578535 2.828427 2.828427 
C 3.578535 2.078319 4 1.060812 4 0 
C 4 -1.060812 3.578535 -2.078319 2.828427 -2.828427 
C 2.078319 -3.578535 1.060812 -4 0 -4 
C -1.060812 -4 -2.078319 -3.578535 -2.828427 -2.828427 
C -3.578535 -2.078319 -4 -1.060812 -4 0 
C -4 1.060812 -3.578535 2.078319 -2.828427 2.828427 
C -2.078319 3.578535 -1.060812 4 0 4 
z
" id="mb564ce610e" style="stroke:#a6bdd7;"/>
    </defs>
    <g clip-path="url(#p85d97fff71)">
     <use style="fill:#a6bdd7;stroke:#a6bdd7;" x="46.597057" xlink:href="#mb564ce610e" y="75.350156"/>
     <use style="fill:#a6bdd7;stroke:#a6bdd7;" x="52.030643" xlink:href="#mb564ce610e" y="145.910596"/>
     <use style="fill:#a6bdd7;stroke:#a6bdd7;" x="62.897813" xlink:href="#mb564ce610e" y="114.544377"/>
     <use style="fill:#a6bdd7;stroke:#a6bdd7;" x="73.764984" xlink:href="#mb564ce610e" y="109.862194"/>
     <use style="fill:#a6bdd7;stroke:#a6bdd7;" x="90.06574" xlink:href="#mb564ce610e" y="104.807168"/>
     <use style="fill:#a6bdd7;stroke:#a6bdd7;" x="117.233666" xlink:href="#mb564ce610e" y="106.115547"/>
     <use style="fill:#a6bdd7;stroke:#a6bdd7;" x="149.835178" xlink:href="#mb564ce610e" y="96.509074"/>
     <use style="fill:#a6bdd7;stroke:#a6bdd7;" x="182.43669" xlink:href="#mb564ce610e" y="95.377742"/>
     <use style="fill:#a6bdd7;stroke:#a6bdd7;" x="215.038201" xlink:href="#mb564ce610e" y="97.12382"/>
    </g>
   </g>
   <g id="line2d_19">
    <path clip-path="url(#p85d97fff71)" d="M 46.597057 75.350156 
L 48.298483 156.769968 
L 49.999909 152.858516 
L 51.701334 146.158672 
L 53.40276 140.173677 
L 55.104186 134.950035 
L 56.805611 130.396158 
L 58.507037 126.426401 
L 60.208463 122.96585 
L 61.909889 119.949188 
L 63.611314 117.319478 
L 65.31274 115.027084 
L 67.014166 113.028739 
L 68.715591 111.286724 
L 70.417017 109.76816 
L 72.118443 108.444384 
L 73.819868 107.290411 
L 75.521294 106.284459 
L 77.22272 105.407542 
L 78.924145 104.643109 
L 80.625571 103.976731 
L 82.326997 103.395829 
L 84.028423 102.889441 
L 85.729848 102.448008 
L 87.431274 102.063198 
L 89.1327 101.727749 
L 90.834125 101.435327 
L 92.535551 101.180416 
L 94.236977 100.958202 
L 95.938402 100.764491 
L 97.639828 100.595628 
L 99.341254 100.448426 
L 101.04268 100.320105 
L 102.744105 100.208244 
L 104.445531 100.110732 
L 106.146957 100.025728 
L 107.848382 99.951627 
L 109.549808 99.887032 
L 111.251234 99.830722 
L 112.952659 99.781635 
L 114.654085 99.738845 
L 116.355511 99.701543 
L 118.056937 99.669026 
L 119.758362 99.64068 
L 121.459788 99.61597 
L 123.161214 99.59443 
L 124.862639 99.575652 
L 126.564065 99.559283 
L 128.265491 99.545014 
L 129.966916 99.532576 
L 131.668342 99.521732 
L 133.369768 99.51228 
L 135.071194 99.50404 
L 136.772619 99.496857 
L 138.474045 99.490595 
L 140.175471 99.485137 
L 141.876896 99.480379 
L 143.578322 99.476231 
L 145.279748 99.472615 
L 146.981173 99.469463 
L 148.682599 99.466715 
L 150.384025 99.46432 
L 152.085451 99.462232 
L 153.786876 99.460412 
L 155.488302 99.458825 
L 157.189728 99.457442 
L 158.891153 99.456236 
L 160.592579 99.455185 
L 162.294005 99.454269 
L 163.99543 99.45347 
L 165.696856 99.452774 
L 167.398282 99.452167 
L 169.099708 99.451638 
L 170.801133 99.451176 
L 172.502559 99.450774 
L 174.203985 99.450424 
L 175.90541 99.450118 
L 177.606836 99.449852 
L 179.308262 99.44962 
L 181.009687 99.449417 
L 182.711113 99.449241 
L 184.412539 99.449087 
L 186.113965 99.448953 
L 187.81539 99.448836 
L 189.516816 99.448734 
L 191.218242 99.448645 
L 192.919667 99.448568 
L 194.621093 99.4485 
L 196.322519 99.448442 
L 198.023944 99.44839 
L 199.72537 99.448346 
L 201.426796 99.448307 
L 203.128222 99.448273 
L 204.829647 99.448243 
L 206.531073 99.448217 
L 208.232499 99.448195 
L 209.933924 99.448175 
L 211.63535 99.448158 
L 213.336776 99.448143 
L 215.038201 99.44813 
" style="fill:none;stroke:#a6bdd7;stroke-linecap:square;stroke-width:1.5;"/>
   </g>
   <g id="line2d_20">
    <defs>
     <path d="M 0 4 
C 1.060812 4 2.078319 3.578535 2.828427 2.828427 
C 3.578535 2.078319 4 1.060812 4 0 
C 4 -1.060812 3.578535 -2.078319 2.828427 -2.828427 
C 2.078319 -3.578535 1.060812 -4 0 -4 
C -1.060812 -4 -2.078319 -3.578535 -2.828427 -2.828427 
C -3.578535 -2.078319 -4 -1.060812 -4 0 
C -4 1.060812 -3.578535 2.078319 -2.828427 2.828427 
C -2.078319 3.578535 -1.060812 4 0 4 
z
" id="m96525cbee7" style="stroke:#c10020;"/>
    </defs>
    <g clip-path="url(#p85d97fff71)">
     <use style="fill:#c10020;stroke:#c10020;" x="46.597057" xlink:href="#m96525cbee7" y="82.190565"/>
     <use style="fill:#c10020;stroke:#c10020;" x="52.030643" xlink:href="#m96525cbee7" y="107.184036"/>
     <use style="fill:#c10020;stroke:#c10020;" x="62.897813" xlink:href="#m96525cbee7" y="143.508705"/>
     <use style="fill:#c10020;stroke:#c10020;" x="73.764984" xlink:href="#m96525cbee7" y="107.353498"/>
     <use style="fill:#c10020;stroke:#c10020;" x="90.06574" xlink:href="#m96525cbee7" y="103.14848"/>
     <use style="fill:#c10020;stroke:#c10020;" x="117.233666" xlink:href="#m96525cbee7" y="92.327105"/>
     <use style="fill:#c10020;stroke:#c10020;" x="149.835178" xlink:href="#m96525cbee7" y="91.46945"/>
     <use style="fill:#c10020;stroke:#c10020;" x="182.43669" xlink:href="#m96525cbee7" y="95.816929"/>
     <use style="fill:#c10020;stroke:#c10020;" x="215.038201" xlink:href="#m96525cbee7" y="102.932525"/>
    </g>
   </g>
   <g id="line2d_21">
    <path clip-path="url(#p85d97fff71)" d="M 46.597057 82.190564 
L 48.298483 96.924503 
L 49.999909 107.930913 
L 51.701334 115.944619 
L 53.40276 121.57039 
L 55.104186 125.304605 
L 56.805611 127.553451 
L 58.507037 128.648184 
L 60.208463 128.857926 
L 61.909889 128.400371 
L 63.611314 127.450736 
L 65.31274 126.149246 
L 67.014166 124.607359 
L 68.715591 122.91297 
L 70.417017 121.134719 
L 72.118443 119.325577 
L 73.819868 117.525818 
L 75.521294 115.765466 
L 77.22272 114.066323 
L 78.924145 112.443635 
L 80.625571 110.907457 
L 82.326997 109.463772 
L 84.028423 108.115403 
L 85.729848 106.86275 
L 87.431274 105.704393 
L 89.1327 104.637569 
L 90.834125 103.658564 
L 92.535551 102.763009 
L 94.236977 101.946131 
L 95.938402 101.202934 
L 97.639828 100.528348 
L 99.341254 99.917338 
L 101.04268 99.364983 
L 102.744105 98.866542 
L 104.445531 98.417488 
L 106.146957 98.01354 
L 107.848382 97.650676 
L 109.549808 97.325141 
L 111.251234 97.03345 
L 112.952659 96.772381 
L 114.654085 96.538965 
L 116.355511 96.330482 
L 118.056937 96.144442 
L 119.758362 95.978576 
L 121.459788 95.830818 
L 123.161214 95.699294 
L 124.862639 95.582308 
L 126.564065 95.478327 
L 128.265491 95.385965 
L 129.966916 95.303977 
L 131.668342 95.231241 
L 133.369768 95.166751 
L 135.071194 95.109603 
L 136.772619 95.058987 
L 138.474045 95.01418 
L 140.175471 94.974533 
L 141.876896 94.939469 
L 143.578322 94.908471 
L 145.279748 94.881079 
L 146.981173 94.856884 
L 148.682599 94.835521 
L 150.384025 94.816666 
L 152.085451 94.800029 
L 153.786876 94.785356 
L 155.488302 94.772418 
L 157.189728 94.761015 
L 158.891153 94.750967 
L 160.592579 94.742115 
L 162.294005 94.73432 
L 163.99543 94.727458 
L 165.696856 94.721418 
L 167.398282 94.716104 
L 169.099708 94.711428 
L 170.801133 94.707317 
L 172.502559 94.703701 
L 174.203985 94.700523 
L 175.90541 94.69773 
L 177.606836 94.695276 
L 179.308262 94.69312 
L 181.009687 94.691227 
L 182.711113 94.689564 
L 184.412539 94.688104 
L 186.113965 94.686823 
L 187.81539 94.685698 
L 189.516816 94.684711 
L 191.218242 94.683845 
L 192.919667 94.683086 
L 194.621093 94.68242 
L 196.322519 94.681836 
L 198.023944 94.681324 
L 199.72537 94.680875 
L 201.426796 94.680481 
L 203.128222 94.680137 
L 204.829647 94.679835 
L 206.531073 94.67957 
L 208.232499 94.679338 
L 209.933924 94.679135 
L 211.63535 94.678957 
L 213.336776 94.678801 
L 215.038201 94.678665 
" style="fill:none;stroke:#c10020;stroke-linecap:square;stroke-width:1.5;"/>
   </g>
   <g id="patch_3">
    <path d="M 38.175 174.2 
L 38.175 26.8 
" style="fill:none;stroke:#000000;stroke-linecap:square;stroke-linejoin:miter;stroke-width:0.8;"/>
   </g>
   <g id="patch_4">
    <path d="M 223.460259 174.2 
L 223.460259 26.8 
" style="fill:none;stroke:#000000;stroke-linecap:square;stroke-linejoin:miter;stroke-width:0.8;"/>
   </g>
   <g id="patch_5">
    <path d="M 38.175 174.2 
L 223.460259 174.2 
" style="fill:none;stroke:#000000;stroke-linecap:square;stroke-linejoin:miter;stroke-width:0.8;"/>
   </g>
   <g id="patch_6">
    <path d="M 38.175 26.8 
L 223.460259 26.8 
" style="fill:none;stroke:#000000;stroke-linecap:square;stroke-linejoin:miter;stroke-width:0.8;"/>
   </g>
   <g id="text_14">
    <text style="font-family:DejaVu Sans;font-size:12px;font-style:normal;font-weight:normal;text-anchor:middle;" transform="rotate(-0, 130.817629, 20.8)" x="130.817629" y="20.8">Beijing</text>
   </g>
  </g>
  <g id="axes_2">
   <g id="patch_7">
    <path d="M 248.260259 174.2 
L 433.545517 174.2 
L 433.545517 26.8 
L 248.260259 26.8 
z
" style="fill:#ffffff;"/>
   </g>
   <g id="matplotlib.axis_3">
    <g id="xtick_5">
     <g id="line2d_22">
      <g>
       <use style="stroke:#000000;stroke-width:0.8;" x="256.682316" xlink:href="#mf24c28988f" y="174.2"/>
      </g>
     </g>
     <g id="text_15">
      <text style="font-family:DejaVu Sans;font-size:10px;font-style:normal;font-weight:normal;text-anchor:middle;" transform="rotate(-0, 256.682316, 188.798438)" x="256.682316" y="188.798438">0</text>
     </g>
    </g>
    <g id="xtick_6">
     <g id="line2d_23">
      <g>
       <use style="stroke:#000000;stroke-width:0.8;" x="311.018169" xlink:href="#mf24c28988f" y="174.2"/>
      </g>
     </g>
     <g id="text_16">
      <text style="font-family:DejaVu Sans;font-size:10px;font-style:normal;font-weight:normal;text-anchor:middle;" transform="rotate(-0, 311.018169, 188.798438)" x="311.018169" y="188.798438">10</text>
     </g>
    </g>
    <g id="xtick_7">
     <g id="line2d_24">
      <g>
       <use style="stroke:#000000;stroke-width:0.8;" x="365.354022" xlink:href="#mf24c28988f" y="174.2"/>
      </g>
     </g>
     <g id="text_17">
      <text style="font-family:DejaVu Sans;font-size:10px;font-style:normal;font-weight:normal;text-anchor:middle;" transform="rotate(-0, 365.354022, 188.798438)" x="365.354022" y="188.798438">20</text>
     </g>
    </g>
    <g id="xtick_8">
     <g id="line2d_25">
      <g>
       <use style="stroke:#000000;stroke-width:0.8;" x="419.689875" xlink:href="#mf24c28988f" y="174.2"/>
      </g>
     </g>
     <g id="text_18">
      <text style="font-family:DejaVu Sans;font-size:10px;font-style:normal;font-weight:normal;text-anchor:middle;" transform="rotate(-0, 419.689875, 188.798438)" x="419.689875" y="188.798438">30</text>
     </g>
    </g>
    <g id="text_19">
     <text style="font-family:DejaVu Sans;font-size:10px;font-style:normal;font-weight:normal;text-anchor:middle;" transform="rotate(-0, 340.902888, 202.476562)" x="340.902888" y="202.476562">Day</text>
    </g>
   </g>
   <g id="matplotlib.axis_4">
    <g id="ytick_8">
     <g id="line2d_26">
      <g>
       <use style="stroke:#000000;stroke-width:0.8;" x="248.260259" xlink:href="#m5658b8d740" y="174.2"/>
      </g>
     </g>
    </g>
    <g id="ytick_9">
     <g id="line2d_27">
      <g>
       <use style="stroke:#000000;stroke-width:0.8;" x="248.260259" xlink:href="#m5658b8d740" y="149.633333"/>
      </g>
     </g>
    </g>
    <g id="ytick_10">
     <g id="line2d_28">
      <g>
       <use style="stroke:#000000;stroke-width:0.8;" x="248.260259" xlink:href="#m5658b8d740" y="125.066667"/>
      </g>
     </g>
    </g>
    <g id="ytick_11">
     <g id="line2d_29">
      <g>
       <use style="stroke:#000000;stroke-width:0.8;" x="248.260259" xlink:href="#m5658b8d740" y="100.5"/>
      </g>
     </g>
    </g>
    <g id="ytick_12">
     <g id="line2d_30">
      <g>
       <use style="stroke:#000000;stroke-width:0.8;" x="248.260259" xlink:href="#m5658b8d740" y="75.933333"/>
      </g>
     </g>
    </g>
    <g id="ytick_13">
     <g id="line2d_31">
      <g>
       <use style="stroke:#000000;stroke-width:0.8;" x="248.260259" xlink:href="#m5658b8d740" y="51.366667"/>
      </g>
     </g>
    </g>
    <g id="ytick_14">
     <g id="line2d_32">
      <g>
       <use style="stroke:#000000;stroke-width:0.8;" x="248.260259" xlink:href="#m5658b8d740" y="26.8"/>
      </g>
     </g>
    </g>
    <g id="text_20">
     <text style="font-family:DejaVu Sans;font-size:10px;font-style:normal;font-weight:normal;text-anchor:middle;" transform="rotate(-90, 242.180571, 100.5)" x="242.180571" y="100.5">AlphaDiversity</text>
    </g>
   </g>
   <g id="line2d_33">
    <g clip-path="url(#p9b5dbf0c8c)">
     <use style="fill:#ffb300;stroke:#ffb300;" x="256.682316" xlink:href="#m8b2d017062" y="63.623571"/>
     <use style="fill:#ffb300;stroke:#ffb300;" x="262.115901" xlink:href="#m8b2d017062" y="105.024217"/>
     <use style="fill:#ffb300;stroke:#ffb300;" x="272.983072" xlink:href="#m8b2d017062" y="85.770648"/>
     <use style="fill:#ffb300;stroke:#ffb300;" x="283.850242" xlink:href="#m8b2d017062" y="72.935912"/>
     <use style="fill:#ffb300;stroke:#ffb300;" x="300.150998" xlink:href="#m8b2d017062" y="94.855403"/>
     <use style="fill:#ffb300;stroke:#ffb300;" x="327.318925" xlink:href="#m8b2d017062" y="79.403454"/>
     <use style="fill:#ffb300;stroke:#ffb300;" x="359.920436" xlink:href="#m8b2d017062" y="92.638495"/>
     <use style="fill:#ffb300;stroke:#ffb300;" x="392.521948" xlink:href="#m8b2d017062" y="83.839974"/>
     <use style="fill:#ffb300;stroke:#ffb300;" x="425.12346" xlink:href="#m8b2d017062" y="77.284058"/>
    </g>
   </g>
   <g id="line2d_34">
    <path clip-path="url(#p9b5dbf0c8c)" d="M 256.682316 63.623571 
L 258.383742 101.708674 
L 260.085167 109.182923 
L 261.786593 106.071745 
L 263.488019 100.483798 
L 265.189444 95.326372 
L 266.89087 91.367821 
L 268.592296 88.585701 
L 270.293721 86.728897 
L 271.995147 85.531009 
L 273.696573 84.776494 
L 275.397999 84.309609 
L 277.099424 84.024624 
L 278.80085 83.852537 
L 280.502276 83.749526 
L 282.203701 83.688305 
L 283.905127 83.652138 
L 285.606553 83.63088 
L 287.307978 83.618439 
L 289.009404 83.611185 
L 290.71083 83.60697 
L 292.412256 83.604526 
L 294.113681 83.603114 
L 295.815107 83.602299 
L 297.516533 83.60183 
L 299.217958 83.60156 
L 300.919384 83.601406 
L 302.62081 83.601317 
L 304.322235 83.601266 
L 306.023661 83.601237 
L 307.725087 83.601221 
L 309.426512 83.601211 
L 311.127938 83.601206 
L 312.829364 83.601203 
L 314.53079 83.601201 
L 316.232215 83.6012 
L 317.933641 83.601199 
L 319.635067 83.601199 
L 321.336492 83.601199 
L 323.037918 83.601199 
L 324.739344 83.601199 
L 326.440769 83.601199 
L 328.142195 83.601199 
L 329.843621 83.601199 
L 331.545047 83.601199 
L 333.246472 83.601199 
L 334.947898 83.601199 
L 336.649324 83.601199 
L 338.350749 83.601199 
L 340.052175 83.601199 
L 341.753601 83.601199 
L 343.455026 83.601199 
L 345.156452 83.601199 
L 346.857878 83.601199 
L 348.559304 83.601199 
L 350.260729 83.601199 
L 351.962155 83.601199 
L 353.663581 83.601199 
L 355.365006 83.601199 
L 357.066432 83.601199 
L 358.767858 83.601199 
L 360.469283 83.601199 
L 362.170709 83.601199 
L 363.872135 83.601199 
L 365.573561 83.601199 
L 367.274986 83.601199 
L 368.976412 83.601199 
L 370.677838 83.601199 
L 372.379263 83.601199 
L 374.080689 83.601199 
L 375.782115 83.601199 
L 377.48354 83.601199 
L 379.184966 83.601199 
L 380.886392 83.601199 
L 382.587818 83.601199 
L 384.289243 83.601199 
L 385.990669 83.601199 
L 387.692095 83.601199 
L 389.39352 83.601199 
L 391.094946 83.601199 
L 392.796372 83.601199 
L 394.497797 83.601199 
L 396.199223 83.601199 
L 397.900649 83.601199 
L 399.602075 83.601199 
L 401.3035 83.601199 
L 403.004926 83.601199 
L 404.706352 83.601199 
L 406.407777 83.601199 
L 408.109203 83.601199 
L 409.810629 83.601199 
L 411.512054 83.601199 
L 413.21348 83.601199 
L 414.914906 83.601199 
L 416.616332 83.601199 
L 418.317757 83.601199 
L 420.019183 83.601199 
L 421.720609 83.601199 
L 423.422034 83.601199 
L 425.12346 83.601199 
" style="fill:none;stroke:#ffb300;stroke-linecap:square;stroke-width:1.5;"/>
   </g>
   <g id="line2d_35">
    <g clip-path="url(#p9b5dbf0c8c)">
     <use style="fill:#803e75;stroke:#803e75;" x="256.682316" xlink:href="#m4c3fc65576" y="68.810624"/>
     <use style="fill:#803e75;stroke:#803e75;" x="262.115901" xlink:href="#m4c3fc65576" y="81.162785"/>
     <use style="fill:#803e75;stroke:#803e75;" x="272.983072" xlink:href="#m4c3fc65576" y="83.447306"/>
     <use style="fill:#803e75;stroke:#803e75;" x="283.850242" xlink:href="#m4c3fc65576" y="101.243132"/>
     <use style="fill:#803e75;stroke:#803e75;" x="300.150998" xlink:href="#m4c3fc65576" y="118.210881"/>
     <use style="fill:#803e75;stroke:#803e75;" x="327.318925" xlink:href="#m4c3fc65576" y="110.698662"/>
     <use style="fill:#803e75;stroke:#803e75;" x="359.920436" xlink:href="#m4c3fc65576" y="99.177103"/>
     <use style="fill:#803e75;stroke:#803e75;" x="392.521948" xlink:href="#m4c3fc65576" y="95.587749"/>
     <use style="fill:#803e75;stroke:#803e75;" x="425.12346" xlink:href="#m4c3fc65576" y="86.273224"/>
    </g>
   </g>
   <g id="line2d_36">
    <path clip-path="url(#p9b5dbf0c8c)" d="M 256.682316 68.810624 
L 258.383742 71.972694 
L 260.085167 74.962586 
L 261.786593 77.787169 
L 263.488019 80.453068 
L 265.189444 82.966674 
L 266.89087 85.334153 
L 268.592296 87.561452 
L 270.293721 89.654305 
L 271.995147 91.618241 
L 273.696573 93.458594 
L 275.397999 95.180503 
L 277.099424 96.788926 
L 278.80085 98.288639 
L 280.502276 99.684247 
L 282.203701 100.980187 
L 283.905127 102.180735 
L 285.606553 103.290013 
L 287.307978 104.311988 
L 289.009404 105.250485 
L 290.71083 106.109188 
L 292.412256 106.891643 
L 294.113681 107.601266 
L 295.815107 108.241346 
L 297.516533 108.815049 
L 299.217958 109.325423 
L 300.919384 109.775402 
L 302.62081 110.167809 
L 304.322235 110.505359 
L 306.023661 110.790667 
L 307.725087 111.026246 
L 309.426512 111.214513 
L 311.127938 111.357794 
L 312.829364 111.458324 
L 314.53079 111.518252 
L 316.232215 111.539644 
L 317.933641 111.524484 
L 319.635067 111.474679 
L 321.336492 111.392063 
L 323.037918 111.278394 
L 324.739344 111.135363 
L 326.440769 110.964593 
L 328.142195 110.767639 
L 329.843621 110.545999 
L 331.545047 110.301105 
L 333.246472 110.034334 
L 334.947898 109.747006 
L 336.649324 109.440385 
L 338.350749 109.115685 
L 340.052175 108.774069 
L 341.753601 108.416651 
L 343.455026 108.044496 
L 345.156452 107.658629 
L 346.857878 107.260026 
L 348.559304 106.849625 
L 350.260729 106.428321 
L 351.962155 105.996971 
L 353.663581 105.556395 
L 355.365006 105.107375 
L 357.066432 104.650662 
L 358.767858 104.186969 
L 360.469283 103.716979 
L 362.170709 103.241344 
L 363.872135 102.760685 
L 365.573561 102.275596 
L 367.274986 101.786642 
L 368.976412 101.294362 
L 370.677838 100.799267 
L 372.379263 100.301847 
L 374.080689 99.802566 
L 375.782115 99.301866 
L 377.48354 98.800166 
L 379.184966 98.297866 
L 380.886392 97.795343 
L 382.587818 97.292956 
L 384.289243 96.791046 
L 385.990669 96.289935 
L 387.692095 95.789928 
L 389.39352 95.291313 
L 391.094946 94.794363 
L 392.796372 94.299335 
L 394.497797 93.80647 
L 396.199223 93.315999 
L 397.900649 92.828134 
L 399.602075 92.34308 
L 401.3035 91.861024 
L 403.004926 91.382144 
L 404.706352 90.906608 
L 406.407777 90.434569 
L 408.109203 89.966173 
L 409.810629 89.501555 
L 411.512054 89.04084 
L 413.21348 88.584143 
L 414.914906 88.131571 
L 416.616332 87.683225 
L 418.317757 87.239193 
L 420.019183 86.79956 
L 421.720609 86.364401 
L 423.422034 85.933784 
L 425.12346 85.507772 
" style="fill:none;stroke:#803e75;stroke-linecap:square;stroke-width:1.5;"/>
   </g>
   <g id="line2d_37">
    <g clip-path="url(#p9b5dbf0c8c)">
     <use style="fill:#ff6800;stroke:#ff6800;" x="256.682316" xlink:href="#md8c431903c" y="67.762672"/>
     <use style="fill:#ff6800;stroke:#ff6800;" x="262.115901" xlink:href="#md8c431903c" y="99.283842"/>
     <use style="fill:#ff6800;stroke:#ff6800;" x="272.983072" xlink:href="#md8c431903c" y="88.127433"/>
     <use style="fill:#ff6800;stroke:#ff6800;" x="283.850242" xlink:href="#md8c431903c" y="89.54245"/>
     <use style="fill:#ff6800;stroke:#ff6800;" x="300.150998" xlink:href="#md8c431903c" y="107.025298"/>
     <use style="fill:#ff6800;stroke:#ff6800;" x="327.318925" xlink:href="#md8c431903c" y="104.358631"/>
     <use style="fill:#ff6800;stroke:#ff6800;" x="359.920436" xlink:href="#md8c431903c" y="100.106953"/>
     <use style="fill:#ff6800;stroke:#ff6800;" x="392.521948" xlink:href="#md8c431903c" y="56.02006"/>
     <use style="fill:#ff6800;stroke:#ff6800;" x="425.12346" xlink:href="#md8c431903c" y="60.631817"/>
    </g>
   </g>
   <g id="line2d_38">
    <path clip-path="url(#p9b5dbf0c8c)" d="M 256.682316 67.762672 
L 258.383742 70.867859 
L 260.085167 73.801087 
L 261.786593 76.56839 
L 263.488019 79.175618 
L 265.189444 81.628448 
L 266.89087 83.932383 
L 268.592296 86.09276 
L 270.293721 88.114755 
L 271.995147 90.003384 
L 273.696573 91.763511 
L 275.397999 93.399852 
L 277.099424 94.916976 
L 278.80085 96.319314 
L 280.502276 97.611158 
L 282.203701 98.796669 
L 283.905127 99.879877 
L 285.606553 100.864689 
L 287.307978 101.754888 
L 289.009404 102.55414 
L 290.71083 103.265995 
L 292.412256 103.893891 
L 294.113681 104.441159 
L 295.815107 104.911023 
L 297.516533 105.306606 
L 299.217958 105.63093 
L 300.919384 105.886921 
L 302.62081 106.077412 
L 304.322235 106.205143 
L 306.023661 106.272767 
L 307.725087 106.28285 
L 309.426512 106.237875 
L 311.127938 106.140245 
L 312.829364 105.992282 
L 314.53079 105.796234 
L 316.232215 105.554273 
L 317.933641 105.2685 
L 319.635067 104.940945 
L 321.336492 104.573572 
L 323.037918 104.168278 
L 324.739344 103.726895 
L 326.440769 103.251196 
L 328.142195 102.74289 
L 329.843621 102.203631 
L 331.545047 101.635015 
L 333.246472 101.038582 
L 334.947898 100.415821 
L 336.649324 99.768166 
L 338.350749 99.097004 
L 340.052175 98.403672 
L 341.753601 97.689459 
L 343.455026 96.955609 
L 345.156452 96.203323 
L 346.857878 95.433756 
L 348.559304 94.648023 
L 350.260729 93.847199 
L 351.962155 93.032319 
L 353.663581 92.204379 
L 355.365006 91.364341 
L 357.066432 90.513127 
L 358.767858 89.651629 
L 360.469283 88.780703 
L 362.170709 87.901171 
L 363.872135 87.013827 
L 365.573561 86.119431 
L 367.274986 85.218717 
L 368.976412 84.312387 
L 370.677838 83.401118 
L 372.379263 82.485558 
L 374.080689 81.566331 
L 375.782115 80.644033 
L 377.48354 79.719238 
L 379.184966 78.792497 
L 380.886392 77.864336 
L 382.587818 76.935259 
L 384.289243 76.00575 
L 385.990669 75.076273 
L 387.692095 74.147268 
L 389.39352 73.219161 
L 391.094946 72.292356 
L 392.796372 71.367238 
L 394.497797 70.444177 
L 396.199223 69.523525 
L 397.900649 68.605618 
L 399.602075 67.690776 
L 401.3035 66.779302 
L 403.004926 65.871488 
L 404.706352 64.967607 
L 406.407777 64.067923 
L 408.109203 63.172683 
L 409.810629 62.282123 
L 411.512054 61.396466 
L 413.21348 60.515924 
L 414.914906 59.640694 
L 416.616332 58.770967 
L 418.317757 57.90692 
L 420.019183 57.048719 
L 421.720609 56.196523 
L 423.422034 55.350478 
L 425.12346 54.510723 
" style="fill:none;stroke:#ff6800;stroke-linecap:square;stroke-width:1.5;"/>
   </g>
   <g id="line2d_39">
    <g clip-path="url(#p9b5dbf0c8c)">
     <use style="fill:#a6bdd7;stroke:#a6bdd7;" x="256.682316" xlink:href="#mb564ce610e" y="72.495548"/>
     <use style="fill:#a6bdd7;stroke:#a6bdd7;" x="262.115901" xlink:href="#mb564ce610e" y="94.683751"/>
     <use style="fill:#a6bdd7;stroke:#a6bdd7;" x="272.983072" xlink:href="#mb564ce610e" y="79.47592"/>
     <use style="fill:#a6bdd7;stroke:#a6bdd7;" x="283.850242" xlink:href="#mb564ce610e" y="63.046696"/>
     <use style="fill:#a6bdd7;stroke:#a6bdd7;" x="300.150998" xlink:href="#mb564ce610e" y="125.704594"/>
     <use style="fill:#a6bdd7;stroke:#a6bdd7;" x="327.318925" xlink:href="#mb564ce610e" y="108.323417"/>
     <use style="fill:#a6bdd7;stroke:#a6bdd7;" x="359.920436" xlink:href="#mb564ce610e" y="98.706662"/>
     <use style="fill:#a6bdd7;stroke:#a6bdd7;" x="392.521948" xlink:href="#mb564ce610e" y="50.871758"/>
     <use style="fill:#a6bdd7;stroke:#a6bdd7;" x="425.12346" xlink:href="#mb564ce610e" y="66.971261"/>
    </g>
   </g>
   <g id="line2d_40">
    <path clip-path="url(#p9b5dbf0c8c)" d="M 256.682316 72.49555 
L 258.383742 74.792281 
L 260.085167 76.986273 
L 261.786593 79.08011 
L 263.488019 81.076312 
L 265.189444 82.977338 
L 266.89087 84.785581 
L 268.592296 86.503377 
L 270.293721 88.133 
L 271.995147 89.676675 
L 273.696573 91.136558 
L 275.397999 92.514766 
L 277.099424 93.813349 
L 278.80085 95.03431 
L 280.502276 96.179608 
L 282.203701 97.251139 
L 283.905127 98.25077 
L 285.606553 99.180305 
L 287.307978 100.041505 
L 289.009404 100.836095 
L 290.71083 101.565746 
L 292.412256 102.2321 
L 294.113681 102.836748 
L 295.815107 103.381237 
L 297.516533 103.867088 
L 299.217958 104.29577 
L 300.919384 104.66873 
L 302.62081 104.987365 
L 304.322235 105.253039 
L 306.023661 105.467094 
L 307.725087 105.630819 
L 309.426512 105.745493 
L 311.127938 105.812341 
L 312.829364 105.832569 
L 314.53079 105.807351 
L 316.232215 105.737829 
L 317.933641 105.62512 
L 319.635067 105.47031 
L 321.336492 105.274461 
L 323.037918 105.0386 
L 324.739344 104.763744 
L 326.440769 104.450861 
L 328.142195 104.10092 
L 329.843621 103.714849 
L 331.545047 103.293553 
L 333.246472 102.837925 
L 334.947898 102.34883 
L 336.649324 101.827104 
L 338.350749 101.273571 
L 340.052175 100.689037 
L 341.753601 100.07427 
L 343.455026 99.430042 
L 345.156452 98.757088 
L 346.857878 98.056136 
L 348.559304 97.327888 
L 350.260729 96.57303 
L 351.962155 95.792234 
L 353.663581 94.986152 
L 355.365006 94.155418 
L 357.066432 93.300655 
L 358.767858 92.422469 
L 360.469283 91.521446 
L 362.170709 90.598166 
L 363.872135 89.65318 
L 365.573561 88.687043 
L 367.274986 87.700283 
L 368.976412 86.693421 
L 370.677838 85.666962 
L 372.379263 84.621402 
L 374.080689 83.557213 
L 375.782115 82.474876 
L 377.48354 81.374842 
L 379.184966 80.257553 
L 380.886392 79.123448 
L 382.587818 77.972945 
L 384.289243 76.806467 
L 385.990669 75.624404 
L 387.692095 74.427156 
L 389.39352 73.2151 
L 391.094946 71.988616 
L 392.796372 70.74806 
L 394.497797 69.49379 
L 396.199223 68.22615 
L 397.900649 66.945476 
L 399.602075 65.652097 
L 401.3035 64.34633 
L 403.004926 63.028492 
L 404.706352 61.698881 
L 406.407777 60.357799 
L 408.109203 59.005529 
L 409.810629 57.642357 
L 411.512054 56.268553 
L 413.21348 54.884392 
L 414.914906 53.490127 
L 416.616332 52.086018 
L 418.317757 50.672307 
L 420.019183 49.24924 
L 421.720609 47.817052 
L 423.422034 46.375971 
L 425.12346 44.926224 
" style="fill:none;stroke:#a6bdd7;stroke-linecap:square;stroke-width:1.5;"/>
   </g>
   <g id="patch_8">
    <path d="M 248.260259 174.2 
L 248.260259 26.8 
" style="fill:none;stroke:#000000;stroke-linecap:square;stroke-linejoin:miter;stroke-width:0.8;"/>
   </g>
   <g id="patch_9">
    <path d="M 433.545517 174.2 
L 433.545517 26.8 
" style="fill:none;stroke:#000000;stroke-linecap:square;stroke-linejoin:miter;stroke-width:0.8;"/>
   </g>
   <g id="patch_10">
    <path d="M 248.260259 174.2 
L 433.545517 174.2 
" style="fill:none;stroke:#000000;stroke-linecap:square;stroke-linejoin:miter;stroke-width:0.8;"/>
   </g>
   <g id="patch_11">
    <path d="M 248.260259 26.8 
L 433.545517 26.8 
" style="fill:none;stroke:#000000;stroke-linecap:square;stroke-linejoin:miter;stroke-width:0.8;"/>
   </g>
   <g id="text_21">
    <text style="font-family:DejaVu Sans;font-size:12px;font-style:normal;font-weight:normal;text-anchor:middle;" transform="rotate(-0, 340.902888, 20.8)" x="340.902888" y="20.8">Guangdong</text>
   </g>
  </g>
  <g id="axes_3">
   <g id="patch_12">
    <path d="M 458.345517 174.2 
L 643.630776 174.2 
L 643.630776 26.8 
L 458.345517 26.8 
z
" style="fill:#ffffff;"/>
   </g>
   <g id="matplotlib.axis_5">
    <g id="xtick_9">
     <g id="line2d_41">
      <g>
       <use style="stroke:#000000;stroke-width:0.8;" x="466.767574" xlink:href="#mf24c28988f" y="174.2"/>
      </g>
     </g>
     <g id="text_22">
      <text style="font-family:DejaVu Sans;font-size:10px;font-style:normal;font-weight:normal;text-anchor:middle;" transform="rotate(-0, 466.767574, 188.798438)" x="466.767574" y="188.798438">0</text>
     </g>
    </g>
    <g id="xtick_10">
     <g id="line2d_42">
      <g>
       <use style="stroke:#000000;stroke-width:0.8;" x="521.103427" xlink:href="#mf24c28988f" y="174.2"/>
      </g>
     </g>
     <g id="text_23">
      <text style="font-family:DejaVu Sans;font-size:10px;font-style:normal;font-weight:normal;text-anchor:middle;" transform="rotate(-0, 521.103427, 188.798438)" x="521.103427" y="188.798438">10</text>
     </g>
    </g>
    <g id="xtick_11">
     <g id="line2d_43">
      <g>
       <use style="stroke:#000000;stroke-width:0.8;" x="575.43928" xlink:href="#mf24c28988f" y="174.2"/>
      </g>
     </g>
     <g id="text_24">
      <text style="font-family:DejaVu Sans;font-size:10px;font-style:normal;font-weight:normal;text-anchor:middle;" transform="rotate(-0, 575.43928, 188.798438)" x="575.43928" y="188.798438">20</text>
     </g>
    </g>
    <g id="xtick_12">
     <g id="line2d_44">
      <g>
       <use style="stroke:#000000;stroke-width:0.8;" x="629.775133" xlink:href="#mf24c28988f" y="174.2"/>
      </g>
     </g>
     <g id="text_25">
      <text style="font-family:DejaVu Sans;font-size:10px;font-style:normal;font-weight:normal;text-anchor:middle;" transform="rotate(-0, 629.775133, 188.798438)" x="629.775133" y="188.798438">30</text>
     </g>
    </g>
    <g id="text_26">
     <text style="font-family:DejaVu Sans;font-size:10px;font-style:normal;font-weight:normal;text-anchor:middle;" transform="rotate(-0, 550.988147, 202.476562)" x="550.988147" y="202.476562">Day</text>
    </g>
   </g>
   <g id="matplotlib.axis_6">
    <g id="ytick_15">
     <g id="line2d_45">
      <g>
       <use style="stroke:#000000;stroke-width:0.8;" x="458.345517" xlink:href="#m5658b8d740" y="174.2"/>
      </g>
     </g>
    </g>
    <g id="ytick_16">
     <g id="line2d_46">
      <g>
       <use style="stroke:#000000;stroke-width:0.8;" x="458.345517" xlink:href="#m5658b8d740" y="149.633333"/>
      </g>
     </g>
    </g>
    <g id="ytick_17">
     <g id="line2d_47">
      <g>
       <use style="stroke:#000000;stroke-width:0.8;" x="458.345517" xlink:href="#m5658b8d740" y="125.066667"/>
      </g>
     </g>
    </g>
    <g id="ytick_18">
     <g id="line2d_48">
      <g>
       <use style="stroke:#000000;stroke-width:0.8;" x="458.345517" xlink:href="#m5658b8d740" y="100.5"/>
      </g>
     </g>
    </g>
    <g id="ytick_19">
     <g id="line2d_49">
      <g>
       <use style="stroke:#000000;stroke-width:0.8;" x="458.345517" xlink:href="#m5658b8d740" y="75.933333"/>
      </g>
     </g>
    </g>
    <g id="ytick_20">
     <g id="line2d_50">
      <g>
       <use style="stroke:#000000;stroke-width:0.8;" x="458.345517" xlink:href="#m5658b8d740" y="51.366667"/>
      </g>
     </g>
    </g>
    <g id="ytick_21">
     <g id="line2d_51">
      <g>
       <use style="stroke:#000000;stroke-width:0.8;" x="458.345517" xlink:href="#m5658b8d740" y="26.8"/>
      </g>
     </g>
    </g>
    <g id="text_27">
     <text style="font-family:DejaVu Sans;font-size:10px;font-style:normal;font-weight:normal;text-anchor:middle;" transform="rotate(-90, 452.26583, 100.5)" x="452.26583" y="100.5">AlphaDiversity</text>
    </g>
   </g>
   <g id="line2d_52">
    <g clip-path="url(#paa32459487)">
     <use style="fill:#ffb300;stroke:#ffb300;" x="466.767574" xlink:href="#m8b2d017062" y="85.523303"/>
     <use style="fill:#ffb300;stroke:#ffb300;" x="472.20116" xlink:href="#m8b2d017062" y="142.666443"/>
     <use style="fill:#ffb300;stroke:#ffb300;" x="483.06833" xlink:href="#m8b2d017062" y="128.064786"/>
     <use style="fill:#ffb300;stroke:#ffb300;" x="493.935501" xlink:href="#m8b2d017062" y="96.181052"/>
     <use style="fill:#ffb300;stroke:#ffb300;" x="510.236257" xlink:href="#m8b2d017062" y="101.069659"/>
     <use style="fill:#ffb300;stroke:#ffb300;" x="537.404183" xlink:href="#m8b2d017062" y="103.834532"/>
     <use style="fill:#ffb300;stroke:#ffb300;" x="570.005695" xlink:href="#m8b2d017062" y="103.9544"/>
     <use style="fill:#ffb300;stroke:#ffb300;" x="602.607207" xlink:href="#m8b2d017062" y="110.133641"/>
     <use style="fill:#ffb300;stroke:#ffb300;" x="635.208719" xlink:href="#m8b2d017062" y="123.389119"/>
    </g>
   </g>
   <g id="line2d_53">
    <path clip-path="url(#paa32459487)" d="M 466.767574 85.523303 
L 468.469 120.094125 
L 470.170426 136.964922 
L 471.871852 143.337175 
L 473.573277 143.767269 
L 475.274703 141.083133 
L 476.976129 136.99495 
L 478.677554 132.499373 
L 480.37898 128.145022 
L 482.080406 124.205238 
L 483.781831 120.789227 
L 485.483257 117.912541 
L 487.184683 115.540965 
L 488.886109 113.617162 
L 490.587534 112.076307 
L 492.28896 110.85477 
L 493.990386 109.894535 
L 495.691811 109.145038 
L 497.393237 108.563548 
L 499.094663 108.114741 
L 500.796088 107.769902 
L 502.497514 107.505995 
L 504.19894 107.304733 
L 505.900366 107.151725 
L 507.601791 107.035727 
L 509.303217 106.94801 
L 511.004643 106.88183 
L 512.706068 106.832004 
L 514.407494 106.794561 
L 516.10892 106.766474 
L 517.810345 106.745439 
L 519.511771 106.729709 
L 521.213197 106.717961 
L 522.914623 106.7092 
L 524.616048 106.702673 
L 526.317474 106.697817 
L 528.0189 106.694207 
L 529.720325 106.691527 
L 531.421751 106.689538 
L 533.123177 106.688064 
L 534.824602 106.686972 
L 536.526028 106.686164 
L 538.227454 106.685566 
L 539.92888 106.685125 
L 541.630305 106.684799 
L 543.331731 106.684558 
L 545.033157 106.68438 
L 546.734582 106.684249 
L 548.436008 106.684153 
L 550.137434 106.684082 
L 551.838859 106.68403 
L 553.540285 106.683991 
L 555.241711 106.683963 
L 556.943136 106.683942 
L 558.644562 106.683927 
L 560.345988 106.683916 
L 562.047414 106.683908 
L 563.748839 106.683901 
L 565.450265 106.683897 
L 567.151691 106.683894 
L 568.853116 106.683891 
L 570.554542 106.68389 
L 572.255968 106.683888 
L 573.957393 106.683887 
L 575.658819 106.683887 
L 577.360245 106.683886 
L 579.061671 106.683886 
L 580.763096 106.683886 
L 582.464522 106.683885 
L 584.165948 106.683885 
L 585.867373 106.683885 
L 587.568799 106.683885 
L 589.270225 106.683885 
L 590.97165 106.683885 
L 592.673076 106.683885 
L 594.374502 106.683885 
L 596.075928 106.683885 
L 597.777353 106.683885 
L 599.478779 106.683885 
L 601.180205 106.683885 
L 602.88163 106.683885 
L 604.583056 106.683885 
L 606.284482 106.683885 
L 607.985907 106.683885 
L 609.687333 106.683885 
L 611.388759 106.683885 
L 613.090185 106.683885 
L 614.79161 106.683885 
L 616.493036 106.683885 
L 618.194462 106.683885 
L 619.895887 106.683885 
L 621.597313 106.683885 
L 623.298739 106.683885 
L 625.000164 106.683885 
L 626.70159 106.683885 
L 628.403016 106.683885 
L 630.104442 106.683885 
L 631.805867 106.683885 
L 633.507293 106.683885 
L 635.208719 106.683885 
" style="fill:none;stroke:#ffb300;stroke-linecap:square;stroke-width:1.5;"/>
   </g>
   <g id="line2d_54">
    <g clip-path="url(#paa32459487)">
     <use style="fill:#803e75;stroke:#803e75;" x="466.767574" xlink:href="#m4c3fc65576" y="108.338637"/>
     <use style="fill:#803e75;stroke:#803e75;" x="472.20116" xlink:href="#m4c3fc65576" y="130.612846"/>
     <use style="fill:#803e75;stroke:#803e75;" x="483.06833" xlink:href="#m4c3fc65576" y="157.176618"/>
     <use style="fill:#803e75;stroke:#803e75;" x="493.935501" xlink:href="#m4c3fc65576" y="172.074306"/>
     <use style="fill:#803e75;stroke:#803e75;" x="510.236257" xlink:href="#m4c3fc65576" y="111.108873"/>
     <use style="fill:#803e75;stroke:#803e75;" x="537.404183" xlink:href="#m4c3fc65576" y="110.53029"/>
     <use style="fill:#803e75;stroke:#803e75;" x="570.005695" xlink:href="#m4c3fc65576" y="115.941609"/>
     <use style="fill:#803e75;stroke:#803e75;" x="602.607207" xlink:href="#m4c3fc65576" y="117.382287"/>
     <use style="fill:#803e75;stroke:#803e75;" x="635.208719" xlink:href="#m4c3fc65576" y="112.567544"/>
    </g>
   </g>
   <g id="line2d_55">
    <path clip-path="url(#paa32459487)" d="M 466.767574 108.338637 
L 468.469 121.737928 
L 470.170426 132.313631 
L 471.871852 140.515443 
L 473.573277 146.729274 
L 475.274703 151.285738 
L 476.976129 154.467555 
L 478.677554 156.516003 
L 480.37898 157.636546 
L 482.080406 158.003719 
L 483.781831 157.765394 
L 485.483257 157.046482 
L 487.184683 155.95214 
L 488.886109 154.570571 
L 490.587534 152.975438 
L 492.28896 151.227968 
L 493.990386 149.378756 
L 495.691811 147.469347 
L 497.393237 145.533582 
L 499.094663 143.598775 
L 500.796088 141.686713 
L 502.497514 139.814531 
L 504.19894 137.99545 
L 505.900366 136.239421 
L 507.601791 134.55367 
L 509.303217 132.943165 
L 511.004643 131.411019 
L 512.706068 129.958825 
L 514.407494 128.586946 
L 516.10892 127.294759 
L 517.810345 126.080861 
L 519.511771 124.943246 
L 521.213197 123.879441 
L 522.914623 122.886637 
L 524.616048 121.961785 
L 526.317474 121.101678 
L 528.0189 120.303021 
L 529.720325 119.562487 
L 531.421751 118.876759 
L 533.123177 118.242566 
L 534.824602 117.656714 
L 536.526028 117.116102 
L 538.227454 116.617743 
L 539.92888 116.15877 
L 541.630305 115.73645 
L 543.331731 115.348184 
L 545.033157 114.991509 
L 546.734582 114.664103 
L 548.436008 114.363779 
L 550.137434 114.088483 
L 551.838859 113.836291 
L 553.540285 113.605406 
L 555.241711 113.394152 
L 556.943136 113.200966 
L 558.644562 113.024396 
L 560.345988 112.863096 
L 562.047414 112.715816 
L 563.748839 112.5814 
L 565.450265 112.458779 
L 567.151691 112.346966 
L 568.853116 112.24505 
L 570.554542 112.152191 
L 572.255968 112.067617 
L 573.957393 111.990615 
L 575.658819 111.920534 
L 577.360245 111.856772 
L 579.061671 111.798779 
L 580.763096 111.746049 
L 582.464522 111.698119 
L 584.165948 111.654564 
L 585.867373 111.614998 
L 587.568799 111.579064 
L 589.270225 111.546437 
L 590.97165 111.516821 
L 592.673076 111.489944 
L 594.374502 111.46556 
L 596.075928 111.443442 
L 597.777353 111.423383 
L 599.478779 111.405197 
L 601.180205 111.388712 
L 602.88163 111.373772 
L 604.583056 111.360235 
L 606.284482 111.347972 
L 607.985907 111.336864 
L 609.687333 111.326805 
L 611.388759 111.317698 
L 613.090185 111.309453 
L 614.79161 111.301991 
L 616.493036 111.295238 
L 618.194462 111.289128 
L 619.895887 111.283601 
L 621.597313 111.278601 
L 623.298739 111.274079 
L 625.000164 111.269991 
L 626.70159 111.266294 
L 628.403016 111.262952 
L 630.104442 111.259932 
L 631.805867 111.257202 
L 633.507293 111.254735 
L 635.208719 111.252506 
" style="fill:none;stroke:#803e75;stroke-linecap:square;stroke-width:1.5;"/>
   </g>
   <g id="line2d_56">
    <g clip-path="url(#paa32459487)">
     <use style="fill:#ff6800;stroke:#ff6800;" x="466.767574" xlink:href="#md8c431903c" y="88.716936"/>
     <use style="fill:#ff6800;stroke:#ff6800;" x="472.20116" xlink:href="#md8c431903c" y="135.346012"/>
     <use style="fill:#ff6800;stroke:#ff6800;" x="483.06833" xlink:href="#md8c431903c" y="119.346236"/>
     <use style="fill:#ff6800;stroke:#ff6800;" x="493.935501" xlink:href="#md8c431903c" y="110.125162"/>
     <use style="fill:#ff6800;stroke:#ff6800;" x="510.236257" xlink:href="#md8c431903c" y="109.806838"/>
     <use style="fill:#ff6800;stroke:#ff6800;" x="537.404183" xlink:href="#md8c431903c" y="118.828962"/>
     <use style="fill:#ff6800;stroke:#ff6800;" x="570.005695" xlink:href="#md8c431903c" y="125.912237"/>
     <use style="fill:#ff6800;stroke:#ff6800;" x="602.607207" xlink:href="#md8c431903c" y="117.788565"/>
     <use style="fill:#ff6800;stroke:#ff6800;" x="635.208719" xlink:href="#md8c431903c" y="111.916743"/>
    </g>
   </g>
   <g id="line2d_57">
    <path clip-path="url(#paa32459487)" d="M 466.767574 88.716936 
L 468.469 125.862508 
L 470.170426 136.348825 
L 471.871852 136.129357 
L 473.573277 132.410172 
L 475.274703 128.205116 
L 476.976129 124.59824 
L 478.677554 121.839985 
L 480.37898 119.860014 
L 482.080406 118.494631 
L 483.781831 117.578815 
L 485.483257 116.976885 
L 487.184683 116.587345 
L 488.886109 116.338313 
L 490.587534 116.180671 
L 492.28896 116.08169 
L 493.990386 116.019962 
L 495.691811 115.98169 
L 497.393237 115.958078 
L 499.094663 115.943574 
L 500.796088 115.934698 
L 502.497514 115.929284 
L 504.19894 115.925992 
L 505.900366 115.923995 
L 507.601791 115.922787 
L 509.303217 115.922058 
L 511.004643 115.921618 
L 512.706068 115.921354 
L 514.407494 115.921195 
L 516.10892 115.9211 
L 517.810345 115.921043 
L 519.511771 115.921009 
L 521.213197 115.920989 
L 522.914623 115.920976 
L 524.616048 115.920969 
L 526.317474 115.920965 
L 528.0189 115.920962 
L 529.720325 115.920961 
L 531.421751 115.92096 
L 533.123177 115.920959 
L 534.824602 115.920959 
L 536.526028 115.920959 
L 538.227454 115.920959 
L 539.92888 115.920959 
L 541.630305 115.920959 
L 543.331731 115.920959 
L 545.033157 115.920959 
L 546.734582 115.920959 
L 548.436008 115.920959 
L 550.137434 115.920959 
L 551.838859 115.920959 
L 553.540285 115.920959 
L 555.241711 115.920959 
L 556.943136 115.920959 
L 558.644562 115.920959 
L 560.345988 115.920959 
L 562.047414 115.920959 
L 563.748839 115.920959 
L 565.450265 115.920959 
L 567.151691 115.920959 
L 568.853116 115.920959 
L 570.554542 115.920959 
L 572.255968 115.920959 
L 573.957393 115.920959 
L 575.658819 115.920959 
L 577.360245 115.920959 
L 579.061671 115.920959 
L 580.763096 115.920959 
L 582.464522 115.920959 
L 584.165948 115.920959 
L 585.867373 115.920959 
L 587.568799 115.920959 
L 589.270225 115.920959 
L 590.97165 115.920959 
L 592.673076 115.920959 
L 594.374502 115.920959 
L 596.075928 115.920959 
L 597.777353 115.920959 
L 599.478779 115.920959 
L 601.180205 115.920959 
L 602.88163 115.920959 
L 604.583056 115.920959 
L 606.284482 115.920959 
L 607.985907 115.920959 
L 609.687333 115.920959 
L 611.388759 115.920959 
L 613.090185 115.920959 
L 614.79161 115.920959 
L 616.493036 115.920959 
L 618.194462 115.920959 
L 619.895887 115.920959 
L 621.597313 115.920959 
L 623.298739 115.920959 
L 625.000164 115.920959 
L 626.70159 115.920959 
L 628.403016 115.920959 
L 630.104442 115.920959 
L 631.805867 115.920959 
L 633.507293 115.920959 
L 635.208719 115.920959 
" style="fill:none;stroke:#ff6800;stroke-linecap:square;stroke-width:1.5;"/>
   </g>
   <g id="line2d_58">
    <g clip-path="url(#paa32459487)">
     <use style="fill:#a6bdd7;stroke:#a6bdd7;" x="466.767574" xlink:href="#mb564ce610e" y="100.838668"/>
     <use style="fill:#a6bdd7;stroke:#a6bdd7;" x="472.20116" xlink:href="#mb564ce610e" y="122.716556"/>
     <use style="fill:#a6bdd7;stroke:#a6bdd7;" x="483.06833" xlink:href="#mb564ce610e" y="130.099951"/>
     <use style="fill:#a6bdd7;stroke:#a6bdd7;" x="493.935501" xlink:href="#mb564ce610e" y="115.665978"/>
     <use style="fill:#a6bdd7;stroke:#a6bdd7;" x="510.236257" xlink:href="#mb564ce610e" y="120.567559"/>
     <use style="fill:#a6bdd7;stroke:#a6bdd7;" x="537.404183" xlink:href="#mb564ce610e" y="111.240662"/>
     <use style="fill:#a6bdd7;stroke:#a6bdd7;" x="570.005695" xlink:href="#mb564ce610e" y="118.406072"/>
     <use style="fill:#a6bdd7;stroke:#a6bdd7;" x="602.607207" xlink:href="#mb564ce610e" y="110.176602"/>
     <use style="fill:#a6bdd7;stroke:#a6bdd7;" x="635.208719" xlink:href="#mb564ce610e" y="116.190372"/>
    </g>
   </g>
   <g id="line2d_59">
    <path clip-path="url(#paa32459487)" d="M 466.767574 100.838668 
L 468.469 111.241488 
L 470.170426 118.399956 
L 471.871852 123.134383 
L 473.573277 126.076733 
L 475.274703 127.711529 
L 476.976129 128.408186 
L 478.677554 128.446537 
L 480.37898 128.03693 
L 482.080406 127.336026 
L 483.781831 126.459187 
L 485.483257 125.490168 
L 487.184683 124.48867 
L 488.886109 123.49622 
L 490.587534 122.540719 
L 492.28896 121.639955 
L 493.990386 120.804302 
L 495.691811 120.038778 
L 497.393237 119.344612 
L 499.094663 118.720423 
L 500.796088 118.163102 
L 502.497514 117.668462 
L 504.19894 117.231716 
L 505.900366 116.84782 
L 507.601791 116.511707 
L 509.303217 116.218457 
L 511.004643 115.9634 
L 512.706068 115.742181 
L 514.407494 115.550794 
L 516.10892 115.385593 
L 517.810345 115.243293 
L 519.511771 115.120952 
L 521.213197 115.015954 
L 522.914623 114.925986 
L 524.616048 114.849011 
L 526.317474 114.783244 
L 528.0189 114.727124 
L 529.720325 114.679293 
L 531.421751 114.638573 
L 533.123177 114.603943 
L 534.824602 114.574521 
L 536.526028 114.549547 
L 538.227454 114.528367 
L 539.92888 114.510418 
L 541.630305 114.495221 
L 543.331731 114.482362 
L 545.033157 114.47149 
L 546.734582 114.462303 
L 548.436008 114.454545 
L 550.137434 114.447998 
L 551.838859 114.442475 
L 553.540285 114.43782 
L 555.241711 114.433898 
L 556.943136 114.430594 
L 558.644562 114.427814 
L 560.345988 114.425475 
L 562.047414 114.423507 
L 563.748839 114.421853 
L 565.450265 114.420464 
L 567.151691 114.419296 
L 568.853116 114.418316 
L 570.554542 114.417493 
L 572.255968 114.416803 
L 573.957393 114.416224 
L 575.658819 114.415738 
L 577.360245 114.415331 
L 579.061671 114.41499 
L 580.763096 114.414704 
L 582.464522 114.414465 
L 584.165948 114.414264 
L 585.867373 114.414096 
L 587.568799 114.413956 
L 589.270225 114.413838 
L 590.97165 114.41374 
L 592.673076 114.413658 
L 594.374502 114.413589 
L 596.075928 114.413532 
L 597.777353 114.413484 
L 599.478779 114.413444 
L 601.180205 114.41341 
L 602.88163 114.413382 
L 604.583056 114.413359 
L 606.284482 114.413339 
L 607.985907 114.413323 
L 609.687333 114.413309 
L 611.388759 114.413298 
L 613.090185 114.413289 
L 614.79161 114.413281 
L 616.493036 114.413274 
L 618.194462 114.413269 
L 619.895887 114.413264 
L 621.597313 114.41326 
L 623.298739 114.413257 
L 625.000164 114.413254 
L 626.70159 114.413252 
L 628.403016 114.41325 
L 630.104442 114.413249 
L 631.805867 114.413247 
L 633.507293 114.413246 
L 635.208719 114.413246 
" style="fill:none;stroke:#a6bdd7;stroke-linecap:square;stroke-width:1.5;"/>
   </g>
   <g id="patch_13">
    <path d="M 458.345517 174.2 
L 458.345517 26.8 
" style="fill:none;stroke:#000000;stroke-linecap:square;stroke-linejoin:miter;stroke-width:0.8;"/>
   </g>
   <g id="patch_14">
    <path d="M 643.630776 174.2 
L 643.630776 26.8 
" style="fill:none;stroke:#000000;stroke-linecap:square;stroke-linejoin:miter;stroke-width:0.8;"/>
   </g>
   <g id="patch_15">
    <path d="M 458.345517 174.2 
L 643.630776 174.2 
" style="fill:none;stroke:#000000;stroke-linecap:square;stroke-linejoin:miter;stroke-width:0.8;"/>
   </g>
   <g id="patch_16">
    <path d="M 458.345517 26.8 
L 643.630776 26.8 
" style="fill:none;stroke:#000000;stroke-linecap:square;stroke-linejoin:miter;stroke-width:0.8;"/>
   </g>
   <g id="text_28">
    <text style="font-family:DejaVu Sans;font-size:12px;font-style:normal;font-weight:normal;text-anchor:middle;" transform="rotate(-0, 550.988147, 20.8)" x="550.988147" y="20.8">Hunan</text>
   </g>
  </g>
  <g id="axes_4">
   <g id="patch_17">
    <path d="M 668.430776 174.2 
L 853.716034 174.2 
L 853.716034 26.8 
L 668.430776 26.8 
z
" style="fill:#ffffff;"/>
   </g>
   <g id="matplotlib.axis_7">
    <g id="xtick_13">
     <g id="line2d_60">
      <g>
       <use style="stroke:#000000;stroke-width:0.8;" x="676.852833" xlink:href="#mf24c28988f" y="174.2"/>
      </g>
     </g>
     <g id="text_29">
      <text style="font-family:DejaVu Sans;font-size:10px;font-style:normal;font-weight:normal;text-anchor:middle;" transform="rotate(-0, 676.852833, 188.798438)" x="676.852833" y="188.798438">0</text>
     </g>
    </g>
    <g id="xtick_14">
     <g id="line2d_61">
      <g>
       <use style="stroke:#000000;stroke-width:0.8;" x="731.188686" xlink:href="#mf24c28988f" y="174.2"/>
      </g>
     </g>
     <g id="text_30">
      <text style="font-family:DejaVu Sans;font-size:10px;font-style:normal;font-weight:normal;text-anchor:middle;" transform="rotate(-0, 731.188686, 188.798438)" x="731.188686" y="188.798438">10</text>
     </g>
    </g>
    <g id="xtick_15">
     <g id="line2d_62">
      <g>
       <use style="stroke:#000000;stroke-width:0.8;" x="785.524539" xlink:href="#mf24c28988f" y="174.2"/>
      </g>
     </g>
     <g id="text_31">
      <text style="font-family:DejaVu Sans;font-size:10px;font-style:normal;font-weight:normal;text-anchor:middle;" transform="rotate(-0, 785.524539, 188.798438)" x="785.524539" y="188.798438">20</text>
     </g>
    </g>
    <g id="xtick_16">
     <g id="line2d_63">
      <g>
       <use style="stroke:#000000;stroke-width:0.8;" x="839.860392" xlink:href="#mf24c28988f" y="174.2"/>
      </g>
     </g>
     <g id="text_32">
      <text style="font-family:DejaVu Sans;font-size:10px;font-style:normal;font-weight:normal;text-anchor:middle;" transform="rotate(-0, 839.860392, 188.798438)" x="839.860392" y="188.798438">30</text>
     </g>
    </g>
    <g id="text_33">
     <text style="font-family:DejaVu Sans;font-size:10px;font-style:normal;font-weight:normal;text-anchor:middle;" transform="rotate(-0, 761.073405, 202.476562)" x="761.073405" y="202.476562">Day</text>
    </g>
   </g>
   <g id="matplotlib.axis_8">
    <g id="ytick_22">
     <g id="line2d_64">
      <g>
       <use style="stroke:#000000;stroke-width:0.8;" x="668.430776" xlink:href="#m5658b8d740" y="174.2"/>
      </g>
     </g>
    </g>
    <g id="ytick_23">
     <g id="line2d_65">
      <g>
       <use style="stroke:#000000;stroke-width:0.8;" x="668.430776" xlink:href="#m5658b8d740" y="149.633333"/>
      </g>
     </g>
    </g>
    <g id="ytick_24">
     <g id="line2d_66">
      <g>
       <use style="stroke:#000000;stroke-width:0.8;" x="668.430776" xlink:href="#m5658b8d740" y="125.066667"/>
      </g>
     </g>
    </g>
    <g id="ytick_25">
     <g id="line2d_67">
      <g>
       <use style="stroke:#000000;stroke-width:0.8;" x="668.430776" xlink:href="#m5658b8d740" y="100.5"/>
      </g>
     </g>
    </g>
    <g id="ytick_26">
     <g id="line2d_68">
      <g>
       <use style="stroke:#000000;stroke-width:0.8;" x="668.430776" xlink:href="#m5658b8d740" y="75.933333"/>
      </g>
     </g>
    </g>
    <g id="ytick_27">
     <g id="line2d_69">
      <g>
       <use style="stroke:#000000;stroke-width:0.8;" x="668.430776" xlink:href="#m5658b8d740" y="51.366667"/>
      </g>
     </g>
    </g>
    <g id="ytick_28">
     <g id="line2d_70">
      <g>
       <use style="stroke:#000000;stroke-width:0.8;" x="668.430776" xlink:href="#m5658b8d740" y="26.8"/>
      </g>
     </g>
    </g>
    <g id="text_34">
     <text style="font-family:DejaVu Sans;font-size:10px;font-style:normal;font-weight:normal;text-anchor:middle;" transform="rotate(-90, 662.351088, 100.5)" x="662.351088" y="100.5">AlphaDiversity</text>
    </g>
   </g>
   <g id="line2d_71">
    <g clip-path="url(#p6933cbddd8)">
     <use style="fill:#ffb300;stroke:#ffb300;" x="676.852833" xlink:href="#m8b2d017062" y="115.749957"/>
     <use style="fill:#ffb300;stroke:#ffb300;" x="687.720004" xlink:href="#m8b2d017062" y="126.927941"/>
     <use style="fill:#ffb300;stroke:#ffb300;" x="704.02076" xlink:href="#m8b2d017062" y="135.853213"/>
     <use style="fill:#ffb300;stroke:#ffb300;" x="731.188686" xlink:href="#m8b2d017062" y="126.204704"/>
     <use style="fill:#ffb300;stroke:#ffb300;" x="747.489442" xlink:href="#m8b2d017062" y="129.694819"/>
     <use style="fill:#ffb300;stroke:#ffb300;" x="780.090954" xlink:href="#m8b2d017062" y="122.982206"/>
     <use style="fill:#ffb300;stroke:#ffb300;" x="812.692465" xlink:href="#m8b2d017062" y="115.418782"/>
     <use style="fill:#ffb300;stroke:#ffb300;" x="845.293977" xlink:href="#m8b2d017062" y="107.195859"/>
    </g>
   </g>
   <g id="line2d_72">
    <path clip-path="url(#p6933cbddd8)" d="M 676.852833 115.749957 
L 678.554259 118.525119 
L 680.255684 120.933766 
L 681.95711 123.018969 
L 683.658536 124.818734 
L 685.359962 126.366604 
L 687.061387 127.692177 
L 688.762813 128.821577 
L 690.464239 129.777855 
L 692.165664 130.581355 
L 693.86709 131.25003 
L 695.568516 131.799722 
L 697.269941 132.244414 
L 698.971367 132.596443 
L 700.672793 132.866699 
L 702.374219 133.064791 
L 704.075644 133.199198 
L 705.77707 133.277405 
L 707.478496 133.306014 
L 709.179921 133.290856 
L 710.881347 133.237071 
L 712.582773 133.1492 
L 714.284198 133.031248 
L 715.985624 132.88675 
L 717.68705 132.718825 
L 719.388476 132.530226 
L 721.089901 132.323382 
L 722.791327 132.100437 
L 724.492753 131.863284 
L 726.194178 131.613592 
L 727.895604 131.352834 
L 729.59703 131.082311 
L 731.298455 130.80317 
L 732.999881 130.516424 
L 734.701307 130.222967 
L 736.402733 129.923587 
L 738.104158 129.618979 
L 739.805584 129.30976 
L 741.50701 128.99647 
L 743.208435 128.679587 
L 744.909861 128.359535 
L 746.611287 128.036684 
L 748.312712 127.711365 
L 750.014138 127.383868 
L 751.715564 127.054447 
L 753.41699 126.72333 
L 755.118415 126.390715 
L 756.819841 126.056779 
L 758.521267 125.721677 
L 760.222692 125.385545 
L 761.924118 125.048506 
L 763.625544 124.710664 
L 765.326969 124.372116 
L 767.028395 124.032943 
L 768.729821 123.69322 
L 770.431247 123.353011 
L 772.132672 123.012372 
L 773.834098 122.671355 
L 775.535524 122.330004 
L 777.236949 121.988358 
L 778.938375 121.646452 
L 780.639801 121.304316 
L 782.341226 120.961978 
L 784.042652 120.61946 
L 785.744078 120.276785 
L 787.445504 119.933971 
L 789.146929 119.591034 
L 790.848355 119.247988 
L 792.549781 118.904847 
L 794.251206 118.561621 
L 795.952632 118.218321 
L 797.654058 117.874955 
L 799.355483 117.531531 
L 801.056909 117.188055 
L 802.758335 116.844535 
L 804.45976 116.500974 
L 806.161186 116.157379 
L 807.862612 115.813752 
L 809.564038 115.470098 
L 811.265463 115.126419 
L 812.966889 114.782719 
L 814.668315 114.439001 
L 816.36974 114.095266 
L 818.071166 113.751516 
L 819.772592 113.407753 
L 821.474017 113.063979 
L 823.175443 112.720194 
L 824.876869 112.376401 
L 826.578295 112.0326 
L 828.27972 111.688792 
L 829.981146 111.344978 
L 831.682572 111.001158 
L 833.383997 110.657334 
L 835.085423 110.313505 
L 836.786849 109.969673 
L 838.488274 109.625838 
L 840.1897 109.281999 
L 841.891126 108.938158 
L 843.592552 108.594315 
L 845.293977 108.25047 
" style="fill:none;stroke:#ffb300;stroke-linecap:square;stroke-width:1.5;"/>
   </g>
   <g id="line2d_73">
    <g clip-path="url(#p6933cbddd8)">
     <use style="fill:#803e75;stroke:#803e75;" x="676.852833" xlink:href="#m4c3fc65576" y="132.111115"/>
     <use style="fill:#803e75;stroke:#803e75;" x="687.720004" xlink:href="#m4c3fc65576" y="137.42232"/>
     <use style="fill:#803e75;stroke:#803e75;" x="704.02076" xlink:href="#m4c3fc65576" y="123.867181"/>
     <use style="fill:#803e75;stroke:#803e75;" x="731.188686" xlink:href="#m4c3fc65576" y="122.180694"/>
     <use style="fill:#803e75;stroke:#803e75;" x="747.489442" xlink:href="#m4c3fc65576" y="130.343844"/>
     <use style="fill:#803e75;stroke:#803e75;" x="780.090954" xlink:href="#m4c3fc65576" y="121.873671"/>
     <use style="fill:#803e75;stroke:#803e75;" x="812.692465" xlink:href="#m4c3fc65576" y="114.164346"/>
     <use style="fill:#803e75;stroke:#803e75;" x="845.293977" xlink:href="#m4c3fc65576" y="112.151922"/>
    </g>
   </g>
   <g id="line2d_74">
    <path clip-path="url(#p6933cbddd8)" d="M 676.852833 132.111115 
L 678.554259 133.467201 
L 680.255684 133.467487 
L 681.95711 133.267201 
L 683.658536 133.037456 
L 685.359962 132.803597 
L 687.061387 132.569378 
L 688.762813 132.335355 
L 690.464239 132.10161 
L 692.165664 131.868154 
L 693.86709 131.634989 
L 695.568516 131.402114 
L 697.269941 131.169531 
L 698.971367 130.937237 
L 700.672793 130.705233 
L 702.374219 130.473519 
L 704.075644 130.242094 
L 705.77707 130.010957 
L 707.478496 129.780109 
L 709.179921 129.549549 
L 710.881347 129.319277 
L 712.582773 129.089291 
L 714.284198 128.859593 
L 715.985624 128.630181 
L 717.68705 128.401056 
L 719.388476 128.172216 
L 721.089901 127.943662 
L 722.791327 127.715393 
L 724.492753 127.487408 
L 726.194178 127.259708 
L 727.895604 127.032293 
L 729.59703 126.805161 
L 731.298455 126.578312 
L 732.999881 126.351746 
L 734.701307 126.125463 
L 736.402733 125.899462 
L 738.104158 125.673743 
L 739.805584 125.448306 
L 741.50701 125.22315 
L 743.208435 124.998275 
L 744.909861 124.773681 
L 746.611287 124.549366 
L 748.312712 124.325332 
L 750.014138 124.101577 
L 751.715564 123.878101 
L 753.41699 123.654904 
L 755.118415 123.431985 
L 756.819841 123.209345 
L 758.521267 122.986982 
L 760.222692 122.764897 
L 761.924118 122.543088 
L 763.625544 122.321557 
L 765.326969 122.100302 
L 767.028395 121.879323 
L 768.729821 121.658619 
L 770.431247 121.438191 
L 772.132672 121.218038 
L 773.834098 120.998159 
L 775.535524 120.778555 
L 777.236949 120.559225 
L 778.938375 120.340169 
L 780.639801 120.121385 
L 782.341226 119.902875 
L 784.042652 119.684637 
L 785.744078 119.466672 
L 787.445504 119.248978 
L 789.146929 119.031556 
L 790.848355 118.814406 
L 792.549781 118.597526 
L 794.251206 118.380917 
L 795.952632 118.164578 
L 797.654058 117.948509 
L 799.355483 117.732709 
L 801.056909 117.517179 
L 802.758335 117.301917 
L 804.45976 117.086925 
L 806.161186 116.8722 
L 807.862612 116.657743 
L 809.564038 116.443554 
L 811.265463 116.229632 
L 812.966889 116.015977 
L 814.668315 115.802588 
L 816.36974 115.589466 
L 818.071166 115.376609 
L 819.772592 115.164018 
L 821.474017 114.951693 
L 823.175443 114.739632 
L 824.876869 114.527836 
L 826.578295 114.316304 
L 828.27972 114.105036 
L 829.981146 113.894031 
L 831.682572 113.68329 
L 833.383997 113.472811 
L 835.085423 113.262596 
L 836.786849 113.052642 
L 838.488274 112.84295 
L 840.1897 112.63352 
L 841.891126 112.424352 
L 843.592552 112.215444 
L 845.293977 112.006797 
" style="fill:none;stroke:#803e75;stroke-linecap:square;stroke-width:1.5;"/>
   </g>
   <g id="line2d_75">
    <g clip-path="url(#p6933cbddd8)">
     <use style="fill:#ff6800;stroke:#ff6800;" x="676.852833" xlink:href="#md8c431903c" y="114.385233"/>
     <use style="fill:#ff6800;stroke:#ff6800;" x="687.720004" xlink:href="#md8c431903c" y="119.988166"/>
     <use style="fill:#ff6800;stroke:#ff6800;" x="704.02076" xlink:href="#md8c431903c" y="119.801798"/>
     <use style="fill:#ff6800;stroke:#ff6800;" x="731.188686" xlink:href="#md8c431903c" y="113.746242"/>
     <use style="fill:#ff6800;stroke:#ff6800;" x="747.489442" xlink:href="#md8c431903c" y="128.769609"/>
     <use style="fill:#ff6800;stroke:#ff6800;" x="780.090954" xlink:href="#md8c431903c" y="125.490236"/>
     <use style="fill:#ff6800;stroke:#ff6800;" x="812.692465" xlink:href="#md8c431903c" y="113.952807"/>
     <use style="fill:#ff6800;stroke:#ff6800;" x="845.293977" xlink:href="#md8c431903c" y="105.22967"/>
    </g>
   </g>
   <g id="line2d_76">
    <path clip-path="url(#p6933cbddd8)" d="M 676.852833 114.385233 
L 678.554259 115.016263 
L 680.255684 115.620442 
L 681.95711 116.198347 
L 683.658536 116.750548 
L 685.359962 117.277601 
L 687.061387 117.780054 
L 688.762813 118.258444 
L 690.464239 118.713298 
L 692.165664 119.145134 
L 693.86709 119.554461 
L 695.568516 119.941777 
L 697.269941 120.307572 
L 698.971367 120.652327 
L 700.672793 120.976513 
L 702.374219 121.280595 
L 704.075644 121.565026 
L 705.77707 121.830252 
L 707.478496 122.076712 
L 709.179921 122.304835 
L 710.881347 122.515043 
L 712.582773 122.707749 
L 714.284198 122.883361 
L 715.985624 123.042275 
L 717.68705 123.184884 
L 719.388476 123.311571 
L 721.089901 123.422713 
L 722.791327 123.518679 
L 724.492753 123.599832 
L 726.194178 123.666527 
L 727.895604 123.719113 
L 729.59703 123.757933 
L 731.298455 123.783322 
L 732.999881 123.79561 
L 734.701307 123.795119 
L 736.402733 123.782168 
L 738.104158 123.757067 
L 739.805584 123.72012 
L 741.50701 123.671628 
L 743.208435 123.611883 
L 744.909861 123.541173 
L 746.611287 123.45978 
L 748.312712 123.367982 
L 750.014138 123.26605 
L 751.715564 123.154249 
L 753.41699 123.032841 
L 755.118415 122.902081 
L 756.819841 122.762221 
L 758.521267 122.613507 
L 760.222692 122.456179 
L 761.924118 122.290475 
L 763.625544 122.116625 
L 765.326969 121.934858 
L 767.028395 121.745396 
L 768.729821 121.548457 
L 770.431247 121.344255 
L 772.132672 121.133 
L 773.834098 120.914898 
L 775.535524 120.690151 
L 777.236949 120.458954 
L 778.938375 120.221503 
L 780.639801 119.977987 
L 782.341226 119.728591 
L 784.042652 119.473497 
L 785.744078 119.212884 
L 787.445504 118.946926 
L 789.146929 118.675795 
L 790.848355 118.399658 
L 792.549781 118.118679 
L 794.251206 117.83302 
L 795.952632 117.542838 
L 797.654058 117.248286 
L 799.355483 116.949517 
L 801.056909 116.646678 
L 802.758335 116.339913 
L 804.45976 116.029366 
L 806.161186 115.715174 
L 807.862612 115.397474 
L 809.564038 115.076398 
L 811.265463 114.752078 
L 812.966889 114.42464 
L 814.668315 114.09421 
L 816.36974 113.760909 
L 818.071166 113.424857 
L 819.772592 113.086172 
L 821.474017 112.744966 
L 823.175443 112.401354 
L 824.876869 112.055443 
L 826.578295 111.707342 
L 828.27972 111.357154 
L 829.981146 111.004983 
L 831.682572 110.650929 
L 833.383997 110.29509 
L 835.085423 109.937562 
L 836.786849 109.578438 
L 838.488274 109.217811 
L 840.1897 108.855769 
L 841.891126 108.492401 
L 843.592552 108.127792 
L 845.293977 107.762025 
" style="fill:none;stroke:#ff6800;stroke-linecap:square;stroke-width:1.5;"/>
   </g>
   <g id="line2d_77">
    <g clip-path="url(#p6933cbddd8)">
     <use style="fill:#a6bdd7;stroke:#a6bdd7;" x="676.852833" xlink:href="#mb564ce610e" y="97.497006"/>
     <use style="fill:#a6bdd7;stroke:#a6bdd7;" x="687.720004" xlink:href="#mb564ce610e" y="131.956229"/>
     <use style="fill:#a6bdd7;stroke:#a6bdd7;" x="704.02076" xlink:href="#mb564ce610e" y="126.309014"/>
     <use style="fill:#a6bdd7;stroke:#a6bdd7;" x="731.188686" xlink:href="#mb564ce610e" y="106.414534"/>
     <use style="fill:#a6bdd7;stroke:#a6bdd7;" x="747.489442" xlink:href="#mb564ce610e" y="109.735314"/>
     <use style="fill:#a6bdd7;stroke:#a6bdd7;" x="780.090954" xlink:href="#mb564ce610e" y="116.975061"/>
     <use style="fill:#a6bdd7;stroke:#a6bdd7;" x="812.692465" xlink:href="#mb564ce610e" y="112.053252"/>
     <use style="fill:#a6bdd7;stroke:#a6bdd7;" x="845.293977" xlink:href="#mb564ce610e" y="125.32498"/>
    </g>
   </g>
   <g id="line2d_78">
    <path clip-path="url(#p6933cbddd8)" d="M 676.852833 97.497006 
L 678.554259 110.336725 
L 680.255684 119.319617 
L 681.95711 125.382024 
L 683.658536 129.254052 
L 685.359962 131.502518 
L 687.061387 132.565282 
L 688.762813 132.77863 
L 690.464239 132.399091 
L 692.165664 131.620787 
L 693.86709 130.589189 
L 695.568516 129.412013 
L 697.269941 128.167825 
L 698.971367 126.912808 
L 700.672793 125.686087 
L 702.374219 124.513881 
L 704.075644 123.412751 
L 705.77707 122.392112 
L 707.478496 121.456172 
L 709.179921 120.605425 
L 710.881347 119.837783 
L 712.582773 119.149435 
L 714.284198 118.535489 
L 715.985624 117.990441 
L 717.68705 117.508529 
L 719.388476 117.08397 
L 721.089901 116.711135 
L 722.791327 116.38466 
L 724.492753 116.099519 
L 726.194178 115.851061 
L 727.895604 115.635027 
L 729.59703 115.447551 
L 731.298455 115.285148 
L 732.999881 115.144696 
L 734.701307 115.023411 
L 736.402733 114.918826 
L 738.104158 114.828758 
L 739.805584 114.751287 
L 741.50701 114.684726 
L 743.208435 114.6276 
L 744.909861 114.578621 
L 746.611287 114.536665 
L 748.312712 114.500758 
L 750.014138 114.470052 
L 751.715564 114.443816 
L 753.41699 114.421415 
L 755.118415 114.402301 
L 756.819841 114.386004 
L 758.521267 114.372118 
L 760.222692 114.360292 
L 761.924118 114.350227 
L 763.625544 114.341665 
L 765.326969 114.334386 
L 767.028395 114.328201 
L 768.729821 114.322947 
L 770.431247 114.318487 
L 772.132672 114.314702 
L 773.834098 114.311491 
L 775.535524 114.308769 
L 777.236949 114.306462 
L 778.938375 114.304507 
L 780.639801 114.302851 
L 782.341226 114.30145 
L 784.042652 114.300263 
L 785.744078 114.29926 
L 787.445504 114.298411 
L 789.146929 114.297693 
L 790.848355 114.297086 
L 792.549781 114.296573 
L 794.251206 114.29614 
L 795.952632 114.295774 
L 797.654058 114.295465 
L 799.355483 114.295204 
L 801.056909 114.294984 
L 802.758335 114.294798 
L 804.45976 114.294641 
L 806.161186 114.294509 
L 807.862612 114.294397 
L 809.564038 114.294303 
L 811.265463 114.294224 
L 812.966889 114.294157 
L 814.668315 114.294101 
L 816.36974 114.294054 
L 818.071166 114.294014 
L 819.772592 114.29398 
L 821.474017 114.293952 
L 823.175443 114.293928 
L 824.876869 114.293908 
L 826.578295 114.293891 
L 828.27972 114.293877 
L 829.981146 114.293865 
L 831.682572 114.293855 
L 833.383997 114.293846 
L 835.085423 114.293839 
L 836.786849 114.293833 
L 838.488274 114.293828 
L 840.1897 114.293824 
L 841.891126 114.293821 
L 843.592552 114.293818 
L 845.293977 114.293815 
" style="fill:none;stroke:#a6bdd7;stroke-linecap:square;stroke-width:1.5;"/>
   </g>
   <g id="line2d_79">
    <g clip-path="url(#p6933cbddd8)">
     <use style="fill:#c10020;stroke:#c10020;" x="676.852833" xlink:href="#m96525cbee7" y="102.289905"/>
     <use style="fill:#c10020;stroke:#c10020;" x="687.720004" xlink:href="#m96525cbee7" y="114.430225"/>
     <use style="fill:#c10020;stroke:#c10020;" x="704.02076" xlink:href="#m96525cbee7" y="108.916955"/>
     <use style="fill:#c10020;stroke:#c10020;" x="731.188686" xlink:href="#m96525cbee7" y="107.676106"/>
     <use style="fill:#c10020;stroke:#c10020;" x="747.489442" xlink:href="#m96525cbee7" y="112.273359"/>
     <use style="fill:#c10020;stroke:#c10020;" x="780.090954" xlink:href="#m96525cbee7" y="114.125806"/>
     <use style="fill:#c10020;stroke:#c10020;" x="812.692465" xlink:href="#m96525cbee7" y="104.55831"/>
     <use style="fill:#c10020;stroke:#c10020;" x="845.293977" xlink:href="#m96525cbee7" y="120.023295"/>
    </g>
   </g>
   <g id="line2d_80">
    <path clip-path="url(#p6933cbddd8)" d="M 676.852833 102.289905 
L 676.853149 217 
M 685.332284 217 
L 685.359962 202.459985 
L 687.061387 119.395124 
L 688.762813 111.969732 
L 690.464239 111.322773 
L 692.165664 111.267405 
L 693.86709 111.262728 
L 695.568516 111.262337 
L 697.269941 111.262304 
L 698.971367 111.262301 
L 700.672793 111.262301 
L 702.374219 111.262301 
L 704.075644 111.262301 
L 705.77707 111.262301 
L 707.478496 111.262301 
L 709.179921 111.262301 
L 710.881347 111.262301 
L 712.582773 111.262301 
L 714.284198 111.262301 
L 715.985624 111.262301 
L 717.68705 111.262301 
L 719.388476 111.262301 
L 721.089901 111.262301 
L 722.791327 111.262301 
L 724.492753 111.262301 
L 726.194178 111.262301 
L 727.895604 111.262301 
L 729.59703 111.262301 
L 731.298455 111.262301 
L 732.999881 111.262301 
L 734.701307 111.262301 
L 736.402733 111.262301 
L 738.104158 111.262301 
L 739.805584 111.262301 
L 741.50701 111.262301 
L 743.208435 111.262301 
L 744.909861 111.262301 
L 746.611287 111.262301 
L 748.312712 111.262301 
L 750.014138 111.262301 
L 751.715564 111.262301 
L 753.41699 111.262301 
L 755.118415 111.262301 
L 756.819841 111.262301 
L 758.521267 111.262301 
L 760.222692 111.262301 
L 761.924118 111.262301 
L 763.625544 111.262301 
L 765.326969 111.262301 
L 767.028395 111.262301 
L 768.729821 111.262301 
L 770.431247 111.262301 
L 772.132672 111.262301 
L 773.834098 111.262301 
L 775.535524 111.262301 
L 777.236949 111.262301 
L 778.938375 111.262301 
L 780.639801 111.262301 
L 782.341226 111.262301 
L 784.042652 111.262301 
L 785.744078 111.262301 
L 787.445504 111.262301 
L 789.146929 111.262301 
L 790.848355 111.262301 
L 792.549781 111.262301 
L 794.251206 111.262301 
L 795.952632 111.262301 
L 797.654058 111.262301 
L 799.355483 111.262301 
L 801.056909 111.262301 
L 802.758335 111.262301 
L 804.45976 111.262301 
L 806.161186 111.262301 
L 807.862612 111.262301 
L 809.564038 111.262301 
L 811.265463 111.262301 
L 812.966889 111.262301 
L 814.668315 111.262301 
L 816.36974 111.262301 
L 818.071166 111.262301 
L 819.772592 111.262301 
L 821.474017 111.262301 
L 823.175443 111.262301 
L 824.876869 111.262301 
L 826.578295 111.262301 
L 828.27972 111.262301 
L 829.981146 111.262301 
L 831.682572 111.262301 
L 833.383997 111.262301 
L 835.085423 111.262301 
L 836.786849 111.262301 
L 838.488274 111.262301 
L 840.1897 111.262301 
L 841.891126 111.262301 
L 843.592552 111.262301 
L 845.293977 111.262301 
" style="fill:none;stroke:#c10020;stroke-linecap:square;stroke-width:1.5;"/>
   </g>
   <g id="patch_18">
    <path d="M 668.430776 174.2 
L 668.430776 26.8 
" style="fill:none;stroke:#000000;stroke-linecap:square;stroke-linejoin:miter;stroke-width:0.8;"/>
   </g>
   <g id="patch_19">
    <path d="M 853.716034 174.2 
L 853.716034 26.8 
" style="fill:none;stroke:#000000;stroke-linecap:square;stroke-linejoin:miter;stroke-width:0.8;"/>
   </g>
   <g id="patch_20">
    <path d="M 668.430776 174.2 
L 853.716034 174.2 
" style="fill:none;stroke:#000000;stroke-linecap:square;stroke-linejoin:miter;stroke-width:0.8;"/>
   </g>
   <g id="patch_21">
    <path d="M 668.430776 26.8 
L 853.716034 26.8 
" style="fill:none;stroke:#000000;stroke-linecap:square;stroke-linejoin:miter;stroke-width:0.8;"/>
   </g>
   <g id="text_35">
    <text style="font-family:DejaVu Sans;font-size:12px;font-style:normal;font-weight:normal;text-anchor:middle;" transform="rotate(-0, 761.073405, 20.8)" x="761.073405" y="20.8">Shanghai</text>
   </g>
  </g>
  <g id="axes_5">
   <g id="patch_22">
    <path d="M 878.516034 174.2 
L 1063.801293 174.2 
L 1063.801293 26.8 
L 878.516034 26.8 
z
" style="fill:#ffffff;"/>
   </g>
   <g id="patch_23">
    <path clip-path="url(#p81bced14cf)" d="M 883.148166 223.333333 
L 920.205218 223.333333 
L 920.205218 203.7709 
L 883.148166 203.7709 
z
" style="fill:#3274a1;"/>
   </g>
   <g id="patch_24">
    <path clip-path="url(#p81bced14cf)" d="M 929.469481 223.333333 
L 966.526532 223.333333 
L 966.526532 207.271749 
L 929.469481 207.271749 
z
" style="fill:#e1812c;"/>
   </g>
   <g id="patch_25">
    <path clip-path="url(#p81bced14cf)" d="M 975.790795 223.333333 
L 1012.847847 223.333333 
L 1012.847847 203.956283 
L 975.790795 203.956283 
z
" style="fill:#3a923a;"/>
   </g>
   <g id="patch_26">
    <path clip-path="url(#p81bced14cf)" d="M 1022.11211 223.333333 
L 1059.169162 223.333333 
L 1059.169162 206.816213 
L 1022.11211 206.816213 
z
" style="fill:#c03d3e;"/>
   </g>
   <g id="matplotlib.axis_9">
    <g id="xtick_17">
     <g id="line2d_81">
      <g>
       <use style="stroke:#000000;stroke-width:0.8;" x="901.676692" xlink:href="#mf24c28988f" y="174.2"/>
      </g>
     </g>
     <g id="text_36">
      <text style="font-family:DejaVu Sans;font-size:10px;font-style:normal;font-weight:normal;text-anchor:middle;" transform="rotate(-0, 901.676692, 188.798438)" x="901.676692" y="188.798438">Beijing</text>
     </g>
    </g>
    <g id="xtick_18">
     <g id="line2d_82">
      <g>
       <use style="stroke:#000000;stroke-width:0.8;" x="947.998006" xlink:href="#mf24c28988f" y="174.2"/>
      </g>
     </g>
     <g id="text_37">
      <text style="font-family:DejaVu Sans;font-size:10px;font-style:normal;font-weight:normal;text-anchor:middle;" transform="rotate(-0, 947.998006, 188.798438)" x="947.998006" y="188.798438">Guangdong</text>
     </g>
    </g>
    <g id="xtick_19">
     <g id="line2d_83">
      <g>
       <use style="stroke:#000000;stroke-width:0.8;" x="994.319321" xlink:href="#mf24c28988f" y="174.2"/>
      </g>
     </g>
     <g id="text_38">
      <text style="font-family:DejaVu Sans;font-size:10px;font-style:normal;font-weight:normal;text-anchor:middle;" transform="rotate(-0, 994.319321, 188.798438)" x="994.319321" y="188.798438">Hunan</text>
     </g>
    </g>
    <g id="xtick_20">
     <g id="line2d_84">
      <g>
       <use style="stroke:#000000;stroke-width:0.8;" x="1040.640636" xlink:href="#mf24c28988f" y="174.2"/>
      </g>
     </g>
     <g id="text_39">
      <text style="font-family:DejaVu Sans;font-size:10px;font-style:normal;font-weight:normal;text-anchor:middle;" transform="rotate(-0, 1040.640636, 188.798438)" x="1040.640636" y="188.798438">Shanghai</text>
     </g>
    </g>
    <g id="text_40">
     <text style="font-family:DejaVu Sans;font-size:10px;font-style:normal;font-weight:normal;text-anchor:middle;" transform="rotate(-0, 971.158664, 202.476562)" x="971.158664" y="202.476562">Vendor</text>
    </g>
   </g>
   <g id="matplotlib.axis_10">
    <g id="ytick_29">
     <g id="line2d_85">
      <g>
       <use style="stroke:#000000;stroke-width:0.8;" x="878.516034" xlink:href="#m5658b8d740" y="174.2"/>
      </g>
     </g>
    </g>
    <g id="ytick_30">
     <g id="line2d_86">
      <g>
       <use style="stroke:#000000;stroke-width:0.8;" x="878.516034" xlink:href="#m5658b8d740" y="149.633333"/>
      </g>
     </g>
    </g>
    <g id="ytick_31">
     <g id="line2d_87">
      <g>
       <use style="stroke:#000000;stroke-width:0.8;" x="878.516034" xlink:href="#m5658b8d740" y="125.066667"/>
      </g>
     </g>
    </g>
    <g id="ytick_32">
     <g id="line2d_88">
      <g>
       <use style="stroke:#000000;stroke-width:0.8;" x="878.516034" xlink:href="#m5658b8d740" y="100.5"/>
      </g>
     </g>
    </g>
    <g id="ytick_33">
     <g id="line2d_89">
      <g>
       <use style="stroke:#000000;stroke-width:0.8;" x="878.516034" xlink:href="#m5658b8d740" y="75.933333"/>
      </g>
     </g>
    </g>
    <g id="ytick_34">
     <g id="line2d_90">
      <g>
       <use style="stroke:#000000;stroke-width:0.8;" x="878.516034" xlink:href="#m5658b8d740" y="51.366667"/>
      </g>
     </g>
    </g>
    <g id="ytick_35">
     <g id="line2d_91">
      <g>
       <use style="stroke:#000000;stroke-width:0.8;" x="878.516034" xlink:href="#m5658b8d740" y="26.8"/>
      </g>
     </g>
    </g>
    <g id="text_41">
     <text style="font-family:DejaVu Sans;font-size:10px;font-style:normal;font-weight:normal;text-anchor:middle;" transform="rotate(-90, 872.436347, 100.5)" x="872.436347" y="100.5">R2</text>
    </g>
   </g>
   <g id="line2d_92">
    <path clip-path="url(#p81bced14cf)" d="M 901.676692 205.095173 
L 901.676692 201.613471 
" style="fill:none;stroke:#424242;stroke-linecap:square;stroke-width:2.7;"/>
   </g>
   <g id="line2d_93">
    <path clip-path="url(#p81bced14cf)" d="M 947.998006 212.541703 
L 947.998006 202.660214 
" style="fill:none;stroke:#424242;stroke-linecap:square;stroke-width:2.7;"/>
   </g>
   <g id="line2d_94">
    <path clip-path="url(#p81bced14cf)" d="M 994.319321 205.02873 
L 994.319321 202.958719 
" style="fill:none;stroke:#424242;stroke-linecap:square;stroke-width:2.7;"/>
   </g>
   <g id="line2d_95">
    <path clip-path="url(#p81bced14cf)" d="M 1040.640636 211.454398 
L 1040.640636 203.035747 
" style="fill:none;stroke:#424242;stroke-linecap:square;stroke-width:2.7;"/>
   </g>
   <g id="patch_27">
    <path d="M 878.516034 174.2 
L 878.516034 26.8 
" style="fill:none;stroke:#000000;stroke-linecap:square;stroke-linejoin:miter;stroke-width:0.8;"/>
   </g>
   <g id="patch_28">
    <path d="M 1063.801293 174.2 
L 1063.801293 26.8 
" style="fill:none;stroke:#000000;stroke-linecap:square;stroke-linejoin:miter;stroke-width:0.8;"/>
   </g>
   <g id="patch_29">
    <path d="M 878.516034 174.2 
L 1063.801293 174.2 
" style="fill:none;stroke:#000000;stroke-linecap:square;stroke-linejoin:miter;stroke-width:0.8;"/>
   </g>
   <g id="patch_30">
    <path d="M 878.516034 26.8 
L 1063.801293 26.8 
" style="fill:none;stroke:#000000;stroke-linecap:square;stroke-linejoin:miter;stroke-width:0.8;"/>
   </g>
  </g>
 </g>
 <defs>
  <clipPath id="p85d97fff71">
   <rect height="147.4" width="185.285259" x="38.175" y="26.8"/>
  </clipPath>
  <clipPath id="p9b5dbf0c8c">
   <rect height="147.4" width="185.285259" x="248.260259" y="26.8"/>
  </clipPath>
  <clipPath id="paa32459487">
   <rect height="147.4" width="185.285259" x="458.345517" y="26.8"/>
  </clipPath>
  <clipPath id="p6933cbddd8">
   <rect height="147.4" width="185.285259" x="668.430776" y="26.8"/>
  </clipPath>
  <clipPath id="p81bced14cf">
   <rect height="147.4" width="185.285259" x="878.516034" y="26.8"/>
  </clipPath>
 </defs>
</svg>
