<?xml version="1.0" encoding="utf-8" standalone="no"?>
<!DOCTYPE svg PUBLIC "-//W3C//DTD SVG 1.1//EN"
  "http://www.w3.org/Graphics/SVG/1.1/DTD/svg11.dtd">
<!-- Created with matplotlib (https://matplotlib.org/) -->
<svg height="216pt" version="1.1" viewBox="0 0 216 216" width="216pt" xmlns="http://www.w3.org/2000/svg" xmlns:xlink="http://www.w3.org/1999/xlink">
 <metadata>
  <rdf:RDF xmlns:cc="http://creativecommons.org/ns#" xmlns:dc="http://purl.org/dc/elements/1.1/" xmlns:rdf="http://www.w3.org/1999/02/22-rdf-syntax-ns#">
   <cc:Work>
    <dc:type rdf:resource="http://purl.org/dc/dcmitype/StillImage"/>
    <dc:date>2021-03-30T12:37:44.375408</dc:date>
    <dc:format>image/svg+xml</dc:format>
    <dc:creator>
     <cc:Agent>
      <dc:title>Matplotlib v3.3.3, https://matplotlib.org/</dc:title>
     </cc:Agent>
    </dc:creator>
   </cc:Work>
  </rdf:RDF>
 </metadata>
 <defs>
  <style type="text/css">*{stroke-linecap:butt;stroke-linejoin:round;}</style>
 </defs>
 <g id="figure_1">
  <g id="patch_1">
   <path d="M 0 216 
L 216 216 
L 216 0 
L 0 0 
z
" style="fill:none;"/>
  </g>
  <g id="axes_1">
   <g id="patch_2">
    <path d="M 56.05 174.2 
L 205.2 174.2 
L 205.2 26.8 
L 56.05 26.8 
z
" style="fill:#ffffff;"/>
   </g>
   <g id="PathCollection_1">
    <path clip-path="url(#p00aa900a91)" d="M 107.415282 122.002343 
C 108.741298 122.002343 110.013182 121.475511 110.950816 120.537877 
C 111.888451 119.600242 112.415282 118.328358 112.415282 117.002343 
C 112.415282 115.676327 111.888451 114.404443 110.950816 113.466809 
C 110.013182 112.529174 108.741298 112.002343 107.415282 112.002343 
C 106.089267 112.002343 104.817383 112.529174 103.879748 113.466809 
C 102.942114 114.404443 102.415282 115.676327 102.415282 117.002343 
C 102.415282 118.328358 102.942114 119.600242 103.879748 120.537877 
C 104.817383 121.475511 106.089267 122.002343 107.415282 122.002343 
z
" style="fill:#1f77b4;stroke:#ffffff;stroke-width:0.8;"/>
    <path clip-path="url(#p00aa900a91)" d="M 93.492884 108.797403 
C 94.818899 108.797403 96.090783 108.270571 97.028418 107.332937 
C 97.966052 106.395302 98.492884 105.123418 98.492884 103.797403 
C 98.492884 102.471387 97.966052 101.199503 97.028418 100.261869 
C 96.090783 99.324234 94.818899 98.797403 93.492884 98.797403 
C 92.166868 98.797403 90.894984 99.324234 89.95735 100.261869 
C 89.019715 101.199503 88.492884 102.471387 88.492884 103.797403 
C 88.492884 105.123418 89.019715 106.395302 89.95735 107.332937 
C 90.894984 108.270571 92.166868 108.797403 93.492884 108.797403 
z
" style="fill:#1f77b4;stroke:#ffffff;stroke-width:0.8;"/>
    <path clip-path="url(#p00aa900a91)" d="M 101.911794 134.968513 
C 103.237809 134.968513 104.509693 134.441681 105.447328 133.504047 
C 106.384962 132.566412 106.911794 131.294528 106.911794 129.968513 
C 106.911794 128.642497 106.384962 127.370613 105.447328 126.432979 
C 104.509693 125.495344 103.237809 124.968513 101.911794 124.968513 
C 100.585778 124.968513 99.313894 125.495344 98.37626 126.432979 
C 97.438625 127.370613 96.911794 128.642497 96.911794 129.968513 
C 96.911794 131.294528 97.438625 132.566412 98.37626 133.504047 
C 99.313894 134.441681 100.585778 134.968513 101.911794 134.968513 
z
" style="fill:#1f77b4;stroke:#ffffff;stroke-width:0.8;"/>
    <path clip-path="url(#p00aa900a91)" d="M 84.399326 88.506118 
C 85.725341 88.506118 86.997225 87.979287 87.93486 87.041652 
C 88.872494 86.104018 89.399326 84.832134 89.399326 83.506118 
C 89.399326 82.180103 88.872494 80.908219 87.93486 79.970584 
C 86.997225 79.03295 85.725341 78.506118 84.399326 78.506118 
C 83.07331 78.506118 81.801426 79.03295 80.863792 79.970584 
C 79.926157 80.908219 79.399326 82.180103 79.399326 83.506118 
C 79.399326 84.832134 79.926157 86.104018 80.863792 87.041652 
C 81.801426 87.979287 83.07331 88.506118 84.399326 88.506118 
z
" style="fill:#1f77b4;stroke:#ffffff;stroke-width:0.8;"/>
    <path clip-path="url(#p00aa900a91)" d="M 93.154203 117.147425 
C 94.480218 117.147425 95.752102 116.620594 96.689737 115.682959 
C 97.627371 114.745324 98.154203 113.473441 98.154203 112.147425 
C 98.154203 110.82141 97.627371 109.549526 96.689737 108.611891 
C 95.752102 107.674257 94.480218 107.147425 93.154203 107.147425 
C 91.828187 107.147425 90.556303 107.674257 89.618669 108.611891 
C 88.681034 109.549526 88.154203 110.82141 88.154203 112.147425 
C 88.154203 113.473441 88.681034 114.745324 89.618669 115.682959 
C 90.556303 116.620594 91.828187 117.147425 93.154203 117.147425 
z
" style="fill:#1f77b4;stroke:#ffffff;stroke-width:0.8;"/>
    <path clip-path="url(#p00aa900a91)" d="M 122.534505 69.120901 
L 125.034505 66.620901 
L 127.534505 69.120901 
L 130.034505 66.620901 
L 127.534505 64.120901 
L 130.034505 61.620901 
L 127.534505 59.120901 
L 125.034505 61.620901 
L 122.534505 59.120901 
L 120.034505 61.620901 
L 122.534505 64.120901 
L 120.034505 66.620901 
z
" style="fill:#1f77b4;stroke:#ffffff;stroke-width:0.8;"/>
    <path clip-path="url(#p00aa900a91)" d="M 134.289296 102.834385 
L 136.789296 100.334385 
L 139.289296 102.834385 
L 141.789296 100.334385 
L 139.289296 97.834385 
L 141.789296 95.334385 
L 139.289296 92.834385 
L 136.789296 95.334385 
L 134.289296 92.834385 
L 131.789296 95.334385 
L 134.289296 97.834385 
L 131.789296 100.334385 
z
" style="fill:#1f77b4;stroke:#ffffff;stroke-width:0.8;"/>
    <path clip-path="url(#p00aa900a91)" d="M 137.587868 112.126143 
L 140.087868 109.626143 
L 142.587868 112.126143 
L 145.087868 109.626143 
L 142.587868 107.126143 
L 145.087868 104.626143 
L 142.587868 102.126143 
L 140.087868 104.626143 
L 137.587868 102.126143 
L 135.087868 104.626143 
L 137.587868 107.126143 
L 135.087868 109.626143 
z
" style="fill:#1f77b4;stroke:#ffffff;stroke-width:0.8;"/>
    <path clip-path="url(#p00aa900a91)" d="M 133.331332 101.158498 
L 135.831332 98.658498 
L 138.331332 101.158498 
L 140.831332 98.658498 
L 138.331332 96.158498 
L 140.831332 93.658498 
L 138.331332 91.158498 
L 135.831332 93.658498 
L 133.331332 91.158498 
L 130.831332 93.658498 
L 133.331332 96.158498 
L 130.831332 98.658498 
z
" style="fill:#1f77b4;stroke:#ffffff;stroke-width:0.8;"/>
    <path clip-path="url(#p00aa900a91)" d="M 137.617806 98.754492 
L 140.117806 96.254492 
L 142.617806 98.754492 
L 145.117806 96.254492 
L 142.617806 93.754492 
L 145.117806 91.254492 
L 142.617806 88.754492 
L 140.117806 91.254492 
L 137.617806 88.754492 
L 135.117806 91.254492 
L 137.617806 93.754492 
L 135.117806 96.254492 
z
" style="fill:#1f77b4;stroke:#ffffff;stroke-width:0.8;"/>
    <path clip-path="url(#p00aa900a91)" d="M 126.05343 140.628945 
L 128.55343 138.128945 
L 131.05343 140.628945 
L 133.55343 138.128945 
L 131.05343 135.628945 
L 133.55343 133.128945 
L 131.05343 130.628945 
L 128.55343 133.128945 
L 126.05343 130.628945 
L 123.55343 133.128945 
L 126.05343 135.628945 
L 123.55343 138.128945 
z
" style="fill:#ff7f0e;stroke:#ffffff;stroke-width:0.8;"/>
    <path clip-path="url(#p00aa900a91)" d="M 134.898634 138.255023 
L 137.398634 135.755023 
L 139.898634 138.255023 
L 142.398634 135.755023 
L 139.898634 133.255023 
L 142.398634 130.755023 
L 139.898634 128.255023 
L 137.398634 130.755023 
L 134.898634 128.255023 
L 132.398634 130.755023 
L 134.898634 133.255023 
L 132.398634 135.755023 
z
" style="fill:#ff7f0e;stroke:#ffffff;stroke-width:0.8;"/>
    <path clip-path="url(#p00aa900a91)" d="M 132.565807 131.537106 
L 135.065807 129.037106 
L 137.565807 131.537106 
L 140.065807 129.037106 
L 137.565807 126.537106 
L 140.065807 124.037106 
L 137.565807 121.537106 
L 135.065807 124.037106 
L 132.565807 121.537106 
L 130.065807 124.037106 
L 132.565807 126.537106 
L 130.065807 129.037106 
z
" style="fill:#ff7f0e;stroke:#ffffff;stroke-width:0.8;"/>
    <path clip-path="url(#p00aa900a91)" d="M 137.22831 141.877641 
L 139.72831 139.377641 
L 142.22831 141.877641 
L 144.72831 139.377641 
L 142.22831 136.877641 
L 144.72831 134.377641 
L 142.22831 131.877641 
L 139.72831 134.377641 
L 137.22831 131.877641 
L 134.72831 134.377641 
L 137.22831 136.877641 
L 134.72831 139.377641 
z
" style="fill:#ff7f0e;stroke:#ffffff;stroke-width:0.8;"/>
    <path clip-path="url(#p00aa900a91)" d="M 122.428357 121.286624 
L 124.928357 118.786624 
L 127.428357 121.286624 
L 129.928357 118.786624 
L 127.428357 116.286624 
L 129.928357 113.786624 
L 127.428357 111.286624 
L 124.928357 113.786624 
L 122.428357 111.286624 
L 119.928357 113.786624 
L 122.428357 116.286624 
L 119.928357 118.786624 
z
" style="fill:#ff7f0e;stroke:#ffffff;stroke-width:0.8;"/>
    <path clip-path="url(#p00aa900a91)" d="M 117.230077 152.071002 
C 118.556092 152.071002 119.827976 151.54417 120.765611 150.606536 
C 121.703245 149.668901 122.230077 148.397017 122.230077 147.071002 
C 122.230077 145.744986 121.703245 144.473102 120.765611 143.535468 
C 119.827976 142.597833 118.556092 142.071002 117.230077 142.071002 
C 115.904061 142.071002 114.632178 142.597833 113.694543 143.535468 
C 112.756909 144.473102 112.230077 145.744986 112.230077 147.071002 
C 112.230077 148.397017 112.756909 149.668901 113.694543 150.606536 
C 114.632178 151.54417 115.904061 152.071002 117.230077 152.071002 
z
" style="fill:#ff7f0e;stroke:#ffffff;stroke-width:0.8;"/>
    <path clip-path="url(#p00aa900a91)" d="M 96.829533 103.103405 
C 98.155549 103.103405 99.427433 102.576573 100.365067 101.638939 
C 101.302702 100.701304 101.829533 99.42942 101.829533 98.103405 
C 101.829533 96.777389 101.302702 95.505506 100.365067 94.567871 
C 99.427433 93.630237 98.155549 93.103405 96.829533 93.103405 
C 95.503518 93.103405 94.231634 93.630237 93.293999 94.567871 
C 92.356365 95.505506 91.829533 96.777389 91.829533 98.103405 
C 91.829533 99.42942 92.356365 100.701304 93.293999 101.638939 
C 94.231634 102.576573 95.503518 103.103405 96.829533 103.103405 
z
" style="fill:#ff7f0e;stroke:#ffffff;stroke-width:0.8;"/>
    <path clip-path="url(#p00aa900a91)" d="M 91.140829 103.092254 
C 92.466844 103.092254 93.738728 102.565422 94.676362 101.627788 
C 95.613997 100.690153 96.140829 99.418269 96.140829 98.092254 
C 96.140829 96.766238 95.613997 95.494355 94.676362 94.55672 
C 93.738728 93.619085 92.466844 93.092254 91.140829 93.092254 
C 89.814813 93.092254 88.542929 93.619085 87.605295 94.55672 
C 86.66766 95.494355 86.140829 96.766238 86.140829 98.092254 
C 86.140829 99.418269 86.66766 100.690153 87.605295 101.627788 
C 88.542929 102.565422 89.814813 103.092254 91.140829 103.092254 
z
" style="fill:#ff7f0e;stroke:#ffffff;stroke-width:0.8;"/>
    <path clip-path="url(#p00aa900a91)" d="M 72.929141 80.014011 
C 74.255156 80.014011 75.52704 79.48718 76.464674 78.549545 
C 77.402309 77.611911 77.929141 76.340027 77.929141 75.014011 
C 77.929141 73.687996 77.402309 72.416112 76.464674 71.478478 
C 75.52704 70.540843 74.255156 70.014011 72.929141 70.014011 
C 71.603125 70.014011 70.331241 70.540843 69.393607 71.478478 
C 68.455972 72.416112 67.929141 73.687996 67.929141 75.014011 
C 67.929141 76.340027 68.455972 77.611911 69.393607 78.549545 
C 70.331241 79.48718 71.603125 80.014011 72.929141 80.014011 
z
" style="fill:#ff7f0e;stroke:#ffffff;stroke-width:0.8;"/>
    <path clip-path="url(#p00aa900a91)" d="M 102.243909 133.141129 
C 103.569925 133.141129 104.841809 132.614298 105.779443 131.676663 
C 106.717078 130.739029 107.243909 129.467145 107.243909 128.141129 
C 107.243909 126.815114 106.717078 125.54323 105.779443 124.605596 
C 104.841809 123.667961 103.569925 123.141129 102.243909 123.141129 
C 100.917894 123.141129 99.64601 123.667961 98.708375 124.605596 
C 97.770741 125.54323 97.243909 126.815114 97.243909 128.141129 
C 97.243909 129.467145 97.770741 130.739029 98.708375 131.676663 
C 99.64601 132.614298 100.917894 133.141129 102.243909 133.141129 
z
" style="fill:#ff7f0e;stroke:#ffffff;stroke-width:0.8;"/>
    <path clip-path="url(#p00aa900a91)" d="M 102.75904 50.678356 
L 105.25904 48.178356 
L 107.75904 50.678356 
L 110.25904 48.178356 
L 107.75904 45.678356 
L 110.25904 43.178356 
L 107.75904 40.678356 
L 105.25904 43.178356 
L 102.75904 40.678356 
L 100.25904 43.178356 
L 102.75904 45.678356 
L 100.25904 48.178356 
z
" style="fill:#2ca02c;stroke:#ffffff;stroke-width:0.8;"/>
    <path clip-path="url(#p00aa900a91)" d="M 146.263747 114.772184 
L 148.763747 112.272184 
L 151.263747 114.772184 
L 153.763747 112.272184 
L 151.263747 109.772184 
L 153.763747 107.272184 
L 151.263747 104.772184 
L 148.763747 107.272184 
L 146.263747 104.772184 
L 143.763747 107.272184 
L 146.263747 109.772184 
L 143.763747 112.272184 
z
" style="fill:#2ca02c;stroke:#ffffff;stroke-width:0.8;"/>
    <path clip-path="url(#p00aa900a91)" d="M 132.494942 112.690743 
L 134.994942 110.190743 
L 137.494942 112.690743 
L 139.994942 110.190743 
L 137.494942 107.690743 
L 139.994942 105.190743 
L 137.494942 102.690743 
L 134.994942 105.190743 
L 132.494942 102.690743 
L 129.994942 105.190743 
L 132.494942 107.690743 
L 129.994942 110.190743 
z
" style="fill:#2ca02c;stroke:#ffffff;stroke-width:0.8;"/>
    <path clip-path="url(#p00aa900a91)" d="M 113.541089 104.621712 
L 116.041089 102.121712 
L 118.541089 104.621712 
L 121.041089 102.121712 
L 118.541089 99.621712 
L 121.041089 97.121712 
L 118.541089 94.621712 
L 116.041089 97.121712 
L 113.541089 94.621712 
L 111.041089 97.121712 
L 113.541089 99.621712 
L 111.041089 102.121712 
z
" style="fill:#2ca02c;stroke:#ffffff;stroke-width:0.8;"/>
    <path clip-path="url(#p00aa900a91)" d="M 178.308436 134.009536 
L 180.808436 131.509536 
L 183.308436 134.009536 
L 185.808436 131.509536 
L 183.308436 129.009536 
L 185.808436 126.509536 
L 183.308436 124.009536 
L 180.808436 126.509536 
L 178.308436 124.009536 
L 175.808436 126.509536 
L 178.308436 129.009536 
L 175.808436 131.509536 
z
" style="fill:#2ca02c;stroke:#ffffff;stroke-width:0.8;"/>
    <path clip-path="url(#p00aa900a91)" d="M 92.221762 108.639845 
C 93.547777 108.639845 94.819661 108.113013 95.757296 107.175378 
C 96.69493 106.237744 97.221762 104.96586 97.221762 103.639845 
C 97.221762 102.313829 96.69493 101.041945 95.757296 100.104311 
C 94.819661 99.166676 93.547777 98.639845 92.221762 98.639845 
C 90.895746 98.639845 89.623863 99.166676 88.686228 100.104311 
C 87.748593 101.041945 87.221762 102.313829 87.221762 103.639845 
C 87.221762 104.96586 87.748593 106.237744 88.686228 107.175378 
C 89.623863 108.113013 90.895746 108.639845 92.221762 108.639845 
z
" style="fill:#2ca02c;stroke:#ffffff;stroke-width:0.8;"/>
    <path clip-path="url(#p00aa900a91)" d="M 85.934806 109.730299 
C 87.260822 109.730299 88.532706 109.203468 89.47034 108.265833 
C 90.407975 107.328198 90.934806 106.056315 90.934806 104.730299 
C 90.934806 103.404284 90.407975 102.1324 89.47034 101.194765 
C 88.532706 100.257131 87.260822 99.730299 85.934806 99.730299 
C 84.608791 99.730299 83.336907 100.257131 82.399273 101.194765 
C 81.461638 102.1324 80.934806 103.404284 80.934806 104.730299 
C 80.934806 106.056315 81.461638 107.328198 82.399273 108.265833 
C 83.336907 109.203468 84.608791 109.730299 85.934806 109.730299 
z
" style="fill:#2ca02c;stroke:#ffffff;stroke-width:0.8;"/>
    <path clip-path="url(#p00aa900a91)" d="M 102.744507 123.150444 
C 104.070523 123.150444 105.342407 122.623613 106.280041 121.685978 
C 107.217676 120.748344 107.744507 119.47646 107.744507 118.150444 
C 107.744507 116.824429 107.217676 115.552545 106.280041 114.61491 
C 105.342407 113.677276 104.070523 113.150444 102.744507 113.150444 
C 101.418492 113.150444 100.146608 113.677276 99.208973 114.61491 
C 98.271339 115.552545 97.744507 116.824429 97.744507 118.150444 
C 97.744507 119.47646 98.271339 120.748344 99.208973 121.685978 
C 100.146608 122.623613 101.418492 123.150444 102.744507 123.150444 
z
" style="fill:#2ca02c;stroke:#ffffff;stroke-width:0.8;"/>
    <path clip-path="url(#p00aa900a91)" d="M 104.119372 133.759577 
C 105.445388 133.759577 106.717271 133.232746 107.654906 132.295111 
C 108.592541 131.357476 109.119372 130.085593 109.119372 128.759577 
C 109.119372 127.433562 108.592541 126.161678 107.654906 125.224043 
C 106.717271 124.286409 105.445388 123.759577 104.119372 123.759577 
C 102.793357 123.759577 101.521473 124.286409 100.583838 125.224043 
C 99.646204 126.161678 99.119372 127.433562 99.119372 128.759577 
C 99.119372 130.085593 99.646204 131.357476 100.583838 132.295111 
C 101.521473 133.232746 102.793357 133.759577 104.119372 133.759577 
z
" style="fill:#2ca02c;stroke:#ffffff;stroke-width:0.8;"/>
    <path clip-path="url(#p00aa900a91)" d="M 95.353041 96.141636 
C 96.679056 96.141636 97.95094 95.614805 98.888575 94.67717 
C 99.826209 93.739536 100.353041 92.467652 100.353041 91.141636 
C 100.353041 89.815621 99.826209 88.543737 98.888575 87.606103 
C 97.95094 86.668468 96.679056 86.141636 95.353041 86.141636 
C 94.027025 86.141636 92.755142 86.668468 91.817507 87.606103 
C 90.879872 88.543737 90.353041 89.815621 90.353041 91.141636 
C 90.353041 92.467652 90.879872 93.739536 91.817507 94.67717 
C 92.755142 95.614805 94.027025 96.141636 95.353041 96.141636 
z
" style="fill:#2ca02c;stroke:#ffffff;stroke-width:0.8;"/>
    <path clip-path="url(#p00aa900a91)" d="M 119.788677 112.540707 
L 122.288677 110.040707 
L 124.788677 112.540707 
L 127.288677 110.040707 
L 124.788677 107.540707 
L 127.288677 105.040707 
L 124.788677 102.540707 
L 122.288677 105.040707 
L 119.788677 102.540707 
L 117.288677 105.040707 
L 119.788677 107.540707 
L 117.288677 110.040707 
z
" style="fill:#d62728;stroke:#ffffff;stroke-width:0.8;"/>
    <path clip-path="url(#p00aa900a91)" d="M 99.232524 132.105254 
C 100.558539 132.105254 101.830423 131.578422 102.768058 130.640788 
C 103.705692 129.703153 104.232524 128.431269 104.232524 127.105254 
C 104.232524 125.779238 103.705692 124.507355 102.768058 123.56972 
C 101.830423 122.632085 100.558539 122.105254 99.232524 122.105254 
C 97.906508 122.105254 96.634624 122.632085 95.69699 123.56972 
C 94.759355 124.507355 94.232524 125.779238 94.232524 127.105254 
C 94.232524 128.431269 94.759355 129.703153 95.69699 130.640788 
C 96.634624 131.578422 97.906508 132.105254 99.232524 132.105254 
z
" style="fill:#d62728;stroke:#ffffff;stroke-width:0.8;"/>
    <path clip-path="url(#p00aa900a91)" d="M 98.818063 118.939913 
C 100.144079 118.939913 101.415962 118.413082 102.353597 117.475447 
C 103.291232 116.537813 103.818063 115.265929 103.818063 113.939913 
C 103.818063 112.613898 103.291232 111.342014 102.353597 110.404379 
C 101.415962 109.466745 100.144079 108.939913 98.818063 108.939913 
C 97.492048 108.939913 96.220164 109.466745 95.282529 110.404379 
C 94.344895 111.342014 93.818063 112.613898 93.818063 113.939913 
C 93.818063 115.265929 94.344895 116.537813 95.282529 117.475447 
C 96.220164 118.413082 97.492048 118.939913 98.818063 118.939913 
z
" style="fill:#d62728;stroke:#ffffff;stroke-width:0.8;"/>
    <path clip-path="url(#p00aa900a91)" d="M 105.120665 124.048859 
C 106.44668 124.048859 107.718564 123.522027 108.656199 122.584392 
C 109.593833 121.646758 110.120665 120.374874 110.120665 119.048859 
C 110.120665 117.722843 109.593833 116.450959 108.656199 115.513325 
C 107.718564 114.57569 106.44668 114.048859 105.120665 114.048859 
C 103.794649 114.048859 102.522766 114.57569 101.585131 115.513325 
C 100.647496 116.450959 100.120665 117.722843 100.120665 119.048859 
C 100.120665 120.374874 100.647496 121.646758 101.585131 122.584392 
C 102.522766 123.522027 103.794649 124.048859 105.120665 124.048859 
z
" style="fill:#d62728;stroke:#ffffff;stroke-width:0.8;"/>
    <path clip-path="url(#p00aa900a91)" d="M 91.580597 94.470873 
C 92.906613 94.470873 94.178497 93.944041 95.116131 93.006407 
C 96.053766 92.068772 96.580597 90.796888 96.580597 89.470873 
C 96.580597 88.144857 96.053766 86.872973 95.116131 85.935339 
C 94.178497 84.997704 92.906613 84.470873 91.580597 84.470873 
C 90.254582 84.470873 88.982698 84.997704 88.045064 85.935339 
C 87.107429 86.872973 86.580597 88.144857 86.580597 89.470873 
C 86.580597 90.796888 87.107429 92.068772 88.045064 93.006407 
C 88.982698 93.944041 90.254582 94.470873 91.580597 94.470873 
z
" style="fill:#d62728;stroke:#ffffff;stroke-width:0.8;"/>
    <path clip-path="url(#p00aa900a91)" d="M 85.621639 101.856903 
C 86.947655 101.856903 88.219539 101.330072 89.157173 100.392437 
C 90.094808 99.454802 90.621639 98.182919 90.621639 96.856903 
C 90.621639 95.530888 90.094808 94.259004 89.157173 93.321369 
C 88.219539 92.383735 86.947655 91.856903 85.621639 91.856903 
C 84.295624 91.856903 83.02374 92.383735 82.086106 93.321369 
C 81.148471 94.259004 80.621639 95.530888 80.621639 96.856903 
C 80.621639 98.182919 81.148471 99.454802 82.086106 100.392437 
C 83.02374 101.330072 84.295624 101.856903 85.621639 101.856903 
z
" style="fill:#d62728;stroke:#ffffff;stroke-width:0.8;"/>
    <path clip-path="url(#p00aa900a91)" d="M 100.344798 118.593114 
L 102.844798 116.093114 
L 105.344798 118.593114 
L 107.844798 116.093114 
L 105.344798 113.593114 
L 107.844798 111.093114 
L 105.344798 108.593114 
L 102.844798 111.093114 
L 100.344798 108.593114 
L 97.844798 111.093114 
L 100.344798 113.593114 
L 97.844798 116.093114 
z
" style="fill:#d62728;stroke:#ffffff;stroke-width:0.8;"/>
    <path clip-path="url(#p00aa900a91)" d="M 101.916176 102.20405 
L 104.416176 99.70405 
L 106.916176 102.20405 
L 109.416176 99.70405 
L 106.916176 97.20405 
L 109.416176 94.70405 
L 106.916176 92.20405 
L 104.416176 94.70405 
L 101.916176 92.20405 
L 99.416176 94.70405 
L 101.916176 97.20405 
L 99.416176 99.70405 
z
" style="fill:#d62728;stroke:#ffffff;stroke-width:0.8;"/>
    <path clip-path="url(#p00aa900a91)" d="M 111.246135 124.713366 
L 113.746135 122.213366 
L 116.246135 124.713366 
L 118.746135 122.213366 
L 116.246135 119.713366 
L 118.746135 117.213366 
L 116.246135 114.713366 
L 113.746135 117.213366 
L 111.246135 114.713366 
L 108.746135 117.213366 
L 111.246135 119.713366 
L 108.746135 122.213366 
z
" style="fill:#d62728;stroke:#ffffff;stroke-width:0.8;"/>
    <path clip-path="url(#p00aa900a91)" d="M 109.032121 116.563185 
L 111.532121 114.063185 
L 114.032121 116.563185 
L 116.532121 114.063185 
L 114.032121 111.563185 
L 116.532121 109.063185 
L 114.032121 106.563185 
L 111.532121 109.063185 
L 109.032121 106.563185 
L 106.532121 109.063185 
L 109.032121 111.563185 
L 106.532121 114.063185 
z
" style="fill:#d62728;stroke:#ffffff;stroke-width:0.8;"/>
   </g>
   <g id="PathCollection_2"/>
   <g id="PathCollection_3"/>
   <g id="PathCollection_4"/>
   <g id="PathCollection_5"/>
   <g id="PathCollection_6"/>
   <g id="PathCollection_7"/>
   <g id="patch_3">
    <path clip-path="url(#p00aa900a91)" d="M 128.081494 165.331514 
C 129.31985 163.163027 127.135214 155.177583 122.008728 143.133882 
C 116.882242 131.090181 109.232461 115.971538 100.744159 101.107659 
C 92.255857 86.243781 83.622068 72.848236 76.744282 63.871237 
C 69.866497 54.894239 65.306257 51.068721 64.067901 53.237207 
C 62.829545 55.405693 65.014181 63.391138 70.140667 75.434839 
C 75.267153 87.47854 82.916935 102.597182 91.405237 117.461061 
C 99.893538 132.32494 108.527328 145.720485 115.405113 154.697483 
C 122.282898 163.674481 126.843139 167.5 128.081494 165.331514 
z
" style="fill:#ff7f0e;opacity:0.3;"/>
   </g>
   <g id="patch_4">
    <path clip-path="url(#p00aa900a91)" d="M 144.432327 145.213744 
C 145.786848 143.355747 145.895707 139.94077 144.734928 135.720924 
C 143.574149 131.501078 141.238505 126.820893 138.242394 122.711126 
C 135.246283 118.60136 131.834325 115.397556 128.757964 113.805314 
C 125.681603 112.213073 123.192009 112.362394 121.837488 114.220392 
C 120.482967 116.078389 120.374109 119.493365 121.534888 123.713212 
C 122.695667 127.933058 125.031311 132.613243 128.027422 136.723009 
C 131.023532 140.832776 134.43549 144.03658 137.511852 145.628821 
C 140.588213 147.221063 143.077806 147.071741 144.432327 145.213744 
z
" style="fill:#ff7f0e;opacity:0.3;"/>
   </g>
   <g id="patch_5">
    <path clip-path="url(#p00aa900a91)" d="M 113.086584 142.395226 
C 114.406902 139.825442 113.880842 133.871795 111.624261 125.845505 
C 109.36768 117.819215 105.564819 108.375594 101.053214 99.59449 
C 96.541609 90.813385 91.689612 83.411736 87.56582 79.019669 
C 83.442027 74.627602 80.383129 73.603711 79.062811 76.173494 
C 77.742493 78.743278 78.268554 84.696926 80.525135 92.723216 
C 82.781715 100.749506 86.584576 110.193127 91.096182 118.974231 
C 95.607787 127.755335 100.459783 135.156984 104.583576 139.549051 
C 108.707368 143.941118 111.766267 144.96501 113.086584 142.395226 
z
" style="fill:#1f77b4;opacity:0.3;"/>
   </g>
   <g id="patch_6">
    <path clip-path="url(#p00aa900a91)" d="M 147.771175 123.844599 
C 148.353979 122.313625 147.627626 117.468611 145.752088 110.376615 
C 143.876549 103.284619 141.004954 94.524671 137.769738 86.026048 
C 134.534521 77.527425 131.199825 69.984002 128.500077 65.057129 
C 125.800329 60.130257 123.955952 58.222194 123.373148 59.753168 
C 122.790344 61.284142 123.516697 66.129156 125.392235 73.221152 
C 127.267774 80.313148 130.139369 89.073096 133.374585 97.571719 
C 136.609802 106.070342 139.944498 113.613766 142.644246 118.540638 
C 145.343994 123.46751 147.188371 125.375573 147.771175 123.844599 
z
" style="fill:#1f77b4;opacity:0.3;"/>
   </g>
   <g id="patch_7">
    <path clip-path="url(#p00aa900a91)" d="M 110.400765 138.958584 
C 111.687877 136.29253 111.412961 130.608649 109.636564 123.158749 
C 107.860167 115.70885 104.727323 107.101182 100.928006 99.231486 
C 97.128689 91.36179 92.973095 84.872591 89.376446 81.19306 
C 85.779797 77.513529 83.035743 76.944083 81.74863 79.610137 
C 80.461518 82.27619 80.736434 87.960071 82.512831 95.409971 
C 84.289228 102.859871 87.422072 111.467539 91.221389 119.337235 
C 95.020707 127.206931 99.176301 133.69613 102.77295 137.375661 
C 106.369599 141.055192 109.113653 141.624637 110.400765 138.958584 
z
" style="fill:#d62728;opacity:0.3;"/>
   </g>
   <g id="patch_8">
    <path clip-path="url(#p00aa900a91)" d="M 123.137487 122.919772 
C 125.748781 120.131491 126.970967 116.087601 126.534871 111.678722 
C 126.098774 107.269843 124.040003 102.855941 120.811975 99.409126 
C 117.583948 95.962311 113.45022 93.764001 109.321196 93.298347 
C 105.192173 92.832694 101.40497 94.137715 98.793676 96.925997 
C 96.182382 99.714278 94.960196 103.758168 95.396293 108.167047 
C 95.832389 112.575925 97.891161 116.989828 101.119188 120.436643 
C 104.347215 123.883457 108.480943 126.081768 112.609967 126.547421 
C 116.73899 127.013075 120.526193 125.708053 123.137487 122.919772 
z
" style="fill:#d62728;opacity:0.3;"/>
   </g>
   <g id="patch_9">
    <path clip-path="url(#p00aa900a91)" d="M 109.892311 135.836522 
C 111.493664 132.759336 111.573734 127.010065 110.114887 119.854921 
C 108.65604 112.699776 105.777384 104.722944 102.11291 97.681228 
C 98.448436 90.639513 94.297332 85.107839 90.573831 82.304493 
C 86.850329 79.501148 83.858437 79.655012 82.257084 82.732198 
C 80.655732 85.809385 80.575662 91.558655 82.034509 98.7138 
C 83.493356 105.868944 86.372012 113.845777 90.036485 120.887492 
C 93.700959 127.929208 97.852063 133.460882 101.575565 136.264227 
C 105.299067 139.067573 108.290958 138.913709 109.892311 135.836522 
z
" style="fill:#2ca02c;opacity:0.3;"/>
   </g>
   <g id="patch_10">
    <path clip-path="url(#p00aa900a91)" d="M 193.916371 158.439635 
C 198.420455 153.670257 196.761876 142.764631 189.30592 128.124593 
C 181.849963 113.484555 169.205373 96.3054 154.156974 80.370638 
C 139.108576 64.435876 122.885004 51.046508 109.059311 43.151389 
C 95.233619 35.25627 84.934613 33.5 80.43053 38.269378 
C 75.926447 43.038755 77.585025 53.944382 85.040982 68.58442 
C 92.496939 83.224457 105.141528 100.403612 120.189927 116.338374 
C 135.238325 132.273137 151.461897 145.662504 165.28759 153.557623 
C 179.113282 161.452743 189.412288 163.209012 193.916371 158.439635 
z
" style="fill:#2ca02c;opacity:0.3;"/>
   </g>
   <g id="matplotlib.axis_1">
    <g id="xtick_1">
     <g id="line2d_1">
      <defs>
       <path d="M 0 0 
L 0 3.5 
" id="ma83fb35171" style="stroke:#000000;stroke-width:0.8;"/>
      </defs>
      <g>
       <use style="stroke:#000000;stroke-width:0.8;" x="57.292694" xlink:href="#ma83fb35171" y="174.2"/>
      </g>
     </g>
     <g id="text_1">
      <text style="font-family:DejaVu Sans;font-size:10px;font-stretch:normal;font-style:normal;font-weight:normal;text-anchor:middle;" transform="rotate(-0, 57.292694, 188.798438)" x="57.292694" y="188.798438">−0.5</text>
     </g>
    </g>
    <g id="xtick_2">
     <g id="line2d_2">
      <g>
       <use style="stroke:#000000;stroke-width:0.8;" x="96.074698" xlink:href="#ma83fb35171" y="174.2"/>
      </g>
     </g>
     <g id="text_2">
      <text style="font-family:DejaVu Sans;font-size:10px;font-stretch:normal;font-style:normal;font-weight:normal;text-anchor:middle;" transform="rotate(-0, 96.074698, 188.798438)" x="96.074698" y="188.798438">0.0</text>
     </g>
    </g>
    <g id="xtick_3">
     <g id="line2d_3">
      <g>
       <use style="stroke:#000000;stroke-width:0.8;" x="134.856702" xlink:href="#ma83fb35171" y="174.2"/>
      </g>
     </g>
     <g id="text_3">
      <text style="font-family:DejaVu Sans;font-size:10px;font-stretch:normal;font-style:normal;font-weight:normal;text-anchor:middle;" transform="rotate(-0, 134.856702, 188.798438)" x="134.856702" y="188.798438">0.5</text>
     </g>
    </g>
    <g id="xtick_4">
     <g id="line2d_4">
      <g>
       <use style="stroke:#000000;stroke-width:0.8;" x="173.638706" xlink:href="#ma83fb35171" y="174.2"/>
      </g>
     </g>
     <g id="text_4">
      <text style="font-family:DejaVu Sans;font-size:10px;font-stretch:normal;font-style:normal;font-weight:normal;text-anchor:middle;" transform="rotate(-0, 173.638706, 188.798438)" x="173.638706" y="188.798438">1.0</text>
     </g>
    </g>
    <g id="text_5">
     <text style="font-family:DejaVu Sans;font-size:10px;font-stretch:normal;font-style:normal;font-weight:normal;text-anchor:middle;" transform="rotate(-0, 130.625, 202.476562)" x="130.625" y="202.476562">Factor 1 (62.29)</text>
    </g>
   </g>
   <g id="matplotlib.axis_2">
    <g id="ytick_1">
     <g id="line2d_5">
      <defs>
       <path d="M 0 0 
L -3.5 0 
" id="m71c5f96b5b" style="stroke:#000000;stroke-width:0.8;"/>
      </defs>
      <g>
       <use style="stroke:#000000;stroke-width:0.8;" x="56.05" xlink:href="#m71c5f96b5b" y="155.056094"/>
      </g>
     </g>
     <g id="text_6">
      <text style="font-family:DejaVu Sans;font-size:10px;font-stretch:normal;font-style:normal;font-weight:normal;text-anchor:end;" transform="rotate(-0, 49.05, 158.855313)" x="49.05" y="158.855313">−0.4</text>
     </g>
    </g>
    <g id="ytick_2">
     <g id="line2d_6">
      <g>
       <use style="stroke:#000000;stroke-width:0.8;" x="56.05" xlink:href="#m71c5f96b5b" y="132.170227"/>
      </g>
     </g>
     <g id="text_7">
      <text style="font-family:DejaVu Sans;font-size:10px;font-stretch:normal;font-style:normal;font-weight:normal;text-anchor:end;" transform="rotate(-0, 49.05, 135.969446)" x="49.05" y="135.969446">−0.2</text>
     </g>
    </g>
    <g id="ytick_3">
     <g id="line2d_7">
      <g>
       <use style="stroke:#000000;stroke-width:0.8;" x="56.05" xlink:href="#m71c5f96b5b" y="109.28436"/>
      </g>
     </g>
     <g id="text_8">
      <text style="font-family:DejaVu Sans;font-size:10px;font-stretch:normal;font-style:normal;font-weight:normal;text-anchor:end;" transform="rotate(-0, 49.05, 113.083579)" x="49.05" y="113.083579">0.0</text>
     </g>
    </g>
    <g id="ytick_4">
     <g id="line2d_8">
      <g>
       <use style="stroke:#000000;stroke-width:0.8;" x="56.05" xlink:href="#m71c5f96b5b" y="86.398493"/>
      </g>
     </g>
     <g id="text_9">
      <text style="font-family:DejaVu Sans;font-size:10px;font-stretch:normal;font-style:normal;font-weight:normal;text-anchor:end;" transform="rotate(-0, 49.05, 90.197712)" x="49.05" y="90.197712">0.2</text>
     </g>
    </g>
    <g id="ytick_5">
     <g id="line2d_9">
      <g>
       <use style="stroke:#000000;stroke-width:0.8;" x="56.05" xlink:href="#m71c5f96b5b" y="63.512626"/>
      </g>
     </g>
     <g id="text_10">
      <text style="font-family:DejaVu Sans;font-size:10px;font-stretch:normal;font-style:normal;font-weight:normal;text-anchor:end;" transform="rotate(-0, 49.05, 67.311845)" x="49.05" y="67.311845">0.4</text>
     </g>
    </g>
    <g id="ytick_6">
     <g id="line2d_10">
      <g>
       <use style="stroke:#000000;stroke-width:0.8;" x="56.05" xlink:href="#m71c5f96b5b" y="40.626759"/>
      </g>
     </g>
     <g id="text_11">
      <text style="font-family:DejaVu Sans;font-size:10px;font-stretch:normal;font-style:normal;font-weight:normal;text-anchor:end;" transform="rotate(-0, 49.05, 44.425978)" x="49.05" y="44.425978">0.6</text>
     </g>
    </g>
    <g id="text_12">
     <text style="font-family:DejaVu Sans;font-size:10px;font-stretch:normal;font-style:normal;font-weight:normal;text-anchor:middle;" transform="rotate(-90, 18.6875, 100.5)" x="18.6875" y="100.5">Factor 2 (40.94)</text>
    </g>
   </g>
   <g id="patch_11">
    <path d="M 56.05 174.2 
L 56.05 26.8 
" style="fill:none;stroke:#000000;stroke-linecap:square;stroke-linejoin:miter;stroke-width:0.8;"/>
   </g>
   <g id="patch_12">
    <path d="M 205.2 174.2 
L 205.2 26.8 
" style="fill:none;stroke:#000000;stroke-linecap:square;stroke-linejoin:miter;stroke-width:0.8;"/>
   </g>
   <g id="patch_13">
    <path d="M 56.05 174.2 
L 205.2 174.2 
" style="fill:none;stroke:#000000;stroke-linecap:square;stroke-linejoin:miter;stroke-width:0.8;"/>
   </g>
   <g id="patch_14">
    <path d="M 56.05 26.8 
L 205.2 26.8 
" style="fill:none;stroke:#000000;stroke-linecap:square;stroke-linejoin:miter;stroke-width:0.8;"/>
   </g>
   <g id="patch_15">
    <path d="M 129.524193 127.726343 
Q 114.605364 119.501023 97.828851 110.251492 
" style="fill:none;stroke:#ff7f0e;stroke-linecap:round;stroke-width:3;"/>
    <path d="M 125.595168 114.140955 
L 129.524193 127.726343 
L 115.938805 131.655367 
" style="fill:none;stroke:#ff7f0e;stroke-linecap:round;stroke-width:3;"/>
   </g>
   <g id="patch_16">
    <path d="M 131.802673 93.467631 
Q 115.82243 100.542064 97.902446 108.475218 
" style="fill:none;stroke:#1f77b4;stroke-linecap:round;stroke-width:3;"/>
    <path d="M 118.610592 88.371652 
L 131.802673 93.467631 
L 126.706693 106.659712 
" style="fill:none;stroke:#1f77b4;stroke-linecap:round;stroke-width:3;"/>
   </g>
   <g id="patch_17">
    <path d="M 106.850336 109.746422 
Q 103.521755 109.603692 98.073802 109.370082 
" style="fill:none;stroke:#d62728;stroke-linecap:round;stroke-width:3;"/>
    <path d="M 97.287925 99.327194 
L 106.850336 109.746422 
L 96.431109 119.308833 
" style="fill:none;stroke:#d62728;stroke-linecap:round;stroke-width:3;"/>
   </g>
   <g id="patch_18">
    <path d="M 133.189358 99.414041 
Q 116.625182 103.819139 98.010942 108.769433 
" style="fill:none;stroke:#2ca02c;stroke-linecap:round;stroke-width:3;"/>
    <path d="M 120.955184 92.320029 
L 133.189358 99.414041 
L 126.095346 111.648214 
" style="fill:none;stroke:#2ca02c;stroke-linecap:round;stroke-width:3;"/>
   </g>
   <g id="text_13">
    <text style="font-family:DejaVu Sans;font-size:12px;font-stretch:normal;font-style:normal;font-weight:normal;text-anchor:middle;" transform="rotate(-0, 130.625, 20.8)" x="130.625" y="20.8">Value, (3.36, 0.009200), (27.03, P=0.000001)</text>
   </g>
   <g id="legend_1">
    <g id="patch_19">
     <path d="M 63.05 169.2 
L 175.3625 169.2 
Q 177.3625 169.2 177.3625 167.2 
L 177.3625 50.775 
Q 177.3625 48.775 175.3625 48.775 
L 63.05 48.775 
Q 61.05 48.775 61.05 50.775 
L 61.05 167.2 
Q 61.05 169.2 63.05 169.2 
z
" style="fill:#ffffff;opacity:0.8;stroke:#cccccc;stroke-linejoin:miter;"/>
    </g>
    <g id="text_14">
     <text style="font-family:DejaVu Sans;font-size:10px;font-stretch:normal;font-style:normal;font-weight:normal;text-anchor:start;" transform="rotate(-0, 73.05, 60.373438)" x="73.05" y="60.373438">Vendor</text>
    </g>
    <g id="PathCollection_8">
     <defs>
      <path d="M 0 3 
C 0.795609 3 1.55874 2.683901 2.12132 2.12132 
C 2.683901 1.55874 3 0.795609 3 0 
C 3 -0.795609 2.683901 -1.55874 2.12132 -2.12132 
C 1.55874 -2.683901 0.795609 -3 0 -3 
C -0.795609 -3 -1.55874 -2.683901 -2.12132 -2.12132 
C -2.683901 -1.55874 -3 -0.795609 -3 0 
C -3 0.795609 -2.683901 1.55874 -2.12132 2.12132 
C -1.55874 2.683901 -0.795609 3 0 3 
z
" id="mac0c96300d" style="stroke:#1f77b4;"/>
     </defs>
     <g>
      <use style="fill:#1f77b4;stroke:#1f77b4;" x="75.05" xlink:href="#mac0c96300d" y="72.426563"/>
     </g>
    </g>
    <g id="text_15">
     <text style="font-family:DejaVu Sans;font-size:10px;font-stretch:normal;font-style:normal;font-weight:normal;text-anchor:start;" transform="rotate(-0, 93.05, 75.051563)" x="93.05" y="75.051563">Beijing</text>
    </g>
    <g id="PathCollection_9">
     <defs>
      <path d="M 0 3 
C 0.795609 3 1.55874 2.683901 2.12132 2.12132 
C 2.683901 1.55874 3 0.795609 3 0 
C 3 -0.795609 2.683901 -1.55874 2.12132 -2.12132 
C 1.55874 -2.683901 0.795609 -3 0 -3 
C -0.795609 -3 -1.55874 -2.683901 -2.12132 -2.12132 
C -2.683901 -1.55874 -3 -0.795609 -3 0 
C -3 0.795609 -2.683901 1.55874 -2.12132 2.12132 
C -1.55874 2.683901 -0.795609 3 0 3 
z
" id="mf3633bf48f" style="stroke:#ff7f0e;"/>
     </defs>
     <g>
      <use style="fill:#ff7f0e;stroke:#ff7f0e;" x="75.05" xlink:href="#mf3633bf48f" y="87.104688"/>
     </g>
    </g>
    <g id="text_16">
     <text style="font-family:DejaVu Sans;font-size:10px;font-stretch:normal;font-style:normal;font-weight:normal;text-anchor:start;" transform="rotate(-0, 93.05, 89.729688)" x="93.05" y="89.729688">Guangdong</text>
    </g>
    <g id="PathCollection_10">
     <defs>
      <path d="M 0 3 
C 0.795609 3 1.55874 2.683901 2.12132 2.12132 
C 2.683901 1.55874 3 0.795609 3 0 
C 3 -0.795609 2.683901 -1.55874 2.12132 -2.12132 
C 1.55874 -2.683901 0.795609 -3 0 -3 
C -0.795609 -3 -1.55874 -2.683901 -2.12132 -2.12132 
C -2.683901 -1.55874 -3 -0.795609 -3 0 
C -3 0.795609 -2.683901 1.55874 -2.12132 2.12132 
C -1.55874 2.683901 -0.795609 3 0 3 
z
" id="m3dfcda0cb9" style="stroke:#2ca02c;"/>
     </defs>
     <g>
      <use style="fill:#2ca02c;stroke:#2ca02c;" x="75.05" xlink:href="#m3dfcda0cb9" y="101.782813"/>
     </g>
    </g>
    <g id="text_17">
     <text style="font-family:DejaVu Sans;font-size:10px;font-stretch:normal;font-style:normal;font-weight:normal;text-anchor:start;" transform="rotate(-0, 93.05, 104.407813)" x="93.05" y="104.407813">Hunan</text>
    </g>
    <g id="PathCollection_11">
     <defs>
      <path d="M 0 3 
C 0.795609 3 1.55874 2.683901 2.12132 2.12132 
C 2.683901 1.55874 3 0.795609 3 0 
C 3 -0.795609 2.683901 -1.55874 2.12132 -2.12132 
C 1.55874 -2.683901 0.795609 -3 0 -3 
C -0.795609 -3 -1.55874 -2.683901 -2.12132 -2.12132 
C -2.683901 -1.55874 -3 -0.795609 -3 0 
C -3 0.795609 -2.683901 1.55874 -2.12132 2.12132 
C -1.55874 2.683901 -0.795609 3 0 3 
z
" id="m912f6335eb" style="stroke:#d62728;"/>
     </defs>
     <g>
      <use style="fill:#d62728;stroke:#d62728;" x="75.05" xlink:href="#m912f6335eb" y="116.460938"/>
     </g>
    </g>
    <g id="text_18">
     <text style="font-family:DejaVu Sans;font-size:10px;font-stretch:normal;font-style:normal;font-weight:normal;text-anchor:start;" transform="rotate(-0, 93.05, 119.085938)" x="93.05" y="119.085938">Shanghai</text>
    </g>
    <g id="text_19">
     <text style="font-family:DejaVu Sans;font-size:10px;font-stretch:normal;font-style:normal;font-weight:normal;text-anchor:start;" transform="rotate(-0, 73.05, 133.764063)" x="73.05" y="133.764063">Diet</text>
    </g>
    <g id="PathCollection_12">
     <defs>
      <path d="M 0 3 
C 0.795609 3 1.55874 2.683901 2.12132 2.12132 
C 2.683901 1.55874 3 0.795609 3 0 
C 3 -0.795609 2.683901 -1.55874 2.12132 -2.12132 
C 1.55874 -2.683901 0.795609 -3 0 -3 
C -0.795609 -3 -1.55874 -2.683901 -2.12132 -2.12132 
C -2.683901 -1.55874 -3 -0.795609 -3 0 
C -3 0.795609 -2.683901 1.55874 -2.12132 2.12132 
C -1.55874 2.683901 -0.795609 3 0 3 
z
" id="m25a0fb878b" style="stroke:#333333;"/>
     </defs>
     <g>
      <use style="fill:#333333;stroke:#333333;" x="75.05" xlink:href="#m25a0fb878b" y="145.817188"/>
     </g>
    </g>
    <g id="text_20">
     <text style="font-family:DejaVu Sans;font-size:10px;font-stretch:normal;font-style:normal;font-weight:normal;text-anchor:start;" transform="rotate(-0, 93.05, 148.442188)" x="93.05" y="148.442188">Control</text>
    </g>
    <g id="PathCollection_13">
     <defs>
      <path d="M -1.5 3 
L 0 1.5 
L 1.5 3 
L 3 1.5 
L 1.5 0 
L 3 -1.5 
L 1.5 -3 
L 0 -1.5 
L -1.5 -3 
L -3 -1.5 
L -1.5 0 
L -3 1.5 
z
" id="m6ac747dd82" style="stroke:#333333;"/>
     </defs>
     <g>
      <use style="fill:#333333;stroke:#333333;" x="75.05" xlink:href="#m6ac747dd82" y="160.495313"/>
     </g>
    </g>
    <g id="text_21">
     <text style="font-family:DejaVu Sans;font-size:10px;font-stretch:normal;font-style:normal;font-weight:normal;text-anchor:start;" transform="rotate(-0, 93.05, 163.120313)" x="93.05" y="163.120313">Resistant starch</text>
    </g>
   </g>
  </g>
 </g>
 <defs>
  <clipPath id="p00aa900a91">
   <rect height="147.4" width="149.15" x="56.05" y="26.8"/>
  </clipPath>
 </defs>
</svg>
