<?xml version="1.0" encoding="utf-8" standalone="no"?>
<!DOCTYPE svg PUBLIC "-//W3C//DTD SVG 1.1//EN"
  "http://www.w3.org/Graphics/SVG/1.1/DTD/svg11.dtd">
<!-- Created with matplotlib (https://matplotlib.org/) -->
<svg height="576pt" version="1.1" viewBox="0 0 144 576" width="144pt" xmlns="http://www.w3.org/2000/svg" xmlns:xlink="http://www.w3.org/1999/xlink">
 <defs>
  <style type="text/css">
*{stroke-linecap:butt;stroke-linejoin:round;}
  </style>
 </defs>
 <g id="figure_1">
  <g id="patch_1">
   <path d="M 0 576 
L 144 576 
L 144 0 
L 0 0 
z
" style="fill:#ffffff;"/>
  </g>
  <g id="axes_1">
   <g id="patch_2">
    <path d="M 18 504 
L 129.6 504 
L 129.6 69.12 
L 18 69.12 
z
" style="fill:#ffffff;"/>
   </g>
   <g id="QuadMesh_1">
    <path clip-path="url(#p6ca12403f5)" d="M 18 69.12 
L 55.2 69.12 
L 55.2 81.2 
L 18 81.2 
L 18 69.12 
" style="fill:#faebdd;"/>
    <path clip-path="url(#p6ca12403f5)" d="M 55.2 69.12 
L 92.4 69.12 
L 92.4 81.2 
L 55.2 81.2 
L 55.2 69.12 
" style="fill:#03051a;"/>
    <path clip-path="url(#p6ca12403f5)" d="M 92.4 69.12 
L 129.6 69.12 
L 129.6 81.2 
L 92.4 81.2 
L 92.4 69.12 
" style="fill:#faebdd;"/>
    <path clip-path="url(#p6ca12403f5)" d="M 18 81.2 
L 55.2 81.2 
L 55.2 93.28 
L 18 93.28 
L 18 81.2 
" style="fill:#faebdd;"/>
    <path clip-path="url(#p6ca12403f5)" d="M 55.2 81.2 
L 92.4 81.2 
L 92.4 93.28 
L 55.2 93.28 
L 55.2 81.2 
" style="fill:#03051a;"/>
    <path clip-path="url(#p6ca12403f5)" d="M 92.4 81.2 
L 129.6 81.2 
L 129.6 93.28 
L 92.4 93.28 
L 92.4 81.2 
" style="fill:#03051a;"/>
    <path clip-path="url(#p6ca12403f5)" d="M 18 93.28 
L 55.2 93.28 
L 55.2 105.36 
L 18 105.36 
L 18 93.28 
" style="fill:#03051a;"/>
    <path clip-path="url(#p6ca12403f5)" d="M 55.2 93.28 
L 92.4 93.28 
L 92.4 105.36 
L 55.2 105.36 
L 55.2 93.28 
" style="fill:#faebdd;"/>
    <path clip-path="url(#p6ca12403f5)" d="M 92.4 93.28 
L 129.6 93.28 
L 129.6 105.36 
L 92.4 105.36 
L 92.4 93.28 
" style="fill:#03051a;"/>
    <path clip-path="url(#p6ca12403f5)" d="M 18 105.36 
L 55.2 105.36 
L 55.2 117.44 
L 18 117.44 
L 18 105.36 
" style="fill:#faebdd;"/>
    <path clip-path="url(#p6ca12403f5)" d="M 55.2 105.36 
L 92.4 105.36 
L 92.4 117.44 
L 55.2 117.44 
L 55.2 105.36 
" style="fill:#03051a;"/>
    <path clip-path="url(#p6ca12403f5)" d="M 92.4 105.36 
L 129.6 105.36 
L 129.6 117.44 
L 92.4 117.44 
L 92.4 105.36 
" style="fill:#03051a;"/>
    <path clip-path="url(#p6ca12403f5)" d="M 18 117.44 
L 55.2 117.44 
L 55.2 129.52 
L 18 129.52 
L 18 117.44 
" style="fill:#03051a;"/>
    <path clip-path="url(#p6ca12403f5)" d="M 55.2 117.44 
L 92.4 117.44 
L 92.4 129.52 
L 55.2 129.52 
L 55.2 117.44 
" style="fill:#faebdd;"/>
    <path clip-path="url(#p6ca12403f5)" d="M 92.4 117.44 
L 129.6 117.44 
L 129.6 129.52 
L 92.4 129.52 
L 92.4 117.44 
" style="fill:#03051a;"/>
    <path clip-path="url(#p6ca12403f5)" d="M 18 129.52 
L 55.2 129.52 
L 55.2 141.6 
L 18 141.6 
L 18 129.52 
" style="fill:#03051a;"/>
    <path clip-path="url(#p6ca12403f5)" d="M 55.2 129.52 
L 92.4 129.52 
L 92.4 141.6 
L 55.2 141.6 
L 55.2 129.52 
" style="fill:#03051a;"/>
    <path clip-path="url(#p6ca12403f5)" d="M 92.4 129.52 
L 129.6 129.52 
L 129.6 141.6 
L 92.4 141.6 
L 92.4 129.52 
" style="fill:#faebdd;"/>
    <path clip-path="url(#p6ca12403f5)" d="M 18 141.6 
L 55.2 141.6 
L 55.2 153.68 
L 18 153.68 
L 18 141.6 
" style="fill:#03051a;"/>
    <path clip-path="url(#p6ca12403f5)" d="M 55.2 141.6 
L 92.4 141.6 
L 92.4 153.68 
L 55.2 153.68 
L 55.2 141.6 
" style="fill:#03051a;"/>
    <path clip-path="url(#p6ca12403f5)" d="M 92.4 141.6 
L 129.6 141.6 
L 129.6 153.68 
L 92.4 153.68 
L 92.4 141.6 
" style="fill:#faebdd;"/>
    <path clip-path="url(#p6ca12403f5)" d="M 18 153.68 
L 55.2 153.68 
L 55.2 165.76 
L 18 165.76 
L 18 153.68 
" style="fill:#faebdd;"/>
    <path clip-path="url(#p6ca12403f5)" d="M 55.2 153.68 
L 92.4 153.68 
L 92.4 165.76 
L 55.2 165.76 
L 55.2 153.68 
" style="fill:#03051a;"/>
    <path clip-path="url(#p6ca12403f5)" d="M 92.4 153.68 
L 129.6 153.68 
L 129.6 165.76 
L 92.4 165.76 
L 92.4 153.68 
" style="fill:#03051a;"/>
    <path clip-path="url(#p6ca12403f5)" d="M 18 165.76 
L 55.2 165.76 
L 55.2 177.84 
L 18 177.84 
L 18 165.76 
" style="fill:#03051a;"/>
    <path clip-path="url(#p6ca12403f5)" d="M 55.2 165.76 
L 92.4 165.76 
L 92.4 177.84 
L 55.2 177.84 
L 55.2 165.76 
" style="fill:#faebdd;"/>
    <path clip-path="url(#p6ca12403f5)" d="M 92.4 165.76 
L 129.6 165.76 
L 129.6 177.84 
L 92.4 177.84 
L 92.4 165.76 
" style="fill:#faebdd;"/>
    <path clip-path="url(#p6ca12403f5)" d="M 18 177.84 
L 55.2 177.84 
L 55.2 189.92 
L 18 189.92 
L 18 177.84 
" style="fill:#faebdd;"/>
    <path clip-path="url(#p6ca12403f5)" d="M 55.2 177.84 
L 92.4 177.84 
L 92.4 189.92 
L 55.2 189.92 
L 55.2 177.84 
" style="fill:#03051a;"/>
    <path clip-path="url(#p6ca12403f5)" d="M 92.4 177.84 
L 129.6 177.84 
L 129.6 189.92 
L 92.4 189.92 
L 92.4 177.84 
" style="fill:#03051a;"/>
    <path clip-path="url(#p6ca12403f5)" d="M 18 189.92 
L 55.2 189.92 
L 55.2 202 
L 18 202 
L 18 189.92 
" style="fill:#03051a;"/>
    <path clip-path="url(#p6ca12403f5)" d="M 55.2 189.92 
L 92.4 189.92 
L 92.4 202 
L 55.2 202 
L 55.2 189.92 
" style="fill:#03051a;"/>
    <path clip-path="url(#p6ca12403f5)" d="M 92.4 189.92 
L 129.6 189.92 
L 129.6 202 
L 92.4 202 
L 92.4 189.92 
" style="fill:#faebdd;"/>
    <path clip-path="url(#p6ca12403f5)" d="M 18 202 
L 55.2 202 
L 55.2 214.08 
L 18 214.08 
L 18 202 
" style="fill:#03051a;"/>
    <path clip-path="url(#p6ca12403f5)" d="M 55.2 202 
L 92.4 202 
L 92.4 214.08 
L 55.2 214.08 
L 55.2 202 
" style="fill:#03051a;"/>
    <path clip-path="url(#p6ca12403f5)" d="M 92.4 202 
L 129.6 202 
L 129.6 214.08 
L 92.4 214.08 
L 92.4 202 
" style="fill:#faebdd;"/>
    <path clip-path="url(#p6ca12403f5)" d="M 18 214.08 
L 55.2 214.08 
L 55.2 226.16 
L 18 226.16 
L 18 214.08 
" style="fill:#03051a;"/>
    <path clip-path="url(#p6ca12403f5)" d="M 55.2 214.08 
L 92.4 214.08 
L 92.4 226.16 
L 55.2 226.16 
L 55.2 214.08 
" style="fill:#03051a;"/>
    <path clip-path="url(#p6ca12403f5)" d="M 92.4 214.08 
L 129.6 214.08 
L 129.6 226.16 
L 92.4 226.16 
L 92.4 214.08 
" style="fill:#faebdd;"/>
    <path clip-path="url(#p6ca12403f5)" d="M 18 226.16 
L 55.2 226.16 
L 55.2 238.24 
L 18 238.24 
L 18 226.16 
" style="fill:#03051a;"/>
    <path clip-path="url(#p6ca12403f5)" d="M 55.2 226.16 
L 92.4 226.16 
L 92.4 238.24 
L 55.2 238.24 
L 55.2 226.16 
" style="fill:#03051a;"/>
    <path clip-path="url(#p6ca12403f5)" d="M 92.4 226.16 
L 129.6 226.16 
L 129.6 238.24 
L 92.4 238.24 
L 92.4 226.16 
" style="fill:#faebdd;"/>
    <path clip-path="url(#p6ca12403f5)" d="M 18 238.24 
L 55.2 238.24 
L 55.2 250.32 
L 18 250.32 
L 18 238.24 
" style="fill:#03051a;"/>
    <path clip-path="url(#p6ca12403f5)" d="M 55.2 238.24 
L 92.4 238.24 
L 92.4 250.32 
L 55.2 250.32 
L 55.2 238.24 
" style="fill:#03051a;"/>
    <path clip-path="url(#p6ca12403f5)" d="M 92.4 238.24 
L 129.6 238.24 
L 129.6 250.32 
L 92.4 250.32 
L 92.4 238.24 
" style="fill:#faebdd;"/>
    <path clip-path="url(#p6ca12403f5)" d="M 18 250.32 
L 55.2 250.32 
L 55.2 262.4 
L 18 262.4 
L 18 250.32 
" style="fill:#03051a;"/>
    <path clip-path="url(#p6ca12403f5)" d="M 55.2 250.32 
L 92.4 250.32 
L 92.4 262.4 
L 55.2 262.4 
L 55.2 250.32 
" style="fill:#03051a;"/>
    <path clip-path="url(#p6ca12403f5)" d="M 92.4 250.32 
L 129.6 250.32 
L 129.6 262.4 
L 92.4 262.4 
L 92.4 250.32 
" style="fill:#faebdd;"/>
    <path clip-path="url(#p6ca12403f5)" d="M 18 262.4 
L 55.2 262.4 
L 55.2 274.48 
L 18 274.48 
L 18 262.4 
" style="fill:#03051a;"/>
    <path clip-path="url(#p6ca12403f5)" d="M 55.2 262.4 
L 92.4 262.4 
L 92.4 274.48 
L 55.2 274.48 
L 55.2 262.4 
" style="fill:#03051a;"/>
    <path clip-path="url(#p6ca12403f5)" d="M 92.4 262.4 
L 129.6 262.4 
L 129.6 274.48 
L 92.4 274.48 
L 92.4 262.4 
" style="fill:#faebdd;"/>
    <path clip-path="url(#p6ca12403f5)" d="M 18 274.48 
L 55.2 274.48 
L 55.2 286.56 
L 18 286.56 
L 18 274.48 
" style="fill:#faebdd;"/>
    <path clip-path="url(#p6ca12403f5)" d="M 55.2 274.48 
L 92.4 274.48 
L 92.4 286.56 
L 55.2 286.56 
L 55.2 274.48 
" style="fill:#faebdd;"/>
    <path clip-path="url(#p6ca12403f5)" d="M 92.4 274.48 
L 129.6 274.48 
L 129.6 286.56 
L 92.4 286.56 
L 92.4 274.48 
" style="fill:#03051a;"/>
    <path clip-path="url(#p6ca12403f5)" d="M 18 286.56 
L 55.2 286.56 
L 55.2 298.64 
L 18 298.64 
L 18 286.56 
" style="fill:#faebdd;"/>
    <path clip-path="url(#p6ca12403f5)" d="M 55.2 286.56 
L 92.4 286.56 
L 92.4 298.64 
L 55.2 298.64 
L 55.2 286.56 
" style="fill:#faebdd;"/>
    <path clip-path="url(#p6ca12403f5)" d="M 92.4 286.56 
L 129.6 286.56 
L 129.6 298.64 
L 92.4 298.64 
L 92.4 286.56 
" style="fill:#faebdd;"/>
    <path clip-path="url(#p6ca12403f5)" d="M 18 298.64 
L 55.2 298.64 
L 55.2 310.72 
L 18 310.72 
L 18 298.64 
" style="fill:#03051a;"/>
    <path clip-path="url(#p6ca12403f5)" d="M 55.2 298.64 
L 92.4 298.64 
L 92.4 310.72 
L 55.2 310.72 
L 55.2 298.64 
" style="fill:#faebdd;"/>
    <path clip-path="url(#p6ca12403f5)" d="M 92.4 298.64 
L 129.6 298.64 
L 129.6 310.72 
L 92.4 310.72 
L 92.4 298.64 
" style="fill:#03051a;"/>
    <path clip-path="url(#p6ca12403f5)" d="M 18 310.72 
L 55.2 310.72 
L 55.2 322.8 
L 18 322.8 
L 18 310.72 
" style="fill:#faebdd;"/>
    <path clip-path="url(#p6ca12403f5)" d="M 55.2 310.72 
L 92.4 310.72 
L 92.4 322.8 
L 55.2 322.8 
L 55.2 310.72 
" style="fill:#03051a;"/>
    <path clip-path="url(#p6ca12403f5)" d="M 92.4 310.72 
L 129.6 310.72 
L 129.6 322.8 
L 92.4 322.8 
L 92.4 310.72 
" style="fill:#faebdd;"/>
    <path clip-path="url(#p6ca12403f5)" d="M 18 322.8 
L 55.2 322.8 
L 55.2 334.88 
L 18 334.88 
L 18 322.8 
" style="fill:#03051a;"/>
    <path clip-path="url(#p6ca12403f5)" d="M 55.2 322.8 
L 92.4 322.8 
L 92.4 334.88 
L 55.2 334.88 
L 55.2 322.8 
" style="fill:#faebdd;"/>
    <path clip-path="url(#p6ca12403f5)" d="M 92.4 322.8 
L 129.6 322.8 
L 129.6 334.88 
L 92.4 334.88 
L 92.4 322.8 
" style="fill:#03051a;"/>
    <path clip-path="url(#p6ca12403f5)" d="M 18 334.88 
L 55.2 334.88 
L 55.2 346.96 
L 18 346.96 
L 18 334.88 
" style="fill:#03051a;"/>
    <path clip-path="url(#p6ca12403f5)" d="M 55.2 334.88 
L 92.4 334.88 
L 92.4 346.96 
L 55.2 346.96 
L 55.2 334.88 
" style="fill:#03051a;"/>
    <path clip-path="url(#p6ca12403f5)" d="M 92.4 334.88 
L 129.6 334.88 
L 129.6 346.96 
L 92.4 346.96 
L 92.4 334.88 
" style="fill:#faebdd;"/>
    <path clip-path="url(#p6ca12403f5)" d="M 18 346.96 
L 55.2 346.96 
L 55.2 359.04 
L 18 359.04 
L 18 346.96 
" style="fill:#03051a;"/>
    <path clip-path="url(#p6ca12403f5)" d="M 55.2 346.96 
L 92.4 346.96 
L 92.4 359.04 
L 55.2 359.04 
L 55.2 346.96 
" style="fill:#03051a;"/>
    <path clip-path="url(#p6ca12403f5)" d="M 92.4 346.96 
L 129.6 346.96 
L 129.6 359.04 
L 92.4 359.04 
L 92.4 346.96 
" style="fill:#faebdd;"/>
    <path clip-path="url(#p6ca12403f5)" d="M 18 359.04 
L 55.2 359.04 
L 55.2 371.12 
L 18 371.12 
L 18 359.04 
" style="fill:#03051a;"/>
    <path clip-path="url(#p6ca12403f5)" d="M 55.2 359.04 
L 92.4 359.04 
L 92.4 371.12 
L 55.2 371.12 
L 55.2 359.04 
" style="fill:#03051a;"/>
    <path clip-path="url(#p6ca12403f5)" d="M 92.4 359.04 
L 129.6 359.04 
L 129.6 371.12 
L 92.4 371.12 
L 92.4 359.04 
" style="fill:#faebdd;"/>
    <path clip-path="url(#p6ca12403f5)" d="M 18 371.12 
L 55.2 371.12 
L 55.2 383.2 
L 18 383.2 
L 18 371.12 
" style="fill:#03051a;"/>
    <path clip-path="url(#p6ca12403f5)" d="M 55.2 371.12 
L 92.4 371.12 
L 92.4 383.2 
L 55.2 383.2 
L 55.2 371.12 
" style="fill:#faebdd;"/>
    <path clip-path="url(#p6ca12403f5)" d="M 92.4 371.12 
L 129.6 371.12 
L 129.6 383.2 
L 92.4 383.2 
L 92.4 371.12 
" style="fill:#faebdd;"/>
    <path clip-path="url(#p6ca12403f5)" d="M 18 383.2 
L 55.2 383.2 
L 55.2 395.28 
L 18 395.28 
L 18 383.2 
" style="fill:#faebdd;"/>
    <path clip-path="url(#p6ca12403f5)" d="M 55.2 383.2 
L 92.4 383.2 
L 92.4 395.28 
L 55.2 395.28 
L 55.2 383.2 
" style="fill:#03051a;"/>
    <path clip-path="url(#p6ca12403f5)" d="M 92.4 383.2 
L 129.6 383.2 
L 129.6 395.28 
L 92.4 395.28 
L 92.4 383.2 
" style="fill:#03051a;"/>
    <path clip-path="url(#p6ca12403f5)" d="M 18 395.28 
L 55.2 395.28 
L 55.2 407.36 
L 18 407.36 
L 18 395.28 
" style="fill:#03051a;"/>
    <path clip-path="url(#p6ca12403f5)" d="M 55.2 395.28 
L 92.4 395.28 
L 92.4 407.36 
L 55.2 407.36 
L 55.2 395.28 
" style="fill:#faebdd;"/>
    <path clip-path="url(#p6ca12403f5)" d="M 92.4 395.28 
L 129.6 395.28 
L 129.6 407.36 
L 92.4 407.36 
L 92.4 395.28 
" style="fill:#03051a;"/>
    <path clip-path="url(#p6ca12403f5)" d="M 18 407.36 
L 55.2 407.36 
L 55.2 419.44 
L 18 419.44 
L 18 407.36 
" style="fill:#03051a;"/>
    <path clip-path="url(#p6ca12403f5)" d="M 55.2 407.36 
L 92.4 407.36 
L 92.4 419.44 
L 55.2 419.44 
L 55.2 407.36 
" style="fill:#03051a;"/>
    <path clip-path="url(#p6ca12403f5)" d="M 92.4 407.36 
L 129.6 407.36 
L 129.6 419.44 
L 92.4 419.44 
L 92.4 407.36 
" style="fill:#faebdd;"/>
    <path clip-path="url(#p6ca12403f5)" d="M 18 419.44 
L 55.2 419.44 
L 55.2 431.52 
L 18 431.52 
L 18 419.44 
" style="fill:#03051a;"/>
    <path clip-path="url(#p6ca12403f5)" d="M 55.2 419.44 
L 92.4 419.44 
L 92.4 431.52 
L 55.2 431.52 
L 55.2 419.44 
" style="fill:#faebdd;"/>
    <path clip-path="url(#p6ca12403f5)" d="M 92.4 419.44 
L 129.6 419.44 
L 129.6 431.52 
L 92.4 431.52 
L 92.4 419.44 
" style="fill:#03051a;"/>
    <path clip-path="url(#p6ca12403f5)" d="M 18 431.52 
L 55.2 431.52 
L 55.2 443.6 
L 18 443.6 
L 18 431.52 
" style="fill:#03051a;"/>
    <path clip-path="url(#p6ca12403f5)" d="M 55.2 431.52 
L 92.4 431.52 
L 92.4 443.6 
L 55.2 443.6 
L 55.2 431.52 
" style="fill:#faebdd;"/>
    <path clip-path="url(#p6ca12403f5)" d="M 92.4 431.52 
L 129.6 431.52 
L 129.6 443.6 
L 92.4 443.6 
L 92.4 431.52 
" style="fill:#03051a;"/>
    <path clip-path="url(#p6ca12403f5)" d="M 18 443.6 
L 55.2 443.6 
L 55.2 455.68 
L 18 455.68 
L 18 443.6 
" style="fill:#03051a;"/>
    <path clip-path="url(#p6ca12403f5)" d="M 55.2 443.6 
L 92.4 443.6 
L 92.4 455.68 
L 55.2 455.68 
L 55.2 443.6 
" style="fill:#faebdd;"/>
    <path clip-path="url(#p6ca12403f5)" d="M 92.4 443.6 
L 129.6 443.6 
L 129.6 455.68 
L 92.4 455.68 
L 92.4 443.6 
" style="fill:#faebdd;"/>
    <path clip-path="url(#p6ca12403f5)" d="M 18 455.68 
L 55.2 455.68 
L 55.2 467.76 
L 18 467.76 
L 18 455.68 
" style="fill:#03051a;"/>
    <path clip-path="url(#p6ca12403f5)" d="M 55.2 455.68 
L 92.4 455.68 
L 92.4 467.76 
L 55.2 467.76 
L 55.2 455.68 
" style="fill:#03051a;"/>
    <path clip-path="url(#p6ca12403f5)" d="M 92.4 455.68 
L 129.6 455.68 
L 129.6 467.76 
L 92.4 467.76 
L 92.4 455.68 
" style="fill:#faebdd;"/>
    <path clip-path="url(#p6ca12403f5)" d="M 18 467.76 
L 55.2 467.76 
L 55.2 479.84 
L 18 479.84 
L 18 467.76 
" style="fill:#03051a;"/>
    <path clip-path="url(#p6ca12403f5)" d="M 55.2 467.76 
L 92.4 467.76 
L 92.4 479.84 
L 55.2 479.84 
L 55.2 467.76 
" style="fill:#03051a;"/>
    <path clip-path="url(#p6ca12403f5)" d="M 92.4 467.76 
L 129.6 467.76 
L 129.6 479.84 
L 92.4 479.84 
L 92.4 467.76 
" style="fill:#faebdd;"/>
    <path clip-path="url(#p6ca12403f5)" d="M 18 479.84 
L 55.2 479.84 
L 55.2 491.92 
L 18 491.92 
L 18 479.84 
" style="fill:#03051a;"/>
    <path clip-path="url(#p6ca12403f5)" d="M 55.2 479.84 
L 92.4 479.84 
L 92.4 491.92 
L 55.2 491.92 
L 55.2 479.84 
" style="fill:#faebdd;"/>
    <path clip-path="url(#p6ca12403f5)" d="M 92.4 479.84 
L 129.6 479.84 
L 129.6 491.92 
L 92.4 491.92 
L 92.4 479.84 
" style="fill:#03051a;"/>
    <path clip-path="url(#p6ca12403f5)" d="M 18 491.92 
L 55.2 491.92 
L 55.2 504 
L 18 504 
L 18 491.92 
" style="fill:#03051a;"/>
    <path clip-path="url(#p6ca12403f5)" d="M 55.2 491.92 
L 92.4 491.92 
L 92.4 504 
L 55.2 504 
L 55.2 491.92 
" style="fill:#03051a;"/>
    <path clip-path="url(#p6ca12403f5)" d="M 92.4 491.92 
L 129.6 491.92 
L 129.6 504 
L 92.4 504 
L 92.4 491.92 
" style="fill:#faebdd;"/>
   </g>
   <g id="matplotlib.axis_1">
    <g id="xtick_1">
     <g id="line2d_1">
      <defs>
       <path d="M 0 0 
L 0 3.5 
" id="m48492b5cca" style="stroke:#000000;stroke-width:0.8;"/>
      </defs>
      <g>
       <use style="stroke:#000000;stroke-width:0.8;" x="36.6" xlink:href="#m48492b5cca" y="504"/>
      </g>
     </g>
     <g id="text_1">
      <text style="font-family:DejaVu Sans;font-size:10px;font-style:normal;font-weight:normal;" transform="translate(39.359375 549.439062)rotate(-90)">Acetate</text>
     </g>
    </g>
    <g id="xtick_2">
     <g id="line2d_2">
      <g>
       <use style="stroke:#000000;stroke-width:0.8;" x="73.8" xlink:href="#m48492b5cca" y="504"/>
      </g>
     </g>
     <g id="text_2">
      <text style="font-family:DejaVu Sans;font-size:10px;font-style:normal;font-weight:normal;" transform="translate(76.559375 554.35)rotate(-90)">Butyrate</text>
     </g>
    </g>
    <g id="xtick_3">
     <g id="line2d_3">
      <g>
       <use style="stroke:#000000;stroke-width:0.8;" x="111" xlink:href="#m48492b5cca" y="504"/>
      </g>
     </g>
     <g id="text_3">
      <text style="font-family:DejaVu Sans;font-size:10px;font-style:normal;font-weight:normal;" transform="translate(113.759375 564.64375)rotate(-90)">Propionate</text>
     </g>
    </g>
    <g id="text_4">
     <text style="font-family:DejaVu Sans;font-size:10px;font-style:normal;font-weight:normal;text-anchor:middle;" transform="rotate(-0, 73.8, 576.242188)" x="73.8" y="576.242188">SCFA</text>
    </g>
   </g>
   <g id="matplotlib.axis_2">
    <g id="ytick_1">
     <g id="line2d_4">
      <defs>
       <path d="M 0 0 
L -3.5 0 
" id="m9083be2f86" style="stroke:#000000;stroke-width:0.8;"/>
      </defs>
      <g>
       <use style="stroke:#000000;stroke-width:0.8;" x="18" xlink:href="#m9083be2f86" y="75.16"/>
      </g>
     </g>
     <g id="text_5">
      <text style="font-family:DejaVu Sans;font-size:10px;font-style:normal;font-weight:normal;text-anchor:end;" transform="rotate(-0, 11, 78.959219)" x="11" y="78.959219">0b438323a296b5f2ce2c8bbe3949ee8d</text>
     </g>
    </g>
    <g id="ytick_2">
     <g id="line2d_5">
      <g>
       <use style="stroke:#000000;stroke-width:0.8;" x="18" xlink:href="#m9083be2f86" y="87.24"/>
      </g>
     </g>
     <g id="text_6">
      <text style="font-family:DejaVu Sans;font-size:10px;font-style:normal;font-weight:normal;text-anchor:end;" transform="rotate(-0, 11, 91.039219)" x="11" y="91.039219">19d1ac8febd7ed7dcecb8d12eb4954c1</text>
     </g>
    </g>
    <g id="ytick_3">
     <g id="line2d_6">
      <g>
       <use style="stroke:#000000;stroke-width:0.8;" x="18" xlink:href="#m9083be2f86" y="99.32"/>
      </g>
     </g>
     <g id="text_7">
      <text style="font-family:DejaVu Sans;font-size:10px;font-style:normal;font-weight:normal;text-anchor:end;" transform="rotate(-0, 11, 103.119219)" x="11" y="103.119219">23e70e83a18492295f0ab774f36bd428</text>
     </g>
    </g>
    <g id="ytick_4">
     <g id="line2d_7">
      <g>
       <use style="stroke:#000000;stroke-width:0.8;" x="18" xlink:href="#m9083be2f86" y="111.4"/>
      </g>
     </g>
     <g id="text_8">
      <text style="font-family:DejaVu Sans;font-size:10px;font-style:normal;font-weight:normal;text-anchor:end;" transform="rotate(-0, 11, 115.199219)" x="11" y="115.199219">275a909b71518ce743cea6406287671e</text>
     </g>
    </g>
    <g id="ytick_5">
     <g id="line2d_8">
      <g>
       <use style="stroke:#000000;stroke-width:0.8;" x="18" xlink:href="#m9083be2f86" y="123.48"/>
      </g>
     </g>
     <g id="text_9">
      <text style="font-family:DejaVu Sans;font-size:10px;font-style:normal;font-weight:normal;text-anchor:end;" transform="rotate(-0, 11, 127.279219)" x="11" y="127.279219">2fa437bdcaad5b499ea48648d66765ae</text>
     </g>
    </g>
    <g id="ytick_6">
     <g id="line2d_9">
      <g>
       <use style="stroke:#000000;stroke-width:0.8;" x="18" xlink:href="#m9083be2f86" y="135.56"/>
      </g>
     </g>
     <g id="text_10">
      <text style="font-family:DejaVu Sans;font-size:10px;font-style:normal;font-weight:normal;text-anchor:end;" transform="rotate(-0, 11, 139.359219)" x="11" y="139.359219">352e01b25b13ceaef79c9b32cf7962eb</text>
     </g>
    </g>
    <g id="ytick_7">
     <g id="line2d_10">
      <g>
       <use style="stroke:#000000;stroke-width:0.8;" x="18" xlink:href="#m9083be2f86" y="147.64"/>
      </g>
     </g>
     <g id="text_11">
      <text style="font-family:DejaVu Sans;font-size:10px;font-style:normal;font-weight:normal;text-anchor:end;" transform="rotate(-0, 11, 151.439219)" x="11" y="151.439219">35349e11a88fa9340b766e859e9b7122</text>
     </g>
    </g>
    <g id="ytick_8">
     <g id="line2d_11">
      <g>
       <use style="stroke:#000000;stroke-width:0.8;" x="18" xlink:href="#m9083be2f86" y="159.72"/>
      </g>
     </g>
     <g id="text_12">
      <text style="font-family:DejaVu Sans;font-size:10px;font-style:normal;font-weight:normal;text-anchor:end;" transform="rotate(-0, 11, 163.519219)" x="11" y="163.519219">44bd1efc8d03b8e1153d643564b15e9c</text>
     </g>
    </g>
    <g id="ytick_9">
     <g id="line2d_12">
      <g>
       <use style="stroke:#000000;stroke-width:0.8;" x="18" xlink:href="#m9083be2f86" y="171.8"/>
      </g>
     </g>
     <g id="text_13">
      <text style="font-family:DejaVu Sans;font-size:10px;font-style:normal;font-weight:normal;text-anchor:end;" transform="rotate(-0, 11, 175.599219)" x="11" y="175.599219">46dc0fc28dac8a057736ae7f3217673c</text>
     </g>
    </g>
    <g id="ytick_10">
     <g id="line2d_13">
      <g>
       <use style="stroke:#000000;stroke-width:0.8;" x="18" xlink:href="#m9083be2f86" y="183.88"/>
      </g>
     </g>
     <g id="text_14">
      <text style="font-family:DejaVu Sans;font-size:10px;font-style:normal;font-weight:normal;text-anchor:end;" transform="rotate(-0, 11, 187.679219)" x="11" y="187.679219">49da2429319bb8bab3d9139319699d74</text>
     </g>
    </g>
    <g id="ytick_11">
     <g id="line2d_14">
      <g>
       <use style="stroke:#000000;stroke-width:0.8;" x="18" xlink:href="#m9083be2f86" y="195.96"/>
      </g>
     </g>
     <g id="text_15">
      <text style="font-family:DejaVu Sans;font-size:10px;font-style:normal;font-weight:normal;text-anchor:end;" transform="rotate(-0, 11, 199.759219)" x="11" y="199.759219">55527e4d39129c6632b3705e8545e325</text>
     </g>
    </g>
    <g id="ytick_12">
     <g id="line2d_15">
      <g>
       <use style="stroke:#000000;stroke-width:0.8;" x="18" xlink:href="#m9083be2f86" y="208.04"/>
      </g>
     </g>
     <g id="text_16">
      <text style="font-family:DejaVu Sans;font-size:10px;font-style:normal;font-weight:normal;text-anchor:end;" transform="rotate(-0, 11, 211.839219)" x="11" y="211.839219">67adfb49b9ae95af2982870204819dcc</text>
     </g>
    </g>
    <g id="ytick_13">
     <g id="line2d_16">
      <g>
       <use style="stroke:#000000;stroke-width:0.8;" x="18" xlink:href="#m9083be2f86" y="220.12"/>
      </g>
     </g>
     <g id="text_17">
      <text style="font-family:DejaVu Sans;font-size:10px;font-style:normal;font-weight:normal;text-anchor:end;" transform="rotate(-0, 11, 223.919219)" x="11" y="223.919219">6901f8847a74835e839ce9e65d0af47c</text>
     </g>
    </g>
    <g id="ytick_14">
     <g id="line2d_17">
      <g>
       <use style="stroke:#000000;stroke-width:0.8;" x="18" xlink:href="#m9083be2f86" y="232.2"/>
      </g>
     </g>
     <g id="text_18">
      <text style="font-family:DejaVu Sans;font-size:10px;font-style:normal;font-weight:normal;text-anchor:end;" transform="rotate(-0, 11, 235.999219)" x="11" y="235.999219">6e5150d6c22a90cbe1e0c1c544f5c404</text>
     </g>
    </g>
    <g id="ytick_15">
     <g id="line2d_18">
      <g>
       <use style="stroke:#000000;stroke-width:0.8;" x="18" xlink:href="#m9083be2f86" y="244.28"/>
      </g>
     </g>
     <g id="text_19">
      <text style="font-family:DejaVu Sans;font-size:10px;font-style:normal;font-weight:normal;text-anchor:end;" transform="rotate(-0, 11, 248.079219)" x="11" y="248.079219">6f85ccaeaa7ade270a5ca38d99f5f83a</text>
     </g>
    </g>
    <g id="ytick_16">
     <g id="line2d_19">
      <g>
       <use style="stroke:#000000;stroke-width:0.8;" x="18" xlink:href="#m9083be2f86" y="256.36"/>
      </g>
     </g>
     <g id="text_20">
      <text style="font-family:DejaVu Sans;font-size:10px;font-style:normal;font-weight:normal;text-anchor:end;" transform="rotate(-0, 11, 260.159219)" x="11" y="260.159219">72fc83376ab79b7f6bc3bc9902f8da11</text>
     </g>
    </g>
    <g id="ytick_17">
     <g id="line2d_20">
      <g>
       <use style="stroke:#000000;stroke-width:0.8;" x="18" xlink:href="#m9083be2f86" y="268.44"/>
      </g>
     </g>
     <g id="text_21">
      <text style="font-family:DejaVu Sans;font-size:10px;font-style:normal;font-weight:normal;text-anchor:end;" transform="rotate(-0, 11, 272.239219)" x="11" y="272.239219">7ac46f60ac14066777f6fd74478c0587</text>
     </g>
    </g>
    <g id="ytick_18">
     <g id="line2d_21">
      <g>
       <use style="stroke:#000000;stroke-width:0.8;" x="18" xlink:href="#m9083be2f86" y="280.52"/>
      </g>
     </g>
     <g id="text_22">
      <text style="font-family:DejaVu Sans;font-size:10px;font-style:normal;font-weight:normal;text-anchor:end;" transform="rotate(-0, 11, 284.319219)" x="11" y="284.319219">8bee12c45f4dc4dfc7ade55870939c3d</text>
     </g>
    </g>
    <g id="ytick_19">
     <g id="line2d_22">
      <g>
       <use style="stroke:#000000;stroke-width:0.8;" x="18" xlink:href="#m9083be2f86" y="292.6"/>
      </g>
     </g>
     <g id="text_23">
      <text style="font-family:DejaVu Sans;font-size:10px;font-style:normal;font-weight:normal;text-anchor:end;" transform="rotate(-0, 11, 296.399219)" x="11" y="296.399219">942c85a5ce30e27155622d82ef326bc2</text>
     </g>
    </g>
    <g id="ytick_20">
     <g id="line2d_23">
      <g>
       <use style="stroke:#000000;stroke-width:0.8;" x="18" xlink:href="#m9083be2f86" y="304.68"/>
      </g>
     </g>
     <g id="text_24">
      <text style="font-family:DejaVu Sans;font-size:10px;font-style:normal;font-weight:normal;text-anchor:end;" transform="rotate(-0, 11, 308.479219)" x="11" y="308.479219">963d001b7ac6eccab606ba35635358ef</text>
     </g>
    </g>
    <g id="ytick_21">
     <g id="line2d_24">
      <g>
       <use style="stroke:#000000;stroke-width:0.8;" x="18" xlink:href="#m9083be2f86" y="316.76"/>
      </g>
     </g>
     <g id="text_25">
      <text style="font-family:DejaVu Sans;font-size:10px;font-style:normal;font-weight:normal;text-anchor:end;" transform="rotate(-0, 11, 320.559219)" x="11" y="320.559219">9e499b818284bc88da1591330270d59d</text>
     </g>
    </g>
    <g id="ytick_22">
     <g id="line2d_25">
      <g>
       <use style="stroke:#000000;stroke-width:0.8;" x="18" xlink:href="#m9083be2f86" y="328.84"/>
      </g>
     </g>
     <g id="text_26">
      <text style="font-family:DejaVu Sans;font-size:10px;font-style:normal;font-weight:normal;text-anchor:end;" transform="rotate(-0, 11, 332.639219)" x="11" y="332.639219">9fb94b5a09e242af02db7ca655b6a2f1</text>
     </g>
    </g>
    <g id="ytick_23">
     <g id="line2d_26">
      <g>
       <use style="stroke:#000000;stroke-width:0.8;" x="18" xlink:href="#m9083be2f86" y="340.92"/>
      </g>
     </g>
     <g id="text_27">
      <text style="font-family:DejaVu Sans;font-size:10px;font-style:normal;font-weight:normal;text-anchor:end;" transform="rotate(-0, 11, 344.719219)" x="11" y="344.719219">b818f01a7ab4a4e9e2151c2855b40a74</text>
     </g>
    </g>
    <g id="ytick_24">
     <g id="line2d_27">
      <g>
       <use style="stroke:#000000;stroke-width:0.8;" x="18" xlink:href="#m9083be2f86" y="353"/>
      </g>
     </g>
     <g id="text_28">
      <text style="font-family:DejaVu Sans;font-size:10px;font-style:normal;font-weight:normal;text-anchor:end;" transform="rotate(-0, 11, 356.799219)" x="11" y="356.799219">c052a9548dafdb7e60155e80657eceeb</text>
     </g>
    </g>
    <g id="ytick_25">
     <g id="line2d_28">
      <g>
       <use style="stroke:#000000;stroke-width:0.8;" x="18" xlink:href="#m9083be2f86" y="365.08"/>
      </g>
     </g>
     <g id="text_29">
      <text style="font-family:DejaVu Sans;font-size:10px;font-style:normal;font-weight:normal;text-anchor:end;" transform="rotate(-0, 11, 368.879219)" x="11" y="368.879219">c4fb58da9aff3c83c971c488ebd3cb70</text>
     </g>
    </g>
    <g id="ytick_26">
     <g id="line2d_29">
      <g>
       <use style="stroke:#000000;stroke-width:0.8;" x="18" xlink:href="#m9083be2f86" y="377.16"/>
      </g>
     </g>
     <g id="text_30">
      <text style="font-family:DejaVu Sans;font-size:10px;font-style:normal;font-weight:normal;text-anchor:end;" transform="rotate(-0, 11, 380.959219)" x="11" y="380.959219">c592989d01c3e21c40beace16527b6d6</text>
     </g>
    </g>
    <g id="ytick_27">
     <g id="line2d_30">
      <g>
       <use style="stroke:#000000;stroke-width:0.8;" x="18" xlink:href="#m9083be2f86" y="389.24"/>
      </g>
     </g>
     <g id="text_31">
      <text style="font-family:DejaVu Sans;font-size:10px;font-style:normal;font-weight:normal;text-anchor:end;" transform="rotate(-0, 11, 393.039219)" x="11" y="393.039219">cd33d521d1dfcb297336e993ca998d2d</text>
     </g>
    </g>
    <g id="ytick_28">
     <g id="line2d_31">
      <g>
       <use style="stroke:#000000;stroke-width:0.8;" x="18" xlink:href="#m9083be2f86" y="401.32"/>
      </g>
     </g>
     <g id="text_32">
      <text style="font-family:DejaVu Sans;font-size:10px;font-style:normal;font-weight:normal;text-anchor:end;" transform="rotate(-0, 11, 405.119219)" x="11" y="405.119219">d08356dd9f482bb52a98464042add8e1</text>
     </g>
    </g>
    <g id="ytick_29">
     <g id="line2d_32">
      <g>
       <use style="stroke:#000000;stroke-width:0.8;" x="18" xlink:href="#m9083be2f86" y="413.4"/>
      </g>
     </g>
     <g id="text_33">
      <text style="font-family:DejaVu Sans;font-size:10px;font-style:normal;font-weight:normal;text-anchor:end;" transform="rotate(-0, 11, 417.199219)" x="11" y="417.199219">d272bf25781448dde9031a24679a9012</text>
     </g>
    </g>
    <g id="ytick_30">
     <g id="line2d_33">
      <g>
       <use style="stroke:#000000;stroke-width:0.8;" x="18" xlink:href="#m9083be2f86" y="425.48"/>
      </g>
     </g>
     <g id="text_34">
      <text style="font-family:DejaVu Sans;font-size:10px;font-style:normal;font-weight:normal;text-anchor:end;" transform="rotate(-0, 11, 429.279219)" x="11" y="429.279219">d69ec305e55c09fb5227943d19503f8b</text>
     </g>
    </g>
    <g id="ytick_31">
     <g id="line2d_34">
      <g>
       <use style="stroke:#000000;stroke-width:0.8;" x="18" xlink:href="#m9083be2f86" y="437.56"/>
      </g>
     </g>
     <g id="text_35">
      <text style="font-family:DejaVu Sans;font-size:10px;font-style:normal;font-weight:normal;text-anchor:end;" transform="rotate(-0, 11, 441.359219)" x="11" y="441.359219">d6a391543ae952d8dcdcb466ac8655c2</text>
     </g>
    </g>
    <g id="ytick_32">
     <g id="line2d_35">
      <g>
       <use style="stroke:#000000;stroke-width:0.8;" x="18" xlink:href="#m9083be2f86" y="449.64"/>
      </g>
     </g>
     <g id="text_36">
      <text style="font-family:DejaVu Sans;font-size:10px;font-style:normal;font-weight:normal;text-anchor:end;" transform="rotate(-0, 11, 453.439219)" x="11" y="453.439219">d76842020113eb2a8bcbf3cd7a7e67a5</text>
     </g>
    </g>
    <g id="ytick_33">
     <g id="line2d_36">
      <g>
       <use style="stroke:#000000;stroke-width:0.8;" x="18" xlink:href="#m9083be2f86" y="461.72"/>
      </g>
     </g>
     <g id="text_37">
      <text style="font-family:DejaVu Sans;font-size:10px;font-style:normal;font-weight:normal;text-anchor:end;" transform="rotate(-0, 11, 465.519219)" x="11" y="465.519219">dd93ac1ba99bf44ec72534a1e9026c33</text>
     </g>
    </g>
    <g id="ytick_34">
     <g id="line2d_37">
      <g>
       <use style="stroke:#000000;stroke-width:0.8;" x="18" xlink:href="#m9083be2f86" y="473.8"/>
      </g>
     </g>
     <g id="text_38">
      <text style="font-family:DejaVu Sans;font-size:10px;font-style:normal;font-weight:normal;text-anchor:end;" transform="rotate(-0, 11, 477.599219)" x="11" y="477.599219">dfa833b266bd2993b86feab3617b34c3</text>
     </g>
    </g>
    <g id="ytick_35">
     <g id="line2d_38">
      <g>
       <use style="stroke:#000000;stroke-width:0.8;" x="18" xlink:href="#m9083be2f86" y="485.88"/>
      </g>
     </g>
     <g id="text_39">
      <text style="font-family:DejaVu Sans;font-size:10px;font-style:normal;font-weight:normal;text-anchor:end;" transform="rotate(-0, 11, 489.679219)" x="11" y="489.679219">ee6bba582c9e3cce513cf5da5ea859ac</text>
     </g>
    </g>
    <g id="ytick_36">
     <g id="line2d_39">
      <g>
       <use style="stroke:#000000;stroke-width:0.8;" x="18" xlink:href="#m9083be2f86" y="497.96"/>
      </g>
     </g>
     <g id="text_40">
      <text style="font-family:DejaVu Sans;font-size:10px;font-style:normal;font-weight:normal;text-anchor:end;" transform="rotate(-0, 11, 501.759219)" x="11" y="501.759219">fae02ba2476d90204449619c0f5b27d8</text>
     </g>
    </g>
    <g id="text_41">
     <text style="font-family:DejaVu Sans;font-size:10px;font-style:normal;font-weight:normal;text-anchor:middle;" transform="rotate(-90, -198.1125, 286.56)" x="-198.1125" y="286.56">ASV</text>
    </g>
   </g>
  </g>
 </g>
 <defs>
  <clipPath id="p6ca12403f5">
   <rect height="434.88" width="111.6" x="18" y="69.12"/>
  </clipPath>
 </defs>
</svg>
