<?xml version="1.0" encoding="utf-8" standalone="no"?>
<!DOCTYPE svg PUBLIC "-//W3C//DTD SVG 1.1//EN"
  "http://www.w3.org/Graphics/SVG/1.1/DTD/svg11.dtd">
<!-- Created with matplotlib (https://matplotlib.org/) -->
<svg height="216pt" version="1.1" viewBox="0 0 216 216" width="216pt" xmlns="http://www.w3.org/2000/svg" xmlns:xlink="http://www.w3.org/1999/xlink">
 <metadata>
  <rdf:RDF xmlns:cc="http://creativecommons.org/ns#" xmlns:dc="http://purl.org/dc/elements/1.1/" xmlns:rdf="http://www.w3.org/1999/02/22-rdf-syntax-ns#">
   <cc:Work>
    <dc:type rdf:resource="http://purl.org/dc/dcmitype/StillImage"/>
    <dc:date>2021-01-18T10:28:19.639682</dc:date>
    <dc:format>image/svg+xml</dc:format>
    <dc:creator>
     <cc:Agent>
      <dc:title>Matplotlib v3.3.3, https://matplotlib.org/</dc:title>
     </cc:Agent>
    </dc:creator>
   </cc:Work>
  </rdf:RDF>
 </metadata>
 <defs>
  <style type="text/css">*{stroke-linecap:butt;stroke-linejoin:round;}</style>
 </defs>
 <g id="figure_1">
  <g id="patch_1">
   <path d="M 0 216 
L 216 216 
L 216 0 
L 0 0 
z
" style="fill:none;"/>
  </g>
  <g id="axes_1">
   <g id="patch_2">
    <path d="M 62.425 174.2 
L 205.2 174.2 
L 205.2 26.8 
L 62.425 26.8 
z
" style="fill:#ffffff;"/>
   </g>
   <g id="PathCollection_1">
    <path clip-path="url(#p8024e31a56)" d="M 75.137515 156.809327 
C 76.463531 156.809327 77.735415 156.282496 78.673049 155.344861 
C 79.610684 154.407227 80.137515 153.135343 80.137515 151.809327 
C 80.137515 150.483312 79.610684 149.211428 78.673049 148.273793 
C 77.735415 147.336159 76.463531 146.809327 75.137515 146.809327 
C 73.8115 146.809327 72.539616 147.336159 71.601981 148.273793 
C 70.664347 149.211428 70.137515 150.483312 70.137515 151.809327 
C 70.137515 153.135343 70.664347 154.407227 71.601981 155.344861 
C 72.539616 156.282496 73.8115 156.809327 75.137515 156.809327 
z
" style="fill:#1f77b4;stroke:#ffffff;stroke-width:0.8;"/>
    <path clip-path="url(#p8024e31a56)" d="M 75.222063 156.794972 
C 76.548078 156.794972 77.819962 156.268141 78.757596 155.330506 
C 79.695231 154.392872 80.222063 153.120988 80.222063 151.794972 
C 80.222063 150.468957 79.695231 149.197073 78.757596 148.259439 
C 77.819962 147.321804 76.548078 146.794972 75.222063 146.794972 
C 73.896047 146.794972 72.624163 147.321804 71.686529 148.259439 
C 70.748894 149.197073 70.222063 150.468957 70.222063 151.794972 
C 70.222063 153.120988 70.748894 154.392872 71.686529 155.330506 
C 72.624163 156.268141 73.896047 156.794972 75.222063 156.794972 
z
" style="fill:#1f77b4;stroke:#ffffff;stroke-width:0.8;"/>
    <path clip-path="url(#p8024e31a56)" d="M 75.331726 156.499833 
C 76.657741 156.499833 77.929625 155.973002 78.86726 155.035367 
C 79.804894 154.097733 80.331726 152.825849 80.331726 151.499833 
C 80.331726 150.173818 79.804894 148.901934 78.86726 147.964299 
C 77.929625 147.026665 76.657741 146.499833 75.331726 146.499833 
C 74.00571 146.499833 72.733826 147.026665 71.796192 147.964299 
C 70.858557 148.901934 70.331726 150.173818 70.331726 151.499833 
C 70.331726 152.825849 70.858557 154.097733 71.796192 155.035367 
C 72.733826 155.973002 74.00571 156.499833 75.331726 156.499833 
z
" style="fill:#1f77b4;stroke:#ffffff;stroke-width:0.8;"/>
    <path clip-path="url(#p8024e31a56)" d="M 75.170547 156.332789 
C 76.496562 156.332789 77.768446 155.805957 78.706081 154.868322 
C 79.643715 153.930688 80.170547 152.658804 80.170547 151.332789 
C 80.170547 150.006773 79.643715 148.734889 78.706081 147.797255 
C 77.768446 146.85962 76.496562 146.332789 75.170547 146.332789 
C 73.844531 146.332789 72.572647 146.85962 71.635013 147.797255 
C 70.697378 148.734889 70.170547 150.006773 70.170547 151.332789 
C 70.170547 152.658804 70.697378 153.930688 71.635013 154.868322 
C 72.572647 155.805957 73.844531 156.332789 75.170547 156.332789 
z
" style="fill:#1f77b4;stroke:#ffffff;stroke-width:0.8;"/>
    <path clip-path="url(#p8024e31a56)" d="M 75.13876 156.706163 
C 76.464776 156.706163 77.73666 156.179332 78.674294 155.241697 
C 79.611929 154.304063 80.13876 153.032179 80.13876 151.706163 
C 80.13876 150.380148 79.611929 149.108264 78.674294 148.170629 
C 77.73666 147.232995 76.464776 146.706163 75.13876 146.706163 
C 73.812745 146.706163 72.540861 147.232995 71.603226 148.170629 
C 70.665592 149.108264 70.13876 150.380148 70.13876 151.706163 
C 70.13876 153.032179 70.665592 154.304063 71.603226 155.241697 
C 72.540861 156.179332 73.812745 156.706163 75.13876 156.706163 
z
" style="fill:#1f77b4;stroke:#ffffff;stroke-width:0.8;"/>
    <path clip-path="url(#p8024e31a56)" d="M 77.336728 152.349187 
L 79.836728 149.849187 
L 82.336728 152.349187 
L 84.836728 149.849187 
L 82.336728 147.349187 
L 84.836728 144.849187 
L 82.336728 142.349187 
L 79.836728 144.849187 
L 77.336728 142.349187 
L 74.836728 144.849187 
L 77.336728 147.349187 
L 74.836728 149.849187 
z
" style="fill:#1f77b4;stroke:#ffffff;stroke-width:0.8;"/>
    <path clip-path="url(#p8024e31a56)" d="M 73.934558 153.223231 
L 76.434558 150.723231 
L 78.934558 153.223231 
L 81.434558 150.723231 
L 78.934558 148.223231 
L 81.434558 145.723231 
L 78.934558 143.223231 
L 76.434558 145.723231 
L 73.934558 143.223231 
L 71.434558 145.723231 
L 73.934558 148.223231 
L 71.434558 150.723231 
z
" style="fill:#1f77b4;stroke:#ffffff;stroke-width:0.8;"/>
    <path clip-path="url(#p8024e31a56)" d="M 74.911764 156.514413 
L 77.411764 154.014413 
L 79.911764 156.514413 
L 82.411764 154.014413 
L 79.911764 151.514413 
L 82.411764 149.014413 
L 79.911764 146.514413 
L 77.411764 149.014413 
L 74.911764 146.514413 
L 72.411764 149.014413 
L 74.911764 151.514413 
L 72.411764 154.014413 
z
" style="fill:#1f77b4;stroke:#ffffff;stroke-width:0.8;"/>
    <path clip-path="url(#p8024e31a56)" d="M 77.602732 154.660615 
L 80.102732 152.160615 
L 82.602732 154.660615 
L 85.102732 152.160615 
L 82.602732 149.660615 
L 85.102732 147.160615 
L 82.602732 144.660615 
L 80.102732 147.160615 
L 77.602732 144.660615 
L 75.102732 147.160615 
L 77.602732 149.660615 
L 75.102732 152.160615 
z
" style="fill:#1f77b4;stroke:#ffffff;stroke-width:0.8;"/>
    <path clip-path="url(#p8024e31a56)" d="M 80.029543 153.821404 
L 82.529543 151.321404 
L 85.029543 153.821404 
L 87.529543 151.321404 
L 85.029543 148.821404 
L 87.529543 146.321404 
L 85.029543 143.821404 
L 82.529543 146.321404 
L 80.029543 143.821404 
L 77.529543 146.321404 
L 80.029543 148.821404 
L 77.529543 151.321404 
z
" style="fill:#1f77b4;stroke:#ffffff;stroke-width:0.8;"/>
    <path clip-path="url(#p8024e31a56)" d="M 86.785618 138.620446 
L 89.285618 136.120446 
L 91.785618 138.620446 
L 94.285618 136.120446 
L 91.785618 133.620446 
L 94.285618 131.120446 
L 91.785618 128.620446 
L 89.285618 131.120446 
L 86.785618 128.620446 
L 84.285618 131.120446 
L 86.785618 133.620446 
L 84.285618 136.120446 
z
" style="fill:#ff7f0e;stroke:#ffffff;stroke-width:0.8;"/>
    <path clip-path="url(#p8024e31a56)" d="M 83.943484 139.423185 
L 86.443484 136.923185 
L 88.943484 139.423185 
L 91.443484 136.923185 
L 88.943484 134.423185 
L 91.443484 131.923185 
L 88.943484 129.423185 
L 86.443484 131.923185 
L 83.943484 129.423185 
L 81.443484 131.923185 
L 83.943484 134.423185 
L 81.443484 136.923185 
z
" style="fill:#ff7f0e;stroke:#ffffff;stroke-width:0.8;"/>
    <path clip-path="url(#p8024e31a56)" d="M 89.751179 140.519526 
L 92.251179 138.019526 
L 94.751179 140.519526 
L 97.251179 138.019526 
L 94.751179 135.519526 
L 97.251179 133.019526 
L 94.751179 130.519526 
L 92.251179 133.019526 
L 89.751179 130.519526 
L 87.251179 133.019526 
L 89.751179 135.519526 
L 87.251179 138.019526 
z
" style="fill:#ff7f0e;stroke:#ffffff;stroke-width:0.8;"/>
    <path clip-path="url(#p8024e31a56)" d="M 74.905428 157.253036 
C 76.231443 157.253036 77.503327 156.726204 78.440962 155.788569 
C 79.378596 154.850935 79.905428 153.579051 79.905428 152.253036 
C 79.905428 150.92702 79.378596 149.655136 78.440962 148.717502 
C 77.503327 147.779867 76.231443 147.253036 74.905428 147.253036 
C 73.579412 147.253036 72.307528 147.779867 71.369894 148.717502 
C 70.432259 149.655136 69.905428 150.92702 69.905428 152.253036 
C 69.905428 153.579051 70.432259 154.850935 71.369894 155.788569 
C 72.307528 156.726204 73.579412 157.253036 74.905428 157.253036 
z
" style="fill:#ff7f0e;stroke:#ffffff;stroke-width:0.8;"/>
    <path clip-path="url(#p8024e31a56)" d="M 83.067744 145.593213 
L 85.567744 143.093213 
L 88.067744 145.593213 
L 90.567744 143.093213 
L 88.067744 140.593213 
L 90.567744 138.093213 
L 88.067744 135.593213 
L 85.567744 138.093213 
L 83.067744 135.593213 
L 80.567744 138.093213 
L 83.067744 140.593213 
L 80.567744 143.093213 
z
" style="fill:#ff7f0e;stroke:#ffffff;stroke-width:0.8;"/>
    <path clip-path="url(#p8024e31a56)" d="M 75.249371 155.331207 
C 76.575387 155.331207 77.847271 154.804375 78.784905 153.86674 
C 79.72254 152.929106 80.249371 151.657222 80.249371 150.331207 
C 80.249371 149.005191 79.72254 147.733307 78.784905 146.795673 
C 77.847271 145.858038 76.575387 145.331207 75.249371 145.331207 
C 73.923356 145.331207 72.651472 145.858038 71.713837 146.795673 
C 70.776203 147.733307 70.249371 149.005191 70.249371 150.331207 
C 70.249371 151.657222 70.776203 152.929106 71.713837 153.86674 
C 72.651472 154.804375 73.923356 155.331207 75.249371 155.331207 
z
" style="fill:#ff7f0e;stroke:#ffffff;stroke-width:0.8;"/>
    <path clip-path="url(#p8024e31a56)" d="M 74.956559 157.268736 
C 76.282574 157.268736 77.554458 156.741905 78.492092 155.80427 
C 79.429727 154.866636 79.956559 153.594752 79.956559 152.268736 
C 79.956559 150.942721 79.429727 149.670837 78.492092 148.733202 
C 77.554458 147.795568 76.282574 147.268736 74.956559 147.268736 
C 73.630543 147.268736 72.358659 147.795568 71.421025 148.733202 
C 70.48339 149.670837 69.956559 150.942721 69.956559 152.268736 
C 69.956559 153.594752 70.48339 154.866636 71.421025 155.80427 
C 72.358659 156.741905 73.630543 157.268736 74.956559 157.268736 
z
" style="fill:#ff7f0e;stroke:#ffffff;stroke-width:0.8;"/>
    <path clip-path="url(#p8024e31a56)" d="M 75.07358 156.664141 
C 76.399596 156.664141 77.671479 156.13731 78.609114 155.199675 
C 79.546749 154.262041 80.07358 152.990157 80.07358 151.664141 
C 80.07358 150.338126 79.546749 149.066242 78.609114 148.128607 
C 77.671479 147.190973 76.399596 146.664141 75.07358 146.664141 
C 73.747565 146.664141 72.475681 147.190973 71.538046 148.128607 
C 70.600412 149.066242 70.07358 150.338126 70.07358 151.664141 
C 70.07358 152.990157 70.600412 154.262041 71.538046 155.199675 
C 72.475681 156.13731 73.747565 156.664141 75.07358 156.664141 
z
" style="fill:#ff7f0e;stroke:#ffffff;stroke-width:0.8;"/>
    <path clip-path="url(#p8024e31a56)" d="M 75.815673 156.625965 
C 77.141688 156.625965 78.413572 156.099134 79.351207 155.161499 
C 80.288841 154.223865 80.815673 152.951981 80.815673 151.625965 
C 80.815673 150.29995 80.288841 149.028066 79.351207 148.090432 
C 78.413572 147.152797 77.141688 146.625965 75.815673 146.625965 
C 74.489657 146.625965 73.217774 147.152797 72.280139 148.090432 
C 71.342505 149.028066 70.815673 150.29995 70.815673 151.625965 
C 70.815673 152.951981 71.342505 154.223865 72.280139 155.161499 
C 73.217774 156.099134 74.489657 156.625965 75.815673 156.625965 
z
" style="fill:#ff7f0e;stroke:#ffffff;stroke-width:0.8;"/>
    <path clip-path="url(#p8024e31a56)" d="M 156.231347 133.355705 
L 158.731347 130.855705 
L 161.231347 133.355705 
L 163.731347 130.855705 
L 161.231347 128.355705 
L 163.731347 125.855705 
L 161.231347 123.355705 
L 158.731347 125.855705 
L 156.231347 123.355705 
L 153.731347 125.855705 
L 156.231347 128.355705 
L 153.731347 130.855705 
z
" style="fill:#2ca02c;stroke:#ffffff;stroke-width:0.8;"/>
    <path clip-path="url(#p8024e31a56)" d="M 173.404797 124.196019 
L 175.904797 121.696019 
L 178.404797 124.196019 
L 180.904797 121.696019 
L 178.404797 119.196019 
L 180.904797 116.696019 
L 178.404797 114.196019 
L 175.904797 116.696019 
L 173.404797 114.196019 
L 170.904797 116.696019 
L 173.404797 119.196019 
L 170.904797 121.696019 
z
" style="fill:#2ca02c;stroke:#ffffff;stroke-width:0.8;"/>
    <path clip-path="url(#p8024e31a56)" d="M 123.156535 60.579617 
L 125.656535 58.079617 
L 128.156535 60.579617 
L 130.656535 58.079617 
L 128.156535 55.579617 
L 130.656535 53.079617 
L 128.156535 50.579617 
L 125.656535 53.079617 
L 123.156535 50.579617 
L 120.656535 53.079617 
L 123.156535 55.579617 
L 120.656535 58.079617 
z
" style="fill:#2ca02c;stroke:#ffffff;stroke-width:0.8;"/>
    <path clip-path="url(#p8024e31a56)" d="M 75.608205 151.15176 
C 76.93422 151.15176 78.206104 150.624929 79.143739 149.687294 
C 80.081373 148.74966 80.608205 147.477776 80.608205 146.15176 
C 80.608205 144.825745 80.081373 143.553861 79.143739 142.616227 
C 78.206104 141.678592 76.93422 141.15176 75.608205 141.15176 
C 74.282189 141.15176 73.010305 141.678592 72.072671 142.616227 
C 71.135036 143.553861 70.608205 144.825745 70.608205 146.15176 
C 70.608205 147.477776 71.135036 148.74966 72.072671 149.687294 
C 73.010305 150.624929 74.282189 151.15176 75.608205 151.15176 
z
" style="fill:#2ca02c;stroke:#ffffff;stroke-width:0.8;"/>
    <path clip-path="url(#p8024e31a56)" d="M 157.402153 103.868659 
L 159.902153 101.368659 
L 162.402153 103.868659 
L 164.902153 101.368659 
L 162.402153 98.868659 
L 164.902153 96.368659 
L 162.402153 93.868659 
L 159.902153 96.368659 
L 157.402153 93.868659 
L 154.902153 96.368659 
L 157.402153 98.868659 
L 154.902153 101.368659 
z
" style="fill:#2ca02c;stroke:#ffffff;stroke-width:0.8;"/>
    <path clip-path="url(#p8024e31a56)" d="M 70.455541 155.159263 
C 71.781557 155.159263 73.053441 154.632431 73.991075 153.694797 
C 74.92871 152.757162 75.455541 151.485278 75.455541 150.159263 
C 75.455541 148.833247 74.92871 147.561363 73.991075 146.623729 
C 73.053441 145.686094 71.781557 145.159263 70.455541 145.159263 
C 69.129526 145.159263 67.857642 145.686094 66.920007 146.623729 
C 65.982373 147.561363 65.455541 148.833247 65.455541 150.159263 
C 65.455541 151.485278 65.982373 152.757162 66.920007 153.694797 
C 67.857642 154.632431 69.129526 155.159263 70.455541 155.159263 
z
" style="fill:#2ca02c;stroke:#ffffff;stroke-width:0.8;"/>
    <path clip-path="url(#p8024e31a56)" d="M 77.097298 161.789273 
C 78.423314 161.789273 79.695198 161.262441 80.632832 160.324807 
C 81.570467 159.387172 82.097298 158.115288 82.097298 156.789273 
C 82.097298 155.463257 81.570467 154.191373 80.632832 153.253739 
C 79.695198 152.316104 78.423314 151.789273 77.097298 151.789273 
C 75.771283 151.789273 74.499399 152.316104 73.561764 153.253739 
C 72.62413 154.191373 72.097298 155.463257 72.097298 156.789273 
C 72.097298 158.115288 72.62413 159.387172 73.561764 160.324807 
C 74.499399 161.262441 75.771283 161.789273 77.097298 161.789273 
z
" style="fill:#2ca02c;stroke:#ffffff;stroke-width:0.8;"/>
    <path clip-path="url(#p8024e31a56)" d="M 78.640793 153.223181 
C 79.966809 153.223181 81.238693 152.696349 82.176327 151.758714 
C 83.113962 150.82108 83.640793 149.549196 83.640793 148.223181 
C 83.640793 146.897165 83.113962 145.625281 82.176327 144.687647 
C 81.238693 143.750012 79.966809 143.223181 78.640793 143.223181 
C 77.314778 143.223181 76.042894 143.750012 75.105259 144.687647 
C 74.167625 145.625281 73.640793 146.897165 73.640793 148.223181 
C 73.640793 149.549196 74.167625 150.82108 75.105259 151.758714 
C 76.042894 152.696349 77.314778 153.223181 78.640793 153.223181 
z
" style="fill:#2ca02c;stroke:#ffffff;stroke-width:0.8;"/>
    <path clip-path="url(#p8024e31a56)" d="M 74.198773 161.819609 
C 75.524789 161.819609 76.796673 161.292777 77.734307 160.355142 
C 78.671942 159.417508 79.198773 158.145624 79.198773 156.819609 
C 79.198773 155.493593 78.671942 154.221709 77.734307 153.284075 
C 76.796673 152.34644 75.524789 151.819609 74.198773 151.819609 
C 72.872758 151.819609 71.600874 152.34644 70.663239 153.284075 
C 69.725605 154.221709 69.198773 155.493593 69.198773 156.819609 
C 69.198773 158.145624 69.725605 159.417508 70.663239 160.355142 
C 71.600874 161.292777 72.872758 161.819609 74.198773 161.819609 
z
" style="fill:#2ca02c;stroke:#ffffff;stroke-width:0.8;"/>
    <path clip-path="url(#p8024e31a56)" d="M 72.693989 137.865718 
L 75.193989 135.365718 
L 77.693989 137.865718 
L 80.193989 135.365718 
L 77.693989 132.865718 
L 80.193989 130.365718 
L 77.693989 127.865718 
L 75.193989 130.365718 
L 72.693989 127.865718 
L 70.193989 130.365718 
L 72.693989 132.865718 
L 70.193989 135.365718 
z
" style="fill:#d62728;stroke:#ffffff;stroke-width:0.8;"/>
    <path clip-path="url(#p8024e31a56)" d="M 75.197134 156.633008 
C 76.52315 156.633008 77.795034 156.106176 78.732668 155.168542 
C 79.670303 154.230907 80.197134 152.959024 80.197134 151.633008 
C 80.197134 150.306993 79.670303 149.035109 78.732668 148.097474 
C 77.795034 147.15984 76.52315 146.633008 75.197134 146.633008 
C 73.871119 146.633008 72.599235 147.15984 71.6616 148.097474 
C 70.723966 149.035109 70.197134 150.306993 70.197134 151.633008 
C 70.197134 152.959024 70.723966 154.230907 71.6616 155.168542 
C 72.599235 156.106176 73.871119 156.633008 75.197134 156.633008 
z
" style="fill:#d62728;stroke:#ffffff;stroke-width:0.8;"/>
    <path clip-path="url(#p8024e31a56)" d="M 75.200346 156.630957 
C 76.526362 156.630957 77.798245 156.104126 78.73588 155.166491 
C 79.673515 154.228857 80.200346 152.956973 80.200346 151.630957 
C 80.200346 150.304942 79.673515 149.033058 78.73588 148.095423 
C 77.798245 147.157789 76.526362 146.630957 75.200346 146.630957 
C 73.874331 146.630957 72.602447 147.157789 71.664812 148.095423 
C 70.727178 149.033058 70.200346 150.304942 70.200346 151.630957 
C 70.200346 152.956973 70.727178 154.228857 71.664812 155.166491 
C 72.602447 156.104126 73.874331 156.630957 75.200346 156.630957 
z
" style="fill:#d62728;stroke:#ffffff;stroke-width:0.8;"/>
    <path clip-path="url(#p8024e31a56)" d="M 75.198545 156.624236 
C 76.52456 156.624236 77.796444 156.097404 78.734079 155.15977 
C 79.671713 154.222135 80.198545 152.950251 80.198545 151.624236 
C 80.198545 150.29822 79.671713 149.026336 78.734079 148.088702 
C 77.796444 147.151067 76.52456 146.624236 75.198545 146.624236 
C 73.872529 146.624236 72.600646 147.151067 71.663011 148.088702 
C 70.725376 149.026336 70.198545 150.29822 70.198545 151.624236 
C 70.198545 152.950251 70.725376 154.222135 71.663011 155.15977 
C 72.600646 156.097404 73.872529 156.624236 75.198545 156.624236 
z
" style="fill:#d62728;stroke:#ffffff;stroke-width:0.8;"/>
    <path clip-path="url(#p8024e31a56)" d="M 75.203104 156.627153 
C 76.52912 156.627153 77.801004 156.100322 78.738638 155.162687 
C 79.676273 154.225053 80.203104 152.953169 80.203104 151.627153 
C 80.203104 150.301138 79.676273 149.029254 78.738638 148.091619 
C 77.801004 147.153985 76.52912 146.627153 75.203104 146.627153 
C 73.877089 146.627153 72.605205 147.153985 71.66757 148.091619 
C 70.729936 149.029254 70.203104 150.301138 70.203104 151.627153 
C 70.203104 152.953169 70.729936 154.225053 71.66757 155.162687 
C 72.605205 156.100322 73.877089 156.627153 75.203104 156.627153 
z
" style="fill:#d62728;stroke:#ffffff;stroke-width:0.8;"/>
    <path clip-path="url(#p8024e31a56)" d="M 75.201481 156.627731 
C 76.527496 156.627731 77.79938 156.100899 78.737015 155.163265 
C 79.674649 154.22563 80.201481 152.953746 80.201481 151.627731 
C 80.201481 150.301715 79.674649 149.029831 78.737015 148.092197 
C 77.79938 147.154562 76.527496 146.627731 75.201481 146.627731 
C 73.875465 146.627731 72.603582 147.154562 71.665947 148.092197 
C 70.728312 149.029831 70.201481 150.301715 70.201481 151.627731 
C 70.201481 152.953746 70.728312 154.22563 71.665947 155.163265 
C 72.603582 156.100899 73.875465 156.627731 75.201481 156.627731 
z
" style="fill:#d62728;stroke:#ffffff;stroke-width:0.8;"/>
    <path clip-path="url(#p8024e31a56)" d="M 72.693989 106.989204 
L 75.193989 104.489204 
L 77.693989 106.989204 
L 80.193989 104.489204 
L 77.693989 101.989204 
L 80.193989 99.489204 
L 77.693989 96.989204 
L 75.193989 99.489204 
L 72.693989 96.989204 
L 70.193989 99.489204 
L 72.693989 101.989204 
L 70.193989 104.489204 
z
" style="fill:#d62728;stroke:#ffffff;stroke-width:0.8;"/>
    <path clip-path="url(#p8024e31a56)" d="M 72.693989 117.869416 
L 75.193989 115.369416 
L 77.693989 117.869416 
L 80.193989 115.369416 
L 77.693989 112.869416 
L 80.193989 110.369416 
L 77.693989 107.869416 
L 75.193989 110.369416 
L 72.693989 107.869416 
L 70.193989 110.369416 
L 72.693989 112.869416 
L 70.193989 115.369416 
z
" style="fill:#d62728;stroke:#ffffff;stroke-width:0.8;"/>
    <path clip-path="url(#p8024e31a56)" d="M 72.693989 115.273289 
L 75.193989 112.773289 
L 77.693989 115.273289 
L 80.193989 112.773289 
L 77.693989 110.273289 
L 80.193989 107.773289 
L 77.693989 105.273289 
L 75.193989 107.773289 
L 72.693989 105.273289 
L 70.193989 107.773289 
L 72.693989 110.273289 
L 70.193989 112.773289 
z
" style="fill:#d62728;stroke:#ffffff;stroke-width:0.8;"/>
    <path clip-path="url(#p8024e31a56)" d="M 72.693989 128.153317 
L 75.193989 125.653317 
L 77.693989 128.153317 
L 80.193989 125.653317 
L 77.693989 123.153317 
L 80.193989 120.653317 
L 77.693989 118.153317 
L 75.193989 120.653317 
L 72.693989 118.153317 
L 70.193989 120.653317 
L 72.693989 123.153317 
L 70.193989 125.653317 
z
" style="fill:#d62728;stroke:#ffffff;stroke-width:0.8;"/>
   </g>
   <g id="PathCollection_2"/>
   <g id="PathCollection_3"/>
   <g id="PathCollection_4"/>
   <g id="PathCollection_5"/>
   <g id="PathCollection_6"/>
   <g id="PathCollection_7"/>
   <g id="patch_3">
    <path clip-path="url(#p8024e31a56)" d="M 75.295649 151.871524 
C 75.330466 151.782992 75.353796 151.67248 75.360501 151.564327 
C 75.367206 151.456175 75.356739 151.359211 75.331405 151.294791 
C 75.30607 151.230371 75.267938 151.203756 75.225405 151.220805 
C 75.182872 151.237855 75.139412 151.297178 75.104595 151.38571 
C 75.069779 151.474242 75.046449 151.584754 75.039744 151.692907 
C 75.033039 151.801059 75.043506 151.898023 75.06884 151.962443 
C 75.094174 152.026863 75.132306 152.053478 75.174839 152.036429 
C 75.217372 152.019379 75.260833 151.960055 75.295649 151.871524 
z
" style="fill:#1f77b4;opacity:0.3;"/>
   </g>
   <g id="patch_4">
    <path clip-path="url(#p8024e31a56)" d="M 82.256711 151.087439 
C 83.255012 150.429273 83.89713 149.590017 84.041646 148.754507 
C 84.186162 147.918998 83.821277 147.15545 83.027353 146.632027 
C 82.233429 146.108604 81.075286 145.86804 79.807992 145.963318 
C 78.540697 146.058595 77.26772 146.481935 76.269419 147.140101 
C 75.271118 147.798267 74.629 148.637523 74.484484 149.473032 
C 74.339968 150.308542 74.704853 151.07209 75.498777 151.595513 
C 76.292701 152.118936 77.450844 152.359499 78.718138 152.264222 
C 79.985433 152.168944 81.25841 151.745605 82.256711 151.087439 
z
" style="fill:#1f77b4;opacity:0.3;"/>
   </g>
   <g id="patch_5">
    <path clip-path="url(#p8024e31a56)" d="M 75.619502 152.525212 
C 75.780301 152.181438 75.890347 151.757227 75.925405 151.346006 
C 75.960462 150.934785 75.917668 150.570129 75.806447 150.332349 
C 75.695226 150.094569 75.52466 150.003079 75.332313 150.078028 
C 75.139965 150.152978 74.941542 150.388247 74.780743 150.732022 
C 74.619943 151.075796 74.509897 151.500007 74.474839 151.911228 
C 74.439782 152.322449 74.482576 152.687105 74.593797 152.924885 
C 74.705018 153.162665 74.875584 153.254155 75.067932 153.179206 
C 75.260279 153.104256 75.458702 152.868987 75.619502 152.525212 
z
" style="fill:#ff7f0e;opacity:0.3;"/>
   </g>
   <g id="patch_6">
    <path clip-path="url(#p8024e31a56)" d="M 91.449223 139.211175 
C 92.833437 137.777299 93.838489 136.067727 94.243028 134.458972 
C 94.647567 132.850217 94.418564 131.473628 93.606454 130.632382 
C 92.794345 129.791136 91.465434 129.553917 89.912399 129.97297 
C 88.359364 130.392023 86.709003 131.433134 85.324789 132.86701 
C 83.940575 134.300886 82.935524 136.010459 82.530985 137.619213 
C 82.126446 139.227968 82.355449 140.604557 83.167558 141.445803 
C 83.979667 142.28705 85.308578 142.524269 86.861613 142.105216 
C 88.414648 141.686163 90.065009 140.645052 91.449223 139.211175 
z
" style="fill:#ff7f0e;opacity:0.3;"/>
   </g>
   <g id="patch_7">
    <path clip-path="url(#p8024e31a56)" d="M 79.536248 158.46836 
C 80.731599 156.58283 81.421271 154.053595 81.453371 151.437689 
C 81.485472 148.821782 80.85738 146.332782 79.707426 144.518861 
C 78.557472 142.70494 76.979544 141.714197 75.321163 141.764832 
C 73.662782 141.815466 72.059347 142.903345 70.863996 144.788874 
C 69.668645 146.674404 68.978974 149.203639 68.946873 151.819545 
C 68.914773 154.435452 69.542864 156.924452 70.692818 158.738373 
C 71.842772 160.552294 73.4207 161.543037 75.079081 161.492402 
C 76.737462 161.441768 78.340897 160.353889 79.536248 158.46836 
z
" style="fill:#2ca02c;opacity:0.3;"/>
   </g>
   <g id="patch_8">
    <path clip-path="url(#p8024e31a56)" d="M 195.972883 163.299458 
C 198.710227 159.098916 197.023796 148.452905 191.285006 133.706085 
C 185.546217 118.959265 176.223615 101.315648 165.370397 84.661037 
C 154.517179 68.006426 143.019461 53.700596 133.409483 44.894239 
C 123.799504 36.087883 116.861877 33.5 114.124533 37.700542 
C 111.387189 41.901084 113.07362 52.547095 118.81241 67.293915 
C 124.5512 82.040735 133.873801 99.684352 144.727019 116.338963 
C 155.580237 132.993574 167.077955 147.299404 176.687934 156.105761 
C 186.297912 164.912117 193.235539 167.5 195.972883 163.299458 
z
" style="fill:#2ca02c;opacity:0.3;"/>
   </g>
   <g id="matplotlib.axis_1">
    <g id="xtick_1">
     <g id="line2d_1">
      <defs>
       <path d="M 0 0 
L 0 3.5 
" id="m2672b90293" style="stroke:#000000;stroke-width:0.8;"/>
      </defs>
      <g>
       <use style="stroke:#000000;stroke-width:0.8;" x="75.200122" xlink:href="#m2672b90293" y="174.2"/>
      </g>
     </g>
     <g id="text_1">
      <text style="font-family:DejaVu Sans;font-size:10px;font-stretch:normal;font-style:normal;font-weight:normal;text-anchor:middle;" transform="rotate(-0, 75.200122, 188.798438)" x="75.200122" y="188.798438">0</text>
     </g>
    </g>
    <g id="xtick_2">
     <g id="line2d_2">
      <g>
       <use style="stroke:#000000;stroke-width:0.8;" x="142.942515" xlink:href="#m2672b90293" y="174.2"/>
      </g>
     </g>
     <g id="text_2">
      <text style="font-family:DejaVu Sans;font-size:10px;font-stretch:normal;font-style:normal;font-weight:normal;text-anchor:middle;" transform="rotate(-0, 142.942515, 188.798438)" x="142.942515" y="188.798438">1</text>
     </g>
    </g>
    <g id="text_3">
     <text style="font-family:DejaVu Sans;font-size:10px;font-stretch:normal;font-style:normal;font-weight:normal;text-anchor:middle;" transform="rotate(-0, 133.8125, 202.476562)" x="133.8125" y="202.476562">Factor 0 (58.10)</text>
    </g>
   </g>
   <g id="matplotlib.axis_2">
    <g id="ytick_1">
     <g id="line2d_3">
      <defs>
       <path d="M 0 0 
L -3.5 0 
" id="m6071fb1a66" style="stroke:#000000;stroke-width:0.8;"/>
      </defs>
      <g>
       <use style="stroke:#000000;stroke-width:0.8;" x="62.425" xlink:href="#m6071fb1a66" y="174.043706"/>
      </g>
     </g>
     <g id="text_4">
      <text style="font-family:DejaVu Sans;font-size:10px;font-stretch:normal;font-style:normal;font-weight:normal;text-anchor:end;" transform="rotate(-0, 55.425, 177.842925)" x="55.425" y="177.842925">−0.25</text>
     </g>
    </g>
    <g id="ytick_2">
     <g id="line2d_4">
      <g>
       <use style="stroke:#000000;stroke-width:0.8;" x="62.425" xlink:href="#m6071fb1a66" y="151.628617"/>
      </g>
     </g>
     <g id="text_5">
      <text style="font-family:DejaVu Sans;font-size:10px;font-stretch:normal;font-style:normal;font-weight:normal;text-anchor:end;" transform="rotate(-0, 55.425, 155.427836)" x="55.425" y="155.427836">0.00</text>
     </g>
    </g>
    <g id="ytick_3">
     <g id="line2d_5">
      <g>
       <use style="stroke:#000000;stroke-width:0.8;" x="62.425" xlink:href="#m6071fb1a66" y="129.213528"/>
      </g>
     </g>
     <g id="text_6">
      <text style="font-family:DejaVu Sans;font-size:10px;font-stretch:normal;font-style:normal;font-weight:normal;text-anchor:end;" transform="rotate(-0, 55.425, 133.012747)" x="55.425" y="133.012747">0.25</text>
     </g>
    </g>
    <g id="ytick_4">
     <g id="line2d_6">
      <g>
       <use style="stroke:#000000;stroke-width:0.8;" x="62.425" xlink:href="#m6071fb1a66" y="106.798439"/>
      </g>
     </g>
     <g id="text_7">
      <text style="font-family:DejaVu Sans;font-size:10px;font-stretch:normal;font-style:normal;font-weight:normal;text-anchor:end;" transform="rotate(-0, 55.425, 110.597657)" x="55.425" y="110.597657">0.50</text>
     </g>
    </g>
    <g id="ytick_5">
     <g id="line2d_7">
      <g>
       <use style="stroke:#000000;stroke-width:0.8;" x="62.425" xlink:href="#m6071fb1a66" y="84.38335"/>
      </g>
     </g>
     <g id="text_8">
      <text style="font-family:DejaVu Sans;font-size:10px;font-stretch:normal;font-style:normal;font-weight:normal;text-anchor:end;" transform="rotate(-0, 55.425, 88.182568)" x="55.425" y="88.182568">0.75</text>
     </g>
    </g>
    <g id="ytick_6">
     <g id="line2d_8">
      <g>
       <use style="stroke:#000000;stroke-width:0.8;" x="62.425" xlink:href="#m6071fb1a66" y="61.96826"/>
      </g>
     </g>
     <g id="text_9">
      <text style="font-family:DejaVu Sans;font-size:10px;font-stretch:normal;font-style:normal;font-weight:normal;text-anchor:end;" transform="rotate(-0, 55.425, 65.767479)" x="55.425" y="65.767479">1.00</text>
     </g>
    </g>
    <g id="ytick_7">
     <g id="line2d_9">
      <g>
       <use style="stroke:#000000;stroke-width:0.8;" x="62.425" xlink:href="#m6071fb1a66" y="39.553171"/>
      </g>
     </g>
     <g id="text_10">
      <text style="font-family:DejaVu Sans;font-size:10px;font-stretch:normal;font-style:normal;font-weight:normal;text-anchor:end;" transform="rotate(-0, 55.425, 43.35239)" x="55.425" y="43.35239">1.25</text>
     </g>
    </g>
    <g id="text_11">
     <text style="font-family:DejaVu Sans;font-size:10px;font-stretch:normal;font-style:normal;font-weight:normal;text-anchor:middle;" transform="rotate(-90, 18.7, 100.5)" x="18.7" y="100.5">Factor 1 (24.24)</text>
    </g>
   </g>
   <g id="patch_9">
    <path d="M 62.425 174.2 
L 62.425 26.8 
" style="fill:none;stroke:#000000;stroke-linecap:square;stroke-linejoin:miter;stroke-width:0.8;"/>
   </g>
   <g id="patch_10">
    <path d="M 205.2 174.2 
L 205.2 26.8 
" style="fill:none;stroke:#000000;stroke-linecap:square;stroke-linejoin:miter;stroke-width:0.8;"/>
   </g>
   <g id="patch_11">
    <path d="M 62.425 174.2 
L 205.2 174.2 
" style="fill:none;stroke:#000000;stroke-linecap:square;stroke-linejoin:miter;stroke-width:0.8;"/>
   </g>
   <g id="patch_12">
    <path d="M 62.425 26.8 
L 205.2 26.8 
" style="fill:none;stroke:#000000;stroke-linecap:square;stroke-linejoin:miter;stroke-width:0.8;"/>
   </g>
   <g id="patch_13">
    <path d="M 75.757168 151.283821 
Q 77.23008 150.37213 76.899247 150.576907 
" style="fill:none;stroke:#1f77b4;stroke-linecap:round;stroke-width:3;"/>
    <path d="M 61.991148 148.043961 
L 75.757168 151.283821 
L 72.517308 165.049841 
" style="fill:none;stroke:#1f77b4;stroke-linecap:round;stroke-width:3;"/>
   </g>
   <g id="patch_14">
    <path d="M 75.194703 120.352177 
Q 75.197056 133.928864 75.199775 149.626871 
" style="fill:none;stroke:#d62728;stroke-linecap:round;stroke-width:3;"/>
    <path d="M 65.196436 130.35391 
L 75.194703 120.352177 
L 85.196436 130.350445 
" style="fill:none;stroke:#d62728;stroke-linecap:round;stroke-width:3;"/>
   </g>
   <g id="patch_15">
    <path d="M 85.726012 139.184918 
Q 81.794263 143.833028 76.492522 150.100743 
" style="fill:none;stroke:#ff7f0e;stroke-linecap:round;stroke-width:3;"/>
    <path d="M 71.632914 140.361599 
L 85.726012 139.184918 
L 86.902693 153.278016 
" style="fill:none;stroke:#ff7f0e;stroke-linecap:round;stroke-width:3;"/>
   </g>
   <g id="patch_16">
    <path d="M 151.578421 102.722093 
Q 115.125744 126.063457 76.886599 150.548732 
" style="fill:none;stroke:#2ca02c;stroke-linecap:round;stroke-width:3;"/>
    <path d="M 137.764483 99.693048 
L 151.578421 102.722093 
L 148.549376 116.536031 
" style="fill:none;stroke:#2ca02c;stroke-linecap:round;stroke-width:3;"/>
   </g>
   <g id="text_12">
    <text style="font-family:DejaVu Sans;font-size:12px;font-stretch:normal;font-style:normal;font-weight:normal;text-anchor:middle;" transform="rotate(-0, 133.8125, 20.8)" x="133.8125" y="20.8">Akkermansia-muciniphila, Statistic = 39.24, p-value = 0.000001</text>
   </g>
   <g id="legend_1">
    <g id="patch_17">
     <path d="M 108.146875 152.225 
L 198.2 152.225 
Q 200.2 152.225 200.2 150.225 
L 200.2 33.8 
Q 200.2 31.8 198.2 31.8 
L 108.146875 31.8 
Q 106.146875 31.8 106.146875 33.8 
L 106.146875 150.225 
Q 106.146875 152.225 108.146875 152.225 
z
" style="fill:#ffffff;opacity:0.8;stroke:#cccccc;stroke-linejoin:miter;"/>
    </g>
    <g id="text_13">
     <text style="font-family:DejaVu Sans;font-size:10px;font-stretch:normal;font-style:normal;font-weight:normal;text-anchor:start;" transform="rotate(-0, 118.146875, 43.398438)" x="118.146875" y="43.398438">Vendor</text>
    </g>
    <g id="PathCollection_8">
     <defs>
      <path d="M 0 3 
C 0.795609 3 1.55874 2.683901 2.12132 2.12132 
C 2.683901 1.55874 3 0.795609 3 0 
C 3 -0.795609 2.683901 -1.55874 2.12132 -2.12132 
C 1.55874 -2.683901 0.795609 -3 0 -3 
C -0.795609 -3 -1.55874 -2.683901 -2.12132 -2.12132 
C -2.683901 -1.55874 -3 -0.795609 -3 0 
C -3 0.795609 -2.683901 1.55874 -2.12132 2.12132 
C -1.55874 2.683901 -0.795609 3 0 3 
z
" id="m41d1542e61" style="stroke:#1f77b4;"/>
     </defs>
     <g>
      <use style="fill:#1f77b4;stroke:#1f77b4;" x="120.146875" xlink:href="#m41d1542e61" y="55.451563"/>
     </g>
    </g>
    <g id="text_14">
     <text style="font-family:DejaVu Sans;font-size:10px;font-stretch:normal;font-style:normal;font-weight:normal;text-anchor:start;" transform="rotate(-0, 138.146875, 58.076563)" x="138.146875" y="58.076563">Beijing</text>
    </g>
    <g id="PathCollection_9">
     <defs>
      <path d="M 0 3 
C 0.795609 3 1.55874 2.683901 2.12132 2.12132 
C 2.683901 1.55874 3 0.795609 3 0 
C 3 -0.795609 2.683901 -1.55874 2.12132 -2.12132 
C 1.55874 -2.683901 0.795609 -3 0 -3 
C -0.795609 -3 -1.55874 -2.683901 -2.12132 -2.12132 
C -2.683901 -1.55874 -3 -0.795609 -3 0 
C -3 0.795609 -2.683901 1.55874 -2.12132 2.12132 
C -1.55874 2.683901 -0.795609 3 0 3 
z
" id="m4c1d50afd6" style="stroke:#ff7f0e;"/>
     </defs>
     <g>
      <use style="fill:#ff7f0e;stroke:#ff7f0e;" x="120.146875" xlink:href="#m4c1d50afd6" y="70.129688"/>
     </g>
    </g>
    <g id="text_15">
     <text style="font-family:DejaVu Sans;font-size:10px;font-stretch:normal;font-style:normal;font-weight:normal;text-anchor:start;" transform="rotate(-0, 138.146875, 72.754688)" x="138.146875" y="72.754688">Guangdong</text>
    </g>
    <g id="PathCollection_10">
     <defs>
      <path d="M 0 3 
C 0.795609 3 1.55874 2.683901 2.12132 2.12132 
C 2.683901 1.55874 3 0.795609 3 0 
C 3 -0.795609 2.683901 -1.55874 2.12132 -2.12132 
C 1.55874 -2.683901 0.795609 -3 0 -3 
C -0.795609 -3 -1.55874 -2.683901 -2.12132 -2.12132 
C -2.683901 -1.55874 -3 -0.795609 -3 0 
C -3 0.795609 -2.683901 1.55874 -2.12132 2.12132 
C -1.55874 2.683901 -0.795609 3 0 3 
z
" id="m8f9e108e0d" style="stroke:#2ca02c;"/>
     </defs>
     <g>
      <use style="fill:#2ca02c;stroke:#2ca02c;" x="120.146875" xlink:href="#m8f9e108e0d" y="84.807813"/>
     </g>
    </g>
    <g id="text_16">
     <text style="font-family:DejaVu Sans;font-size:10px;font-stretch:normal;font-style:normal;font-weight:normal;text-anchor:start;" transform="rotate(-0, 138.146875, 87.432813)" x="138.146875" y="87.432813">Hunan</text>
    </g>
    <g id="PathCollection_11">
     <defs>
      <path d="M 0 3 
C 0.795609 3 1.55874 2.683901 2.12132 2.12132 
C 2.683901 1.55874 3 0.795609 3 0 
C 3 -0.795609 2.683901 -1.55874 2.12132 -2.12132 
C 1.55874 -2.683901 0.795609 -3 0 -3 
C -0.795609 -3 -1.55874 -2.683901 -2.12132 -2.12132 
C -2.683901 -1.55874 -3 -0.795609 -3 0 
C -3 0.795609 -2.683901 1.55874 -2.12132 2.12132 
C -1.55874 2.683901 -0.795609 3 0 3 
z
" id="m24c4ec7449" style="stroke:#d62728;"/>
     </defs>
     <g>
      <use style="fill:#d62728;stroke:#d62728;" x="120.146875" xlink:href="#m24c4ec7449" y="99.485938"/>
     </g>
    </g>
    <g id="text_17">
     <text style="font-family:DejaVu Sans;font-size:10px;font-stretch:normal;font-style:normal;font-weight:normal;text-anchor:start;" transform="rotate(-0, 138.146875, 102.110938)" x="138.146875" y="102.110938">Shanghai</text>
    </g>
    <g id="text_18">
     <text style="font-family:DejaVu Sans;font-size:10px;font-stretch:normal;font-style:normal;font-weight:normal;text-anchor:start;" transform="rotate(-0, 118.146875, 116.789063)" x="118.146875" y="116.789063">Diet</text>
    </g>
    <g id="PathCollection_12">
     <defs>
      <path d="M 0 3 
C 0.795609 3 1.55874 2.683901 2.12132 2.12132 
C 2.683901 1.55874 3 0.795609 3 0 
C 3 -0.795609 2.683901 -1.55874 2.12132 -2.12132 
C 1.55874 -2.683901 0.795609 -3 0 -3 
C -0.795609 -3 -1.55874 -2.683901 -2.12132 -2.12132 
C -2.683901 -1.55874 -3 -0.795609 -3 0 
C -3 0.795609 -2.683901 1.55874 -2.12132 2.12132 
C -1.55874 2.683901 -0.795609 3 0 3 
z
" id="m6f0301b300" style="stroke:#333333;"/>
     </defs>
     <g>
      <use style="fill:#333333;stroke:#333333;" x="120.146875" xlink:href="#m6f0301b300" y="128.842188"/>
     </g>
    </g>
    <g id="text_19">
     <text style="font-family:DejaVu Sans;font-size:10px;font-stretch:normal;font-style:normal;font-weight:normal;text-anchor:start;" transform="rotate(-0, 138.146875, 131.467188)" x="138.146875" y="131.467188">Control</text>
    </g>
    <g id="PathCollection_13">
     <defs>
      <path d="M -1.5 3 
L 0 1.5 
L 1.5 3 
L 3 1.5 
L 1.5 0 
L 3 -1.5 
L 1.5 -3 
L 0 -1.5 
L -1.5 -3 
L -3 -1.5 
L -1.5 0 
L -3 1.5 
z
" id="m16fd5578b7" style="stroke:#333333;"/>
     </defs>
     <g>
      <use style="fill:#333333;stroke:#333333;" x="120.146875" xlink:href="#m16fd5578b7" y="143.520313"/>
     </g>
    </g>
    <g id="text_20">
     <text style="font-family:DejaVu Sans;font-size:10px;font-stretch:normal;font-style:normal;font-weight:normal;text-anchor:start;" transform="rotate(-0, 138.146875, 146.145313)" x="138.146875" y="146.145313">Inulin</text>
    </g>
   </g>
  </g>
 </g>
 <defs>
  <clipPath id="p8024e31a56">
   <rect height="147.4" width="142.775" x="62.425" y="26.8"/>
  </clipPath>
 </defs>
</svg>
