<?xml version="1.0" encoding="utf-8" standalone="no"?>
<!DOCTYPE svg PUBLIC "-//W3C//DTD SVG 1.1//EN"
  "http://www.w3.org/Graphics/SVG/1.1/DTD/svg11.dtd">
<!-- Created with matplotlib (https://matplotlib.org/) -->
<svg height="288pt" version="1.1" viewBox="0 0 576 288" width="576pt" xmlns="http://www.w3.org/2000/svg" xmlns:xlink="http://www.w3.org/1999/xlink">
 <metadata>
  <rdf:RDF xmlns:cc="http://creativecommons.org/ns#" xmlns:dc="http://purl.org/dc/elements/1.1/" xmlns:rdf="http://www.w3.org/1999/02/22-rdf-syntax-ns#">
   <cc:Work>
    <dc:type rdf:resource="http://purl.org/dc/dcmitype/StillImage"/>
    <dc:date>2021-01-09T14:56:51.308865</dc:date>
    <dc:format>image/svg+xml</dc:format>
    <dc:creator>
     <cc:Agent>
      <dc:title>Matplotlib v3.3.3, https://matplotlib.org/</dc:title>
     </cc:Agent>
    </dc:creator>
   </cc:Work>
  </rdf:RDF>
 </metadata>
 <defs>
  <style type="text/css">*{stroke-linecap:butt;stroke-linejoin:round;}</style>
 </defs>
 <g id="figure_1">
  <g id="patch_1">
   <path d="M 0 288 
L 576 288 
L 576 0 
L 0 0 
z
" style="fill:none;"/>
  </g>
  <g id="axes_1">
   <g id="patch_2">
    <path d="M 72 252 
L 518.4 252 
L 518.4 34.56 
L 72 34.56 
z
" style="fill:#ffffff;"/>
   </g>
   <g id="PathCollection_1">
    <path clip-path="url(#p7290ebd0f0)" d="M 93.257143 107.063573 
C 94.583158 107.063573 95.855042 106.536742 96.792677 105.599107 
C 97.730311 104.661473 98.257143 103.389589 98.257143 102.063573 
C 98.257143 100.737558 97.730311 99.465674 96.792677 98.528039 
C 95.855042 97.590405 94.583158 97.063573 93.257143 97.063573 
C 91.931127 97.063573 90.659244 97.590405 89.721609 98.528039 
C 88.783974 99.465674 88.257143 100.737558 88.257143 102.063573 
C 88.257143 103.389589 88.783974 104.661473 89.721609 105.599107 
C 90.659244 106.536742 91.931127 107.063573 93.257143 107.063573 
z
" style="fill:#1f77b4;stroke:#ffffff;stroke-width:0.8;"/>
    <path clip-path="url(#p7290ebd0f0)" d="M 93.257143 159.13193 
C 94.583158 159.13193 95.855042 158.605099 96.792677 157.667464 
C 97.730311 156.72983 98.257143 155.457946 98.257143 154.13193 
C 98.257143 152.805915 97.730311 151.534031 96.792677 150.596397 
C 95.855042 149.658762 94.583158 149.13193 93.257143 149.13193 
C 91.931127 149.13193 90.659244 149.658762 89.721609 150.596397 
C 88.783974 151.534031 88.257143 152.805915 88.257143 154.13193 
C 88.257143 155.457946 88.783974 156.72983 89.721609 157.667464 
C 90.659244 158.605099 91.931127 159.13193 93.257143 159.13193 
z
" style="fill:#ff7f0e;stroke:#ffffff;stroke-width:0.8;"/>
    <path clip-path="url(#p7290ebd0f0)" d="M 93.257143 247.116364 
C 94.583158 247.116364 95.855042 246.589532 96.792677 245.651898 
C 97.730311 244.714263 98.257143 243.442379 98.257143 242.116364 
C 98.257143 240.790348 97.730311 239.518464 96.792677 238.58083 
C 95.855042 237.643195 94.583158 237.116364 93.257143 237.116364 
C 91.931127 237.116364 90.659244 237.643195 89.721609 238.58083 
C 88.783974 239.518464 88.257143 240.790348 88.257143 242.116364 
C 88.257143 243.442379 88.783974 244.714263 89.721609 245.651898 
C 90.659244 246.589532 91.931127 247.116364 93.257143 247.116364 
z
" style="fill:#2ca02c;stroke:#ffffff;stroke-width:0.8;"/>
    <path clip-path="url(#p7290ebd0f0)" d="M 93.257143 94.846346 
C 94.583158 94.846346 95.855042 94.319515 96.792677 93.38188 
C 97.730311 92.444246 98.257143 91.172362 98.257143 89.846346 
C 98.257143 88.520331 97.730311 87.248447 96.792677 86.310812 
C 95.855042 85.373178 94.583158 84.846346 93.257143 84.846346 
C 91.931127 84.846346 90.659244 85.373178 89.721609 86.310812 
C 88.783974 87.248447 88.257143 88.520331 88.257143 89.846346 
C 88.257143 91.172362 88.783974 92.444246 89.721609 93.38188 
C 90.659244 94.319515 91.931127 94.846346 93.257143 94.846346 
z
" style="fill:#d62728;stroke:#ffffff;stroke-width:0.8;"/>
    <path clip-path="url(#p7290ebd0f0)" d="M 114.514286 49.443636 
C 115.840301 49.443636 117.112185 48.916805 118.04982 47.97917 
C 118.987454 47.041536 119.514286 45.769652 119.514286 44.443636 
C 119.514286 43.117621 118.987454 41.845737 118.04982 40.908102 
C 117.112185 39.970468 115.840301 39.443636 114.514286 39.443636 
C 113.18827 39.443636 111.916386 39.970468 110.978752 40.908102 
C 110.041117 41.845737 109.514286 43.117621 109.514286 44.443636 
C 109.514286 45.769652 110.041117 47.041536 110.978752 47.97917 
C 111.916386 48.916805 113.18827 49.443636 114.514286 49.443636 
z
" style="fill:#1f77b4;stroke:#ffffff;stroke-width:0.8;"/>
    <path clip-path="url(#p7290ebd0f0)" d="M 114.514286 90.199311 
C 115.840301 90.199311 117.112185 89.67248 118.04982 88.734845 
C 118.987454 87.797211 119.514286 86.525327 119.514286 85.199311 
C 119.514286 83.873296 118.987454 82.601412 118.04982 81.663777 
C 117.112185 80.726143 115.840301 80.199311 114.514286 80.199311 
C 113.18827 80.199311 111.916386 80.726143 110.978752 81.663777 
C 110.041117 82.601412 109.514286 83.873296 109.514286 85.199311 
C 109.514286 86.525327 110.041117 87.797211 110.978752 88.734845 
C 111.916386 89.67248 113.18827 90.199311 114.514286 90.199311 
z
" style="fill:#ff7f0e;stroke:#ffffff;stroke-width:0.8;"/>
    <path clip-path="url(#p7290ebd0f0)" d="M 114.514286 190.635711 
C 115.840301 190.635711 117.112185 190.108879 118.04982 189.171245 
C 118.987454 188.23361 119.514286 186.961726 119.514286 185.635711 
C 119.514286 184.309695 118.987454 183.037811 118.04982 182.100177 
C 117.112185 181.162542 115.840301 180.635711 114.514286 180.635711 
C 113.18827 180.635711 111.916386 181.162542 110.978752 182.100177 
C 110.041117 183.037811 109.514286 184.309695 109.514286 185.635711 
C 109.514286 186.961726 110.041117 188.23361 110.978752 189.171245 
C 111.916386 190.108879 113.18827 190.635711 114.514286 190.635711 
z
" style="fill:#2ca02c;stroke:#ffffff;stroke-width:0.8;"/>
    <path clip-path="url(#p7290ebd0f0)" d="M 114.514286 51.396746 
C 115.840301 51.396746 117.112185 50.869914 118.04982 49.932279 
C 118.987454 48.994645 119.514286 47.722761 119.514286 46.396746 
C 119.514286 45.07073 118.987454 43.798846 118.04982 42.861212 
C 117.112185 41.923577 115.840301 41.396746 114.514286 41.396746 
C 113.18827 41.396746 111.916386 41.923577 110.978752 42.861212 
C 110.041117 43.798846 109.514286 45.07073 109.514286 46.396746 
C 109.514286 47.722761 110.041117 48.994645 110.978752 49.932279 
C 111.916386 50.869914 113.18827 51.396746 114.514286 51.396746 
z
" style="fill:#d62728;stroke:#ffffff;stroke-width:0.8;"/>
    <path clip-path="url(#p7290ebd0f0)" d="M 135.771429 67.94776 
C 137.097444 67.94776 138.369328 67.420929 139.306962 66.483294 
C 140.244597 65.54566 140.771429 64.273776 140.771429 62.94776 
C 140.771429 61.621745 140.244597 60.349861 139.306962 59.412226 
C 138.369328 58.474592 137.097444 57.94776 135.771429 57.94776 
C 134.445413 57.94776 133.173529 58.474592 132.235895 59.412226 
C 131.29826 60.349861 130.771429 61.621745 130.771429 62.94776 
C 130.771429 64.273776 131.29826 65.54566 132.235895 66.483294 
C 133.173529 67.420929 134.445413 67.94776 135.771429 67.94776 
z
" style="fill:#1f77b4;stroke:#ffffff;stroke-width:0.8;"/>
    <path clip-path="url(#p7290ebd0f0)" d="M 135.771429 136.110976 
C 137.097444 136.110976 138.369328 135.584144 139.306962 134.64651 
C 140.244597 133.708875 140.771429 132.436991 140.771429 131.110976 
C 140.771429 129.78496 140.244597 128.513077 139.306962 127.575442 
C 138.369328 126.637807 137.097444 126.110976 135.771429 126.110976 
C 134.445413 126.110976 133.173529 126.637807 132.235895 127.575442 
C 131.29826 128.513077 130.771429 129.78496 130.771429 131.110976 
C 130.771429 132.436991 131.29826 133.708875 132.235895 134.64651 
C 133.173529 135.584144 134.445413 136.110976 135.771429 136.110976 
z
" style="fill:#ff7f0e;stroke:#ffffff;stroke-width:0.8;"/>
    <path clip-path="url(#p7290ebd0f0)" d="M 135.771429 159.13193 
C 137.097444 159.13193 138.369328 158.605099 139.306962 157.667464 
C 140.244597 156.72983 140.771429 155.457946 140.771429 154.13193 
C 140.771429 152.805915 140.244597 151.534031 139.306962 150.596397 
C 138.369328 149.658762 137.097444 149.13193 135.771429 149.13193 
C 134.445413 149.13193 133.173529 149.658762 132.235895 150.596397 
C 131.29826 151.534031 130.771429 152.805915 130.771429 154.13193 
C 130.771429 155.457946 131.29826 156.72983 132.235895 157.667464 
C 133.173529 158.605099 134.445413 159.13193 135.771429 159.13193 
z
" style="fill:#2ca02c;stroke:#ffffff;stroke-width:0.8;"/>
    <path clip-path="url(#p7290ebd0f0)" d="M 135.771429 49.761249 
C 137.097444 49.761249 138.369328 49.234418 139.306962 48.296783 
C 140.244597 47.359149 140.771429 46.087265 140.771429 44.761249 
C 140.771429 43.435234 140.244597 42.16335 139.306962 41.225715 
C 138.369328 40.288081 137.097444 39.761249 135.771429 39.761249 
C 134.445413 39.761249 133.173529 40.288081 132.235895 41.225715 
C 131.29826 42.16335 130.771429 43.435234 130.771429 44.761249 
C 130.771429 46.087265 131.29826 47.359149 132.235895 48.296783 
C 133.173529 49.234418 134.445413 49.761249 135.771429 49.761249 
z
" style="fill:#d62728;stroke:#ffffff;stroke-width:0.8;"/>
    <path clip-path="url(#p7290ebd0f0)" d="M 157.028571 118.574051 
C 158.354587 118.574051 159.626471 118.047219 160.564105 117.109584 
C 161.50174 116.17195 162.028571 114.900066 162.028571 113.574051 
C 162.028571 112.248035 161.50174 110.976151 160.564105 110.038517 
C 159.626471 109.100882 158.354587 108.574051 157.028571 108.574051 
C 155.702556 108.574051 154.430672 109.100882 153.493038 110.038517 
C 152.555403 110.976151 152.028571 112.248035 152.028571 113.574051 
C 152.028571 114.900066 152.555403 116.17195 153.493038 117.109584 
C 154.430672 118.047219 155.702556 118.574051 157.028571 118.574051 
z
" style="fill:#1f77b4;stroke:#ffffff;stroke-width:0.8;"/>
    <path clip-path="url(#p7290ebd0f0)" d="M 157.028571 125.672232 
C 158.354587 125.672232 159.626471 125.145401 160.564105 124.207766 
C 161.50174 123.270132 162.028571 121.998248 162.028571 120.672232 
C 162.028571 119.346217 161.50174 118.074333 160.564105 117.136698 
C 159.626471 116.199064 158.354587 115.672232 157.028571 115.672232 
C 155.702556 115.672232 154.430672 116.199064 153.493038 117.136698 
C 152.555403 118.074333 152.028571 119.346217 152.028571 120.672232 
C 152.028571 121.998248 152.555403 123.270132 153.493038 124.207766 
C 154.430672 125.145401 155.702556 125.672232 157.028571 125.672232 
z
" style="fill:#ff7f0e;stroke:#ffffff;stroke-width:0.8;"/>
    <path clip-path="url(#p7290ebd0f0)" d="M 157.028571 147.621453 
C 158.354587 147.621453 159.626471 147.094622 160.564105 146.156987 
C 161.50174 145.219353 162.028571 143.947469 162.028571 142.621453 
C 162.028571 141.295438 161.50174 140.023554 160.564105 139.085919 
C 159.626471 138.148285 158.354587 137.621453 157.028571 137.621453 
C 155.702556 137.621453 154.430672 138.148285 153.493038 139.085919 
C 152.555403 140.023554 152.028571 141.295438 152.028571 142.621453 
C 152.028571 143.947469 152.555403 145.219353 153.493038 146.156987 
C 154.430672 147.094622 155.702556 147.621453 157.028571 147.621453 
z
" style="fill:#2ca02c;stroke:#ffffff;stroke-width:0.8;"/>
    <path clip-path="url(#p7290ebd0f0)" d="M 157.028571 89.062328 
C 158.354587 89.062328 159.626471 88.535496 160.564105 87.597862 
C 161.50174 86.660227 162.028571 85.388343 162.028571 84.062328 
C 162.028571 82.736312 161.50174 81.464428 160.564105 80.526794 
C 159.626471 79.589159 158.354587 79.062328 157.028571 79.062328 
C 155.702556 79.062328 154.430672 79.589159 153.493038 80.526794 
C 152.555403 81.464428 152.028571 82.736312 152.028571 84.062328 
C 152.028571 85.388343 152.555403 86.660227 153.493038 87.597862 
C 154.430672 88.535496 155.702556 89.062328 157.028571 89.062328 
z
" style="fill:#d62728;stroke:#ffffff;stroke-width:0.8;"/>
    <path clip-path="url(#p7290ebd0f0)" d="M 178.285714 159.13193 
C 179.61173 159.13193 180.883614 158.605099 181.821248 157.667464 
C 182.758883 156.72983 183.285714 155.457946 183.285714 154.13193 
C 183.285714 152.805915 182.758883 151.534031 181.821248 150.596397 
C 180.883614 149.658762 179.61173 149.13193 178.285714 149.13193 
C 176.959699 149.13193 175.687815 149.658762 174.75018 150.596397 
C 173.812546 151.534031 173.285714 152.805915 173.285714 154.13193 
C 173.285714 155.457946 173.812546 156.72983 174.75018 157.667464 
C 175.687815 158.605099 176.959699 159.13193 178.285714 159.13193 
z
" style="fill:#1f77b4;stroke:#ffffff;stroke-width:0.8;"/>
    <path clip-path="url(#p7290ebd0f0)" d="M 178.285714 124.600499 
C 179.61173 124.600499 180.883614 124.073667 181.821248 123.136032 
C 182.758883 122.198398 183.285714 120.926514 183.285714 119.600499 
C 183.285714 118.274483 182.758883 117.002599 181.821248 116.064965 
C 180.883614 115.12733 179.61173 114.600499 178.285714 114.600499 
C 176.959699 114.600499 175.687815 115.12733 174.75018 116.064965 
C 173.812546 117.002599 173.285714 118.274483 173.285714 119.600499 
C 173.285714 120.926514 173.812546 122.198398 174.75018 123.136032 
C 175.687815 124.073667 176.959699 124.600499 178.285714 124.600499 
z
" style="fill:#ff7f0e;stroke:#ffffff;stroke-width:0.8;"/>
    <path clip-path="url(#p7290ebd0f0)" d="M 178.285714 114.724728 
C 179.61173 114.724728 180.883614 114.197896 181.821248 113.260262 
C 182.758883 112.322627 183.285714 111.050743 183.285714 109.724728 
C 183.285714 108.398712 182.758883 107.126828 181.821248 106.189194 
C 180.883614 105.251559 179.61173 104.724728 178.285714 104.724728 
C 176.959699 104.724728 175.687815 105.251559 174.75018 106.189194 
C 173.812546 107.126828 173.285714 108.398712 173.285714 109.724728 
C 173.285714 111.050743 173.812546 112.322627 174.75018 113.260262 
C 175.687815 114.197896 176.959699 114.724728 178.285714 114.724728 
z
" style="fill:#2ca02c;stroke:#ffffff;stroke-width:0.8;"/>
    <path clip-path="url(#p7290ebd0f0)" d="M 178.285714 78.952429 
C 179.61173 78.952429 180.883614 78.425597 181.821248 77.487962 
C 182.758883 76.550328 183.285714 75.278444 183.285714 73.952429 
C 183.285714 72.626413 182.758883 71.354529 181.821248 70.416895 
C 180.883614 69.47926 179.61173 68.952429 178.285714 68.952429 
C 176.959699 68.952429 175.687815 69.47926 174.75018 70.416895 
C 173.812546 71.354529 173.285714 72.626413 173.285714 73.952429 
C 173.285714 75.278444 173.812546 76.550328 174.75018 77.487962 
C 175.687815 78.425597 176.959699 78.952429 178.285714 78.952429 
z
" style="fill:#d62728;stroke:#ffffff;stroke-width:0.8;"/>
    <path clip-path="url(#p7290ebd0f0)" d="M 199.542857 190.635711 
C 200.868873 190.635711 202.140756 190.108879 203.078391 189.171245 
C 204.016026 188.23361 204.542857 186.961726 204.542857 185.635711 
C 204.542857 184.309695 204.016026 183.037811 203.078391 182.100177 
C 202.140756 181.162542 200.868873 180.635711 199.542857 180.635711 
C 198.216842 180.635711 196.944958 181.162542 196.007323 182.100177 
C 195.069689 183.037811 194.542857 184.309695 194.542857 185.635711 
C 194.542857 186.961726 195.069689 188.23361 196.007323 189.171245 
C 196.944958 190.108879 198.216842 190.635711 199.542857 190.635711 
z
" style="fill:#1f77b4;stroke:#ffffff;stroke-width:0.8;"/>
    <path clip-path="url(#p7290ebd0f0)" d="M 199.542857 143.915907 
C 200.868873 143.915907 202.140756 143.389076 203.078391 142.451441 
C 204.016026 141.513806 204.542857 140.241923 204.542857 138.915907 
C 204.542857 137.589892 204.016026 136.318008 203.078391 135.380373 
C 202.140756 134.442739 200.868873 133.915907 199.542857 133.915907 
C 198.216842 133.915907 196.944958 134.442739 196.007323 135.380373 
C 195.069689 136.318008 194.542857 137.589892 194.542857 138.915907 
C 194.542857 140.241923 195.069689 141.513806 196.007323 142.451441 
C 196.944958 143.389076 198.216842 143.915907 199.542857 143.915907 
z
" style="fill:#ff7f0e;stroke:#ffffff;stroke-width:0.8;"/>
    <path clip-path="url(#p7290ebd0f0)" d="M 199.542857 152.398733 
C 200.868873 152.398733 202.140756 151.871901 203.078391 150.934267 
C 204.016026 149.996632 204.542857 148.724748 204.542857 147.398733 
C 204.542857 146.072717 204.016026 144.800834 203.078391 143.863199 
C 202.140756 142.925564 200.868873 142.398733 199.542857 142.398733 
C 198.216842 142.398733 196.944958 142.925564 196.007323 143.863199 
C 195.069689 144.800834 194.542857 146.072717 194.542857 147.398733 
C 194.542857 148.724748 195.069689 149.996632 196.007323 150.934267 
C 196.944958 151.871901 198.216842 152.398733 199.542857 152.398733 
z
" style="fill:#2ca02c;stroke:#ffffff;stroke-width:0.8;"/>
    <path clip-path="url(#p7290ebd0f0)" d="M 199.542857 110.679113 
C 200.868873 110.679113 202.140756 110.152281 203.078391 109.214647 
C 204.016026 108.277012 204.542857 107.005129 204.542857 105.679113 
C 204.542857 104.353098 204.016026 103.081214 203.078391 102.143579 
C 202.140756 101.205945 200.868873 100.679113 199.542857 100.679113 
C 198.216842 100.679113 196.944958 101.205945 196.007323 102.143579 
C 195.069689 103.081214 194.542857 104.353098 194.542857 105.679113 
C 194.542857 107.005129 195.069689 108.277012 196.007323 109.214647 
C 196.944958 110.152281 198.216842 110.679113 199.542857 110.679113 
z
" style="fill:#d62728;stroke:#ffffff;stroke-width:0.8;"/>
    <path clip-path="url(#p7290ebd0f0)" d="M 220.8 152.398733 
C 222.126015 152.398733 223.397899 151.871901 224.335534 150.934267 
C 225.273168 149.996632 225.8 148.724748 225.8 147.398733 
C 225.8 146.072717 225.273168 144.800834 224.335534 143.863199 
C 223.397899 142.925564 222.126015 142.398733 220.8 142.398733 
C 219.473984 142.398733 218.202101 142.925564 217.264466 143.863199 
C 216.326832 144.800834 215.8 146.072717 215.8 147.398733 
C 215.8 148.724748 216.326832 149.996632 217.264466 150.934267 
C 218.202101 151.871901 219.473984 152.398733 220.8 152.398733 
z
" style="fill:#1f77b4;stroke:#ffffff;stroke-width:0.8;"/>
    <path clip-path="url(#p7290ebd0f0)" d="M 220.8 140.888256 
C 222.126015 140.888256 223.397899 140.361424 224.335534 139.423789 
C 225.273168 138.486155 225.8 137.214271 225.8 135.888256 
C 225.8 134.56224 225.273168 133.290356 224.335534 132.352722 
C 223.397899 131.415087 222.126015 130.888256 220.8 130.888256 
C 219.473984 130.888256 218.202101 131.415087 217.264466 132.352722 
C 216.326832 133.290356 215.8 134.56224 215.8 135.888256 
C 215.8 137.214271 216.326832 138.486155 217.264466 139.423789 
C 218.202101 140.361424 219.473984 140.888256 220.8 140.888256 
z
" style="fill:#ff7f0e;stroke:#ffffff;stroke-width:0.8;"/>
    <path clip-path="url(#p7290ebd0f0)" d="M 220.8 167.614756 
C 222.126015 167.614756 223.397899 167.087925 224.335534 166.15029 
C 225.273168 165.212656 225.8 163.940772 225.8 162.614756 
C 225.8 161.288741 225.273168 160.016857 224.335534 159.079222 
C 223.397899 158.141588 222.126015 157.614756 220.8 157.614756 
C 219.473984 157.614756 218.202101 158.141588 217.264466 159.079222 
C 216.326832 160.016857 215.8 161.288741 215.8 162.614756 
C 215.8 163.940772 216.326832 165.212656 217.264466 166.15029 
C 218.202101 167.087925 219.473984 167.614756 220.8 167.614756 
z
" style="fill:#2ca02c;stroke:#ffffff;stroke-width:0.8;"/>
    <path clip-path="url(#p7290ebd0f0)" d="M 220.8 123.59376 
C 222.126015 123.59376 223.397899 123.066928 224.335534 122.129293 
C 225.273168 121.191659 225.8 119.919775 225.8 118.59376 
C 225.8 117.267744 225.273168 115.99586 224.335534 115.058226 
C 223.397899 114.120591 222.126015 113.59376 220.8 113.59376 
C 219.473984 113.59376 218.202101 114.120591 217.264466 115.058226 
C 216.326832 115.99586 215.8 117.267744 215.8 118.59376 
C 215.8 119.919775 216.326832 121.191659 217.264466 122.129293 
C 218.202101 123.066928 219.473984 123.59376 220.8 123.59376 
z
" style="fill:#d62728;stroke:#ffffff;stroke-width:0.8;"/>
    <path clip-path="url(#p7290ebd0f0)" d="M 242.057143 190.635711 
C 243.383158 190.635711 244.655042 190.108879 245.592677 189.171245 
C 246.530311 188.23361 247.057143 186.961726 247.057143 185.635711 
C 247.057143 184.309695 246.530311 183.037811 245.592677 182.100177 
C 244.655042 181.162542 243.383158 180.635711 242.057143 180.635711 
C 240.731127 180.635711 239.459244 181.162542 238.521609 182.100177 
C 237.583974 183.037811 237.057143 184.309695 237.057143 185.635711 
C 237.057143 186.961726 237.583974 188.23361 238.521609 189.171245 
C 239.459244 190.108879 240.731127 190.635711 242.057143 190.635711 
z
" style="fill:#1f77b4;stroke:#ffffff;stroke-width:0.8;"/>
    <path clip-path="url(#p7290ebd0f0)" d="M 242.057143 147.621453 
C 243.383158 147.621453 244.655042 147.094622 245.592677 146.156987 
C 246.530311 145.219353 247.057143 143.947469 247.057143 142.621453 
C 247.057143 141.295438 246.530311 140.023554 245.592677 139.085919 
C 244.655042 138.148285 243.383158 137.621453 242.057143 137.621453 
C 240.731127 137.621453 239.459244 138.148285 238.521609 139.085919 
C 237.583974 140.023554 237.057143 141.295438 237.057143 142.621453 
C 237.057143 143.947469 237.583974 145.219353 238.521609 146.156987 
C 239.459244 147.094622 240.731127 147.621453 242.057143 147.621453 
z
" style="fill:#ff7f0e;stroke:#ffffff;stroke-width:0.8;"/>
    <path clip-path="url(#p7290ebd0f0)" d="M 242.057143 163.90921 
C 243.383158 163.90921 244.655042 163.382379 245.592677 162.444744 
C 246.530311 161.50711 247.057143 160.235226 247.057143 158.90921 
C 247.057143 157.583195 246.530311 156.311311 245.592677 155.373676 
C 244.655042 154.436042 243.383158 153.90921 242.057143 153.90921 
C 240.731127 153.90921 239.459244 154.436042 238.521609 155.373676 
C 237.583974 156.311311 237.057143 157.583195 237.057143 158.90921 
C 237.057143 160.235226 237.583974 161.50711 238.521609 162.444744 
C 239.459244 163.382379 240.731127 163.90921 242.057143 163.90921 
z
" style="fill:#2ca02c;stroke:#ffffff;stroke-width:0.8;"/>
    <path clip-path="url(#p7290ebd0f0)" d="M 242.057143 82.492738 
C 243.383158 82.492738 244.655042 81.965907 245.592677 81.028272 
C 246.530311 80.090638 247.057143 78.818754 247.057143 77.492738 
C 247.057143 76.166723 246.530311 74.894839 245.592677 73.957204 
C 244.655042 73.01957 243.383158 72.492738 242.057143 72.492738 
C 240.731127 72.492738 239.459244 73.01957 238.521609 73.957204 
C 237.583974 74.894839 237.057143 76.166723 237.057143 77.492738 
C 237.057143 78.818754 237.583974 80.090638 238.521609 81.028272 
C 239.459244 81.965907 240.731127 82.492738 242.057143 82.492738 
z
" style="fill:#d62728;stroke:#ffffff;stroke-width:0.8;"/>
    <path clip-path="url(#p7290ebd0f0)" d="M 263.314286 140.888256 
C 264.640301 140.888256 265.912185 140.361424 266.84982 139.423789 
C 267.787454 138.486155 268.314286 137.214271 268.314286 135.888256 
C 268.314286 134.56224 267.787454 133.290356 266.84982 132.352722 
C 265.912185 131.415087 264.640301 130.888256 263.314286 130.888256 
C 261.98827 130.888256 260.716386 131.415087 259.778752 132.352722 
C 258.841117 133.290356 258.314286 134.56224 258.314286 135.888256 
C 258.314286 137.214271 258.841117 138.486155 259.778752 139.423789 
C 260.716386 140.361424 261.98827 140.888256 263.314286 140.888256 
z
" style="fill:#1f77b4;stroke:#ffffff;stroke-width:0.8;"/>
    <path clip-path="url(#p7290ebd0f0)" d="M 263.314286 87.435254 
C 264.640301 87.435254 265.912185 86.908423 266.84982 85.970788 
C 267.787454 85.033154 268.314286 83.76127 268.314286 82.435254 
C 268.314286 81.109239 267.787454 79.837355 266.84982 78.89972 
C 265.912185 77.962086 264.640301 77.435254 263.314286 77.435254 
C 261.98827 77.435254 260.716386 77.962086 259.778752 78.89972 
C 258.841117 79.837355 258.314286 81.109239 258.314286 82.435254 
C 258.314286 83.76127 258.841117 85.033154 259.778752 85.970788 
C 260.716386 86.908423 261.98827 87.435254 263.314286 87.435254 
z
" style="fill:#ff7f0e;stroke:#ffffff;stroke-width:0.8;"/>
    <path clip-path="url(#p7290ebd0f0)" d="M 263.314286 159.13193 
C 264.640301 159.13193 265.912185 158.605099 266.84982 157.667464 
C 267.787454 156.72983 268.314286 155.457946 268.314286 154.13193 
C 268.314286 152.805915 267.787454 151.534031 266.84982 150.596397 
C 265.912185 149.658762 264.640301 149.13193 263.314286 149.13193 
C 261.98827 149.13193 260.716386 149.658762 259.778752 150.596397 
C 258.841117 151.534031 258.314286 152.805915 258.314286 154.13193 
C 258.314286 155.457946 258.841117 156.72983 259.778752 157.667464 
C 260.716386 158.605099 261.98827 159.13193 263.314286 159.13193 
z
" style="fill:#2ca02c;stroke:#ffffff;stroke-width:0.8;"/>
    <path clip-path="url(#p7290ebd0f0)" d="M 263.314286 117.867301 
C 264.640301 117.867301 265.912185 117.340469 266.84982 116.402835 
C 267.787454 115.4652 268.314286 114.193316 268.314286 112.867301 
C 268.314286 111.541285 267.787454 110.269402 266.84982 109.331767 
C 265.912185 108.394133 264.640301 107.867301 263.314286 107.867301 
C 261.98827 107.867301 260.716386 108.394133 259.778752 109.331767 
C 258.841117 110.269402 258.314286 111.541285 258.314286 112.867301 
C 258.314286 114.193316 258.841117 115.4652 259.778752 116.402835 
C 260.716386 117.340469 261.98827 117.867301 263.314286 117.867301 
z
" style="fill:#d62728;stroke:#ffffff;stroke-width:0.8;"/>
    <path clip-path="url(#p7290ebd0f0)" d="M 284.571429 129.377778 
C 285.897444 129.377778 287.169328 128.850947 288.106962 127.913312 
C 289.044597 126.975678 289.571429 125.703794 289.571429 124.377778 
C 289.571429 123.051763 289.044597 121.779879 288.106962 120.842244 
C 287.169328 119.90461 285.897444 119.377778 284.571429 119.377778 
C 283.245413 119.377778 281.973529 119.90461 281.035895 120.842244 
C 280.09826 121.779879 279.571429 123.051763 279.571429 124.377778 
C 279.571429 125.703794 280.09826 126.975678 281.035895 127.913312 
C 281.973529 128.850947 283.245413 129.377778 284.571429 129.377778 
z
" style="fill:#1f77b4;stroke:#ffffff;stroke-width:0.8;"/>
    <path clip-path="url(#p7290ebd0f0)" d="M 284.571429 117.189406 
C 285.897444 117.189406 287.169328 116.662575 288.106962 115.72494 
C 289.044597 114.787306 289.571429 113.515422 289.571429 112.189406 
C 289.571429 110.863391 289.044597 109.591507 288.106962 108.653873 
C 287.169328 107.716238 285.897444 107.189406 284.571429 107.189406 
C 283.245413 107.189406 281.973529 107.716238 281.035895 108.653873 
C 280.09826 109.591507 279.571429 110.863391 279.571429 112.189406 
C 279.571429 113.515422 280.09826 114.787306 281.035895 115.72494 
C 281.973529 116.662575 283.245413 117.189406 284.571429 117.189406 
z
" style="fill:#ff7f0e;stroke:#ffffff;stroke-width:0.8;"/>
    <path clip-path="url(#p7290ebd0f0)" d="M 284.571429 159.13193 
C 285.897444 159.13193 287.169328 158.605099 288.106962 157.667464 
C 289.044597 156.72983 289.571429 155.457946 289.571429 154.13193 
C 289.571429 152.805915 289.044597 151.534031 288.106962 150.596397 
C 287.169328 149.658762 285.897444 149.13193 284.571429 149.13193 
C 283.245413 149.13193 281.973529 149.658762 281.035895 150.596397 
C 280.09826 151.534031 279.571429 152.805915 279.571429 154.13193 
C 279.571429 155.457946 280.09826 156.72983 281.035895 157.667464 
C 281.973529 158.605099 283.245413 159.13193 284.571429 159.13193 
z
" style="fill:#2ca02c;stroke:#ffffff;stroke-width:0.8;"/>
    <path clip-path="url(#p7290ebd0f0)" d="M 284.571429 134.155058 
C 285.897444 134.155058 287.169328 133.628226 288.106962 132.690592 
C 289.044597 131.752957 289.571429 130.481073 289.571429 129.155058 
C 289.571429 127.829042 289.044597 126.557159 288.106962 125.619524 
C 287.169328 124.68189 285.897444 124.155058 284.571429 124.155058 
C 283.245413 124.155058 281.973529 124.68189 281.035895 125.619524 
C 280.09826 126.557159 279.571429 127.829042 279.571429 129.155058 
C 279.571429 130.481073 280.09826 131.752957 281.035895 132.690592 
C 281.973529 133.628226 283.245413 134.155058 284.571429 134.155058 
z
" style="fill:#d62728;stroke:#ffffff;stroke-width:0.8;"/>
    <path clip-path="url(#p7290ebd0f0)" d="M 305.828571 128.04858 
C 307.154587 128.04858 308.426471 127.521749 309.364105 126.584114 
C 310.30174 125.64648 310.828571 124.374596 310.828571 123.04858 
C 310.828571 121.722565 310.30174 120.450681 309.364105 119.513046 
C 308.426471 118.575412 307.154587 118.04858 305.828571 118.04858 
C 304.502556 118.04858 303.230672 118.575412 302.293038 119.513046 
C 301.355403 120.450681 300.828571 121.722565 300.828571 123.04858 
C 300.828571 124.374596 301.355403 125.64648 302.293038 126.584114 
C 303.230672 127.521749 304.502556 128.04858 305.828571 128.04858 
z
" style="fill:#1f77b4;stroke:#ffffff;stroke-width:0.8;"/>
    <path clip-path="url(#p7290ebd0f0)" d="M 305.828571 105.350085 
C 307.154587 105.350085 308.426471 104.823253 309.364105 103.885619 
C 310.30174 102.947984 310.828571 101.6761 310.828571 100.350085 
C 310.828571 99.024069 310.30174 97.752185 309.364105 96.814551 
C 308.426471 95.876916 307.154587 95.350085 305.828571 95.350085 
C 304.502556 95.350085 303.230672 95.876916 302.293038 96.814551 
C 301.355403 97.752185 300.828571 99.024069 300.828571 100.350085 
C 300.828571 101.6761 301.355403 102.947984 302.293038 103.885619 
C 303.230672 104.823253 304.502556 105.350085 305.828571 105.350085 
z
" style="fill:#ff7f0e;stroke:#ffffff;stroke-width:0.8;"/>
    <path clip-path="url(#p7290ebd0f0)" d="M 305.828571 112.579024 
C 307.154587 112.579024 308.426471 112.052192 309.364105 111.114558 
C 310.30174 110.176923 310.828571 108.905039 310.828571 107.579024 
C 310.828571 106.253008 310.30174 104.981124 309.364105 104.04349 
C 308.426471 103.105855 307.154587 102.579024 305.828571 102.579024 
C 304.502556 102.579024 303.230672 103.105855 302.293038 104.04349 
C 301.355403 104.981124 300.828571 106.253008 300.828571 107.579024 
C 300.828571 108.905039 301.355403 110.176923 302.293038 111.114558 
C 303.230672 112.052192 304.502556 112.579024 305.828571 112.579024 
z
" style="fill:#2ca02c;stroke:#ffffff;stroke-width:0.8;"/>
    <path clip-path="url(#p7290ebd0f0)" d="M 305.828571 77.49091 
C 307.154587 77.49091 308.426471 76.964079 309.364105 76.026444 
C 310.30174 75.08881 310.828571 73.816926 310.828571 72.49091 
C 310.828571 71.164895 310.30174 69.893011 309.364105 68.955376 
C 308.426471 68.017742 307.154587 67.49091 305.828571 67.49091 
C 304.502556 67.49091 303.230672 68.017742 302.293038 68.955376 
C 301.355403 69.893011 300.828571 71.164895 300.828571 72.49091 
C 300.828571 73.816926 301.355403 75.08881 302.293038 76.026444 
C 303.230672 76.964079 304.502556 77.49091 305.828571 77.49091 
z
" style="fill:#d62728;stroke:#ffffff;stroke-width:0.8;"/>
    <path clip-path="url(#p7290ebd0f0)" d="M 327.085714 152.398733 
C 328.41173 152.398733 329.683614 151.871901 330.621248 150.934267 
C 331.558883 149.996632 332.085714 148.724748 332.085714 147.398733 
C 332.085714 146.072717 331.558883 144.800834 330.621248 143.863199 
C 329.683614 142.925564 328.41173 142.398733 327.085714 142.398733 
C 325.759699 142.398733 324.487815 142.925564 323.55018 143.863199 
C 322.612546 144.800834 322.085714 146.072717 322.085714 147.398733 
C 322.085714 148.724748 322.612546 149.996632 323.55018 150.934267 
C 324.487815 151.871901 325.759699 152.398733 327.085714 152.398733 
z
" style="fill:#1f77b4;stroke:#ffffff;stroke-width:0.8;"/>
    <path clip-path="url(#p7290ebd0f0)" d="M 327.085714 111.134103 
C 328.41173 111.134103 329.683614 110.607272 330.621248 109.669637 
C 331.558883 108.732003 332.085714 107.460119 332.085714 106.134103 
C 332.085714 104.808088 331.558883 103.536204 330.621248 102.598569 
C 329.683614 101.660935 328.41173 101.134103 327.085714 101.134103 
C 325.759699 101.134103 324.487815 101.660935 323.55018 102.598569 
C 322.612546 103.536204 322.085714 104.808088 322.085714 106.134103 
C 322.085714 107.460119 322.612546 108.732003 323.55018 109.669637 
C 324.487815 110.607272 325.759699 111.134103 327.085714 111.134103 
z
" style="fill:#ff7f0e;stroke:#ffffff;stroke-width:0.8;"/>
    <path clip-path="url(#p7290ebd0f0)" d="M 327.085714 130.822699 
C 328.41173 130.822699 329.683614 130.295867 330.621248 129.358233 
C 331.558883 128.420598 332.085714 127.148714 332.085714 125.822699 
C 332.085714 124.496683 331.558883 123.224799 330.621248 122.287165 
C 329.683614 121.34953 328.41173 120.822699 327.085714 120.822699 
C 325.759699 120.822699 324.487815 121.34953 323.55018 122.287165 
C 322.612546 123.224799 322.085714 124.496683 322.085714 125.822699 
C 322.085714 127.148714 322.612546 128.420598 323.55018 129.358233 
C 324.487815 130.295867 325.759699 130.822699 327.085714 130.822699 
z
" style="fill:#2ca02c;stroke:#ffffff;stroke-width:0.8;"/>
    <path clip-path="url(#p7290ebd0f0)" d="M 327.085714 97.063783 
C 328.41173 97.063783 329.683614 96.536952 330.621248 95.599317 
C 331.558883 94.661683 332.085714 93.389799 332.085714 92.063783 
C 332.085714 90.737768 331.558883 89.465884 330.621248 88.528249 
C 329.683614 87.590615 328.41173 87.063783 327.085714 87.063783 
C 325.759699 87.063783 324.487815 87.590615 323.55018 88.528249 
C 322.612546 89.465884 322.085714 90.737768 322.085714 92.063783 
C 322.085714 93.389799 322.612546 94.661683 323.55018 95.599317 
C 324.487815 96.536952 325.759699 97.063783 327.085714 97.063783 
z
" style="fill:#d62728;stroke:#ffffff;stroke-width:0.8;"/>
    <path clip-path="url(#p7290ebd0f0)" d="M 348.342857 143.915907 
C 349.668873 143.915907 350.940756 143.389076 351.878391 142.451441 
C 352.816026 141.513806 353.342857 140.241923 353.342857 138.915907 
C 353.342857 137.589892 352.816026 136.318008 351.878391 135.380373 
C 350.940756 134.442739 349.668873 133.915907 348.342857 133.915907 
C 347.016842 133.915907 345.744958 134.442739 344.807323 135.380373 
C 343.869689 136.318008 343.342857 137.589892 343.342857 138.915907 
C 343.342857 140.241923 343.869689 141.513806 344.807323 142.451441 
C 345.744958 143.389076 347.016842 143.915907 348.342857 143.915907 
z
" style="fill:#1f77b4;stroke:#ffffff;stroke-width:0.8;"/>
    <path clip-path="url(#p7290ebd0f0)" d="M 348.342857 79.630323 
C 349.668873 79.630323 350.940756 79.103491 351.878391 78.165857 
C 352.816026 77.228222 353.342857 75.956339 353.342857 74.630323 
C 353.342857 73.304308 352.816026 72.032424 351.878391 71.094789 
C 350.940756 70.157155 349.668873 69.630323 348.342857 69.630323 
C 347.016842 69.630323 345.744958 70.157155 344.807323 71.094789 
C 343.869689 72.032424 343.342857 73.304308 343.342857 74.630323 
C 343.342857 75.956339 343.869689 77.228222 344.807323 78.165857 
C 345.744958 79.103491 347.016842 79.630323 348.342857 79.630323 
z
" style="fill:#ff7f0e;stroke:#ffffff;stroke-width:0.8;"/>
    <path clip-path="url(#p7290ebd0f0)" d="M 348.342857 136.110976 
C 349.668873 136.110976 350.940756 135.584144 351.878391 134.64651 
C 352.816026 133.708875 353.342857 132.436991 353.342857 131.110976 
C 353.342857 129.78496 352.816026 128.513077 351.878391 127.575442 
C 350.940756 126.637807 349.668873 126.110976 348.342857 126.110976 
C 347.016842 126.110976 345.744958 126.637807 344.807323 127.575442 
C 343.869689 128.513077 343.342857 129.78496 343.342857 131.110976 
C 343.342857 132.436991 343.869689 133.708875 344.807323 134.64651 
C 345.744958 135.584144 347.016842 136.110976 348.342857 136.110976 
z
" style="fill:#2ca02c;stroke:#ffffff;stroke-width:0.8;"/>
    <path clip-path="url(#p7290ebd0f0)" d="M 348.342857 110.679113 
C 349.668873 110.679113 350.940756 110.152281 351.878391 109.214647 
C 352.816026 108.277012 353.342857 107.005129 353.342857 105.679113 
C 353.342857 104.353098 352.816026 103.081214 351.878391 102.143579 
C 350.940756 101.205945 349.668873 100.679113 348.342857 100.679113 
C 347.016842 100.679113 345.744958 101.205945 344.807323 102.143579 
C 343.869689 103.081214 343.342857 104.353098 343.342857 105.679113 
C 343.342857 107.005129 343.869689 108.277012 344.807323 109.214647 
C 345.744958 110.152281 347.016842 110.679113 348.342857 110.679113 
z
" style="fill:#d62728;stroke:#ffffff;stroke-width:0.8;"/>
    <path clip-path="url(#p7290ebd0f0)" d="M 369.6 152.398733 
C 370.926015 152.398733 372.197899 151.871901 373.135534 150.934267 
C 374.073168 149.996632 374.6 148.724748 374.6 147.398733 
C 374.6 146.072717 374.073168 144.800834 373.135534 143.863199 
C 372.197899 142.925564 370.926015 142.398733 369.6 142.398733 
C 368.273984 142.398733 367.002101 142.925564 366.064466 143.863199 
C 365.126832 144.800834 364.6 146.072717 364.6 147.398733 
C 364.6 148.724748 365.126832 149.996632 366.064466 150.934267 
C 367.002101 151.871901 368.273984 152.398733 369.6 152.398733 
z
" style="fill:#1f77b4;stroke:#ffffff;stroke-width:0.8;"/>
    <path clip-path="url(#p7290ebd0f0)" d="M 369.6 109.804905 
C 370.926015 109.804905 372.197899 109.278074 373.135534 108.340439 
C 374.073168 107.402805 374.6 106.130921 374.6 104.804905 
C 374.6 103.47889 374.073168 102.207006 373.135534 101.269372 
C 372.197899 100.331737 370.926015 99.804905 369.6 99.804905 
C 368.273984 99.804905 367.002101 100.331737 366.064466 101.269372 
C 365.126832 102.207006 364.6 103.47889 364.6 104.804905 
C 364.6 106.130921 365.126832 107.402805 366.064466 108.340439 
C 367.002101 109.278074 368.273984 109.804905 369.6 109.804905 
z
" style="fill:#ff7f0e;stroke:#ffffff;stroke-width:0.8;"/>
    <path clip-path="url(#p7290ebd0f0)" d="M 369.6 100.572805 
C 370.926015 100.572805 372.197899 100.045973 373.135534 99.108339 
C 374.073168 98.170704 374.6 96.89882 374.6 95.572805 
C 374.6 94.246789 374.073168 92.974906 373.135534 92.037271 
C 372.197899 91.099636 370.926015 90.572805 369.6 90.572805 
C 368.273984 90.572805 367.002101 91.099636 366.064466 92.037271 
C 365.126832 92.974906 364.6 94.246789 364.6 95.572805 
C 364.6 96.89882 365.126832 98.170704 366.064466 99.108339 
C 367.002101 100.045973 368.273984 100.572805 369.6 100.572805 
z
" style="fill:#2ca02c;stroke:#ffffff;stroke-width:0.8;"/>
    <path clip-path="url(#p7290ebd0f0)" d="M 369.6 98.945732 
C 370.926015 98.945732 372.197899 98.4189 373.135534 97.481266 
C 374.073168 96.543631 374.6 95.271747 374.6 93.945732 
C 374.6 92.619716 374.073168 91.347832 373.135534 90.410198 
C 372.197899 89.472563 370.926015 88.945732 369.6 88.945732 
C 368.273984 88.945732 367.002101 89.472563 366.064466 90.410198 
C 365.126832 91.347832 364.6 92.619716 364.6 93.945732 
C 364.6 95.271747 365.126832 96.543631 366.064466 97.481266 
C 367.002101 98.4189 368.273984 98.945732 369.6 98.945732 
z
" style="fill:#d62728;stroke:#ffffff;stroke-width:0.8;"/>
    <path clip-path="url(#p7290ebd0f0)" d="M 390.857143 147.621453 
C 392.183158 147.621453 393.455042 147.094622 394.392677 146.156987 
C 395.330311 145.219353 395.857143 143.947469 395.857143 142.621453 
C 395.857143 141.295438 395.330311 140.023554 394.392677 139.085919 
C 393.455042 138.148285 392.183158 137.621453 390.857143 137.621453 
C 389.531127 137.621453 388.259244 138.148285 387.321609 139.085919 
C 386.383974 140.023554 385.857143 141.295438 385.857143 142.621453 
C 385.857143 143.947469 386.383974 145.219353 387.321609 146.156987 
C 388.259244 147.094622 389.531127 147.621453 390.857143 147.621453 
z
" style="fill:#1f77b4;stroke:#ffffff;stroke-width:0.8;"/>
    <path clip-path="url(#p7290ebd0f0)" d="M 390.857143 136.110976 
C 392.183158 136.110976 393.455042 135.584144 394.392677 134.64651 
C 395.330311 133.708875 395.857143 132.436991 395.857143 131.110976 
C 395.857143 129.78496 395.330311 128.513077 394.392677 127.575442 
C 393.455042 126.637807 392.183158 126.110976 390.857143 126.110976 
C 389.531127 126.110976 388.259244 126.637807 387.321609 127.575442 
C 386.383974 128.513077 385.857143 129.78496 385.857143 131.110976 
C 385.857143 132.436991 386.383974 133.708875 387.321609 134.64651 
C 388.259244 135.584144 389.531127 136.110976 390.857143 136.110976 
z
" style="fill:#ff7f0e;stroke:#ffffff;stroke-width:0.8;"/>
    <path clip-path="url(#p7290ebd0f0)" d="M 390.857143 136.110976 
C 392.183158 136.110976 393.455042 135.584144 394.392677 134.64651 
C 395.330311 133.708875 395.857143 132.436991 395.857143 131.110976 
C 395.857143 129.78496 395.330311 128.513077 394.392677 127.575442 
C 393.455042 126.637807 392.183158 126.110976 390.857143 126.110976 
C 389.531127 126.110976 388.259244 126.637807 387.321609 127.575442 
C 386.383974 128.513077 385.857143 129.78496 385.857143 131.110976 
C 385.857143 132.436991 386.383974 133.708875 387.321609 134.64651 
C 388.259244 135.584144 389.531127 136.110976 390.857143 136.110976 
z
" style="fill:#2ca02c;stroke:#ffffff;stroke-width:0.8;"/>
    <path clip-path="url(#p7290ebd0f0)" d="M 390.857143 121.746735 
C 392.183158 121.746735 393.455042 121.219903 394.392677 120.282268 
C 395.330311 119.344634 395.857143 118.07275 395.857143 116.746735 
C 395.857143 115.420719 395.330311 114.148835 394.392677 113.211201 
C 393.455042 112.273566 392.183158 111.746735 390.857143 111.746735 
C 389.531127 111.746735 388.259244 112.273566 387.321609 113.211201 
C 386.383974 114.148835 385.857143 115.420719 385.857143 116.746735 
C 385.857143 118.07275 386.383974 119.344634 387.321609 120.282268 
C 388.259244 121.219903 389.531127 121.746735 390.857143 121.746735 
z
" style="fill:#d62728;stroke:#ffffff;stroke-width:0.8;"/>
    <path clip-path="url(#p7290ebd0f0)" d="M 412.114286 185.858431 
C 413.440301 185.858431 414.712185 185.3316 415.64982 184.393965 
C 416.587454 183.45633 417.114286 182.184447 417.114286 180.858431 
C 417.114286 179.532416 416.587454 178.260532 415.64982 177.322897 
C 414.712185 176.385263 413.440301 175.858431 412.114286 175.858431 
C 410.78827 175.858431 409.516386 176.385263 408.578752 177.322897 
C 407.641117 178.260532 407.114286 179.532416 407.114286 180.858431 
C 407.114286 182.184447 407.641117 183.45633 408.578752 184.393965 
C 409.516386 185.3316 410.78827 185.858431 412.114286 185.858431 
z
" style="fill:#1f77b4;stroke:#ffffff;stroke-width:0.8;"/>
    <path clip-path="url(#p7290ebd0f0)" d="M 412.114286 100.818826 
C 413.440301 100.818826 414.712185 100.291994 415.64982 99.35436 
C 416.587454 98.416725 417.114286 97.144841 417.114286 95.818826 
C 417.114286 94.49281 416.587454 93.220926 415.64982 92.283292 
C 414.712185 91.345657 413.440301 90.818826 412.114286 90.818826 
C 410.78827 90.818826 409.516386 91.345657 408.578752 92.283292 
C 407.641117 93.220926 407.114286 94.49281 407.114286 95.818826 
C 407.114286 97.144841 407.641117 98.416725 408.578752 99.35436 
C 409.516386 100.291994 410.78827 100.818826 412.114286 100.818826 
z
" style="fill:#ff7f0e;stroke:#ffffff;stroke-width:0.8;"/>
    <path clip-path="url(#p7290ebd0f0)" d="M 412.114286 159.13193 
C 413.440301 159.13193 414.712185 158.605099 415.64982 157.667464 
C 416.587454 156.72983 417.114286 155.457946 417.114286 154.13193 
C 417.114286 152.805915 416.587454 151.534031 415.64982 150.596397 
C 414.712185 149.658762 413.440301 149.13193 412.114286 149.13193 
C 410.78827 149.13193 409.516386 149.658762 408.578752 150.596397 
C 407.641117 151.534031 407.114286 152.805915 407.114286 154.13193 
C 407.114286 155.457946 407.641117 156.72983 408.578752 157.667464 
C 409.516386 158.605099 410.78827 159.13193 412.114286 159.13193 
z
" style="fill:#2ca02c;stroke:#ffffff;stroke-width:0.8;"/>
    <path clip-path="url(#p7290ebd0f0)" d="M 412.114286 126.817935 
C 413.440301 126.817935 414.712185 126.291104 415.64982 125.353469 
C 416.587454 124.415835 417.114286 123.143951 417.114286 121.817935 
C 417.114286 120.49192 416.587454 119.220036 415.64982 118.282401 
C 414.712185 117.344767 413.440301 116.817935 412.114286 116.817935 
C 410.78827 116.817935 409.516386 117.344767 408.578752 118.282401 
C 407.641117 119.220036 407.114286 120.49192 407.114286 121.817935 
C 407.114286 123.143951 407.641117 124.415835 408.578752 125.353469 
C 409.516386 126.291104 410.78827 126.817935 412.114286 126.817935 
z
" style="fill:#d62728;stroke:#ffffff;stroke-width:0.8;"/>
    <path clip-path="url(#p7290ebd0f0)" d="M 433.371429 152.398733 
C 434.697444 152.398733 435.969328 151.871901 436.906962 150.934267 
C 437.844597 149.996632 438.371429 148.724748 438.371429 147.398733 
C 438.371429 146.072717 437.844597 144.800834 436.906962 143.863199 
C 435.969328 142.925564 434.697444 142.398733 433.371429 142.398733 
C 432.045413 142.398733 430.773529 142.925564 429.835895 143.863199 
C 428.89826 144.800834 428.371429 146.072717 428.371429 147.398733 
C 428.371429 148.724748 428.89826 149.996632 429.835895 150.934267 
C 430.773529 151.871901 432.045413 152.398733 433.371429 152.398733 
z
" style="fill:#1f77b4;stroke:#ffffff;stroke-width:0.8;"/>
    <path clip-path="url(#p7290ebd0f0)" d="M 433.371429 92.585721 
C 434.697444 92.585721 435.969328 92.058889 436.906962 91.121255 
C 437.844597 90.18362 438.371429 88.911736 438.371429 87.585721 
C 438.371429 86.259705 437.844597 84.987821 436.906962 84.050187 
C 435.969328 83.112552 434.697444 82.585721 433.371429 82.585721 
C 432.045413 82.585721 430.773529 83.112552 429.835895 84.050187 
C 428.89826 84.987821 428.371429 86.259705 428.371429 87.585721 
C 428.371429 88.911736 428.89826 90.18362 429.835895 91.121255 
C 430.773529 92.058889 432.045413 92.585721 433.371429 92.585721 
z
" style="fill:#ff7f0e;stroke:#ffffff;stroke-width:0.8;"/>
    <path clip-path="url(#p7290ebd0f0)" d="M 433.371429 129.377778 
C 434.697444 129.377778 435.969328 128.850947 436.906962 127.913312 
C 437.844597 126.975678 438.371429 125.703794 438.371429 124.377778 
C 438.371429 123.051763 437.844597 121.779879 436.906962 120.842244 
C 435.969328 119.90461 434.697444 119.377778 433.371429 119.377778 
C 432.045413 119.377778 430.773529 119.90461 429.835895 120.842244 
C 428.89826 121.779879 428.371429 123.051763 428.371429 124.377778 
C 428.371429 125.703794 428.89826 126.975678 429.835895 127.913312 
C 430.773529 128.850947 432.045413 129.377778 433.371429 129.377778 
z
" style="fill:#2ca02c;stroke:#ffffff;stroke-width:0.8;"/>
    <path clip-path="url(#p7290ebd0f0)" d="M 433.371429 114.724728 
C 434.697444 114.724728 435.969328 114.197896 436.906962 113.260262 
C 437.844597 112.322627 438.371429 111.050743 438.371429 109.724728 
C 438.371429 108.398712 437.844597 107.126828 436.906962 106.189194 
C 435.969328 105.251559 434.697444 104.724728 433.371429 104.724728 
C 432.045413 104.724728 430.773529 105.251559 429.835895 106.189194 
C 428.89826 107.126828 428.371429 108.398712 428.371429 109.724728 
C 428.371429 111.050743 428.89826 112.322627 429.835895 113.260262 
C 430.773529 114.197896 432.045413 114.724728 433.371429 114.724728 
z
" style="fill:#d62728;stroke:#ffffff;stroke-width:0.8;"/>
    <path clip-path="url(#p7290ebd0f0)" d="M 454.628571 130.822699 
C 455.954587 130.822699 457.226471 130.295867 458.164105 129.358233 
C 459.10174 128.420598 459.628571 127.148714 459.628571 125.822699 
C 459.628571 124.496683 459.10174 123.224799 458.164105 122.287165 
C 457.226471 121.34953 455.954587 120.822699 454.628571 120.822699 
C 453.302556 120.822699 452.030672 121.34953 451.093038 122.287165 
C 450.155403 123.224799 449.628571 124.496683 449.628571 125.822699 
C 449.628571 127.148714 450.155403 128.420598 451.093038 129.358233 
C 452.030672 130.295867 453.302556 130.822699 454.628571 130.822699 
z
" style="fill:#1f77b4;stroke:#ffffff;stroke-width:0.8;"/>
    <path clip-path="url(#p7290ebd0f0)" d="M 454.628571 129.377778 
C 455.954587 129.377778 457.226471 128.850947 458.164105 127.913312 
C 459.10174 126.975678 459.628571 125.703794 459.628571 124.377778 
C 459.628571 123.051763 459.10174 121.779879 458.164105 120.842244 
C 457.226471 119.90461 455.954587 119.377778 454.628571 119.377778 
C 453.302556 119.377778 452.030672 119.90461 451.093038 120.842244 
C 450.155403 121.779879 449.628571 123.051763 449.628571 124.377778 
C 449.628571 125.703794 450.155403 126.975678 451.093038 127.913312 
C 452.030672 128.850947 453.302556 129.377778 454.628571 129.377778 
z
" style="fill:#ff7f0e;stroke:#ffffff;stroke-width:0.8;"/>
    <path clip-path="url(#p7290ebd0f0)" d="M 454.628571 103.50306 
C 455.954587 103.50306 457.226471 102.976228 458.164105 102.038594 
C 459.10174 101.100959 459.628571 99.829075 459.628571 98.50306 
C 459.628571 97.177044 459.10174 95.90516 458.164105 94.967526 
C 457.226471 94.029891 455.954587 93.50306 454.628571 93.50306 
C 453.302556 93.50306 452.030672 94.029891 451.093038 94.967526 
C 450.155403 95.90516 449.628571 97.177044 449.628571 98.50306 
C 449.628571 99.829075 450.155403 101.100959 451.093038 102.038594 
C 452.030672 102.976228 453.302556 103.50306 454.628571 103.50306 
z
" style="fill:#2ca02c;stroke:#ffffff;stroke-width:0.8;"/>
    <path clip-path="url(#p7290ebd0f0)" d="M 454.628571 87.215303 
C 455.954587 87.215303 457.226471 86.688471 458.164105 85.750837 
C 459.10174 84.813202 459.628571 83.541318 459.628571 82.215303 
C 459.628571 80.889287 459.10174 79.617403 458.164105 78.679769 
C 457.226471 77.742134 455.954587 77.215303 454.628571 77.215303 
C 453.302556 77.215303 452.030672 77.742134 451.093038 78.679769 
C 450.155403 79.617403 449.628571 80.889287 449.628571 82.215303 
C 449.628571 83.541318 450.155403 84.813202 451.093038 85.750837 
C 452.030672 86.688471 453.302556 87.215303 454.628571 87.215303 
z
" style="fill:#d62728;stroke:#ffffff;stroke-width:0.8;"/>
    <path clip-path="url(#p7290ebd0f0)" d="M 475.885714 197.368908 
C 477.21173 197.368908 478.483614 196.842077 479.421248 195.904442 
C 480.358883 194.966808 480.885714 193.694924 480.885714 192.368908 
C 480.885714 191.042893 480.358883 189.771009 479.421248 188.833374 
C 478.483614 187.89574 477.21173 187.368908 475.885714 187.368908 
C 474.559699 187.368908 473.287815 187.89574 472.35018 188.833374 
C 471.412546 189.771009 470.885714 191.042893 470.885714 192.368908 
C 470.885714 193.694924 471.412546 194.966808 472.35018 195.904442 
C 473.287815 196.842077 474.559699 197.368908 475.885714 197.368908 
z
" style="fill:#1f77b4;stroke:#ffffff;stroke-width:0.8;"/>
    <path clip-path="url(#p7290ebd0f0)" d="M 475.885714 115.911383 
C 477.21173 115.911383 478.483614 115.384552 479.421248 114.446917 
C 480.358883 113.509282 480.885714 112.237399 480.885714 110.911383 
C 480.885714 109.585368 480.358883 108.313484 479.421248 107.375849 
C 478.483614 106.438215 477.21173 105.911383 475.885714 105.911383 
C 474.559699 105.911383 473.287815 106.438215 472.35018 107.375849 
C 471.412546 108.313484 470.885714 109.585368 470.885714 110.911383 
C 470.885714 112.237399 471.412546 113.509282 472.35018 114.446917 
C 473.287815 115.384552 474.559699 115.911383 475.885714 115.911383 
z
" style="fill:#ff7f0e;stroke:#ffffff;stroke-width:0.8;"/>
    <path clip-path="url(#p7290ebd0f0)" d="M 475.885714 115.307458 
C 477.21173 115.307458 478.483614 114.780627 479.421248 113.842992 
C 480.358883 112.905357 480.885714 111.633474 480.885714 110.307458 
C 480.885714 108.981443 480.358883 107.709559 479.421248 106.771924 
C 478.483614 105.83429 477.21173 105.307458 475.885714 105.307458 
C 474.559699 105.307458 473.287815 105.83429 472.35018 106.771924 
C 471.412546 107.709559 470.885714 108.981443 470.885714 110.307458 
C 470.885714 111.633474 471.412546 112.905357 472.35018 113.842992 
C 473.287815 114.780627 474.559699 115.307458 475.885714 115.307458 
z
" style="fill:#2ca02c;stroke:#ffffff;stroke-width:0.8;"/>
    <path clip-path="url(#p7290ebd0f0)" d="M 475.885714 138.328413 
C 477.21173 138.328413 478.483614 137.801581 479.421248 136.863947 
C 480.358883 135.926312 480.885714 134.654428 480.885714 133.328413 
C 480.885714 132.002397 480.358883 130.730513 479.421248 129.792879 
C 478.483614 128.855244 477.21173 128.328413 475.885714 128.328413 
C 474.559699 128.328413 473.287815 128.855244 472.35018 129.792879 
C 471.412546 130.730513 470.885714 132.002397 470.885714 133.328413 
C 470.885714 134.654428 471.412546 135.926312 472.35018 136.863947 
C 473.287815 137.801581 474.559699 138.328413 475.885714 138.328413 
z
" style="fill:#d62728;stroke:#ffffff;stroke-width:0.8;"/>
    <path clip-path="url(#p7290ebd0f0)" d="M 497.142857 159.13193 
C 498.468873 159.13193 499.740756 158.605099 500.678391 157.667464 
C 501.616026 156.72983 502.142857 155.457946 502.142857 154.13193 
C 502.142857 152.805915 501.616026 151.534031 500.678391 150.596397 
C 499.740756 149.658762 498.468873 149.13193 497.142857 149.13193 
C 495.816842 149.13193 494.544958 149.658762 493.607323 150.596397 
C 492.669689 151.534031 492.142857 152.805915 492.142857 154.13193 
C 492.142857 155.457946 492.669689 156.72983 493.607323 157.667464 
C 494.544958 158.605099 495.816842 159.13193 497.142857 159.13193 
z
" style="fill:#1f77b4;stroke:#ffffff;stroke-width:0.8;"/>
    <path clip-path="url(#p7290ebd0f0)" d="M 497.142857 136.110976 
C 498.468873 136.110976 499.740756 135.584144 500.678391 134.64651 
C 501.616026 133.708875 502.142857 132.436991 502.142857 131.110976 
C 502.142857 129.78496 501.616026 128.513077 500.678391 127.575442 
C 499.740756 126.637807 498.468873 126.110976 497.142857 126.110976 
C 495.816842 126.110976 494.544958 126.637807 493.607323 127.575442 
C 492.669689 128.513077 492.142857 129.78496 492.142857 131.110976 
C 492.142857 132.436991 492.669689 133.708875 493.607323 134.64651 
C 494.544958 135.584144 495.816842 136.110976 497.142857 136.110976 
z
" style="fill:#ff7f0e;stroke:#ffffff;stroke-width:0.8;"/>
    <path clip-path="url(#p7290ebd0f0)" d="M 497.142857 109.804905 
C 498.468873 109.804905 499.740756 109.278074 500.678391 108.340439 
C 501.616026 107.402805 502.142857 106.130921 502.142857 104.804905 
C 502.142857 103.47889 501.616026 102.207006 500.678391 101.269372 
C 499.740756 100.331737 498.468873 99.804905 497.142857 99.804905 
C 495.816842 99.804905 494.544958 100.331737 493.607323 101.269372 
C 492.669689 102.207006 492.142857 103.47889 492.142857 104.804905 
C 492.142857 106.130921 492.669689 107.402805 493.607323 108.340439 
C 494.544958 109.278074 495.816842 109.804905 497.142857 109.804905 
z
" style="fill:#2ca02c;stroke:#ffffff;stroke-width:0.8;"/>
    <path clip-path="url(#p7290ebd0f0)" d="M 497.142857 140.888256 
C 498.468873 140.888256 499.740756 140.361424 500.678391 139.423789 
C 501.616026 138.486155 502.142857 137.214271 502.142857 135.888256 
C 502.142857 134.56224 501.616026 133.290356 500.678391 132.352722 
C 499.740756 131.415087 498.468873 130.888256 497.142857 130.888256 
C 495.816842 130.888256 494.544958 131.415087 493.607323 132.352722 
C 492.669689 133.290356 492.142857 134.56224 492.142857 135.888256 
C 492.142857 137.214271 492.669689 138.486155 493.607323 139.423789 
C 494.544958 140.361424 495.816842 140.888256 497.142857 140.888256 
z
" style="fill:#d62728;stroke:#ffffff;stroke-width:0.8;"/>
   </g>
   <g id="PathCollection_2"/>
   <g id="PathCollection_3"/>
   <g id="PathCollection_4"/>
   <g id="PathCollection_5"/>
   <g id="matplotlib.axis_1">
    <g id="xtick_1">
     <g id="line2d_1">
      <defs>
       <path d="M 0 0 
L 0 3.5 
" id="mf6534a78a5" style="stroke:#000000;stroke-width:0.8;"/>
      </defs>
      <g>
       <use style="stroke:#000000;stroke-width:0.8;" x="72" xlink:href="#mf6534a78a5" y="252"/>
      </g>
     </g>
     <g id="text_1">
      <text style="font-family:DejaVu Sans;font-size:10px;font-stretch:normal;font-style:normal;font-weight:normal;text-anchor:middle;" transform="rotate(-0, 72, 266.598437)" x="72" y="266.598437">0</text>
     </g>
    </g>
    <g id="xtick_2">
     <g id="line2d_2">
      <g>
       <use style="stroke:#000000;stroke-width:0.8;" x="178.285714" xlink:href="#mf6534a78a5" y="252"/>
      </g>
     </g>
     <g id="text_2">
      <text style="font-family:DejaVu Sans;font-size:10px;font-stretch:normal;font-style:normal;font-weight:normal;text-anchor:middle;" transform="rotate(-0, 178.285714, 266.598437)" x="178.285714" y="266.598437">5</text>
     </g>
    </g>
    <g id="xtick_3">
     <g id="line2d_3">
      <g>
       <use style="stroke:#000000;stroke-width:0.8;" x="284.571429" xlink:href="#mf6534a78a5" y="252"/>
      </g>
     </g>
     <g id="text_3">
      <text style="font-family:DejaVu Sans;font-size:10px;font-stretch:normal;font-style:normal;font-weight:normal;text-anchor:middle;" transform="rotate(-0, 284.571429, 266.598437)" x="284.571429" y="266.598437">10</text>
     </g>
    </g>
    <g id="xtick_4">
     <g id="line2d_4">
      <g>
       <use style="stroke:#000000;stroke-width:0.8;" x="390.857143" xlink:href="#mf6534a78a5" y="252"/>
      </g>
     </g>
     <g id="text_4">
      <text style="font-family:DejaVu Sans;font-size:10px;font-stretch:normal;font-style:normal;font-weight:normal;text-anchor:middle;" transform="rotate(-0, 390.857143, 266.598437)" x="390.857143" y="266.598437">15</text>
     </g>
    </g>
    <g id="xtick_5">
     <g id="line2d_5">
      <g>
       <use style="stroke:#000000;stroke-width:0.8;" x="497.142857" xlink:href="#mf6534a78a5" y="252"/>
      </g>
     </g>
     <g id="text_5">
      <text style="font-family:DejaVu Sans;font-size:10px;font-stretch:normal;font-style:normal;font-weight:normal;text-anchor:middle;" transform="rotate(-0, 497.142857, 266.598437)" x="497.142857" y="266.598437">20</text>
     </g>
    </g>
    <g id="text_6">
     <text style="font-family:DejaVu Sans;font-size:10px;font-stretch:normal;font-style:normal;font-weight:normal;text-anchor:middle;" transform="rotate(-0, 295.2, 280.276563)" x="295.2" y="280.276563">NC</text>
    </g>
   </g>
   <g id="matplotlib.axis_2">
    <g id="ytick_1">
     <g id="line2d_6">
      <defs>
       <path d="M 0 0 
L -3.5 0 
" id="m87e9c44c8b" style="stroke:#000000;stroke-width:0.8;"/>
      </defs>
      <g>
       <use style="stroke:#000000;stroke-width:0.8;" x="72" xlink:href="#m87e9c44c8b" y="242.116364"/>
      </g>
     </g>
     <g id="text_7">
      <!-- $\mathdefault{10^{-6}}$ -->
      <g transform="translate(41.5 245.915582)">
       <text>
        <tspan style="font-family:DejaVu Sans;font-size:10px;font-style:book;font-weight:book;" x="0 6.362305" y="-0.9765625">10</tspan>
        <tspan style="font-family:DejaVu Sans;font-size:7px;font-style:book;font-weight:book;" x="12.820312 18.685547" y="-4.8046875">6</tspan>
       </text>
      </g>
     </g>
    </g>
    <g id="ytick_2">
     <g id="line2d_7">
      <g>
       <use style="stroke:#000000;stroke-width:0.8;" x="72" xlink:href="#m87e9c44c8b" y="203.879386"/>
      </g>
     </g>
     <g id="text_8">
      <!-- $\mathdefault{10^{-5}}$ -->
      <g transform="translate(41.5 207.678604)">
       <text>
        <tspan style="font-family:DejaVu Sans;font-size:10px;font-style:book;font-weight:book;" x="0 6.362305" y="-0.06406250000000036">10</tspan>
        <tspan style="font-family:DejaVu Sans;font-size:7px;font-style:book;font-weight:book;" x="12.820312 18.685547" y="-3.8921875000000004">5</tspan>
       </text>
      </g>
     </g>
    </g>
    <g id="ytick_3">
     <g id="line2d_8">
      <g>
       <use style="stroke:#000000;stroke-width:0.8;" x="72" xlink:href="#m87e9c44c8b" y="165.642408"/>
      </g>
     </g>
     <g id="text_9">
      <!-- $\mathdefault{10^{-4}}$ -->
      <g transform="translate(41.5 169.441627)">
       <text>
        <tspan style="font-family:DejaVu Sans;font-size:10px;font-style:book;font-weight:book;" x="0 6.362305" y="-0.06406250000000036">10</tspan>
        <tspan style="font-family:DejaVu Sans;font-size:7px;font-style:book;font-weight:book;" x="12.820312 18.685547" y="-3.8921875000000004">4</tspan>
       </text>
      </g>
     </g>
    </g>
    <g id="ytick_4">
     <g id="line2d_9">
      <g>
       <use style="stroke:#000000;stroke-width:0.8;" x="72" xlink:href="#m87e9c44c8b" y="127.40543"/>
      </g>
     </g>
     <g id="text_10">
      <!-- $\mathdefault{10^{-3}}$ -->
      <g transform="translate(41.5 131.204649)">
       <text>
        <tspan style="font-family:DejaVu Sans;font-size:10px;font-style:book;font-weight:book;" x="0 6.362305" y="-0.9765625">10</tspan>
        <tspan style="font-family:DejaVu Sans;font-size:7px;font-style:book;font-weight:book;" x="12.820312 18.685547" y="-4.8046875">3</tspan>
       </text>
      </g>
     </g>
    </g>
    <g id="ytick_5">
     <g id="line2d_10">
      <g>
       <use style="stroke:#000000;stroke-width:0.8;" x="72" xlink:href="#m87e9c44c8b" y="89.168452"/>
      </g>
     </g>
     <g id="text_11">
      <!-- $\mathdefault{10^{-2}}$ -->
      <g transform="translate(41.5 92.967671)">
       <text>
        <tspan style="font-family:DejaVu Sans;font-size:10px;font-style:book;font-weight:book;" x="0 6.362305" y="-0.9765625">10</tspan>
        <tspan style="font-family:DejaVu Sans;font-size:7px;font-style:book;font-weight:book;" x="12.820312 18.685547" y="-4.8046875">2</tspan>
       </text>
      </g>
     </g>
    </g>
    <g id="ytick_6">
     <g id="line2d_11">
      <g>
       <use style="stroke:#000000;stroke-width:0.8;" x="72" xlink:href="#m87e9c44c8b" y="50.931474"/>
      </g>
     </g>
     <g id="text_12">
      <!-- $\mathdefault{10^{-1}}$ -->
      <g transform="translate(41.5 54.730693)">
       <text>
        <tspan style="font-family:DejaVu Sans;font-size:10px;font-style:book;font-weight:book;" x="0 6.362305" y="-0.06406250000000036">10</tspan>
        <tspan style="font-family:DejaVu Sans;font-size:7px;font-style:book;font-weight:book;" x="12.820312 18.685547" y="-3.8921875000000004">1</tspan>
       </text>
      </g>
     </g>
    </g>
    <g id="ytick_7">
     <g id="line2d_12">
      <defs>
       <path d="M 0 0 
L -2 0 
" id="m410ce2d580" style="stroke:#000000;stroke-width:0.6;"/>
      </defs>
      <g>
       <use style="stroke:#000000;stroke-width:0.6;" x="72" xlink:href="#m410ce2d580" y="250.599189"/>
      </g>
     </g>
    </g>
    <g id="ytick_8">
     <g id="line2d_13">
      <g>
       <use style="stroke:#000000;stroke-width:0.6;" x="72" xlink:href="#m410ce2d580" y="248.039346"/>
      </g>
     </g>
    </g>
    <g id="ytick_9">
     <g id="line2d_14">
      <g>
       <use style="stroke:#000000;stroke-width:0.6;" x="72" xlink:href="#m410ce2d580" y="245.82191"/>
      </g>
     </g>
    </g>
    <g id="ytick_10">
     <g id="line2d_15">
      <g>
       <use style="stroke:#000000;stroke-width:0.6;" x="72" xlink:href="#m410ce2d580" y="243.865992"/>
      </g>
     </g>
    </g>
    <g id="ytick_11">
     <g id="line2d_16">
      <g>
       <use style="stroke:#000000;stroke-width:0.6;" x="72" xlink:href="#m410ce2d580" y="230.605886"/>
      </g>
     </g>
    </g>
    <g id="ytick_12">
     <g id="line2d_17">
      <g>
       <use style="stroke:#000000;stroke-width:0.6;" x="72" xlink:href="#m410ce2d580" y="223.872689"/>
      </g>
     </g>
    </g>
    <g id="ytick_13">
     <g id="line2d_18">
      <g>
       <use style="stroke:#000000;stroke-width:0.6;" x="72" xlink:href="#m410ce2d580" y="219.095409"/>
      </g>
     </g>
    </g>
    <g id="ytick_14">
     <g id="line2d_19">
      <g>
       <use style="stroke:#000000;stroke-width:0.6;" x="72" xlink:href="#m410ce2d580" y="215.389863"/>
      </g>
     </g>
    </g>
    <g id="ytick_15">
     <g id="line2d_20">
      <g>
       <use style="stroke:#000000;stroke-width:0.6;" x="72" xlink:href="#m410ce2d580" y="212.362211"/>
      </g>
     </g>
    </g>
    <g id="ytick_16">
     <g id="line2d_21">
      <g>
       <use style="stroke:#000000;stroke-width:0.6;" x="72" xlink:href="#m410ce2d580" y="209.802369"/>
      </g>
     </g>
    </g>
    <g id="ytick_17">
     <g id="line2d_22">
      <g>
       <use style="stroke:#000000;stroke-width:0.6;" x="72" xlink:href="#m410ce2d580" y="207.584932"/>
      </g>
     </g>
    </g>
    <g id="ytick_18">
     <g id="line2d_23">
      <g>
       <use style="stroke:#000000;stroke-width:0.6;" x="72" xlink:href="#m410ce2d580" y="205.629014"/>
      </g>
     </g>
    </g>
    <g id="ytick_19">
     <g id="line2d_24">
      <g>
       <use style="stroke:#000000;stroke-width:0.6;" x="72" xlink:href="#m410ce2d580" y="192.368908"/>
      </g>
     </g>
    </g>
    <g id="ytick_20">
     <g id="line2d_25">
      <g>
       <use style="stroke:#000000;stroke-width:0.6;" x="72" xlink:href="#m410ce2d580" y="185.635711"/>
      </g>
     </g>
    </g>
    <g id="ytick_21">
     <g id="line2d_26">
      <g>
       <use style="stroke:#000000;stroke-width:0.6;" x="72" xlink:href="#m410ce2d580" y="180.858431"/>
      </g>
     </g>
    </g>
    <g id="ytick_22">
     <g id="line2d_27">
      <g>
       <use style="stroke:#000000;stroke-width:0.6;" x="72" xlink:href="#m410ce2d580" y="177.152885"/>
      </g>
     </g>
    </g>
    <g id="ytick_23">
     <g id="line2d_28">
      <g>
       <use style="stroke:#000000;stroke-width:0.6;" x="72" xlink:href="#m410ce2d580" y="174.125234"/>
      </g>
     </g>
    </g>
    <g id="ytick_24">
     <g id="line2d_29">
      <g>
       <use style="stroke:#000000;stroke-width:0.6;" x="72" xlink:href="#m410ce2d580" y="171.565391"/>
      </g>
     </g>
    </g>
    <g id="ytick_25">
     <g id="line2d_30">
      <g>
       <use style="stroke:#000000;stroke-width:0.6;" x="72" xlink:href="#m410ce2d580" y="169.347954"/>
      </g>
     </g>
    </g>
    <g id="ytick_26">
     <g id="line2d_31">
      <g>
       <use style="stroke:#000000;stroke-width:0.6;" x="72" xlink:href="#m410ce2d580" y="167.392036"/>
      </g>
     </g>
    </g>
    <g id="ytick_27">
     <g id="line2d_32">
      <g>
       <use style="stroke:#000000;stroke-width:0.6;" x="72" xlink:href="#m410ce2d580" y="154.13193"/>
      </g>
     </g>
    </g>
    <g id="ytick_28">
     <g id="line2d_33">
      <g>
       <use style="stroke:#000000;stroke-width:0.6;" x="72" xlink:href="#m410ce2d580" y="147.398733"/>
      </g>
     </g>
    </g>
    <g id="ytick_29">
     <g id="line2d_34">
      <g>
       <use style="stroke:#000000;stroke-width:0.6;" x="72" xlink:href="#m410ce2d580" y="142.621453"/>
      </g>
     </g>
    </g>
    <g id="ytick_30">
     <g id="line2d_35">
      <g>
       <use style="stroke:#000000;stroke-width:0.6;" x="72" xlink:href="#m410ce2d580" y="138.915907"/>
      </g>
     </g>
    </g>
    <g id="ytick_31">
     <g id="line2d_36">
      <g>
       <use style="stroke:#000000;stroke-width:0.6;" x="72" xlink:href="#m410ce2d580" y="135.888256"/>
      </g>
     </g>
    </g>
    <g id="ytick_32">
     <g id="line2d_37">
      <g>
       <use style="stroke:#000000;stroke-width:0.6;" x="72" xlink:href="#m410ce2d580" y="133.328413"/>
      </g>
     </g>
    </g>
    <g id="ytick_33">
     <g id="line2d_38">
      <g>
       <use style="stroke:#000000;stroke-width:0.6;" x="72" xlink:href="#m410ce2d580" y="131.110976"/>
      </g>
     </g>
    </g>
    <g id="ytick_34">
     <g id="line2d_39">
      <g>
       <use style="stroke:#000000;stroke-width:0.6;" x="72" xlink:href="#m410ce2d580" y="129.155058"/>
      </g>
     </g>
    </g>
    <g id="ytick_35">
     <g id="line2d_40">
      <g>
       <use style="stroke:#000000;stroke-width:0.6;" x="72" xlink:href="#m410ce2d580" y="115.894953"/>
      </g>
     </g>
    </g>
    <g id="ytick_36">
     <g id="line2d_41">
      <g>
       <use style="stroke:#000000;stroke-width:0.6;" x="72" xlink:href="#m410ce2d580" y="109.161755"/>
      </g>
     </g>
    </g>
    <g id="ytick_37">
     <g id="line2d_42">
      <g>
       <use style="stroke:#000000;stroke-width:0.6;" x="72" xlink:href="#m410ce2d580" y="104.384475"/>
      </g>
     </g>
    </g>
    <g id="ytick_38">
     <g id="line2d_43">
      <g>
       <use style="stroke:#000000;stroke-width:0.6;" x="72" xlink:href="#m410ce2d580" y="100.678929"/>
      </g>
     </g>
    </g>
    <g id="ytick_39">
     <g id="line2d_44">
      <g>
       <use style="stroke:#000000;stroke-width:0.6;" x="72" xlink:href="#m410ce2d580" y="97.651278"/>
      </g>
     </g>
    </g>
    <g id="ytick_40">
     <g id="line2d_45">
      <g>
       <use style="stroke:#000000;stroke-width:0.6;" x="72" xlink:href="#m410ce2d580" y="95.091435"/>
      </g>
     </g>
    </g>
    <g id="ytick_41">
     <g id="line2d_46">
      <g>
       <use style="stroke:#000000;stroke-width:0.6;" x="72" xlink:href="#m410ce2d580" y="92.873998"/>
      </g>
     </g>
    </g>
    <g id="ytick_42">
     <g id="line2d_47">
      <g>
       <use style="stroke:#000000;stroke-width:0.6;" x="72" xlink:href="#m410ce2d580" y="90.91808"/>
      </g>
     </g>
    </g>
    <g id="ytick_43">
     <g id="line2d_48">
      <g>
       <use style="stroke:#000000;stroke-width:0.6;" x="72" xlink:href="#m410ce2d580" y="77.657975"/>
      </g>
     </g>
    </g>
    <g id="ytick_44">
     <g id="line2d_49">
      <g>
       <use style="stroke:#000000;stroke-width:0.6;" x="72" xlink:href="#m410ce2d580" y="70.924777"/>
      </g>
     </g>
    </g>
    <g id="ytick_45">
     <g id="line2d_50">
      <g>
       <use style="stroke:#000000;stroke-width:0.6;" x="72" xlink:href="#m410ce2d580" y="66.147497"/>
      </g>
     </g>
    </g>
    <g id="ytick_46">
     <g id="line2d_51">
      <g>
       <use style="stroke:#000000;stroke-width:0.6;" x="72" xlink:href="#m410ce2d580" y="62.441951"/>
      </g>
     </g>
    </g>
    <g id="ytick_47">
     <g id="line2d_52">
      <g>
       <use style="stroke:#000000;stroke-width:0.6;" x="72" xlink:href="#m410ce2d580" y="59.4143"/>
      </g>
     </g>
    </g>
    <g id="ytick_48">
     <g id="line2d_53">
      <g>
       <use style="stroke:#000000;stroke-width:0.6;" x="72" xlink:href="#m410ce2d580" y="56.854457"/>
      </g>
     </g>
    </g>
    <g id="ytick_49">
     <g id="line2d_54">
      <g>
       <use style="stroke:#000000;stroke-width:0.6;" x="72" xlink:href="#m410ce2d580" y="54.63702"/>
      </g>
     </g>
    </g>
    <g id="ytick_50">
     <g id="line2d_55">
      <g>
       <use style="stroke:#000000;stroke-width:0.6;" x="72" xlink:href="#m410ce2d580" y="52.681102"/>
      </g>
     </g>
    </g>
    <g id="ytick_51">
     <g id="line2d_56">
      <g>
       <use style="stroke:#000000;stroke-width:0.6;" x="72" xlink:href="#m410ce2d580" y="39.420997"/>
      </g>
     </g>
    </g>
    <g id="text_13">
     <text style="font-family:DejaVu Sans;font-size:10px;font-stretch:normal;font-style:normal;font-weight:normal;text-anchor:middle;" transform="rotate(-90, 35.420312, 143.28)" x="35.420312" y="143.28">P-value</text>
    </g>
   </g>
   <g id="line2d_57">
    <path clip-path="url(#p7290ebd0f0)" d="M 93.257143 102.063573 
L 114.514286 44.443636 
L 135.771429 62.94776 
L 157.028571 113.574051 
L 178.285714 154.13193 
L 199.542857 185.635711 
L 220.8 147.398733 
L 242.057143 185.635711 
L 263.314286 135.888256 
L 284.571429 124.377778 
L 305.828571 123.04858 
L 327.085714 147.398733 
L 348.342857 138.915907 
L 369.6 147.398733 
L 390.857143 142.621453 
L 412.114286 180.858431 
L 433.371429 147.398733 
L 454.628571 125.822699 
L 475.885714 192.368908 
L 497.142857 154.13193 
" style="fill:none;stroke:#1f77b4;stroke-linecap:square;stroke-width:1.5;"/>
   </g>
   <g id="line2d_58">
    <path clip-path="url(#p7290ebd0f0)" d="M 93.257143 154.13193 
L 114.514286 85.199311 
L 135.771429 131.110976 
L 157.028571 120.672232 
L 178.285714 119.600499 
L 199.542857 138.915907 
L 220.8 135.888256 
L 242.057143 142.621453 
L 263.314286 82.435254 
L 284.571429 112.189406 
L 305.828571 100.350085 
L 327.085714 106.134103 
L 348.342857 74.630323 
L 369.6 104.804905 
L 390.857143 131.110976 
L 412.114286 95.818826 
L 433.371429 87.585721 
L 454.628571 124.377778 
L 475.885714 110.911383 
L 497.142857 131.110976 
" style="fill:none;stroke:#ff7f0e;stroke-linecap:square;stroke-width:1.5;"/>
   </g>
   <g id="line2d_59">
    <path clip-path="url(#p7290ebd0f0)" d="M 93.257143 242.116364 
L 114.514286 185.635711 
L 135.771429 154.13193 
L 157.028571 142.621453 
L 178.285714 109.724728 
L 199.542857 147.398733 
L 220.8 162.614756 
L 242.057143 158.90921 
L 263.314286 154.13193 
L 284.571429 154.13193 
L 305.828571 107.579024 
L 327.085714 125.822699 
L 348.342857 131.110976 
L 369.6 95.572805 
L 390.857143 131.110976 
L 412.114286 154.13193 
L 433.371429 124.377778 
L 454.628571 98.50306 
L 475.885714 110.307458 
L 497.142857 104.804905 
" style="fill:none;stroke:#2ca02c;stroke-linecap:square;stroke-width:1.5;"/>
   </g>
   <g id="line2d_60">
    <path clip-path="url(#p7290ebd0f0)" d="M 93.257143 89.846346 
L 114.514286 46.396746 
L 135.771429 44.761249 
L 157.028571 84.062328 
L 178.285714 73.952429 
L 199.542857 105.679113 
L 220.8 118.59376 
L 242.057143 77.492738 
L 263.314286 112.867301 
L 284.571429 129.155058 
L 305.828571 72.49091 
L 327.085714 92.063783 
L 348.342857 105.679113 
L 369.6 93.945732 
L 390.857143 116.746735 
L 412.114286 121.817935 
L 433.371429 109.724728 
L 454.628571 82.215303 
L 475.885714 133.328413 
L 497.142857 135.888256 
" style="fill:none;stroke:#d62728;stroke-linecap:square;stroke-width:1.5;"/>
   </g>
   <g id="line2d_61"/>
   <g id="line2d_62"/>
   <g id="line2d_63"/>
   <g id="line2d_64"/>
   <g id="line2d_65">
    <path clip-path="url(#p7290ebd0f0)" d="M 72 62.441951 
L 518.4 62.441951 
" style="fill:none;stroke:#000000;stroke-dasharray:5.55,2.4;stroke-dashoffset:0;stroke-width:1.5;"/>
   </g>
   <g id="patch_3">
    <path d="M 72 252 
L 72 34.56 
" style="fill:none;stroke:#000000;stroke-linecap:square;stroke-linejoin:miter;stroke-width:0.8;"/>
   </g>
   <g id="patch_4">
    <path d="M 518.4 252 
L 518.4 34.56 
" style="fill:none;stroke:#000000;stroke-linecap:square;stroke-linejoin:miter;stroke-width:0.8;"/>
   </g>
   <g id="patch_5">
    <path d="M 72 252 
L 518.4 252 
" style="fill:none;stroke:#000000;stroke-linecap:square;stroke-linejoin:miter;stroke-width:0.8;"/>
   </g>
   <g id="patch_6">
    <path d="M 72 34.56 
L 518.4 34.56 
" style="fill:none;stroke:#000000;stroke-linecap:square;stroke-linejoin:miter;stroke-width:0.8;"/>
   </g>
   <g id="legend_1">
    <g id="patch_7">
     <path d="M 79 247 
L 164.64375 247 
Q 166.64375 247 166.64375 245 
L 166.64375 113.896875 
Q 166.64375 111.896875 164.64375 111.896875 
L 79 111.896875 
Q 77 111.896875 77 113.896875 
L 77 245 
Q 77 247 79 247 
z
" style="fill:#ffffff;opacity:0.8;stroke:#cccccc;stroke-linejoin:miter;"/>
    </g>
    <g id="text_14">
     <text style="font-family:DejaVu Sans;font-size:10px;font-stretch:normal;font-style:normal;font-weight:normal;text-anchor:start;" transform="rotate(-0, 101.576563, 123.495313)" x="101.576563" y="123.495313">Variable</text>
    </g>
    <g id="line2d_66">
     <path d="M 81 134.673438 
L 101 134.673438 
" style="fill:none;stroke:#1f77b4;stroke-linecap:square;stroke-width:1.5;"/>
    </g>
    <g id="line2d_67"/>
    <g id="text_15">
     <text style="font-family:DejaVu Sans;font-size:10px;font-stretch:normal;font-style:normal;font-weight:normal;text-anchor:start;" transform="rotate(-0, 109, 138.173438)" x="109" y="138.173438">Acetate</text>
    </g>
    <g id="line2d_68">
     <path d="M 81 149.351563 
L 101 149.351563 
" style="fill:none;stroke:#ff7f0e;stroke-linecap:square;stroke-width:1.5;"/>
    </g>
    <g id="line2d_69"/>
    <g id="text_16">
     <text style="font-family:DejaVu Sans;font-size:10px;font-stretch:normal;font-style:normal;font-weight:normal;text-anchor:start;" transform="rotate(-0, 109, 152.851563)" x="109" y="152.851563">Propionate</text>
    </g>
    <g id="line2d_70">
     <path d="M 81 164.029688 
L 101 164.029688 
" style="fill:none;stroke:#2ca02c;stroke-linecap:square;stroke-width:1.5;"/>
    </g>
    <g id="line2d_71"/>
    <g id="text_17">
     <text style="font-family:DejaVu Sans;font-size:10px;font-stretch:normal;font-style:normal;font-weight:normal;text-anchor:start;" transform="rotate(-0, 109, 167.529688)" x="109" y="167.529688">Butyrate</text>
    </g>
    <g id="line2d_72">
     <path d="M 81 178.707813 
L 101 178.707813 
" style="fill:none;stroke:#d62728;stroke-linecap:square;stroke-width:1.5;"/>
    </g>
    <g id="line2d_73"/>
    <g id="text_18">
     <text style="font-family:DejaVu Sans;font-size:10px;font-stretch:normal;font-style:normal;font-weight:normal;text-anchor:start;" transform="rotate(-0, 109, 182.207813)" x="109" y="182.207813">Total</text>
    </g>
    <g id="PathCollection_6">
     <defs>
      <path d="M 0 3 
C 0.795609 3 1.55874 2.683901 2.12132 2.12132 
C 2.683901 1.55874 3 0.795609 3 0 
C 3 -0.795609 2.683901 -1.55874 2.12132 -2.12132 
C 1.55874 -2.683901 0.795609 -3 0 -3 
C -0.795609 -3 -1.55874 -2.683901 -2.12132 -2.12132 
C -2.683901 -1.55874 -3 -0.795609 -3 0 
C -3 0.795609 -2.683901 1.55874 -2.12132 2.12132 
C -1.55874 2.683901 -0.795609 3 0 3 
z
" id="mfc46a79adc" style="stroke:#1f77b4;"/>
     </defs>
     <g>
      <use style="fill:#1f77b4;stroke:#1f77b4;" x="91" xlink:href="#mfc46a79adc" y="194.260938"/>
     </g>
    </g>
    <g id="text_19">
     <text style="font-family:DejaVu Sans;font-size:10px;font-stretch:normal;font-style:normal;font-weight:normal;text-anchor:start;" transform="rotate(-0, 109, 196.885938)" x="109" y="196.885938">Acetate</text>
    </g>
    <g id="PathCollection_7">
     <defs>
      <path d="M 0 3 
C 0.795609 3 1.55874 2.683901 2.12132 2.12132 
C 2.683901 1.55874 3 0.795609 3 0 
C 3 -0.795609 2.683901 -1.55874 2.12132 -2.12132 
C 1.55874 -2.683901 0.795609 -3 0 -3 
C -0.795609 -3 -1.55874 -2.683901 -2.12132 -2.12132 
C -2.683901 -1.55874 -3 -0.795609 -3 0 
C -3 0.795609 -2.683901 1.55874 -2.12132 2.12132 
C -1.55874 2.683901 -0.795609 3 0 3 
z
" id="mc821f42c8f" style="stroke:#ff7f0e;"/>
     </defs>
     <g>
      <use style="fill:#ff7f0e;stroke:#ff7f0e;" x="91" xlink:href="#mc821f42c8f" y="208.939063"/>
     </g>
    </g>
    <g id="text_20">
     <text style="font-family:DejaVu Sans;font-size:10px;font-stretch:normal;font-style:normal;font-weight:normal;text-anchor:start;" transform="rotate(-0, 109, 211.564063)" x="109" y="211.564063">Propionate</text>
    </g>
    <g id="PathCollection_8">
     <defs>
      <path d="M 0 3 
C 0.795609 3 1.55874 2.683901 2.12132 2.12132 
C 2.683901 1.55874 3 0.795609 3 0 
C 3 -0.795609 2.683901 -1.55874 2.12132 -2.12132 
C 1.55874 -2.683901 0.795609 -3 0 -3 
C -0.795609 -3 -1.55874 -2.683901 -2.12132 -2.12132 
C -2.683901 -1.55874 -3 -0.795609 -3 0 
C -3 0.795609 -2.683901 1.55874 -2.12132 2.12132 
C -1.55874 2.683901 -0.795609 3 0 3 
z
" id="m8c1631de30" style="stroke:#2ca02c;"/>
     </defs>
     <g>
      <use style="fill:#2ca02c;stroke:#2ca02c;" x="91" xlink:href="#m8c1631de30" y="223.617188"/>
     </g>
    </g>
    <g id="text_21">
     <text style="font-family:DejaVu Sans;font-size:10px;font-stretch:normal;font-style:normal;font-weight:normal;text-anchor:start;" transform="rotate(-0, 109, 226.242188)" x="109" y="226.242188">Butyrate</text>
    </g>
    <g id="PathCollection_9">
     <defs>
      <path d="M 0 3 
C 0.795609 3 1.55874 2.683901 2.12132 2.12132 
C 2.683901 1.55874 3 0.795609 3 0 
C 3 -0.795609 2.683901 -1.55874 2.12132 -2.12132 
C 1.55874 -2.683901 0.795609 -3 0 -3 
C -0.795609 -3 -1.55874 -2.683901 -2.12132 -2.12132 
C -2.683901 -1.55874 -3 -0.795609 -3 0 
C -3 0.795609 -2.683901 1.55874 -2.12132 2.12132 
C -1.55874 2.683901 -0.795609 3 0 3 
z
" id="m5bd4f1f3de" style="stroke:#d62728;"/>
     </defs>
     <g>
      <use style="fill:#d62728;stroke:#d62728;" x="91" xlink:href="#m5bd4f1f3de" y="238.295313"/>
     </g>
    </g>
    <g id="text_22">
     <text style="font-family:DejaVu Sans;font-size:10px;font-stretch:normal;font-style:normal;font-weight:normal;text-anchor:start;" transform="rotate(-0, 109, 240.920313)" x="109" y="240.920313">Total</text>
    </g>
   </g>
  </g>
 </g>
 <defs>
  <clipPath id="p7290ebd0f0">
   <rect height="217.44" width="446.4" x="72" y="34.56"/>
  </clipPath>
 </defs>
</svg>
