<?xml version="1.0" encoding="utf-8" standalone="no"?>
<!DOCTYPE svg PUBLIC "-//W3C//DTD SVG 1.1//EN"
  "http://www.w3.org/Graphics/SVG/1.1/DTD/svg11.dtd">
<!-- Created with matplotlib (https://matplotlib.org/) -->
<svg height="216pt" version="1.1" viewBox="0 0 216 216" width="216pt" xmlns="http://www.w3.org/2000/svg" xmlns:xlink="http://www.w3.org/1999/xlink">
 <metadata>
  <rdf:RDF xmlns:cc="http://creativecommons.org/ns#" xmlns:dc="http://purl.org/dc/elements/1.1/" xmlns:rdf="http://www.w3.org/1999/02/22-rdf-syntax-ns#">
   <cc:Work>
    <dc:type rdf:resource="http://purl.org/dc/dcmitype/StillImage"/>
    <dc:date>2021-05-03T21:06:51.263194</dc:date>
    <dc:format>image/svg+xml</dc:format>
    <dc:creator>
     <cc:Agent>
      <dc:title>Matplotlib v3.3.3, https://matplotlib.org/</dc:title>
     </cc:Agent>
    </dc:creator>
   </cc:Work>
  </rdf:RDF>
 </metadata>
 <defs>
  <style type="text/css">*{stroke-linecap:butt;stroke-linejoin:round;}</style>
 </defs>
 <g id="figure_1">
  <g id="patch_1">
   <path d="M 0 216 
L 216 216 
L 216 0 
L 0 0 
z
" style="fill:none;"/>
  </g>
  <g id="axes_1">
   <g id="patch_2">
    <path d="M 62.425 174.2 
L 205.2 174.2 
L 205.2 26.8 
L 62.425 26.8 
z
" style="fill:#ffffff;"/>
   </g>
   <g id="PathCollection_1">
    <path clip-path="url(#pfee3635bfc)" d="M 72.925863 119.278824 
L 67.925863 129.278824 
L 77.925863 129.278824 
z
" style="fill:#1f77b4;stroke:#ffffff;stroke-width:0.8;"/>
    <path clip-path="url(#pfee3635bfc)" d="M 73.978595 121.457316 
L 68.978595 131.457316 
L 78.978595 131.457316 
z
" style="fill:#1f77b4;stroke:#ffffff;stroke-width:0.8;"/>
    <path clip-path="url(#pfee3635bfc)" d="M 73.290933 120.882026 
L 68.290933 130.882026 
L 78.290933 130.882026 
z
" style="fill:#1f77b4;stroke:#ffffff;stroke-width:0.8;"/>
    <path clip-path="url(#pfee3635bfc)" d="M 73.982962 119.487546 
L 68.982962 129.487546 
L 78.982962 129.487546 
z
" style="fill:#1f77b4;stroke:#ffffff;stroke-width:0.8;"/>
    <path clip-path="url(#pfee3635bfc)" d="M 73.698288 120.142313 
L 68.698288 130.142313 
L 78.698288 130.142313 
z
" style="fill:#1f77b4;stroke:#ffffff;stroke-width:0.8;"/>
    <path clip-path="url(#pfee3635bfc)" d="M 115.545444 92.744627 
C 116.87146 92.744627 118.143344 92.217795 119.080978 91.280161 
C 120.018613 90.342526 120.545444 89.070642 120.545444 87.744627 
C 120.545444 86.418611 120.018613 85.146728 119.080978 84.209093 
C 118.143344 83.271458 116.87146 82.744627 115.545444 82.744627 
C 114.219429 82.744627 112.947545 83.271458 112.00991 84.209093 
C 111.072276 85.146728 110.545444 86.418611 110.545444 87.744627 
C 110.545444 89.070642 111.072276 90.342526 112.00991 91.280161 
C 112.947545 92.217795 114.219429 92.744627 115.545444 92.744627 
z
" style="fill:#1f77b4;stroke:#ffffff;stroke-width:0.8;"/>
    <path clip-path="url(#pfee3635bfc)" d="M 118.888848 79.730959 
C 120.214864 79.730959 121.486747 79.204128 122.424382 78.266493 
C 123.362017 77.328859 123.888848 76.056975 123.888848 74.730959 
C 123.888848 73.404944 123.362017 72.13306 122.424382 71.195425 
C 121.486747 70.257791 120.214864 69.730959 118.888848 69.730959 
C 117.562833 69.730959 116.290949 70.257791 115.353314 71.195425 
C 114.41568 72.13306 113.888848 73.404944 113.888848 74.730959 
C 113.888848 76.056975 114.41568 77.328859 115.353314 78.266493 
C 116.290949 79.204128 117.562833 79.730959 118.888848 79.730959 
z
" style="fill:#1f77b4;stroke:#ffffff;stroke-width:0.8;"/>
    <path clip-path="url(#pfee3635bfc)" d="M 82.15573 56.464651 
C 83.481745 56.464651 84.753629 55.937819 85.691263 55.000184 
C 86.628898 54.06255 87.15573 52.790666 87.15573 51.464651 
C 87.15573 50.138635 86.628898 48.866751 85.691263 47.929117 
C 84.753629 46.991482 83.481745 46.464651 82.15573 46.464651 
C 80.829714 46.464651 79.55783 46.991482 78.620196 47.929117 
C 77.682561 48.866751 77.15573 50.138635 77.15573 51.464651 
C 77.15573 52.790666 77.682561 54.06255 78.620196 55.000184 
C 79.55783 55.937819 80.829714 56.464651 82.15573 56.464651 
z
" style="fill:#1f77b4;stroke:#ffffff;stroke-width:0.8;"/>
    <path clip-path="url(#pfee3635bfc)" d="M 127.026837 69.804668 
C 128.352852 69.804668 129.624736 69.277836 130.562371 68.340202 
C 131.500005 67.402567 132.026837 66.130683 132.026837 64.804668 
C 132.026837 63.478652 131.500005 62.206769 130.562371 61.269134 
C 129.624736 60.3315 128.352852 59.804668 127.026837 59.804668 
C 125.700821 59.804668 124.428938 60.3315 123.491303 61.269134 
C 122.553668 62.206769 122.026837 63.478652 122.026837 64.804668 
C 122.026837 66.130683 122.553668 67.402567 123.491303 68.340202 
C 124.428938 69.277836 125.700821 69.804668 127.026837 69.804668 
z
" style="fill:#1f77b4;stroke:#ffffff;stroke-width:0.8;"/>
    <path clip-path="url(#pfee3635bfc)" d="M 130.152123 111.731807 
C 131.478139 111.731807 132.750023 111.204976 133.687657 110.267341 
C 134.625292 109.329707 135.152123 108.057823 135.152123 106.731807 
C 135.152123 105.405792 134.625292 104.133908 133.687657 103.196273 
C 132.750023 102.258639 131.478139 101.731807 130.152123 101.731807 
C 128.826108 101.731807 127.554224 102.258639 126.616589 103.196273 
C 125.678955 104.133908 125.152123 105.405792 125.152123 106.731807 
C 125.152123 108.057823 125.678955 109.329707 126.616589 110.267341 
C 127.554224 111.204976 128.826108 111.731807 130.152123 111.731807 
z
" style="fill:#1f77b4;stroke:#ffffff;stroke-width:0.8;"/>
    <path clip-path="url(#pfee3635bfc)" d="M 147.565539 95.732616 
C 148.891555 95.732616 150.163439 95.205784 151.101073 94.26815 
C 152.038708 93.330515 152.565539 92.058631 152.565539 90.732616 
C 152.565539 89.4066 152.038708 88.134716 151.101073 87.197082 
C 150.163439 86.259447 148.891555 85.732616 147.565539 85.732616 
C 146.239524 85.732616 144.96764 86.259447 144.030005 87.197082 
C 143.092371 88.134716 142.565539 89.4066 142.565539 90.732616 
C 142.565539 92.058631 143.092371 93.330515 144.030005 94.26815 
C 144.96764 95.205784 146.239524 95.732616 147.565539 95.732616 
z
" style="fill:#ff7f0e;stroke:#ffffff;stroke-width:0.8;"/>
    <path clip-path="url(#pfee3635bfc)" d="M 136.805432 114.206393 
C 138.131447 114.206393 139.403331 113.679562 140.340966 112.741927 
C 141.2786 111.804292 141.805432 110.532409 141.805432 109.206393 
C 141.805432 107.880378 141.2786 106.608494 140.340966 105.670859 
C 139.403331 104.733225 138.131447 104.206393 136.805432 104.206393 
C 135.479416 104.206393 134.207532 104.733225 133.269898 105.670859 
C 132.332263 106.608494 131.805432 107.880378 131.805432 109.206393 
C 131.805432 110.532409 132.332263 111.804292 133.269898 112.741927 
C 134.207532 113.679562 135.479416 114.206393 136.805432 114.206393 
z
" style="fill:#ff7f0e;stroke:#ffffff;stroke-width:0.8;"/>
    <path clip-path="url(#pfee3635bfc)" d="M 173.410969 114.714779 
C 174.736985 114.714779 176.008869 114.187947 176.946503 113.250312 
C 177.884138 112.312678 178.410969 111.040794 178.410969 109.714779 
C 178.410969 108.388763 177.884138 107.116879 176.946503 106.179245 
C 176.008869 105.24161 174.736985 104.714779 173.410969 104.714779 
C 172.084954 104.714779 170.81307 105.24161 169.875436 106.179245 
C 168.937801 107.116879 168.410969 108.388763 168.410969 109.714779 
C 168.410969 111.040794 168.937801 112.312678 169.875436 113.250312 
C 170.81307 114.187947 172.084954 114.714779 173.410969 114.714779 
z
" style="fill:#ff7f0e;stroke:#ffffff;stroke-width:0.8;"/>
    <path clip-path="url(#pfee3635bfc)" d="M 72.314333 122.936748 
L 67.314333 132.936748 
L 77.314333 132.936748 
z
" style="fill:#ff7f0e;stroke:#ffffff;stroke-width:0.8;"/>
    <path clip-path="url(#pfee3635bfc)" d="M 105.852421 69.971624 
C 107.178437 69.971624 108.450321 69.444793 109.387955 68.507158 
C 110.32559 67.569524 110.852421 66.29764 110.852421 64.971624 
C 110.852421 63.645609 110.32559 62.373725 109.387955 61.436091 
C 108.450321 60.498456 107.178437 59.971624 105.852421 59.971624 
C 104.526406 59.971624 103.254522 60.498456 102.316887 61.436091 
C 101.379253 62.373725 100.852421 63.645609 100.852421 64.971624 
C 100.852421 66.29764 101.379253 67.569524 102.316887 68.507158 
C 103.254522 69.444793 104.526406 69.971624 105.852421 69.971624 
z
" style="fill:#ff7f0e;stroke:#ffffff;stroke-width:0.8;"/>
    <path clip-path="url(#pfee3635bfc)" d="M 71.008638 113.813008 
L 66.008638 123.813008 
L 76.008638 123.813008 
z
" style="fill:#ff7f0e;stroke:#ffffff;stroke-width:0.8;"/>
    <path clip-path="url(#pfee3635bfc)" d="M 76.18539 123.685301 
L 71.18539 133.685301 
L 81.18539 133.685301 
z
" style="fill:#ff7f0e;stroke:#ffffff;stroke-width:0.8;"/>
    <path clip-path="url(#pfee3635bfc)" d="M 72.563599 125.076902 
L 67.563599 135.076902 
L 77.563599 135.076902 
z
" style="fill:#ff7f0e;stroke:#ffffff;stroke-width:0.8;"/>
    <path clip-path="url(#pfee3635bfc)" d="M 75.804681 115.736066 
L 70.804681 125.736066 
L 80.804681 125.736066 
z
" style="fill:#ff7f0e;stroke:#ffffff;stroke-width:0.8;"/>
    <path clip-path="url(#pfee3635bfc)" d="M 132.650458 133.268437 
C 133.976474 133.268437 135.248357 132.741606 136.185992 131.803971 
C 137.123626 130.866337 137.650458 129.594453 137.650458 128.268437 
C 137.650458 126.942422 137.123626 125.670538 136.185992 124.732903 
C 135.248357 123.795269 133.976474 123.268437 132.650458 123.268437 
C 131.324443 123.268437 130.052559 123.795269 129.114924 124.732903 
C 128.17729 125.670538 127.650458 126.942422 127.650458 128.268437 
C 127.650458 129.594453 128.17729 130.866337 129.114924 131.803971 
C 130.052559 132.741606 131.324443 133.268437 132.650458 133.268437 
z
" style="fill:#2ca02c;stroke:#ffffff;stroke-width:0.8;"/>
    <path clip-path="url(#pfee3635bfc)" d="M 132.511551 123.345833 
C 133.837566 123.345833 135.10945 122.819001 136.047085 121.881367 
C 136.984719 120.943732 137.511551 119.671848 137.511551 118.345833 
C 137.511551 117.019817 136.984719 115.747933 136.047085 114.810299 
C 135.10945 113.872664 133.837566 113.345833 132.511551 113.345833 
C 131.185535 113.345833 129.913652 113.872664 128.976017 114.810299 
C 128.038382 115.747933 127.511551 117.019817 127.511551 118.345833 
C 127.511551 119.671848 128.038382 120.943732 128.976017 121.881367 
C 129.913652 122.819001 131.185535 123.345833 132.511551 123.345833 
z
" style="fill:#2ca02c;stroke:#ffffff;stroke-width:0.8;"/>
    <path clip-path="url(#pfee3635bfc)" d="M 127.700604 71.825012 
C 129.026619 71.825012 130.298503 71.298181 131.236137 70.360546 
C 132.173772 69.422912 132.700604 68.151028 132.700604 66.825012 
C 132.700604 65.498997 132.173772 64.227113 131.236137 63.289479 
C 130.298503 62.351844 129.026619 61.825012 127.700604 61.825012 
C 126.374588 61.825012 125.102704 62.351844 124.16507 63.289479 
C 123.227435 64.227113 122.700604 65.498997 122.700604 66.825012 
C 122.700604 68.151028 123.227435 69.422912 124.16507 70.360546 
C 125.102704 71.298181 126.374588 71.825012 127.700604 71.825012 
z
" style="fill:#2ca02c;stroke:#ffffff;stroke-width:0.8;"/>
    <path clip-path="url(#pfee3635bfc)" d="M 76.078158 116.09627 
L 71.078158 126.09627 
L 81.078158 126.09627 
z
" style="fill:#2ca02c;stroke:#ffffff;stroke-width:0.8;"/>
    <path clip-path="url(#pfee3635bfc)" d="M 111.857514 129.117355 
C 113.183529 129.117355 114.455413 128.590524 115.393048 127.652889 
C 116.330682 126.715255 116.857514 125.443371 116.857514 124.117355 
C 116.857514 122.79134 116.330682 121.519456 115.393048 120.581822 
C 114.455413 119.644187 113.183529 119.117355 111.857514 119.117355 
C 110.531498 119.117355 109.259615 119.644187 108.32198 120.581822 
C 107.384346 121.519456 106.857514 122.79134 106.857514 124.117355 
C 106.857514 125.443371 107.384346 126.715255 108.32198 127.652889 
C 109.259615 128.590524 110.531498 129.117355 111.857514 129.117355 
z
" style="fill:#2ca02c;stroke:#ffffff;stroke-width:0.8;"/>
    <path clip-path="url(#pfee3635bfc)" d="M 71.531854 119.944832 
L 66.531854 129.944832 
L 76.531854 129.944832 
z
" style="fill:#2ca02c;stroke:#ffffff;stroke-width:0.8;"/>
    <path clip-path="url(#pfee3635bfc)" d="M 72.785101 122.019709 
L 67.785101 132.019709 
L 77.785101 132.019709 
z
" style="fill:#2ca02c;stroke:#ffffff;stroke-width:0.8;"/>
    <path clip-path="url(#pfee3635bfc)" d="M 73.290544 123.086192 
L 68.290544 133.086192 
L 78.290544 133.086192 
z
" style="fill:#2ca02c;stroke:#ffffff;stroke-width:0.8;"/>
    <path clip-path="url(#pfee3635bfc)" d="M 74.190984 120.101022 
L 69.190984 130.101022 
L 79.190984 130.101022 
z
" style="fill:#2ca02c;stroke:#ffffff;stroke-width:0.8;"/>
    <path clip-path="url(#pfee3635bfc)" d="M 73.575328 90.08041 
C 74.901344 90.08041 76.173227 89.553578 77.110862 88.615944 
C 78.048497 87.678309 78.575328 86.406425 78.575328 85.08041 
C 78.575328 83.754394 78.048497 82.482511 77.110862 81.544876 
C 76.173227 80.607241 74.901344 80.08041 73.575328 80.08041 
C 72.249313 80.08041 70.977429 80.607241 70.039794 81.544876 
C 69.10216 82.482511 68.575328 83.754394 68.575328 85.08041 
C 68.575328 86.406425 69.10216 87.678309 70.039794 88.615944 
C 70.977429 89.553578 72.249313 90.08041 73.575328 90.08041 
z
" style="fill:#d62728;stroke:#ffffff;stroke-width:0.8;"/>
    <path clip-path="url(#pfee3635bfc)" d="M 73.575328 120.439695 
L 68.575328 130.439695 
L 78.575328 130.439695 
z
" style="fill:#d62728;stroke:#ffffff;stroke-width:0.8;"/>
    <path clip-path="url(#pfee3635bfc)" d="M 73.575328 120.332999 
L 68.575328 130.332999 
L 78.575328 130.332999 
z
" style="fill:#d62728;stroke:#ffffff;stroke-width:0.8;"/>
    <path clip-path="url(#pfee3635bfc)" d="M 73.575328 120.558813 
L 68.575328 130.558813 
L 78.575328 130.558813 
z
" style="fill:#d62728;stroke:#ffffff;stroke-width:0.8;"/>
    <path clip-path="url(#pfee3635bfc)" d="M 73.575328 119.19709 
L 68.575328 129.19709 
L 78.575328 129.19709 
z
" style="fill:#d62728;stroke:#ffffff;stroke-width:0.8;"/>
    <path clip-path="url(#pfee3635bfc)" d="M 73.575328 120.719428 
L 68.575328 130.719428 
L 78.575328 130.719428 
z
" style="fill:#d62728;stroke:#ffffff;stroke-width:0.8;"/>
    <path clip-path="url(#pfee3635bfc)" d="M 73.575328 99.980021 
C 74.901344 99.980021 76.173227 99.45319 77.110862 98.515555 
C 78.048497 97.577921 78.575328 96.306037 78.575328 94.980021 
C 78.575328 93.654006 78.048497 92.382122 77.110862 91.444488 
C 76.173227 90.506853 74.901344 89.980021 73.575328 89.980021 
C 72.249313 89.980021 70.977429 90.506853 70.039794 91.444488 
C 69.10216 92.382122 68.575328 93.654006 68.575328 94.980021 
C 68.575328 96.306037 69.10216 97.577921 70.039794 98.515555 
C 70.977429 99.45319 72.249313 99.980021 73.575328 99.980021 
z
" style="fill:#d62728;stroke:#ffffff;stroke-width:0.8;"/>
    <path clip-path="url(#pfee3635bfc)" d="M 73.575328 106.869149 
C 74.901344 106.869149 76.173227 106.342318 77.110862 105.404683 
C 78.048497 104.467049 78.575328 103.195165 78.575328 101.869149 
C 78.575328 100.543134 78.048497 99.27125 77.110862 98.333615 
C 76.173227 97.395981 74.901344 96.869149 73.575328 96.869149 
C 72.249313 96.869149 70.977429 97.395981 70.039794 98.333615 
C 69.10216 99.27125 68.575328 100.543134 68.575328 101.869149 
C 68.575328 103.195165 69.10216 104.467049 70.039794 105.404683 
C 70.977429 106.342318 72.249313 106.869149 73.575328 106.869149 
z
" style="fill:#d62728;stroke:#ffffff;stroke-width:0.8;"/>
    <path clip-path="url(#pfee3635bfc)" d="M 73.575328 105.142937 
C 74.901344 105.142937 76.173227 104.616106 77.110862 103.678471 
C 78.048497 102.740836 78.575328 101.468953 78.575328 100.142937 
C 78.575328 98.816922 78.048497 97.545038 77.110862 96.607403 
C 76.173227 95.669769 74.901344 95.142937 73.575328 95.142937 
C 72.249313 95.142937 70.977429 95.669769 70.039794 96.607403 
C 69.10216 97.545038 68.575328 98.816922 68.575328 100.142937 
C 68.575328 101.468953 69.10216 102.740836 70.039794 103.678471 
C 70.977429 104.616106 72.249313 105.142937 73.575328 105.142937 
z
" style="fill:#d62728;stroke:#ffffff;stroke-width:0.8;"/>
    <path clip-path="url(#pfee3635bfc)" d="M 73.575328 117.89075 
C 74.901344 117.89075 76.173227 117.363918 77.110862 116.426283 
C 78.048497 115.488649 78.575328 114.216765 78.575328 112.89075 
C 78.575328 111.564734 78.048497 110.29285 77.110862 109.355216 
C 76.173227 108.417581 74.901344 107.89075 73.575328 107.89075 
C 72.249313 107.89075 70.977429 108.417581 70.039794 109.355216 
C 69.10216 110.29285 68.575328 111.564734 68.575328 112.89075 
C 68.575328 114.216765 69.10216 115.488649 70.039794 116.426283 
C 70.977429 117.363918 72.249313 117.89075 73.575328 117.89075 
z
" style="fill:#d62728;stroke:#ffffff;stroke-width:0.8;"/>
   </g>
   <g id="PathCollection_2"/>
   <g id="PathCollection_3"/>
   <g id="PathCollection_4"/>
   <g id="PathCollection_5"/>
   <g id="PathCollection_6"/>
   <g id="PathCollection_7"/>
   <g id="patch_3">
    <path clip-path="url(#pfee3635bfc)" d="M 77.053495 132.997656 
C 77.844067 131.236559 78.235884 128.730971 78.142652 126.032718 
C 78.049421 123.334466 77.478754 120.663851 76.556333 118.609043 
C 75.633913 116.554236 74.43505 115.283003 73.223782 115.075319 
C 72.012513 114.867635 70.887733 115.740456 70.097161 117.501554 
C 69.30659 119.262651 68.914773 121.768239 69.008004 124.466491 
C 69.101235 127.164744 69.671902 129.835359 70.594323 131.890166 
C 71.516744 133.944974 72.715606 135.216206 73.926874 135.423891 
C 75.138143 135.631575 76.262923 134.758754 77.053495 132.997656 
z
" style="fill:#ff7f0e;opacity:0.3;"/>
   </g>
   <g id="patch_4">
    <path clip-path="url(#pfee3635bfc)" d="M 194.225746 133.81258 
C 198.710227 130.435059 197.393808 122.964303 190.566414 113.045661 
C 183.739019 103.12702 171.958077 91.570304 157.818202 80.920748 
C 143.678327 70.271192 128.333978 61.398285 115.164569 56.25618 
C 101.995161 51.114075 92.075916 50.122604 87.591435 53.500125 
C 83.106954 56.877647 84.423373 64.348403 91.250767 74.267044 
C 98.078162 84.185686 109.859104 95.742401 123.998979 106.391957 
C 138.138854 117.041513 153.483203 125.914421 166.652612 131.056526 
C 179.82202 136.198631 189.741265 137.190102 194.225746 133.81258 
z
" style="fill:#ff7f0e;opacity:0.3;"/>
   </g>
   <g id="patch_5">
    <path clip-path="url(#pfee3635bfc)" d="M 74.963669 127.434582 
C 75.785245 126.141584 76.426996 124.671146 76.747586 123.347116 
C 77.068176 122.023086 77.04143 120.953565 76.673237 120.374102 
C 76.305045 119.79464 75.625468 119.752546 74.784175 120.257092 
C 73.942883 120.761638 73.008562 121.771629 72.186987 123.064628 
C 71.365412 124.357626 70.72366 125.828064 70.40307 127.152094 
C 70.08248 128.476123 70.109226 129.545645 70.477419 130.125107 
C 70.845611 130.70457 71.525188 130.746664 72.366481 130.242118 
C 73.207774 129.737572 74.142094 128.727581 74.963669 127.434582 
z
" style="fill:#2ca02c;opacity:0.3;"/>
   </g>
   <g id="patch_6">
    <path clip-path="url(#pfee3635bfc)" d="M 139.249974 147.535795 
C 143.139021 136.185016 145.492174 121.278236 145.791179 106.098502 
C 146.090184 90.918767 144.310629 76.705437 140.84444 66.588831 
C 137.378251 56.472224 132.508426 51.278319 127.307489 52.151012 
C 122.106552 53.023704 116.999135 59.891744 113.110089 71.242524 
C 109.221042 82.593303 106.867889 97.500083 106.568884 112.679817 
C 106.269879 127.859552 108.049434 142.072882 111.515623 152.189488 
C 114.981813 162.306095 119.851637 167.5 125.052574 166.627307 
C 130.253511 165.754615 135.360928 158.886575 139.249974 147.535795 
z
" style="fill:#2ca02c;opacity:0.3;"/>
   </g>
   <g id="patch_7">
    <path clip-path="url(#pfee3635bfc)" d="M 74.33467 126.769814 
C 74.472472 126.493933 74.524639 126.069135 74.479683 125.588977 
C 74.434727 125.10882 74.296318 124.612505 74.094938 124.209341 
C 73.893558 123.806177 73.64565 123.52908 73.405812 123.439077 
C 73.165974 123.349075 72.953789 123.453515 72.815987 123.729396 
C 72.678184 124.005277 72.626017 124.430075 72.670973 124.910232 
C 72.715929 125.39039 72.854339 125.886704 73.055718 126.289869 
C 73.257098 126.693033 73.505006 126.97013 73.744844 127.060132 
C 73.984682 127.150135 74.196868 127.045695 74.33467 126.769814 
z
" style="fill:#1f77b4;opacity:0.3;"/>
   </g>
   <g id="patch_8">
    <path clip-path="url(#pfee3635bfc)" d="M 150.079641 116.268755 
C 154.014848 111.90494 154.067254 103.591709 150.225319 93.159957 
C 146.383384 82.728204 138.960783 71.029636 129.59226 60.640726 
C 120.223736 50.251815 109.674188 42.020771 100.26703 37.760386 
C 90.859872 33.5 83.363158 33.558114 79.427951 37.92193 
C 75.492745 42.285745 75.440338 50.598975 79.282274 61.030728 
C 83.124209 71.46248 90.54681 83.161049 99.915333 93.549959 
C 109.283857 103.93887 119.833405 112.169914 129.240563 116.430299 
C 138.647721 120.690685 146.144435 120.63257 150.079641 116.268755 
z
" style="fill:#1f77b4;opacity:0.3;"/>
   </g>
   <g id="matplotlib.axis_1">
    <g id="xtick_1">
     <g id="line2d_1">
      <defs>
       <path d="M 0 0 
L 0 3.5 
" id="m2423fb68e8" style="stroke:#000000;stroke-width:0.8;"/>
      </defs>
      <g>
       <use style="stroke:#000000;stroke-width:0.8;" x="73.575328" xlink:href="#m2423fb68e8" y="174.2"/>
      </g>
     </g>
     <g id="text_1">
      <text style="font-family:DejaVu Sans;font-size:10px;font-stretch:normal;font-style:normal;font-weight:normal;text-anchor:middle;" transform="rotate(-0, 73.575328, 188.798438)" x="73.575328" y="188.798438">0</text>
     </g>
    </g>
    <g id="xtick_2">
     <g id="line2d_2">
      <g>
       <use style="stroke:#000000;stroke-width:0.8;" x="131.817995" xlink:href="#m2423fb68e8" y="174.2"/>
      </g>
     </g>
     <g id="text_2">
      <text style="font-family:DejaVu Sans;font-size:10px;font-stretch:normal;font-style:normal;font-weight:normal;text-anchor:middle;" transform="rotate(-0, 131.817995, 188.798438)" x="131.817995" y="188.798438">1</text>
     </g>
    </g>
    <g id="xtick_3">
     <g id="line2d_3">
      <g>
       <use style="stroke:#000000;stroke-width:0.8;" x="190.060662" xlink:href="#m2423fb68e8" y="174.2"/>
      </g>
     </g>
     <g id="text_3">
      <text style="font-family:DejaVu Sans;font-size:10px;font-stretch:normal;font-style:normal;font-weight:normal;text-anchor:middle;" transform="rotate(-0, 190.060662, 188.798438)" x="190.060662" y="188.798438">2</text>
     </g>
    </g>
    <g id="text_4">
     <text style="font-family:DejaVu Sans;font-size:10px;font-stretch:normal;font-style:normal;font-weight:normal;text-anchor:middle;" transform="rotate(-0, 133.8125, 202.476562)" x="133.8125" y="202.476562">Factor 1 (68.21)</text>
    </g>
   </g>
   <g id="matplotlib.axis_2">
    <g id="ytick_1">
     <g id="line2d_4">
      <defs>
       <path d="M 0 0 
L -3.5 0 
" id="mb9b5f27d78" style="stroke:#000000;stroke-width:0.8;"/>
      </defs>
      <g>
       <use style="stroke:#000000;stroke-width:0.8;" x="62.425" xlink:href="#mb9b5f27d78" y="166.212712"/>
      </g>
     </g>
     <g id="text_5">
      <text style="font-family:DejaVu Sans;font-size:10px;font-stretch:normal;font-style:normal;font-weight:normal;text-anchor:end;" transform="rotate(-0, 55.425, 170.01193)" x="55.425" y="170.01193">−0.5</text>
     </g>
    </g>
    <g id="ytick_2">
     <g id="line2d_5">
      <g>
       <use style="stroke:#000000;stroke-width:0.8;" x="62.425" xlink:href="#mb9b5f27d78" y="125.249605"/>
      </g>
     </g>
     <g id="text_6">
      <text style="font-family:DejaVu Sans;font-size:10px;font-stretch:normal;font-style:normal;font-weight:normal;text-anchor:end;" transform="rotate(-0, 55.425, 129.048824)" x="55.425" y="129.048824">0.0</text>
     </g>
    </g>
    <g id="ytick_3">
     <g id="line2d_6">
      <g>
       <use style="stroke:#000000;stroke-width:0.8;" x="62.425" xlink:href="#mb9b5f27d78" y="84.286498"/>
      </g>
     </g>
     <g id="text_7">
      <text style="font-family:DejaVu Sans;font-size:10px;font-stretch:normal;font-style:normal;font-weight:normal;text-anchor:end;" transform="rotate(-0, 55.425, 88.085717)" x="55.425" y="88.085717">0.5</text>
     </g>
    </g>
    <g id="ytick_4">
     <g id="line2d_7">
      <g>
       <use style="stroke:#000000;stroke-width:0.8;" x="62.425" xlink:href="#mb9b5f27d78" y="43.323392"/>
      </g>
     </g>
     <g id="text_8">
      <text style="font-family:DejaVu Sans;font-size:10px;font-stretch:normal;font-style:normal;font-weight:normal;text-anchor:end;" transform="rotate(-0, 55.425, 47.12261)" x="55.425" y="47.12261">1.0</text>
     </g>
    </g>
    <g id="text_9">
     <text style="font-family:DejaVu Sans;font-size:10px;font-stretch:normal;font-style:normal;font-weight:normal;text-anchor:middle;" transform="rotate(-90, 25.0625, 100.5)" x="25.0625" y="100.5">Factor 2 (32.84)</text>
    </g>
   </g>
   <g id="patch_9">
    <path d="M 62.425 174.2 
L 62.425 26.8 
" style="fill:none;stroke:#000000;stroke-linecap:square;stroke-linejoin:miter;stroke-width:0.8;"/>
   </g>
   <g id="patch_10">
    <path d="M 205.2 174.2 
L 205.2 26.8 
" style="fill:none;stroke:#000000;stroke-linecap:square;stroke-linejoin:miter;stroke-width:0.8;"/>
   </g>
   <g id="patch_11">
    <path d="M 62.425 174.2 
L 205.2 174.2 
" style="fill:none;stroke:#000000;stroke-linecap:square;stroke-linejoin:miter;stroke-width:0.8;"/>
   </g>
   <g id="patch_12">
    <path d="M 62.425 26.8 
L 205.2 26.8 
" style="fill:none;stroke:#000000;stroke-linecap:square;stroke-linejoin:miter;stroke-width:0.8;"/>
   </g>
   <g id="patch_13">
    <path d="M 137.175784 95.407813 
Q 107.241562 109.453165 75.38691 124.399598 
" style="fill:none;stroke:#ff7f0e;stroke-linecap:round;stroke-width:3;"/>
    <path d="M 123.875054 90.602547 
L 137.175784 95.407813 
L 132.370517 108.708543 
" style="fill:none;stroke:#ff7f0e;stroke-linecap:round;stroke-width:3;"/>
   </g>
   <g id="patch_14">
    <path d="M 73.575328 103.11081 
Q 73.575328 112.120061 73.575328 123.250633 
" style="fill:none;stroke:#d62728;stroke-linecap:round;stroke-width:3;"/>
    <path d="M 63.575328 113.11081 
L 73.575328 103.11081 
L 83.575328 113.11081 
" style="fill:none;stroke:#d62728;stroke-linecap:round;stroke-width:3;"/>
   </g>
   <g id="patch_15">
    <path d="M 122.232207 110.579438 
Q 99.876789 117.319651 75.490355 124.67222 
" style="fill:none;stroke:#2ca02c;stroke-linecap:round;stroke-width:3;"/>
    <path d="M 109.77124 103.891816 
L 122.232207 110.579438 
L 115.544586 123.040406 
" style="fill:none;stroke:#2ca02c;stroke-linecap:round;stroke-width:3;"/>
   </g>
   <g id="patch_16">
    <path d="M 112.075731 80.227082 
Q 94.165967 101.170831 74.877532 123.726803 
" style="fill:none;stroke:#1f77b4;stroke-linecap:round;stroke-width:3;"/>
    <path d="M 97.976517 81.328059 
L 112.075731 80.227082 
L 113.176708 94.326297 
" style="fill:none;stroke:#1f77b4;stroke-linecap:round;stroke-width:3;"/>
   </g>
   <g id="text_10">
    <text style="font-family:DejaVu Sans;font-size:12px;font-stretch:normal;font-style:normal;font-weight:normal;text-anchor:middle;" transform="rotate(-0, 133.8125, 20.8)" x="133.8125" y="20.8">Muribaculaceae, (8.38, 0.000300), (33.02, P=0.000001)</text>
   </g>
   <g id="legend_1">
    <g id="patch_17">
     <path d="M 108.146875 152.225 
L 198.2 152.225 
Q 200.2 152.225 200.2 150.225 
L 200.2 33.8 
Q 200.2 31.8 198.2 31.8 
L 108.146875 31.8 
Q 106.146875 31.8 106.146875 33.8 
L 106.146875 150.225 
Q 106.146875 152.225 108.146875 152.225 
z
" style="fill:#ffffff;opacity:0.8;stroke:#cccccc;stroke-linejoin:miter;"/>
    </g>
    <g id="text_11">
     <text style="font-family:DejaVu Sans;font-size:10px;font-stretch:normal;font-style:normal;font-weight:normal;text-anchor:start;" transform="rotate(-0, 118.146875, 43.398438)" x="118.146875" y="43.398438">Vendor</text>
    </g>
    <g id="PathCollection_8">
     <defs>
      <path d="M 0 3 
C 0.795609 3 1.55874 2.683901 2.12132 2.12132 
C 2.683901 1.55874 3 0.795609 3 0 
C 3 -0.795609 2.683901 -1.55874 2.12132 -2.12132 
C 1.55874 -2.683901 0.795609 -3 0 -3 
C -0.795609 -3 -1.55874 -2.683901 -2.12132 -2.12132 
C -2.683901 -1.55874 -3 -0.795609 -3 0 
C -3 0.795609 -2.683901 1.55874 -2.12132 2.12132 
C -1.55874 2.683901 -0.795609 3 0 3 
z
" id="me4fadef5b7" style="stroke:#1f77b4;"/>
     </defs>
     <g>
      <use style="fill:#1f77b4;stroke:#1f77b4;" x="120.146875" xlink:href="#me4fadef5b7" y="55.451563"/>
     </g>
    </g>
    <g id="text_12">
     <text style="font-family:DejaVu Sans;font-size:10px;font-stretch:normal;font-style:normal;font-weight:normal;text-anchor:start;" transform="rotate(-0, 138.146875, 58.076563)" x="138.146875" y="58.076563">Beijing</text>
    </g>
    <g id="PathCollection_9">
     <defs>
      <path d="M 0 3 
C 0.795609 3 1.55874 2.683901 2.12132 2.12132 
C 2.683901 1.55874 3 0.795609 3 0 
C 3 -0.795609 2.683901 -1.55874 2.12132 -2.12132 
C 1.55874 -2.683901 0.795609 -3 0 -3 
C -0.795609 -3 -1.55874 -2.683901 -2.12132 -2.12132 
C -2.683901 -1.55874 -3 -0.795609 -3 0 
C -3 0.795609 -2.683901 1.55874 -2.12132 2.12132 
C -1.55874 2.683901 -0.795609 3 0 3 
z
" id="m6cd4314cda" style="stroke:#ff7f0e;"/>
     </defs>
     <g>
      <use style="fill:#ff7f0e;stroke:#ff7f0e;" x="120.146875" xlink:href="#m6cd4314cda" y="70.129688"/>
     </g>
    </g>
    <g id="text_13">
     <text style="font-family:DejaVu Sans;font-size:10px;font-stretch:normal;font-style:normal;font-weight:normal;text-anchor:start;" transform="rotate(-0, 138.146875, 72.754688)" x="138.146875" y="72.754688">Guangdong</text>
    </g>
    <g id="PathCollection_10">
     <defs>
      <path d="M 0 3 
C 0.795609 3 1.55874 2.683901 2.12132 2.12132 
C 2.683901 1.55874 3 0.795609 3 0 
C 3 -0.795609 2.683901 -1.55874 2.12132 -2.12132 
C 1.55874 -2.683901 0.795609 -3 0 -3 
C -0.795609 -3 -1.55874 -2.683901 -2.12132 -2.12132 
C -2.683901 -1.55874 -3 -0.795609 -3 0 
C -3 0.795609 -2.683901 1.55874 -2.12132 2.12132 
C -1.55874 2.683901 -0.795609 3 0 3 
z
" id="m201343cef5" style="stroke:#2ca02c;"/>
     </defs>
     <g>
      <use style="fill:#2ca02c;stroke:#2ca02c;" x="120.146875" xlink:href="#m201343cef5" y="84.807813"/>
     </g>
    </g>
    <g id="text_14">
     <text style="font-family:DejaVu Sans;font-size:10px;font-stretch:normal;font-style:normal;font-weight:normal;text-anchor:start;" transform="rotate(-0, 138.146875, 87.432813)" x="138.146875" y="87.432813">Hunan</text>
    </g>
    <g id="PathCollection_11">
     <defs>
      <path d="M 0 3 
C 0.795609 3 1.55874 2.683901 2.12132 2.12132 
C 2.683901 1.55874 3 0.795609 3 0 
C 3 -0.795609 2.683901 -1.55874 2.12132 -2.12132 
C 1.55874 -2.683901 0.795609 -3 0 -3 
C -0.795609 -3 -1.55874 -2.683901 -2.12132 -2.12132 
C -2.683901 -1.55874 -3 -0.795609 -3 0 
C -3 0.795609 -2.683901 1.55874 -2.12132 2.12132 
C -1.55874 2.683901 -0.795609 3 0 3 
z
" id="m23ca7c6d3e" style="stroke:#d62728;"/>
     </defs>
     <g>
      <use style="fill:#d62728;stroke:#d62728;" x="120.146875" xlink:href="#m23ca7c6d3e" y="99.485938"/>
     </g>
    </g>
    <g id="text_15">
     <text style="font-family:DejaVu Sans;font-size:10px;font-stretch:normal;font-style:normal;font-weight:normal;text-anchor:start;" transform="rotate(-0, 138.146875, 102.110938)" x="138.146875" y="102.110938">Shanghai</text>
    </g>
    <g id="text_16">
     <text style="font-family:DejaVu Sans;font-size:10px;font-stretch:normal;font-style:normal;font-weight:normal;text-anchor:start;" transform="rotate(-0, 118.146875, 116.789063)" x="118.146875" y="116.789063">Diet</text>
    </g>
    <g id="PathCollection_12">
     <defs>
      <path d="M 0 -3 
L -3 3 
L 3 3 
z
" id="m17bab3e9ba" style="stroke:#333333;"/>
     </defs>
     <g>
      <use style="fill:#333333;stroke:#333333;" x="120.146875" xlink:href="#m17bab3e9ba" y="128.842188"/>
     </g>
    </g>
    <g id="text_17">
     <text style="font-family:DejaVu Sans;font-size:10px;font-stretch:normal;font-style:normal;font-weight:normal;text-anchor:start;" transform="rotate(-0, 138.146875, 131.467188)" x="138.146875" y="131.467188">Control</text>
    </g>
    <g id="PathCollection_13">
     <defs>
      <path d="M 0 3 
C 0.795609 3 1.55874 2.683901 2.12132 2.12132 
C 2.683901 1.55874 3 0.795609 3 0 
C 3 -0.795609 2.683901 -1.55874 2.12132 -2.12132 
C 1.55874 -2.683901 0.795609 -3 0 -3 
C -0.795609 -3 -1.55874 -2.683901 -2.12132 -2.12132 
C -2.683901 -1.55874 -3 -0.795609 -3 0 
C -3 0.795609 -2.683901 1.55874 -2.12132 2.12132 
C -1.55874 2.683901 -0.795609 3 0 3 
z
" id="m18c79c4604" style="stroke:#333333;"/>
     </defs>
     <g>
      <use style="fill:#333333;stroke:#333333;" x="120.146875" xlink:href="#m18c79c4604" y="143.520313"/>
     </g>
    </g>
    <g id="text_18">
     <text style="font-family:DejaVu Sans;font-size:10px;font-stretch:normal;font-style:normal;font-weight:normal;text-anchor:start;" transform="rotate(-0, 138.146875, 146.145313)" x="138.146875" y="146.145313">Inulin</text>
    </g>
   </g>
  </g>
 </g>
 <defs>
  <clipPath id="pfee3635bfc">
   <rect height="147.4" width="142.775" x="62.425" y="26.8"/>
  </clipPath>
 </defs>
</svg>
