<?xml version="1.0" encoding="utf-8" standalone="no"?>
<!DOCTYPE svg PUBLIC "-//W3C//DTD SVG 1.1//EN"
  "http://www.w3.org/Graphics/SVG/1.1/DTD/svg11.dtd">
<!-- Created with matplotlib (https://matplotlib.org/) -->
<svg height="288pt" version="1.1" viewBox="0 0 432 288" width="432pt" xmlns="http://www.w3.org/2000/svg" xmlns:xlink="http://www.w3.org/1999/xlink">
 <defs>
  <style type="text/css">
*{stroke-linecap:butt;stroke-linejoin:round;}
  </style>
 </defs>
 <g id="figure_1">
  <g id="patch_1">
   <path d="M 0 288 
L 432 288 
L 432 0 
L 0 0 
z
" style="fill:#ffffff;"/>
  </g>
  <g id="axes_1">
   <g id="patch_2">
    <path d="M 47.8 231.64 
L 421.2 231.64 
L 421.2 10.8 
L 47.8 10.8 
z
" style="fill:#ffffff;"/>
   </g>
   <g id="matplotlib.axis_1">
    <g id="xtick_1">
     <g id="line2d_1">
      <defs>
       <path d="M 0 0 
L 0 3.5 
" id="m0077984f8d" style="stroke:#000000;stroke-width:0.8;"/>
      </defs>
      <g>
       <use style="stroke:#000000;stroke-width:0.8;" x="64.772727" xlink:href="#m0077984f8d" y="231.64"/>
      </g>
     </g>
     <g id="text_1">
      <text style="font-family:DejaVu Sans;font-size:10px;font-style:normal;font-weight:normal;text-anchor:middle;" transform="rotate(-0, 64.772727, 246.238437)" x="64.772727" y="246.238437">0</text>
     </g>
    </g>
    <g id="xtick_2">
     <g id="line2d_2">
      <g>
       <use style="stroke:#000000;stroke-width:0.8;" x="132.663636" xlink:href="#m0077984f8d" y="231.64"/>
      </g>
     </g>
     <g id="text_2">
      <text style="font-family:DejaVu Sans;font-size:10px;font-style:normal;font-weight:normal;text-anchor:middle;" transform="rotate(-0, 132.663636, 246.238437)" x="132.663636" y="246.238437">1</text>
     </g>
    </g>
    <g id="xtick_3">
     <g id="line2d_3">
      <g>
       <use style="stroke:#000000;stroke-width:0.8;" x="200.554545" xlink:href="#m0077984f8d" y="231.64"/>
      </g>
     </g>
     <g id="text_3">
      <text style="font-family:DejaVu Sans;font-size:10px;font-style:normal;font-weight:normal;text-anchor:middle;" transform="rotate(-0, 200.554545, 246.238437)" x="200.554545" y="246.238437">2</text>
     </g>
    </g>
    <g id="xtick_4">
     <g id="line2d_4">
      <g>
       <use style="stroke:#000000;stroke-width:0.8;" x="268.445455" xlink:href="#m0077984f8d" y="231.64"/>
      </g>
     </g>
     <g id="text_4">
      <text style="font-family:DejaVu Sans;font-size:10px;font-style:normal;font-weight:normal;text-anchor:middle;" transform="rotate(-0, 268.445455, 246.238437)" x="268.445455" y="246.238437">3</text>
     </g>
    </g>
    <g id="xtick_5">
     <g id="line2d_5">
      <g>
       <use style="stroke:#000000;stroke-width:0.8;" x="336.336364" xlink:href="#m0077984f8d" y="231.64"/>
      </g>
     </g>
     <g id="text_5">
      <text style="font-family:DejaVu Sans;font-size:10px;font-style:normal;font-weight:normal;text-anchor:middle;" transform="rotate(-0, 336.336364, 246.238437)" x="336.336364" y="246.238437">4</text>
     </g>
    </g>
    <g id="xtick_6">
     <g id="line2d_6">
      <g>
       <use style="stroke:#000000;stroke-width:0.8;" x="404.227273" xlink:href="#m0077984f8d" y="231.64"/>
      </g>
     </g>
     <g id="text_6">
      <text style="font-family:DejaVu Sans;font-size:10px;font-style:normal;font-weight:normal;text-anchor:middle;" transform="rotate(-0, 404.227273, 246.238437)" x="404.227273" y="246.238437">5</text>
     </g>
    </g>
    <g id="text_7">
     <text style="font-family:DejaVu Sans;font-size:10px;font-style:normal;font-weight:normal;text-anchor:middle;" transform="rotate(-0, 234.5, 259.916562)" x="234.5" y="259.916562">Time</text>
    </g>
   </g>
   <g id="matplotlib.axis_2">
    <g id="ytick_1">
     <g id="line2d_7">
      <defs>
       <path d="M 0 0 
L -3.5 0 
" id="m605947c433" style="stroke:#000000;stroke-width:0.8;"/>
      </defs>
      <g>
       <use style="stroke:#000000;stroke-width:0.8;" x="47.8" xlink:href="#m605947c433" y="225.672463"/>
      </g>
     </g>
     <g id="text_8">
      <text style="font-family:DejaVu Sans;font-size:10px;font-style:normal;font-weight:normal;text-anchor:end;" transform="rotate(-0, 40.8, 229.471682)" x="40.8" y="229.471682">0.0</text>
     </g>
    </g>
    <g id="ytick_2">
     <g id="line2d_8">
      <g>
       <use style="stroke:#000000;stroke-width:0.8;" x="47.8" xlink:href="#m605947c433" y="184.684423"/>
      </g>
     </g>
     <g id="text_9">
      <text style="font-family:DejaVu Sans;font-size:10px;font-style:normal;font-weight:normal;text-anchor:end;" transform="rotate(-0, 40.8, 188.483641)" x="40.8" y="188.483641">0.2</text>
     </g>
    </g>
    <g id="ytick_3">
     <g id="line2d_9">
      <g>
       <use style="stroke:#000000;stroke-width:0.8;" x="47.8" xlink:href="#m605947c433" y="143.696382"/>
      </g>
     </g>
     <g id="text_10">
      <text style="font-family:DejaVu Sans;font-size:10px;font-style:normal;font-weight:normal;text-anchor:end;" transform="rotate(-0, 40.8, 147.495601)" x="40.8" y="147.495601">0.4</text>
     </g>
    </g>
    <g id="ytick_4">
     <g id="line2d_10">
      <g>
       <use style="stroke:#000000;stroke-width:0.8;" x="47.8" xlink:href="#m605947c433" y="102.708341"/>
      </g>
     </g>
     <g id="text_11">
      <text style="font-family:DejaVu Sans;font-size:10px;font-style:normal;font-weight:normal;text-anchor:end;" transform="rotate(-0, 40.8, 106.50756)" x="40.8" y="106.50756">0.6</text>
     </g>
    </g>
    <g id="ytick_5">
     <g id="line2d_11">
      <g>
       <use style="stroke:#000000;stroke-width:0.8;" x="47.8" xlink:href="#m605947c433" y="61.720301"/>
      </g>
     </g>
     <g id="text_12">
      <text style="font-family:DejaVu Sans;font-size:10px;font-style:normal;font-weight:normal;text-anchor:end;" transform="rotate(-0, 40.8, 65.519519)" x="40.8" y="65.519519">0.8</text>
     </g>
    </g>
    <g id="ytick_6">
     <g id="line2d_12">
      <g>
       <use style="stroke:#000000;stroke-width:0.8;" x="47.8" xlink:href="#m605947c433" y="20.73226"/>
      </g>
     </g>
     <g id="text_13">
      <text style="font-family:DejaVu Sans;font-size:10px;font-style:normal;font-weight:normal;text-anchor:end;" transform="rotate(-0, 40.8, 24.531479)" x="40.8" y="24.531479">1.0</text>
     </g>
    </g>
    <g id="text_14">
     <text style="font-family:DejaVu Sans;font-size:10px;font-style:normal;font-weight:normal;text-anchor:middle;" transform="rotate(-90, 18.817188, 121.22)" x="18.817188" y="121.22">FC</text>
    </g>
   </g>
   <g id="line2d_13">
    <path clip-path="url(#p772478a9c2)" d="M 64.772727 109.925585 
L 72.719824 115.212969 
L 82.937519 121.794541 
L 94.290514 128.852022 
L 103.37291 134.20801 
L 112.455306 139.316302 
L 120.402402 143.511235 
L 128.349498 147.42128 
L 136.296595 151.052714 
L 143.108392 153.930394 
L 149.920189 156.551738 
L 156.731985 158.95618 
L 163.543782 161.155927 
L 169.22028 162.791875 
L 176.032077 164.523132 
L 182.843874 166.018652 
L 189.65567 167.28537 
L 196.467467 168.32034 
L 203.279264 169.129913 
L 210.091061 169.715465 
L 216.902858 170.074277 
L 223.714655 170.202201 
L 230.526452 170.102843 
L 237.338249 169.786549 
L 244.150046 169.24699 
L 250.961843 168.492754 
L 257.773639 167.526829 
L 264.585436 166.349172 
L 271.397233 164.966642 
L 278.20903 163.382886 
L 286.156126 161.285315 
L 294.103223 158.921735 
L 303.185619 155.935397 
L 311.132715 153.090263 
L 319.079811 150.005621 
L 327.026908 146.684526 
L 334.974004 143.129902 
L 342.921101 139.344818 
L 350.868197 135.331059 
L 358.815293 131.091178 
L 366.76239 126.625712 
L 375.844786 121.262566 
L 384.927182 115.687382 
L 395.144877 109.145494 
L 404.227273 103.105206 
L 404.227273 103.105206 
" style="fill:none;stroke:#ff0000;stroke-linecap:square;stroke-width:1.5;"/>
   </g>
   <g id="line2d_14">
    <path clip-path="url(#p772478a9c2)" d="M 64.772727 99.926872 
L 79.531621 111.867514 
L 102.23761 130.075492 
L 113.590605 138.82793 
L 122.673001 145.483402 
L 129.484798 150.237141 
L 137.431894 155.485158 
L 144.243691 159.715222 
L 151.055488 163.671752 
L 157.867285 167.350547 
L 164.679082 170.756662 
L 170.355579 173.378236 
L 177.167376 176.226309 
L 183.979173 178.80073 
L 190.79097 181.107924 
L 197.602767 183.108265 
L 204.414564 184.856999 
L 210.091061 186.107303 
L 216.902858 187.338574 
L 223.714655 188.329579 
L 229.391152 188.971114 
L 236.202949 189.504684 
L 243.014746 189.807904 
L 249.826543 189.874301 
L 256.63834 189.70336 
L 263.450137 189.304973 
L 270.261934 188.682159 
L 277.073731 187.844017 
L 283.885528 186.794467 
L 291.832624 185.324933 
L 298.644421 183.851071 
L 306.591517 181.894834 
L 314.538614 179.685916 
L 322.48571 177.23145 
L 330.432806 174.532676 
L 338.379903 171.591903 
L 346.326999 168.407757 
L 354.274095 164.977251 
L 362.221192 161.328378 
L 370.168288 157.443516 
L 378.115385 153.3208 
L 386.062481 148.959973 
L 394.009577 144.357868 
L 401.956674 139.512954 
L 404.227273 138.083831 
L 404.227273 138.083831 
" style="fill:none;stroke:#ff0000;stroke-linecap:square;stroke-width:1.5;"/>
   </g>
   <g id="line2d_15">
    <path clip-path="url(#p772478a9c2)" d="M 64.772727 74.032323 
L 71.584524 80.903929 
L 78.396321 88.176887 
L 85.208118 95.807329 
L 93.155214 105.079821 
L 120.402402 137.269037 
L 127.214199 144.787766 
L 132.890696 150.733749 
L 138.567194 156.334537 
L 144.243691 161.578492 
L 148.784889 165.480808 
L 153.326087 169.116025 
L 157.867285 172.503515 
L 162.408483 175.650957 
L 166.949681 178.503493 
L 171.490879 181.114099 
L 176.032077 183.499331 
L 180.573275 185.657436 
L 185.114472 187.57598 
L 189.65567 189.292934 
L 195.332168 191.179554 
L 201.008665 192.768176 
L 206.685163 194.098128 
L 212.36166 195.190516 
L 218.038157 196.070648 
L 223.714655 196.749389 
L 230.526452 197.344173 
L 237.338249 197.711111 
L 245.285345 197.911072 
L 253.232441 197.891903 
L 262.314837 197.65383 
L 272.532533 197.153857 
L 283.885528 196.352441 
L 295.238522 195.319333 
L 306.591517 194.065453 
L 317.944512 192.594728 
L 329.297507 190.896078 
L 340.650502 188.961866 
L 350.868197 187.006284 
L 361.085892 184.833937 
L 371.303588 182.429816 
L 381.521283 179.7762 
L 390.603679 177.19364 
L 399.686075 174.386132 
L 404.227273 172.893506 
L 404.227273 172.893506 
" style="fill:none;stroke:#ff0000;stroke-linecap:square;stroke-width:1.5;"/>
   </g>
   <g id="line2d_16">
    <path clip-path="url(#p772478a9c2)" d="M 64.772727 109.280407 
L 73.855123 117.825507 
L 82.937519 126.108429 
L 90.884615 133.078907 
L 97.696412 138.779756 
L 104.508209 144.184643 
L 111.320006 149.281209 
L 116.996503 153.238362 
L 122.673001 156.948692 
L 128.349498 160.410488 
L 134.025996 163.584298 
L 139.702493 166.503091 
L 145.378991 169.177608 
L 151.055488 171.584744 
L 156.731985 173.746069 
L 162.408483 175.670304 
L 168.08498 177.369687 
L 173.761478 178.844115 
L 179.437975 180.107748 
L 185.114472 181.169806 
L 191.926269 182.195319 
L 198.738066 182.962162 
L 205.549863 183.490079 
L 212.36166 183.783634 
L 219.173457 183.86211 
L 225.985254 183.740115 
L 233.93235 183.361244 
L 241.879447 182.744219 
L 249.826543 181.896254 
L 257.773639 180.826244 
L 265.720736 179.545164 
L 273.667832 178.05855 
L 281.614929 176.370255 
L 290.697324 174.205637 
L 299.77972 171.798746 
L 308.862116 169.142124 
L 317.944512 166.235029 
L 327.026908 163.075367 
L 336.109304 159.659892 
L 345.1917 155.984245 
L 354.274095 152.043497 
L 363.356491 147.835228 
L 372.438887 143.386363 
L 381.521283 138.68249 
L 390.603679 133.725157 
L 399.686075 128.51637 
L 404.227273 125.818529 
L 404.227273 125.818529 
" style="fill:none;stroke:#ff0000;stroke-linecap:square;stroke-width:1.5;"/>
   </g>
   <g id="line2d_17">
    <path clip-path="url(#p772478a9c2)" d="M 64.772727 96.846759 
L 77.261022 112.71111 
L 92.019915 131.555268 
L 98.831712 139.948221 
L 104.508209 146.658351 
L 110.184707 153.040026 
L 115.861204 159.043604 
L 120.402402 163.550041 
L 124.9436 167.75294 
L 129.484798 171.671519 
L 134.025996 175.31145 
L 138.567194 178.64577 
L 143.108392 181.674818 
L 147.64959 184.423746 
L 152.190787 186.904725 
L 156.731985 189.111587 
L 161.273183 191.066264 
L 165.814381 192.781707 
L 170.355579 194.259457 
L 174.896777 195.513732 
L 179.437975 196.551762 
L 183.979173 197.394604 
L 188.520371 198.047244 
L 194.196868 198.616875 
L 199.873366 198.944655 
L 205.549863 199.053146 
L 212.36166 198.935855 
L 219.173457 198.599708 
L 227.120553 197.993668 
L 236.202949 197.081962 
L 246.420645 195.83499 
L 257.773639 194.216503 
L 270.261934 192.19913 
L 282.750228 189.952238 
L 295.238522 187.475154 
L 306.591517 185.011178 
L 317.944512 182.330454 
L 329.297507 179.417132 
L 339.515202 176.582181 
L 349.732898 173.535019 
L 359.950593 170.277433 
L 370.168288 166.790099 
L 380.385984 163.062493 
L 390.603679 159.084329 
L 400.821374 154.845544 
L 404.227273 153.372991 
L 404.227273 153.372991 
" style="fill:none;stroke:#ff0000;stroke-linecap:square;stroke-width:1.5;"/>
   </g>
   <g id="line2d_18">
    <path clip-path="url(#p772478a9c2)" d="M 64.772727 79.921436 
L 74.990423 88.401545 
L 86.343417 98.149702 
L 121.537701 128.710669 
L 129.484798 135.142653 
L 136.296595 140.390719 
L 143.108392 145.36712 
L 149.920189 150.048286 
L 155.596686 153.70131 
L 161.273183 157.130235 
L 166.949681 160.320957 
L 172.626178 163.268931 
L 178.302676 165.985617 
L 183.979173 168.472155 
L 189.65567 170.72803 
L 195.332168 172.762754 
L 201.008665 174.577776 
L 206.685163 176.16737 
L 212.36166 177.549063 
L 218.038157 178.732142 
L 223.714655 179.722194 
L 230.526452 180.665225 
L 237.338249 181.355761 
L 244.150046 181.788989 
L 250.961843 181.983169 
L 257.773639 181.946356 
L 264.585436 181.686805 
L 271.397233 181.212557 
L 278.20903 180.529532 
L 285.020827 179.644632 
L 291.832624 178.559302 
L 298.644421 177.277252 
L 305.456218 175.799346 
L 313.403314 173.828451 
L 321.35041 171.591058 
L 329.297507 169.085965 
L 337.244603 166.313837 
L 345.1917 163.289307 
L 353.138796 159.99565 
L 361.085892 156.428775 
L 369.032989 152.583829 
L 376.980085 148.45554 
L 384.927182 144.037621 
L 392.874278 139.32355 
L 400.821374 134.3102 
L 404.227273 132.07399 
L 404.227273 132.07399 
" style="fill:none;stroke:#0000ff;stroke-linecap:square;stroke-width:1.5;"/>
   </g>
   <g id="line2d_19">
    <path clip-path="url(#p772478a9c2)" d="M 64.772727 77.869839 
L 73.855123 85.290712 
L 82.937519 93.026089 
L 93.155214 102.052453 
L 110.184707 117.485402 
L 122.673001 128.70788 
L 132.890696 137.578994 
L 140.837793 144.173061 
L 147.64959 149.578612 
L 154.461386 154.723175 
L 161.273183 159.571636 
L 168.08498 164.115573 
L 174.896777 168.343399 
L 180.573275 171.631785 
L 186.249772 174.680776 
L 191.926269 177.515077 
L 198.738066 180.645105 
L 205.549863 183.492143 
L 211.226361 185.63188 
L 218.038157 187.948832 
L 224.849954 190.010079 
L 231.661751 191.817812 
L 238.473548 193.392723 
L 245.285345 194.743572 
L 252.097142 195.879067 
L 258.908939 196.814758 
L 266.856035 197.671552 
L 274.803132 198.290124 
L 282.750228 198.680336 
L 290.697324 198.860121 
L 298.644421 198.838833 
L 307.726817 198.580556 
L 316.809213 198.085429 
L 325.891608 197.366461 
L 334.974004 196.431275 
L 344.0564 195.280771 
L 353.138796 193.92017 
L 362.221192 192.348975 
L 371.303588 190.565414 
L 380.385984 188.566183 
L 389.468379 186.34696 
L 398.550775 183.901133 
L 404.227273 182.254059 
L 404.227273 182.254059 
" style="fill:none;stroke:#0000ff;stroke-linecap:square;stroke-width:1.5;"/>
   </g>
   <g id="line2d_20">
    <path clip-path="url(#p772478a9c2)" d="M 64.772727 56.441847 
L 71.584524 61.10647 
L 78.396321 66.126004 
L 85.208118 71.507303 
L 90.884615 76.26703 
L 97.696412 82.267462 
L 105.643509 89.607439 
L 114.725905 98.335694 
L 145.378991 128.118242 
L 153.326087 135.359166 
L 160.137884 141.229434 
L 165.814381 145.861343 
L 171.490879 150.250312 
L 176.032077 153.554665 
L 181.708574 157.421259 
L 187.385071 161.016707 
L 193.061569 164.348279 
L 198.738066 167.358056 
L 204.414564 170.091722 
L 210.091061 172.571205 
L 215.767559 174.787672 
L 221.444056 176.74371 
L 227.120553 178.470572 
L 232.797051 179.982821 
L 238.473548 181.269637 
L 244.150046 182.35347 
L 250.961843 183.402195 
L 257.773639 184.192424 
L 264.585436 184.738451 
L 271.397233 185.062812 
L 278.20903 185.16871 
L 285.020827 185.081713 
L 291.832624 184.801669 
L 299.77972 184.248906 
L 307.726817 183.465048 
L 315.673913 182.460399 
L 323.621009 181.240478 
L 331.568106 179.807097 
L 339.515202 178.162785 
L 347.462299 176.307629 
L 355.409395 174.239537 
L 363.356491 171.956601 
L 371.303588 169.453787 
L 379.250684 166.729066 
L 387.19778 163.777824 
L 395.144877 160.594137 
L 403.091973 157.172125 
L 404.227273 156.663432 
L 404.227273 156.663432 
" style="fill:none;stroke:#0000ff;stroke-linecap:square;stroke-width:1.5;"/>
   </g>
   <g id="line2d_21">
    <path clip-path="url(#p772478a9c2)" d="M 64.772727 68.926309 
L 71.584524 74.699129 
L 78.396321 80.776231 
L 86.343417 88.217118 
L 95.425813 97.089183 
L 110.184707 111.890905 
L 121.537701 123.132839 
L 129.484798 130.723777 
L 136.296595 136.916606 
L 143.108392 142.794282 
L 148.784889 147.431965 
L 154.461386 151.771112 
L 160.137884 155.82398 
L 165.814381 159.583583 
L 171.490879 163.047506 
L 177.167376 166.216908 
L 182.843874 169.103548 
L 188.520371 171.716545 
L 194.196868 174.061317 
L 199.873366 176.142754 
L 205.549863 177.97717 
L 211.226361 179.581111 
L 216.902858 180.967142 
L 222.579355 182.145892 
L 229.391152 183.313976 
L 236.202949 184.218871 
L 243.014746 184.889636 
L 249.826543 185.34209 
L 256.63834 185.592696 
L 264.585436 185.649794 
L 272.532533 185.468173 
L 280.479629 185.063605 
L 288.426725 184.447493 
L 296.373822 183.627913 
L 304.320918 182.610583 
L 313.403314 181.209484 
L 322.48571 179.55539 
L 331.568106 177.645766 
L 340.650502 175.479011 
L 348.597598 173.36644 
L 356.544694 171.045566 
L 364.491791 168.50983 
L 372.438887 165.753293 
L 380.385984 162.771003 
L 388.33308 159.55367 
L 396.280176 156.092069 
L 404.227273 152.379079 
L 404.227273 152.379079 
" style="fill:none;stroke:#0000ff;stroke-linecap:square;stroke-width:1.5;"/>
   </g>
   <g id="line2d_22">
    <path clip-path="url(#p772478a9c2)" d="M 64.772727 130.303992 
L 72.719824 137.43003 
L 80.66692 144.270468 
L 88.614016 150.801562 
L 95.425813 156.118332 
L 102.23761 161.141499 
L 109.049407 165.865772 
L 114.725905 169.549055 
L 120.402402 172.98464 
L 126.078899 176.191459 
L 131.755397 179.175577 
L 137.431894 181.913803 
L 143.108392 184.40711 
L 148.784889 186.690238 
L 155.596686 189.174961 
L 161.273183 191.010742 
L 168.08498 192.961297 
L 174.896777 194.65125 
L 181.708574 196.082704 
L 188.520371 197.288759 
L 195.332168 198.273005 
L 202.143965 199.056672 
L 208.955762 199.644912 
L 216.902858 200.119757 
L 224.849954 200.390885 
L 233.93235 200.451126 
L 243.014746 200.282399 
L 253.232441 199.853899 
L 263.450137 199.196061 
L 274.803132 198.225135 
L 286.156126 197.02681 
L 297.509121 195.617863 
L 309.997416 193.835502 
L 322.48571 191.814548 
L 334.974004 189.555 
L 347.462299 187.052257 
L 359.950593 184.300391 
L 371.303588 181.575681 
L 382.656583 178.628149 
L 394.009577 175.447699 
L 404.227273 172.37728 
L 404.227273 172.37728 
" style="fill:none;stroke:#008000;stroke-linecap:square;stroke-width:1.5;"/>
   </g>
   <g id="line2d_23">
    <path clip-path="url(#p772478a9c2)" d="M 64.772727 89.041581 
L 79.531621 101.452502 
L 110.184707 127.527629 
L 118.131803 133.942147 
L 126.078899 140.056593 
L 132.890696 145.036633 
L 138.567194 148.956995 
L 145.378991 153.357686 
L 152.190787 157.452969 
L 157.867285 160.634876 
L 163.543782 163.548056 
L 169.22028 166.227219 
L 174.896777 168.677493 
L 180.573275 170.899506 
L 186.249772 172.895537 
L 191.926269 174.676572 
L 197.602767 176.249292 
L 203.279264 177.622644 
L 208.955762 178.803879 
L 215.767559 179.973184 
L 222.579355 180.881362 
L 229.391152 181.550788 
L 236.202949 181.990734 
L 243.014746 182.22669 
L 250.961843 182.259211 
L 258.908939 182.05549 
L 266.856035 181.637884 
L 275.938431 180.920699 
L 285.020827 179.970591 
L 294.103223 178.807103 
L 304.320918 177.259706 
L 314.538614 175.484981 
L 324.756309 173.49573 
L 334.974004 171.297594 
L 346.326999 168.618484 
L 357.679994 165.696023 
L 369.032989 162.53349 
L 380.385984 159.13184 
L 391.738978 155.501514 
L 403.091973 151.652403 
L 404.227273 151.255827 
L 404.227273 151.255827 
" style="fill:none;stroke:#008000;stroke-linecap:square;stroke-width:1.5;"/>
   </g>
   <g id="line2d_24">
    <path clip-path="url(#p772478a9c2)" d="M 64.772727 111.838065 
L 73.855123 118.878635 
L 82.937519 125.652475 
L 90.884615 131.327818 
L 97.696412 135.964406 
L 104.508209 140.352313 
L 111.320006 144.480597 
L 116.996503 147.69325 
L 123.8083 151.278102 
L 129.484798 154.013629 
L 135.161295 156.543748 
L 140.837793 158.840116 
L 146.51429 160.917354 
L 152.190787 162.770824 
L 157.867285 164.414026 
L 163.543782 165.855454 
L 169.22028 167.087547 
L 174.896777 168.124062 
L 180.573275 168.967736 
L 187.385071 169.740486 
L 194.196868 170.257298 
L 201.008665 170.53035 
L 207.820462 170.580591 
L 214.632259 170.412858 
L 221.444056 170.040239 
L 229.391152 169.359822 
L 237.338249 168.435467 
L 245.285345 167.286528 
L 253.232441 165.927382 
L 261.179538 164.370797 
L 270.261934 162.365713 
L 279.34433 160.134416 
L 288.426725 157.683642 
L 297.509121 155.021406 
L 307.726817 151.782097 
L 319.079811 147.927187 
L 329.297507 144.247463 
L 340.650502 139.909344 
L 352.003497 135.315561 
L 363.356491 130.471321 
L 374.709486 125.381304 
L 387.19778 119.523619 
L 400.821374 112.89581 
L 404.227273 111.202853 
L 404.227273 111.202853 
" style="fill:none;stroke:#008000;stroke-linecap:square;stroke-width:1.5;"/>
   </g>
   <g id="line2d_25">
    <path clip-path="url(#p772478a9c2)" d="M 64.772727 20.954046 
L 124.9436 21.32487 
L 157.867285 21.775674 
L 185.114472 22.367823 
L 208.955762 23.106619 
L 230.526452 24.001931 
L 250.961843 25.078618 
L 270.261934 26.314344 
L 287.291426 27.611833 
L 306.591517 29.307037 
L 327.026908 31.33184 
L 346.326999 33.454533 
L 366.76239 35.956502 
L 388.33308 38.817913 
L 404.227273 41.048792 
L 404.227273 41.048792 
" style="fill:none;stroke:#000000;stroke-linecap:square;stroke-width:1.5;"/>
   </g>
   <g id="line2d_26">
    <path clip-path="url(#p772478a9c2)" d="M 64.772727 20.866104 
L 110.184707 21.105569 
L 136.296595 21.432113 
L 157.867285 21.902527 
L 174.896777 22.490044 
L 189.65567 23.24074 
L 201.008665 24.011617 
L 211.226361 24.911231 
L 220.308756 25.906062 
L 229.391152 27.129644 
L 238.473548 28.606426 
L 245.285345 29.919658 
L 252.097142 31.432945 
L 258.908939 33.16423 
L 264.585436 34.79785 
L 270.261934 36.626728 
L 275.938431 38.657755 
L 281.614929 40.900108 
L 287.291426 43.377005 
L 292.967923 46.105916 
L 298.644421 49.088274 
L 304.320918 52.32725 
L 309.997416 55.846641 
L 315.673913 59.648205 
L 321.35041 63.725967 
L 327.026908 68.072997 
L 332.703405 72.69053 
L 339.515202 78.560668 
L 346.326999 84.752131 
L 353.138796 91.220446 
L 361.085892 99.070411 
L 372.438887 110.636534 
L 396.280176 135.052686 
L 404.227273 142.84914 
L 404.227273 142.84914 
" style="fill:none;stroke:#000000;stroke-linecap:square;stroke-width:1.5;"/>
   </g>
   <g id="line2d_27">
    <path clip-path="url(#p772478a9c2)" d="M 64.772727 21.321664 
L 74.990423 21.555597 
L 99.967011 22.468914 
L 110.184707 23.320321 
L 121.537701 24.497693 
L 127.214199 25.040811 
L 141.973092 26.492311 
L 146.51429 27.196058 
L 153.326087 28.459397 
L 161.273183 30.168336 
L 164.679082 31.1228 
L 169.22028 32.617058 
L 173.761478 34.330013 
L 178.302676 36.265826 
L 181.708574 37.894743 
L 186.249772 40.447857 
L 190.79097 43.149199 
L 195.332168 46.150243 
L 199.873366 49.432886 
L 204.414564 52.97301 
L 210.091061 57.715918 
L 214.632259 61.761778 
L 219.173457 66.603684 
L 223.714655 71.781817 
L 229.391152 78.631196 
L 236.202949 87.223228 
L 238.473548 90.239399 
L 275.938431 144.394957 
L 287.291426 159.5953 
L 290.697324 163.802396 
L 295.238522 169.006982 
L 304.320918 178.772275 
L 308.862116 183.153571 
L 313.403314 187.150712 
L 320.215111 192.692241 
L 324.756309 196.024849 
L 329.297507 199.057181 
L 333.838705 201.81032 
L 338.379903 204.285038 
L 342.921101 206.511441 
L 347.462299 208.516806 
L 353.138796 210.760656 
L 358.815293 212.723442 
L 364.491791 214.44704 
L 370.168288 215.937477 
L 376.980085 217.474013 
L 383.791882 218.779991 
L 391.738978 220.049751 
L 399.686075 221.09417 
L 404.227273 221.601818 
L 404.227273 221.601818 
" style="fill:none;stroke:#000000;stroke-linecap:square;stroke-width:1.5;"/>
   </g>
   <g id="line2d_28">
    <path clip-path="url(#p772478a9c2)" d="M 64.772727 20.883324 
L 114.725905 21.134666 
L 148.784889 21.545666 
L 170.355579 22.011508 
L 190.79097 22.697704 
L 205.549863 23.412176 
L 216.902858 24.155693 
L 229.391152 25.200297 
L 239.608848 26.284583 
L 248.691244 27.453396 
L 257.773639 28.8747 
L 265.720736 30.347003 
L 273.667832 32.05954 
L 280.479629 33.735964 
L 287.291426 35.62561 
L 294.103223 37.764584 
L 300.91502 40.158784 
L 307.726817 42.823251 
L 313.403314 45.280895 
L 319.079811 47.952533 
L 324.756309 50.839377 
L 330.432806 53.953092 
L 336.109304 57.305788 
L 341.785801 60.884464 
L 348.597598 65.464247 
L 355.409395 70.369112 
L 362.221192 75.568705 
L 369.032989 81.033988 
L 376.980085 87.706706 
L 386.062481 95.638841 
L 398.550775 106.876071 
L 404.227273 112.039723 
L 404.227273 112.039723 
" style="fill:none;stroke:#000000;stroke-linecap:square;stroke-width:1.5;"/>
   </g>
   <g id="line2d_29">
    <path clip-path="url(#p772478a9c2)" d="M 64.772727 20.838182 
L 132.890696 21.076286 
L 176.032077 21.444805 
L 211.226361 22.006194 
L 237.338249 22.691665 
L 256.63834 23.402941 
L 273.667832 24.251214 
L 289.562025 25.258972 
L 303.185619 26.325872 
L 316.809213 27.618349 
L 329.297507 29.053803 
L 340.650502 30.571311 
L 352.003497 32.314636 
L 363.356491 34.295253 
L 373.574187 36.29003 
L 383.791882 38.491685 
L 394.009577 40.899949 
L 404.227273 43.510019 
L 404.227273 43.510019 
" style="fill:none;stroke:#000000;stroke-linecap:square;stroke-width:1.5;"/>
   </g>
   <g id="patch_3">
    <path d="M 47.8 231.64 
L 47.8 10.8 
" style="fill:none;stroke:#000000;stroke-linecap:square;stroke-linejoin:miter;stroke-width:0.8;"/>
   </g>
   <g id="patch_4">
    <path d="M 421.2 231.64 
L 421.2 10.8 
" style="fill:none;stroke:#000000;stroke-linecap:square;stroke-linejoin:miter;stroke-width:0.8;"/>
   </g>
   <g id="patch_5">
    <path d="M 47.8 231.64 
L 421.2 231.64 
" style="fill:none;stroke:#000000;stroke-linecap:square;stroke-linejoin:miter;stroke-width:0.8;"/>
   </g>
   <g id="patch_6">
    <path d="M 47.8 10.8 
L 421.2 10.8 
" style="fill:none;stroke:#000000;stroke-linecap:square;stroke-linejoin:miter;stroke-width:0.8;"/>
   </g>
   <g id="legend_1">
    <g id="patch_7">
     <path d="M 324.146875 268.328125 
L 414.2 268.328125 
Q 416.2 268.328125 416.2 266.328125 
L 416.2 17.8 
Q 416.2 15.8 414.2 15.8 
L 324.146875 15.8 
Q 322.146875 15.8 322.146875 17.8 
L 322.146875 266.328125 
Q 322.146875 268.328125 324.146875 268.328125 
z
" style="fill:#ffffff;opacity:0.8;stroke:#cccccc;stroke-linejoin:miter;"/>
    </g>
    <g id="line2d_30">
     <path d="M 326.146875 23.898438 
L 346.146875 23.898438 
" style="fill:none;stroke:#ff0000;stroke-linecap:square;stroke-width:1.5;"/>
    </g>
    <g id="line2d_31"/>
    <g id="text_15">
     <text style="font-family:DejaVu Sans;font-size:10px;font-style:normal;font-weight:normal;text-anchor:start;" transform="rotate(-0, 354.146875, 27.398438)" x="354.146875" y="27.398438">Beijing</text>
    </g>
    <g id="line2d_32">
     <path d="M 326.146875 38.576563 
L 346.146875 38.576563 
" style="fill:none;stroke:#ff0000;stroke-linecap:square;stroke-width:1.5;"/>
    </g>
    <g id="line2d_33"/>
    <g id="text_16">
     <text style="font-family:DejaVu Sans;font-size:10px;font-style:normal;font-weight:normal;text-anchor:start;" transform="rotate(-0, 354.146875, 42.076563)" x="354.146875" y="42.076563">Beijing</text>
    </g>
    <g id="line2d_34">
     <path d="M 326.146875 53.254688 
L 346.146875 53.254688 
" style="fill:none;stroke:#ff0000;stroke-linecap:square;stroke-width:1.5;"/>
    </g>
    <g id="line2d_35"/>
    <g id="text_17">
     <text style="font-family:DejaVu Sans;font-size:10px;font-style:normal;font-weight:normal;text-anchor:start;" transform="rotate(-0, 354.146875, 56.754688)" x="354.146875" y="56.754688">Beijing</text>
    </g>
    <g id="line2d_36">
     <path d="M 326.146875 67.932813 
L 346.146875 67.932813 
" style="fill:none;stroke:#ff0000;stroke-linecap:square;stroke-width:1.5;"/>
    </g>
    <g id="line2d_37"/>
    <g id="text_18">
     <text style="font-family:DejaVu Sans;font-size:10px;font-style:normal;font-weight:normal;text-anchor:start;" transform="rotate(-0, 354.146875, 71.432813)" x="354.146875" y="71.432813">Beijing</text>
    </g>
    <g id="line2d_38">
     <path d="M 326.146875 82.610938 
L 346.146875 82.610938 
" style="fill:none;stroke:#ff0000;stroke-linecap:square;stroke-width:1.5;"/>
    </g>
    <g id="line2d_39"/>
    <g id="text_19">
     <text style="font-family:DejaVu Sans;font-size:10px;font-style:normal;font-weight:normal;text-anchor:start;" transform="rotate(-0, 354.146875, 86.110938)" x="354.146875" y="86.110938">Beijing</text>
    </g>
    <g id="line2d_40">
     <path d="M 326.146875 97.289062 
L 346.146875 97.289062 
" style="fill:none;stroke:#0000ff;stroke-linecap:square;stroke-width:1.5;"/>
    </g>
    <g id="line2d_41"/>
    <g id="text_20">
     <text style="font-family:DejaVu Sans;font-size:10px;font-style:normal;font-weight:normal;text-anchor:start;" transform="rotate(-0, 354.146875, 100.789062)" x="354.146875" y="100.789062">Guangdong</text>
    </g>
    <g id="line2d_42">
     <path d="M 326.146875 111.967188 
L 346.146875 111.967188 
" style="fill:none;stroke:#0000ff;stroke-linecap:square;stroke-width:1.5;"/>
    </g>
    <g id="line2d_43"/>
    <g id="text_21">
     <text style="font-family:DejaVu Sans;font-size:10px;font-style:normal;font-weight:normal;text-anchor:start;" transform="rotate(-0, 354.146875, 115.467188)" x="354.146875" y="115.467188">Guangdong</text>
    </g>
    <g id="line2d_44">
     <path d="M 326.146875 126.645312 
L 346.146875 126.645312 
" style="fill:none;stroke:#0000ff;stroke-linecap:square;stroke-width:1.5;"/>
    </g>
    <g id="line2d_45"/>
    <g id="text_22">
     <text style="font-family:DejaVu Sans;font-size:10px;font-style:normal;font-weight:normal;text-anchor:start;" transform="rotate(-0, 354.146875, 130.145312)" x="354.146875" y="130.145312">Guangdong</text>
    </g>
    <g id="line2d_46">
     <path d="M 326.146875 141.323438 
L 346.146875 141.323438 
" style="fill:none;stroke:#0000ff;stroke-linecap:square;stroke-width:1.5;"/>
    </g>
    <g id="line2d_47"/>
    <g id="text_23">
     <text style="font-family:DejaVu Sans;font-size:10px;font-style:normal;font-weight:normal;text-anchor:start;" transform="rotate(-0, 354.146875, 144.823438)" x="354.146875" y="144.823438">Guangdong</text>
    </g>
    <g id="line2d_48">
     <path d="M 326.146875 156.001562 
L 346.146875 156.001562 
" style="fill:none;stroke:#008000;stroke-linecap:square;stroke-width:1.5;"/>
    </g>
    <g id="line2d_49"/>
    <g id="text_24">
     <text style="font-family:DejaVu Sans;font-size:10px;font-style:normal;font-weight:normal;text-anchor:start;" transform="rotate(-0, 354.146875, 159.501562)" x="354.146875" y="159.501562">Hunan</text>
    </g>
    <g id="line2d_50">
     <path d="M 326.146875 170.679687 
L 346.146875 170.679687 
" style="fill:none;stroke:#008000;stroke-linecap:square;stroke-width:1.5;"/>
    </g>
    <g id="line2d_51"/>
    <g id="text_25">
     <text style="font-family:DejaVu Sans;font-size:10px;font-style:normal;font-weight:normal;text-anchor:start;" transform="rotate(-0, 354.146875, 174.179687)" x="354.146875" y="174.179687">Hunan</text>
    </g>
    <g id="line2d_52">
     <path d="M 326.146875 185.357812 
L 346.146875 185.357812 
" style="fill:none;stroke:#008000;stroke-linecap:square;stroke-width:1.5;"/>
    </g>
    <g id="line2d_53"/>
    <g id="text_26">
     <text style="font-family:DejaVu Sans;font-size:10px;font-style:normal;font-weight:normal;text-anchor:start;" transform="rotate(-0, 354.146875, 188.857812)" x="354.146875" y="188.857812">Hunan</text>
    </g>
    <g id="line2d_54">
     <path d="M 326.146875 200.035937 
L 346.146875 200.035937 
" style="fill:none;stroke:#000000;stroke-linecap:square;stroke-width:1.5;"/>
    </g>
    <g id="line2d_55"/>
    <g id="text_27">
     <text style="font-family:DejaVu Sans;font-size:10px;font-style:normal;font-weight:normal;text-anchor:start;" transform="rotate(-0, 354.146875, 203.535937)" x="354.146875" y="203.535937">Shanghai</text>
    </g>
    <g id="line2d_56">
     <path d="M 326.146875 214.714062 
L 346.146875 214.714062 
" style="fill:none;stroke:#000000;stroke-linecap:square;stroke-width:1.5;"/>
    </g>
    <g id="line2d_57"/>
    <g id="text_28">
     <text style="font-family:DejaVu Sans;font-size:10px;font-style:normal;font-weight:normal;text-anchor:start;" transform="rotate(-0, 354.146875, 218.214062)" x="354.146875" y="218.214062">Shanghai</text>
    </g>
    <g id="line2d_58">
     <path d="M 326.146875 229.392187 
L 346.146875 229.392187 
" style="fill:none;stroke:#000000;stroke-linecap:square;stroke-width:1.5;"/>
    </g>
    <g id="line2d_59"/>
    <g id="text_29">
     <text style="font-family:DejaVu Sans;font-size:10px;font-style:normal;font-weight:normal;text-anchor:start;" transform="rotate(-0, 354.146875, 232.892187)" x="354.146875" y="232.892187">Shanghai</text>
    </g>
    <g id="line2d_60">
     <path d="M 326.146875 244.070312 
L 346.146875 244.070312 
" style="fill:none;stroke:#000000;stroke-linecap:square;stroke-width:1.5;"/>
    </g>
    <g id="line2d_61"/>
    <g id="text_30">
     <text style="font-family:DejaVu Sans;font-size:10px;font-style:normal;font-weight:normal;text-anchor:start;" transform="rotate(-0, 354.146875, 247.570312)" x="354.146875" y="247.570312">Shanghai</text>
    </g>
    <g id="line2d_62">
     <path d="M 326.146875 258.748437 
L 346.146875 258.748437 
" style="fill:none;stroke:#000000;stroke-linecap:square;stroke-width:1.5;"/>
    </g>
    <g id="line2d_63"/>
    <g id="text_31">
     <text style="font-family:DejaVu Sans;font-size:10px;font-style:normal;font-weight:normal;text-anchor:start;" transform="rotate(-0, 354.146875, 262.248437)" x="354.146875" y="262.248437">Shanghai</text>
    </g>
   </g>
  </g>
 </g>
 <defs>
  <clipPath id="p772478a9c2">
   <rect height="220.84" width="373.4" x="47.8" y="10.8"/>
  </clipPath>
 </defs>
</svg>
