<?xml version="1.0" encoding="utf-8" standalone="no"?>
<!DOCTYPE svg PUBLIC "-//W3C//DTD SVG 1.1//EN"
  "http://www.w3.org/Graphics/SVG/1.1/DTD/svg11.dtd">
<!-- Created with matplotlib (https://matplotlib.org/) -->
<svg height="288pt" version="1.1" viewBox="0 0 432 288" width="432pt" xmlns="http://www.w3.org/2000/svg" xmlns:xlink="http://www.w3.org/1999/xlink">
 <defs>
  <style type="text/css">
*{stroke-linecap:butt;stroke-linejoin:round;}
  </style>
 </defs>
 <g id="figure_1">
  <g id="patch_1">
   <path d="M 0 288 
L 432 288 
L 432 0 
L 0 0 
z
" style="fill:#ffffff;"/>
  </g>
  <g id="axes_1">
   <g id="patch_2">
    <path d="M 54 252 
L 388.8 252 
L 388.8 34.56 
L 54 34.56 
z
" style="fill:#ffffff;"/>
   </g>
   <g id="PolyCollection_1">
    <defs>
     <path d="M 69.218182 -119.843895 
L 69.218182 -92.392685 
L 79.036364 -161.228748 
L 98.672727 -173.837686 
L 118.309091 -175.946605 
L 147.763636 -144.171549 
L 196.854545 -167.288848 
L 255.763636 -168.299185 
L 314.672727 -150.938796 
L 373.581818 -142.726092 
L 373.581818 -155.760712 
L 373.581818 -155.760712 
L 314.672727 -178.594729 
L 255.763636 -181.710701 
L 196.854545 -179.850293 
L 147.763636 -154.413638 
L 118.309091 -179.398685 
L 98.672727 -182.882112 
L 79.036364 -169.192103 
L 69.218182 -119.843895 
z
" id="m157f8b8b43" style="stroke:#1f77b4;stroke-opacity:0.2;"/>
    </defs>
    <g clip-path="url(#p736953985d)">
     <use style="fill:#1f77b4;fill-opacity:0.2;stroke:#1f77b4;stroke-opacity:0.2;" x="0" xlink:href="#m157f8b8b43" y="288"/>
    </g>
   </g>
   <g id="PolyCollection_2">
    <defs>
     <path d="M 69.218182 -104.722117 
L 69.218182 -78.374505 
L 79.036364 -186.913866 
L 98.672727 -173.45602 
L 118.309091 -180.747965 
L 147.763636 -174.230599 
L 196.854545 -170.368538 
L 255.763636 -192.041504 
L 314.672727 -183.653206 
L 373.581818 -173.351976 
L 373.581818 -201.999583 
L 373.581818 -201.999583 
L 314.672727 -197.980108 
L 255.763636 -199.390322 
L 196.854545 -178.858229 
L 147.763636 -201.972669 
L 118.309091 -194.443443 
L 98.672727 -193.73762 
L 79.036364 -207.283839 
L 69.218182 -104.722117 
z
" id="m459f3629fc" style="stroke:#ff7f0e;stroke-opacity:0.2;"/>
    </defs>
    <g clip-path="url(#p736953985d)">
     <use style="fill:#ff7f0e;fill-opacity:0.2;stroke:#ff7f0e;stroke-opacity:0.2;" x="0" xlink:href="#m459f3629fc" y="288"/>
    </g>
   </g>
   <g id="PolyCollection_3">
    <defs>
     <path d="M 69.218182 -114.783922 
L 69.218182 -103.451881 
L 79.036364 -202.189678 
L 98.672727 -180.970419 
L 118.309091 -187.544409 
L 147.763636 -201.409753 
L 196.854545 -217.083309 
L 255.763636 -161.773236 
L 314.672727 -143.073338 
L 373.581818 -155.917475 
L 373.581818 -186.109018 
L 373.581818 -186.109018 
L 314.672727 -158.220319 
L 255.763636 -203.924664 
L 196.854545 -236.928134 
L 147.763636 -214.631863 
L 118.309091 -194.246996 
L 98.672727 -196.329135 
L 79.036364 -212.364994 
L 69.218182 -114.783922 
z
" id="me01b45aca6" style="stroke:#2ca02c;stroke-opacity:0.2;"/>
    </defs>
    <g clip-path="url(#p736953985d)">
     <use style="fill:#2ca02c;fill-opacity:0.2;stroke:#2ca02c;stroke-opacity:0.2;" x="0" xlink:href="#me01b45aca6" y="288"/>
    </g>
   </g>
   <g id="PolyCollection_4">
    <defs>
     <path d="M 69.218182 -104.463322 
L 69.218182 -43.145896 
L 88.854545 -79.885004 
L 118.309091 -86.371545 
L 167.4 -90.200424 
L 196.854545 -101.797058 
L 255.763636 -157.052775 
L 314.672727 -142.435535 
L 373.581818 -103.415086 
L 373.581818 -119.132609 
L 373.581818 -119.132609 
L 314.672727 -158.994376 
L 255.763636 -174.88219 
L 196.854545 -109.048211 
L 167.4 -100.196895 
L 118.309091 -96.148815 
L 88.854545 -106.938695 
L 69.218182 -104.463322 
z
" id="m748f9fe661" style="stroke:#d62728;stroke-opacity:0.2;"/>
    </defs>
    <g clip-path="url(#p736953985d)">
     <use style="fill:#d62728;fill-opacity:0.2;stroke:#d62728;stroke-opacity:0.2;" x="0" xlink:href="#m748f9fe661" y="288"/>
    </g>
   </g>
   <g id="matplotlib.axis_1">
    <g id="xtick_1">
     <g id="line2d_1">
      <defs>
       <path d="M 0 0 
L 0 3.5 
" id="m0b513b1e76" style="stroke:#000000;stroke-width:0.8;"/>
      </defs>
      <g>
       <use style="stroke:#000000;stroke-width:0.8;" x="69.218182" xlink:href="#m0b513b1e76" y="252"/>
      </g>
     </g>
     <g id="text_1">
      <text style="font-family:DejaVu Sans;font-size:10px;font-style:normal;font-weight:normal;text-anchor:middle;" transform="rotate(-0, 69.218182, 266.598437)" x="69.218182" y="266.598437">0</text>
     </g>
    </g>
    <g id="xtick_2">
     <g id="line2d_2">
      <g>
       <use style="stroke:#000000;stroke-width:0.8;" x="118.309091" xlink:href="#m0b513b1e76" y="252"/>
      </g>
     </g>
     <g id="text_2">
      <text style="font-family:DejaVu Sans;font-size:10px;font-style:normal;font-weight:normal;text-anchor:middle;" transform="rotate(-0, 118.309091, 266.598437)" x="118.309091" y="266.598437">5</text>
     </g>
    </g>
    <g id="xtick_3">
     <g id="line2d_3">
      <g>
       <use style="stroke:#000000;stroke-width:0.8;" x="167.4" xlink:href="#m0b513b1e76" y="252"/>
      </g>
     </g>
     <g id="text_3">
      <text style="font-family:DejaVu Sans;font-size:10px;font-style:normal;font-weight:normal;text-anchor:middle;" transform="rotate(-0, 167.4, 266.598437)" x="167.4" y="266.598437">10</text>
     </g>
    </g>
    <g id="xtick_4">
     <g id="line2d_4">
      <g>
       <use style="stroke:#000000;stroke-width:0.8;" x="216.490909" xlink:href="#m0b513b1e76" y="252"/>
      </g>
     </g>
     <g id="text_4">
      <text style="font-family:DejaVu Sans;font-size:10px;font-style:normal;font-weight:normal;text-anchor:middle;" transform="rotate(-0, 216.490909, 266.598437)" x="216.490909" y="266.598437">15</text>
     </g>
    </g>
    <g id="xtick_5">
     <g id="line2d_5">
      <g>
       <use style="stroke:#000000;stroke-width:0.8;" x="265.581818" xlink:href="#m0b513b1e76" y="252"/>
      </g>
     </g>
     <g id="text_5">
      <text style="font-family:DejaVu Sans;font-size:10px;font-style:normal;font-weight:normal;text-anchor:middle;" transform="rotate(-0, 265.581818, 266.598437)" x="265.581818" y="266.598437">20</text>
     </g>
    </g>
    <g id="xtick_6">
     <g id="line2d_6">
      <g>
       <use style="stroke:#000000;stroke-width:0.8;" x="314.672727" xlink:href="#m0b513b1e76" y="252"/>
      </g>
     </g>
     <g id="text_6">
      <text style="font-family:DejaVu Sans;font-size:10px;font-style:normal;font-weight:normal;text-anchor:middle;" transform="rotate(-0, 314.672727, 266.598437)" x="314.672727" y="266.598437">25</text>
     </g>
    </g>
    <g id="xtick_7">
     <g id="line2d_7">
      <g>
       <use style="stroke:#000000;stroke-width:0.8;" x="363.763636" xlink:href="#m0b513b1e76" y="252"/>
      </g>
     </g>
     <g id="text_7">
      <text style="font-family:DejaVu Sans;font-size:10px;font-style:normal;font-weight:normal;text-anchor:middle;" transform="rotate(-0, 363.763636, 266.598437)" x="363.763636" y="266.598437">30</text>
     </g>
    </g>
    <g id="text_8">
     <text style="font-family:DejaVu Sans;font-size:10px;font-style:normal;font-weight:normal;text-anchor:middle;" transform="rotate(-0, 221.4, 280.276563)" x="221.4" y="280.276563">Day</text>
    </g>
   </g>
   <g id="matplotlib.axis_2">
    <g id="ytick_1">
     <g id="line2d_8">
      <defs>
       <path d="M 0 0 
L -3.5 0 
" id="m92010904a7" style="stroke:#000000;stroke-width:0.8;"/>
      </defs>
      <g>
       <use style="stroke:#000000;stroke-width:0.8;" x="54" xlink:href="#m92010904a7" y="190.103155"/>
      </g>
     </g>
     <g id="text_9">
      <!-- $\mathdefault{10^{8}}$ -->
      <g transform="translate(29.4 193.902374)">
       <text>
        <tspan style="font-family:DejaVu Sans;font-size:10px;font-style:book;font-weight:book;" x="0 6.362305" y="-0.9765625">10</tspan>
        <tspan style="font-family:DejaVu Sans;font-size:7px;font-style:book;font-weight:book;" x="12.820312" y="-4.8046875">8</tspan>
       </text>
      </g>
     </g>
    </g>
    <g id="ytick_2">
     <g id="line2d_9">
      <g>
       <use style="stroke:#000000;stroke-width:0.8;" x="54" xlink:href="#m92010904a7" y="34.56"/>
      </g>
     </g>
     <g id="text_10">
      <!-- $\mathdefault{10^{9}}$ -->
      <g transform="translate(29.4 38.359219)">
       <text>
        <tspan style="font-family:DejaVu Sans;font-size:10px;font-style:book;font-weight:book;" x="0 6.362305" y="-0.9765625">10</tspan>
        <tspan style="font-family:DejaVu Sans;font-size:7px;font-style:book;font-weight:book;" x="12.820312" y="-4.8046875">9</tspan>
       </text>
      </g>
     </g>
    </g>
    <g id="ytick_3">
     <g id="line2d_10">
      <defs>
       <path d="M 0 0 
L -2 0 
" id="m46bcfc2365" style="stroke:#000000;stroke-width:0.6;"/>
      </defs>
      <g>
       <use style="stroke:#000000;stroke-width:0.6;" x="54" xlink:href="#m46bcfc2365" y="252"/>
      </g>
     </g>
    </g>
    <g id="ytick_4">
     <g id="line2d_11">
      <g>
       <use style="stroke:#000000;stroke-width:0.6;" x="54" xlink:href="#m46bcfc2365" y="236.926311"/>
      </g>
     </g>
    </g>
    <g id="ytick_5">
     <g id="line2d_12">
      <g>
       <use style="stroke:#000000;stroke-width:0.6;" x="54" xlink:href="#m46bcfc2365" y="224.61021"/>
      </g>
     </g>
    </g>
    <g id="ytick_6">
     <g id="line2d_13">
      <g>
       <use style="stroke:#000000;stroke-width:0.6;" x="54" xlink:href="#m46bcfc2365" y="214.197095"/>
      </g>
     </g>
    </g>
    <g id="ytick_7">
     <g id="line2d_14">
      <g>
       <use style="stroke:#000000;stroke-width:0.6;" x="54" xlink:href="#m46bcfc2365" y="205.176845"/>
      </g>
     </g>
    </g>
    <g id="ytick_8">
     <g id="line2d_15">
      <g>
       <use style="stroke:#000000;stroke-width:0.6;" x="54" xlink:href="#m46bcfc2365" y="197.22042"/>
      </g>
     </g>
    </g>
    <g id="ytick_9">
     <g id="line2d_16">
      <g>
       <use style="stroke:#000000;stroke-width:0.6;" x="54" xlink:href="#m46bcfc2365" y="143.28"/>
      </g>
     </g>
    </g>
    <g id="ytick_10">
     <g id="line2d_17">
      <g>
       <use style="stroke:#000000;stroke-width:0.6;" x="54" xlink:href="#m46bcfc2365" y="115.89021"/>
      </g>
     </g>
    </g>
    <g id="ytick_11">
     <g id="line2d_18">
      <g>
       <use style="stroke:#000000;stroke-width:0.6;" x="54" xlink:href="#m46bcfc2365" y="96.456845"/>
      </g>
     </g>
    </g>
    <g id="ytick_12">
     <g id="line2d_19">
      <g>
       <use style="stroke:#000000;stroke-width:0.6;" x="54" xlink:href="#m46bcfc2365" y="81.383155"/>
      </g>
     </g>
    </g>
    <g id="ytick_13">
     <g id="line2d_20">
      <g>
       <use style="stroke:#000000;stroke-width:0.6;" x="54" xlink:href="#m46bcfc2365" y="69.067055"/>
      </g>
     </g>
    </g>
    <g id="ytick_14">
     <g id="line2d_21">
      <g>
       <use style="stroke:#000000;stroke-width:0.6;" x="54" xlink:href="#m46bcfc2365" y="58.65394"/>
      </g>
     </g>
    </g>
    <g id="ytick_15">
     <g id="line2d_22">
      <g>
       <use style="stroke:#000000;stroke-width:0.6;" x="54" xlink:href="#m46bcfc2365" y="49.633689"/>
      </g>
     </g>
    </g>
    <g id="ytick_16">
     <g id="line2d_23">
      <g>
       <use style="stroke:#000000;stroke-width:0.6;" x="54" xlink:href="#m46bcfc2365" y="41.677264"/>
      </g>
     </g>
    </g>
    <g id="text_11">
     <text style="font-family:DejaVu Sans;font-size:10px;font-style:normal;font-weight:normal;text-anchor:middle;" transform="rotate(-90, 23.320312, 143.28)" x="23.320312" y="143.28">Value</text>
    </g>
   </g>
   <g id="line2d_24">
    <path clip-path="url(#p736953985d)" d="M 69.218182 180.559918 
L 79.036364 122.672296 
L 98.672727 109.875309 
L 118.309091 110.1697 
L 147.763636 138.442561 
L 196.854545 114.468263 
L 255.763636 112.518622 
L 314.672727 121.429552 
L 373.581818 138.597888 
" style="fill:none;stroke:#1f77b4;stroke-linecap:square;stroke-width:1.5;"/>
    <defs>
     <path d="M 0 3 
C 0.795609 3 1.55874 2.683901 2.12132 2.12132 
C 2.683901 1.55874 3 0.795609 3 0 
C 3 -0.795609 2.683901 -1.55874 2.12132 -2.12132 
C 1.55874 -2.683901 0.795609 -3 0 -3 
C -0.795609 -3 -1.55874 -2.683901 -2.12132 -2.12132 
C -2.683901 -1.55874 -3 -0.795609 -3 0 
C -3 0.795609 -2.683901 1.55874 -2.12132 2.12132 
C -1.55874 2.683901 -0.795609 3 0 3 
z
" id="mee2ccc447e" style="stroke:#ffffff;stroke-width:0.75;"/>
    </defs>
    <g clip-path="url(#p736953985d)">
     <use style="fill:#1f77b4;stroke:#ffffff;stroke-width:0.75;" x="69.218182" xlink:href="#mee2ccc447e" y="180.559918"/>
     <use style="fill:#1f77b4;stroke:#ffffff;stroke-width:0.75;" x="79.036364" xlink:href="#mee2ccc447e" y="122.672296"/>
     <use style="fill:#1f77b4;stroke:#ffffff;stroke-width:0.75;" x="98.672727" xlink:href="#mee2ccc447e" y="109.875309"/>
     <use style="fill:#1f77b4;stroke:#ffffff;stroke-width:0.75;" x="118.309091" xlink:href="#mee2ccc447e" y="110.1697"/>
     <use style="fill:#1f77b4;stroke:#ffffff;stroke-width:0.75;" x="147.763636" xlink:href="#mee2ccc447e" y="138.442561"/>
     <use style="fill:#1f77b4;stroke:#ffffff;stroke-width:0.75;" x="196.854545" xlink:href="#mee2ccc447e" y="114.468263"/>
     <use style="fill:#1f77b4;stroke:#ffffff;stroke-width:0.75;" x="255.763636" xlink:href="#mee2ccc447e" y="112.518622"/>
     <use style="fill:#1f77b4;stroke:#ffffff;stroke-width:0.75;" x="314.672727" xlink:href="#mee2ccc447e" y="121.429552"/>
     <use style="fill:#1f77b4;stroke:#ffffff;stroke-width:0.75;" x="373.581818" xlink:href="#mee2ccc447e" y="138.597888"/>
    </g>
   </g>
   <g id="line2d_25">
    <path clip-path="url(#p736953985d)" d="M 69.218182 195.190701 
L 79.036364 90.136226 
L 98.672727 103.644856 
L 118.309091 100.057809 
L 147.763636 98.484123 
L 196.854545 113.253334 
L 255.763636 92.184203 
L 314.672727 97.764084 
L 373.581818 98.816838 
" style="fill:none;stroke:#ff7f0e;stroke-linecap:square;stroke-width:1.5;"/>
    <defs>
     <path d="M 0 3 
C 0.795609 3 1.55874 2.683901 2.12132 2.12132 
C 2.683901 1.55874 3 0.795609 3 0 
C 3 -0.795609 2.683901 -1.55874 2.12132 -2.12132 
C 1.55874 -2.683901 0.795609 -3 0 -3 
C -0.795609 -3 -1.55874 -2.683901 -2.12132 -2.12132 
C -2.683901 -1.55874 -3 -0.795609 -3 0 
C -3 0.795609 -2.683901 1.55874 -2.12132 2.12132 
C -1.55874 2.683901 -0.795609 3 0 3 
z
" id="m5faa0bf0f7" style="stroke:#ffffff;stroke-width:0.75;"/>
    </defs>
    <g clip-path="url(#p736953985d)">
     <use style="fill:#ff7f0e;stroke:#ffffff;stroke-width:0.75;" x="69.218182" xlink:href="#m5faa0bf0f7" y="195.190701"/>
     <use style="fill:#ff7f0e;stroke:#ffffff;stroke-width:0.75;" x="79.036364" xlink:href="#m5faa0bf0f7" y="90.136226"/>
     <use style="fill:#ff7f0e;stroke:#ffffff;stroke-width:0.75;" x="98.672727" xlink:href="#m5faa0bf0f7" y="103.644856"/>
     <use style="fill:#ff7f0e;stroke:#ffffff;stroke-width:0.75;" x="118.309091" xlink:href="#m5faa0bf0f7" y="100.057809"/>
     <use style="fill:#ff7f0e;stroke:#ffffff;stroke-width:0.75;" x="147.763636" xlink:href="#m5faa0bf0f7" y="98.484123"/>
     <use style="fill:#ff7f0e;stroke:#ffffff;stroke-width:0.75;" x="196.854545" xlink:href="#m5faa0bf0f7" y="113.253334"/>
     <use style="fill:#ff7f0e;stroke:#ffffff;stroke-width:0.75;" x="255.763636" xlink:href="#m5faa0bf0f7" y="92.184203"/>
     <use style="fill:#ff7f0e;stroke:#ffffff;stroke-width:0.75;" x="314.672727" xlink:href="#m5faa0bf0f7" y="97.764084"/>
     <use style="fill:#ff7f0e;stroke:#ffffff;stroke-width:0.75;" x="373.581818" xlink:href="#m5faa0bf0f7" y="98.816838"/>
    </g>
   </g>
   <g id="line2d_26">
    <path clip-path="url(#p736953985d)" d="M 69.218182 178.644752 
L 79.036364 80.531256 
L 98.672727 99.517502 
L 118.309091 97.021201 
L 147.763636 79.656206 
L 196.854545 60.26815 
L 255.763636 101.915289 
L 314.672727 136.92951 
L 373.581818 115.313879 
" style="fill:none;stroke:#2ca02c;stroke-linecap:square;stroke-width:1.5;"/>
    <defs>
     <path d="M 0 3 
C 0.795609 3 1.55874 2.683901 2.12132 2.12132 
C 2.683901 1.55874 3 0.795609 3 0 
C 3 -0.795609 2.683901 -1.55874 2.12132 -2.12132 
C 1.55874 -2.683901 0.795609 -3 0 -3 
C -0.795609 -3 -1.55874 -2.683901 -2.12132 -2.12132 
C -2.683901 -1.55874 -3 -0.795609 -3 0 
C -3 0.795609 -2.683901 1.55874 -2.12132 2.12132 
C -1.55874 2.683901 -0.795609 3 0 3 
z
" id="m8ffc9f12b3" style="stroke:#ffffff;stroke-width:0.75;"/>
    </defs>
    <g clip-path="url(#p736953985d)">
     <use style="fill:#2ca02c;stroke:#ffffff;stroke-width:0.75;" x="69.218182" xlink:href="#m8ffc9f12b3" y="178.644752"/>
     <use style="fill:#2ca02c;stroke:#ffffff;stroke-width:0.75;" x="79.036364" xlink:href="#m8ffc9f12b3" y="80.531256"/>
     <use style="fill:#2ca02c;stroke:#ffffff;stroke-width:0.75;" x="98.672727" xlink:href="#m8ffc9f12b3" y="99.517502"/>
     <use style="fill:#2ca02c;stroke:#ffffff;stroke-width:0.75;" x="118.309091" xlink:href="#m8ffc9f12b3" y="97.021201"/>
     <use style="fill:#2ca02c;stroke:#ffffff;stroke-width:0.75;" x="147.763636" xlink:href="#m8ffc9f12b3" y="79.656206"/>
     <use style="fill:#2ca02c;stroke:#ffffff;stroke-width:0.75;" x="196.854545" xlink:href="#m8ffc9f12b3" y="60.26815"/>
     <use style="fill:#2ca02c;stroke:#ffffff;stroke-width:0.75;" x="255.763636" xlink:href="#m8ffc9f12b3" y="101.915289"/>
     <use style="fill:#2ca02c;stroke:#ffffff;stroke-width:0.75;" x="314.672727" xlink:href="#m8ffc9f12b3" y="136.92951"/>
     <use style="fill:#2ca02c;stroke:#ffffff;stroke-width:0.75;" x="373.581818" xlink:href="#m8ffc9f12b3" y="115.313879"/>
    </g>
   </g>
   <g id="line2d_27">
    <path clip-path="url(#p736953985d)" d="M 69.218182 207.401046 
L 88.854545 193.535085 
L 118.309091 196.707675 
L 167.4 193.029444 
L 196.854545 182.480118 
L 255.763636 121.111832 
L 314.672727 136.597277 
L 373.581818 176.305657 
" style="fill:none;stroke:#d62728;stroke-linecap:square;stroke-width:1.5;"/>
    <defs>
     <path d="M 0 3 
C 0.795609 3 1.55874 2.683901 2.12132 2.12132 
C 2.683901 1.55874 3 0.795609 3 0 
C 3 -0.795609 2.683901 -1.55874 2.12132 -2.12132 
C 1.55874 -2.683901 0.795609 -3 0 -3 
C -0.795609 -3 -1.55874 -2.683901 -2.12132 -2.12132 
C -2.683901 -1.55874 -3 -0.795609 -3 0 
C -3 0.795609 -2.683901 1.55874 -2.12132 2.12132 
C -1.55874 2.683901 -0.795609 3 0 3 
z
" id="m3ee1ffa2b3" style="stroke:#ffffff;stroke-width:0.75;"/>
    </defs>
    <g clip-path="url(#p736953985d)">
     <use style="fill:#d62728;stroke:#ffffff;stroke-width:0.75;" x="69.218182" xlink:href="#m3ee1ffa2b3" y="207.401046"/>
     <use style="fill:#d62728;stroke:#ffffff;stroke-width:0.75;" x="88.854545" xlink:href="#m3ee1ffa2b3" y="193.535085"/>
     <use style="fill:#d62728;stroke:#ffffff;stroke-width:0.75;" x="118.309091" xlink:href="#m3ee1ffa2b3" y="196.707675"/>
     <use style="fill:#d62728;stroke:#ffffff;stroke-width:0.75;" x="167.4" xlink:href="#m3ee1ffa2b3" y="193.029444"/>
     <use style="fill:#d62728;stroke:#ffffff;stroke-width:0.75;" x="196.854545" xlink:href="#m3ee1ffa2b3" y="182.480118"/>
     <use style="fill:#d62728;stroke:#ffffff;stroke-width:0.75;" x="255.763636" xlink:href="#m3ee1ffa2b3" y="121.111832"/>
     <use style="fill:#d62728;stroke:#ffffff;stroke-width:0.75;" x="314.672727" xlink:href="#m3ee1ffa2b3" y="136.597277"/>
     <use style="fill:#d62728;stroke:#ffffff;stroke-width:0.75;" x="373.581818" xlink:href="#m3ee1ffa2b3" y="176.305657"/>
    </g>
   </g>
   <g id="line2d_28"/>
   <g id="line2d_29"/>
   <g id="line2d_30"/>
   <g id="line2d_31"/>
   <g id="patch_3">
    <path d="M 54 252 
L 54 34.56 
" style="fill:none;stroke:#000000;stroke-linecap:square;stroke-linejoin:miter;stroke-width:0.8;"/>
   </g>
   <g id="patch_4">
    <path d="M 388.8 252 
L 388.8 34.56 
" style="fill:none;stroke:#000000;stroke-linecap:square;stroke-linejoin:miter;stroke-width:0.8;"/>
   </g>
   <g id="patch_5">
    <path d="M 54 252 
L 388.8 252 
" style="fill:none;stroke:#000000;stroke-linecap:square;stroke-linejoin:miter;stroke-width:0.8;"/>
   </g>
   <g id="patch_6">
    <path d="M 54 34.56 
L 388.8 34.56 
" style="fill:none;stroke:#000000;stroke-linecap:square;stroke-linejoin:miter;stroke-width:0.8;"/>
   </g>
   <g id="legend_1">
    <g id="patch_7">
     <path d="M 291.746875 247 
L 381.8 247 
Q 383.8 247 383.8 245 
L 383.8 172.609375 
Q 383.8 170.609375 381.8 170.609375 
L 291.746875 170.609375 
Q 289.746875 170.609375 289.746875 172.609375 
L 289.746875 245 
Q 289.746875 247 291.746875 247 
z
" style="fill:#ffffff;opacity:0.8;stroke:#cccccc;stroke-linejoin:miter;"/>
    </g>
    <g id="text_12">
     <text style="font-family:DejaVu Sans;font-size:10px;font-style:normal;font-weight:normal;text-anchor:start;" transform="rotate(-0, 319.20625, 182.207812)" x="319.20625" y="182.207812">Vendor</text>
    </g>
    <g id="line2d_32">
     <path d="M 293.746875 193.385938 
L 313.746875 193.385938 
" style="fill:none;stroke:#1f77b4;stroke-linecap:square;stroke-width:1.5;"/>
    </g>
    <g id="line2d_33"/>
    <g id="text_13">
     <text style="font-family:DejaVu Sans;font-size:10px;font-style:normal;font-weight:normal;text-anchor:start;" transform="rotate(-0, 321.746875, 196.885938)" x="321.746875" y="196.885938">Beijing</text>
    </g>
    <g id="line2d_34">
     <path d="M 293.746875 208.064063 
L 313.746875 208.064063 
" style="fill:none;stroke:#ff7f0e;stroke-linecap:square;stroke-width:1.5;"/>
    </g>
    <g id="line2d_35"/>
    <g id="text_14">
     <text style="font-family:DejaVu Sans;font-size:10px;font-style:normal;font-weight:normal;text-anchor:start;" transform="rotate(-0, 321.746875, 211.564063)" x="321.746875" y="211.564063">Guangdong</text>
    </g>
    <g id="line2d_36">
     <path d="M 293.746875 222.742188 
L 313.746875 222.742188 
" style="fill:none;stroke:#2ca02c;stroke-linecap:square;stroke-width:1.5;"/>
    </g>
    <g id="line2d_37"/>
    <g id="text_15">
     <text style="font-family:DejaVu Sans;font-size:10px;font-style:normal;font-weight:normal;text-anchor:start;" transform="rotate(-0, 321.746875, 226.242188)" x="321.746875" y="226.242188">Hunan</text>
    </g>
    <g id="line2d_38">
     <path d="M 293.746875 237.420313 
L 313.746875 237.420313 
" style="fill:none;stroke:#d62728;stroke-linecap:square;stroke-width:1.5;"/>
    </g>
    <g id="line2d_39"/>
    <g id="text_16">
     <text style="font-family:DejaVu Sans;font-size:10px;font-style:normal;font-weight:normal;text-anchor:start;" transform="rotate(-0, 321.746875, 240.920313)" x="321.746875" y="240.920313">Shanghai</text>
    </g>
   </g>
  </g>
 </g>
 <defs>
  <clipPath id="p736953985d">
   <rect height="217.44" width="334.8" x="54" y="34.56"/>
  </clipPath>
 </defs>
</svg>
