<?xml version="1.0" encoding="utf-8" standalone="no"?>
<!DOCTYPE svg PUBLIC "-//W3C//DTD SVG 1.1//EN"
  "http://www.w3.org/Graphics/SVG/1.1/DTD/svg11.dtd">
<!-- Created with matplotlib (https://matplotlib.org/) -->
<svg height="360pt" version="1.1" viewBox="0 0 216 360" width="216pt" xmlns="http://www.w3.org/2000/svg" xmlns:xlink="http://www.w3.org/1999/xlink">
 <defs>
  <style type="text/css">
*{stroke-linecap:butt;stroke-linejoin:round;}
  </style>
 </defs>
 <g id="figure_1">
  <g id="patch_1">
   <path d="M 0 360 
L 216 360 
L 216 0 
L 0 0 
z
" style="fill:#ffffff;"/>
  </g>
  <g id="axes_1">
   <g id="patch_2">
    <path d="M 27 166.745455 
L 194.4 166.745455 
L 194.4 43.2 
L 27 43.2 
z
" style="fill:#ffffff;"/>
   </g>
   <g id="matplotlib.axis_1">
    <g id="xtick_1">
     <g id="line2d_1">
      <defs>
       <path d="M 0 0 
L 0 3.5 
" id="m543b9cef65" style="stroke:#000000;stroke-width:0.8;"/>
      </defs>
      <g>
       <use style="stroke:#000000;stroke-width:0.8;" x="27" xlink:href="#m543b9cef65" y="166.745455"/>
      </g>
     </g>
    </g>
    <g id="xtick_2">
     <g id="line2d_2">
      <g>
       <use style="stroke:#000000;stroke-width:0.8;" x="60.48" xlink:href="#m543b9cef65" y="166.745455"/>
      </g>
     </g>
    </g>
    <g id="xtick_3">
     <g id="line2d_3">
      <g>
       <use style="stroke:#000000;stroke-width:0.8;" x="93.96" xlink:href="#m543b9cef65" y="166.745455"/>
      </g>
     </g>
    </g>
    <g id="xtick_4">
     <g id="line2d_4">
      <g>
       <use style="stroke:#000000;stroke-width:0.8;" x="127.44" xlink:href="#m543b9cef65" y="166.745455"/>
      </g>
     </g>
    </g>
    <g id="xtick_5">
     <g id="line2d_5">
      <g>
       <use style="stroke:#000000;stroke-width:0.8;" x="160.92" xlink:href="#m543b9cef65" y="166.745455"/>
      </g>
     </g>
    </g>
    <g id="xtick_6">
     <g id="line2d_6">
      <g>
       <use style="stroke:#000000;stroke-width:0.8;" x="194.4" xlink:href="#m543b9cef65" y="166.745455"/>
      </g>
     </g>
    </g>
   </g>
   <g id="matplotlib.axis_2">
    <g id="ytick_1">
     <g id="line2d_7">
      <defs>
       <path d="M 0 0 
L -3.5 0 
" id="m09e68da340" style="stroke:#000000;stroke-width:0.8;"/>
      </defs>
      <g>
       <use style="stroke:#000000;stroke-width:0.8;" x="27" xlink:href="#m09e68da340" y="161.129752"/>
      </g>
     </g>
     <g id="text_1">
      <text style="font-family:DejaVu Sans;font-size:10px;font-style:normal;font-weight:normal;text-anchor:end;" transform="rotate(-0, 20, 164.928971)" x="20" y="164.928971">0.0</text>
     </g>
    </g>
    <g id="ytick_2">
     <g id="line2d_8">
      <g>
       <use style="stroke:#000000;stroke-width:0.8;" x="27" xlink:href="#m09e68da340" y="135.976628"/>
      </g>
     </g>
     <g id="text_2">
      <text style="font-family:DejaVu Sans;font-size:10px;font-style:normal;font-weight:normal;text-anchor:end;" transform="rotate(-0, 20, 139.775846)" x="20" y="139.775846">0.2</text>
     </g>
    </g>
    <g id="ytick_3">
     <g id="line2d_9">
      <g>
       <use style="stroke:#000000;stroke-width:0.8;" x="27" xlink:href="#m09e68da340" y="110.823503"/>
      </g>
     </g>
     <g id="text_3">
      <text style="font-family:DejaVu Sans;font-size:10px;font-style:normal;font-weight:normal;text-anchor:end;" transform="rotate(-0, 20, 114.622722)" x="20" y="114.622722">0.4</text>
     </g>
    </g>
    <g id="ytick_4">
     <g id="line2d_10">
      <g>
       <use style="stroke:#000000;stroke-width:0.8;" x="27" xlink:href="#m09e68da340" y="85.670379"/>
      </g>
     </g>
     <g id="text_4">
      <text style="font-family:DejaVu Sans;font-size:10px;font-style:normal;font-weight:normal;text-anchor:end;" transform="rotate(-0, 20, 89.469597)" x="20" y="89.469597">0.6</text>
     </g>
    </g>
    <g id="ytick_5">
     <g id="line2d_11">
      <g>
       <use style="stroke:#000000;stroke-width:0.8;" x="27" xlink:href="#m09e68da340" y="60.517254"/>
      </g>
     </g>
     <g id="text_5">
      <text style="font-family:DejaVu Sans;font-size:10px;font-style:normal;font-weight:normal;text-anchor:end;" transform="rotate(-0, 20, 64.316473)" x="20" y="64.316473">0.8</text>
     </g>
    </g>
    <g id="text_6">
     <text style="font-family:DejaVu Sans;font-size:10px;font-style:normal;font-weight:normal;text-anchor:middle;" transform="rotate(-90, -2.260938, 104.972727)" x="-2.260938" y="104.972727">Bacteroides_dash_acidifaciens</text>
    </g>
   </g>
   <g id="line2d_12">
    <path clip-path="url(#pa3b6549c42)" d="M 27 161.129752 
L 28.690909 161.129752 
L 30.381818 161.129752 
L 32.072727 161.129752 
L 33.763636 161.129752 
L 35.454545 161.129752 
L 37.145455 161.129752 
L 38.836364 161.129752 
L 40.527273 161.129752 
L 42.218182 161.129752 
L 43.909091 161.129752 
L 45.6 161.129752 
L 47.290909 161.129752 
L 48.981818 161.129752 
L 50.672727 161.129751 
L 52.363636 161.12975 
L 54.054545 161.129748 
L 55.745455 161.129745 
L 57.436364 161.129738 
L 59.127273 161.129726 
L 60.818182 161.129704 
L 62.509091 161.129665 
L 64.2 161.129594 
L 65.890909 161.129469 
L 67.581818 161.129253 
L 69.272727 161.128882 
L 70.963636 161.128256 
L 72.654545 161.127212 
L 74.345455 161.125494 
L 76.036364 161.122705 
L 77.727273 161.118238 
L 79.418182 161.111177 
L 81.109091 161.100168 
L 82.8 161.083231 
L 84.490909 161.057529 
L 86.181818 161.019051 
L 87.872727 160.962227 
L 89.563636 160.879456 
L 91.254545 160.76054 
L 92.945455 160.592043 
L 94.636364 160.356596 
L 96.327273 160.032176 
L 98.018182 159.591417 
L 99.709091 159.001048 
L 101.4 158.221526 
L 103.090909 157.207014 
L 104.781818 155.905805 
L 106.472727 154.261337 
L 108.163636 152.213904 
L 109.854545 149.703151 
L 111.545455 146.671365 
L 113.236364 143.067539 
L 114.927273 138.852051 
L 116.618182 134.001729 
L 118.309091 128.514989 
L 120 122.41659 
L 121.690909 115.761568 
L 123.381818 108.63783 
L 125.072727 101.166955 
L 126.763636 93.50283 
L 128.454545 85.827894 
L 130.145455 78.346957 
L 131.836364 71.278773 
L 133.527273 64.845809 
L 135.218182 59.262814 
L 136.909091 54.725014 
L 138.6 51.396813 
L 140.290909 49.401917 
L 141.981818 48.815702 
L 143.672727 49.660492 
L 145.363636 51.904142 
L 147.054545 55.462072 
L 148.745455 60.20256 
L 150.436364 65.954827 
L 152.127273 72.519245 
L 153.818182 79.678787 
L 155.509091 87.210839 
L 157.2 94.898458 
L 158.890909 102.540327 
L 160.581818 109.958792 
L 162.272727 117.005615 
L 163.963636 123.565287 
L 165.654545 129.555976 
L 167.345455 134.928372 
L 169.036364 139.662812 
L 170.727273 143.765165 
L 172.418182 147.261968 
L 174.109091 150.195274 
L 175.8 152.61764 
L 177.490909 154.587535 
L 179.181818 156.165419 
L 180.872727 157.410589 
L 182.563636 158.378833 
L 184.254545 159.12085 
L 185.945455 159.681354 
L 187.636364 160.098736 
L 189.327273 160.405163 
L 191.018182 160.626986 
L 192.709091 160.785332 
L 194.4 160.896804 
" style="fill:none;stroke:#1f77b4;stroke-linecap:square;stroke-width:1.5;"/>
   </g>
   <g id="line2d_13">
    <path clip-path="url(#pa3b6549c42)" d="M 112.374 161.129752 
L 112.374 48.815702 
" style="fill:none;stroke:#000000;stroke-dasharray:5.55,2.4;stroke-dashoffset:0;stroke-width:1.5;"/>
   </g>
   <g id="line2d_14">
    <path clip-path="url(#pa3b6549c42)" d="M 171.2988 161.129752 
L 171.2988 48.815702 
" style="fill:none;stroke:#000000;stroke-dasharray:5.55,2.4;stroke-dashoffset:0;stroke-width:1.5;"/>
   </g>
   <g id="patch_3">
    <path d="M 27 166.745455 
L 27 43.2 
" style="fill:none;stroke:#000000;stroke-linecap:square;stroke-linejoin:miter;stroke-width:0.8;"/>
   </g>
   <g id="patch_4">
    <path d="M 194.4 166.745455 
L 194.4 43.2 
" style="fill:none;stroke:#000000;stroke-linecap:square;stroke-linejoin:miter;stroke-width:0.8;"/>
   </g>
   <g id="patch_5">
    <path d="M 27 166.745455 
L 194.4 166.745455 
" style="fill:none;stroke:#000000;stroke-linecap:square;stroke-linejoin:miter;stroke-width:0.8;"/>
   </g>
   <g id="patch_6">
    <path d="M 27 43.2 
L 194.4 43.2 
" style="fill:none;stroke:#000000;stroke-linecap:square;stroke-linejoin:miter;stroke-width:0.8;"/>
   </g>
  </g>
  <g id="axes_2">
   <g id="patch_7">
    <path d="M 27 315 
L 194.4 315 
L 194.4 191.454545 
L 27 191.454545 
z
" style="fill:#ffffff;"/>
   </g>
   <g id="matplotlib.axis_3">
    <g id="xtick_7">
     <g id="line2d_15">
      <g>
       <use style="stroke:#000000;stroke-width:0.8;" x="27" xlink:href="#m543b9cef65" y="315"/>
      </g>
     </g>
     <g id="text_7">
      <text style="font-family:DejaVu Sans;font-size:10px;font-style:normal;font-weight:normal;text-anchor:middle;" transform="rotate(-0, 27, 329.598437)" x="27" y="329.598437">−2</text>
     </g>
    </g>
    <g id="xtick_8">
     <g id="line2d_16">
      <g>
       <use style="stroke:#000000;stroke-width:0.8;" x="60.48" xlink:href="#m543b9cef65" y="315"/>
      </g>
     </g>
     <g id="text_8">
      <text style="font-family:DejaVu Sans;font-size:10px;font-style:normal;font-weight:normal;text-anchor:middle;" transform="rotate(-0, 60.48, 329.598437)" x="60.48" y="329.598437">−1</text>
     </g>
    </g>
    <g id="xtick_9">
     <g id="line2d_17">
      <g>
       <use style="stroke:#000000;stroke-width:0.8;" x="93.96" xlink:href="#m543b9cef65" y="315"/>
      </g>
     </g>
     <g id="text_9">
      <text style="font-family:DejaVu Sans;font-size:10px;font-style:normal;font-weight:normal;text-anchor:middle;" transform="rotate(-0, 93.96, 329.598437)" x="93.96" y="329.598437">0</text>
     </g>
    </g>
    <g id="xtick_10">
     <g id="line2d_18">
      <g>
       <use style="stroke:#000000;stroke-width:0.8;" x="127.44" xlink:href="#m543b9cef65" y="315"/>
      </g>
     </g>
     <g id="text_10">
      <text style="font-family:DejaVu Sans;font-size:10px;font-style:normal;font-weight:normal;text-anchor:middle;" transform="rotate(-0, 127.44, 329.598437)" x="127.44" y="329.598437">1</text>
     </g>
    </g>
    <g id="xtick_11">
     <g id="line2d_19">
      <g>
       <use style="stroke:#000000;stroke-width:0.8;" x="160.92" xlink:href="#m543b9cef65" y="315"/>
      </g>
     </g>
     <g id="text_11">
      <text style="font-family:DejaVu Sans;font-size:10px;font-style:normal;font-weight:normal;text-anchor:middle;" transform="rotate(-0, 160.92, 329.598437)" x="160.92" y="329.598437">2</text>
     </g>
    </g>
    <g id="xtick_12">
     <g id="line2d_20">
      <g>
       <use style="stroke:#000000;stroke-width:0.8;" x="194.4" xlink:href="#m543b9cef65" y="315"/>
      </g>
     </g>
     <g id="text_12">
      <text style="font-family:DejaVu Sans;font-size:10px;font-style:normal;font-weight:normal;text-anchor:middle;" transform="rotate(-0, 194.4, 329.598437)" x="194.4" y="329.598437">3</text>
     </g>
    </g>
   </g>
   <g id="matplotlib.axis_4">
    <g id="ytick_6">
     <g id="line2d_21">
      <g>
       <use style="stroke:#000000;stroke-width:0.8;" x="27" xlink:href="#m09e68da340" y="309.384298"/>
      </g>
     </g>
     <g id="text_13">
      <text style="font-family:DejaVu Sans;font-size:10px;font-style:normal;font-weight:normal;text-anchor:end;" transform="rotate(-0, 20, 313.183516)" x="20" y="313.183516">0.0</text>
     </g>
    </g>
    <g id="ytick_7">
     <g id="line2d_22">
      <g>
       <use style="stroke:#000000;stroke-width:0.8;" x="27" xlink:href="#m09e68da340" y="284.35147"/>
      </g>
     </g>
     <g id="text_14">
      <text style="font-family:DejaVu Sans;font-size:10px;font-style:normal;font-weight:normal;text-anchor:end;" transform="rotate(-0, 20, 288.150689)" x="20" y="288.150689">0.2</text>
     </g>
    </g>
    <g id="ytick_8">
     <g id="line2d_23">
      <g>
       <use style="stroke:#000000;stroke-width:0.8;" x="27" xlink:href="#m09e68da340" y="259.318642"/>
      </g>
     </g>
     <g id="text_15">
      <text style="font-family:DejaVu Sans;font-size:10px;font-style:normal;font-weight:normal;text-anchor:end;" transform="rotate(-0, 20, 263.117861)" x="20" y="263.117861">0.4</text>
     </g>
    </g>
    <g id="ytick_9">
     <g id="line2d_24">
      <g>
       <use style="stroke:#000000;stroke-width:0.8;" x="27" xlink:href="#m09e68da340" y="234.285814"/>
      </g>
     </g>
     <g id="text_16">
      <text style="font-family:DejaVu Sans;font-size:10px;font-style:normal;font-weight:normal;text-anchor:end;" transform="rotate(-0, 20, 238.085033)" x="20" y="238.085033">0.6</text>
     </g>
    </g>
    <g id="ytick_10">
     <g id="line2d_25">
      <g>
       <use style="stroke:#000000;stroke-width:0.8;" x="27" xlink:href="#m09e68da340" y="209.252987"/>
      </g>
     </g>
     <g id="text_17">
      <text style="font-family:DejaVu Sans;font-size:10px;font-style:normal;font-weight:normal;text-anchor:end;" transform="rotate(-0, 20, 213.052206)" x="20" y="213.052206">0.8</text>
     </g>
    </g>
    <g id="text_18">
     <text style="font-family:DejaVu Sans;font-size:10px;font-style:normal;font-weight:normal;text-anchor:middle;" transform="rotate(-90, -1.982813, 253.227273)" x="-1.982813" y="253.227273">Bacteroides</text>
    </g>
   </g>
   <g id="line2d_26">
    <path clip-path="url(#pa5e9cbe4f0)" d="M 27 302.122829 
L 28.690909 299.968982 
L 30.381818 297.33316 
L 32.072727 294.157658 
L 33.763636 290.39264 
L 35.454545 286.001066 
L 37.145455 280.963976 
L 38.836364 275.28572 
L 40.527273 268.998714 
L 42.218182 262.167201 
L 43.909091 254.889504 
L 45.6 247.298314 
L 47.290909 239.558656 
L 48.981818 231.863341 
L 50.672727 224.425935 
L 52.363636 217.471506 
L 54.054545 211.225642 
L 55.745455 205.902477 
L 57.436364 201.692571 
L 59.127273 198.751616 
L 60.818182 197.190886 
L 62.509091 197.070248 
L 64.2 198.394352 
L 65.890909 201.112335 
L 67.581818 205.121063 
L 69.272727 210.271622 
L 70.963636 216.378499 
L 72.654545 223.23065 
L 74.345455 230.603544 
L 76.036364 238.271231 
L 77.727273 246.017537 
L 79.418182 253.645651 
L 81.109091 260.985547 
L 82.8 267.898953 
L 84.490909 274.281796 
L 86.181818 280.064278 
L 87.872727 285.20892 
L 89.563636 289.707017 
L 91.254545 293.574011 
L 92.945455 296.844308 
L 94.636364 299.565971 
L 96.327273 301.795717 
L 98.018182 303.594459 
L 99.709091 305.023608 
L 101.4 306.142195 
L 103.090909 307.004823 
L 104.781818 307.660373 
L 106.472727 308.151368 
L 108.163636 308.513853 
L 109.854545 308.777663 
L 111.545455 308.966952 
L 113.236364 309.100867 
L 114.927273 309.194286 
L 116.618182 309.258551 
L 118.309091 309.302149 
L 120 309.331321 
L 121.690909 309.350573 
L 123.381818 309.363104 
L 125.072727 309.371151 
L 126.763636 309.376247 
L 128.454545 309.379431 
L 130.145455 309.381393 
L 131.836364 309.382587 
L 133.527273 309.383303 
L 135.218182 309.383727 
L 136.909091 309.383974 
L 138.6 309.384117 
L 140.290909 309.384198 
L 141.981818 309.384243 
L 143.672727 309.384268 
L 145.363636 309.384282 
L 147.054545 309.384289 
L 148.745455 309.384293 
L 150.436364 309.384295 
L 152.127273 309.384296 
L 153.818182 309.384297 
L 155.509091 309.384297 
L 157.2 309.384297 
L 158.890909 309.384297 
L 160.581818 309.384297 
L 162.272727 309.384298 
L 163.963636 309.384298 
L 165.654545 309.384298 
L 167.345455 309.384298 
L 169.036364 309.384298 
L 170.727273 309.384298 
L 172.418182 309.384298 
L 174.109091 309.384298 
L 175.8 309.384298 
L 177.490909 309.384298 
L 179.181818 309.384298 
L 180.872727 309.384298 
L 182.563636 309.384298 
L 184.254545 309.384298 
L 185.945455 309.384298 
L 187.636364 309.384298 
L 189.327273 309.384298 
L 191.018182 309.384298 
L 192.709091 309.384298 
L 194.4 309.384298 
" style="fill:none;stroke:#1f77b4;stroke-linecap:square;stroke-width:1.5;"/>
   </g>
   <g id="line2d_27">
    <path clip-path="url(#pa5e9cbe4f0)" d="M 32.6916 309.384298 
L 32.6916 197.070248 
" style="fill:none;stroke:#000000;stroke-dasharray:5.55,2.4;stroke-dashoffset:0;stroke-width:1.5;"/>
   </g>
   <g id="line2d_28">
    <path clip-path="url(#pa5e9cbe4f0)" d="M 90.9468 309.384298 
L 90.9468 197.070248 
" style="fill:none;stroke:#000000;stroke-dasharray:5.55,2.4;stroke-dashoffset:0;stroke-width:1.5;"/>
   </g>
   <g id="patch_8">
    <path d="M 27 315 
L 27 191.454545 
" style="fill:none;stroke:#000000;stroke-linecap:square;stroke-linejoin:miter;stroke-width:0.8;"/>
   </g>
   <g id="patch_9">
    <path d="M 194.4 315 
L 194.4 191.454545 
" style="fill:none;stroke:#000000;stroke-linecap:square;stroke-linejoin:miter;stroke-width:0.8;"/>
   </g>
   <g id="patch_10">
    <path d="M 27 315 
L 194.4 315 
" style="fill:none;stroke:#000000;stroke-linecap:square;stroke-linejoin:miter;stroke-width:0.8;"/>
   </g>
   <g id="patch_11">
    <path d="M 27 191.454545 
L 194.4 191.454545 
" style="fill:none;stroke:#000000;stroke-linecap:square;stroke-linejoin:miter;stroke-width:0.8;"/>
   </g>
  </g>
 </g>
 <defs>
  <clipPath id="pa3b6549c42">
   <rect height="123.545455" width="167.4" x="27" y="43.2"/>
  </clipPath>
  <clipPath id="pa5e9cbe4f0">
   <rect height="123.545455" width="167.4" x="27" y="191.454545"/>
  </clipPath>
 </defs>
</svg>
