<?xml version="1.0" encoding="utf-8" standalone="no"?>
<!DOCTYPE svg PUBLIC "-//W3C//DTD SVG 1.1//EN"
  "http://www.w3.org/Graphics/SVG/1.1/DTD/svg11.dtd">
<!-- Created with matplotlib (https://matplotlib.org/) -->
<svg height="288pt" version="1.1" viewBox="0 0 720 288" width="720pt" xmlns="http://www.w3.org/2000/svg" xmlns:xlink="http://www.w3.org/1999/xlink">
 <defs>
  <style type="text/css">
*{stroke-linecap:butt;stroke-linejoin:round;}
  </style>
 </defs>
 <g id="figure_1">
  <g id="patch_1">
   <path d="M 0 288 
L 720 288 
L 720 0 
L 0 0 
z
" style="fill:#ffffff;"/>
  </g>
  <g id="axes_1">
   <g id="patch_2">
    <path d="M 90 252 
L 343.636364 252 
L 343.636364 34.56 
L 90 34.56 
z
" style="fill:#ffffff;"/>
   </g>
   <g id="patch_3">
    <path clip-path="url(#p11ae734423)" d="M 93.623377 252 
L 122.61039 252 
L 122.61039 46.369693 
L 93.623377 46.369693 
z
" style="fill:#3274a1;"/>
   </g>
   <g id="patch_4">
    <path clip-path="url(#p11ae734423)" d="M 129.857143 252 
L 158.844156 252 
L 158.844156 228.957463 
L 129.857143 228.957463 
z
" style="fill:#e1812c;"/>
   </g>
   <g id="patch_5">
    <path clip-path="url(#p11ae734423)" d="M 166.090909 252 
L 195.077922 252 
L 195.077922 169.898871 
L 166.090909 169.898871 
z
" style="fill:#3a923a;"/>
   </g>
   <g id="patch_6">
    <path clip-path="url(#p11ae734423)" d="M 202.324675 252 
L 231.311688 252 
L 231.311688 44.914286 
L 202.324675 44.914286 
z
" style="fill:#c03d3e;"/>
   </g>
   <g id="patch_7">
    <path clip-path="url(#p11ae734423)" d="M 238.558442 252 
L 267.545455 252 
L 267.545455 89.945496 
L 238.558442 89.945496 
z
" style="fill:#9372b2;"/>
   </g>
   <g id="patch_8">
    <path clip-path="url(#p11ae734423)" d="M 274.792208 252 
L 303.779221 252 
L 303.779221 181.472993 
L 274.792208 181.472993 
z
" style="fill:#845b53;"/>
   </g>
   <g id="patch_9">
    <path clip-path="url(#p11ae734423)" d="M 311.025974 252 
L 340.012987 252 
L 340.012987 76.93237 
L 311.025974 76.93237 
z
" style="fill:#d684bd;"/>
   </g>
   <g id="matplotlib.axis_1">
    <g id="xtick_1">
     <g id="line2d_1">
      <defs>
       <path d="M 0 0 
L 0 3.5 
" id="m9f186cd87f" style="stroke:#000000;stroke-width:0.8;"/>
      </defs>
      <g>
       <use style="stroke:#000000;stroke-width:0.8;" x="108.116883" xlink:href="#m9f186cd87f" y="252"/>
      </g>
     </g>
     <g id="text_1">
      <text style="font-family:DejaVu Sans;font-size:10px;font-style:normal;font-weight:normal;text-anchor:middle;" transform="rotate(-0, 108.116883, 266.598437)" x="108.116883" y="266.598437">Muribaculaceae</text>
     </g>
    </g>
    <g id="xtick_2">
     <g id="line2d_2">
      <g>
       <use style="stroke:#000000;stroke-width:0.8;" x="144.350649" xlink:href="#m9f186cd87f" y="252"/>
      </g>
     </g>
     <g id="text_2">
      <text style="font-family:DejaVu Sans;font-size:10px;font-style:normal;font-weight:normal;text-anchor:middle;" transform="rotate(-0, 144.350649, 266.598437)" x="144.350649" y="266.598437">Faecalibaculum</text>
     </g>
    </g>
    <g id="xtick_3">
     <g id="line2d_3">
      <g>
       <use style="stroke:#000000;stroke-width:0.8;" x="180.584416" xlink:href="#m9f186cd87f" y="252"/>
      </g>
     </g>
     <g id="text_3">
      <text style="font-family:DejaVu Sans;font-size:10px;font-style:normal;font-weight:normal;text-anchor:middle;" transform="rotate(-0, 180.584416, 266.598437)" x="180.584416" y="266.598437">Desulfovibrionaceae</text>
     </g>
    </g>
    <g id="xtick_4">
     <g id="line2d_4">
      <g>
       <use style="stroke:#000000;stroke-width:0.8;" x="216.818182" xlink:href="#m9f186cd87f" y="252"/>
      </g>
     </g>
     <g id="text_4">
      <text style="font-family:DejaVu Sans;font-size:10px;font-style:normal;font-weight:normal;text-anchor:middle;" transform="rotate(-0, 216.818182, 266.598437)" x="216.818182" y="266.598437">MuDe</text>
     </g>
    </g>
    <g id="xtick_5">
     <g id="line2d_5">
      <g>
       <use style="stroke:#000000;stroke-width:0.8;" x="253.051948" xlink:href="#m9f186cd87f" y="252"/>
      </g>
     </g>
     <g id="text_5">
      <text style="font-family:DejaVu Sans;font-size:10px;font-style:normal;font-weight:normal;text-anchor:middle;" transform="rotate(-0, 253.051948, 266.598437)" x="253.051948" y="266.598437">MuFa</text>
     </g>
    </g>
    <g id="xtick_6">
     <g id="line2d_6">
      <g>
       <use style="stroke:#000000;stroke-width:0.8;" x="289.285714" xlink:href="#m9f186cd87f" y="252"/>
      </g>
     </g>
     <g id="text_6">
      <text style="font-family:DejaVu Sans;font-size:10px;font-style:normal;font-weight:normal;text-anchor:middle;" transform="rotate(-0, 289.285714, 266.598437)" x="289.285714" y="266.598437">FaDe</text>
     </g>
    </g>
    <g id="xtick_7">
     <g id="line2d_7">
      <g>
       <use style="stroke:#000000;stroke-width:0.8;" x="325.519481" xlink:href="#m9f186cd87f" y="252"/>
      </g>
     </g>
     <g id="text_7">
      <text style="font-family:DejaVu Sans;font-size:10px;font-style:normal;font-weight:normal;text-anchor:middle;" transform="rotate(-0, 325.519481, 266.598437)" x="325.519481" y="266.598437">AllResponders</text>
     </g>
    </g>
    <g id="text_8">
     <text style="font-family:DejaVu Sans;font-size:10px;font-style:normal;font-weight:normal;text-anchor:middle;" transform="rotate(-0, 216.818182, 280.276563)" x="216.818182" y="280.276563">rsResponder</text>
    </g>
   </g>
   <g id="matplotlib.axis_2">
    <g id="ytick_1">
     <g id="line2d_8">
      <defs>
       <path d="M 0 0 
L -3.5 0 
" id="m6ccb4c3894" style="stroke:#000000;stroke-width:0.8;"/>
      </defs>
      <g>
       <use style="stroke:#000000;stroke-width:0.8;" x="90" xlink:href="#m6ccb4c3894" y="252"/>
      </g>
     </g>
     <g id="text_9">
      <text style="font-family:DejaVu Sans;font-size:10px;font-style:normal;font-weight:normal;text-anchor:end;" transform="rotate(-0, 83, 255.799219)" x="83" y="255.799219">0.0</text>
     </g>
    </g>
    <g id="ytick_2">
     <g id="line2d_9">
      <g>
       <use style="stroke:#000000;stroke-width:0.8;" x="90" xlink:href="#m6ccb4c3894" y="227.804392"/>
      </g>
     </g>
     <g id="text_10">
      <text style="font-family:DejaVu Sans;font-size:10px;font-style:normal;font-weight:normal;text-anchor:end;" transform="rotate(-0, 83, 231.603611)" x="83" y="231.603611">0.1</text>
     </g>
    </g>
    <g id="ytick_3">
     <g id="line2d_10">
      <g>
       <use style="stroke:#000000;stroke-width:0.8;" x="90" xlink:href="#m6ccb4c3894" y="203.608784"/>
      </g>
     </g>
     <g id="text_11">
      <text style="font-family:DejaVu Sans;font-size:10px;font-style:normal;font-weight:normal;text-anchor:end;" transform="rotate(-0, 83, 207.408002)" x="83" y="207.408002">0.2</text>
     </g>
    </g>
    <g id="ytick_4">
     <g id="line2d_11">
      <g>
       <use style="stroke:#000000;stroke-width:0.8;" x="90" xlink:href="#m6ccb4c3894" y="179.413175"/>
      </g>
     </g>
     <g id="text_12">
      <text style="font-family:DejaVu Sans;font-size:10px;font-style:normal;font-weight:normal;text-anchor:end;" transform="rotate(-0, 83, 183.212394)" x="83" y="183.212394">0.3</text>
     </g>
    </g>
    <g id="ytick_5">
     <g id="line2d_12">
      <g>
       <use style="stroke:#000000;stroke-width:0.8;" x="90" xlink:href="#m6ccb4c3894" y="155.217567"/>
      </g>
     </g>
     <g id="text_13">
      <text style="font-family:DejaVu Sans;font-size:10px;font-style:normal;font-weight:normal;text-anchor:end;" transform="rotate(-0, 83, 159.016786)" x="83" y="159.016786">0.4</text>
     </g>
    </g>
    <g id="ytick_6">
     <g id="line2d_13">
      <g>
       <use style="stroke:#000000;stroke-width:0.8;" x="90" xlink:href="#m6ccb4c3894" y="131.021959"/>
      </g>
     </g>
     <g id="text_14">
      <text style="font-family:DejaVu Sans;font-size:10px;font-style:normal;font-weight:normal;text-anchor:end;" transform="rotate(-0, 83, 134.821178)" x="83" y="134.821178">0.5</text>
     </g>
    </g>
    <g id="ytick_7">
     <g id="line2d_14">
      <g>
       <use style="stroke:#000000;stroke-width:0.8;" x="90" xlink:href="#m6ccb4c3894" y="106.826351"/>
      </g>
     </g>
     <g id="text_15">
      <text style="font-family:DejaVu Sans;font-size:10px;font-style:normal;font-weight:normal;text-anchor:end;" transform="rotate(-0, 83, 110.62557)" x="83" y="110.62557">0.6</text>
     </g>
    </g>
    <g id="ytick_8">
     <g id="line2d_15">
      <g>
       <use style="stroke:#000000;stroke-width:0.8;" x="90" xlink:href="#m6ccb4c3894" y="82.630743"/>
      </g>
     </g>
     <g id="text_16">
      <text style="font-family:DejaVu Sans;font-size:10px;font-style:normal;font-weight:normal;text-anchor:end;" transform="rotate(-0, 83, 86.429961)" x="83" y="86.429961">0.7</text>
     </g>
    </g>
    <g id="ytick_9">
     <g id="line2d_16">
      <g>
       <use style="stroke:#000000;stroke-width:0.8;" x="90" xlink:href="#m6ccb4c3894" y="58.435134"/>
      </g>
     </g>
     <g id="text_17">
      <text style="font-family:DejaVu Sans;font-size:10px;font-style:normal;font-weight:normal;text-anchor:end;" transform="rotate(-0, 83, 62.234353)" x="83" y="62.234353">0.8</text>
     </g>
    </g>
    <g id="text_18">
     <text style="font-family:DejaVu Sans;font-size:10px;font-style:normal;font-weight:normal;text-anchor:middle;" transform="rotate(-90, 61.017187, 143.28)" x="61.017187" y="143.28">Pearson</text>
    </g>
   </g>
   <g id="line2d_17">
    <path clip-path="url(#p11ae734423)" d="M 0 0 
" style="fill:none;stroke:#424242;stroke-linecap:square;stroke-width:2.7;"/>
   </g>
   <g id="line2d_18">
    <path clip-path="url(#p11ae734423)" d="M 0 0 
" style="fill:none;stroke:#424242;stroke-linecap:square;stroke-width:2.7;"/>
   </g>
   <g id="line2d_19">
    <path clip-path="url(#p11ae734423)" d="M 0 0 
" style="fill:none;stroke:#424242;stroke-linecap:square;stroke-width:2.7;"/>
   </g>
   <g id="line2d_20">
    <path clip-path="url(#p11ae734423)" d="M 0 0 
" style="fill:none;stroke:#424242;stroke-linecap:square;stroke-width:2.7;"/>
   </g>
   <g id="line2d_21">
    <path clip-path="url(#p11ae734423)" d="M 0 0 
" style="fill:none;stroke:#424242;stroke-linecap:square;stroke-width:2.7;"/>
   </g>
   <g id="line2d_22">
    <path clip-path="url(#p11ae734423)" d="M 0 0 
" style="fill:none;stroke:#424242;stroke-linecap:square;stroke-width:2.7;"/>
   </g>
   <g id="line2d_23">
    <path clip-path="url(#p11ae734423)" d="M 0 0 
" style="fill:none;stroke:#424242;stroke-linecap:square;stroke-width:2.7;"/>
   </g>
   <g id="patch_10">
    <path d="M 90 252 
L 90 34.56 
" style="fill:none;stroke:#000000;stroke-linecap:square;stroke-linejoin:miter;stroke-width:0.8;"/>
   </g>
   <g id="patch_11">
    <path d="M 343.636364 252 
L 343.636364 34.56 
" style="fill:none;stroke:#000000;stroke-linecap:square;stroke-linejoin:miter;stroke-width:0.8;"/>
   </g>
   <g id="patch_12">
    <path d="M 90 252 
L 343.636364 252 
" style="fill:none;stroke:#000000;stroke-linecap:square;stroke-linejoin:miter;stroke-width:0.8;"/>
   </g>
   <g id="patch_13">
    <path d="M 90 34.56 
L 343.636364 34.56 
" style="fill:none;stroke:#000000;stroke-linecap:square;stroke-linejoin:miter;stroke-width:0.8;"/>
   </g>
  </g>
  <g id="axes_2">
   <g id="patch_14">
    <path d="M 394.363636 252 
L 648 252 
L 648 34.56 
L 394.363636 34.56 
z
" style="fill:#ffffff;"/>
   </g>
   <g id="PathCollection_1">
    <defs>
     <path d="M 0 3 
C 0.795609 3 1.55874 2.683901 2.12132 2.12132 
C 2.683901 1.55874 3 0.795609 3 0 
C 3 -0.795609 2.683901 -1.55874 2.12132 -2.12132 
C 1.55874 -2.683901 0.795609 -3 0 -3 
C -0.795609 -3 -1.55874 -2.683901 -2.12132 -2.12132 
C -2.683901 -1.55874 -3 -0.795609 -3 0 
C -3 0.795609 -2.683901 1.55874 -2.12132 2.12132 
C -1.55874 2.683901 -0.795609 3 0 3 
z
" id="m842dd45cee" style="stroke:#808080;stroke-opacity:0.8;"/>
    </defs>
    <g clip-path="url(#p2a36b8004e)">
     <use style="fill:#808080;fill-opacity:0.8;stroke:#808080;stroke-opacity:0.8;" x="559.381775" xlink:href="#m842dd45cee" y="137.417221"/>
     <use style="fill:#808080;fill-opacity:0.8;stroke:#808080;stroke-opacity:0.8;" x="503.685234" xlink:href="#m842dd45cee" y="117.161941"/>
     <use style="fill:#808080;fill-opacity:0.8;stroke:#808080;stroke-opacity:0.8;" x="529.061687" xlink:href="#m842dd45cee" y="114.984965"/>
     <use style="fill:#808080;fill-opacity:0.8;stroke:#808080;stroke-opacity:0.8;" x="417.69643" xlink:href="#m842dd45cee" y="235.906374"/>
     <use style="fill:#808080;fill-opacity:0.8;stroke:#808080;stroke-opacity:0.8;" x="530.426558" xlink:href="#m842dd45cee" y="122.855579"/>
     <use style="fill:#808080;fill-opacity:0.8;stroke:#808080;stroke-opacity:0.8;" x="557.466938" xlink:href="#m842dd45cee" y="118.799372"/>
     <use style="fill:#808080;fill-opacity:0.8;stroke:#808080;stroke-opacity:0.8;" x="417.646217" xlink:href="#m842dd45cee" y="242.116364"/>
     <use style="fill:#808080;fill-opacity:0.8;stroke:#808080;stroke-opacity:0.8;" x="535.480355" xlink:href="#m842dd45cee" y="122.149921"/>
     <use style="fill:#808080;fill-opacity:0.8;stroke:#808080;stroke-opacity:0.8;" x="528.335716" xlink:href="#m842dd45cee" y="129.302998"/>
     <use style="fill:#808080;fill-opacity:0.8;stroke:#808080;stroke-opacity:0.8;" x="534.302629" xlink:href="#m842dd45cee" y="123.438156"/>
     <use style="fill:#808080;fill-opacity:0.8;stroke:#808080;stroke-opacity:0.8;" x="550.381369" xlink:href="#m842dd45cee" y="126.433092"/>
     <use style="fill:#808080;fill-opacity:0.8;stroke:#808080;stroke-opacity:0.8;" x="523.144331" xlink:href="#m842dd45cee" y="80.774883"/>
     <use style="fill:#808080;fill-opacity:0.8;stroke:#808080;stroke-opacity:0.8;" x="614.272199" xlink:href="#m842dd45cee" y="134.349699"/>
     <use style="fill:#808080;fill-opacity:0.8;stroke:#808080;stroke-opacity:0.8;" x="561.661052" xlink:href="#m842dd45cee" y="146.168773"/>
     <use style="fill:#808080;fill-opacity:0.8;stroke:#808080;stroke-opacity:0.8;" x="417.801647" xlink:href="#m842dd45cee" y="232.86476"/>
     <use style="fill:#808080;fill-opacity:0.8;stroke:#808080;stroke-opacity:0.8;" x="417.667224" xlink:href="#m842dd45cee" y="229.106782"/>
     <use style="fill:#808080;fill-opacity:0.8;stroke:#808080;stroke-opacity:0.8;" x="549.050313" xlink:href="#m842dd45cee" y="113.97645"/>
     <use style="fill:#808080;fill-opacity:0.8;stroke:#808080;stroke-opacity:0.8;" x="417.73734" xlink:href="#m842dd45cee" y="218.639046"/>
     <use style="fill:#808080;fill-opacity:0.8;stroke:#808080;stroke-opacity:0.8;" x="576.003193" xlink:href="#m842dd45cee" y="112.855481"/>
     <use style="fill:#808080;fill-opacity:0.8;stroke:#808080;stroke-opacity:0.8;" x="474.718479" xlink:href="#m842dd45cee" y="158.441908"/>
    </g>
   </g>
   <g id="PolyCollection_1">
    <path clip-path="url(#p2a36b8004e)" d="M 417.646217 184.721973 
L 417.646217 229.349735 
L 419.632338 227.657363 
L 421.618459 226.011948 
L 423.60458 224.366344 
L 425.590701 222.720906 
L 427.576822 221.009638 
L 429.562943 219.400189 
L 431.549064 217.743621 
L 433.535185 216.145949 
L 435.521306 214.59495 
L 437.507427 213.042826 
L 439.493548 211.4257 
L 441.479669 209.875132 
L 443.46579 208.330044 
L 445.451911 206.785653 
L 447.438032 205.222046 
L 449.424153 203.647088 
L 451.410274 202.190033 
L 453.396395 200.600216 
L 455.382516 199.086312 
L 457.368637 197.604826 
L 459.354759 196.165782 
L 461.34088 194.723138 
L 463.327001 193.257444 
L 465.313122 191.904529 
L 467.299243 190.619959 
L 469.285364 189.344344 
L 471.271485 187.983827 
L 473.257606 186.595664 
L 475.243727 185.177768 
L 477.229848 183.647025 
L 479.215969 182.199293 
L 481.20209 180.963795 
L 483.188211 179.549848 
L 485.174332 178.126031 
L 487.160453 176.77132 
L 489.146574 175.281693 
L 491.132695 174.009197 
L 493.118816 172.71946 
L 495.104937 171.466326 
L 497.091058 170.164856 
L 499.077179 168.960675 
L 501.0633 167.698724 
L 503.049421 166.438198 
L 505.035542 165.161694 
L 507.021663 163.83614 
L 509.007784 162.499017 
L 510.993905 161.179051 
L 512.980026 159.941895 
L 514.966147 158.711694 
L 516.952268 157.4831 
L 518.938389 156.251943 
L 520.92451 155.020786 
L 522.910631 153.789629 
L 524.896752 152.558472 
L 526.882873 151.327315 
L 528.868994 150.096158 
L 530.855116 148.885609 
L 532.841237 147.661159 
L 534.827358 146.432413 
L 536.813479 145.201783 
L 538.7996 144.065912 
L 540.785721 142.981616 
L 542.771842 141.832921 
L 544.757963 140.601042 
L 546.744084 139.494516 
L 548.730205 138.175487 
L 550.716326 136.950262 
L 552.702447 135.786123 
L 554.688568 134.619859 
L 556.674689 133.536856 
L 558.66081 132.352391 
L 560.646931 131.260397 
L 562.633052 130.180885 
L 564.619173 128.97413 
L 566.605294 127.763795 
L 568.591415 126.69324 
L 570.577536 125.720733 
L 572.563657 124.692741 
L 574.549778 123.689702 
L 576.535899 122.580799 
L 578.52202 121.44904 
L 580.508141 120.44332 
L 582.494262 119.277638 
L 584.480383 118.360159 
L 586.466504 117.195851 
L 588.452625 116.06749 
L 590.438746 114.927956 
L 592.424867 113.859143 
L 594.410988 112.875158 
L 596.397109 111.971935 
L 598.38323 110.859785 
L 600.369351 109.798292 
L 602.355472 108.71614 
L 604.341594 107.760555 
L 606.327715 106.871565 
L 608.313836 105.762422 
L 610.299957 104.647752 
L 612.286078 103.571378 
L 614.272199 102.730964 
L 614.272199 44.443636 
L 614.272199 44.443636 
L 612.286078 46.248061 
L 610.299957 48.110988 
L 608.313836 49.985658 
L 606.327715 51.860327 
L 604.341594 53.735969 
L 602.355472 55.6127 
L 600.369351 57.489431 
L 598.38323 59.366163 
L 596.397109 61.242894 
L 594.410988 63.119625 
L 592.424867 64.929969 
L 590.438746 66.691759 
L 588.452625 68.459123 
L 586.466504 70.10832 
L 584.480383 71.793285 
L 582.494262 73.506872 
L 580.508141 75.222525 
L 578.52202 76.960472 
L 576.535899 78.785443 
L 574.549778 80.611611 
L 572.563657 82.38332 
L 570.577536 84.102251 
L 568.591415 85.902462 
L 566.605294 87.704678 
L 564.619173 89.507825 
L 562.633052 91.310971 
L 560.646931 93.114118 
L 558.66081 94.917264 
L 556.674689 96.72041 
L 554.688568 98.541374 
L 552.702447 100.366178 
L 550.716326 102.190982 
L 548.730205 104.015785 
L 546.744084 105.84065 
L 544.757963 107.667741 
L 542.771842 109.523253 
L 540.785721 111.415612 
L 538.7996 113.307971 
L 536.813479 114.968693 
L 534.827358 116.794552 
L 532.841237 118.614214 
L 530.855116 120.148582 
L 528.868994 121.947213 
L 526.882873 123.706063 
L 524.896752 125.174232 
L 522.910631 126.498484 
L 520.92451 128.022535 
L 518.938389 129.717926 
L 516.952268 131.262533 
L 514.966147 132.828565 
L 512.980026 134.548297 
L 510.993905 136.333656 
L 509.007784 137.315375 
L 507.021663 138.795212 
L 505.035542 140.403187 
L 503.049421 141.51213 
L 501.0633 142.905317 
L 499.077179 144.659803 
L 497.091058 145.962338 
L 495.104937 147.101168 
L 493.118816 148.187925 
L 491.132695 149.470503 
L 489.146574 150.59435 
L 487.160453 151.709367 
L 485.174332 152.824385 
L 483.188211 153.941523 
L 481.20209 155.045728 
L 479.215969 155.979766 
L 477.229848 156.968352 
L 475.243727 158.184604 
L 473.257606 159.244712 
L 471.271485 160.200452 
L 469.285364 161.0127 
L 467.299243 161.799595 
L 465.313122 162.9284 
L 463.327001 164.023439 
L 461.34088 164.983364 
L 459.354759 165.943289 
L 457.368637 166.903214 
L 455.382516 167.827778 
L 453.396395 168.818792 
L 451.410274 169.773231 
L 449.424153 170.727671 
L 447.438032 171.68211 
L 445.451911 172.63655 
L 443.46579 173.590989 
L 441.479669 174.545429 
L 439.493548 175.499868 
L 437.507427 176.447343 
L 435.521306 177.379543 
L 433.535185 178.311743 
L 431.549064 179.118632 
L 429.562943 179.906724 
L 427.576822 180.695038 
L 425.590701 181.484431 
L 423.60458 182.273823 
L 421.618459 183.063215 
L 419.632338 183.852608 
L 417.646217 184.721973 
z
" style="fill:#808080;fill-opacity:0.15;"/>
   </g>
   <g id="PathCollection_2">
    <defs>
     <path d="M 0 3 
C 0.795609 3 1.55874 2.683901 2.12132 2.12132 
C 2.683901 1.55874 3 0.795609 3 0 
C 3 -0.795609 2.683901 -1.55874 2.12132 -2.12132 
C 1.55874 -2.683901 0.795609 -3 0 -3 
C -0.795609 -3 -1.55874 -2.683901 -2.12132 -2.12132 
C -2.683901 -1.55874 -3 -0.795609 -3 0 
C -3 0.795609 -2.683901 1.55874 -2.12132 2.12132 
C -1.55874 2.683901 -0.795609 3 0 3 
z
" id="C0_0_9d0c9061db"/>
    </defs>
    <g clip-path="url(#p2a36b8004e)">
     <use style="fill:#1f77b4;stroke:#ffffff;stroke-width:0.75;" x="559.381775" xlink:href="#C0_0_9d0c9061db" y="137.417221"/>
    </g>
    <g clip-path="url(#p2a36b8004e)">
     <use style="fill:#ff7f0e;stroke:#ffffff;stroke-width:0.75;" x="503.685234" xlink:href="#C0_0_9d0c9061db" y="117.161941"/>
    </g>
    <g clip-path="url(#p2a36b8004e)">
     <use style="fill:#2ca02c;stroke:#ffffff;stroke-width:0.75;" x="529.061687" xlink:href="#C0_0_9d0c9061db" y="114.984965"/>
    </g>
    <g clip-path="url(#p2a36b8004e)">
     <use style="fill:#d62728;stroke:#ffffff;stroke-width:0.75;" x="417.69643" xlink:href="#C0_0_9d0c9061db" y="235.906374"/>
    </g>
    <g clip-path="url(#p2a36b8004e)">
     <use style="fill:#ff7f0e;stroke:#ffffff;stroke-width:0.75;" x="530.426558" xlink:href="#C0_0_9d0c9061db" y="122.855579"/>
    </g>
    <g clip-path="url(#p2a36b8004e)">
     <use style="fill:#1f77b4;stroke:#ffffff;stroke-width:0.75;" x="557.466938" xlink:href="#C0_0_9d0c9061db" y="118.799372"/>
    </g>
    <g clip-path="url(#p2a36b8004e)">
     <use style="fill:#d62728;stroke:#ffffff;stroke-width:0.75;" x="417.646217" xlink:href="#C0_0_9d0c9061db" y="242.116364"/>
    </g>
    <g clip-path="url(#p2a36b8004e)">
     <use style="fill:#1f77b4;stroke:#ffffff;stroke-width:0.75;" x="535.480355" xlink:href="#C0_0_9d0c9061db" y="122.149921"/>
    </g>
    <g clip-path="url(#p2a36b8004e)">
     <use style="fill:#ff7f0e;stroke:#ffffff;stroke-width:0.75;" x="528.335716" xlink:href="#C0_0_9d0c9061db" y="129.302998"/>
    </g>
    <g clip-path="url(#p2a36b8004e)">
     <use style="fill:#1f77b4;stroke:#ffffff;stroke-width:0.75;" x="534.302629" xlink:href="#C0_0_9d0c9061db" y="123.438156"/>
    </g>
    <g clip-path="url(#p2a36b8004e)">
     <use style="fill:#2ca02c;stroke:#ffffff;stroke-width:0.75;" x="550.381369" xlink:href="#C0_0_9d0c9061db" y="126.433092"/>
    </g>
    <g clip-path="url(#p2a36b8004e)">
     <use style="fill:#ff7f0e;stroke:#ffffff;stroke-width:0.75;" x="523.144331" xlink:href="#C0_0_9d0c9061db" y="80.774883"/>
    </g>
    <g clip-path="url(#p2a36b8004e)">
     <use style="fill:#2ca02c;stroke:#ffffff;stroke-width:0.75;" x="614.272199" xlink:href="#C0_0_9d0c9061db" y="134.349699"/>
    </g>
    <g clip-path="url(#p2a36b8004e)">
     <use style="fill:#1f77b4;stroke:#ffffff;stroke-width:0.75;" x="561.661052" xlink:href="#C0_0_9d0c9061db" y="146.168773"/>
    </g>
    <g clip-path="url(#p2a36b8004e)">
     <use style="fill:#d62728;stroke:#ffffff;stroke-width:0.75;" x="417.801647" xlink:href="#C0_0_9d0c9061db" y="232.86476"/>
    </g>
    <g clip-path="url(#p2a36b8004e)">
     <use style="fill:#d62728;stroke:#ffffff;stroke-width:0.75;" x="417.667224" xlink:href="#C0_0_9d0c9061db" y="229.106782"/>
    </g>
    <g clip-path="url(#p2a36b8004e)">
     <use style="fill:#2ca02c;stroke:#ffffff;stroke-width:0.75;" x="549.050313" xlink:href="#C0_0_9d0c9061db" y="113.97645"/>
    </g>
    <g clip-path="url(#p2a36b8004e)">
     <use style="fill:#d62728;stroke:#ffffff;stroke-width:0.75;" x="417.73734" xlink:href="#C0_0_9d0c9061db" y="218.639046"/>
    </g>
    <g clip-path="url(#p2a36b8004e)">
     <use style="fill:#2ca02c;stroke:#ffffff;stroke-width:0.75;" x="576.003193" xlink:href="#C0_0_9d0c9061db" y="112.855481"/>
    </g>
    <g clip-path="url(#p2a36b8004e)">
     <use style="fill:#ff7f0e;stroke:#ffffff;stroke-width:0.75;" x="474.718479" xlink:href="#C0_0_9d0c9061db" y="158.441908"/>
    </g>
   </g>
   <g id="PathCollection_3"/>
   <g id="PathCollection_4"/>
   <g id="PathCollection_5"/>
   <g id="PathCollection_6"/>
   <g id="PathCollection_7"/>
   <g id="matplotlib.axis_3">
    <g id="xtick_8">
     <g id="line2d_24">
      <g>
       <use style="stroke:#000000;stroke-width:0.8;" x="417.421488" xlink:href="#m9f186cd87f" y="252"/>
      </g>
     </g>
     <g id="text_19">
      <text style="font-family:DejaVu Sans;font-size:10px;font-style:normal;font-weight:normal;text-anchor:middle;" transform="rotate(-0, 417.421488, 266.598437)" x="417.421488" y="266.598437">0.0</text>
     </g>
    </g>
    <g id="xtick_9">
     <g id="line2d_25">
      <g>
       <use style="stroke:#000000;stroke-width:0.8;" x="463.53719" xlink:href="#m9f186cd87f" y="252"/>
      </g>
     </g>
     <g id="text_20">
      <text style="font-family:DejaVu Sans;font-size:10px;font-style:normal;font-weight:normal;text-anchor:middle;" transform="rotate(-0, 463.53719, 266.598437)" x="463.53719" y="266.598437">0.1</text>
     </g>
    </g>
    <g id="xtick_10">
     <g id="line2d_26">
      <g>
       <use style="stroke:#000000;stroke-width:0.8;" x="509.652893" xlink:href="#m9f186cd87f" y="252"/>
      </g>
     </g>
     <g id="text_21">
      <text style="font-family:DejaVu Sans;font-size:10px;font-style:normal;font-weight:normal;text-anchor:middle;" transform="rotate(-0, 509.652893, 266.598437)" x="509.652893" y="266.598437">0.2</text>
     </g>
    </g>
    <g id="xtick_11">
     <g id="line2d_27">
      <g>
       <use style="stroke:#000000;stroke-width:0.8;" x="555.768595" xlink:href="#m9f186cd87f" y="252"/>
      </g>
     </g>
     <g id="text_22">
      <text style="font-family:DejaVu Sans;font-size:10px;font-style:normal;font-weight:normal;text-anchor:middle;" transform="rotate(-0, 555.768595, 266.598437)" x="555.768595" y="266.598437">0.3</text>
     </g>
    </g>
    <g id="xtick_12">
     <g id="line2d_28">
      <g>
       <use style="stroke:#000000;stroke-width:0.8;" x="601.884298" xlink:href="#m9f186cd87f" y="252"/>
      </g>
     </g>
     <g id="text_23">
      <text style="font-family:DejaVu Sans;font-size:10px;font-style:normal;font-weight:normal;text-anchor:middle;" transform="rotate(-0, 601.884298, 266.598437)" x="601.884298" y="266.598437">0.4</text>
     </g>
    </g>
    <g id="xtick_13">
     <g id="line2d_29">
      <g>
       <use style="stroke:#000000;stroke-width:0.8;" x="648" xlink:href="#m9f186cd87f" y="252"/>
      </g>
     </g>
     <g id="text_24">
      <text style="font-family:DejaVu Sans;font-size:10px;font-style:normal;font-weight:normal;text-anchor:middle;" transform="rotate(-0, 648, 266.598437)" x="648" y="266.598437">0.5</text>
     </g>
    </g>
    <g id="text_25">
     <text style="font-family:DejaVu Sans;font-size:10px;font-style:normal;font-weight:normal;text-anchor:middle;" transform="rotate(-0, 521.181818, 280.276563)" x="521.181818" y="280.276563">MuDe</text>
    </g>
   </g>
   <g id="matplotlib.axis_4">
    <g id="ytick_10">
     <g id="line2d_30">
      <g>
       <use style="stroke:#000000;stroke-width:0.8;" x="394.363636" xlink:href="#m6ccb4c3894" y="216.468752"/>
      </g>
     </g>
     <g id="text_26">
      <text style="font-family:DejaVu Sans;font-size:10px;font-style:normal;font-weight:normal;text-anchor:end;" transform="rotate(-0, 387.363636, 220.26797)" x="387.363636" y="220.26797">1.0</text>
     </g>
    </g>
    <g id="ytick_11">
     <g id="line2d_31">
      <g>
       <use style="stroke:#000000;stroke-width:0.8;" x="394.363636" xlink:href="#m6ccb4c3894" y="168.517366"/>
      </g>
     </g>
     <g id="text_27">
      <text style="font-family:DejaVu Sans;font-size:10px;font-style:normal;font-weight:normal;text-anchor:end;" transform="rotate(-0, 387.363636, 172.316585)" x="387.363636" y="172.316585">1.5</text>
     </g>
    </g>
    <g id="ytick_12">
     <g id="line2d_32">
      <g>
       <use style="stroke:#000000;stroke-width:0.8;" x="394.363636" xlink:href="#m6ccb4c3894" y="120.565981"/>
      </g>
     </g>
     <g id="text_28">
      <text style="font-family:DejaVu Sans;font-size:10px;font-style:normal;font-weight:normal;text-anchor:end;" transform="rotate(-0, 387.363636, 124.3652)" x="387.363636" y="124.3652">2.0</text>
     </g>
    </g>
    <g id="ytick_13">
     <g id="line2d_33">
      <g>
       <use style="stroke:#000000;stroke-width:0.8;" x="394.363636" xlink:href="#m6ccb4c3894" y="72.614596"/>
      </g>
     </g>
     <g id="text_29">
      <text style="font-family:DejaVu Sans;font-size:10px;font-style:normal;font-weight:normal;text-anchor:end;" transform="rotate(-0, 387.363636, 76.413814)" x="387.363636" y="76.413814">2.5</text>
     </g>
    </g>
    <g id="text_30">
     <text style="font-family:DejaVu Sans;font-size:10px;font-style:normal;font-weight:normal;text-anchor:middle;" transform="rotate(-90, 365.380824, 143.28)" x="365.380824" y="143.28">qPCR</text>
    </g>
    <g id="text_31">
     <text style="font-family:DejaVu Sans;font-size:10px;font-style:normal;font-weight:normal;text-anchor:start;" transform="rotate(-0, 394.363636, 31.56)" x="394.363636" y="31.56">1e8</text>
    </g>
   </g>
   <g id="line2d_34">
    <path clip-path="url(#p2a36b8004e)" d="M 417.646217 216.005753 
L 419.632338 214.617309 
L 421.618459 213.228864 
L 423.60458 211.84042 
L 425.590701 210.451975 
L 427.576822 209.063531 
L 429.562943 207.675086 
L 431.549064 206.286642 
L 433.535185 204.898197 
L 435.521306 203.509753 
L 437.507427 202.121308 
L 439.493548 200.732864 
L 441.479669 199.344419 
L 443.46579 197.955975 
L 445.451911 196.56753 
L 447.438032 195.179086 
L 449.424153 193.790641 
L 451.410274 192.402197 
L 453.396395 191.013752 
L 455.382516 189.625308 
L 457.368637 188.236863 
L 459.354759 186.848419 
L 461.34088 185.459974 
L 463.327001 184.07153 
L 465.313122 182.683085 
L 467.299243 181.294641 
L 469.285364 179.906196 
L 471.271485 178.517752 
L 473.257606 177.129307 
L 475.243727 175.740863 
L 477.229848 174.352418 
L 479.215969 172.963974 
L 481.20209 171.575529 
L 483.188211 170.187085 
L 485.174332 168.79864 
L 487.160453 167.410196 
L 489.146574 166.021751 
L 491.132695 164.633307 
L 493.118816 163.244862 
L 495.104937 161.856418 
L 497.091058 160.467973 
L 499.077179 159.079529 
L 501.0633 157.691084 
L 503.049421 156.30264 
L 505.035542 154.914195 
L 507.021663 153.525751 
L 509.007784 152.137306 
L 510.993905 150.748862 
L 512.980026 149.360417 
L 514.966147 147.971973 
L 516.952268 146.583528 
L 518.938389 145.195084 
L 520.92451 143.806639 
L 522.910631 142.418195 
L 524.896752 141.02975 
L 526.882873 139.641306 
L 528.868994 138.252861 
L 530.855116 136.864417 
L 532.841237 135.475972 
L 534.827358 134.087528 
L 536.813479 132.699083 
L 538.7996 131.310639 
L 540.785721 129.922194 
L 542.771842 128.53375 
L 544.757963 127.145305 
L 546.744084 125.756861 
L 548.730205 124.368416 
L 550.716326 122.979972 
L 552.702447 121.591527 
L 554.688568 120.203083 
L 556.674689 118.814638 
L 558.66081 117.426194 
L 560.646931 116.037749 
L 562.633052 114.649305 
L 564.619173 113.26086 
L 566.605294 111.872416 
L 568.591415 110.483971 
L 570.577536 109.095527 
L 572.563657 107.707082 
L 574.549778 106.318638 
L 576.535899 104.930193 
L 578.52202 103.541749 
L 580.508141 102.153304 
L 582.494262 100.76486 
L 584.480383 99.376415 
L 586.466504 97.987971 
L 588.452625 96.599526 
L 590.438746 95.211082 
L 592.424867 93.822637 
L 594.410988 92.434193 
L 596.397109 91.045748 
L 598.38323 89.657304 
L 600.369351 88.268859 
L 602.355472 86.880415 
L 604.341594 85.49197 
L 606.327715 84.103526 
L 608.313836 82.715081 
L 610.299957 81.326637 
L 612.286078 79.938192 
L 614.272199 78.549748 
" style="fill:none;stroke:#808080;stroke-linecap:square;stroke-width:2.25;"/>
   </g>
   <g id="patch_15">
    <path d="M 394.363636 252 
L 394.363636 34.56 
" style="fill:none;stroke:#000000;stroke-linecap:square;stroke-linejoin:miter;stroke-width:0.8;"/>
   </g>
   <g id="patch_16">
    <path d="M 648 252 
L 648 34.56 
" style="fill:none;stroke:#000000;stroke-linecap:square;stroke-linejoin:miter;stroke-width:0.8;"/>
   </g>
   <g id="patch_17">
    <path d="M 394.363636 252 
L 648 252 
" style="fill:none;stroke:#000000;stroke-linecap:square;stroke-linejoin:miter;stroke-width:0.8;"/>
   </g>
   <g id="patch_18">
    <path d="M 394.363636 34.56 
L 648 34.56 
" style="fill:none;stroke:#000000;stroke-linecap:square;stroke-linejoin:miter;stroke-width:0.8;"/>
   </g>
   <g id="legend_1">
    <g id="patch_19">
     <path d="M 401.363636 115.950625 
L 491.416761 115.950625 
Q 493.416761 115.950625 493.416761 113.950625 
L 493.416761 41.56 
Q 493.416761 39.56 491.416761 39.56 
L 401.363636 39.56 
Q 399.363636 39.56 399.363636 41.56 
L 399.363636 113.950625 
Q 399.363636 115.950625 401.363636 115.950625 
z
" style="fill:#ffffff;opacity:0.8;stroke:#cccccc;stroke-linejoin:miter;"/>
    </g>
    <g id="PathCollection_8">
     <defs>
      <path id="m4519bfe395" style="stroke:#ffffff;stroke-width:1.5;"/>
     </defs>
     <g>
      <use style="fill:#ffffff;stroke:#ffffff;stroke-width:1.5;" x="413.363636" xlink:href="#m4519bfe395" y="48.533437"/>
     </g>
    </g>
    <g id="text_32">
     <text style="font-family:DejaVu Sans;font-size:10px;font-style:normal;font-weight:normal;text-anchor:start;" transform="rotate(-0, 431.363636, 51.158437)" x="431.363636" y="51.158437">Vendor</text>
    </g>
    <g id="PathCollection_9">
     <defs>
      <path d="M 0 3 
C 0.795609 3 1.55874 2.683901 2.12132 2.12132 
C 2.683901 1.55874 3 0.795609 3 0 
C 3 -0.795609 2.683901 -1.55874 2.12132 -2.12132 
C 1.55874 -2.683901 0.795609 -3 0 -3 
C -0.795609 -3 -1.55874 -2.683901 -2.12132 -2.12132 
C -2.683901 -1.55874 -3 -0.795609 -3 0 
C -3 0.795609 -2.683901 1.55874 -2.12132 2.12132 
C -1.55874 2.683901 -0.795609 3 0 3 
z
" id="mbc659e827b" style="stroke:#1f77b4;"/>
     </defs>
     <g>
      <use style="fill:#1f77b4;stroke:#1f77b4;" x="413.363636" xlink:href="#mbc659e827b" y="63.211562"/>
     </g>
    </g>
    <g id="text_33">
     <text style="font-family:DejaVu Sans;font-size:10px;font-style:normal;font-weight:normal;text-anchor:start;" transform="rotate(-0, 431.363636, 65.836562)" x="431.363636" y="65.836562">Beijing</text>
    </g>
    <g id="PathCollection_10">
     <defs>
      <path d="M 0 3 
C 0.795609 3 1.55874 2.683901 2.12132 2.12132 
C 2.683901 1.55874 3 0.795609 3 0 
C 3 -0.795609 2.683901 -1.55874 2.12132 -2.12132 
C 1.55874 -2.683901 0.795609 -3 0 -3 
C -0.795609 -3 -1.55874 -2.683901 -2.12132 -2.12132 
C -2.683901 -1.55874 -3 -0.795609 -3 0 
C -3 0.795609 -2.683901 1.55874 -2.12132 2.12132 
C -1.55874 2.683901 -0.795609 3 0 3 
z
" id="m2e7a150069" style="stroke:#ff7f0e;"/>
     </defs>
     <g>
      <use style="fill:#ff7f0e;stroke:#ff7f0e;" x="413.363636" xlink:href="#m2e7a150069" y="77.889687"/>
     </g>
    </g>
    <g id="text_34">
     <text style="font-family:DejaVu Sans;font-size:10px;font-style:normal;font-weight:normal;text-anchor:start;" transform="rotate(-0, 431.363636, 80.514687)" x="431.363636" y="80.514687">Hunan</text>
    </g>
    <g id="PathCollection_11">
     <defs>
      <path d="M 0 3 
C 0.795609 3 1.55874 2.683901 2.12132 2.12132 
C 2.683901 1.55874 3 0.795609 3 0 
C 3 -0.795609 2.683901 -1.55874 2.12132 -2.12132 
C 1.55874 -2.683901 0.795609 -3 0 -3 
C -0.795609 -3 -1.55874 -2.683901 -2.12132 -2.12132 
C -2.683901 -1.55874 -3 -0.795609 -3 0 
C -3 0.795609 -2.683901 1.55874 -2.12132 2.12132 
C -1.55874 2.683901 -0.795609 3 0 3 
z
" id="m7bec1b1407" style="stroke:#2ca02c;"/>
     </defs>
     <g>
      <use style="fill:#2ca02c;stroke:#2ca02c;" x="413.363636" xlink:href="#m7bec1b1407" y="92.567813"/>
     </g>
    </g>
    <g id="text_35">
     <text style="font-family:DejaVu Sans;font-size:10px;font-style:normal;font-weight:normal;text-anchor:start;" transform="rotate(-0, 431.363636, 95.192813)" x="431.363636" y="95.192813">Guangdong</text>
    </g>
    <g id="PathCollection_12">
     <defs>
      <path d="M 0 3 
C 0.795609 3 1.55874 2.683901 2.12132 2.12132 
C 2.683901 1.55874 3 0.795609 3 0 
C 3 -0.795609 2.683901 -1.55874 2.12132 -2.12132 
C 1.55874 -2.683901 0.795609 -3 0 -3 
C -0.795609 -3 -1.55874 -2.683901 -2.12132 -2.12132 
C -2.683901 -1.55874 -3 -0.795609 -3 0 
C -3 0.795609 -2.683901 1.55874 -2.12132 2.12132 
C -1.55874 2.683901 -0.795609 3 0 3 
z
" id="ma3d72cb0cc" style="stroke:#d62728;"/>
     </defs>
     <g>
      <use style="fill:#d62728;stroke:#d62728;" x="413.363636" xlink:href="#ma3d72cb0cc" y="107.245937"/>
     </g>
    </g>
    <g id="text_36">
     <text style="font-family:DejaVu Sans;font-size:10px;font-style:normal;font-weight:normal;text-anchor:start;" transform="rotate(-0, 431.363636, 109.870937)" x="431.363636" y="109.870937">Shanghai</text>
    </g>
   </g>
  </g>
 </g>
 <defs>
  <clipPath id="p11ae734423">
   <rect height="217.44" width="253.636364" x="90" y="34.56"/>
  </clipPath>
  <clipPath id="p2a36b8004e">
   <rect height="217.44" width="253.636364" x="394.363636" y="34.56"/>
  </clipPath>
 </defs>
</svg>
