<?xml version="1.0" encoding="utf-8" standalone="no"?>
<!DOCTYPE svg PUBLIC "-//W3C//DTD SVG 1.1//EN"
  "http://www.w3.org/Graphics/SVG/1.1/DTD/svg11.dtd">
<!-- Created with matplotlib (https://matplotlib.org/) -->
<svg height="180pt" version="1.1" viewBox="0 0 360 180" width="360pt" xmlns="http://www.w3.org/2000/svg" xmlns:xlink="http://www.w3.org/1999/xlink">
 <defs>
  <style type="text/css">
*{stroke-linecap:butt;stroke-linejoin:round;}
  </style>
 </defs>
 <g id="figure_1">
  <g id="patch_1">
   <path d="M 0 180 
L 360 180 
L 360 0 
L 0 0 
z
" style="fill:#ffffff;"/>
  </g>
  <g id="axes_1">
   <g id="patch_2">
    <path d="M 56.175 138.2 
L 194.054545 138.2 
L 194.054545 26.8 
L 56.175 26.8 
z
" style="fill:#ffffff;"/>
   </g>
   <g id="PathCollection_1"/>
   <g id="PathCollection_2"/>
   <g id="PathCollection_3"/>
   <g id="patch_3">
    <path clip-path="url(#p44b62416b0)" d="M 63.068977 88.688889 
L 90.644886 88.688889 
L 90.644886 42.912412 
L 63.068977 42.912412 
z
" style="fill:#f1f1f1;"/>
   </g>
   <g id="patch_4">
    <path clip-path="url(#p44b62416b0)" d="M 132.00875 88.688889 
L 159.584659 88.688889 
L 159.584659 43.343187 
L 132.00875 43.343187 
z
" style="fill:#f1f1f1;"/>
   </g>
   <g id="patch_5">
    <path clip-path="url(#p44b62416b0)" d="M 90.644886 88.688889 
L 118.220795 88.688889 
L 118.220795 71.291393 
L 90.644886 71.291393 
z
" style="fill:#808080;"/>
   </g>
   <g id="patch_6">
    <path clip-path="url(#p44b62416b0)" d="M 159.584659 88.688889 
L 187.160568 88.688889 
L 187.160568 102.47615 
L 159.584659 102.47615 
z
" style="fill:#808080;"/>
   </g>
   <g id="matplotlib.axis_1">
    <g id="xtick_1">
     <g id="line2d_1">
      <defs>
       <path d="M 0 0 
L 0 3.5 
" id="m4c9dd904b8" style="stroke:#000000;stroke-width:0.8;"/>
      </defs>
      <g>
       <use style="stroke:#000000;stroke-width:0.8;" x="90.644886" xlink:href="#m4c9dd904b8" y="138.2"/>
      </g>
     </g>
     <g id="text_1">
      <text style="font-family:DejaVu Sans;font-size:10px;font-style:normal;font-weight:normal;text-anchor:middle;" transform="rotate(-0, 90.644886, 152.798438)" x="90.644886" y="152.798438">intrapolation</text>
     </g>
    </g>
    <g id="xtick_2">
     <g id="line2d_2">
      <g>
       <use style="stroke:#000000;stroke-width:0.8;" x="159.584659" xlink:href="#m4c9dd904b8" y="138.2"/>
      </g>
     </g>
     <g id="text_2">
      <text style="font-family:DejaVu Sans;font-size:10px;font-style:normal;font-weight:normal;text-anchor:middle;" transform="rotate(-0, 159.584659, 152.798438)" x="159.584659" y="152.798438">extrapolation</text>
     </g>
    </g>
    <g id="text_3">
     <text style="font-family:DejaVu Sans;font-size:10px;font-style:normal;font-weight:normal;text-anchor:middle;" transform="rotate(-0, 125.114773, 166.476562)" x="125.114773" y="166.476562">PerturbationType</text>
    </g>
   </g>
   <g id="matplotlib.axis_2">
    <g id="ytick_1">
     <g id="line2d_3">
      <defs>
       <path d="M 0 0 
L -3.5 0 
" id="mf778573981" style="stroke:#000000;stroke-width:0.8;"/>
      </defs>
      <g>
       <use style="stroke:#000000;stroke-width:0.8;" x="56.175" xlink:href="#mf778573981" y="119.633333"/>
      </g>
     </g>
     <g id="text_4">
      <text style="font-family:DejaVu Sans;font-size:10px;font-style:normal;font-weight:normal;text-anchor:end;" transform="rotate(-0, 49.175, 123.432552)" x="49.175" y="123.432552">−0.5</text>
     </g>
    </g>
    <g id="ytick_2">
     <g id="line2d_4">
      <g>
       <use style="stroke:#000000;stroke-width:0.8;" x="56.175" xlink:href="#mf778573981" y="88.688889"/>
      </g>
     </g>
     <g id="text_5">
      <text style="font-family:DejaVu Sans;font-size:10px;font-style:normal;font-weight:normal;text-anchor:end;" transform="rotate(-0, 49.175, 92.488108)" x="49.175" y="92.488108">0.0</text>
     </g>
    </g>
    <g id="ytick_3">
     <g id="line2d_5">
      <g>
       <use style="stroke:#000000;stroke-width:0.8;" x="56.175" xlink:href="#mf778573981" y="57.744444"/>
      </g>
     </g>
     <g id="text_6">
      <text style="font-family:DejaVu Sans;font-size:10px;font-style:normal;font-weight:normal;text-anchor:end;" transform="rotate(-0, 49.175, 61.543663)" x="49.175" y="61.543663">0.5</text>
     </g>
    </g>
    <g id="ytick_4">
     <g id="line2d_6">
      <g>
       <use style="stroke:#000000;stroke-width:0.8;" x="56.175" xlink:href="#mf778573981" y="26.8"/>
      </g>
     </g>
     <g id="text_7">
      <text style="font-family:DejaVu Sans;font-size:10px;font-style:normal;font-weight:normal;text-anchor:end;" transform="rotate(-0, 49.175, 30.599219)" x="49.175" y="30.599219">1.0</text>
     </g>
    </g>
    <g id="text_8">
     <text style="font-family:DejaVu Sans;font-size:10px;font-style:normal;font-weight:normal;text-anchor:middle;" transform="rotate(-90, 18.8125, 82.5)" x="18.8125" y="82.5">R2</text>
    </g>
   </g>
   <g id="patch_7">
    <path d="M 56.175 138.2 
L 56.175 26.8 
" style="fill:none;stroke:#000000;stroke-linecap:square;stroke-linejoin:miter;stroke-width:0.8;"/>
   </g>
   <g id="patch_8">
    <path d="M 194.054545 138.2 
L 194.054545 26.8 
" style="fill:none;stroke:#000000;stroke-linecap:square;stroke-linejoin:miter;stroke-width:0.8;"/>
   </g>
   <g id="patch_9">
    <path d="M 56.175 138.2 
L 194.054545 138.2 
" style="fill:none;stroke:#000000;stroke-linecap:square;stroke-linejoin:miter;stroke-width:0.8;"/>
   </g>
   <g id="patch_10">
    <path d="M 56.175 26.8 
L 194.054545 26.8 
" style="fill:none;stroke:#000000;stroke-linecap:square;stroke-linejoin:miter;stroke-width:0.8;"/>
   </g>
   <g id="PathCollection_4">
    <defs>
     <path d="M 0 5 
C 1.326016 5 2.597899 4.473168 3.535534 3.535534 
C 4.473168 2.597899 5 1.326016 5 0 
C 5 -1.326016 4.473168 -2.597899 3.535534 -3.535534 
C 2.597899 -4.473168 1.326016 -5 0 -5 
C -1.326016 -5 -2.597899 -4.473168 -3.535534 -3.535534 
C -4.473168 -2.597899 -5 -1.326016 -5 0 
C -5 1.326016 -4.473168 2.597899 -3.535534 3.535534 
C -2.597899 4.473168 -1.326016 5 0 5 
z
" id="C0_0_35cef844d3"/>
    </defs>
    <g clip-path="url(#p44b62416b0)">
     <use style="fill:#1f77b4;" x="71.291261" xlink:href="#C0_0_35cef844d3" y="47.731131"/>
    </g>
    <g clip-path="url(#p44b62416b0)">
     <use style="fill:#1f77b4;" x="72.490164" xlink:href="#C0_0_35cef844d3" y="82.471323"/>
    </g>
   </g>
   <g id="PathCollection_5">
    <defs>
     <path d="M 0 5 
C 1.326016 5 2.597899 4.473168 3.535534 3.535534 
C 4.473168 2.597899 5 1.326016 5 0 
C 5 -1.326016 4.473168 -2.597899 3.535534 -3.535534 
C 2.597899 -4.473168 1.326016 -5 0 -5 
C -1.326016 -5 -2.597899 -4.473168 -3.535534 -3.535534 
C -4.473168 -2.597899 -5 -1.326016 -5 0 
C -5 1.326016 -4.473168 2.597899 -3.535534 3.535534 
C -2.597899 4.473168 -1.326016 5 0 5 
z
" id="C1_0_e764adbee9"/>
    </defs>
    <g clip-path="url(#p44b62416b0)">
     <use style="fill:#ff7f0e;" x="92.201411" xlink:href="#C1_0_e764adbee9" y="37.181314"/>
    </g>
    <g clip-path="url(#p44b62416b0)">
     <use style="fill:#ff7f0e;" x="90.213348" xlink:href="#C1_0_e764adbee9" y="60.964254"/>
    </g>
   </g>
   <g id="PathCollection_6">
    <defs>
     <path d="M 0 5 
C 1.326016 5 2.597899 4.473168 3.535534 3.535534 
C 4.473168 2.597899 5 1.326016 5 0 
C 5 -1.326016 4.473168 -2.597899 3.535534 -3.535534 
C 2.597899 -4.473168 1.326016 -5 0 -5 
C -1.326016 -5 -2.597899 -4.473168 -3.535534 -3.535534 
C -4.473168 -2.597899 -5 -1.326016 -5 0 
C -5 1.326016 -4.473168 2.597899 -3.535534 3.535534 
C -2.597899 4.473168 -1.326016 5 0 5 
z
" id="C2_0_f616f29bea"/>
    </defs>
    <g clip-path="url(#p44b62416b0)">
     <use style="fill:#2ca02c;" x="107.314241" xlink:href="#C2_0_f616f29bea" y="43.82479"/>
    </g>
    <g clip-path="url(#p44b62416b0)">
     <use style="fill:#2ca02c;" x="107.206145" xlink:href="#C2_0_f616f29bea" y="70.438603"/>
    </g>
   </g>
   <g id="PathCollection_7">
    <defs>
     <path d="M 0 5 
C 1.326016 5 2.597899 4.473168 3.535534 3.535534 
C 4.473168 2.597899 5 1.326016 5 0 
C 5 -1.326016 4.473168 -2.597899 3.535534 -3.535534 
C 2.597899 -4.473168 1.326016 -5 0 -5 
C -1.326016 -5 -2.597899 -4.473168 -3.535534 -3.535534 
C -4.473168 -2.597899 -5 -1.326016 -5 0 
C -5 1.326016 -4.473168 2.597899 -3.535534 3.535534 
C -2.597899 4.473168 -1.326016 5 0 5 
z
" id="C3_0_cef7d78bbb"/>
    </defs>
    <g clip-path="url(#p44b62416b0)">
     <use style="fill:#1f77b4;" x="140.302783" xlink:href="#C3_0_cef7d78bbb" y="44.851895"/>
    </g>
    <g clip-path="url(#p44b62416b0)">
     <use style="fill:#1f77b4;" x="140.236543" xlink:href="#C3_0_cef7d78bbb" y="91.051949"/>
    </g>
   </g>
   <g id="PathCollection_8">
    <defs>
     <path d="M 0 5 
C 1.326016 5 2.597899 4.473168 3.535534 3.535534 
C 4.473168 2.597899 5 1.326016 5 0 
C 5 -1.326016 4.473168 -2.597899 3.535534 -3.535534 
C 2.597899 -4.473168 1.326016 -5 0 -5 
C -1.326016 -5 -2.597899 -4.473168 -3.535534 -3.535534 
C -4.473168 -2.597899 -5 -1.326016 -5 0 
C -5 1.326016 -4.473168 2.597899 -3.535534 3.535534 
C -2.597899 4.473168 -1.326016 5 0 5 
z
" id="C4_0_dc8d6a98be"/>
    </defs>
    <g clip-path="url(#p44b62416b0)">
     <use style="fill:#ff7f0e;" x="160.095045" xlink:href="#C4_0_dc8d6a98be" y="41.300883"/>
    </g>
    <g clip-path="url(#p44b62416b0)">
     <use style="fill:#ff7f0e;" x="161.629343" xlink:href="#C4_0_dc8d6a98be" y="99.603434"/>
    </g>
   </g>
   <g id="PathCollection_9">
    <defs>
     <path d="M 0 5 
C 1.326016 5 2.597899 4.473168 3.535534 3.535534 
C 4.473168 2.597899 5 1.326016 5 0 
C 5 -1.326016 4.473168 -2.597899 3.535534 -3.535534 
C 2.597899 -4.473168 1.326016 -5 0 -5 
C -1.326016 -5 -2.597899 -4.473168 -3.535534 -3.535534 
C -4.473168 -2.597899 -5 -1.326016 -5 0 
C -5 1.326016 -4.473168 2.597899 -3.535534 3.535534 
C -2.597899 4.473168 -1.326016 5 0 5 
z
" id="C5_0_b632bb2c68"/>
    </defs>
    <g clip-path="url(#p44b62416b0)">
     <use style="fill:#2ca02c;" x="177.676533" xlink:href="#C5_0_b632bb2c68" y="43.876783"/>
    </g>
    <g clip-path="url(#p44b62416b0)">
     <use style="fill:#2ca02c;" x="179.45962" xlink:href="#C5_0_b632bb2c68" y="116.773068"/>
    </g>
   </g>
   <g id="text_9">
    <text style="font-family:DejaVu Sans;font-size:12px;font-style:normal;font-weight:normal;text-anchor:middle;" transform="rotate(-0, 125.114773, 20.8)" x="125.114773" y="20.8">wo weights</text>
   </g>
   <g id="legend_1">
    <g id="patch_11">
     <path d="M 63.175 133.2 
L 148.81875 133.2 
Q 150.81875 133.2 150.81875 131.2 
L 150.81875 44.13125 
Q 150.81875 42.13125 148.81875 42.13125 
L 63.175 42.13125 
Q 61.175 42.13125 61.175 44.13125 
L 61.175 131.2 
Q 61.175 133.2 63.175 133.2 
z
" style="fill:#ffffff;opacity:0.8;stroke:#cccccc;stroke-linejoin:miter;"/>
    </g>
    <g id="text_10">
     <text style="font-family:DejaVu Sans;font-size:10px;font-style:normal;font-weight:normal;text-anchor:start;" transform="rotate(-0, 69.677344, 53.729688)" x="69.677344" y="53.729688">PredictionType</text>
    </g>
    <g id="PathCollection_10">
     <defs>
      <path d="M 0 3.872983 
C 1.027127 3.872983 2.012324 3.464901 2.738613 2.738613 
C 3.464901 2.012324 3.872983 1.027127 3.872983 0 
C 3.872983 -1.027127 3.464901 -2.012324 2.738613 -2.738613 
C 2.012324 -3.464901 1.027127 -3.872983 0 -3.872983 
C -1.027127 -3.872983 -2.012324 -3.464901 -2.738613 -2.738613 
C -3.464901 -2.012324 -3.872983 -1.027127 -3.872983 0 
C -3.872983 1.027127 -3.464901 2.012324 -2.738613 2.738613 
C -2.012324 3.464901 -1.027127 3.872983 0 3.872983 
z
" id="mf7df8a62c7" style="stroke:#1f77b4;"/>
     </defs>
     <g>
      <use style="fill:#1f77b4;stroke:#1f77b4;" x="75.175" xlink:href="#mf7df8a62c7" y="65.782813"/>
     </g>
    </g>
    <g id="text_11">
     <text style="font-family:DejaVu Sans;font-size:10px;font-style:normal;font-weight:normal;text-anchor:start;" transform="rotate(-0, 93.175, 68.407813)" x="93.175" y="68.407813">Acetate</text>
    </g>
    <g id="PathCollection_11">
     <defs>
      <path d="M 0 3.872983 
C 1.027127 3.872983 2.012324 3.464901 2.738613 2.738613 
C 3.464901 2.012324 3.872983 1.027127 3.872983 0 
C 3.872983 -1.027127 3.464901 -2.012324 2.738613 -2.738613 
C 2.012324 -3.464901 1.027127 -3.872983 0 -3.872983 
C -1.027127 -3.872983 -2.012324 -3.464901 -2.738613 -2.738613 
C -3.464901 -2.012324 -3.872983 -1.027127 -3.872983 0 
C -3.872983 1.027127 -3.464901 2.012324 -2.738613 2.738613 
C -2.012324 3.464901 -1.027127 3.872983 0 3.872983 
z
" id="m1c933c7960" style="stroke:#ff7f0e;"/>
     </defs>
     <g>
      <use style="fill:#ff7f0e;stroke:#ff7f0e;" x="75.175" xlink:href="#m1c933c7960" y="80.460938"/>
     </g>
    </g>
    <g id="text_12">
     <text style="font-family:DejaVu Sans;font-size:10px;font-style:normal;font-weight:normal;text-anchor:start;" transform="rotate(-0, 93.175, 83.085938)" x="93.175" y="83.085938">Butyrate</text>
    </g>
    <g id="PathCollection_12">
     <defs>
      <path d="M 0 3.872983 
C 1.027127 3.872983 2.012324 3.464901 2.738613 2.738613 
C 3.464901 2.012324 3.872983 1.027127 3.872983 0 
C 3.872983 -1.027127 3.464901 -2.012324 2.738613 -2.738613 
C 2.012324 -3.464901 1.027127 -3.872983 0 -3.872983 
C -1.027127 -3.872983 -2.012324 -3.464901 -2.738613 -2.738613 
C -3.464901 -2.012324 -3.872983 -1.027127 -3.872983 0 
C -3.872983 1.027127 -3.464901 2.012324 -2.738613 2.738613 
C -2.012324 3.464901 -1.027127 3.872983 0 3.872983 
z
" id="m9144d12d9a" style="stroke:#2ca02c;"/>
     </defs>
     <g>
      <use style="fill:#2ca02c;stroke:#2ca02c;" x="75.175" xlink:href="#m9144d12d9a" y="95.139063"/>
     </g>
    </g>
    <g id="text_13">
     <text style="font-family:DejaVu Sans;font-size:10px;font-style:normal;font-weight:normal;text-anchor:start;" transform="rotate(-0, 93.175, 97.764063)" x="93.175" y="97.764063">Propionate</text>
    </g>
    <g id="patch_12">
     <path d="M 65.175 112.442188 
L 85.175 112.442188 
L 85.175 105.442188 
L 65.175 105.442188 
z
" style="fill:#f1f1f1;"/>
    </g>
    <g id="text_14">
     <text style="font-family:DejaVu Sans;font-size:10px;font-style:normal;font-weight:normal;text-anchor:start;" transform="rotate(-0, 93.175, 112.442188)" x="93.175" y="112.442188">train</text>
    </g>
    <g id="patch_13">
     <path d="M 65.175 127.120313 
L 85.175 127.120313 
L 85.175 120.120313 
L 65.175 120.120313 
z
" style="fill:#808080;"/>
    </g>
    <g id="text_15">
     <text style="font-family:DejaVu Sans;font-size:10px;font-style:normal;font-weight:normal;text-anchor:start;" transform="rotate(-0, 93.175, 127.120313)" x="93.175" y="127.120313">test</text>
    </g>
   </g>
  </g>
  <g id="axes_2">
   <g id="patch_14">
    <path d="M 209.8375 138.2 
L 347.717045 138.2 
L 347.717045 26.8 
L 209.8375 26.8 
z
" style="fill:#ffffff;"/>
   </g>
   <g id="PathCollection_13"/>
   <g id="PathCollection_14"/>
   <g id="PathCollection_15"/>
   <g id="patch_15">
    <path clip-path="url(#pb2520bcb36)" d="M 216.731477 88.688889 
L 244.307386 88.688889 
L 244.307386 43.306847 
L 216.731477 43.306847 
z
" style="fill:#f1f1f1;"/>
   </g>
   <g id="patch_16">
    <path clip-path="url(#pb2520bcb36)" d="M 285.67125 88.688889 
L 313.247159 88.688889 
L 313.247159 39.454747 
L 285.67125 39.454747 
z
" style="fill:#f1f1f1;"/>
   </g>
   <g id="patch_17">
    <path clip-path="url(#pb2520bcb36)" d="M 244.307386 88.688889 
L 271.883295 88.688889 
L 271.883295 72.221503 
L 244.307386 72.221503 
z
" style="fill:#808080;"/>
   </g>
   <g id="patch_18">
    <path clip-path="url(#pb2520bcb36)" d="M 313.247159 88.688889 
L 340.823068 88.688889 
L 340.823068 109.588171 
L 313.247159 109.588171 
z
" style="fill:#808080;"/>
   </g>
   <g id="matplotlib.axis_3">
    <g id="xtick_3">
     <g id="line2d_7">
      <g>
       <use style="stroke:#000000;stroke-width:0.8;" x="244.307386" xlink:href="#m4c9dd904b8" y="138.2"/>
      </g>
     </g>
     <g id="text_16">
      <text style="font-family:DejaVu Sans;font-size:10px;font-style:normal;font-weight:normal;text-anchor:middle;" transform="rotate(-0, 244.307386, 152.798438)" x="244.307386" y="152.798438">intrapolation</text>
     </g>
    </g>
    <g id="xtick_4">
     <g id="line2d_8">
      <g>
       <use style="stroke:#000000;stroke-width:0.8;" x="313.247159" xlink:href="#m4c9dd904b8" y="138.2"/>
      </g>
     </g>
     <g id="text_17">
      <text style="font-family:DejaVu Sans;font-size:10px;font-style:normal;font-weight:normal;text-anchor:middle;" transform="rotate(-0, 313.247159, 152.798438)" x="313.247159" y="152.798438">extrapolation</text>
     </g>
    </g>
    <g id="text_18">
     <text style="font-family:DejaVu Sans;font-size:10px;font-style:normal;font-weight:normal;text-anchor:middle;" transform="rotate(-0, 278.777273, 166.476562)" x="278.777273" y="166.476562">PerturbationType</text>
    </g>
   </g>
   <g id="matplotlib.axis_4">
    <g id="ytick_5">
     <g id="line2d_9">
      <g>
       <use style="stroke:#000000;stroke-width:0.8;" x="209.8375" xlink:href="#mf778573981" y="119.633333"/>
      </g>
     </g>
    </g>
    <g id="ytick_6">
     <g id="line2d_10">
      <g>
       <use style="stroke:#000000;stroke-width:0.8;" x="209.8375" xlink:href="#mf778573981" y="88.688889"/>
      </g>
     </g>
    </g>
    <g id="ytick_7">
     <g id="line2d_11">
      <g>
       <use style="stroke:#000000;stroke-width:0.8;" x="209.8375" xlink:href="#mf778573981" y="57.744444"/>
      </g>
     </g>
    </g>
    <g id="ytick_8">
     <g id="line2d_12">
      <g>
       <use style="stroke:#000000;stroke-width:0.8;" x="209.8375" xlink:href="#mf778573981" y="26.8"/>
      </g>
     </g>
    </g>
   </g>
   <g id="patch_19">
    <path d="M 209.8375 138.2 
L 209.8375 26.8 
" style="fill:none;stroke:#000000;stroke-linecap:square;stroke-linejoin:miter;stroke-width:0.8;"/>
   </g>
   <g id="patch_20">
    <path d="M 347.717045 138.2 
L 347.717045 26.8 
" style="fill:none;stroke:#000000;stroke-linecap:square;stroke-linejoin:miter;stroke-width:0.8;"/>
   </g>
   <g id="patch_21">
    <path d="M 209.8375 138.2 
L 347.717045 138.2 
" style="fill:none;stroke:#000000;stroke-linecap:square;stroke-linejoin:miter;stroke-width:0.8;"/>
   </g>
   <g id="patch_22">
    <path d="M 209.8375 26.8 
L 347.717045 26.8 
" style="fill:none;stroke:#000000;stroke-linecap:square;stroke-linejoin:miter;stroke-width:0.8;"/>
   </g>
   <g id="PathCollection_16">
    <defs>
     <path d="M 0 5 
C 1.326016 5 2.597899 4.473168 3.535534 3.535534 
C 4.473168 2.597899 5 1.326016 5 0 
C 5 -1.326016 4.473168 -2.597899 3.535534 -3.535534 
C 2.597899 -4.473168 1.326016 -5 0 -5 
C -1.326016 -5 -2.597899 -4.473168 -3.535534 -3.535534 
C -4.473168 -2.597899 -5 -1.326016 -5 0 
C -5 1.326016 -4.473168 2.597899 -3.535534 3.535534 
C -2.597899 4.473168 -1.326016 5 0 5 
z
" id="C6_0_23ce149770"/>
    </defs>
    <g clip-path="url(#pb2520bcb36)">
     <use style="fill:#1f77b4;" x="226.241683" xlink:href="#C6_0_23ce149770" y="48.041755"/>
    </g>
    <g clip-path="url(#pb2520bcb36)">
     <use style="fill:#1f77b4;" x="223.790119" xlink:href="#C6_0_23ce149770" y="83.760414"/>
    </g>
   </g>
   <g id="PathCollection_17">
    <defs>
     <path d="M 0 5 
C 1.326016 5 2.597899 4.473168 3.535534 3.535534 
C 4.473168 2.597899 5 1.326016 5 0 
C 5 -1.326016 4.473168 -2.597899 3.535534 -3.535534 
C 2.597899 -4.473168 1.326016 -5 0 -5 
C -1.326016 -5 -2.597899 -4.473168 -3.535534 -3.535534 
C -4.473168 -2.597899 -5 -1.326016 -5 0 
C -5 1.326016 -4.473168 2.597899 -3.535534 3.535534 
C -2.597899 4.473168 -1.326016 5 0 5 
z
" id="C7_0_09ea4f9698"/>
    </defs>
    <g clip-path="url(#pb2520bcb36)">
     <use style="fill:#ff7f0e;" x="245.690686" xlink:href="#C7_0_09ea4f9698" y="43.033416"/>
    </g>
    <g clip-path="url(#pb2520bcb36)">
     <use style="fill:#ff7f0e;" x="244.63922" xlink:href="#C7_0_09ea4f9698" y="62.212731"/>
    </g>
   </g>
   <g id="PathCollection_18">
    <defs>
     <path d="M 0 5 
C 1.326016 5 2.597899 4.473168 3.535534 3.535534 
C 4.473168 2.597899 5 1.326016 5 0 
C 5 -1.326016 4.473168 -2.597899 3.535534 -3.535534 
C 2.597899 -4.473168 1.326016 -5 0 -5 
C -1.326016 -5 -2.597899 -4.473168 -3.535534 -3.535534 
C -4.473168 -2.597899 -5 -1.326016 -5 0 
C -5 1.326016 -4.473168 2.597899 -3.535534 3.535534 
C -2.597899 4.473168 -1.326016 5 0 5 
z
" id="C8_0_bb8a66b12f"/>
    </defs>
    <g clip-path="url(#pb2520bcb36)">
     <use style="fill:#2ca02c;" x="264.28367" xlink:href="#C8_0_bb8a66b12f" y="38.84537"/>
    </g>
    <g clip-path="url(#pb2520bcb36)">
     <use style="fill:#2ca02c;" x="264.237987" xlink:href="#C8_0_bb8a66b12f" y="70.691365"/>
    </g>
   </g>
   <g id="PathCollection_19">
    <defs>
     <path d="M 0 5 
C 1.326016 5 2.597899 4.473168 3.535534 3.535534 
C 4.473168 2.597899 5 1.326016 5 0 
C 5 -1.326016 4.473168 -2.597899 3.535534 -3.535534 
C 2.597899 -4.473168 1.326016 -5 0 -5 
C -1.326016 -5 -2.597899 -4.473168 -3.535534 -3.535534 
C -4.473168 -2.597899 -5 -1.326016 -5 0 
C -5 1.326016 -4.473168 2.597899 -3.535534 3.535534 
C -2.597899 4.473168 -1.326016 5 0 5 
z
" id="C9_0_c413560bd3"/>
    </defs>
    <g clip-path="url(#pb2520bcb36)">
     <use style="fill:#1f77b4;" x="296.568356" xlink:href="#C9_0_c413560bd3" y="42.86106"/>
    </g>
    <g clip-path="url(#pb2520bcb36)">
     <use style="fill:#1f77b4;" x="295.488676" xlink:href="#C9_0_c413560bd3" y="91.214366"/>
    </g>
   </g>
   <g id="PathCollection_20">
    <defs>
     <path d="M 0 5 
C 1.326016 5 2.597899 4.473168 3.535534 3.535534 
C 4.473168 2.597899 5 1.326016 5 0 
C 5 -1.326016 4.473168 -2.597899 3.535534 -3.535534 
C 2.597899 -4.473168 1.326016 -5 0 -5 
C -1.326016 -5 -2.597899 -4.473168 -3.535534 -3.535534 
C -4.473168 -2.597899 -5 -1.326016 -5 0 
C -5 1.326016 -4.473168 2.597899 -3.535534 3.535534 
C -2.597899 4.473168 -1.326016 5 0 5 
z
" id="Ca_0_e1831d33c8"/>
    </defs>
    <g clip-path="url(#pb2520bcb36)">
     <use style="fill:#ff7f0e;" x="311.798232" xlink:href="#Ca_0_e1831d33c8" y="33.99987"/>
    </g>
    <g clip-path="url(#pb2520bcb36)">
     <use style="fill:#ff7f0e;" x="314.818888" xlink:href="#Ca_0_e1831d33c8" y="104.601328"/>
    </g>
   </g>
   <g id="PathCollection_21">
    <defs>
     <path d="M 0 5 
C 1.326016 5 2.597899 4.473168 3.535534 3.535534 
C 4.473168 2.597899 5 1.326016 5 0 
C 5 -1.326016 4.473168 -2.597899 3.535534 -3.535534 
C 2.597899 -4.473168 1.326016 -5 0 -5 
C -1.326016 -5 -2.597899 -4.473168 -3.535534 -3.535534 
C -4.473168 -2.597899 -5 -1.326016 -5 0 
C -5 1.326016 -4.473168 2.597899 -3.535534 3.535534 
C -2.597899 4.473168 -1.326016 5 0 5 
z
" id="Cb_0_d7474eaf13"/>
    </defs>
    <g clip-path="url(#pb2520bcb36)">
     <use style="fill:#2ca02c;" x="329.545507" xlink:href="#Cb_0_d7474eaf13" y="41.50331"/>
    </g>
    <g clip-path="url(#pb2520bcb36)">
     <use style="fill:#2ca02c;" x="333.632564" xlink:href="#Cb_0_d7474eaf13" y="132.94882"/>
    </g>
   </g>
   <g id="text_19">
    <text style="font-family:DejaVu Sans;font-size:12px;font-style:normal;font-weight:normal;text-anchor:middle;" transform="rotate(-0, 278.777273, 20.8)" x="278.777273" y="20.8">w weights</text>
   </g>
  </g>
 </g>
 <defs>
  <clipPath id="p44b62416b0">
   <rect height="111.4" width="137.879545" x="56.175" y="26.8"/>
  </clipPath>
  <clipPath id="pb2520bcb36">
   <rect height="111.4" width="137.879545" x="209.8375" y="26.8"/>
  </clipPath>
 </defs>
</svg>
