<?xml version="1.0" encoding="utf-8" standalone="no"?>
<!DOCTYPE svg PUBLIC "-//W3C//DTD SVG 1.1//EN"
  "http://www.w3.org/Graphics/SVG/1.1/DTD/svg11.dtd">
<!-- Created with matplotlib (https://matplotlib.org/) -->
<svg height="288pt" version="1.1" viewBox="0 0 360 288" width="360pt" xmlns="http://www.w3.org/2000/svg" xmlns:xlink="http://www.w3.org/1999/xlink">
 <defs>
  <style type="text/css">
*{stroke-linecap:butt;stroke-linejoin:round;}
  </style>
 </defs>
 <g id="figure_1">
  <g id="patch_1">
   <path d="M 0 288 
L 360 288 
L 360 0 
L 0 0 
z
" style="fill:#ffffff;"/>
  </g>
  <g id="axes_1">
   <g id="patch_2">
    <path d="M 45 252 
L 324 252 
L 324 34.56 
L 45 34.56 
z
" style="fill:#ffffff;"/>
   </g>
   <g id="PolyCollection_1">
    <defs>
     <path d="M 57.681818 -86.65609 
L 57.681818 -71.434104 
L 65.863636 -105.383539 
L 82.227273 -137.773135 
L 98.590909 -137.640955 
L 123.136364 -113.607989 
L 164.045455 -134.76248 
L 213.136364 -145.072253 
L 262.227273 -150.692603 
L 311.318182 -161.329582 
L 311.318182 -166.734289 
L 311.318182 -166.734289 
L 262.227273 -159.835381 
L 213.136364 -157.960323 
L 164.045455 -138.760274 
L 123.136364 -121.968182 
L 98.590909 -148.177991 
L 82.227273 -159.586824 
L 65.863636 -122.348349 
L 57.681818 -86.65609 
z
" id="m9e498f8dd4" style="stroke:#1f77b4;stroke-opacity:0.2;"/>
    </defs>
    <g clip-path="url(#paa27413933)">
     <use style="fill:#1f77b4;fill-opacity:0.2;stroke:#1f77b4;stroke-opacity:0.2;" x="0" xlink:href="#m9e498f8dd4" y="288"/>
    </g>
   </g>
   <g id="PolyCollection_2">
    <defs>
     <path d="M 57.681818 -114.173084 
L 57.681818 -86.276731 
L 65.863636 -119.356077 
L 82.227273 -149.688999 
L 98.590909 -130.00317 
L 123.136364 -155.694907 
L 164.045455 -138.791918 
L 213.136364 -130.789814 
L 262.227273 -136.281949 
L 311.318182 -124.987437 
L 311.318182 -137.185537 
L 311.318182 -137.185537 
L 262.227273 -155.146821 
L 213.136364 -144.683133 
L 164.045455 -155.554775 
L 123.136364 -162.654645 
L 98.590909 -143.056318 
L 82.227273 -175.141485 
L 65.863636 -136.732549 
L 57.681818 -114.173084 
z
" id="m2882a5ed80" style="stroke:#ff7f0e;stroke-opacity:0.2;"/>
    </defs>
    <g clip-path="url(#paa27413933)">
     <use style="fill:#ff7f0e;fill-opacity:0.2;stroke:#ff7f0e;stroke-opacity:0.2;" x="0" xlink:href="#m2882a5ed80" y="288"/>
    </g>
   </g>
   <g id="PolyCollection_3">
    <defs>
     <path d="M 57.681818 -100.154444 
L 57.681818 -83.507958 
L 65.863636 -80.079961 
L 82.227273 -111.040346 
L 98.590909 -48.299779 
L 123.136364 -49.648507 
L 164.045455 -49.83427 
L 213.136364 -83.105583 
L 262.227273 -103.183438 
L 311.318182 -73.699049 
L 311.318182 -97.584103 
L 311.318182 -97.584103 
L 262.227273 -111.35114 
L 213.136364 -105.020129 
L 164.045455 -71.417345 
L 123.136364 -69.194337 
L 98.590909 -59.780924 
L 82.227273 -123.340101 
L 65.863636 -100.266435 
L 57.681818 -100.154444 
z
" id="m19c107a82b" style="stroke:#2ca02c;stroke-opacity:0.2;"/>
    </defs>
    <g clip-path="url(#paa27413933)">
     <use style="fill:#2ca02c;fill-opacity:0.2;stroke:#2ca02c;stroke-opacity:0.2;" x="0" xlink:href="#m19c107a82b" y="288"/>
    </g>
   </g>
   <g id="matplotlib.axis_1">
    <g id="xtick_1">
     <g id="line2d_1">
      <defs>
       <path d="M 0 0 
L 0 3.5 
" id="mc636833816" style="stroke:#000000;stroke-width:0.8;"/>
      </defs>
      <g>
       <use style="stroke:#000000;stroke-width:0.8;" x="57.681818" xlink:href="#mc636833816" y="252"/>
      </g>
     </g>
     <g id="text_1">
      <text style="font-family:DejaVu Sans;font-size:10px;font-style:normal;font-weight:normal;text-anchor:middle;" transform="rotate(-0, 57.681818, 266.598437)" x="57.681818" y="266.598437">0</text>
     </g>
    </g>
    <g id="xtick_2">
     <g id="line2d_2">
      <g>
       <use style="stroke:#000000;stroke-width:0.8;" x="98.590909" xlink:href="#mc636833816" y="252"/>
      </g>
     </g>
     <g id="text_2">
      <text style="font-family:DejaVu Sans;font-size:10px;font-style:normal;font-weight:normal;text-anchor:middle;" transform="rotate(-0, 98.590909, 266.598437)" x="98.590909" y="266.598437">5</text>
     </g>
    </g>
    <g id="xtick_3">
     <g id="line2d_3">
      <g>
       <use style="stroke:#000000;stroke-width:0.8;" x="139.5" xlink:href="#mc636833816" y="252"/>
      </g>
     </g>
     <g id="text_3">
      <text style="font-family:DejaVu Sans;font-size:10px;font-style:normal;font-weight:normal;text-anchor:middle;" transform="rotate(-0, 139.5, 266.598437)" x="139.5" y="266.598437">10</text>
     </g>
    </g>
    <g id="xtick_4">
     <g id="line2d_4">
      <g>
       <use style="stroke:#000000;stroke-width:0.8;" x="180.409091" xlink:href="#mc636833816" y="252"/>
      </g>
     </g>
     <g id="text_4">
      <text style="font-family:DejaVu Sans;font-size:10px;font-style:normal;font-weight:normal;text-anchor:middle;" transform="rotate(-0, 180.409091, 266.598437)" x="180.409091" y="266.598437">15</text>
     </g>
    </g>
    <g id="xtick_5">
     <g id="line2d_5">
      <g>
       <use style="stroke:#000000;stroke-width:0.8;" x="221.318182" xlink:href="#mc636833816" y="252"/>
      </g>
     </g>
     <g id="text_5">
      <text style="font-family:DejaVu Sans;font-size:10px;font-style:normal;font-weight:normal;text-anchor:middle;" transform="rotate(-0, 221.318182, 266.598437)" x="221.318182" y="266.598437">20</text>
     </g>
    </g>
    <g id="xtick_6">
     <g id="line2d_6">
      <g>
       <use style="stroke:#000000;stroke-width:0.8;" x="262.227273" xlink:href="#mc636833816" y="252"/>
      </g>
     </g>
     <g id="text_6">
      <text style="font-family:DejaVu Sans;font-size:10px;font-style:normal;font-weight:normal;text-anchor:middle;" transform="rotate(-0, 262.227273, 266.598437)" x="262.227273" y="266.598437">25</text>
     </g>
    </g>
    <g id="xtick_7">
     <g id="line2d_7">
      <g>
       <use style="stroke:#000000;stroke-width:0.8;" x="303.136364" xlink:href="#mc636833816" y="252"/>
      </g>
     </g>
     <g id="text_7">
      <text style="font-family:DejaVu Sans;font-size:10px;font-style:normal;font-weight:normal;text-anchor:middle;" transform="rotate(-0, 303.136364, 266.598437)" x="303.136364" y="266.598437">30</text>
     </g>
    </g>
    <g id="text_8">
     <text style="font-family:DejaVu Sans;font-size:10px;font-style:normal;font-weight:normal;text-anchor:middle;" transform="rotate(-0, 184.5, 280.276563)" x="184.5" y="280.276563">Day</text>
    </g>
   </g>
   <g id="matplotlib.axis_2">
    <g id="ytick_1">
     <g id="line2d_8">
      <defs>
       <path d="M 0 0 
L -3.5 0 
" id="mca437918a9" style="stroke:#000000;stroke-width:0.8;"/>
      </defs>
      <g>
       <use style="stroke:#000000;stroke-width:0.8;" x="45" xlink:href="#mca437918a9" y="190.103155"/>
      </g>
     </g>
     <g id="text_9">
      <!-- $\mathdefault{10^{8}}$ -->
      <g transform="translate(20.4 193.902374)">
       <text>
        <tspan style="font-family:DejaVu Sans;font-size:10px;font-style:book;font-weight:book;" x="0 6.362305" y="-0.9765625">10</tspan>
        <tspan style="font-family:DejaVu Sans;font-size:7px;font-style:book;font-weight:book;" x="12.820312" y="-4.8046875">8</tspan>
       </text>
      </g>
     </g>
    </g>
    <g id="ytick_2">
     <g id="line2d_9">
      <g>
       <use style="stroke:#000000;stroke-width:0.8;" x="45" xlink:href="#mca437918a9" y="34.56"/>
      </g>
     </g>
     <g id="text_10">
      <!-- $\mathdefault{10^{9}}$ -->
      <g transform="translate(20.4 38.359219)">
       <text>
        <tspan style="font-family:DejaVu Sans;font-size:10px;font-style:book;font-weight:book;" x="0 6.362305" y="-0.9765625">10</tspan>
        <tspan style="font-family:DejaVu Sans;font-size:7px;font-style:book;font-weight:book;" x="12.820312" y="-4.8046875">9</tspan>
       </text>
      </g>
     </g>
    </g>
    <g id="ytick_3">
     <g id="line2d_10">
      <defs>
       <path d="M 0 0 
L -2 0 
" id="me997274bd0" style="stroke:#000000;stroke-width:0.6;"/>
      </defs>
      <g>
       <use style="stroke:#000000;stroke-width:0.6;" x="45" xlink:href="#me997274bd0" y="252"/>
      </g>
     </g>
    </g>
    <g id="ytick_4">
     <g id="line2d_11">
      <g>
       <use style="stroke:#000000;stroke-width:0.6;" x="45" xlink:href="#me997274bd0" y="236.926311"/>
      </g>
     </g>
    </g>
    <g id="ytick_5">
     <g id="line2d_12">
      <g>
       <use style="stroke:#000000;stroke-width:0.6;" x="45" xlink:href="#me997274bd0" y="224.61021"/>
      </g>
     </g>
    </g>
    <g id="ytick_6">
     <g id="line2d_13">
      <g>
       <use style="stroke:#000000;stroke-width:0.6;" x="45" xlink:href="#me997274bd0" y="214.197095"/>
      </g>
     </g>
    </g>
    <g id="ytick_7">
     <g id="line2d_14">
      <g>
       <use style="stroke:#000000;stroke-width:0.6;" x="45" xlink:href="#me997274bd0" y="205.176845"/>
      </g>
     </g>
    </g>
    <g id="ytick_8">
     <g id="line2d_15">
      <g>
       <use style="stroke:#000000;stroke-width:0.6;" x="45" xlink:href="#me997274bd0" y="197.22042"/>
      </g>
     </g>
    </g>
    <g id="ytick_9">
     <g id="line2d_16">
      <g>
       <use style="stroke:#000000;stroke-width:0.6;" x="45" xlink:href="#me997274bd0" y="143.28"/>
      </g>
     </g>
    </g>
    <g id="ytick_10">
     <g id="line2d_17">
      <g>
       <use style="stroke:#000000;stroke-width:0.6;" x="45" xlink:href="#me997274bd0" y="115.89021"/>
      </g>
     </g>
    </g>
    <g id="ytick_11">
     <g id="line2d_18">
      <g>
       <use style="stroke:#000000;stroke-width:0.6;" x="45" xlink:href="#me997274bd0" y="96.456845"/>
      </g>
     </g>
    </g>
    <g id="ytick_12">
     <g id="line2d_19">
      <g>
       <use style="stroke:#000000;stroke-width:0.6;" x="45" xlink:href="#me997274bd0" y="81.383155"/>
      </g>
     </g>
    </g>
    <g id="ytick_13">
     <g id="line2d_20">
      <g>
       <use style="stroke:#000000;stroke-width:0.6;" x="45" xlink:href="#me997274bd0" y="69.067055"/>
      </g>
     </g>
    </g>
    <g id="ytick_14">
     <g id="line2d_21">
      <g>
       <use style="stroke:#000000;stroke-width:0.6;" x="45" xlink:href="#me997274bd0" y="58.65394"/>
      </g>
     </g>
    </g>
    <g id="ytick_15">
     <g id="line2d_22">
      <g>
       <use style="stroke:#000000;stroke-width:0.6;" x="45" xlink:href="#me997274bd0" y="49.633689"/>
      </g>
     </g>
    </g>
    <g id="ytick_16">
     <g id="line2d_23">
      <g>
       <use style="stroke:#000000;stroke-width:0.6;" x="45" xlink:href="#me997274bd0" y="41.677264"/>
      </g>
     </g>
    </g>
    <g id="text_11">
     <text style="font-family:DejaVu Sans;font-size:10px;font-style:normal;font-weight:normal;text-anchor:middle;" transform="rotate(-90, 14.320312, 143.28)" x="14.320312" y="143.28">Value</text>
    </g>
   </g>
   <g id="line2d_24">
    <path clip-path="url(#paa27413933)" d="M 57.681818 208.810135 
L 65.863636 173.602885 
L 82.227273 138.444849 
L 98.590909 144.987041 
L 123.136364 170.197666 
L 164.045455 151.278583 
L 213.136364 136.176815 
L 262.227273 132.59308 
L 311.318182 123.914026 
" style="fill:none;stroke:#1f77b4;stroke-linecap:square;stroke-width:1.5;"/>
    <defs>
     <path d="M 0 3 
C 0.795609 3 1.55874 2.683901 2.12132 2.12132 
C 2.683901 1.55874 3 0.795609 3 0 
C 3 -0.795609 2.683901 -1.55874 2.12132 -2.12132 
C 1.55874 -2.683901 0.795609 -3 0 -3 
C -0.795609 -3 -1.55874 -2.683901 -2.12132 -2.12132 
C -2.683901 -1.55874 -3 -0.795609 -3 0 
C -3 0.795609 -2.683901 1.55874 -2.12132 2.12132 
C -1.55874 2.683901 -0.795609 3 0 3 
z
" id="mcafe3fa83a" style="stroke:#ffffff;stroke-width:0.75;"/>
    </defs>
    <g clip-path="url(#paa27413933)">
     <use style="fill:#1f77b4;stroke:#ffffff;stroke-width:0.75;" x="57.681818" xlink:href="#mcafe3fa83a" y="208.810135"/>
     <use style="fill:#1f77b4;stroke:#ffffff;stroke-width:0.75;" x="65.863636" xlink:href="#mcafe3fa83a" y="173.602885"/>
     <use style="fill:#1f77b4;stroke:#ffffff;stroke-width:0.75;" x="82.227273" xlink:href="#mcafe3fa83a" y="138.444849"/>
     <use style="fill:#1f77b4;stroke:#ffffff;stroke-width:0.75;" x="98.590909" xlink:href="#mcafe3fa83a" y="144.987041"/>
     <use style="fill:#1f77b4;stroke:#ffffff;stroke-width:0.75;" x="123.136364" xlink:href="#mcafe3fa83a" y="170.197666"/>
     <use style="fill:#1f77b4;stroke:#ffffff;stroke-width:0.75;" x="164.045455" xlink:href="#mcafe3fa83a" y="151.278583"/>
     <use style="fill:#1f77b4;stroke:#ffffff;stroke-width:0.75;" x="213.136364" xlink:href="#mcafe3fa83a" y="136.176815"/>
     <use style="fill:#1f77b4;stroke:#ffffff;stroke-width:0.75;" x="262.227273" xlink:href="#mcafe3fa83a" y="132.59308"/>
     <use style="fill:#1f77b4;stroke:#ffffff;stroke-width:0.75;" x="311.318182" xlink:href="#mcafe3fa83a" y="123.914026"/>
    </g>
   </g>
   <g id="line2d_25">
    <path clip-path="url(#paa27413933)" d="M 57.681818 186.345187 
L 65.863636 159.710114 
L 82.227273 125.631608 
L 98.590909 151.155459 
L 123.136364 128.759982 
L 164.045455 140.484283 
L 213.136364 149.782045 
L 262.227273 142.051538 
L 311.318182 156.789831 
" style="fill:none;stroke:#ff7f0e;stroke-linecap:square;stroke-width:1.5;"/>
    <defs>
     <path d="M 0 3 
C 0.795609 3 1.55874 2.683901 2.12132 2.12132 
C 2.683901 1.55874 3 0.795609 3 0 
C 3 -0.795609 2.683901 -1.55874 2.12132 -2.12132 
C 1.55874 -2.683901 0.795609 -3 0 -3 
C -0.795609 -3 -1.55874 -2.683901 -2.12132 -2.12132 
C -2.683901 -1.55874 -3 -0.795609 -3 0 
C -3 0.795609 -2.683901 1.55874 -2.12132 2.12132 
C -1.55874 2.683901 -0.795609 3 0 3 
z
" id="m457b5c5564" style="stroke:#ffffff;stroke-width:0.75;"/>
    </defs>
    <g clip-path="url(#paa27413933)">
     <use style="fill:#ff7f0e;stroke:#ffffff;stroke-width:0.75;" x="57.681818" xlink:href="#m457b5c5564" y="186.345187"/>
     <use style="fill:#ff7f0e;stroke:#ffffff;stroke-width:0.75;" x="65.863636" xlink:href="#m457b5c5564" y="159.710114"/>
     <use style="fill:#ff7f0e;stroke:#ffffff;stroke-width:0.75;" x="82.227273" xlink:href="#m457b5c5564" y="125.631608"/>
     <use style="fill:#ff7f0e;stroke:#ffffff;stroke-width:0.75;" x="98.590909" xlink:href="#m457b5c5564" y="151.155459"/>
     <use style="fill:#ff7f0e;stroke:#ffffff;stroke-width:0.75;" x="123.136364" xlink:href="#m457b5c5564" y="128.759982"/>
     <use style="fill:#ff7f0e;stroke:#ffffff;stroke-width:0.75;" x="164.045455" xlink:href="#m457b5c5564" y="140.484283"/>
     <use style="fill:#ff7f0e;stroke:#ffffff;stroke-width:0.75;" x="213.136364" xlink:href="#m457b5c5564" y="149.782045"/>
     <use style="fill:#ff7f0e;stroke:#ffffff;stroke-width:0.75;" x="262.227273" xlink:href="#m457b5c5564" y="142.051538"/>
     <use style="fill:#ff7f0e;stroke:#ffffff;stroke-width:0.75;" x="311.318182" xlink:href="#m457b5c5564" y="156.789831"/>
    </g>
   </g>
   <g id="line2d_26">
    <path clip-path="url(#paa27413933)" d="M 57.681818 195.75628 
L 65.863636 196.000193 
L 82.227273 170.530221 
L 98.590909 233.710849 
L 123.136364 227.998398 
L 164.045455 227.024716 
L 213.136364 192.79728 
L 262.227273 180.611422 
L 311.318182 201.452715 
" style="fill:none;stroke:#2ca02c;stroke-linecap:square;stroke-width:1.5;"/>
    <defs>
     <path d="M 0 3 
C 0.795609 3 1.55874 2.683901 2.12132 2.12132 
C 2.683901 1.55874 3 0.795609 3 0 
C 3 -0.795609 2.683901 -1.55874 2.12132 -2.12132 
C 1.55874 -2.683901 0.795609 -3 0 -3 
C -0.795609 -3 -1.55874 -2.683901 -2.12132 -2.12132 
C -2.683901 -1.55874 -3 -0.795609 -3 0 
C -3 0.795609 -2.683901 1.55874 -2.12132 2.12132 
C -1.55874 2.683901 -0.795609 3 0 3 
z
" id="meb7748e437" style="stroke:#ffffff;stroke-width:0.75;"/>
    </defs>
    <g clip-path="url(#paa27413933)">
     <use style="fill:#2ca02c;stroke:#ffffff;stroke-width:0.75;" x="57.681818" xlink:href="#meb7748e437" y="195.75628"/>
     <use style="fill:#2ca02c;stroke:#ffffff;stroke-width:0.75;" x="65.863636" xlink:href="#meb7748e437" y="196.000193"/>
     <use style="fill:#2ca02c;stroke:#ffffff;stroke-width:0.75;" x="82.227273" xlink:href="#meb7748e437" y="170.530221"/>
     <use style="fill:#2ca02c;stroke:#ffffff;stroke-width:0.75;" x="98.590909" xlink:href="#meb7748e437" y="233.710849"/>
     <use style="fill:#2ca02c;stroke:#ffffff;stroke-width:0.75;" x="123.136364" xlink:href="#meb7748e437" y="227.998398"/>
     <use style="fill:#2ca02c;stroke:#ffffff;stroke-width:0.75;" x="164.045455" xlink:href="#meb7748e437" y="227.024716"/>
     <use style="fill:#2ca02c;stroke:#ffffff;stroke-width:0.75;" x="213.136364" xlink:href="#meb7748e437" y="192.79728"/>
     <use style="fill:#2ca02c;stroke:#ffffff;stroke-width:0.75;" x="262.227273" xlink:href="#meb7748e437" y="180.611422"/>
     <use style="fill:#2ca02c;stroke:#ffffff;stroke-width:0.75;" x="311.318182" xlink:href="#meb7748e437" y="201.452715"/>
    </g>
   </g>
   <g id="line2d_27"/>
   <g id="line2d_28"/>
   <g id="line2d_29"/>
   <g id="line2d_30"/>
   <g id="patch_3">
    <path d="M 45 252 
L 45 34.56 
" style="fill:none;stroke:#000000;stroke-linecap:square;stroke-linejoin:miter;stroke-width:0.8;"/>
   </g>
   <g id="patch_4">
    <path d="M 324 252 
L 324 34.56 
" style="fill:none;stroke:#000000;stroke-linecap:square;stroke-linejoin:miter;stroke-width:0.8;"/>
   </g>
   <g id="patch_5">
    <path d="M 45 252 
L 324 252 
" style="fill:none;stroke:#000000;stroke-linecap:square;stroke-linejoin:miter;stroke-width:0.8;"/>
   </g>
   <g id="patch_6">
    <path d="M 45 34.56 
L 324 34.56 
" style="fill:none;stroke:#000000;stroke-linecap:square;stroke-linejoin:miter;stroke-width:0.8;"/>
   </g>
   <g id="legend_1">
    <g id="patch_7">
     <path d="M 226.946875 101.2725 
L 317 101.2725 
Q 319 101.2725 319 99.2725 
L 319 41.56 
Q 319 39.56 317 39.56 
L 226.946875 39.56 
Q 224.946875 39.56 224.946875 41.56 
L 224.946875 99.2725 
Q 224.946875 101.2725 226.946875 101.2725 
z
" style="fill:#ffffff;opacity:0.8;stroke:#cccccc;stroke-linejoin:miter;"/>
    </g>
    <g id="line2d_31">
     <path d="M 228.946875 47.658437 
L 248.946875 47.658437 
" style="fill:none;"/>
    </g>
    <g id="line2d_32"/>
    <g id="text_12">
     <text style="font-family:DejaVu Sans;font-size:10px;font-style:normal;font-weight:normal;text-anchor:start;" transform="rotate(-0, 256.946875, 51.158437)" x="256.946875" y="51.158437">Vendor</text>
    </g>
    <g id="line2d_33">
     <path d="M 228.946875 62.336562 
L 248.946875 62.336562 
" style="fill:none;stroke:#1f77b4;stroke-linecap:square;stroke-width:1.5;"/>
    </g>
    <g id="line2d_34"/>
    <g id="text_13">
     <text style="font-family:DejaVu Sans;font-size:10px;font-style:normal;font-weight:normal;text-anchor:start;" transform="rotate(-0, 256.946875, 65.836562)" x="256.946875" y="65.836562">Guangdong</text>
    </g>
    <g id="line2d_35">
     <path d="M 228.946875 77.014687 
L 248.946875 77.014687 
" style="fill:none;stroke:#ff7f0e;stroke-linecap:square;stroke-width:1.5;"/>
    </g>
    <g id="line2d_36"/>
    <g id="text_14">
     <text style="font-family:DejaVu Sans;font-size:10px;font-style:normal;font-weight:normal;text-anchor:start;" transform="rotate(-0, 256.946875, 80.514687)" x="256.946875" y="80.514687">Hunan</text>
    </g>
    <g id="line2d_37">
     <path d="M 228.946875 91.692813 
L 248.946875 91.692813 
" style="fill:none;stroke:#2ca02c;stroke-linecap:square;stroke-width:1.5;"/>
    </g>
    <g id="line2d_38"/>
    <g id="text_15">
     <text style="font-family:DejaVu Sans;font-size:10px;font-style:normal;font-weight:normal;text-anchor:start;" transform="rotate(-0, 256.946875, 95.192813)" x="256.946875" y="95.192813">Shanghai</text>
    </g>
   </g>
  </g>
 </g>
 <defs>
  <clipPath id="paa27413933">
   <rect height="217.44" width="279" x="45" y="34.56"/>
  </clipPath>
 </defs>
</svg>
