<?xml version="1.0" encoding="utf-8"?>
<!-- Generator: Adobe Illustrator 21.0.0, SVG Export Plug-In . SVG Version: 6.00 Build 0)  -->
<svg version="1.1" id="Layer_1" xmlns="http://www.w3.org/2000/svg" xmlns:xlink="http://www.w3.org/1999/xlink" x="0px" y="0px"
	 viewBox="0 0 1080 180" style="enable-background:new 0 0 1080 180;" xml:space="preserve">
<style type="text/css">
	.st0{fill:#D62728;stroke:#FFFFFF;stroke-width:0.75;stroke-linejoin:round;}
</style>
<g id="figure_1">
	<g id="axes_4">
		<g id="line2d_69">
			<g>
				<g>
					<g>
						<path id="m8d6774a428_28_" class="st0" d="M860,12964c0.8,0,1.6-0.3,2.1-0.9c0.6-0.6,0.9-1.3,0.9-2.1s-0.3-1.6-0.9-2.1
							c-0.6-0.6-1.3-0.9-2.1-0.9s-1.6,0.3-2.1,0.9c-0.6,0.6-0.9,1.3-0.9,2.1s0.3,1.6,0.9,2.1C858.5,12963.7,859.2,12964,860,12964z"
							/>
					</g>
					<g>
						<path id="m8d6774a428_29_" class="st0" d="M881.7,12964c0.8,0,1.6-0.3,2.1-0.9c0.6-0.6,0.9-1.3,0.9-2.1s-0.3-1.6-0.9-2.1
							c-0.6-0.6-1.3-0.9-2.1-0.9s-1.6,0.3-2.1,0.9c-0.6,0.6-0.9,1.3-0.9,2.1s0.3,1.6,0.9,2.1C880.1,12963.7,880.9,12964,881.7,12964
							z"/>
					</g>
				</g>
			</g>
		</g>
		<g id="line2d_70">
		</g>
		<g id="line2d_71">
		</g>
		<g id="line2d_72">
		</g>
		<g id="line2d_73">
		</g>
		<g id="line2d_74">
		</g>
	</g>
</g>
</svg>
